<?xml version="1.0" encoding="utf-8" standalone="no"?>
<!DOCTYPE svg PUBLIC "-//W3C//DTD SVG 1.1//EN"
  "http://www.w3.org/Graphics/SVG/1.1/DTD/svg11.dtd">
<svg xmlns:xlink="http://www.w3.org/1999/xlink" width="1261.676875pt" height="392.920625pt" viewBox="0 0 1261.676875 392.920625" xmlns="http://www.w3.org/2000/svg" version="1.1">
 <metadata>
  <rdf:RDF xmlns:dc="http://purl.org/dc/elements/1.1/" xmlns:cc="http://creativecommons.org/ns#" xmlns:rdf="http://www.w3.org/1999/02/22-rdf-syntax-ns#">
   <cc:Work>
    <dc:type rdf:resource="http://purl.org/dc/dcmitype/StillImage"/>
    <dc:date>2023-12-05T16:18:45.599764</dc:date>
    <dc:format>image/svg+xml</dc:format>
    <dc:creator>
     <cc:Agent>
      <dc:title>Matplotlib v3.7.0, https://matplotlib.org/</dc:title>
     </cc:Agent>
    </dc:creator>
   </cc:Work>
  </rdf:RDF>
 </metadata>
 <defs>
  <style type="text/css">*{stroke-linejoin: round; stroke-linecap: butt}</style>
 </defs>
 <g id="figure_1">
  <g id="patch_1">
   <path d="M -0 392.920625 
L 1261.676875 392.920625 
L 1261.676875 0 
L -0 0 
z
" style="fill: #ffffff"/>
  </g>
  <g id="axes_1">
   <g id="patch_2">
    <path d="M 64.24625 339.84 
L 1180.24625 339.84 
L 1180.24625 7.2 
L 64.24625 7.2 
z
" style="fill: #ffffff"/>
   </g>
   <g id="matplotlib.axis_1">
    <g id="xtick_1">
     <g id="line2d_1">
      <path d="M 114.973523 339.84 
L 114.973523 7.2 
" clip-path="url(#p861cca8cde)" style="fill: none; stroke: #b0b0b0; stroke-width: 0.8; stroke-linecap: square"/>
     </g>
     <g id="line2d_2">
      <defs>
       <path id="m337a8d73c6" d="M 0 0 
L 0 3.5 
" style="stroke: #000000; stroke-width: 0.8"/>
      </defs>
      <g>
       <use xlink:href="#m337a8d73c6" x="114.973523" y="339.84" style="stroke: #000000; stroke-width: 0.8"/>
      </g>
     </g>
     <g id="text_1">
      <!-- 0 -->
      <g transform="translate(109.247273 360.517188) scale(0.18 -0.18)">
       <defs>
        <path id="DejaVuSans-30" d="M 2034 4250 
Q 1547 4250 1301 3770 
Q 1056 3291 1056 2328 
Q 1056 1369 1301 889 
Q 1547 409 2034 409 
Q 2525 409 2770 889 
Q 3016 1369 3016 2328 
Q 3016 3291 2770 3770 
Q 2525 4250 2034 4250 
z
M 2034 4750 
Q 2819 4750 3233 4129 
Q 3647 3509 3647 2328 
Q 3647 1150 3233 529 
Q 2819 -91 2034 -91 
Q 1250 -91 836 529 
Q 422 1150 422 2328 
Q 422 3509 836 4129 
Q 1250 4750 2034 4750 
z
" transform="scale(0.015625)"/>
       </defs>
       <use xlink:href="#DejaVuSans-30"/>
      </g>
     </g>
    </g>
    <g id="xtick_2">
     <g id="line2d_3">
      <path d="M 248.115357 339.84 
L 248.115357 7.2 
" clip-path="url(#p861cca8cde)" style="fill: none; stroke: #b0b0b0; stroke-width: 0.8; stroke-linecap: square"/>
     </g>
     <g id="line2d_4">
      <g>
       <use xlink:href="#m337a8d73c6" x="248.115357" y="339.84" style="stroke: #000000; stroke-width: 0.8"/>
      </g>
     </g>
     <g id="text_2">
      <!-- 50 -->
      <g transform="translate(236.662857 360.517188) scale(0.18 -0.18)">
       <defs>
        <path id="DejaVuSans-35" d="M 691 4666 
L 3169 4666 
L 3169 4134 
L 1269 4134 
L 1269 2991 
Q 1406 3038 1543 3061 
Q 1681 3084 1819 3084 
Q 2600 3084 3056 2656 
Q 3513 2228 3513 1497 
Q 3513 744 3044 326 
Q 2575 -91 1722 -91 
Q 1428 -91 1123 -41 
Q 819 9 494 109 
L 494 744 
Q 775 591 1075 516 
Q 1375 441 1709 441 
Q 2250 441 2565 725 
Q 2881 1009 2881 1497 
Q 2881 1984 2565 2268 
Q 2250 2553 1709 2553 
Q 1456 2553 1204 2497 
Q 953 2441 691 2322 
L 691 4666 
z
" transform="scale(0.015625)"/>
       </defs>
       <use xlink:href="#DejaVuSans-35"/>
       <use xlink:href="#DejaVuSans-30" x="63.623047"/>
      </g>
     </g>
    </g>
    <g id="xtick_3">
     <g id="line2d_5">
      <path d="M 381.257191 339.84 
L 381.257191 7.2 
" clip-path="url(#p861cca8cde)" style="fill: none; stroke: #b0b0b0; stroke-width: 0.8; stroke-linecap: square"/>
     </g>
     <g id="line2d_6">
      <g>
       <use xlink:href="#m337a8d73c6" x="381.257191" y="339.84" style="stroke: #000000; stroke-width: 0.8"/>
      </g>
     </g>
     <g id="text_3">
      <!-- 100 -->
      <g transform="translate(364.078441 360.517188) scale(0.18 -0.18)">
       <defs>
        <path id="DejaVuSans-31" d="M 794 531 
L 1825 531 
L 1825 4091 
L 703 3866 
L 703 4441 
L 1819 4666 
L 2450 4666 
L 2450 531 
L 3481 531 
L 3481 0 
L 794 0 
L 794 531 
z
" transform="scale(0.015625)"/>
       </defs>
       <use xlink:href="#DejaVuSans-31"/>
       <use xlink:href="#DejaVuSans-30" x="63.623047"/>
       <use xlink:href="#DejaVuSans-30" x="127.246094"/>
      </g>
     </g>
    </g>
    <g id="xtick_4">
     <g id="line2d_7">
      <path d="M 514.399026 339.84 
L 514.399026 7.2 
" clip-path="url(#p861cca8cde)" style="fill: none; stroke: #b0b0b0; stroke-width: 0.8; stroke-linecap: square"/>
     </g>
     <g id="line2d_8">
      <g>
       <use xlink:href="#m337a8d73c6" x="514.399026" y="339.84" style="stroke: #000000; stroke-width: 0.8"/>
      </g>
     </g>
     <g id="text_4">
      <!-- 150 -->
      <g transform="translate(497.220276 360.517188) scale(0.18 -0.18)">
       <use xlink:href="#DejaVuSans-31"/>
       <use xlink:href="#DejaVuSans-35" x="63.623047"/>
       <use xlink:href="#DejaVuSans-30" x="127.246094"/>
      </g>
     </g>
    </g>
    <g id="xtick_5">
     <g id="line2d_9">
      <path d="M 647.54086 339.84 
L 647.54086 7.2 
" clip-path="url(#p861cca8cde)" style="fill: none; stroke: #b0b0b0; stroke-width: 0.8; stroke-linecap: square"/>
     </g>
     <g id="line2d_10">
      <g>
       <use xlink:href="#m337a8d73c6" x="647.54086" y="339.84" style="stroke: #000000; stroke-width: 0.8"/>
      </g>
     </g>
     <g id="text_5">
      <!-- 200 -->
      <g transform="translate(630.36211 360.517188) scale(0.18 -0.18)">
       <defs>
        <path id="DejaVuSans-32" d="M 1228 531 
L 3431 531 
L 3431 0 
L 469 0 
L 469 531 
Q 828 903 1448 1529 
Q 2069 2156 2228 2338 
Q 2531 2678 2651 2914 
Q 2772 3150 2772 3378 
Q 2772 3750 2511 3984 
Q 2250 4219 1831 4219 
Q 1534 4219 1204 4116 
Q 875 4013 500 3803 
L 500 4441 
Q 881 4594 1212 4672 
Q 1544 4750 1819 4750 
Q 2544 4750 2975 4387 
Q 3406 4025 3406 3419 
Q 3406 3131 3298 2873 
Q 3191 2616 2906 2266 
Q 2828 2175 2409 1742 
Q 1991 1309 1228 531 
z
" transform="scale(0.015625)"/>
       </defs>
       <use xlink:href="#DejaVuSans-32"/>
       <use xlink:href="#DejaVuSans-30" x="63.623047"/>
       <use xlink:href="#DejaVuSans-30" x="127.246094"/>
      </g>
     </g>
    </g>
    <g id="xtick_6">
     <g id="line2d_11">
      <path d="M 780.682694 339.84 
L 780.682694 7.2 
" clip-path="url(#p861cca8cde)" style="fill: none; stroke: #b0b0b0; stroke-width: 0.8; stroke-linecap: square"/>
     </g>
     <g id="line2d_12">
      <g>
       <use xlink:href="#m337a8d73c6" x="780.682694" y="339.84" style="stroke: #000000; stroke-width: 0.8"/>
      </g>
     </g>
     <g id="text_6">
      <!-- 250 -->
      <g transform="translate(763.503944 360.517188) scale(0.18 -0.18)">
       <use xlink:href="#DejaVuSans-32"/>
       <use xlink:href="#DejaVuSans-35" x="63.623047"/>
       <use xlink:href="#DejaVuSans-30" x="127.246094"/>
      </g>
     </g>
    </g>
    <g id="xtick_7">
     <g id="line2d_13">
      <path d="M 913.824528 339.84 
L 913.824528 7.2 
" clip-path="url(#p861cca8cde)" style="fill: none; stroke: #b0b0b0; stroke-width: 0.8; stroke-linecap: square"/>
     </g>
     <g id="line2d_14">
      <g>
       <use xlink:href="#m337a8d73c6" x="913.824528" y="339.84" style="stroke: #000000; stroke-width: 0.8"/>
      </g>
     </g>
     <g id="text_7">
      <!-- 300 -->
      <g transform="translate(896.645778 360.517188) scale(0.18 -0.18)">
       <defs>
        <path id="DejaVuSans-33" d="M 2597 2516 
Q 3050 2419 3304 2112 
Q 3559 1806 3559 1356 
Q 3559 666 3084 287 
Q 2609 -91 1734 -91 
Q 1441 -91 1130 -33 
Q 819 25 488 141 
L 488 750 
Q 750 597 1062 519 
Q 1375 441 1716 441 
Q 2309 441 2620 675 
Q 2931 909 2931 1356 
Q 2931 1769 2642 2001 
Q 2353 2234 1838 2234 
L 1294 2234 
L 1294 2753 
L 1863 2753 
Q 2328 2753 2575 2939 
Q 2822 3125 2822 3475 
Q 2822 3834 2567 4026 
Q 2313 4219 1838 4219 
Q 1578 4219 1281 4162 
Q 984 4106 628 3988 
L 628 4550 
Q 988 4650 1302 4700 
Q 1616 4750 1894 4750 
Q 2613 4750 3031 4423 
Q 3450 4097 3450 3541 
Q 3450 3153 3228 2886 
Q 3006 2619 2597 2516 
z
" transform="scale(0.015625)"/>
       </defs>
       <use xlink:href="#DejaVuSans-33"/>
       <use xlink:href="#DejaVuSans-30" x="63.623047"/>
       <use xlink:href="#DejaVuSans-30" x="127.246094"/>
      </g>
     </g>
    </g>
    <g id="xtick_8">
     <g id="line2d_15">
      <path d="M 1046.966363 339.84 
L 1046.966363 7.2 
" clip-path="url(#p861cca8cde)" style="fill: none; stroke: #b0b0b0; stroke-width: 0.8; stroke-linecap: square"/>
     </g>
     <g id="line2d_16">
      <g>
       <use xlink:href="#m337a8d73c6" x="1046.966363" y="339.84" style="stroke: #000000; stroke-width: 0.8"/>
      </g>
     </g>
     <g id="text_8">
      <!-- 350 -->
      <g transform="translate(1029.787613 360.517188) scale(0.18 -0.18)">
       <use xlink:href="#DejaVuSans-33"/>
       <use xlink:href="#DejaVuSans-35" x="63.623047"/>
       <use xlink:href="#DejaVuSans-30" x="127.246094"/>
      </g>
     </g>
    </g>
    <g id="xtick_9">
     <g id="line2d_17">
      <path d="M 1180.108197 339.84 
L 1180.108197 7.2 
" clip-path="url(#p861cca8cde)" style="fill: none; stroke: #b0b0b0; stroke-width: 0.8; stroke-linecap: square"/>
     </g>
     <g id="line2d_18">
      <g>
       <use xlink:href="#m337a8d73c6" x="1180.108197" y="339.84" style="stroke: #000000; stroke-width: 0.8"/>
      </g>
     </g>
     <g id="text_9">
      <!-- 400 -->
      <g transform="translate(1162.929447 360.517188) scale(0.18 -0.18)">
       <defs>
        <path id="DejaVuSans-34" d="M 2419 4116 
L 825 1625 
L 2419 1625 
L 2419 4116 
z
M 2253 4666 
L 3047 4666 
L 3047 1625 
L 3713 1625 
L 3713 1100 
L 3047 1100 
L 3047 0 
L 2419 0 
L 2419 1100 
L 313 1100 
L 313 1709 
L 2253 4666 
z
" transform="scale(0.015625)"/>
       </defs>
       <use xlink:href="#DejaVuSans-34"/>
       <use xlink:href="#DejaVuSans-30" x="63.623047"/>
       <use xlink:href="#DejaVuSans-30" x="127.246094"/>
      </g>
     </g>
    </g>
    <g id="text_10">
     <!-- $t$ [μs] -->
     <g transform="translate(598.39625 381.940625) scale(0.18 -0.18)">
      <defs>
       <path id="DejaVuSans-Oblique-74" d="M 2706 3500 
L 2619 3053 
L 1472 3053 
L 1100 1153 
Q 1081 1047 1072 975 
Q 1063 903 1063 863 
Q 1063 663 1183 572 
Q 1303 481 1569 481 
L 2150 481 
L 2053 0 
L 1503 0 
Q 991 0 739 200 
Q 488 400 488 806 
Q 488 878 497 964 
Q 506 1050 525 1153 
L 897 3053 
L 409 3053 
L 500 3500 
L 978 3500 
L 1172 4494 
L 1747 4494 
L 1556 3500 
L 2706 3500 
z
" transform="scale(0.015625)"/>
       <path id="DejaVuSans-20" transform="scale(0.015625)"/>
       <path id="DejaVuSans-5b" d="M 550 4863 
L 1875 4863 
L 1875 4416 
L 1125 4416 
L 1125 -397 
L 1875 -397 
L 1875 -844 
L 550 -844 
L 550 4863 
z
" transform="scale(0.015625)"/>
       <path id="DejaVuSans-3bc" d="M 544 -1331 
L 544 3500 
L 1119 3500 
L 1119 1325 
Q 1119 872 1334 640 
Q 1550 409 1972 409 
Q 2434 409 2667 671 
Q 2900 934 2900 1459 
L 2900 3500 
L 3475 3500 
L 3475 806 
Q 3475 619 3529 530 
Q 3584 441 3700 441 
Q 3728 441 3778 458 
Q 3828 475 3916 513 
L 3916 50 
Q 3788 -22 3673 -56 
Q 3559 -91 3450 -91 
Q 3234 -91 3106 31 
Q 2978 153 2931 403 
Q 2775 156 2548 32 
Q 2322 -91 2016 -91 
Q 1697 -91 1473 31 
Q 1250 153 1119 397 
L 1119 -1331 
L 544 -1331 
z
" transform="scale(0.015625)"/>
       <path id="DejaVuSans-73" d="M 2834 3397 
L 2834 2853 
Q 2591 2978 2328 3040 
Q 2066 3103 1784 3103 
Q 1356 3103 1142 2972 
Q 928 2841 928 2578 
Q 928 2378 1081 2264 
Q 1234 2150 1697 2047 
L 1894 2003 
Q 2506 1872 2764 1633 
Q 3022 1394 3022 966 
Q 3022 478 2636 193 
Q 2250 -91 1575 -91 
Q 1294 -91 989 -36 
Q 684 19 347 128 
L 347 722 
Q 666 556 975 473 
Q 1284 391 1588 391 
Q 1994 391 2212 530 
Q 2431 669 2431 922 
Q 2431 1156 2273 1281 
Q 2116 1406 1581 1522 
L 1381 1569 
Q 847 1681 609 1914 
Q 372 2147 372 2553 
Q 372 3047 722 3315 
Q 1072 3584 1716 3584 
Q 2034 3584 2315 3537 
Q 2597 3491 2834 3397 
z
" transform="scale(0.015625)"/>
       <path id="DejaVuSans-5d" d="M 1947 4863 
L 1947 -844 
L 622 -844 
L 622 -397 
L 1369 -397 
L 1369 4416 
L 622 4416 
L 622 4863 
L 1947 4863 
z
" transform="scale(0.015625)"/>
      </defs>
      <use xlink:href="#DejaVuSans-Oblique-74" transform="translate(0 0.015625)"/>
      <use xlink:href="#DejaVuSans-20" transform="translate(39.208984 0.015625)"/>
      <use xlink:href="#DejaVuSans-5b" transform="translate(70.996094 0.015625)"/>
      <use xlink:href="#DejaVuSans-3bc" transform="translate(110.009766 0.015625)"/>
      <use xlink:href="#DejaVuSans-73" transform="translate(173.632812 0.015625)"/>
      <use xlink:href="#DejaVuSans-5d" transform="translate(225.732422 0.015625)"/>
     </g>
    </g>
   </g>
   <g id="matplotlib.axis_2">
    <g id="ytick_1">
     <g id="line2d_19">
      <path d="M 64.24625 338.617397 
L 1180.24625 338.617397 
" clip-path="url(#p861cca8cde)" style="fill: none; stroke: #b0b0b0; stroke-width: 0.8; stroke-linecap: square"/>
     </g>
     <g id="line2d_20">
      <defs>
       <path id="m31c8a38644" d="M 0 0 
L -3.5 0 
" style="stroke: #000000; stroke-width: 0.8"/>
      </defs>
      <g>
       <use xlink:href="#m31c8a38644" x="64.24625" y="338.617397" style="stroke: #000000; stroke-width: 0.8"/>
      </g>
     </g>
     <g id="text_11">
      <!-- 0.0 -->
      <g transform="translate(28.620625 345.455991) scale(0.18 -0.18)">
       <defs>
        <path id="DejaVuSans-2e" d="M 684 794 
L 1344 794 
L 1344 0 
L 684 0 
L 684 794 
z
" transform="scale(0.015625)"/>
       </defs>
       <use xlink:href="#DejaVuSans-30"/>
       <use xlink:href="#DejaVuSans-2e" x="63.623047"/>
       <use xlink:href="#DejaVuSans-30" x="95.410156"/>
      </g>
     </g>
    </g>
    <g id="ytick_2">
     <g id="line2d_21">
      <path d="M 64.24625 288.258833 
L 1180.24625 288.258833 
" clip-path="url(#p861cca8cde)" style="fill: none; stroke: #b0b0b0; stroke-width: 0.8; stroke-linecap: square"/>
     </g>
     <g id="line2d_22">
      <g>
       <use xlink:href="#m31c8a38644" x="64.24625" y="288.258833" style="stroke: #000000; stroke-width: 0.8"/>
      </g>
     </g>
     <g id="text_12">
      <!-- 0.5 -->
      <g transform="translate(28.620625 295.097427) scale(0.18 -0.18)">
       <use xlink:href="#DejaVuSans-30"/>
       <use xlink:href="#DejaVuSans-2e" x="63.623047"/>
       <use xlink:href="#DejaVuSans-35" x="95.410156"/>
      </g>
     </g>
    </g>
    <g id="ytick_3">
     <g id="line2d_23">
      <path d="M 64.24625 237.900269 
L 1180.24625 237.900269 
" clip-path="url(#p861cca8cde)" style="fill: none; stroke: #b0b0b0; stroke-width: 0.8; stroke-linecap: square"/>
     </g>
     <g id="line2d_24">
      <g>
       <use xlink:href="#m31c8a38644" x="64.24625" y="237.900269" style="stroke: #000000; stroke-width: 0.8"/>
      </g>
     </g>
     <g id="text_13">
      <!-- 1.0 -->
      <g transform="translate(28.620625 244.738863) scale(0.18 -0.18)">
       <use xlink:href="#DejaVuSans-31"/>
       <use xlink:href="#DejaVuSans-2e" x="63.623047"/>
       <use xlink:href="#DejaVuSans-30" x="95.410156"/>
      </g>
     </g>
    </g>
    <g id="ytick_4">
     <g id="line2d_25">
      <path d="M 64.24625 187.541705 
L 1180.24625 187.541705 
" clip-path="url(#p861cca8cde)" style="fill: none; stroke: #b0b0b0; stroke-width: 0.8; stroke-linecap: square"/>
     </g>
     <g id="line2d_26">
      <g>
       <use xlink:href="#m31c8a38644" x="64.24625" y="187.541705" style="stroke: #000000; stroke-width: 0.8"/>
      </g>
     </g>
     <g id="text_14">
      <!-- 1.5 -->
      <g transform="translate(28.620625 194.380298) scale(0.18 -0.18)">
       <use xlink:href="#DejaVuSans-31"/>
       <use xlink:href="#DejaVuSans-2e" x="63.623047"/>
       <use xlink:href="#DejaVuSans-35" x="95.410156"/>
      </g>
     </g>
    </g>
    <g id="ytick_5">
     <g id="line2d_27">
      <path d="M 64.24625 137.18314 
L 1180.24625 137.18314 
" clip-path="url(#p861cca8cde)" style="fill: none; stroke: #b0b0b0; stroke-width: 0.8; stroke-linecap: square"/>
     </g>
     <g id="line2d_28">
      <g>
       <use xlink:href="#m31c8a38644" x="64.24625" y="137.18314" style="stroke: #000000; stroke-width: 0.8"/>
      </g>
     </g>
     <g id="text_15">
      <!-- 2.0 -->
      <g transform="translate(28.620625 144.021734) scale(0.18 -0.18)">
       <use xlink:href="#DejaVuSans-32"/>
       <use xlink:href="#DejaVuSans-2e" x="63.623047"/>
       <use xlink:href="#DejaVuSans-30" x="95.410156"/>
      </g>
     </g>
    </g>
    <g id="ytick_6">
     <g id="line2d_29">
      <path d="M 64.24625 86.824576 
L 1180.24625 86.824576 
" clip-path="url(#p861cca8cde)" style="fill: none; stroke: #b0b0b0; stroke-width: 0.8; stroke-linecap: square"/>
     </g>
     <g id="line2d_30">
      <g>
       <use xlink:href="#m31c8a38644" x="64.24625" y="86.824576" style="stroke: #000000; stroke-width: 0.8"/>
      </g>
     </g>
     <g id="text_16">
      <!-- 2.5 -->
      <g transform="translate(28.620625 93.66317) scale(0.18 -0.18)">
       <use xlink:href="#DejaVuSans-32"/>
       <use xlink:href="#DejaVuSans-2e" x="63.623047"/>
       <use xlink:href="#DejaVuSans-35" x="95.410156"/>
      </g>
     </g>
    </g>
    <g id="ytick_7">
     <g id="line2d_31">
      <path d="M 64.24625 36.466012 
L 1180.24625 36.466012 
" clip-path="url(#p861cca8cde)" style="fill: none; stroke: #b0b0b0; stroke-width: 0.8; stroke-linecap: square"/>
     </g>
     <g id="line2d_32">
      <g>
       <use xlink:href="#m31c8a38644" x="64.24625" y="36.466012" style="stroke: #000000; stroke-width: 0.8"/>
      </g>
     </g>
     <g id="text_17">
      <!-- 3.0 -->
      <g transform="translate(28.620625 43.304606) scale(0.18 -0.18)">
       <use xlink:href="#DejaVuSans-33"/>
       <use xlink:href="#DejaVuSans-2e" x="63.623047"/>
       <use xlink:href="#DejaVuSans-30" x="95.410156"/>
      </g>
     </g>
    </g>
    <g id="text_18">
     <!-- $R/R_E$ [-] -->
     <g style="fill: #0000ff" transform="translate(20.877188 206.46) rotate(-90) scale(0.18 -0.18)">
      <defs>
       <path id="DejaVuSans-Oblique-52" d="M 1613 4147 
L 1294 2491 
L 2106 2491 
Q 2584 2491 2879 2755 
Q 3175 3019 3175 3444 
Q 3175 3784 2976 3965 
Q 2778 4147 2406 4147 
L 1613 4147 
z
M 2772 2241 
Q 2972 2194 3105 2009 
Q 3238 1825 3413 1275 
L 3809 0 
L 3144 0 
L 2778 1197 
Q 2638 1659 2453 1815 
Q 2269 1972 1888 1972 
L 1191 1972 
L 806 0 
L 172 0 
L 1081 4666 
L 2503 4666 
Q 3150 4666 3495 4373 
Q 3841 4081 3841 3531 
Q 3841 3044 3547 2687 
Q 3253 2331 2772 2241 
z
" transform="scale(0.015625)"/>
       <path id="DejaVuSans-2f" d="M 1625 4666 
L 2156 4666 
L 531 -594 
L 0 -594 
L 1625 4666 
z
" transform="scale(0.015625)"/>
       <path id="DejaVuSans-Oblique-45" d="M 1081 4666 
L 4031 4666 
L 3928 4134 
L 1606 4134 
L 1338 2753 
L 3566 2753 
L 3463 2222 
L 1234 2222 
L 909 531 
L 3284 531 
L 3181 0 
L 172 0 
L 1081 4666 
z
" transform="scale(0.015625)"/>
       <path id="DejaVuSans-2d" d="M 313 2009 
L 1997 2009 
L 1997 1497 
L 313 1497 
L 313 2009 
z
" transform="scale(0.015625)"/>
      </defs>
      <use xlink:href="#DejaVuSans-Oblique-52" transform="translate(0 0.015625)"/>
      <use xlink:href="#DejaVuSans-2f" transform="translate(69.482422 0.015625)"/>
      <use xlink:href="#DejaVuSans-Oblique-52" transform="translate(103.173828 0.015625)"/>
      <use xlink:href="#DejaVuSans-Oblique-45" transform="translate(172.65625 -16.390625) scale(0.7)"/>
      <use xlink:href="#DejaVuSans-20" transform="translate(219.619141 0.015625)"/>
      <use xlink:href="#DejaVuSans-5b" transform="translate(251.40625 0.015625)"/>
      <use xlink:href="#DejaVuSans-2d" transform="translate(290.419922 0.015625)"/>
      <use xlink:href="#DejaVuSans-5d" transform="translate(326.503906 0.015625)"/>
     </g>
    </g>
   </g>
   <g id="line2d_33">
    <path d="M 114.973523 237.900269 
L 119.848735 237.793387 
L 122.680089 237.499359 
L 125.02737 237.038504 
L 127.094059 236.431379 
L 129.279727 235.557012 
L 131.462749 234.426852 
L 133.613785 233.052107 
L 135.757692 231.421527 
L 138.150906 229.298928 
L 140.680469 226.721395 
L 143.123068 223.924601 
L 145.839648 220.483533 
L 148.87829 216.255982 
L 152.296763 211.06827 
L 155.715235 205.471518 
L 159.513538 198.827264 
L 163.568689 191.298395 
L 168.460926 181.700252 
L 173.45714 171.41277 
L 179.483448 158.494704 
L 187.62319 140.460778 
L 205.961571 99.556574 
L 212.117433 86.439358 
L 217.393886 75.700453 
L 221.790931 67.205211 
L 226.187975 59.202565 
L 229.70561 53.206057 
L 233.223246 47.612689 
L 236.740881 42.462441 
L 240.108348 37.984873 
L 243.025308 34.493084 
L 245.942268 31.386097 
L 248.129989 29.323578 
L 250.657749 27.242173 
L 253.055775 25.581843 
L 255.453802 24.24341 
L 257.544997 23.351755 
L 259.533914 22.752752 
L 261.522832 22.406983 
L 263.163372 22.32 
L 264.803911 22.41902 
L 266.444451 22.710742 
L 268.084991 23.20223 
L 269.72553 23.900964 
L 271.36607 24.814892 
L 273.00661 25.952503 
L 274.647149 27.322894 
L 276.287689 28.935871 
L 278.338364 31.309485 
L 280.387162 34.098868 
L 282.43596 37.331538 
L 284.484759 41.036389 
L 286.533557 45.246455 
L 288.573473 49.978074 
L 290.554997 55.131784 
L 292.536521 60.883079 
L 294.702888 67.922356 
L 296.821592 75.651774 
L 298.891191 84.113032 
L 300.838854 93.014629 
L 302.841692 103.269803 
L 304.669649 113.777903 
L 306.415913 125.045935 
L 308.110201 137.3862 
L 309.753953 151.032305 
L 311.279519 165.630712 
L 312.678021 181.252132 
L 313.916106 197.650911 
L 314.997129 214.982824 
L 315.920425 233.461348 
L 316.672847 253.136867 
L 317.240629 273.896466 
L 317.637299 296.723082 
L 317.902224 324.72 
L 318.001548 316.520898 
L 318.343774 295.947537 
L 318.850279 278.612118 
L 319.531509 262.772204 
L 320.384856 248.061774 
L 321.395812 234.437921 
L 322.540703 221.933346 
L 323.837646 210.184564 
L 325.21177 199.677313 
L 326.682223 190.054636 
L 328.287377 181.016523 
L 329.959508 172.892002 
L 331.639827 165.813156 
L 333.397273 159.388103 
L 335.049453 154.135581 
L 336.725195 149.495198 
L 338.355408 145.577332 
L 340.108089 141.961387 
L 341.712334 139.150034 
L 343.351452 136.734628 
L 344.944855 134.80237 
L 346.310629 133.455426 
L 347.676403 132.381443 
L 349.042176 131.570236 
L 350.40795 131.013011 
L 351.720828 130.709729 
L 353.091388 130.629787 
L 354.315111 130.758193 
L 355.753606 131.145411 
L 357.157984 131.765704 
L 358.561677 132.621552 
L 360.109326 133.835607 
L 361.66595 135.340819 
L 363.430571 137.390794 
L 365.040485 139.580326 
L 366.972383 142.613412 
L 368.928476 146.142773 
L 370.98664 150.367575 
L 373.117398 155.315362 
L 375.263214 160.920117 
L 377.395221 167.150855 
L 379.522712 174.085576 
L 381.629624 181.738809 
L 383.611017 189.756211 
L 385.53404 198.44719 
L 387.401807 207.939544 
L 389.194802 218.279707 
L 390.768909 228.638458 
L 392.260704 239.923216 
L 393.628345 251.977031 
L 394.899698 265.219979 
L 396.122356 280.382996 
L 397.463849 296.88826 
L 397.775954 298.397035 
L 397.891892 298.469803 
L 397.926347 298.438038 
L 398.062556 298.080004 
L 398.297744 296.68122 
L 398.707798 292.633575 
L 401.769321 258.897419 
L 403.099846 247.947427 
L 404.567939 237.670403 
L 406.166801 228.044129 
L 407.818705 219.384147 
L 409.642685 210.993637 
L 411.524046 203.362737 
L 413.538852 196.126609 
L 415.621655 189.491816 
L 417.755014 183.451129 
L 419.89348 178.05915 
L 422.072558 173.165948 
L 424.290858 168.741925 
L 426.544259 164.769336 
L 428.646751 161.498125 
L 430.841903 158.499499 
L 432.961611 155.983658 
L 434.877556 154.014389 
L 436.949978 152.196118 
L 438.849168 150.804396 
L 440.817678 149.630753 
L 442.708279 148.755115 
L 444.70483 148.092889 
L 446.734888 147.692068 
L 448.615991 147.563623 
L 450.308318 147.646862 
L 452.160722 147.953755 
L 454.013127 148.487003 
L 456.067422 149.345271 
L 457.867671 150.331104 
L 459.701145 151.563372 
L 461.768524 153.235218 
L 463.683873 155.058577 
L 465.80135 157.392239 
L 467.918827 160.073516 
L 470.012611 163.083546 
L 472.219277 166.664491 
L 474.498824 170.834515 
L 476.750031 175.46054 
L 478.98254 180.593442 
L 480.992433 185.726956 
L 483.171122 191.904108 
L 485.366381 198.858616 
L 487.343779 205.845611 
L 489.404208 213.978882 
L 491.300588 222.375817 
L 493.187529 231.774661 
L 494.973562 241.830425 
L 496.748681 253.157826 
L 498.638162 266.758493 
L 500.832303 282.472942 
L 501.471289 285.507712 
L 501.900803 286.612207 
L 502.18586 286.843768 
L 502.391156 286.752337 
L 502.648985 286.339291 
L 502.996295 285.302906 
L 503.495303 283.032683 
L 504.298846 278.17021 
L 508.762186 249.424236 
L 510.509808 240.291727 
L 512.298668 232.080209 
L 514.110337 224.734259 
L 516.022877 217.861214 
L 517.953058 211.699767 
L 519.962277 205.993603 
L 521.996431 200.855642 
L 524.118978 196.098043 
L 526.304242 191.774345 
L 528.22278 188.413849 
L 530.4035 185.047593 
L 532.591509 182.119946 
L 534.505737 179.904892 
L 536.417377 177.998484 
L 538.418956 176.315499 
L 540.267427 175.03533 
L 542.033598 174.050648 
L 544.044162 173.206436 
L 545.891566 172.685462 
L 547.600444 172.417669 
L 549.508171 172.359569 
L 551.298562 172.535107 
L 553.051062 172.922616 
L 554.891878 173.560381 
L 556.58233 174.355987 
L 558.407495 175.44351 
L 560.362791 176.876424 
L 562.430621 178.700454 
L 564.593672 180.958615 
L 566.648228 183.447714 
L 568.747908 186.353665 
L 570.962404 189.836313 
L 573.128617 193.683804 
L 575.320258 198.051881 
L 577.591365 203.124024 
L 579.64557 208.232693 
L 581.846292 214.308241 
L 584.075887 221.164328 
L 586.267715 228.663453 
L 588.449428 236.939462 
L 590.812703 246.832755 
L 596.478793 271.165281 
L 597.29676 273.444845 
L 597.942387 274.644319 
L 598.426431 275.137363 
L 598.800597 275.264377 
L 599.17296 275.168563 
L 599.589777 274.804981 
L 600.098119 274.018942 
L 600.691399 272.682607 
L 601.518385 270.224224 
L 602.694168 265.951832 
L 605.409798 254.952369 
L 608.038481 244.778542 
L 610.237152 237.13462 
L 612.37401 230.492036 
L 614.511186 224.571243 
L 616.578455 219.469954 
L 618.740302 214.731672 
L 620.834807 210.670285 
L 622.93751 207.073061 
L 624.911014 204.102013 
L 626.884517 201.497623 
L 629.020808 199.067567 
L 630.813626 197.324836 
L 632.815593 195.684701 
L 634.618267 194.474181 
L 636.411997 193.512589 
L 638.292461 192.758275 
L 640.258076 192.24182 
L 641.937218 192.017462 
L 643.797194 191.999641 
L 645.419256 192.180827 
L 647.195451 192.588953 
L 648.971646 193.216606 
L 650.74784 194.064904 
L 652.695126 195.250792 
L 654.485684 196.580507 
L 656.324887 198.189075 
L 658.352368 200.253361 
L 660.379849 202.630723 
L 662.507655 205.472753 
L 664.735785 208.843005 
L 667.001511 212.699442 
L 669.304831 217.080634 
L 671.738153 222.230503 
L 674.129435 227.821786 
L 676.679647 234.348496 
L 679.788522 242.969186 
L 684.900784 257.252599 
L 686.373084 260.651865 
L 687.512241 262.752734 
L 688.418499 263.990826 
L 689.195292 264.696666 
L 689.842619 265.014448 
L 690.472051 265.080828 
L 691.036472 264.938004 
L 691.686226 264.54483 
L 692.430566 263.81366 
L 693.31733 262.595553 
L 694.378026 260.730364 
L 695.77295 257.784804 
L 697.873714 252.758257 
L 703.600977 238.839871 
L 706.159523 233.312019 
L 708.537255 228.693809 
L 710.801672 224.767689 
L 713.008762 221.374512 
L 715.104209 218.535423 
L 717.261736 215.986456 
L 719.380044 213.838998 
L 721.438818 212.076754 
L 723.369141 210.705844 
L 725.135961 209.683116 
L 727.049755 208.819544 
L 728.770219 208.255636 
L 730.66488 207.863241 
L 732.695199 207.704784 
L 734.744423 207.816326 
L 736.429343 208.110503 
L 738.3244 208.658328 
L 740.387621 209.514919 
L 742.507953 210.67718 
L 744.506693 212.034299 
L 746.607868 213.73457 
L 748.652039 215.657595 
L 750.802366 217.965619 
L 753.221483 220.907964 
L 755.783372 224.413244 
L 758.423994 228.422393 
L 761.463942 233.474954 
L 765.581451 240.81505 
L 769.800335 248.229497 
L 771.840164 251.378867 
L 773.475243 253.499836 
L 774.787397 254.853845 
L 775.911762 255.721222 
L 776.994052 256.273924 
L 777.991672 256.525175 
L 778.937799 256.531393 
L 779.862831 256.323052 
L 780.874018 255.864535 
L 781.978787 255.110707 
L 783.22299 253.985216 
L 784.695293 252.344343 
L 786.564467 249.909961 
L 789.375124 245.839273 
L 795.460869 236.958737 
L 798.204175 233.367939 
L 800.820215 230.300727 
L 803.221523 227.819731 
L 805.581718 225.704194 
L 807.694014 224.085175 
L 809.913602 222.662634 
L 811.916012 221.622456 
L 814.124526 220.739677 
L 816.231686 220.152617 
L 818.217322 219.824243 
L 820.173064 219.711002 
L 822.257326 219.816483 
L 824.341589 220.151543 
L 826.659001 220.788539 
L 828.643486 221.55065 
L 831.005712 222.711428 
L 833.213484 224.037247 
L 835.678494 225.779684 
L 838.198848 227.828045 
L 841.118266 230.501398 
L 844.54238 233.967624 
L 855.379886 245.23631 
L 857.466284 246.926707 
L 859.197922 248.067163 
L 860.839928 248.887289 
L 862.385887 249.401772 
L 863.833683 249.644505 
L 865.222443 249.657357 
L 866.756387 249.427417 
L 868.220913 248.983219 
L 869.839804 248.262589 
L 871.690097 247.187763 
L 873.834448 245.680895 
L 876.74834 243.339931 
L 886.722592 235.080942 
L 889.788765 232.956708 
L 892.299344 231.454354 
L 894.860131 230.162558 
L 897.420917 229.125515 
L 899.981703 228.349544 
L 902.222391 227.886492 
L 904.463079 227.62434 
L 906.947472 227.565669 
L 909.434647 227.746034 
L 911.762423 228.124751 
L 914.341556 228.771034 
L 917.067581 229.697403 
L 920.095019 230.992618 
L 923.154094 232.547403 
L 926.890112 234.704873 
L 939.291438 242.119268 
L 941.842785 243.265197 
L 944.181519 244.078079 
L 946.307641 244.588826 
L 948.433763 244.864823 
L 950.393152 244.906575 
L 952.523967 244.726244 
L 954.734145 244.308525 
L 957.062114 243.646461 
L 959.858558 242.609812 
L 963.424663 241.029302 
L 975.514794 235.464297 
L 978.915996 234.246955 
L 982.153963 233.327779 
L 985.190133 232.699606 
L 988.304854 232.301026 
L 991.344999 232.154576 
L 994.308073 232.238379 
L 997.452746 232.560976 
L 1000.657032 233.118379 
L 1004.034802 233.926023 
L 1008.012846 235.110607 
L 1013.724861 237.082753 
L 1021.236424 239.659438 
L 1025.050375 240.721301 
L 1028.277565 241.391331 
L 1031.211373 241.779988 
L 1034.018553 241.938542 
L 1037.044633 241.874514 
L 1040.090327 241.579803 
L 1043.330189 241.04845 
L 1047.265394 240.175389 
L 1053.726879 238.467785 
L 1060.817658 236.659092 
L 1065.019648 235.798386 
L 1069.06404 235.189452 
L 1073.009069 234.832176 
L 1077.008348 234.719496 
L 1080.978279 234.850874 
L 1085.095281 235.221721 
L 1089.623984 235.860735 
L 1095.387788 236.914653 
L 1107.379241 239.186144 
L 1111.927822 239.78697 
L 1116.126512 240.112117 
L 1120.019639 240.193874 
L 1123.954777 240.064866 
L 1128.555386 239.678845 
L 1129.518977 239.571559 
L 1129.518977 239.571559 
" clip-path="url(#p861cca8cde)" style="fill: none; stroke: #0000ff; stroke-linecap: square"/>
   </g>
   <g id="patch_3">
    <path d="M 64.24625 339.84 
L 64.24625 7.2 
" style="fill: none; stroke: #000000; stroke-width: 0.8; stroke-linejoin: miter; stroke-linecap: square"/>
   </g>
   <g id="patch_4">
    <path d="M 1180.24625 339.84 
L 1180.24625 7.2 
" style="fill: none; stroke: #000000; stroke-width: 0.8; stroke-linejoin: miter; stroke-linecap: square"/>
   </g>
   <g id="patch_5">
    <path d="M 64.24625 339.84 
L 1180.24625 339.84 
" style="fill: none; stroke: #000000; stroke-width: 0.8; stroke-linejoin: miter; stroke-linecap: square"/>
   </g>
   <g id="patch_6">
    <path d="M 64.24625 7.2 
L 1180.24625 7.2 
" style="fill: none; stroke: #000000; stroke-width: 0.8; stroke-linejoin: miter; stroke-linecap: square"/>
   </g>
  </g>
  <g id="axes_2">
   <g id="matplotlib.axis_3">
    <g id="ytick_8">
     <g id="line2d_34">
      <defs>
       <path id="maa21f96be9" d="M 0 0 
L 3.5 0 
" style="stroke: #000000; stroke-width: 0.8"/>
      </defs>
      <g>
       <use xlink:href="#maa21f96be9" x="1180.24625" y="300.143525" style="stroke: #000000; stroke-width: 0.8"/>
      </g>
     </g>
     <g id="text_19">
      <!-- 500 -->
      <g transform="translate(1187.24625 306.982119) scale(0.18 -0.18)">
       <use xlink:href="#DejaVuSans-35"/>
       <use xlink:href="#DejaVuSans-30" x="63.623047"/>
       <use xlink:href="#DejaVuSans-30" x="127.246094"/>
      </g>
     </g>
    </g>
    <g id="ytick_9">
     <g id="line2d_35">
      <g>
       <use xlink:href="#maa21f96be9" x="1180.24625" y="255.780439" style="stroke: #000000; stroke-width: 0.8"/>
      </g>
     </g>
     <g id="text_20">
      <!-- 1000 -->
      <g transform="translate(1187.24625 262.619033) scale(0.18 -0.18)">
       <use xlink:href="#DejaVuSans-31"/>
       <use xlink:href="#DejaVuSans-30" x="63.623047"/>
       <use xlink:href="#DejaVuSans-30" x="127.246094"/>
       <use xlink:href="#DejaVuSans-30" x="190.869141"/>
      </g>
     </g>
    </g>
    <g id="ytick_10">
     <g id="line2d_36">
      <g>
       <use xlink:href="#maa21f96be9" x="1180.24625" y="211.417353" style="stroke: #000000; stroke-width: 0.8"/>
      </g>
     </g>
     <g id="text_21">
      <!-- 1500 -->
      <g transform="translate(1187.24625 218.255947) scale(0.18 -0.18)">
       <use xlink:href="#DejaVuSans-31"/>
       <use xlink:href="#DejaVuSans-35" x="63.623047"/>
       <use xlink:href="#DejaVuSans-30" x="127.246094"/>
       <use xlink:href="#DejaVuSans-30" x="190.869141"/>
      </g>
     </g>
    </g>
    <g id="ytick_11">
     <g id="line2d_37">
      <g>
       <use xlink:href="#maa21f96be9" x="1180.24625" y="167.054267" style="stroke: #000000; stroke-width: 0.8"/>
      </g>
     </g>
     <g id="text_22">
      <!-- 2000 -->
      <g transform="translate(1187.24625 173.892861) scale(0.18 -0.18)">
       <use xlink:href="#DejaVuSans-32"/>
       <use xlink:href="#DejaVuSans-30" x="63.623047"/>
       <use xlink:href="#DejaVuSans-30" x="127.246094"/>
       <use xlink:href="#DejaVuSans-30" x="190.869141"/>
      </g>
     </g>
    </g>
    <g id="ytick_12">
     <g id="line2d_38">
      <g>
       <use xlink:href="#maa21f96be9" x="1180.24625" y="122.691181" style="stroke: #000000; stroke-width: 0.8"/>
      </g>
     </g>
     <g id="text_23">
      <!-- 2500 -->
      <g transform="translate(1187.24625 129.529775) scale(0.18 -0.18)">
       <use xlink:href="#DejaVuSans-32"/>
       <use xlink:href="#DejaVuSans-35" x="63.623047"/>
       <use xlink:href="#DejaVuSans-30" x="127.246094"/>
       <use xlink:href="#DejaVuSans-30" x="190.869141"/>
      </g>
     </g>
    </g>
    <g id="ytick_13">
     <g id="line2d_39">
      <g>
       <use xlink:href="#maa21f96be9" x="1180.24625" y="78.328095" style="stroke: #000000; stroke-width: 0.8"/>
      </g>
     </g>
     <g id="text_24">
      <!-- 3000 -->
      <g transform="translate(1187.24625 85.166689) scale(0.18 -0.18)">
       <use xlink:href="#DejaVuSans-33"/>
       <use xlink:href="#DejaVuSans-30" x="63.623047"/>
       <use xlink:href="#DejaVuSans-30" x="127.246094"/>
       <use xlink:href="#DejaVuSans-30" x="190.869141"/>
      </g>
     </g>
    </g>
    <g id="ytick_14">
     <g id="line2d_40">
      <g>
       <use xlink:href="#maa21f96be9" x="1180.24625" y="33.965009" style="stroke: #000000; stroke-width: 0.8"/>
      </g>
     </g>
     <g id="text_25">
      <!-- 3500 -->
      <g transform="translate(1187.24625 40.803603) scale(0.18 -0.18)">
       <use xlink:href="#DejaVuSans-33"/>
       <use xlink:href="#DejaVuSans-35" x="63.623047"/>
       <use xlink:href="#DejaVuSans-30" x="127.246094"/>
       <use xlink:href="#DejaVuSans-30" x="190.869141"/>
      </g>
     </g>
    </g>
    <g id="text_26">
     <!-- $T$ [K] -->
     <g style="fill: #ff0000" transform="translate(1250.733437 194.85) rotate(-90) scale(0.18 -0.18)">
      <defs>
       <path id="DejaVuSans-Oblique-54" d="M 378 4666 
L 4325 4666 
L 4225 4134 
L 2559 4134 
L 1759 0 
L 1125 0 
L 1925 4134 
L 275 4134 
L 378 4666 
z
" transform="scale(0.015625)"/>
       <path id="DejaVuSans-4b" d="M 628 4666 
L 1259 4666 
L 1259 2694 
L 3353 4666 
L 4166 4666 
L 1850 2491 
L 4331 0 
L 3500 0 
L 1259 2247 
L 1259 0 
L 628 0 
L 628 4666 
z
" transform="scale(0.015625)"/>
      </defs>
      <use xlink:href="#DejaVuSans-Oblique-54" transform="translate(0 0.015625)"/>
      <use xlink:href="#DejaVuSans-20" transform="translate(61.083984 0.015625)"/>
      <use xlink:href="#DejaVuSans-5b" transform="translate(92.871094 0.015625)"/>
      <use xlink:href="#DejaVuSans-4b" transform="translate(131.884766 0.015625)"/>
      <use xlink:href="#DejaVuSans-5d" transform="translate(197.460938 0.015625)"/>
     </g>
    </g>
   </g>
   <g id="line2d_41">
    <path d="M 114.973523 318.496534 
L 122.516301 318.601963 
L 127.357494 318.899454 
L 132.459557 319.44748 
L 140.027921 320.52185 
L 147.738799 321.552134 
L 153.436253 322.090209 
L 159.133708 322.397171 
L 165.03636 322.494517 
L 172.374716 322.37815 
L 182.554401 321.95971 
L 226.187975 319.893931 
L 254.254788 318.976329 
L 275.057284 318.214767 
L 284.826225 317.65373 
L 291.404222 317.070081 
L 296.115357 316.442893 
L 299.670256 315.7572 
L 302.519031 314.981139 
L 304.669649 314.178136 
L 306.415913 313.312116 
L 307.998776 312.275987 
L 309.293165 311.163737 
L 310.442908 309.878226 
L 311.43163 308.442749 
L 312.373988 306.655193 
L 313.250388 304.522749 
L 314.038625 302.033573 
L 314.759469 298.984155 
L 315.375555 295.385451 
L 315.920425 290.847971 
L 316.405374 284.792633 
L 316.814508 276.671321 
L 317.155666 265.13608 
L 317.42566 247.955298 
L 317.633758 219.328496 
L 317.782458 163.327796 
L 317.902097 22.32 
L 317.976328 105.986963 
L 318.184655 208.988369 
L 318.469231 250.712829 
L 318.83403 273.915829 
L 319.272375 288.386199 
L 319.775321 297.972695 
L 320.338979 304.669749 
L 320.968041 309.596481 
L 321.651706 313.274489 
L 322.388157 316.084371 
L 323.178919 318.271573 
L 324.029809 320.00058 
L 324.955786 321.386558 
L 325.909329 322.421381 
L 326.901087 323.183682 
L 327.992813 323.745993 
L 329.234654 324.123831 
L 330.601484 324.30559 
L 332.29582 324.29457 
L 334.498726 324.031573 
L 337.67484 323.394683 
L 353.091388 320.003209 
L 362.146829 318.441392 
L 370.500658 316.935472 
L 374.971476 315.907913 
L 378.246218 314.937665 
L 380.851473 313.945204 
L 383.052959 312.868897 
L 384.794416 311.78382 
L 386.273665 310.624637 
L 387.646861 309.269 
L 388.88756 307.713755 
L 390.049031 305.878708 
L 391.103731 303.820574 
L 392.051849 301.506887 
L 392.966651 298.652568 
L 393.764937 295.40301 
L 394.510476 291.375525 
L 395.190383 286.391158 
L 395.828985 279.916734 
L 396.443068 271.238216 
L 397.834193 250.043383 
L 397.897429 250.128888 
L 397.899669 250.135967 
L 398.004764 250.848419 
L 398.212353 254.041337 
L 398.685929 265.769094 
L 399.520288 284.959214 
L 400.179865 295.044512 
L 400.851268 302.057814 
L 401.571594 307.325345 
L 402.332197 311.311517 
L 403.12827 314.375119 
L 404.007969 316.892843 
L 404.947154 318.902607 
L 405.921189 320.477188 
L 406.969017 321.761407 
L 408.034067 322.735332 
L 409.242135 323.530523 
L 410.4356 324.068654 
L 411.802867 324.455646 
L 413.436186 324.679001 
L 415.332176 324.706782 
L 417.755014 324.505778 
L 421.231879 323.96185 
L 430.841903 322.103773 
L 437.666599 320.957783 
L 444.70483 319.996282 
L 454.939329 318.847276 
L 468.203926 317.333209 
L 473.919378 316.44949 
L 478.184487 315.563882 
L 481.388558 314.680038 
L 484.080042 313.708054 
L 486.216579 312.712854 
L 488.081025 311.609232 
L 489.775135 310.335522 
L 491.194005 308.989472 
L 492.527425 307.39975 
L 493.770734 305.564214 
L 494.973562 303.393448 
L 496.044099 301.005251 
L 497.082779 298.114147 
L 498.054481 294.708443 
L 499.015923 290.473347 
L 500.147095 284.356266 
L 501.284616 278.434112 
L 501.734423 277.12435 
L 502.029479 276.818805 
L 502.197374 276.898808 
L 502.413682 277.321499 
L 502.682062 278.391019 
L 503.108572 281.172416 
L 503.983751 288.789593 
L 505.177174 298.553546 
L 506.094598 304.276367 
L 507.005933 308.604873 
L 507.937036 311.981361 
L 508.919084 314.712232 
L 509.915475 316.852458 
L 510.99767 318.654467 
L 512.13916 320.122469 
L 513.35352 321.313034 
L 514.664172 322.265516 
L 516.022877 322.970646 
L 517.462743 323.475661 
L 519.154135 323.826714 
L 521.004042 323.988799 
L 523.250675 323.966473 
L 526.304242 323.690179 
L 530.67609 323.04029 
L 552.001112 319.588181 
L 566.648228 317.390171 
L 571.85743 316.360676 
L 575.552912 315.422427 
L 578.669705 314.409175 
L 581.112718 313.400784 
L 583.31344 312.259177 
L 585.229303 311.0137 
L 586.938055 309.632138 
L 588.449428 308.126225 
L 589.962297 306.282232 
L 591.498984 304.051964 
L 593.043117 301.401114 
L 595.016847 297.501821 
L 596.607303 294.517881 
L 597.371566 293.503935 
L 597.942387 293.07148 
L 598.3584 293.022038 
L 598.732567 293.196902 
L 599.17296 293.671451 
L 599.713505 294.625392 
L 600.392192 296.321439 
L 601.386915 299.527346 
L 603.901527 307.812781 
L 605.179741 311.163805 
L 606.407482 313.772813 
L 607.620145 315.851707 
L 608.894845 317.6078 
L 610.237152 319.076484 
L 611.618765 320.255409 
L 612.993557 321.15614 
L 614.585971 321.926124 
L 616.253799 322.48249 
L 618.200674 322.881661 
L 620.394531 323.089403 
L 622.93751 323.101574 
L 626.320659 322.869406 
L 631.020352 322.28741 
L 639.904901 320.903587 
L 656.662801 318.087848 
L 662.507655 316.874066 
L 666.771179 315.768603 
L 670.168447 314.666688 
L 673.066227 313.497998 
L 675.563929 312.259468 
L 677.922334 310.838439 
L 680.134565 309.245977 
L 682.658679 307.137722 
L 686.05316 304.290051 
L 687.201376 303.610675 
L 688.159568 303.291869 
L 689.001094 303.254496 
L 689.777887 303.449756 
L 690.588243 303.897215 
L 691.466527 304.648265 
L 692.530336 305.868092 
L 694.044304 307.985807 
L 698.209085 313.984104 
L 699.892632 315.958937 
L 701.571076 317.591362 
L 703.230957 318.895504 
L 704.94222 319.95402 
L 706.729964 320.794553 
L 708.624185 321.43884 
L 710.698705 321.908704 
L 713.008762 322.203991 
L 715.633395 322.319487 
L 718.890078 322.231844 
L 723.07957 321.876782 
L 728.770219 321.153739 
L 737.473795 319.801908 
L 746.123364 318.246379 
L 752.14632 316.950801 
L 757.003075 315.685272 
L 761.27102 314.346446 
L 765.931859 312.632533 
L 771.138362 310.727505 
L 773.228026 310.213908 
L 774.889612 310.035879 
L 776.320622 310.098838 
L 777.781586 310.396547 
L 779.19008 310.907436 
L 780.855823 311.760657 
L 782.935643 313.09357 
L 789.731882 317.638038 
L 792.106238 318.852416 
L 794.2995 319.741071 
L 796.701017 320.472546 
L 799.177868 320.994106 
L 801.997166 321.348308 
L 805.142123 321.505858 
L 808.680497 321.460076 
L 813.020269 321.180166 
L 818.730285 320.574588 
L 826.229664 319.538656 
L 834.442172 318.186186 
L 842.82444 316.57724 
L 853.855771 314.434129 
L 857.107983 314.068088 
L 859.795015 313.993066 
L 862.289664 314.15722 
L 864.674214 314.536618 
L 867.350718 315.191858 
L 870.965684 316.32744 
L 877.910862 318.544189 
L 881.481838 319.41391 
L 884.720922 319.984868 
L 888.183575 320.374968 
L 891.979246 320.575523 
L 896.140524 320.576364 
L 901.262096 320.344759 
L 907.671616 319.811185 
L 915.704569 318.910658 
L 937.705196 316.305516 
L 941.842785 316.129711 
L 945.669804 316.185632 
L 949.511151 316.470679 
L 953.991226 317.047396 
L 970.083704 319.367065 
L 974.978134 319.703835 
L 980.040731 319.82824 
L 985.635094 319.74586 
L 992.456152 319.416913 
L 1002.011987 318.707404 
L 1018.294946 317.473452 
L 1024.463614 317.252567 
L 1030.03785 317.277001 
L 1035.812433 317.536156 
L 1043.747783 318.149098 
L 1054.529964 318.957651 
L 1061.460406 319.235601 
L 1068.328696 319.284871 
L 1076.008528 319.118455 
L 1087.153783 318.626797 
L 1103.180552 317.92621 
L 1111.22804 317.815358 
L 1118.822135 317.931799 
L 1129.363609 318.346606 
L 1129.518977 318.353588 
L 1129.518977 318.353588 
" clip-path="url(#p861cca8cde)" style="fill: none; stroke-dasharray: 6.4,1.6,1,1.6; stroke-dashoffset: 0; stroke: #ff0000"/>
   </g>
   <g id="patch_7">
    <path d="M 64.24625 339.84 
L 64.24625 7.2 
" style="fill: none; stroke: #000000; stroke-width: 0.8; stroke-linejoin: miter; stroke-linecap: square"/>
   </g>
   <g id="patch_8">
    <path d="M 1180.24625 339.84 
L 1180.24625 7.2 
" style="fill: none; stroke: #000000; stroke-width: 0.8; stroke-linejoin: miter; stroke-linecap: square"/>
   </g>
   <g id="patch_9">
    <path d="M 64.24625 339.84 
L 1180.24625 339.84 
" style="fill: none; stroke: #000000; stroke-width: 0.8; stroke-linejoin: miter; stroke-linecap: square"/>
   </g>
   <g id="patch_10">
    <path d="M 64.24625 7.2 
L 1180.24625 7.2 
" style="fill: none; stroke: #000000; stroke-width: 0.8; stroke-linejoin: miter; stroke-linecap: square"/>
   </g>
   <g id="text_27">
    <g id="patch_11">
     <path d="M 970.897187 206.331625 
L 1167.86625 206.331625 
L 1167.86625 13.892 
L 970.897187 13.892 
z
" style="fill: #ffffff; stroke: #000000; stroke-linejoin: miter"/>
    </g>
    <!-- Initial conditions: -->
    <g transform="translate(980.837188 34.469813) scale(0.14 -0.14)">
     <defs>
      <path id="DejaVuSans-Oblique-49" d="M 1081 4666 
L 1716 4666 
L 806 0 
L 172 0 
L 1081 4666 
z
" transform="scale(0.015625)"/>
      <path id="DejaVuSans-Oblique-6e" d="M 3566 2113 
L 3156 0 
L 2578 0 
L 2988 2091 
Q 3016 2238 3031 2350 
Q 3047 2463 3047 2528 
Q 3047 2791 2881 2937 
Q 2716 3084 2419 3084 
Q 1956 3084 1622 2776 
Q 1288 2469 1184 1941 
L 800 0 
L 225 0 
L 903 3500 
L 1478 3500 
L 1363 2950 
Q 1603 3253 1940 3418 
Q 2278 3584 2650 3584 
Q 3113 3584 3367 3334 
Q 3622 3084 3622 2631 
Q 3622 2519 3608 2391 
Q 3594 2263 3566 2113 
z
" transform="scale(0.015625)"/>
      <path id="DejaVuSans-Oblique-69" d="M 1172 4863 
L 1747 4863 
L 1606 4134 
L 1031 4134 
L 1172 4863 
z
M 909 3500 
L 1484 3500 
L 800 0 
L 225 0 
L 909 3500 
z
" transform="scale(0.015625)"/>
      <path id="DejaVuSans-Oblique-61" d="M 3438 1997 
L 3047 0 
L 2472 0 
L 2578 531 
Q 2325 219 2001 64 
Q 1678 -91 1281 -91 
Q 834 -91 548 182 
Q 263 456 263 884 
Q 263 1497 752 1853 
Q 1241 2209 2100 2209 
L 2900 2209 
L 2931 2363 
Q 2938 2388 2941 2417 
Q 2944 2447 2944 2509 
Q 2944 2788 2717 2942 
Q 2491 3097 2081 3097 
Q 1800 3097 1504 3025 
Q 1209 2953 897 2809 
L 997 3341 
Q 1322 3463 1633 3523 
Q 1944 3584 2234 3584 
Q 2853 3584 3176 3315 
Q 3500 3047 3500 2534 
Q 3500 2431 3484 2292 
Q 3469 2153 3438 1997 
z
M 2816 1759 
L 2241 1759 
Q 1534 1759 1195 1570 
Q 856 1381 856 984 
Q 856 709 1029 553 
Q 1203 397 1509 397 
Q 1978 397 2328 733 
Q 2678 1069 2791 1631 
L 2816 1759 
z
" transform="scale(0.015625)"/>
      <path id="DejaVuSans-Oblique-6c" d="M 1172 4863 
L 1747 4863 
L 800 0 
L 225 0 
L 1172 4863 
z
" transform="scale(0.015625)"/>
      <path id="DejaVuSans-Oblique-20" transform="scale(0.015625)"/>
      <path id="DejaVuSans-Oblique-63" d="M 3431 3366 
L 3316 2797 
Q 3109 2947 2876 3022 
Q 2644 3097 2394 3097 
Q 2119 3097 1870 3000 
Q 1622 2903 1453 2725 
Q 1184 2453 1037 2087 
Q 891 1722 891 1331 
Q 891 859 1127 628 
Q 1363 397 1844 397 
Q 2081 397 2348 469 
Q 2616 541 2906 684 
L 2797 116 
Q 2547 13 2283 -39 
Q 2019 -91 1741 -91 
Q 1044 -91 669 257 
Q 294 606 294 1253 
Q 294 1797 489 2255 
Q 684 2713 1069 3078 
Q 1331 3328 1684 3456 
Q 2038 3584 2456 3584 
Q 2700 3584 2940 3529 
Q 3181 3475 3431 3366 
z
" transform="scale(0.015625)"/>
      <path id="DejaVuSans-Oblique-6f" d="M 1625 -91 
Q 1009 -91 651 289 
Q 294 669 294 1325 
Q 294 1706 417 2101 
Q 541 2497 738 2766 
Q 1047 3184 1428 3384 
Q 1809 3584 2291 3584 
Q 2888 3584 3255 3212 
Q 3622 2841 3622 2241 
Q 3622 1825 3500 1412 
Q 3378 1000 3181 728 
Q 2875 309 2494 109 
Q 2113 -91 1625 -91 
z
M 891 1344 
Q 891 869 1089 633 
Q 1288 397 1691 397 
Q 2269 397 2648 901 
Q 3028 1406 3028 2181 
Q 3028 2634 2825 2865 
Q 2622 3097 2228 3097 
Q 1903 3097 1650 2945 
Q 1397 2794 1197 2484 
Q 1050 2253 970 1956 
Q 891 1659 891 1344 
z
" transform="scale(0.015625)"/>
      <path id="DejaVuSans-Oblique-64" d="M 2675 525 
Q 2444 222 2128 65 
Q 1813 -91 1428 -91 
Q 903 -91 598 267 
Q 294 625 294 1247 
Q 294 1766 478 2236 
Q 663 2706 1013 3078 
Q 1244 3325 1534 3454 
Q 1825 3584 2144 3584 
Q 2481 3584 2739 3421 
Q 2997 3259 3138 2956 
L 3513 4863 
L 4091 4863 
L 3144 0 
L 2566 0 
L 2675 525 
z
M 891 1350 
Q 891 897 1095 644 
Q 1300 391 1663 391 
Q 1931 391 2161 520 
Q 2391 650 2566 903 
Q 2750 1166 2856 1509 
Q 2963 1853 2963 2188 
Q 2963 2622 2758 2865 
Q 2553 3109 2194 3109 
Q 1922 3109 1687 2981 
Q 1453 2853 1288 2613 
Q 1106 2353 998 2009 
Q 891 1666 891 1350 
z
" transform="scale(0.015625)"/>
      <path id="DejaVuSans-Oblique-73" d="M 3200 3397 
L 3091 2853 
Q 2863 2978 2609 3040 
Q 2356 3103 2088 3103 
Q 1634 3103 1373 2948 
Q 1113 2794 1113 2528 
Q 1113 2219 1719 2053 
Q 1766 2041 1788 2034 
L 1972 1978 
Q 2547 1819 2739 1644 
Q 2931 1469 2931 1166 
Q 2931 609 2489 259 
Q 2047 -91 1331 -91 
Q 1053 -91 747 -37 
Q 441 16 72 128 
L 184 722 
Q 500 559 806 475 
Q 1113 391 1394 391 
Q 1816 391 2080 572 
Q 2344 753 2344 1031 
Q 2344 1331 1650 1516 
L 1591 1531 
L 1394 1581 
Q 956 1697 753 1886 
Q 550 2075 550 2369 
Q 550 2928 970 3256 
Q 1391 3584 2113 3584 
Q 2397 3584 2667 3537 
Q 2938 3491 3200 3397 
z
" transform="scale(0.015625)"/>
      <path id="DejaVuSans-Oblique-3a" d="M 978 3309 
L 1638 3309 
L 1484 2516 
L 825 2516 
L 978 3309 
z
M 488 794 
L 1147 794 
L 991 0 
L 331 0 
L 488 794 
z
" transform="scale(0.015625)"/>
     </defs>
     <use xlink:href="#DejaVuSans-Oblique-49"/>
     <use xlink:href="#DejaVuSans-Oblique-6e" x="29.492188"/>
     <use xlink:href="#DejaVuSans-Oblique-69" x="92.871094"/>
     <use xlink:href="#DejaVuSans-Oblique-74" x="120.654297"/>
     <use xlink:href="#DejaVuSans-Oblique-69" x="159.863281"/>
     <use xlink:href="#DejaVuSans-Oblique-61" x="187.646484"/>
     <use xlink:href="#DejaVuSans-Oblique-6c" x="248.925781"/>
     <use xlink:href="#DejaVuSans-Oblique-20" x="276.708984"/>
     <use xlink:href="#DejaVuSans-Oblique-63" x="308.496094"/>
     <use xlink:href="#DejaVuSans-Oblique-6f" x="363.476562"/>
     <use xlink:href="#DejaVuSans-Oblique-6e" x="424.658203"/>
     <use xlink:href="#DejaVuSans-Oblique-64" x="488.037109"/>
     <use xlink:href="#DejaVuSans-Oblique-69" x="551.513672"/>
     <use xlink:href="#DejaVuSans-Oblique-74" x="579.296875"/>
     <use xlink:href="#DejaVuSans-Oblique-69" x="618.505859"/>
     <use xlink:href="#DejaVuSans-Oblique-6f" x="646.289062"/>
     <use xlink:href="#DejaVuSans-Oblique-6e" x="707.470703"/>
     <use xlink:href="#DejaVuSans-Oblique-73" x="770.849609"/>
     <use xlink:href="#DejaVuSans-Oblique-3a" x="822.949219"/>
    </g>
    <!--     $R_E$ =  100.00 $[\mu m]$ -->
    <g transform="translate(980.837188 50.149375) scale(0.14 -0.14)">
     <defs>
      <path id="DejaVuSans-Oblique-3d" d="M 678 2906 
L 4684 2906 
L 4684 2381 
L 678 2381 
L 678 2906 
z
M 678 1631 
L 4684 1631 
L 4684 1100 
L 678 1100 
L 678 1631 
z
" transform="scale(0.015625)"/>
      <path id="DejaVuSans-Oblique-31" d="M 416 531 
L 1447 531 
L 2144 4122 
L 978 3897 
L 1088 4441 
L 2247 4666 
L 2881 4666 
L 2075 531 
L 3103 531 
L 3003 0 
L 313 0 
L 416 531 
z
" transform="scale(0.015625)"/>
      <path id="DejaVuSans-Oblique-30" d="M 2444 4750 
Q 3078 4750 3414 4328 
Q 3750 3906 3750 3116 
Q 3750 2516 3592 1923 
Q 3434 1331 3150 863 
Q 2859 394 2467 151 
Q 2075 -91 1600 -91 
Q 988 -91 653 334 
Q 319 759 319 1544 
Q 319 2138 480 2733 
Q 641 3328 928 3794 
Q 1216 4263 1602 4506 
Q 1988 4750 2444 4750 
z
M 2406 4250 
Q 2169 4250 1955 4123 
Q 1741 3997 1569 3750 
Q 1281 3338 1111 2720 
Q 941 2103 941 1453 
Q 941 938 1123 673 
Q 1306 409 1663 409 
Q 1913 409 2125 536 
Q 2338 663 2509 909 
Q 2794 1319 2961 1936 
Q 3128 2553 3128 3206 
Q 3128 3722 2945 3986 
Q 2763 4250 2406 4250 
z
" transform="scale(0.015625)"/>
      <path id="DejaVuSans-Oblique-2e" d="M 525 794 
L 1184 794 
L 1031 0 
L 372 0 
L 525 794 
z
" transform="scale(0.015625)"/>
      <path id="DejaVuSans-Oblique-3bc" d="M -84 -1331 
L 856 3500 
L 1434 3500 
L 1009 1322 
Q 997 1256 987 1175 
Q 978 1094 978 1013 
Q 978 722 1161 565 
Q 1344 409 1684 409 
Q 2147 409 2431 671 
Q 2716 934 2816 1459 
L 3213 3500 
L 3788 3500 
L 3266 809 
Q 3253 750 3248 706 
Q 3244 663 3244 628 
Q 3244 531 3283 486 
Q 3322 441 3406 441 
Q 3438 441 3492 456 
Q 3547 472 3647 513 
L 3559 50 
Q 3422 -19 3297 -55 
Q 3172 -91 3053 -91 
Q 2847 -91 2730 40 
Q 2613 172 2613 403 
Q 2438 153 2195 31 
Q 1953 -91 1625 -91 
Q 1334 -91 1117 43 
Q 900 178 831 397 
L 494 -1331 
L -84 -1331 
z
" transform="scale(0.015625)"/>
      <path id="DejaVuSans-Oblique-6d" d="M 5747 2113 
L 5338 0 
L 4763 0 
L 5166 2094 
Q 5191 2228 5203 2325 
Q 5216 2422 5216 2491 
Q 5216 2772 5059 2928 
Q 4903 3084 4622 3084 
Q 4203 3084 3875 2770 
Q 3547 2456 3450 1953 
L 3066 0 
L 2491 0 
L 2900 2094 
Q 2925 2209 2937 2307 
Q 2950 2406 2950 2484 
Q 2950 2769 2794 2926 
Q 2638 3084 2363 3084 
Q 1938 3084 1609 2770 
Q 1281 2456 1184 1953 
L 800 0 
L 225 0 
L 909 3500 
L 1484 3500 
L 1375 2956 
Q 1609 3263 1923 3423 
Q 2238 3584 2597 3584 
Q 2978 3584 3223 3384 
Q 3469 3184 3519 2828 
Q 3781 3197 4126 3390 
Q 4472 3584 4856 3584 
Q 5306 3584 5551 3325 
Q 5797 3066 5797 2591 
Q 5797 2488 5784 2364 
Q 5772 2241 5747 2113 
z
" transform="scale(0.015625)"/>
     </defs>
     <use xlink:href="#DejaVuSans-Oblique-20" transform="translate(0 0.015625)"/>
     <use xlink:href="#DejaVuSans-Oblique-20" transform="translate(31.787109 0.015625)"/>
     <use xlink:href="#DejaVuSans-Oblique-20" transform="translate(63.574219 0.015625)"/>
     <use xlink:href="#DejaVuSans-Oblique-20" transform="translate(95.361328 0.015625)"/>
     <use xlink:href="#DejaVuSans-Oblique-52" transform="translate(127.148438 0.015625)"/>
     <use xlink:href="#DejaVuSans-Oblique-45" transform="translate(196.630859 -16.390625) scale(0.7)"/>
     <use xlink:href="#DejaVuSans-Oblique-20" transform="translate(243.59375 0.015625)"/>
     <use xlink:href="#DejaVuSans-Oblique-3d" transform="translate(275.380859 0.015625)"/>
     <use xlink:href="#DejaVuSans-Oblique-20" transform="translate(359.169922 0.015625)"/>
     <use xlink:href="#DejaVuSans-Oblique-20" transform="translate(390.957031 0.015625)"/>
     <use xlink:href="#DejaVuSans-Oblique-31" transform="translate(422.744141 0.015625)"/>
     <use xlink:href="#DejaVuSans-Oblique-30" transform="translate(486.367188 0.015625)"/>
     <use xlink:href="#DejaVuSans-Oblique-30" transform="translate(549.990234 0.015625)"/>
     <use xlink:href="#DejaVuSans-Oblique-2e" transform="translate(613.613281 0.015625)"/>
     <use xlink:href="#DejaVuSans-Oblique-30" transform="translate(645.400391 0.015625)"/>
     <use xlink:href="#DejaVuSans-Oblique-30" transform="translate(709.023438 0.015625)"/>
     <use xlink:href="#DejaVuSans-Oblique-20" transform="translate(772.646484 0.015625)"/>
     <use xlink:href="#DejaVuSans-5b" transform="translate(804.433594 0.015625)"/>
     <use xlink:href="#DejaVuSans-Oblique-3bc" transform="translate(843.447266 0.015625)"/>
     <use xlink:href="#DejaVuSans-Oblique-6d" transform="translate(907.070312 0.015625)"/>
     <use xlink:href="#DejaVuSans-5d" transform="translate(1004.482422 0.015625)"/>
    </g>
    <!--     $P_{amb}$ =  1.01 $[bar]$ -->
    <g transform="translate(980.837188 65.85475) scale(0.14 -0.14)">
     <defs>
      <path id="DejaVuSans-Oblique-50" d="M 1081 4666 
L 2541 4666 
Q 3178 4666 3512 4369 
Q 3847 4072 3847 3500 
Q 3847 2731 3353 2303 
Q 2859 1875 1966 1875 
L 1172 1875 
L 806 0 
L 172 0 
L 1081 4666 
z
M 1613 4147 
L 1275 2394 
L 2069 2394 
Q 2606 2394 2893 2669 
Q 3181 2944 3181 3456 
Q 3181 3784 2986 3965 
Q 2791 4147 2438 4147 
L 1613 4147 
z
" transform="scale(0.015625)"/>
      <path id="DejaVuSans-Oblique-62" d="M 3169 2138 
Q 3169 2591 2961 2847 
Q 2753 3103 2388 3103 
Q 2122 3103 1889 2973 
Q 1656 2844 1484 2597 
Q 1303 2338 1198 1995 
Q 1094 1653 1094 1313 
Q 1094 881 1298 636 
Q 1503 391 1863 391 
Q 2134 391 2365 517 
Q 2597 644 2772 891 
Q 2950 1147 3059 1487 
Q 3169 1828 3169 2138 
z
M 1381 2969 
Q 1594 3256 1914 3420 
Q 2234 3584 2584 3584 
Q 3122 3584 3439 3221 
Q 3756 2859 3756 2241 
Q 3756 1734 3570 1259 
Q 3384 784 3041 416 
Q 2816 172 2522 40 
Q 2228 -91 1906 -91 
Q 1566 -91 1316 65 
Q 1066 222 909 531 
L 806 0 
L 231 0 
L 1178 4863 
L 1753 4863 
L 1381 2969 
z
" transform="scale(0.015625)"/>
      <path id="DejaVuSans-Oblique-72" d="M 2853 2969 
Q 2766 3016 2653 3041 
Q 2541 3066 2413 3066 
Q 1953 3066 1609 2717 
Q 1266 2369 1153 1784 
L 800 0 
L 225 0 
L 909 3500 
L 1484 3500 
L 1375 2956 
Q 1603 3259 1920 3421 
Q 2238 3584 2597 3584 
Q 2691 3584 2781 3573 
Q 2872 3563 2963 3538 
L 2853 2969 
z
" transform="scale(0.015625)"/>
     </defs>
     <use xlink:href="#DejaVuSans-Oblique-20" transform="translate(0 0.015625)"/>
     <use xlink:href="#DejaVuSans-Oblique-20" transform="translate(31.787109 0.015625)"/>
     <use xlink:href="#DejaVuSans-Oblique-20" transform="translate(63.574219 0.015625)"/>
     <use xlink:href="#DejaVuSans-Oblique-20" transform="translate(95.361328 0.015625)"/>
     <use xlink:href="#DejaVuSans-Oblique-50" transform="translate(127.148438 0.015625)"/>
     <use xlink:href="#DejaVuSans-Oblique-61" transform="translate(187.451172 -16.390625) scale(0.7)"/>
     <use xlink:href="#DejaVuSans-Oblique-6d" transform="translate(230.34668 -16.390625) scale(0.7)"/>
     <use xlink:href="#DejaVuSans-Oblique-62" transform="translate(298.535156 -16.390625) scale(0.7)"/>
     <use xlink:href="#DejaVuSans-Oblique-20" transform="translate(345.703125 0.015625)"/>
     <use xlink:href="#DejaVuSans-Oblique-3d" transform="translate(377.490234 0.015625)"/>
     <use xlink:href="#DejaVuSans-Oblique-20" transform="translate(461.279297 0.015625)"/>
     <use xlink:href="#DejaVuSans-Oblique-20" transform="translate(493.066406 0.015625)"/>
     <use xlink:href="#DejaVuSans-Oblique-31" transform="translate(524.853516 0.015625)"/>
     <use xlink:href="#DejaVuSans-Oblique-2e" transform="translate(588.476562 0.015625)"/>
     <use xlink:href="#DejaVuSans-Oblique-30" transform="translate(620.263672 0.015625)"/>
     <use xlink:href="#DejaVuSans-Oblique-31" transform="translate(683.886719 0.015625)"/>
     <use xlink:href="#DejaVuSans-Oblique-20" transform="translate(747.509766 0.015625)"/>
     <use xlink:href="#DejaVuSans-5b" transform="translate(779.296875 0.015625)"/>
     <use xlink:href="#DejaVuSans-Oblique-62" transform="translate(818.310547 0.015625)"/>
     <use xlink:href="#DejaVuSans-Oblique-61" transform="translate(881.787109 0.015625)"/>
     <use xlink:href="#DejaVuSans-Oblique-72" transform="translate(943.066406 0.015625)"/>
     <use xlink:href="#DejaVuSans-5d" transform="translate(984.179688 0.015625)"/>
    </g>
    <!--     $T_{inf}$ =  20.00 $[°C]$ -->
    <g transform="translate(980.837188 81.531688) scale(0.14 -0.14)">
     <defs>
      <path id="DejaVuSans-Oblique-66" d="M 3059 4863 
L 2969 4384 
L 2419 4384 
Q 2106 4384 1964 4261 
Q 1822 4138 1753 3809 
L 1691 3500 
L 2638 3500 
L 2553 3053 
L 1606 3053 
L 1013 0 
L 434 0 
L 1031 3053 
L 481 3053 
L 563 3500 
L 1113 3500 
L 1159 3744 
Q 1278 4363 1576 4613 
Q 1875 4863 2516 4863 
L 3059 4863 
z
" transform="scale(0.015625)"/>
      <path id="DejaVuSans-Oblique-32" d="M 2950 2253 
L 934 525 
L 3163 525 
L 3053 0 
L 25 0 
L 128 531 
L 2234 2338 
Q 2656 2703 2832 2979 
Q 3009 3256 3009 3547 
Q 3009 3850 2796 4040 
Q 2584 4231 2241 4231 
Q 1944 4231 1581 4125 
Q 1219 4019 806 3816 
L 922 4441 
Q 1309 4594 1662 4672 
Q 2016 4750 2316 4750 
Q 2928 4750 3301 4425 
Q 3675 4100 3675 3572 
Q 3675 3216 3497 2892 
Q 3319 2569 2950 2253 
z
" transform="scale(0.015625)"/>
      <path id="DejaVuSans-b0" d="M 1600 4347 
Q 1350 4347 1178 4173 
Q 1006 4000 1006 3750 
Q 1006 3503 1178 3333 
Q 1350 3163 1600 3163 
Q 1850 3163 2022 3333 
Q 2194 3503 2194 3750 
Q 2194 3997 2020 4172 
Q 1847 4347 1600 4347 
z
M 1600 4750 
Q 1800 4750 1984 4673 
Q 2169 4597 2303 4453 
Q 2447 4313 2519 4134 
Q 2591 3956 2591 3750 
Q 2591 3338 2302 3052 
Q 2013 2766 1594 2766 
Q 1172 2766 890 3047 
Q 609 3328 609 3750 
Q 609 4169 896 4459 
Q 1184 4750 1600 4750 
z
" transform="scale(0.015625)"/>
      <path id="DejaVuSans-Oblique-43" d="M 4447 4306 
L 4319 3641 
Q 4019 3944 3683 4091 
Q 3347 4238 2956 4238 
Q 2422 4238 2017 3981 
Q 1613 3725 1319 3200 
Q 1131 2863 1032 2486 
Q 934 2109 934 1728 
Q 934 1091 1264 756 
Q 1594 422 2222 422 
Q 2656 422 3056 561 
Q 3456 700 3834 978 
L 3688 231 
Q 3316 72 2936 -9 
Q 2556 -91 2175 -91 
Q 1278 -91 773 396 
Q 269 884 269 1753 
Q 269 2309 461 2846 
Q 653 3384 1013 3828 
Q 1394 4300 1883 4525 
Q 2372 4750 3022 4750 
Q 3422 4750 3780 4639 
Q 4138 4528 4447 4306 
z
" transform="scale(0.015625)"/>
     </defs>
     <use xlink:href="#DejaVuSans-Oblique-20" transform="translate(0 0.015625)"/>
     <use xlink:href="#DejaVuSans-Oblique-20" transform="translate(31.787109 0.015625)"/>
     <use xlink:href="#DejaVuSans-Oblique-20" transform="translate(63.574219 0.015625)"/>
     <use xlink:href="#DejaVuSans-Oblique-20" transform="translate(95.361328 0.015625)"/>
     <use xlink:href="#DejaVuSans-Oblique-54" transform="translate(127.148438 0.015625)"/>
     <use xlink:href="#DejaVuSans-Oblique-69" transform="translate(188.232422 -16.390625) scale(0.7)"/>
     <use xlink:href="#DejaVuSans-Oblique-6e" transform="translate(207.680664 -16.390625) scale(0.7)"/>
     <use xlink:href="#DejaVuSans-Oblique-66" transform="translate(252.045898 -16.390625) scale(0.7)"/>
     <use xlink:href="#DejaVuSans-Oblique-20" transform="translate(279.423828 0.015625)"/>
     <use xlink:href="#DejaVuSans-Oblique-3d" transform="translate(311.210938 0.015625)"/>
     <use xlink:href="#DejaVuSans-Oblique-20" transform="translate(395 0.015625)"/>
     <use xlink:href="#DejaVuSans-Oblique-20" transform="translate(426.787109 0.015625)"/>
     <use xlink:href="#DejaVuSans-Oblique-32" transform="translate(458.574219 0.015625)"/>
     <use xlink:href="#DejaVuSans-Oblique-30" transform="translate(522.197266 0.015625)"/>
     <use xlink:href="#DejaVuSans-Oblique-2e" transform="translate(585.820312 0.015625)"/>
     <use xlink:href="#DejaVuSans-Oblique-30" transform="translate(617.607422 0.015625)"/>
     <use xlink:href="#DejaVuSans-Oblique-30" transform="translate(681.230469 0.015625)"/>
     <use xlink:href="#DejaVuSans-Oblique-20" transform="translate(744.853516 0.015625)"/>
     <use xlink:href="#DejaVuSans-5b" transform="translate(776.640625 0.015625)"/>
     <use xlink:href="#DejaVuSans-b0" transform="translate(815.654297 0.015625)"/>
     <use xlink:href="#DejaVuSans-Oblique-43" transform="translate(865.654297 0.015625)"/>
     <use xlink:href="#DejaVuSans-5d" transform="translate(935.478516 0.015625)"/>
    </g>
    <!--     $P_{vapour}$ =  2338.3 $[Pa]$ -->
    <g transform="translate(980.837188 97.21125) scale(0.14 -0.14)">
     <defs>
      <path id="DejaVuSans-Oblique-76" d="M 459 3500 
L 1069 3500 
L 1581 525 
L 3256 3500 
L 3866 3500 
L 1875 0 
L 1100 0 
L 459 3500 
z
" transform="scale(0.015625)"/>
      <path id="DejaVuSans-Oblique-70" d="M 3175 2156 
Q 3175 2616 2975 2859 
Q 2775 3103 2400 3103 
Q 2144 3103 1911 2972 
Q 1678 2841 1497 2591 
Q 1319 2344 1212 1994 
Q 1106 1644 1106 1300 
Q 1106 863 1306 627 
Q 1506 391 1875 391 
Q 2147 391 2380 519 
Q 2613 647 2778 891 
Q 2956 1147 3065 1494 
Q 3175 1841 3175 2156 
z
M 1394 2969 
Q 1625 3272 1939 3428 
Q 2253 3584 2638 3584 
Q 3175 3584 3472 3232 
Q 3769 2881 3769 2247 
Q 3769 1728 3584 1258 
Q 3400 788 3053 416 
Q 2822 169 2531 39 
Q 2241 -91 1919 -91 
Q 1547 -91 1294 64 
Q 1041 219 916 525 
L 556 -1331 
L -19 -1331 
L 922 3500 
L 1497 3500 
L 1394 2969 
z
" transform="scale(0.015625)"/>
      <path id="DejaVuSans-Oblique-75" d="M 428 1388 
L 838 3500 
L 1416 3500 
L 1006 1409 
Q 975 1256 961 1147 
Q 947 1038 947 966 
Q 947 700 1109 554 
Q 1272 409 1569 409 
Q 2031 409 2368 721 
Q 2706 1034 2809 1563 
L 3194 3500 
L 3769 3500 
L 3091 0 
L 2516 0 
L 2631 550 
Q 2388 244 2052 76 
Q 1716 -91 1338 -91 
Q 878 -91 622 161 
Q 366 413 366 863 
Q 366 956 381 1097 
Q 397 1238 428 1388 
z
" transform="scale(0.015625)"/>
      <path id="DejaVuSans-Oblique-33" d="M 1013 4550 
Q 1356 4650 1679 4700 
Q 2003 4750 2316 4750 
Q 2934 4750 3296 4475 
Q 3659 4200 3659 3738 
Q 3659 3284 3373 2959 
Q 3088 2634 2584 2516 
Q 2978 2403 3162 2165 
Q 3347 1928 3347 1538 
Q 3347 1163 3167 834 
Q 2988 506 2650 269 
Q 2394 88 2037 -1 
Q 1681 -91 1216 -91 
Q 922 -91 622 -33 
Q 322 25 13 141 
L 128 738 
Q 422 575 720 495 
Q 1019 416 1331 416 
Q 1947 416 2330 733 
Q 2713 1050 2713 1556 
Q 2713 1881 2469 2057 
Q 2225 2234 1772 2234 
L 1228 2234 
L 1325 2747 
L 1900 2747 
Q 2419 2747 2717 2984 
Q 3016 3222 3016 3628 
Q 3016 3922 2797 4083 
Q 2578 4244 2181 4244 
Q 1881 4244 1567 4180 
Q 1253 4116 916 3988 
L 1013 4550 
z
" transform="scale(0.015625)"/>
      <path id="DejaVuSans-Oblique-38" d="M 2847 1416 
Q 2847 1769 2600 1992 
Q 2353 2216 1953 2216 
Q 1466 2216 1148 1923 
Q 831 1631 831 1184 
Q 831 828 1073 618 
Q 1316 409 1728 409 
Q 2219 409 2533 693 
Q 2847 978 2847 1416 
z
M 3169 3591 
Q 3169 3888 2950 4069 
Q 2731 4250 2369 4250 
Q 1941 4250 1664 4009 
Q 1388 3769 1388 3406 
Q 1388 3094 1605 2903 
Q 1822 2713 2181 2713 
Q 2613 2713 2891 2961 
Q 3169 3209 3169 3591 
z
M 2741 2456 
Q 3094 2322 3281 2050 
Q 3469 1778 3469 1394 
Q 3469 747 2969 328 
Q 2469 -91 1678 -91 
Q 1006 -91 609 239 
Q 213 569 213 1119 
Q 213 1619 553 2008 
Q 894 2397 1441 2503 
Q 1113 2616 941 2852 
Q 769 3088 769 3425 
Q 769 3991 1239 4370 
Q 1709 4750 2431 4750 
Q 3034 4750 3414 4442 
Q 3794 4134 3794 3659 
Q 3794 3247 3511 2923 
Q 3228 2600 2741 2456 
z
" transform="scale(0.015625)"/>
     </defs>
     <use xlink:href="#DejaVuSans-Oblique-20" transform="translate(0 0.015625)"/>
     <use xlink:href="#DejaVuSans-Oblique-20" transform="translate(31.787109 0.015625)"/>
     <use xlink:href="#DejaVuSans-Oblique-20" transform="translate(63.574219 0.015625)"/>
     <use xlink:href="#DejaVuSans-Oblique-20" transform="translate(95.361328 0.015625)"/>
     <use xlink:href="#DejaVuSans-Oblique-50" transform="translate(127.148438 0.015625)"/>
     <use xlink:href="#DejaVuSans-Oblique-76" transform="translate(187.451172 -16.390625) scale(0.7)"/>
     <use xlink:href="#DejaVuSans-Oblique-61" transform="translate(228.876953 -16.390625) scale(0.7)"/>
     <use xlink:href="#DejaVuSans-Oblique-70" transform="translate(271.772461 -16.390625) scale(0.7)"/>
     <use xlink:href="#DejaVuSans-Oblique-6f" transform="translate(316.206055 -16.390625) scale(0.7)"/>
     <use xlink:href="#DejaVuSans-Oblique-75" transform="translate(359.033203 -16.390625) scale(0.7)"/>
     <use xlink:href="#DejaVuSans-Oblique-72" transform="translate(403.398438 -16.390625) scale(0.7)"/>
     <use xlink:href="#DejaVuSans-Oblique-20" transform="translate(434.912109 0.015625)"/>
     <use xlink:href="#DejaVuSans-Oblique-3d" transform="translate(466.699219 0.015625)"/>
     <use xlink:href="#DejaVuSans-Oblique-20" transform="translate(550.488281 0.015625)"/>
     <use xlink:href="#DejaVuSans-Oblique-20" transform="translate(582.275391 0.015625)"/>
     <use xlink:href="#DejaVuSans-Oblique-32" transform="translate(614.0625 0.015625)"/>
     <use xlink:href="#DejaVuSans-Oblique-33" transform="translate(677.685547 0.015625)"/>
     <use xlink:href="#DejaVuSans-Oblique-33" transform="translate(741.308594 0.015625)"/>
     <use xlink:href="#DejaVuSans-Oblique-38" transform="translate(804.931641 0.015625)"/>
     <use xlink:href="#DejaVuSans-Oblique-2e" transform="translate(868.554688 0.015625)"/>
     <use xlink:href="#DejaVuSans-Oblique-33" transform="translate(900.341797 0.015625)"/>
     <use xlink:href="#DejaVuSans-Oblique-20" transform="translate(963.964844 0.015625)"/>
     <use xlink:href="#DejaVuSans-5b" transform="translate(995.751953 0.015625)"/>
     <use xlink:href="#DejaVuSans-Oblique-50" transform="translate(1034.765625 0.015625)"/>
     <use xlink:href="#DejaVuSans-Oblique-61" transform="translate(1095.068359 0.015625)"/>
     <use xlink:href="#DejaVuSans-5d" transform="translate(1156.347656 0.015625)"/>
    </g>
    <!-- Initial content: -->
    <g transform="translate(980.837188 114.316625) scale(0.14 -0.14)">
     <defs>
      <path id="DejaVuSans-Oblique-65" d="M 3078 2063 
Q 3088 2113 3092 2166 
Q 3097 2219 3097 2272 
Q 3097 2653 2873 2875 
Q 2650 3097 2266 3097 
Q 1838 3097 1509 2826 
Q 1181 2556 1013 2059 
L 3078 2063 
z
M 3578 1613 
L 903 1613 
Q 884 1494 878 1425 
Q 872 1356 872 1306 
Q 872 872 1139 634 
Q 1406 397 1894 397 
Q 2269 397 2603 481 
Q 2938 566 3225 728 
L 3116 159 
Q 2806 34 2476 -28 
Q 2147 -91 1806 -91 
Q 1078 -91 686 257 
Q 294 606 294 1247 
Q 294 1794 489 2264 
Q 684 2734 1063 3103 
Q 1306 3334 1642 3459 
Q 1978 3584 2356 3584 
Q 2950 3584 3301 3228 
Q 3653 2872 3653 2272 
Q 3653 2128 3634 1964 
Q 3616 1800 3578 1613 
z
" transform="scale(0.015625)"/>
     </defs>
     <use xlink:href="#DejaVuSans-Oblique-49"/>
     <use xlink:href="#DejaVuSans-Oblique-6e" x="29.492188"/>
     <use xlink:href="#DejaVuSans-Oblique-69" x="92.871094"/>
     <use xlink:href="#DejaVuSans-Oblique-74" x="120.654297"/>
     <use xlink:href="#DejaVuSans-Oblique-69" x="159.863281"/>
     <use xlink:href="#DejaVuSans-Oblique-61" x="187.646484"/>
     <use xlink:href="#DejaVuSans-Oblique-6c" x="248.925781"/>
     <use xlink:href="#DejaVuSans-Oblique-20" x="276.708984"/>
     <use xlink:href="#DejaVuSans-Oblique-63" x="308.496094"/>
     <use xlink:href="#DejaVuSans-Oblique-6f" x="363.476562"/>
     <use xlink:href="#DejaVuSans-Oblique-6e" x="424.658203"/>
     <use xlink:href="#DejaVuSans-Oblique-74" x="488.037109"/>
     <use xlink:href="#DejaVuSans-Oblique-65" x="527.246094"/>
     <use xlink:href="#DejaVuSans-Oblique-6e" x="588.769531"/>
     <use xlink:href="#DejaVuSans-Oblique-74" x="652.148438"/>
     <use xlink:href="#DejaVuSans-Oblique-3a" x="691.357422"/>
    </g>
    <!--     75% H2, 25% N2 -->
    <g transform="translate(980.837188 129.993563) scale(0.14 -0.14)">
     <defs>
      <path id="DejaVuSans-Oblique-37" d="M 819 4666 
L 4013 4666 
L 3956 4397 
L 1288 0 
L 594 0 
L 3116 4134 
L 716 4134 
L 819 4666 
z
" transform="scale(0.015625)"/>
      <path id="DejaVuSans-Oblique-35" d="M 3719 4666 
L 3622 4141 
L 1691 4141 
L 1466 2988 
Q 1609 3034 1757 3056 
Q 1906 3078 2059 3078 
Q 2706 3078 3081 2731 
Q 3456 2384 3456 1791 
Q 3456 1375 3264 994 
Q 3072 613 2719 325 
Q 2469 125 2108 17 
Q 1747 -91 1319 -91 
Q 1038 -91 744 -41 
Q 450 9 128 109 
L 244 697 
Q 531 556 820 486 
Q 1109 416 1403 416 
Q 2013 416 2411 781 
Q 2809 1147 2809 1697 
Q 2809 2103 2548 2328 
Q 2288 2553 1819 2553 
Q 1572 2553 1305 2495 
Q 1038 2438 756 2322 
L 1209 4666 
L 3719 4666 
z
" transform="scale(0.015625)"/>
      <path id="DejaVuSans-Oblique-25" d="M 1503 2209 
Q 1078 2209 829 2486 
Q 581 2763 581 3238 
Q 581 3913 943 4331 
Q 1306 4750 1888 4750 
Q 2313 4750 2561 4470 
Q 2809 4191 2809 3713 
Q 2809 3044 2446 2626 
Q 2084 2209 1503 2209 
z
M 2309 3694 
Q 2309 4022 2187 4187 
Q 2066 4353 1825 4353 
Q 1475 4353 1278 4050 
Q 1081 3747 1081 3206 
Q 1081 2919 1207 2762 
Q 1334 2606 1569 2606 
Q 1903 2606 2106 2903 
Q 2309 3200 2309 3694 
z
M 4997 1394 
Q 4997 1728 4878 1893 
Q 4759 2059 4519 2059 
Q 4172 2059 3973 1754 
Q 3775 1450 3775 909 
Q 3775 619 3901 462 
Q 4028 306 4263 306 
Q 4597 306 4797 603 
Q 4997 900 4997 1394 
z
M 4197 -91 
Q 3772 -91 3525 187 
Q 3278 466 3278 941 
Q 3278 1616 3639 2033 
Q 4000 2450 4581 2450 
Q 5006 2450 5251 2175 
Q 5497 1900 5497 1422 
Q 5497 750 5136 329 
Q 4775 -91 4197 -91 
z
M 5259 4750 
L 1403 -91 
L 903 -91 
L 4763 4750 
L 5259 4750 
z
" transform="scale(0.015625)"/>
      <path id="DejaVuSans-Oblique-48" d="M 1081 4666 
L 1716 4666 
L 1344 2753 
L 3634 2753 
L 4006 4666 
L 4641 4666 
L 3731 0 
L 3097 0 
L 3531 2222 
L 1241 2222 
L 806 0 
L 172 0 
L 1081 4666 
z
" transform="scale(0.015625)"/>
      <path id="DejaVuSans-Oblique-2c" d="M 575 794 
L 1234 794 
L 1131 256 
L 422 -744 
L 19 -744 
L 469 256 
L 575 794 
z
" transform="scale(0.015625)"/>
      <path id="DejaVuSans-Oblique-4e" d="M 1081 4666 
L 1931 4666 
L 3219 666 
L 4000 4666 
L 4616 4666 
L 3706 0 
L 2853 0 
L 1569 4025 
L 788 0 
L 172 0 
L 1081 4666 
z
" transform="scale(0.015625)"/>
     </defs>
     <use xlink:href="#DejaVuSans-Oblique-20"/>
     <use xlink:href="#DejaVuSans-Oblique-20" x="31.787109"/>
     <use xlink:href="#DejaVuSans-Oblique-20" x="63.574219"/>
     <use xlink:href="#DejaVuSans-Oblique-20" x="95.361328"/>
     <use xlink:href="#DejaVuSans-Oblique-37" x="127.148438"/>
     <use xlink:href="#DejaVuSans-Oblique-35" x="190.771484"/>
     <use xlink:href="#DejaVuSans-Oblique-25" x="254.394531"/>
     <use xlink:href="#DejaVuSans-Oblique-20" x="349.414062"/>
     <use xlink:href="#DejaVuSans-Oblique-48" x="381.201172"/>
     <use xlink:href="#DejaVuSans-Oblique-32" x="456.396484"/>
     <use xlink:href="#DejaVuSans-Oblique-2c" x="520.019531"/>
     <use xlink:href="#DejaVuSans-Oblique-20" x="551.806641"/>
     <use xlink:href="#DejaVuSans-Oblique-32" x="583.59375"/>
     <use xlink:href="#DejaVuSans-Oblique-35" x="647.216797"/>
     <use xlink:href="#DejaVuSans-Oblique-25" x="710.839844"/>
     <use xlink:href="#DejaVuSans-Oblique-20" x="805.859375"/>
     <use xlink:href="#DejaVuSans-Oblique-4e" x="837.646484"/>
     <use xlink:href="#DejaVuSans-Oblique-32" x="912.451172"/>
    </g>
    <!-- Excitation = sin_impulse: -->
    <g transform="translate(980.837188 145.6705) scale(0.14 -0.14)">
     <defs>
      <path id="DejaVuSans-Oblique-78" d="M 3841 3500 
L 2234 1784 
L 3219 0 
L 2559 0 
L 1819 1388 
L 531 0 
L -166 0 
L 1556 1844 
L 641 3500 
L 1300 3500 
L 1972 2234 
L 3144 3500 
L 3841 3500 
z
" transform="scale(0.015625)"/>
      <path id="DejaVuSans-Oblique-5f" d="M 3263 -1063 
L 3263 -1509 
L -63 -1509 
L -63 -1063 
L 3263 -1063 
z
" transform="scale(0.015625)"/>
     </defs>
     <use xlink:href="#DejaVuSans-Oblique-45"/>
     <use xlink:href="#DejaVuSans-Oblique-78" x="63.183594"/>
     <use xlink:href="#DejaVuSans-Oblique-63" x="122.363281"/>
     <use xlink:href="#DejaVuSans-Oblique-69" x="177.34375"/>
     <use xlink:href="#DejaVuSans-Oblique-74" x="205.126953"/>
     <use xlink:href="#DejaVuSans-Oblique-61" x="244.335938"/>
     <use xlink:href="#DejaVuSans-Oblique-74" x="305.615234"/>
     <use xlink:href="#DejaVuSans-Oblique-69" x="344.824219"/>
     <use xlink:href="#DejaVuSans-Oblique-6f" x="372.607422"/>
     <use xlink:href="#DejaVuSans-Oblique-6e" x="433.789062"/>
     <use xlink:href="#DejaVuSans-Oblique-20" x="497.167969"/>
     <use xlink:href="#DejaVuSans-Oblique-3d" x="528.955078"/>
     <use xlink:href="#DejaVuSans-Oblique-20" x="612.744141"/>
     <use xlink:href="#DejaVuSans-Oblique-73" x="644.53125"/>
     <use xlink:href="#DejaVuSans-Oblique-69" x="696.630859"/>
     <use xlink:href="#DejaVuSans-Oblique-6e" x="724.414062"/>
     <use xlink:href="#DejaVuSans-Oblique-5f" x="787.792969"/>
     <use xlink:href="#DejaVuSans-Oblique-69" x="837.792969"/>
     <use xlink:href="#DejaVuSans-Oblique-6d" x="865.576172"/>
     <use xlink:href="#DejaVuSans-Oblique-70" x="962.988281"/>
     <use xlink:href="#DejaVuSans-Oblique-75" x="1026.464844"/>
     <use xlink:href="#DejaVuSans-Oblique-6c" x="1089.84375"/>
     <use xlink:href="#DejaVuSans-Oblique-73" x="1117.626953"/>
     <use xlink:href="#DejaVuSans-Oblique-65" x="1169.726562"/>
     <use xlink:href="#DejaVuSans-Oblique-3a" x="1231.25"/>
    </g>
    <!--     p_A = -150000.00 [Pa] -->
    <g transform="translate(980.837188 161.736813) scale(0.14 -0.14)">
     <defs>
      <path id="DejaVuSans-Oblique-41" d="M 2356 4666 
L 3072 4666 
L 3938 0 
L 3278 0 
L 3084 1197 
L 984 1197 
L 325 0 
L -341 0 
L 2356 4666 
z
M 2584 4044 
L 1275 1722 
L 2988 1722 
L 2584 4044 
z
" transform="scale(0.015625)"/>
      <path id="DejaVuSans-Oblique-2d" d="M 391 2009 
L 2075 2009 
L 1978 1497 
L 288 1497 
L 391 2009 
z
" transform="scale(0.015625)"/>
      <path id="DejaVuSans-Oblique-5b" d="M 1363 4863 
L 2688 4863 
L 2597 4416 
L 1850 4416 
L 916 -397 
L 1663 -397 
L 1581 -844 
L 256 -844 
L 1363 4863 
z
" transform="scale(0.015625)"/>
      <path id="DejaVuSans-Oblique-5d" d="M 2188 4863 
L 1081 -844 
L -244 -844 
L -159 -397 
L 588 -397 
L 1522 4416 
L 781 4416 
L 863 4863 
L 2188 4863 
z
" transform="scale(0.015625)"/>
     </defs>
     <use xlink:href="#DejaVuSans-Oblique-20"/>
     <use xlink:href="#DejaVuSans-Oblique-20" x="31.787109"/>
     <use xlink:href="#DejaVuSans-Oblique-20" x="63.574219"/>
     <use xlink:href="#DejaVuSans-Oblique-20" x="95.361328"/>
     <use xlink:href="#DejaVuSans-Oblique-70" x="127.148438"/>
     <use xlink:href="#DejaVuSans-Oblique-5f" x="190.625"/>
     <use xlink:href="#DejaVuSans-Oblique-41" x="240.625"/>
     <use xlink:href="#DejaVuSans-Oblique-20" x="309.033203"/>
     <use xlink:href="#DejaVuSans-Oblique-3d" x="340.820312"/>
     <use xlink:href="#DejaVuSans-Oblique-20" x="424.609375"/>
     <use xlink:href="#DejaVuSans-Oblique-2d" x="456.396484"/>
     <use xlink:href="#DejaVuSans-Oblique-31" x="492.480469"/>
     <use xlink:href="#DejaVuSans-Oblique-35" x="556.103516"/>
     <use xlink:href="#DejaVuSans-Oblique-30" x="619.726562"/>
     <use xlink:href="#DejaVuSans-Oblique-30" x="683.349609"/>
     <use xlink:href="#DejaVuSans-Oblique-30" x="746.972656"/>
     <use xlink:href="#DejaVuSans-Oblique-30" x="810.595703"/>
     <use xlink:href="#DejaVuSans-Oblique-2e" x="874.21875"/>
     <use xlink:href="#DejaVuSans-Oblique-30" x="906.005859"/>
     <use xlink:href="#DejaVuSans-Oblique-30" x="969.628906"/>
     <use xlink:href="#DejaVuSans-Oblique-20" x="1033.251953"/>
     <use xlink:href="#DejaVuSans-Oblique-5b" x="1065.039062"/>
     <use xlink:href="#DejaVuSans-Oblique-50" x="1104.052734"/>
     <use xlink:href="#DejaVuSans-Oblique-61" x="1164.355469"/>
     <use xlink:href="#DejaVuSans-Oblique-5d" x="1225.634766"/>
    </g>
    <!--     freq =  10000.00 [Hz] -->
    <g transform="translate(980.837188 177.803125) scale(0.14 -0.14)">
     <defs>
      <path id="DejaVuSans-Oblique-71" d="M 2669 525 
Q 2438 222 2123 65 
Q 1809 -91 1428 -91 
Q 897 -91 595 267 
Q 294 625 294 1253 
Q 294 1759 480 2231 
Q 666 2703 1013 3078 
Q 1238 3322 1530 3453 
Q 1822 3584 2144 3584 
Q 2531 3584 2781 3431 
Q 3031 3278 3144 2969 
L 3244 3494 
L 3822 3494 
L 2888 -1319 
L 2309 -1319 
L 2669 525 
z
M 891 1338 
Q 891 875 1084 633 
Q 1278 391 1644 391 
Q 2188 391 2572 911 
Q 2956 1431 2956 2175 
Q 2956 2625 2757 2864 
Q 2559 3103 2188 3103 
Q 1916 3103 1684 2976 
Q 1453 2850 1281 2606 
Q 1100 2350 995 2006 
Q 891 1663 891 1338 
z
" transform="scale(0.015625)"/>
      <path id="DejaVuSans-Oblique-7a" d="M 744 3500 
L 3475 3500 
L 3372 2975 
L 738 459 
L 2913 459 
L 2822 0 
L -19 0 
L 84 525 
L 2719 3041 
L 653 3041 
L 744 3500 
z
" transform="scale(0.015625)"/>
     </defs>
     <use xlink:href="#DejaVuSans-Oblique-20"/>
     <use xlink:href="#DejaVuSans-Oblique-20" x="31.787109"/>
     <use xlink:href="#DejaVuSans-Oblique-20" x="63.574219"/>
     <use xlink:href="#DejaVuSans-Oblique-20" x="95.361328"/>
     <use xlink:href="#DejaVuSans-Oblique-66" x="127.148438"/>
     <use xlink:href="#DejaVuSans-Oblique-72" x="162.353516"/>
     <use xlink:href="#DejaVuSans-Oblique-65" x="203.466797"/>
     <use xlink:href="#DejaVuSans-Oblique-71" x="264.990234"/>
     <use xlink:href="#DejaVuSans-Oblique-20" x="328.466797"/>
     <use xlink:href="#DejaVuSans-Oblique-3d" x="360.253906"/>
     <use xlink:href="#DejaVuSans-Oblique-20" x="444.042969"/>
     <use xlink:href="#DejaVuSans-Oblique-20" x="475.830078"/>
     <use xlink:href="#DejaVuSans-Oblique-31" x="507.617188"/>
     <use xlink:href="#DejaVuSans-Oblique-30" x="571.240234"/>
     <use xlink:href="#DejaVuSans-Oblique-30" x="634.863281"/>
     <use xlink:href="#DejaVuSans-Oblique-30" x="698.486328"/>
     <use xlink:href="#DejaVuSans-Oblique-30" x="762.109375"/>
     <use xlink:href="#DejaVuSans-Oblique-2e" x="825.732422"/>
     <use xlink:href="#DejaVuSans-Oblique-30" x="857.519531"/>
     <use xlink:href="#DejaVuSans-Oblique-30" x="921.142578"/>
     <use xlink:href="#DejaVuSans-Oblique-20" x="984.765625"/>
     <use xlink:href="#DejaVuSans-Oblique-5b" x="1016.552734"/>
     <use xlink:href="#DejaVuSans-Oblique-48" x="1055.566406"/>
     <use xlink:href="#DejaVuSans-Oblique-7a" x="1130.761719"/>
     <use xlink:href="#DejaVuSans-Oblique-5d" x="1183.251953"/>
    </g>
    <!--     n =  1.00 [-] -->
    <g transform="translate(980.837188 193.480063) scale(0.14 -0.14)">
     <use xlink:href="#DejaVuSans-Oblique-20"/>
     <use xlink:href="#DejaVuSans-Oblique-20" x="31.787109"/>
     <use xlink:href="#DejaVuSans-Oblique-20" x="63.574219"/>
     <use xlink:href="#DejaVuSans-Oblique-20" x="95.361328"/>
     <use xlink:href="#DejaVuSans-Oblique-6e" x="127.148438"/>
     <use xlink:href="#DejaVuSans-Oblique-20" x="190.527344"/>
     <use xlink:href="#DejaVuSans-Oblique-3d" x="222.314453"/>
     <use xlink:href="#DejaVuSans-Oblique-20" x="306.103516"/>
     <use xlink:href="#DejaVuSans-Oblique-20" x="337.890625"/>
     <use xlink:href="#DejaVuSans-Oblique-31" x="369.677734"/>
     <use xlink:href="#DejaVuSans-Oblique-2e" x="433.300781"/>
     <use xlink:href="#DejaVuSans-Oblique-30" x="465.087891"/>
     <use xlink:href="#DejaVuSans-Oblique-30" x="528.710938"/>
     <use xlink:href="#DejaVuSans-Oblique-20" x="592.333984"/>
     <use xlink:href="#DejaVuSans-Oblique-5b" x="624.121094"/>
     <use xlink:href="#DejaVuSans-Oblique-2d" x="663.134766"/>
     <use xlink:href="#DejaVuSans-Oblique-5d" x="699.21875"/>
    </g>
   </g>
  </g>
 </g>
 <defs>
  <clipPath id="p861cca8cde">
   <rect x="64.24625" y="7.2" width="1116" height="332.64"/>
  </clipPath>
 </defs>
</svg>
