<?xml version="1.0" encoding="utf-8" standalone="no"?>
<!DOCTYPE svg PUBLIC "-//W3C//DTD SVG 1.1//EN"
  "http://www.w3.org/Graphics/SVG/1.1/DTD/svg11.dtd">
<svg xmlns:xlink="http://www.w3.org/1999/xlink" width="1261.676875pt" height="392.920625pt" viewBox="0 0 1261.676875 392.920625" xmlns="http://www.w3.org/2000/svg" version="1.1">
 <metadata>
  <rdf:RDF xmlns:dc="http://purl.org/dc/elements/1.1/" xmlns:cc="http://creativecommons.org/ns#" xmlns:rdf="http://www.w3.org/1999/02/22-rdf-syntax-ns#">
   <cc:Work>
    <dc:type rdf:resource="http://purl.org/dc/dcmitype/StillImage"/>
    <dc:date>2023-12-03T13:05:02.427159</dc:date>
    <dc:format>image/svg+xml</dc:format>
    <dc:creator>
     <cc:Agent>
      <dc:title>Matplotlib v3.7.0, https://matplotlib.org/</dc:title>
     </cc:Agent>
    </dc:creator>
   </cc:Work>
  </rdf:RDF>
 </metadata>
 <defs>
  <style type="text/css">*{stroke-linejoin: round; stroke-linecap: butt}</style>
 </defs>
 <g id="figure_1">
  <g id="patch_1">
   <path d="M -0 392.920625 
L 1261.676875 392.920625 
L 1261.676875 0 
L -0 0 
z
" style="fill: #ffffff"/>
  </g>
  <g id="axes_1">
   <g id="patch_2">
    <path d="M 64.24625 339.84 
L 1180.24625 339.84 
L 1180.24625 7.2 
L 64.24625 7.2 
z
" style="fill: #ffffff"/>
   </g>
   <g id="matplotlib.axis_1">
    <g id="xtick_1">
     <g id="line2d_1">
      <path d="M 114.973523 339.84 
L 114.973523 7.2 
" clip-path="url(#p0b0dc1b1e3)" style="fill: none; stroke: #b0b0b0; stroke-width: 0.8; stroke-linecap: square"/>
     </g>
     <g id="line2d_2">
      <defs>
       <path id="me0266d87b1" d="M 0 0 
L 0 3.5 
" style="stroke: #000000; stroke-width: 0.8"/>
      </defs>
      <g>
       <use xlink:href="#me0266d87b1" x="114.973523" y="339.84" style="stroke: #000000; stroke-width: 0.8"/>
      </g>
     </g>
     <g id="text_1">
      <!-- 0 -->
      <g transform="translate(109.247273 360.517188) scale(0.18 -0.18)">
       <defs>
        <path id="DejaVuSans-30" d="M 2034 4250 
Q 1547 4250 1301 3770 
Q 1056 3291 1056 2328 
Q 1056 1369 1301 889 
Q 1547 409 2034 409 
Q 2525 409 2770 889 
Q 3016 1369 3016 2328 
Q 3016 3291 2770 3770 
Q 2525 4250 2034 4250 
z
M 2034 4750 
Q 2819 4750 3233 4129 
Q 3647 3509 3647 2328 
Q 3647 1150 3233 529 
Q 2819 -91 2034 -91 
Q 1250 -91 836 529 
Q 422 1150 422 2328 
Q 422 3509 836 4129 
Q 1250 4750 2034 4750 
z
" transform="scale(0.015625)"/>
       </defs>
       <use xlink:href="#DejaVuSans-30"/>
      </g>
     </g>
    </g>
    <g id="xtick_2">
     <g id="line2d_3">
      <path d="M 324.36404 339.84 
L 324.36404 7.2 
" clip-path="url(#p0b0dc1b1e3)" style="fill: none; stroke: #b0b0b0; stroke-width: 0.8; stroke-linecap: square"/>
     </g>
     <g id="line2d_4">
      <g>
       <use xlink:href="#me0266d87b1" x="324.36404" y="339.84" style="stroke: #000000; stroke-width: 0.8"/>
      </g>
     </g>
     <g id="text_2">
      <!-- 200 -->
      <g transform="translate(307.18529 360.517188) scale(0.18 -0.18)">
       <defs>
        <path id="DejaVuSans-32" d="M 1228 531 
L 3431 531 
L 3431 0 
L 469 0 
L 469 531 
Q 828 903 1448 1529 
Q 2069 2156 2228 2338 
Q 2531 2678 2651 2914 
Q 2772 3150 2772 3378 
Q 2772 3750 2511 3984 
Q 2250 4219 1831 4219 
Q 1534 4219 1204 4116 
Q 875 4013 500 3803 
L 500 4441 
Q 881 4594 1212 4672 
Q 1544 4750 1819 4750 
Q 2544 4750 2975 4387 
Q 3406 4025 3406 3419 
Q 3406 3131 3298 2873 
Q 3191 2616 2906 2266 
Q 2828 2175 2409 1742 
Q 1991 1309 1228 531 
z
" transform="scale(0.015625)"/>
       </defs>
       <use xlink:href="#DejaVuSans-32"/>
       <use xlink:href="#DejaVuSans-30" x="63.623047"/>
       <use xlink:href="#DejaVuSans-30" x="127.246094"/>
      </g>
     </g>
    </g>
    <g id="xtick_3">
     <g id="line2d_5">
      <path d="M 533.754557 339.84 
L 533.754557 7.2 
" clip-path="url(#p0b0dc1b1e3)" style="fill: none; stroke: #b0b0b0; stroke-width: 0.8; stroke-linecap: square"/>
     </g>
     <g id="line2d_6">
      <g>
       <use xlink:href="#me0266d87b1" x="533.754557" y="339.84" style="stroke: #000000; stroke-width: 0.8"/>
      </g>
     </g>
     <g id="text_3">
      <!-- 400 -->
      <g transform="translate(516.575807 360.517188) scale(0.18 -0.18)">
       <defs>
        <path id="DejaVuSans-34" d="M 2419 4116 
L 825 1625 
L 2419 1625 
L 2419 4116 
z
M 2253 4666 
L 3047 4666 
L 3047 1625 
L 3713 1625 
L 3713 1100 
L 3047 1100 
L 3047 0 
L 2419 0 
L 2419 1100 
L 313 1100 
L 313 1709 
L 2253 4666 
z
" transform="scale(0.015625)"/>
       </defs>
       <use xlink:href="#DejaVuSans-34"/>
       <use xlink:href="#DejaVuSans-30" x="63.623047"/>
       <use xlink:href="#DejaVuSans-30" x="127.246094"/>
      </g>
     </g>
    </g>
    <g id="xtick_4">
     <g id="line2d_7">
      <path d="M 743.145075 339.84 
L 743.145075 7.2 
" clip-path="url(#p0b0dc1b1e3)" style="fill: none; stroke: #b0b0b0; stroke-width: 0.8; stroke-linecap: square"/>
     </g>
     <g id="line2d_8">
      <g>
       <use xlink:href="#me0266d87b1" x="743.145075" y="339.84" style="stroke: #000000; stroke-width: 0.8"/>
      </g>
     </g>
     <g id="text_4">
      <!-- 600 -->
      <g transform="translate(725.966325 360.517188) scale(0.18 -0.18)">
       <defs>
        <path id="DejaVuSans-36" d="M 2113 2584 
Q 1688 2584 1439 2293 
Q 1191 2003 1191 1497 
Q 1191 994 1439 701 
Q 1688 409 2113 409 
Q 2538 409 2786 701 
Q 3034 994 3034 1497 
Q 3034 2003 2786 2293 
Q 2538 2584 2113 2584 
z
M 3366 4563 
L 3366 3988 
Q 3128 4100 2886 4159 
Q 2644 4219 2406 4219 
Q 1781 4219 1451 3797 
Q 1122 3375 1075 2522 
Q 1259 2794 1537 2939 
Q 1816 3084 2150 3084 
Q 2853 3084 3261 2657 
Q 3669 2231 3669 1497 
Q 3669 778 3244 343 
Q 2819 -91 2113 -91 
Q 1303 -91 875 529 
Q 447 1150 447 2328 
Q 447 3434 972 4092 
Q 1497 4750 2381 4750 
Q 2619 4750 2861 4703 
Q 3103 4656 3366 4563 
z
" transform="scale(0.015625)"/>
       </defs>
       <use xlink:href="#DejaVuSans-36"/>
       <use xlink:href="#DejaVuSans-30" x="63.623047"/>
       <use xlink:href="#DejaVuSans-30" x="127.246094"/>
      </g>
     </g>
    </g>
    <g id="xtick_5">
     <g id="line2d_9">
      <path d="M 952.535592 339.84 
L 952.535592 7.2 
" clip-path="url(#p0b0dc1b1e3)" style="fill: none; stroke: #b0b0b0; stroke-width: 0.8; stroke-linecap: square"/>
     </g>
     <g id="line2d_10">
      <g>
       <use xlink:href="#me0266d87b1" x="952.535592" y="339.84" style="stroke: #000000; stroke-width: 0.8"/>
      </g>
     </g>
     <g id="text_5">
      <!-- 800 -->
      <g transform="translate(935.356842 360.517188) scale(0.18 -0.18)">
       <defs>
        <path id="DejaVuSans-38" d="M 2034 2216 
Q 1584 2216 1326 1975 
Q 1069 1734 1069 1313 
Q 1069 891 1326 650 
Q 1584 409 2034 409 
Q 2484 409 2743 651 
Q 3003 894 3003 1313 
Q 3003 1734 2745 1975 
Q 2488 2216 2034 2216 
z
M 1403 2484 
Q 997 2584 770 2862 
Q 544 3141 544 3541 
Q 544 4100 942 4425 
Q 1341 4750 2034 4750 
Q 2731 4750 3128 4425 
Q 3525 4100 3525 3541 
Q 3525 3141 3298 2862 
Q 3072 2584 2669 2484 
Q 3125 2378 3379 2068 
Q 3634 1759 3634 1313 
Q 3634 634 3220 271 
Q 2806 -91 2034 -91 
Q 1263 -91 848 271 
Q 434 634 434 1313 
Q 434 1759 690 2068 
Q 947 2378 1403 2484 
z
M 1172 3481 
Q 1172 3119 1398 2916 
Q 1625 2713 2034 2713 
Q 2441 2713 2670 2916 
Q 2900 3119 2900 3481 
Q 2900 3844 2670 4047 
Q 2441 4250 2034 4250 
Q 1625 4250 1398 4047 
Q 1172 3844 1172 3481 
z
" transform="scale(0.015625)"/>
       </defs>
       <use xlink:href="#DejaVuSans-38"/>
       <use xlink:href="#DejaVuSans-30" x="63.623047"/>
       <use xlink:href="#DejaVuSans-30" x="127.246094"/>
      </g>
     </g>
    </g>
    <g id="xtick_6">
     <g id="line2d_11">
      <path d="M 1161.926109 339.84 
L 1161.926109 7.2 
" clip-path="url(#p0b0dc1b1e3)" style="fill: none; stroke: #b0b0b0; stroke-width: 0.8; stroke-linecap: square"/>
     </g>
     <g id="line2d_12">
      <g>
       <use xlink:href="#me0266d87b1" x="1161.926109" y="339.84" style="stroke: #000000; stroke-width: 0.8"/>
      </g>
     </g>
     <g id="text_6">
      <!-- 1000 -->
      <g transform="translate(1139.021109 360.517188) scale(0.18 -0.18)">
       <defs>
        <path id="DejaVuSans-31" d="M 794 531 
L 1825 531 
L 1825 4091 
L 703 3866 
L 703 4441 
L 1819 4666 
L 2450 4666 
L 2450 531 
L 3481 531 
L 3481 0 
L 794 0 
L 794 531 
z
" transform="scale(0.015625)"/>
       </defs>
       <use xlink:href="#DejaVuSans-31"/>
       <use xlink:href="#DejaVuSans-30" x="63.623047"/>
       <use xlink:href="#DejaVuSans-30" x="127.246094"/>
       <use xlink:href="#DejaVuSans-30" x="190.869141"/>
      </g>
     </g>
    </g>
    <g id="text_7">
     <!-- $t$ [μs] -->
     <g transform="translate(598.39625 381.940625) scale(0.18 -0.18)">
      <defs>
       <path id="DejaVuSans-Oblique-74" d="M 2706 3500 
L 2619 3053 
L 1472 3053 
L 1100 1153 
Q 1081 1047 1072 975 
Q 1063 903 1063 863 
Q 1063 663 1183 572 
Q 1303 481 1569 481 
L 2150 481 
L 2053 0 
L 1503 0 
Q 991 0 739 200 
Q 488 400 488 806 
Q 488 878 497 964 
Q 506 1050 525 1153 
L 897 3053 
L 409 3053 
L 500 3500 
L 978 3500 
L 1172 4494 
L 1747 4494 
L 1556 3500 
L 2706 3500 
z
" transform="scale(0.015625)"/>
       <path id="DejaVuSans-20" transform="scale(0.015625)"/>
       <path id="DejaVuSans-5b" d="M 550 4863 
L 1875 4863 
L 1875 4416 
L 1125 4416 
L 1125 -397 
L 1875 -397 
L 1875 -844 
L 550 -844 
L 550 4863 
z
" transform="scale(0.015625)"/>
       <path id="DejaVuSans-3bc" d="M 544 -1331 
L 544 3500 
L 1119 3500 
L 1119 1325 
Q 1119 872 1334 640 
Q 1550 409 1972 409 
Q 2434 409 2667 671 
Q 2900 934 2900 1459 
L 2900 3500 
L 3475 3500 
L 3475 806 
Q 3475 619 3529 530 
Q 3584 441 3700 441 
Q 3728 441 3778 458 
Q 3828 475 3916 513 
L 3916 50 
Q 3788 -22 3673 -56 
Q 3559 -91 3450 -91 
Q 3234 -91 3106 31 
Q 2978 153 2931 403 
Q 2775 156 2548 32 
Q 2322 -91 2016 -91 
Q 1697 -91 1473 31 
Q 1250 153 1119 397 
L 1119 -1331 
L 544 -1331 
z
" transform="scale(0.015625)"/>
       <path id="DejaVuSans-73" d="M 2834 3397 
L 2834 2853 
Q 2591 2978 2328 3040 
Q 2066 3103 1784 3103 
Q 1356 3103 1142 2972 
Q 928 2841 928 2578 
Q 928 2378 1081 2264 
Q 1234 2150 1697 2047 
L 1894 2003 
Q 2506 1872 2764 1633 
Q 3022 1394 3022 966 
Q 3022 478 2636 193 
Q 2250 -91 1575 -91 
Q 1294 -91 989 -36 
Q 684 19 347 128 
L 347 722 
Q 666 556 975 473 
Q 1284 391 1588 391 
Q 1994 391 2212 530 
Q 2431 669 2431 922 
Q 2431 1156 2273 1281 
Q 2116 1406 1581 1522 
L 1381 1569 
Q 847 1681 609 1914 
Q 372 2147 372 2553 
Q 372 3047 722 3315 
Q 1072 3584 1716 3584 
Q 2034 3584 2315 3537 
Q 2597 3491 2834 3397 
z
" transform="scale(0.015625)"/>
       <path id="DejaVuSans-5d" d="M 1947 4863 
L 1947 -844 
L 622 -844 
L 622 -397 
L 1369 -397 
L 1369 4416 
L 622 4416 
L 622 4863 
L 1947 4863 
z
" transform="scale(0.015625)"/>
      </defs>
      <use xlink:href="#DejaVuSans-Oblique-74" transform="translate(0 0.015625)"/>
      <use xlink:href="#DejaVuSans-20" transform="translate(39.208984 0.015625)"/>
      <use xlink:href="#DejaVuSans-5b" transform="translate(70.996094 0.015625)"/>
      <use xlink:href="#DejaVuSans-3bc" transform="translate(110.009766 0.015625)"/>
      <use xlink:href="#DejaVuSans-73" transform="translate(173.632812 0.015625)"/>
      <use xlink:href="#DejaVuSans-5d" transform="translate(225.732422 0.015625)"/>
     </g>
    </g>
   </g>
   <g id="matplotlib.axis_2">
    <g id="ytick_1">
     <g id="line2d_13">
      <path d="M 64.24625 333.285256 
L 1180.24625 333.285256 
" clip-path="url(#p0b0dc1b1e3)" style="fill: none; stroke: #b0b0b0; stroke-width: 0.8; stroke-linecap: square"/>
     </g>
     <g id="line2d_14">
      <defs>
       <path id="m8ef9f9e7ca" d="M 0 0 
L -3.5 0 
" style="stroke: #000000; stroke-width: 0.8"/>
      </defs>
      <g>
       <use xlink:href="#m8ef9f9e7ca" x="64.24625" y="333.285256" style="stroke: #000000; stroke-width: 0.8"/>
      </g>
     </g>
     <g id="text_8">
      <!-- 0.0 -->
      <g transform="translate(28.620625 340.123849) scale(0.18 -0.18)">
       <defs>
        <path id="DejaVuSans-2e" d="M 684 794 
L 1344 794 
L 1344 0 
L 684 0 
L 684 794 
z
" transform="scale(0.015625)"/>
       </defs>
       <use xlink:href="#DejaVuSans-30"/>
       <use xlink:href="#DejaVuSans-2e" x="63.623047"/>
       <use xlink:href="#DejaVuSans-30" x="95.410156"/>
      </g>
     </g>
    </g>
    <g id="ytick_2">
     <g id="line2d_15">
      <path d="M 64.24625 293.423445 
L 1180.24625 293.423445 
" clip-path="url(#p0b0dc1b1e3)" style="fill: none; stroke: #b0b0b0; stroke-width: 0.8; stroke-linecap: square"/>
     </g>
     <g id="line2d_16">
      <g>
       <use xlink:href="#m8ef9f9e7ca" x="64.24625" y="293.423445" style="stroke: #000000; stroke-width: 0.8"/>
      </g>
     </g>
     <g id="text_9">
      <!-- 0.5 -->
      <g transform="translate(28.620625 300.262039) scale(0.18 -0.18)">
       <defs>
        <path id="DejaVuSans-35" d="M 691 4666 
L 3169 4666 
L 3169 4134 
L 1269 4134 
L 1269 2991 
Q 1406 3038 1543 3061 
Q 1681 3084 1819 3084 
Q 2600 3084 3056 2656 
Q 3513 2228 3513 1497 
Q 3513 744 3044 326 
Q 2575 -91 1722 -91 
Q 1428 -91 1123 -41 
Q 819 9 494 109 
L 494 744 
Q 775 591 1075 516 
Q 1375 441 1709 441 
Q 2250 441 2565 725 
Q 2881 1009 2881 1497 
Q 2881 1984 2565 2268 
Q 2250 2553 1709 2553 
Q 1456 2553 1204 2497 
Q 953 2441 691 2322 
L 691 4666 
z
" transform="scale(0.015625)"/>
       </defs>
       <use xlink:href="#DejaVuSans-30"/>
       <use xlink:href="#DejaVuSans-2e" x="63.623047"/>
       <use xlink:href="#DejaVuSans-35" x="95.410156"/>
      </g>
     </g>
    </g>
    <g id="ytick_3">
     <g id="line2d_17">
      <path d="M 64.24625 253.561635 
L 1180.24625 253.561635 
" clip-path="url(#p0b0dc1b1e3)" style="fill: none; stroke: #b0b0b0; stroke-width: 0.8; stroke-linecap: square"/>
     </g>
     <g id="line2d_18">
      <g>
       <use xlink:href="#m8ef9f9e7ca" x="64.24625" y="253.561635" style="stroke: #000000; stroke-width: 0.8"/>
      </g>
     </g>
     <g id="text_10">
      <!-- 1.0 -->
      <g transform="translate(28.620625 260.400229) scale(0.18 -0.18)">
       <use xlink:href="#DejaVuSans-31"/>
       <use xlink:href="#DejaVuSans-2e" x="63.623047"/>
       <use xlink:href="#DejaVuSans-30" x="95.410156"/>
      </g>
     </g>
    </g>
    <g id="ytick_4">
     <g id="line2d_19">
      <path d="M 64.24625 213.699825 
L 1180.24625 213.699825 
" clip-path="url(#p0b0dc1b1e3)" style="fill: none; stroke: #b0b0b0; stroke-width: 0.8; stroke-linecap: square"/>
     </g>
     <g id="line2d_20">
      <g>
       <use xlink:href="#m8ef9f9e7ca" x="64.24625" y="213.699825" style="stroke: #000000; stroke-width: 0.8"/>
      </g>
     </g>
     <g id="text_11">
      <!-- 1.5 -->
      <g transform="translate(28.620625 220.538418) scale(0.18 -0.18)">
       <use xlink:href="#DejaVuSans-31"/>
       <use xlink:href="#DejaVuSans-2e" x="63.623047"/>
       <use xlink:href="#DejaVuSans-35" x="95.410156"/>
      </g>
     </g>
    </g>
    <g id="ytick_5">
     <g id="line2d_21">
      <path d="M 64.24625 173.838014 
L 1180.24625 173.838014 
" clip-path="url(#p0b0dc1b1e3)" style="fill: none; stroke: #b0b0b0; stroke-width: 0.8; stroke-linecap: square"/>
     </g>
     <g id="line2d_22">
      <g>
       <use xlink:href="#m8ef9f9e7ca" x="64.24625" y="173.838014" style="stroke: #000000; stroke-width: 0.8"/>
      </g>
     </g>
     <g id="text_12">
      <!-- 2.0 -->
      <g transform="translate(28.620625 180.676608) scale(0.18 -0.18)">
       <use xlink:href="#DejaVuSans-32"/>
       <use xlink:href="#DejaVuSans-2e" x="63.623047"/>
       <use xlink:href="#DejaVuSans-30" x="95.410156"/>
      </g>
     </g>
    </g>
    <g id="ytick_6">
     <g id="line2d_23">
      <path d="M 64.24625 133.976204 
L 1180.24625 133.976204 
" clip-path="url(#p0b0dc1b1e3)" style="fill: none; stroke: #b0b0b0; stroke-width: 0.8; stroke-linecap: square"/>
     </g>
     <g id="line2d_24">
      <g>
       <use xlink:href="#m8ef9f9e7ca" x="64.24625" y="133.976204" style="stroke: #000000; stroke-width: 0.8"/>
      </g>
     </g>
     <g id="text_13">
      <!-- 2.5 -->
      <g transform="translate(28.620625 140.814798) scale(0.18 -0.18)">
       <use xlink:href="#DejaVuSans-32"/>
       <use xlink:href="#DejaVuSans-2e" x="63.623047"/>
       <use xlink:href="#DejaVuSans-35" x="95.410156"/>
      </g>
     </g>
    </g>
    <g id="ytick_7">
     <g id="line2d_25">
      <path d="M 64.24625 94.114394 
L 1180.24625 94.114394 
" clip-path="url(#p0b0dc1b1e3)" style="fill: none; stroke: #b0b0b0; stroke-width: 0.8; stroke-linecap: square"/>
     </g>
     <g id="line2d_26">
      <g>
       <use xlink:href="#m8ef9f9e7ca" x="64.24625" y="94.114394" style="stroke: #000000; stroke-width: 0.8"/>
      </g>
     </g>
     <g id="text_14">
      <!-- 3.0 -->
      <g transform="translate(28.620625 100.952988) scale(0.18 -0.18)">
       <defs>
        <path id="DejaVuSans-33" d="M 2597 2516 
Q 3050 2419 3304 2112 
Q 3559 1806 3559 1356 
Q 3559 666 3084 287 
Q 2609 -91 1734 -91 
Q 1441 -91 1130 -33 
Q 819 25 488 141 
L 488 750 
Q 750 597 1062 519 
Q 1375 441 1716 441 
Q 2309 441 2620 675 
Q 2931 909 2931 1356 
Q 2931 1769 2642 2001 
Q 2353 2234 1838 2234 
L 1294 2234 
L 1294 2753 
L 1863 2753 
Q 2328 2753 2575 2939 
Q 2822 3125 2822 3475 
Q 2822 3834 2567 4026 
Q 2313 4219 1838 4219 
Q 1578 4219 1281 4162 
Q 984 4106 628 3988 
L 628 4550 
Q 988 4650 1302 4700 
Q 1616 4750 1894 4750 
Q 2613 4750 3031 4423 
Q 3450 4097 3450 3541 
Q 3450 3153 3228 2886 
Q 3006 2619 2597 2516 
z
" transform="scale(0.015625)"/>
       </defs>
       <use xlink:href="#DejaVuSans-33"/>
       <use xlink:href="#DejaVuSans-2e" x="63.623047"/>
       <use xlink:href="#DejaVuSans-30" x="95.410156"/>
      </g>
     </g>
    </g>
    <g id="ytick_8">
     <g id="line2d_27">
      <path d="M 64.24625 54.252583 
L 1180.24625 54.252583 
" clip-path="url(#p0b0dc1b1e3)" style="fill: none; stroke: #b0b0b0; stroke-width: 0.8; stroke-linecap: square"/>
     </g>
     <g id="line2d_28">
      <g>
       <use xlink:href="#m8ef9f9e7ca" x="64.24625" y="54.252583" style="stroke: #000000; stroke-width: 0.8"/>
      </g>
     </g>
     <g id="text_15">
      <!-- 3.5 -->
      <g transform="translate(28.620625 61.091177) scale(0.18 -0.18)">
       <use xlink:href="#DejaVuSans-33"/>
       <use xlink:href="#DejaVuSans-2e" x="63.623047"/>
       <use xlink:href="#DejaVuSans-35" x="95.410156"/>
      </g>
     </g>
    </g>
    <g id="ytick_9">
     <g id="line2d_29">
      <path d="M 64.24625 14.390773 
L 1180.24625 14.390773 
" clip-path="url(#p0b0dc1b1e3)" style="fill: none; stroke: #b0b0b0; stroke-width: 0.8; stroke-linecap: square"/>
     </g>
     <g id="line2d_30">
      <g>
       <use xlink:href="#m8ef9f9e7ca" x="64.24625" y="14.390773" style="stroke: #000000; stroke-width: 0.8"/>
      </g>
     </g>
     <g id="text_16">
      <!-- 4.0 -->
      <g transform="translate(28.620625 21.229367) scale(0.18 -0.18)">
       <use xlink:href="#DejaVuSans-34"/>
       <use xlink:href="#DejaVuSans-2e" x="63.623047"/>
       <use xlink:href="#DejaVuSans-30" x="95.410156"/>
      </g>
     </g>
    </g>
    <g id="text_17">
     <!-- $R/R_E$ [-] -->
     <g style="fill: #0000ff" transform="translate(20.877188 206.46) rotate(-90) scale(0.18 -0.18)">
      <defs>
       <path id="DejaVuSans-Oblique-52" d="M 1613 4147 
L 1294 2491 
L 2106 2491 
Q 2584 2491 2879 2755 
Q 3175 3019 3175 3444 
Q 3175 3784 2976 3965 
Q 2778 4147 2406 4147 
L 1613 4147 
z
M 2772 2241 
Q 2972 2194 3105 2009 
Q 3238 1825 3413 1275 
L 3809 0 
L 3144 0 
L 2778 1197 
Q 2638 1659 2453 1815 
Q 2269 1972 1888 1972 
L 1191 1972 
L 806 0 
L 172 0 
L 1081 4666 
L 2503 4666 
Q 3150 4666 3495 4373 
Q 3841 4081 3841 3531 
Q 3841 3044 3547 2687 
Q 3253 2331 2772 2241 
z
" transform="scale(0.015625)"/>
       <path id="DejaVuSans-2f" d="M 1625 4666 
L 2156 4666 
L 531 -594 
L 0 -594 
L 1625 4666 
z
" transform="scale(0.015625)"/>
       <path id="DejaVuSans-Oblique-45" d="M 1081 4666 
L 4031 4666 
L 3928 4134 
L 1606 4134 
L 1338 2753 
L 3566 2753 
L 3463 2222 
L 1234 2222 
L 909 531 
L 3284 531 
L 3181 0 
L 172 0 
L 1081 4666 
z
" transform="scale(0.015625)"/>
       <path id="DejaVuSans-2d" d="M 313 2009 
L 1997 2009 
L 1997 1497 
L 313 1497 
L 313 2009 
z
" transform="scale(0.015625)"/>
      </defs>
      <use xlink:href="#DejaVuSans-Oblique-52" transform="translate(0 0.015625)"/>
      <use xlink:href="#DejaVuSans-2f" transform="translate(69.482422 0.015625)"/>
      <use xlink:href="#DejaVuSans-Oblique-52" transform="translate(103.173828 0.015625)"/>
      <use xlink:href="#DejaVuSans-Oblique-45" transform="translate(172.65625 -16.390625) scale(0.7)"/>
      <use xlink:href="#DejaVuSans-20" transform="translate(219.619141 0.015625)"/>
      <use xlink:href="#DejaVuSans-5b" transform="translate(251.40625 0.015625)"/>
      <use xlink:href="#DejaVuSans-2d" transform="translate(290.419922 0.015625)"/>
      <use xlink:href="#DejaVuSans-5d" transform="translate(326.503906 0.015625)"/>
     </g>
    </g>
   </g>
   <g id="line2d_31">
    <path d="M 114.973523 253.561635 
L 117.052497 253.450825 
L 118.249515 253.149685 
L 119.239071 252.68331 
L 120.266448 251.944009 
L 121.25651 250.957289 
L 122.363714 249.517474 
L 123.468051 247.725407 
L 124.740169 245.235643 
L 126.176639 241.915806 
L 127.821828 237.521689 
L 129.624639 232.078077 
L 131.719166 225.057169 
L 134.204955 215.927336 
L 137.219085 203.952546 
L 141.026698 187.859557 
L 151.916383 141.236646 
L 154.75955 130.271137 
L 157.24732 121.527842 
L 159.379695 114.82294 
L 161.205015 109.764667 
L 162.968925 105.556179 
L 164.523058 102.46501 
L 165.730761 100.499709 
L 166.895291 98.995184 
L 167.887123 98.036285 
L 168.878955 97.392481 
L 169.728663 97.105546 
L 170.542841 97.071808 
L 171.357018 97.285934 
L 172.171195 97.760408 
L 172.985372 98.508693 
L 173.799549 99.545408 
L 174.695132 101.038049 
L 175.644978 103.050036 
L 176.730516 105.930467 
L 177.816055 109.483843 
L 178.988696 114.154827 
L 180.115267 119.549465 
L 181.314895 126.402388 
L 182.516233 134.590972 
L 183.683817 144.061046 
L 184.887811 155.748483 
L 186.001159 168.786842 
L 187.053416 183.787515 
L 187.992516 200.359661 
L 188.828728 219.128522 
L 189.515137 239.587528 
L 190.04827 262.197176 
L 190.414975 287.440779 
L 190.614833 317.263898 
L 190.639437 321.298019 
L 190.703286 311.824237 
L 190.979554 287.842858 
L 191.429936 267.839234 
L 192.044708 250.261445 
L 192.800938 234.832138 
L 193.686903 221.227579 
L 194.657213 209.673267 
L 195.687709 199.994829 
L 196.745954 192.108056 
L 197.780625 185.985654 
L 198.807304 181.203148 
L 199.773425 177.723574 
L 200.614025 175.419507 
L 201.443141 173.754809 
L 202.119042 172.818488 
L 202.79296 172.244252 
L 203.360651 172.029814 
L 203.870393 172.041881 
L 204.430944 172.274495 
L 204.989228 172.731254 
L 205.716825 173.659933 
L 206.449469 174.974015 
L 207.271298 176.901154 
L 208.149801 179.497024 
L 209.192636 183.316276 
L 210.235472 187.973964 
L 211.401382 194.250729 
L 212.570923 201.812533 
L 213.745742 210.90077 
L 214.866596 221.291741 
L 215.947115 233.406466 
L 216.923086 246.868806 
L 217.795273 262.053499 
L 218.540875 279.030095 
L 219.48339 302.557569 
L 219.53731 302.362637 
L 219.658802 300.691651 
L 220.007765 291.698048 
L 220.832205 271.969177 
L 221.678114 257.14289 
L 222.670203 243.617396 
L 223.820636 230.953466 
L 225.132801 218.943721 
L 226.664865 207.016805 
L 228.382798 195.389259 
L 230.437702 183.042772 
L 232.953765 169.356885 
L 236.219552 152.904842 
L 240.991584 130.093877 
L 247.169355 101.598923 
L 251.684976 81.705721 
L 255.01242 67.939789 
L 257.858238 57.039622 
L 260.279172 48.578575 
L 262.526749 41.52715 
L 264.466809 36.159012 
L 266.215243 31.962335 
L 267.816958 28.705644 
L 269.233937 26.333459 
L 270.455494 24.699891 
L 271.473458 23.647335 
L 272.383804 22.956003 
L 273.29415 22.511465 
L 274.124131 22.330384 
L 274.873747 22.357967 
L 275.623362 22.573751 
L 276.372978 22.984596 
L 277.309997 23.783462 
L 278.247017 24.913312 
L 279.214418 26.444079 
L 280.268848 28.556394 
L 281.390242 31.340731 
L 282.450889 34.517045 
L 283.683421 38.918942 
L 284.947665 44.292957 
L 286.241589 50.78053 
L 287.59458 58.752174 
L 288.912327 67.835335 
L 290.280725 78.859201 
L 291.573012 91.030099 
L 292.888532 105.567618 
L 294.158696 122.222963 
L 295.290576 139.966437 
L 296.360593 160.319484 
L 297.286466 182.235407 
L 298.067905 206.019487 
L 298.692336 231.813393 
L 299.152664 260.174916 
L 299.437825 291.875907 
L 299.550732 324.72 
L 299.637611 307.551951 
L 299.923442 283.706395 
L 300.387258 263.231927 
L 301.01717 245.060479 
L 301.799517 228.808416 
L 302.697367 214.617814 
L 303.70946 202.053989 
L 304.763955 191.554555 
L 305.874185 182.567232 
L 307.009757 175.059898 
L 308.195321 168.67785 
L 309.296666 163.85562 
L 310.390381 159.967251 
L 311.483302 156.86447 
L 312.56109 154.483255 
L 313.529727 152.859328 
L 314.484302 151.692812 
L 315.35208 150.975176 
L 316.197542 150.565806 
L 317.017297 150.42231 
L 317.7765 150.496642 
L 318.662237 150.817544 
L 319.64782 151.448555 
L 320.709854 152.423461 
L 321.872294 153.806437 
L 323.162153 155.682561 
L 324.76463 158.440084 
L 326.534887 161.928153 
L 329.0661 167.471139 
L 335.867994 182.738703 
L 337.725906 186.241415 
L 339.368211 188.854313 
L 340.741695 190.619816 
L 341.971642 191.837341 
L 343.050628 192.603391 
L 343.99474 193.034017 
L 344.919249 193.236299 
L 345.919921 193.212009 
L 346.907833 192.945789 
L 347.902633 192.444788 
L 349.010123 191.629749 
L 350.169349 190.512805 
L 351.624382 188.781014 
L 353.241298 186.513462 
L 355.622001 182.75292 
L 360.349025 175.180989 
L 362.089399 172.824833 
L 363.524427 171.222745 
L 364.70232 170.199652 
L 365.747378 169.552288 
L 366.77124 169.188896 
L 367.584184 169.113092 
L 368.426697 169.253137 
L 369.26578 169.633654 
L 370.029551 170.207213 
L 370.860724 171.098445 
L 371.778522 172.43475 
L 372.696319 174.176469 
L 373.728842 176.673124 
L 374.782438 179.87798 
L 375.852036 183.904279 
L 376.895149 188.696032 
L 377.965803 194.659236 
L 379.047058 201.978875 
L 380.098667 210.664159 
L 381.115011 220.984859 
L 382.058012 232.920478 
L 382.895511 246.384438 
L 383.629068 261.866379 
L 384.225684 279.315403 
L 384.702883 300.154016 
L 384.947459 309.826792 
L 384.988674 309.399597 
L 385.11676 304.56715 
L 385.752323 279.874793 
L 386.391722 264.29075 
L 387.153994 251.006863 
L 387.997436 239.963652 
L 388.908989 230.763302 
L 389.853536 223.356361 
L 390.790313 217.663524 
L 391.698189 213.447098 
L 392.542869 210.529268 
L 393.294646 208.675481 
L 393.968105 207.574381 
L 394.504987 207.061896 
L 394.998174 206.870926 
L 395.470227 206.936641 
L 395.952602 207.254271 
L 396.518533 207.951273 
L 397.141681 209.12965 
L 397.861409 211.041763 
L 398.630821 213.769997 
L 399.494155 217.735801 
L 400.355331 222.748542 
L 401.285269 229.534582 
L 402.200262 237.9104 
L 403.094577 248.228929 
L 403.920183 260.408362 
L 404.667393 274.840729 
L 405.375458 293.135994 
L 405.824124 302.790974 
L 405.862339 302.873038 
L 405.914168 302.701397 
L 406.032672 301.227536 
L 406.353203 293.581735 
L 407.196155 274.445416 
L 407.987632 261.585491 
L 408.875084 250.692746 
L 409.83854 241.546472 
L 410.839896 234.079768 
L 411.873754 227.981925 
L 412.90545 223.169266 
L 413.940945 219.376012 
L 414.888495 216.669415 
L 415.814947 214.631397 
L 416.699159 213.179263 
L 417.530555 212.204902 
L 418.297459 211.608729 
L 419.122274 211.260735 
L 419.925983 211.186334 
L 420.650649 211.321966 
L 421.540286 211.724656 
L 422.433588 212.361533 
L 423.556479 213.445422 
L 424.826852 214.980873 
L 426.604715 217.51595 
L 431.498277 224.753426 
L 432.78402 226.169433 
L 433.806471 227.001464 
L 434.731507 227.484113 
L 435.546977 227.670663 
L 436.354792 227.617059 
L 437.104572 227.344482 
L 437.864569 226.843264 
L 438.745749 225.976341 
L 439.64191 224.783564 
L 440.685367 223.013243 
L 441.904708 220.457672 
L 443.202656 217.217795 
L 444.796979 212.610799 
L 446.732223 206.280367 
L 449.127606 197.66208 
L 453.502555 180.910841 
L 457.701505 165.127716 
L 460.369651 155.908209 
L 462.539326 149.144589 
L 464.548998 143.623545 
L 466.218415 139.679502 
L 467.595881 136.923733 
L 468.918193 134.748121 
L 470.039002 133.296743 
L 471.14914 132.243249 
L 472.041428 131.693116 
L 472.952411 131.422159 
L 473.684937 131.429644 
L 474.506969 131.690948 
L 475.258773 132.176925 
L 476.064349 132.974819 
L 476.94634 134.197664 
L 477.860365 135.876965 
L 478.813082 138.108651 
L 479.887017 141.266508 
L 480.921485 145.018113 
L 482.064717 150.073388 
L 483.210491 156.234334 
L 484.325174 163.458449 
L 485.457258 172.289573 
L 486.572025 182.822358 
L 487.593148 194.559479 
L 488.575711 208.469047 
L 489.449963 224.071721 
L 490.192176 241.276089 
L 490.806029 260.772669 
L 491.255981 282.280311 
L 491.546231 307.210839 
L 491.642051 318.04648 
L 491.702437 312.953406 
L 492.033791 287.979145 
L 492.507585 269.126003 
L 493.14199 252.558576 
L 493.91511 238.058008 
L 494.792681 225.63531 
L 495.753796 215.092157 
L 496.745557 206.549673 
L 497.752788 199.715207 
L 498.759591 194.384644 
L 499.702951 190.551295 
L 500.549736 187.961844 
L 501.353721 186.18867 
L 502.011359 185.20659 
L 502.629988 184.652201 
L 503.180488 184.452086 
L 503.679454 184.505105 
L 504.186529 184.784908 
L 504.747063 185.357861 
L 505.442396 186.453654 
L 506.137729 187.979779 
L 506.963131 190.362144 
L 507.851634 193.645751 
L 508.824523 198.150718 
L 509.816473 203.816244 
L 510.854033 211.062218 
L 511.895793 219.962752 
L 512.887794 230.365098 
L 513.835374 242.714046 
L 514.672304 256.567175 
L 515.404395 272.48792 
L 516.024982 291.056745 
L 516.529015 305.403621 
L 516.544216 305.379543 
L 516.604938 304.823324 
L 516.771856 300.668484 
L 517.771954 272.798231 
L 518.552579 258.38353 
L 519.460124 245.657143 
L 520.484553 234.320435 
L 521.628521 224.071092 
L 522.860523 215.001996 
L 524.112118 207.350978 
L 525.385564 200.842089 
L 526.651578 195.426156 
L 527.98406 190.698695 
L 529.187893 187.186372 
L 530.421845 184.264061 
L 531.565915 182.124081 
L 532.657536 180.565121 
L 533.548615 179.628776 
L 534.471976 178.96887 
L 535.291237 178.643361 
L 536.095414 178.559194 
L 536.922011 178.714715 
L 537.740677 179.110966 
L 538.537757 179.730014 
L 539.45997 180.737242 
L 540.492543 182.243473 
L 541.525117 184.162367 
L 542.705201 186.883842 
L 543.932662 190.349857 
L 545.157433 194.507138 
L 546.419181 199.596558 
L 547.713862 205.782512 
L 549.038845 213.295043 
L 550.272876 221.59254 
L 551.510638 231.503536 
L 552.667867 242.662541 
L 553.732088 255.145706 
L 554.733321 269.605449 
L 556.387873 294.380595 
L 556.472409 294.480111 
L 556.519908 294.420177 
L 556.641705 293.900382 
L 556.869172 291.748201 
L 557.365973 284.365391 
L 558.684728 264.861137 
L 559.736512 252.797558 
L 560.820509 242.771341 
L 562.022093 233.696415 
L 563.257846 226.032373 
L 564.52127 219.562714 
L 565.792912 214.190665 
L 567.073234 209.762748 
L 568.19587 206.59357 
L 569.373031 203.919098 
L 570.385614 202.112499 
L 571.392806 200.744297 
L 572.333348 199.837865 
L 573.190459 199.315573 
L 573.963072 199.088694 
L 574.748219 199.092766 
L 575.520532 199.326716 
L 576.29009 199.787146 
L 577.093247 200.511573 
L 577.951898 201.565516 
L 578.971401 203.200636 
L 580.064015 205.431789 
L 581.256964 208.462599 
L 582.4191 212.052989 
L 583.652819 216.614626 
L 584.946312 222.320196 
L 586.267298 229.261371 
L 587.518309 237.050031 
L 588.804569 246.528316 
L 590.088818 257.744128 
L 591.705205 274.114187 
L 592.636308 282.521837 
L 593.06883 284.696125 
L 593.32023 285.113877 
L 593.463207 285.046675 
L 593.653843 284.622178 
L 593.940913 283.337203 
L 594.404 280.06253 
L 595.415623 270.852278 
L 596.963456 257.36297 
L 598.246349 248.115674 
L 599.492828 240.66945 
L 600.765725 234.374066 
L 602.009451 229.301804 
L 603.207875 225.287493 
L 604.398141 222.054451 
L 605.553844 219.569598 
L 606.605459 217.829379 
L 607.595547 216.620635 
L 608.444193 215.903905 
L 609.245599 215.490755 
L 610.007934 215.331484 
L 610.760574 215.395521 
L 611.547601 215.696548 
L 612.3844 216.279288 
L 613.253213 217.172723 
L 614.097902 218.326723 
L 615.163484 220.192452 
L 616.326247 222.766968 
L 617.516205 226.010279 
L 618.700748 229.8852 
L 620.025268 235.033504 
L 621.350786 241.108587 
L 622.783928 248.768219 
L 624.413447 258.754875 
L 626.675322 272.627666 
L 627.327936 275.306425 
L 627.778901 276.370789 
L 628.105265 276.664586 
L 628.339488 276.619185 
L 628.617047 276.295096 
L 628.961029 275.517443 
L 629.467954 273.737001 
L 630.184438 270.335192 
L 631.971318 260.38156 
L 633.666115 251.624228 
L 635.053439 245.569379 
L 636.319655 240.941394 
L 637.544142 237.233389 
L 638.749913 234.268623 
L 639.806745 232.1951 
L 640.787697 230.686445 
L 641.744964 229.584389 
L 642.70039 228.836982 
L 643.533773 228.465353 
L 644.28845 228.350057 
L 645.043127 228.442409 
L 645.901505 228.797686 
L 646.7694 229.426277 
L 647.724414 230.430465 
L 648.679428 231.76268 
L 649.753819 233.655287 
L 650.976904 236.320088 
L 652.229059 239.611251 
L 653.633093 243.965922 
L 655.180758 249.514089 
L 657.644357 259.347294 
L 659.196893 265.110164 
L 660.076316 267.606424 
L 660.728279 268.860939 
L 661.247328 269.417746 
L 661.668926 269.560187 
L 662.053121 269.44734 
L 662.469742 269.074584 
L 662.973982 268.306472 
L 663.633473 266.863914 
L 664.572766 264.202909 
L 666.384548 258.224285 
L 668.512492 251.484078 
L 669.942477 247.633986 
L 671.265278 244.665683 
L 672.511489 242.407733 
L 673.659439 240.787784 
L 674.697989 239.695894 
L 675.643624 239.004507 
L 676.561977 238.604109 
L 677.43428 238.46668 
L 678.214825 238.540951 
L 679.123564 238.858118 
L 680.043584 239.427411 
L 681.018276 240.296859 
L 682.071175 241.535036 
L 683.241063 243.259508 
L 684.527941 245.550905 
L 686.11851 248.876909 
L 688.323296 254.077734 
L 690.679207 259.498194 
L 691.831613 261.612735 
L 692.726846 262.810311 
L 693.434891 263.415776 
L 694.068797 263.677023 
L 694.6333 263.681557 
L 695.231491 263.458447 
L 695.876229 262.974675 
L 696.664321 262.086151 
L 697.679123 260.5692 
L 699.171987 257.88268 
L 702.736411 251.361717 
L 704.26157 249.101148 
L 705.571488 247.540744 
L 706.750414 246.462273 
L 707.798349 245.770464 
L 708.846283 245.331317 
L 709.894218 245.142868 
L 710.942153 245.200393 
L 711.975064 245.490668 
L 713.147514 246.088735 
L 714.319963 246.954001 
L 715.727778 248.309694 
L 717.306446 250.169182 
L 719.582972 253.238753 
L 722.237942 256.743541 
L 723.592921 258.169672 
L 724.637455 258.976627 
L 725.601641 259.446561 
L 726.451151 259.623481 
L 727.291192 259.577978 
L 728.209376 259.290305 
L 729.180966 258.746063 
L 730.380402 257.802512 
L 732.045305 256.173264 
L 736.344741 251.835202 
L 737.957711 250.594231 
L 739.362347 249.790381 
L 740.59091 249.318845 
L 741.81847 249.070434 
L 743.08182 249.046235 
L 744.410502 249.265011 
L 745.791568 249.738669 
L 747.274702 250.492552 
L 749.123629 251.710194 
L 752.757249 254.480718 
L 754.735301 255.812968 
L 756.24804 256.567142 
L 757.4859 256.953623 
L 758.747718 257.108463 
L 759.937007 257.031871 
L 761.217781 256.727171 
L 762.741683 256.118342 
L 764.761098 255.043523 
L 769.413305 252.48071 
L 771.196637 251.782495 
L 772.909866 251.354053 
L 774.535848 251.186748 
L 776.223843 251.258956 
L 777.970169 251.576644 
L 779.875252 252.156787 
L 782.57412 253.243311 
L 786.597886 254.858091 
L 788.510672 255.374712 
L 790.244416 255.613281 
L 791.897059 255.61883 
L 793.661739 255.400685 
L 795.776027 254.900338 
L 799.458211 253.746024 
L 802.516402 252.896658 
L 804.698797 252.509288 
L 806.759943 252.360168 
L 808.915599 252.434749 
L 811.246311 252.747707 
L 814.49225 253.44482 
L 819.302164 254.479563 
L 821.717002 254.759896 
L 823.956572 254.804781 
L 826.459011 254.620414 
L 829.743463 254.121805 
L 835.48871 253.215274 
L 838.312205 253.014312 
L 841.079222 253.039019 
L 844.215558 253.296225 
L 854.300893 254.334064 
L 857.447965 254.309854 
L 861.227749 254.042119 
L 869.40546 253.388338 
L 873.185846 253.369305 
L 877.633358 253.594026 
L 886.001052 254.075871 
L 890.31791 254.054783 
L 896.679187 253.753233 
L 902.612474 253.548714 
L 907.813178 253.607191 
L 922.028565 253.938169 
L 931.81148 253.692033 
L 938.651922 253.664432 
L 958.962347 253.805828 
L 971.12112 253.717288 
L 993.594852 253.771909 
L 1007.106045 253.765528 
L 1025.361243 253.776892 
L 1045.456953 253.790861 
L 1093.643992 253.773178 
L 1129.518977 253.77466 
L 1129.518977 253.77466 
" clip-path="url(#p0b0dc1b1e3)" style="fill: none; stroke: #0000ff; stroke-linecap: square"/>
   </g>
   <g id="patch_3">
    <path d="M 64.24625 339.84 
L 64.24625 7.2 
" style="fill: none; stroke: #000000; stroke-width: 0.8; stroke-linejoin: miter; stroke-linecap: square"/>
   </g>
   <g id="patch_4">
    <path d="M 1180.24625 339.84 
L 1180.24625 7.2 
" style="fill: none; stroke: #000000; stroke-width: 0.8; stroke-linejoin: miter; stroke-linecap: square"/>
   </g>
   <g id="patch_5">
    <path d="M 64.24625 339.84 
L 1180.24625 339.84 
" style="fill: none; stroke: #000000; stroke-width: 0.8; stroke-linejoin: miter; stroke-linecap: square"/>
   </g>
   <g id="patch_6">
    <path d="M 64.24625 7.2 
L 1180.24625 7.2 
" style="fill: none; stroke: #000000; stroke-width: 0.8; stroke-linejoin: miter; stroke-linecap: square"/>
   </g>
   <g id="text_18">
    <g id="patch_7">
     <path d="M 937.625312 206.331625 
L 1167.86625 206.331625 
L 1167.86625 13.892 
L 937.625312 13.892 
z
" style="fill: #ffffff; stroke: #000000; stroke-linejoin: miter"/>
    </g>
    <!-- Initial conditions: -->
    <g transform="translate(947.565312 34.469813) scale(0.14 -0.14)">
     <defs>
      <path id="DejaVuSans-Oblique-49" d="M 1081 4666 
L 1716 4666 
L 806 0 
L 172 0 
L 1081 4666 
z
" transform="scale(0.015625)"/>
      <path id="DejaVuSans-Oblique-6e" d="M 3566 2113 
L 3156 0 
L 2578 0 
L 2988 2091 
Q 3016 2238 3031 2350 
Q 3047 2463 3047 2528 
Q 3047 2791 2881 2937 
Q 2716 3084 2419 3084 
Q 1956 3084 1622 2776 
Q 1288 2469 1184 1941 
L 800 0 
L 225 0 
L 903 3500 
L 1478 3500 
L 1363 2950 
Q 1603 3253 1940 3418 
Q 2278 3584 2650 3584 
Q 3113 3584 3367 3334 
Q 3622 3084 3622 2631 
Q 3622 2519 3608 2391 
Q 3594 2263 3566 2113 
z
" transform="scale(0.015625)"/>
      <path id="DejaVuSans-Oblique-69" d="M 1172 4863 
L 1747 4863 
L 1606 4134 
L 1031 4134 
L 1172 4863 
z
M 909 3500 
L 1484 3500 
L 800 0 
L 225 0 
L 909 3500 
z
" transform="scale(0.015625)"/>
      <path id="DejaVuSans-Oblique-61" d="M 3438 1997 
L 3047 0 
L 2472 0 
L 2578 531 
Q 2325 219 2001 64 
Q 1678 -91 1281 -91 
Q 834 -91 548 182 
Q 263 456 263 884 
Q 263 1497 752 1853 
Q 1241 2209 2100 2209 
L 2900 2209 
L 2931 2363 
Q 2938 2388 2941 2417 
Q 2944 2447 2944 2509 
Q 2944 2788 2717 2942 
Q 2491 3097 2081 3097 
Q 1800 3097 1504 3025 
Q 1209 2953 897 2809 
L 997 3341 
Q 1322 3463 1633 3523 
Q 1944 3584 2234 3584 
Q 2853 3584 3176 3315 
Q 3500 3047 3500 2534 
Q 3500 2431 3484 2292 
Q 3469 2153 3438 1997 
z
M 2816 1759 
L 2241 1759 
Q 1534 1759 1195 1570 
Q 856 1381 856 984 
Q 856 709 1029 553 
Q 1203 397 1509 397 
Q 1978 397 2328 733 
Q 2678 1069 2791 1631 
L 2816 1759 
z
" transform="scale(0.015625)"/>
      <path id="DejaVuSans-Oblique-6c" d="M 1172 4863 
L 1747 4863 
L 800 0 
L 225 0 
L 1172 4863 
z
" transform="scale(0.015625)"/>
      <path id="DejaVuSans-Oblique-20" transform="scale(0.015625)"/>
      <path id="DejaVuSans-Oblique-63" d="M 3431 3366 
L 3316 2797 
Q 3109 2947 2876 3022 
Q 2644 3097 2394 3097 
Q 2119 3097 1870 3000 
Q 1622 2903 1453 2725 
Q 1184 2453 1037 2087 
Q 891 1722 891 1331 
Q 891 859 1127 628 
Q 1363 397 1844 397 
Q 2081 397 2348 469 
Q 2616 541 2906 684 
L 2797 116 
Q 2547 13 2283 -39 
Q 2019 -91 1741 -91 
Q 1044 -91 669 257 
Q 294 606 294 1253 
Q 294 1797 489 2255 
Q 684 2713 1069 3078 
Q 1331 3328 1684 3456 
Q 2038 3584 2456 3584 
Q 2700 3584 2940 3529 
Q 3181 3475 3431 3366 
z
" transform="scale(0.015625)"/>
      <path id="DejaVuSans-Oblique-6f" d="M 1625 -91 
Q 1009 -91 651 289 
Q 294 669 294 1325 
Q 294 1706 417 2101 
Q 541 2497 738 2766 
Q 1047 3184 1428 3384 
Q 1809 3584 2291 3584 
Q 2888 3584 3255 3212 
Q 3622 2841 3622 2241 
Q 3622 1825 3500 1412 
Q 3378 1000 3181 728 
Q 2875 309 2494 109 
Q 2113 -91 1625 -91 
z
M 891 1344 
Q 891 869 1089 633 
Q 1288 397 1691 397 
Q 2269 397 2648 901 
Q 3028 1406 3028 2181 
Q 3028 2634 2825 2865 
Q 2622 3097 2228 3097 
Q 1903 3097 1650 2945 
Q 1397 2794 1197 2484 
Q 1050 2253 970 1956 
Q 891 1659 891 1344 
z
" transform="scale(0.015625)"/>
      <path id="DejaVuSans-Oblique-64" d="M 2675 525 
Q 2444 222 2128 65 
Q 1813 -91 1428 -91 
Q 903 -91 598 267 
Q 294 625 294 1247 
Q 294 1766 478 2236 
Q 663 2706 1013 3078 
Q 1244 3325 1534 3454 
Q 1825 3584 2144 3584 
Q 2481 3584 2739 3421 
Q 2997 3259 3138 2956 
L 3513 4863 
L 4091 4863 
L 3144 0 
L 2566 0 
L 2675 525 
z
M 891 1350 
Q 891 897 1095 644 
Q 1300 391 1663 391 
Q 1931 391 2161 520 
Q 2391 650 2566 903 
Q 2750 1166 2856 1509 
Q 2963 1853 2963 2188 
Q 2963 2622 2758 2865 
Q 2553 3109 2194 3109 
Q 1922 3109 1687 2981 
Q 1453 2853 1288 2613 
Q 1106 2353 998 2009 
Q 891 1666 891 1350 
z
" transform="scale(0.015625)"/>
      <path id="DejaVuSans-Oblique-73" d="M 3200 3397 
L 3091 2853 
Q 2863 2978 2609 3040 
Q 2356 3103 2088 3103 
Q 1634 3103 1373 2948 
Q 1113 2794 1113 2528 
Q 1113 2219 1719 2053 
Q 1766 2041 1788 2034 
L 1972 1978 
Q 2547 1819 2739 1644 
Q 2931 1469 2931 1166 
Q 2931 609 2489 259 
Q 2047 -91 1331 -91 
Q 1053 -91 747 -37 
Q 441 16 72 128 
L 184 722 
Q 500 559 806 475 
Q 1113 391 1394 391 
Q 1816 391 2080 572 
Q 2344 753 2344 1031 
Q 2344 1331 1650 1516 
L 1591 1531 
L 1394 1581 
Q 956 1697 753 1886 
Q 550 2075 550 2369 
Q 550 2928 970 3256 
Q 1391 3584 2113 3584 
Q 2397 3584 2667 3537 
Q 2938 3491 3200 3397 
z
" transform="scale(0.015625)"/>
      <path id="DejaVuSans-Oblique-3a" d="M 978 3309 
L 1638 3309 
L 1484 2516 
L 825 2516 
L 978 3309 
z
M 488 794 
L 1147 794 
L 991 0 
L 331 0 
L 488 794 
z
" transform="scale(0.015625)"/>
     </defs>
     <use xlink:href="#DejaVuSans-Oblique-49"/>
     <use xlink:href="#DejaVuSans-Oblique-6e" x="29.492188"/>
     <use xlink:href="#DejaVuSans-Oblique-69" x="92.871094"/>
     <use xlink:href="#DejaVuSans-Oblique-74" x="120.654297"/>
     <use xlink:href="#DejaVuSans-Oblique-69" x="159.863281"/>
     <use xlink:href="#DejaVuSans-Oblique-61" x="187.646484"/>
     <use xlink:href="#DejaVuSans-Oblique-6c" x="248.925781"/>
     <use xlink:href="#DejaVuSans-Oblique-20" x="276.708984"/>
     <use xlink:href="#DejaVuSans-Oblique-63" x="308.496094"/>
     <use xlink:href="#DejaVuSans-Oblique-6f" x="363.476562"/>
     <use xlink:href="#DejaVuSans-Oblique-6e" x="424.658203"/>
     <use xlink:href="#DejaVuSans-Oblique-64" x="488.037109"/>
     <use xlink:href="#DejaVuSans-Oblique-69" x="551.513672"/>
     <use xlink:href="#DejaVuSans-Oblique-74" x="579.296875"/>
     <use xlink:href="#DejaVuSans-Oblique-69" x="618.505859"/>
     <use xlink:href="#DejaVuSans-Oblique-6f" x="646.289062"/>
     <use xlink:href="#DejaVuSans-Oblique-6e" x="707.470703"/>
     <use xlink:href="#DejaVuSans-Oblique-73" x="770.849609"/>
     <use xlink:href="#DejaVuSans-Oblique-3a" x="822.949219"/>
    </g>
    <!--     $R_E$ =  96.24 $[\mu m]$ -->
    <g transform="translate(947.565312 50.149375) scale(0.14 -0.14)">
     <defs>
      <path id="DejaVuSans-Oblique-3d" d="M 678 2906 
L 4684 2906 
L 4684 2381 
L 678 2381 
L 678 2906 
z
M 678 1631 
L 4684 1631 
L 4684 1100 
L 678 1100 
L 678 1631 
z
" transform="scale(0.015625)"/>
      <path id="DejaVuSans-Oblique-39" d="M 281 103 
L 397 678 
Q 578 559 809 496 
Q 1041 434 1306 434 
Q 1953 434 2348 843 
Q 2744 1253 2938 2119 
Q 2706 1853 2401 1714 
Q 2097 1575 1747 1575 
Q 1178 1575 842 1904 
Q 506 2234 506 2791 
Q 506 3247 672 3639 
Q 838 4031 1159 4325 
Q 1378 4531 1665 4640 
Q 1953 4750 2278 4750 
Q 2925 4750 3300 4339 
Q 3675 3928 3675 3219 
Q 3675 2559 3501 1943 
Q 3328 1328 3022 878 
Q 2697 403 2240 156 
Q 1784 -91 1228 -91 
Q 988 -91 748 -42 
Q 509 6 281 103 
z
M 1131 2938 
Q 1131 2541 1337 2308 
Q 1544 2075 1894 2075 
Q 2378 2075 2706 2447 
Q 3034 2819 3034 3372 
Q 3034 3784 2831 4017 
Q 2628 4250 2272 4250 
Q 1788 4250 1459 3870 
Q 1131 3491 1131 2938 
z
" transform="scale(0.015625)"/>
      <path id="DejaVuSans-Oblique-36" d="M 2938 1728 
Q 2938 2125 2734 2354 
Q 2531 2584 2181 2584 
Q 1697 2584 1367 2211 
Q 1038 1838 1038 1288 
Q 1038 875 1239 642 
Q 1441 409 1797 409 
Q 2284 409 2611 792 
Q 2938 1175 2938 1728 
z
M 3788 4556 
L 3681 3981 
Q 3500 4100 3265 4162 
Q 3031 4225 2766 4225 
Q 2119 4225 1726 3819 
Q 1334 3413 1141 2547 
Q 1369 2813 1670 2948 
Q 1972 3084 2322 3084 
Q 2894 3084 3233 2754 
Q 3572 2425 3572 1869 
Q 3572 1413 3405 1020 
Q 3238 628 2919 331 
Q 2700 128 2409 18 
Q 2119 -91 1791 -91 
Q 1147 -91 775 318 
Q 403 728 403 1441 
Q 403 2103 573 2717 
Q 744 3331 1050 3781 
Q 1372 4256 1830 4503 
Q 2288 4750 2841 4750 
Q 3084 4750 3321 4701 
Q 3559 4653 3788 4556 
z
" transform="scale(0.015625)"/>
      <path id="DejaVuSans-Oblique-2e" d="M 525 794 
L 1184 794 
L 1031 0 
L 372 0 
L 525 794 
z
" transform="scale(0.015625)"/>
      <path id="DejaVuSans-Oblique-32" d="M 2950 2253 
L 934 525 
L 3163 525 
L 3053 0 
L 25 0 
L 128 531 
L 2234 2338 
Q 2656 2703 2832 2979 
Q 3009 3256 3009 3547 
Q 3009 3850 2796 4040 
Q 2584 4231 2241 4231 
Q 1944 4231 1581 4125 
Q 1219 4019 806 3816 
L 922 4441 
Q 1309 4594 1662 4672 
Q 2016 4750 2316 4750 
Q 2928 4750 3301 4425 
Q 3675 4100 3675 3572 
Q 3675 3216 3497 2892 
Q 3319 2569 2950 2253 
z
" transform="scale(0.015625)"/>
      <path id="DejaVuSans-Oblique-34" d="M 2753 4666 
L 3547 4666 
L 2950 1625 
L 3616 1625 
L 3513 1100 
L 2847 1100 
L 2638 0 
L 2009 0 
L 2222 1100 
L 116 1100 
L 238 1709 
L 2753 4666 
z
M 2809 4116 
L 728 1625 
L 2322 1625 
L 2809 4116 
z
" transform="scale(0.015625)"/>
      <path id="DejaVuSans-Oblique-3bc" d="M -84 -1331 
L 856 3500 
L 1434 3500 
L 1009 1322 
Q 997 1256 987 1175 
Q 978 1094 978 1013 
Q 978 722 1161 565 
Q 1344 409 1684 409 
Q 2147 409 2431 671 
Q 2716 934 2816 1459 
L 3213 3500 
L 3788 3500 
L 3266 809 
Q 3253 750 3248 706 
Q 3244 663 3244 628 
Q 3244 531 3283 486 
Q 3322 441 3406 441 
Q 3438 441 3492 456 
Q 3547 472 3647 513 
L 3559 50 
Q 3422 -19 3297 -55 
Q 3172 -91 3053 -91 
Q 2847 -91 2730 40 
Q 2613 172 2613 403 
Q 2438 153 2195 31 
Q 1953 -91 1625 -91 
Q 1334 -91 1117 43 
Q 900 178 831 397 
L 494 -1331 
L -84 -1331 
z
" transform="scale(0.015625)"/>
      <path id="DejaVuSans-Oblique-6d" d="M 5747 2113 
L 5338 0 
L 4763 0 
L 5166 2094 
Q 5191 2228 5203 2325 
Q 5216 2422 5216 2491 
Q 5216 2772 5059 2928 
Q 4903 3084 4622 3084 
Q 4203 3084 3875 2770 
Q 3547 2456 3450 1953 
L 3066 0 
L 2491 0 
L 2900 2094 
Q 2925 2209 2937 2307 
Q 2950 2406 2950 2484 
Q 2950 2769 2794 2926 
Q 2638 3084 2363 3084 
Q 1938 3084 1609 2770 
Q 1281 2456 1184 1953 
L 800 0 
L 225 0 
L 909 3500 
L 1484 3500 
L 1375 2956 
Q 1609 3263 1923 3423 
Q 2238 3584 2597 3584 
Q 2978 3584 3223 3384 
Q 3469 3184 3519 2828 
Q 3781 3197 4126 3390 
Q 4472 3584 4856 3584 
Q 5306 3584 5551 3325 
Q 5797 3066 5797 2591 
Q 5797 2488 5784 2364 
Q 5772 2241 5747 2113 
z
" transform="scale(0.015625)"/>
     </defs>
     <use xlink:href="#DejaVuSans-Oblique-20" transform="translate(0 0.015625)"/>
     <use xlink:href="#DejaVuSans-Oblique-20" transform="translate(31.787109 0.015625)"/>
     <use xlink:href="#DejaVuSans-Oblique-20" transform="translate(63.574219 0.015625)"/>
     <use xlink:href="#DejaVuSans-Oblique-20" transform="translate(95.361328 0.015625)"/>
     <use xlink:href="#DejaVuSans-Oblique-52" transform="translate(127.148438 0.015625)"/>
     <use xlink:href="#DejaVuSans-Oblique-45" transform="translate(196.630859 -16.390625) scale(0.7)"/>
     <use xlink:href="#DejaVuSans-Oblique-20" transform="translate(243.59375 0.015625)"/>
     <use xlink:href="#DejaVuSans-Oblique-3d" transform="translate(275.380859 0.015625)"/>
     <use xlink:href="#DejaVuSans-Oblique-20" transform="translate(359.169922 0.015625)"/>
     <use xlink:href="#DejaVuSans-Oblique-20" transform="translate(390.957031 0.015625)"/>
     <use xlink:href="#DejaVuSans-Oblique-39" transform="translate(422.744141 0.015625)"/>
     <use xlink:href="#DejaVuSans-Oblique-36" transform="translate(486.367188 0.015625)"/>
     <use xlink:href="#DejaVuSans-Oblique-2e" transform="translate(549.990234 0.015625)"/>
     <use xlink:href="#DejaVuSans-Oblique-32" transform="translate(579.152344 0.015625)"/>
     <use xlink:href="#DejaVuSans-Oblique-34" transform="translate(642.775391 0.015625)"/>
     <use xlink:href="#DejaVuSans-Oblique-20" transform="translate(706.398438 0.015625)"/>
     <use xlink:href="#DejaVuSans-5b" transform="translate(738.185547 0.015625)"/>
     <use xlink:href="#DejaVuSans-Oblique-3bc" transform="translate(777.199219 0.015625)"/>
     <use xlink:href="#DejaVuSans-Oblique-6d" transform="translate(840.822266 0.015625)"/>
     <use xlink:href="#DejaVuSans-5d" transform="translate(938.234375 0.015625)"/>
    </g>
    <!--     $P_{amb}$ =  1.01 $[bar]$ -->
    <g transform="translate(947.565312 65.85475) scale(0.14 -0.14)">
     <defs>
      <path id="DejaVuSans-Oblique-50" d="M 1081 4666 
L 2541 4666 
Q 3178 4666 3512 4369 
Q 3847 4072 3847 3500 
Q 3847 2731 3353 2303 
Q 2859 1875 1966 1875 
L 1172 1875 
L 806 0 
L 172 0 
L 1081 4666 
z
M 1613 4147 
L 1275 2394 
L 2069 2394 
Q 2606 2394 2893 2669 
Q 3181 2944 3181 3456 
Q 3181 3784 2986 3965 
Q 2791 4147 2438 4147 
L 1613 4147 
z
" transform="scale(0.015625)"/>
      <path id="DejaVuSans-Oblique-62" d="M 3169 2138 
Q 3169 2591 2961 2847 
Q 2753 3103 2388 3103 
Q 2122 3103 1889 2973 
Q 1656 2844 1484 2597 
Q 1303 2338 1198 1995 
Q 1094 1653 1094 1313 
Q 1094 881 1298 636 
Q 1503 391 1863 391 
Q 2134 391 2365 517 
Q 2597 644 2772 891 
Q 2950 1147 3059 1487 
Q 3169 1828 3169 2138 
z
M 1381 2969 
Q 1594 3256 1914 3420 
Q 2234 3584 2584 3584 
Q 3122 3584 3439 3221 
Q 3756 2859 3756 2241 
Q 3756 1734 3570 1259 
Q 3384 784 3041 416 
Q 2816 172 2522 40 
Q 2228 -91 1906 -91 
Q 1566 -91 1316 65 
Q 1066 222 909 531 
L 806 0 
L 231 0 
L 1178 4863 
L 1753 4863 
L 1381 2969 
z
" transform="scale(0.015625)"/>
      <path id="DejaVuSans-Oblique-31" d="M 416 531 
L 1447 531 
L 2144 4122 
L 978 3897 
L 1088 4441 
L 2247 4666 
L 2881 4666 
L 2075 531 
L 3103 531 
L 3003 0 
L 313 0 
L 416 531 
z
" transform="scale(0.015625)"/>
      <path id="DejaVuSans-Oblique-30" d="M 2444 4750 
Q 3078 4750 3414 4328 
Q 3750 3906 3750 3116 
Q 3750 2516 3592 1923 
Q 3434 1331 3150 863 
Q 2859 394 2467 151 
Q 2075 -91 1600 -91 
Q 988 -91 653 334 
Q 319 759 319 1544 
Q 319 2138 480 2733 
Q 641 3328 928 3794 
Q 1216 4263 1602 4506 
Q 1988 4750 2444 4750 
z
M 2406 4250 
Q 2169 4250 1955 4123 
Q 1741 3997 1569 3750 
Q 1281 3338 1111 2720 
Q 941 2103 941 1453 
Q 941 938 1123 673 
Q 1306 409 1663 409 
Q 1913 409 2125 536 
Q 2338 663 2509 909 
Q 2794 1319 2961 1936 
Q 3128 2553 3128 3206 
Q 3128 3722 2945 3986 
Q 2763 4250 2406 4250 
z
" transform="scale(0.015625)"/>
      <path id="DejaVuSans-Oblique-72" d="M 2853 2969 
Q 2766 3016 2653 3041 
Q 2541 3066 2413 3066 
Q 1953 3066 1609 2717 
Q 1266 2369 1153 1784 
L 800 0 
L 225 0 
L 909 3500 
L 1484 3500 
L 1375 2956 
Q 1603 3259 1920 3421 
Q 2238 3584 2597 3584 
Q 2691 3584 2781 3573 
Q 2872 3563 2963 3538 
L 2853 2969 
z
" transform="scale(0.015625)"/>
     </defs>
     <use xlink:href="#DejaVuSans-Oblique-20" transform="translate(0 0.015625)"/>
     <use xlink:href="#DejaVuSans-Oblique-20" transform="translate(31.787109 0.015625)"/>
     <use xlink:href="#DejaVuSans-Oblique-20" transform="translate(63.574219 0.015625)"/>
     <use xlink:href="#DejaVuSans-Oblique-20" transform="translate(95.361328 0.015625)"/>
     <use xlink:href="#DejaVuSans-Oblique-50" transform="translate(127.148438 0.015625)"/>
     <use xlink:href="#DejaVuSans-Oblique-61" transform="translate(187.451172 -16.390625) scale(0.7)"/>
     <use xlink:href="#DejaVuSans-Oblique-6d" transform="translate(230.34668 -16.390625) scale(0.7)"/>
     <use xlink:href="#DejaVuSans-Oblique-62" transform="translate(298.535156 -16.390625) scale(0.7)"/>
     <use xlink:href="#DejaVuSans-Oblique-20" transform="translate(345.703125 0.015625)"/>
     <use xlink:href="#DejaVuSans-Oblique-3d" transform="translate(377.490234 0.015625)"/>
     <use xlink:href="#DejaVuSans-Oblique-20" transform="translate(461.279297 0.015625)"/>
     <use xlink:href="#DejaVuSans-Oblique-20" transform="translate(493.066406 0.015625)"/>
     <use xlink:href="#DejaVuSans-Oblique-31" transform="translate(524.853516 0.015625)"/>
     <use xlink:href="#DejaVuSans-Oblique-2e" transform="translate(588.476562 0.015625)"/>
     <use xlink:href="#DejaVuSans-Oblique-30" transform="translate(620.263672 0.015625)"/>
     <use xlink:href="#DejaVuSans-Oblique-31" transform="translate(683.886719 0.015625)"/>
     <use xlink:href="#DejaVuSans-Oblique-20" transform="translate(747.509766 0.015625)"/>
     <use xlink:href="#DejaVuSans-5b" transform="translate(779.296875 0.015625)"/>
     <use xlink:href="#DejaVuSans-Oblique-62" transform="translate(818.310547 0.015625)"/>
     <use xlink:href="#DejaVuSans-Oblique-61" transform="translate(881.787109 0.015625)"/>
     <use xlink:href="#DejaVuSans-Oblique-72" transform="translate(943.066406 0.015625)"/>
     <use xlink:href="#DejaVuSans-5d" transform="translate(984.179688 0.015625)"/>
    </g>
    <!--     $T_{inf}$ =  30.00 $[°C]$ -->
    <g transform="translate(947.565312 81.531688) scale(0.14 -0.14)">
     <defs>
      <path id="DejaVuSans-Oblique-54" d="M 378 4666 
L 4325 4666 
L 4225 4134 
L 2559 4134 
L 1759 0 
L 1125 0 
L 1925 4134 
L 275 4134 
L 378 4666 
z
" transform="scale(0.015625)"/>
      <path id="DejaVuSans-Oblique-66" d="M 3059 4863 
L 2969 4384 
L 2419 4384 
Q 2106 4384 1964 4261 
Q 1822 4138 1753 3809 
L 1691 3500 
L 2638 3500 
L 2553 3053 
L 1606 3053 
L 1013 0 
L 434 0 
L 1031 3053 
L 481 3053 
L 563 3500 
L 1113 3500 
L 1159 3744 
Q 1278 4363 1576 4613 
Q 1875 4863 2516 4863 
L 3059 4863 
z
" transform="scale(0.015625)"/>
      <path id="DejaVuSans-Oblique-33" d="M 1013 4550 
Q 1356 4650 1679 4700 
Q 2003 4750 2316 4750 
Q 2934 4750 3296 4475 
Q 3659 4200 3659 3738 
Q 3659 3284 3373 2959 
Q 3088 2634 2584 2516 
Q 2978 2403 3162 2165 
Q 3347 1928 3347 1538 
Q 3347 1163 3167 834 
Q 2988 506 2650 269 
Q 2394 88 2037 -1 
Q 1681 -91 1216 -91 
Q 922 -91 622 -33 
Q 322 25 13 141 
L 128 738 
Q 422 575 720 495 
Q 1019 416 1331 416 
Q 1947 416 2330 733 
Q 2713 1050 2713 1556 
Q 2713 1881 2469 2057 
Q 2225 2234 1772 2234 
L 1228 2234 
L 1325 2747 
L 1900 2747 
Q 2419 2747 2717 2984 
Q 3016 3222 3016 3628 
Q 3016 3922 2797 4083 
Q 2578 4244 2181 4244 
Q 1881 4244 1567 4180 
Q 1253 4116 916 3988 
L 1013 4550 
z
" transform="scale(0.015625)"/>
      <path id="DejaVuSans-b0" d="M 1600 4347 
Q 1350 4347 1178 4173 
Q 1006 4000 1006 3750 
Q 1006 3503 1178 3333 
Q 1350 3163 1600 3163 
Q 1850 3163 2022 3333 
Q 2194 3503 2194 3750 
Q 2194 3997 2020 4172 
Q 1847 4347 1600 4347 
z
M 1600 4750 
Q 1800 4750 1984 4673 
Q 2169 4597 2303 4453 
Q 2447 4313 2519 4134 
Q 2591 3956 2591 3750 
Q 2591 3338 2302 3052 
Q 2013 2766 1594 2766 
Q 1172 2766 890 3047 
Q 609 3328 609 3750 
Q 609 4169 896 4459 
Q 1184 4750 1600 4750 
z
" transform="scale(0.015625)"/>
      <path id="DejaVuSans-Oblique-43" d="M 4447 4306 
L 4319 3641 
Q 4019 3944 3683 4091 
Q 3347 4238 2956 4238 
Q 2422 4238 2017 3981 
Q 1613 3725 1319 3200 
Q 1131 2863 1032 2486 
Q 934 2109 934 1728 
Q 934 1091 1264 756 
Q 1594 422 2222 422 
Q 2656 422 3056 561 
Q 3456 700 3834 978 
L 3688 231 
Q 3316 72 2936 -9 
Q 2556 -91 2175 -91 
Q 1278 -91 773 396 
Q 269 884 269 1753 
Q 269 2309 461 2846 
Q 653 3384 1013 3828 
Q 1394 4300 1883 4525 
Q 2372 4750 3022 4750 
Q 3422 4750 3780 4639 
Q 4138 4528 4447 4306 
z
" transform="scale(0.015625)"/>
     </defs>
     <use xlink:href="#DejaVuSans-Oblique-20" transform="translate(0 0.015625)"/>
     <use xlink:href="#DejaVuSans-Oblique-20" transform="translate(31.787109 0.015625)"/>
     <use xlink:href="#DejaVuSans-Oblique-20" transform="translate(63.574219 0.015625)"/>
     <use xlink:href="#DejaVuSans-Oblique-20" transform="translate(95.361328 0.015625)"/>
     <use xlink:href="#DejaVuSans-Oblique-54" transform="translate(127.148438 0.015625)"/>
     <use xlink:href="#DejaVuSans-Oblique-69" transform="translate(188.232422 -16.390625) scale(0.7)"/>
     <use xlink:href="#DejaVuSans-Oblique-6e" transform="translate(207.680664 -16.390625) scale(0.7)"/>
     <use xlink:href="#DejaVuSans-Oblique-66" transform="translate(252.045898 -16.390625) scale(0.7)"/>
     <use xlink:href="#DejaVuSans-Oblique-20" transform="translate(279.423828 0.015625)"/>
     <use xlink:href="#DejaVuSans-Oblique-3d" transform="translate(311.210938 0.015625)"/>
     <use xlink:href="#DejaVuSans-Oblique-20" transform="translate(395 0.015625)"/>
     <use xlink:href="#DejaVuSans-Oblique-20" transform="translate(426.787109 0.015625)"/>
     <use xlink:href="#DejaVuSans-Oblique-33" transform="translate(458.574219 0.015625)"/>
     <use xlink:href="#DejaVuSans-Oblique-30" transform="translate(522.197266 0.015625)"/>
     <use xlink:href="#DejaVuSans-Oblique-2e" transform="translate(585.820312 0.015625)"/>
     <use xlink:href="#DejaVuSans-Oblique-30" transform="translate(617.607422 0.015625)"/>
     <use xlink:href="#DejaVuSans-Oblique-30" transform="translate(681.230469 0.015625)"/>
     <use xlink:href="#DejaVuSans-Oblique-20" transform="translate(744.853516 0.015625)"/>
     <use xlink:href="#DejaVuSans-5b" transform="translate(776.640625 0.015625)"/>
     <use xlink:href="#DejaVuSans-b0" transform="translate(815.654297 0.015625)"/>
     <use xlink:href="#DejaVuSans-Oblique-43" transform="translate(865.654297 0.015625)"/>
     <use xlink:href="#DejaVuSans-5d" transform="translate(935.478516 0.015625)"/>
    </g>
    <!--     $P_{vapour}$ =  2338.1 $[Pa]$ -->
    <g transform="translate(947.565312 97.21125) scale(0.14 -0.14)">
     <defs>
      <path id="DejaVuSans-Oblique-76" d="M 459 3500 
L 1069 3500 
L 1581 525 
L 3256 3500 
L 3866 3500 
L 1875 0 
L 1100 0 
L 459 3500 
z
" transform="scale(0.015625)"/>
      <path id="DejaVuSans-Oblique-70" d="M 3175 2156 
Q 3175 2616 2975 2859 
Q 2775 3103 2400 3103 
Q 2144 3103 1911 2972 
Q 1678 2841 1497 2591 
Q 1319 2344 1212 1994 
Q 1106 1644 1106 1300 
Q 1106 863 1306 627 
Q 1506 391 1875 391 
Q 2147 391 2380 519 
Q 2613 647 2778 891 
Q 2956 1147 3065 1494 
Q 3175 1841 3175 2156 
z
M 1394 2969 
Q 1625 3272 1939 3428 
Q 2253 3584 2638 3584 
Q 3175 3584 3472 3232 
Q 3769 2881 3769 2247 
Q 3769 1728 3584 1258 
Q 3400 788 3053 416 
Q 2822 169 2531 39 
Q 2241 -91 1919 -91 
Q 1547 -91 1294 64 
Q 1041 219 916 525 
L 556 -1331 
L -19 -1331 
L 922 3500 
L 1497 3500 
L 1394 2969 
z
" transform="scale(0.015625)"/>
      <path id="DejaVuSans-Oblique-75" d="M 428 1388 
L 838 3500 
L 1416 3500 
L 1006 1409 
Q 975 1256 961 1147 
Q 947 1038 947 966 
Q 947 700 1109 554 
Q 1272 409 1569 409 
Q 2031 409 2368 721 
Q 2706 1034 2809 1563 
L 3194 3500 
L 3769 3500 
L 3091 0 
L 2516 0 
L 2631 550 
Q 2388 244 2052 76 
Q 1716 -91 1338 -91 
Q 878 -91 622 161 
Q 366 413 366 863 
Q 366 956 381 1097 
Q 397 1238 428 1388 
z
" transform="scale(0.015625)"/>
      <path id="DejaVuSans-Oblique-38" d="M 2847 1416 
Q 2847 1769 2600 1992 
Q 2353 2216 1953 2216 
Q 1466 2216 1148 1923 
Q 831 1631 831 1184 
Q 831 828 1073 618 
Q 1316 409 1728 409 
Q 2219 409 2533 693 
Q 2847 978 2847 1416 
z
M 3169 3591 
Q 3169 3888 2950 4069 
Q 2731 4250 2369 4250 
Q 1941 4250 1664 4009 
Q 1388 3769 1388 3406 
Q 1388 3094 1605 2903 
Q 1822 2713 2181 2713 
Q 2613 2713 2891 2961 
Q 3169 3209 3169 3591 
z
M 2741 2456 
Q 3094 2322 3281 2050 
Q 3469 1778 3469 1394 
Q 3469 747 2969 328 
Q 2469 -91 1678 -91 
Q 1006 -91 609 239 
Q 213 569 213 1119 
Q 213 1619 553 2008 
Q 894 2397 1441 2503 
Q 1113 2616 941 2852 
Q 769 3088 769 3425 
Q 769 3991 1239 4370 
Q 1709 4750 2431 4750 
Q 3034 4750 3414 4442 
Q 3794 4134 3794 3659 
Q 3794 3247 3511 2923 
Q 3228 2600 2741 2456 
z
" transform="scale(0.015625)"/>
     </defs>
     <use xlink:href="#DejaVuSans-Oblique-20" transform="translate(0 0.015625)"/>
     <use xlink:href="#DejaVuSans-Oblique-20" transform="translate(31.787109 0.015625)"/>
     <use xlink:href="#DejaVuSans-Oblique-20" transform="translate(63.574219 0.015625)"/>
     <use xlink:href="#DejaVuSans-Oblique-20" transform="translate(95.361328 0.015625)"/>
     <use xlink:href="#DejaVuSans-Oblique-50" transform="translate(127.148438 0.015625)"/>
     <use xlink:href="#DejaVuSans-Oblique-76" transform="translate(187.451172 -16.390625) scale(0.7)"/>
     <use xlink:href="#DejaVuSans-Oblique-61" transform="translate(228.876953 -16.390625) scale(0.7)"/>
     <use xlink:href="#DejaVuSans-Oblique-70" transform="translate(271.772461 -16.390625) scale(0.7)"/>
     <use xlink:href="#DejaVuSans-Oblique-6f" transform="translate(316.206055 -16.390625) scale(0.7)"/>
     <use xlink:href="#DejaVuSans-Oblique-75" transform="translate(359.033203 -16.390625) scale(0.7)"/>
     <use xlink:href="#DejaVuSans-Oblique-72" transform="translate(403.398438 -16.390625) scale(0.7)"/>
     <use xlink:href="#DejaVuSans-Oblique-20" transform="translate(434.912109 0.015625)"/>
     <use xlink:href="#DejaVuSans-Oblique-3d" transform="translate(466.699219 0.015625)"/>
     <use xlink:href="#DejaVuSans-Oblique-20" transform="translate(550.488281 0.015625)"/>
     <use xlink:href="#DejaVuSans-Oblique-20" transform="translate(582.275391 0.015625)"/>
     <use xlink:href="#DejaVuSans-Oblique-32" transform="translate(614.0625 0.015625)"/>
     <use xlink:href="#DejaVuSans-Oblique-33" transform="translate(677.685547 0.015625)"/>
     <use xlink:href="#DejaVuSans-Oblique-33" transform="translate(741.308594 0.015625)"/>
     <use xlink:href="#DejaVuSans-Oblique-38" transform="translate(804.931641 0.015625)"/>
     <use xlink:href="#DejaVuSans-Oblique-2e" transform="translate(868.554688 0.015625)"/>
     <use xlink:href="#DejaVuSans-Oblique-31" transform="translate(900.341797 0.015625)"/>
     <use xlink:href="#DejaVuSans-Oblique-20" transform="translate(963.964844 0.015625)"/>
     <use xlink:href="#DejaVuSans-5b" transform="translate(995.751953 0.015625)"/>
     <use xlink:href="#DejaVuSans-Oblique-50" transform="translate(1034.765625 0.015625)"/>
     <use xlink:href="#DejaVuSans-Oblique-61" transform="translate(1095.068359 0.015625)"/>
     <use xlink:href="#DejaVuSans-5d" transform="translate(1156.347656 0.015625)"/>
    </g>
    <!-- Initial content: -->
    <g transform="translate(947.565312 114.316625) scale(0.14 -0.14)">
     <defs>
      <path id="DejaVuSans-Oblique-65" d="M 3078 2063 
Q 3088 2113 3092 2166 
Q 3097 2219 3097 2272 
Q 3097 2653 2873 2875 
Q 2650 3097 2266 3097 
Q 1838 3097 1509 2826 
Q 1181 2556 1013 2059 
L 3078 2063 
z
M 3578 1613 
L 903 1613 
Q 884 1494 878 1425 
Q 872 1356 872 1306 
Q 872 872 1139 634 
Q 1406 397 1894 397 
Q 2269 397 2603 481 
Q 2938 566 3225 728 
L 3116 159 
Q 2806 34 2476 -28 
Q 2147 -91 1806 -91 
Q 1078 -91 686 257 
Q 294 606 294 1247 
Q 294 1794 489 2264 
Q 684 2734 1063 3103 
Q 1306 3334 1642 3459 
Q 1978 3584 2356 3584 
Q 2950 3584 3301 3228 
Q 3653 2872 3653 2272 
Q 3653 2128 3634 1964 
Q 3616 1800 3578 1613 
z
" transform="scale(0.015625)"/>
     </defs>
     <use xlink:href="#DejaVuSans-Oblique-49"/>
     <use xlink:href="#DejaVuSans-Oblique-6e" x="29.492188"/>
     <use xlink:href="#DejaVuSans-Oblique-69" x="92.871094"/>
     <use xlink:href="#DejaVuSans-Oblique-74" x="120.654297"/>
     <use xlink:href="#DejaVuSans-Oblique-69" x="159.863281"/>
     <use xlink:href="#DejaVuSans-Oblique-61" x="187.646484"/>
     <use xlink:href="#DejaVuSans-Oblique-6c" x="248.925781"/>
     <use xlink:href="#DejaVuSans-Oblique-20" x="276.708984"/>
     <use xlink:href="#DejaVuSans-Oblique-63" x="308.496094"/>
     <use xlink:href="#DejaVuSans-Oblique-6f" x="363.476562"/>
     <use xlink:href="#DejaVuSans-Oblique-6e" x="424.658203"/>
     <use xlink:href="#DejaVuSans-Oblique-74" x="488.037109"/>
     <use xlink:href="#DejaVuSans-Oblique-65" x="527.246094"/>
     <use xlink:href="#DejaVuSans-Oblique-6e" x="588.769531"/>
     <use xlink:href="#DejaVuSans-Oblique-74" x="652.148438"/>
     <use xlink:href="#DejaVuSans-Oblique-3a" x="691.357422"/>
    </g>
    <!--     25% N2, 75% H2 -->
    <g transform="translate(947.565312 129.993563) scale(0.14 -0.14)">
     <defs>
      <path id="DejaVuSans-Oblique-35" d="M 3719 4666 
L 3622 4141 
L 1691 4141 
L 1466 2988 
Q 1609 3034 1757 3056 
Q 1906 3078 2059 3078 
Q 2706 3078 3081 2731 
Q 3456 2384 3456 1791 
Q 3456 1375 3264 994 
Q 3072 613 2719 325 
Q 2469 125 2108 17 
Q 1747 -91 1319 -91 
Q 1038 -91 744 -41 
Q 450 9 128 109 
L 244 697 
Q 531 556 820 486 
Q 1109 416 1403 416 
Q 2013 416 2411 781 
Q 2809 1147 2809 1697 
Q 2809 2103 2548 2328 
Q 2288 2553 1819 2553 
Q 1572 2553 1305 2495 
Q 1038 2438 756 2322 
L 1209 4666 
L 3719 4666 
z
" transform="scale(0.015625)"/>
      <path id="DejaVuSans-Oblique-25" d="M 1503 2209 
Q 1078 2209 829 2486 
Q 581 2763 581 3238 
Q 581 3913 943 4331 
Q 1306 4750 1888 4750 
Q 2313 4750 2561 4470 
Q 2809 4191 2809 3713 
Q 2809 3044 2446 2626 
Q 2084 2209 1503 2209 
z
M 2309 3694 
Q 2309 4022 2187 4187 
Q 2066 4353 1825 4353 
Q 1475 4353 1278 4050 
Q 1081 3747 1081 3206 
Q 1081 2919 1207 2762 
Q 1334 2606 1569 2606 
Q 1903 2606 2106 2903 
Q 2309 3200 2309 3694 
z
M 4997 1394 
Q 4997 1728 4878 1893 
Q 4759 2059 4519 2059 
Q 4172 2059 3973 1754 
Q 3775 1450 3775 909 
Q 3775 619 3901 462 
Q 4028 306 4263 306 
Q 4597 306 4797 603 
Q 4997 900 4997 1394 
z
M 4197 -91 
Q 3772 -91 3525 187 
Q 3278 466 3278 941 
Q 3278 1616 3639 2033 
Q 4000 2450 4581 2450 
Q 5006 2450 5251 2175 
Q 5497 1900 5497 1422 
Q 5497 750 5136 329 
Q 4775 -91 4197 -91 
z
M 5259 4750 
L 1403 -91 
L 903 -91 
L 4763 4750 
L 5259 4750 
z
" transform="scale(0.015625)"/>
      <path id="DejaVuSans-Oblique-4e" d="M 1081 4666 
L 1931 4666 
L 3219 666 
L 4000 4666 
L 4616 4666 
L 3706 0 
L 2853 0 
L 1569 4025 
L 788 0 
L 172 0 
L 1081 4666 
z
" transform="scale(0.015625)"/>
      <path id="DejaVuSans-Oblique-2c" d="M 575 794 
L 1234 794 
L 1131 256 
L 422 -744 
L 19 -744 
L 469 256 
L 575 794 
z
" transform="scale(0.015625)"/>
      <path id="DejaVuSans-Oblique-37" d="M 819 4666 
L 4013 4666 
L 3956 4397 
L 1288 0 
L 594 0 
L 3116 4134 
L 716 4134 
L 819 4666 
z
" transform="scale(0.015625)"/>
      <path id="DejaVuSans-Oblique-48" d="M 1081 4666 
L 1716 4666 
L 1344 2753 
L 3634 2753 
L 4006 4666 
L 4641 4666 
L 3731 0 
L 3097 0 
L 3531 2222 
L 1241 2222 
L 806 0 
L 172 0 
L 1081 4666 
z
" transform="scale(0.015625)"/>
     </defs>
     <use xlink:href="#DejaVuSans-Oblique-20"/>
     <use xlink:href="#DejaVuSans-Oblique-20" x="31.787109"/>
     <use xlink:href="#DejaVuSans-Oblique-20" x="63.574219"/>
     <use xlink:href="#DejaVuSans-Oblique-20" x="95.361328"/>
     <use xlink:href="#DejaVuSans-Oblique-32" x="127.148438"/>
     <use xlink:href="#DejaVuSans-Oblique-35" x="190.771484"/>
     <use xlink:href="#DejaVuSans-Oblique-25" x="254.394531"/>
     <use xlink:href="#DejaVuSans-Oblique-20" x="349.414062"/>
     <use xlink:href="#DejaVuSans-Oblique-4e" x="381.201172"/>
     <use xlink:href="#DejaVuSans-Oblique-32" x="456.005859"/>
     <use xlink:href="#DejaVuSans-Oblique-2c" x="519.628906"/>
     <use xlink:href="#DejaVuSans-Oblique-20" x="551.416016"/>
     <use xlink:href="#DejaVuSans-Oblique-37" x="583.203125"/>
     <use xlink:href="#DejaVuSans-Oblique-35" x="646.826172"/>
     <use xlink:href="#DejaVuSans-Oblique-25" x="710.449219"/>
     <use xlink:href="#DejaVuSans-Oblique-20" x="805.46875"/>
     <use xlink:href="#DejaVuSans-Oblique-48" x="837.255859"/>
     <use xlink:href="#DejaVuSans-Oblique-32" x="912.451172"/>
    </g>
    <!-- Excitation = sin_impulse_logf: -->
    <g transform="translate(947.565312 145.6705) scale(0.14 -0.14)">
     <defs>
      <path id="DejaVuSans-Oblique-78" d="M 3841 3500 
L 2234 1784 
L 3219 0 
L 2559 0 
L 1819 1388 
L 531 0 
L -166 0 
L 1556 1844 
L 641 3500 
L 1300 3500 
L 1972 2234 
L 3144 3500 
L 3841 3500 
z
" transform="scale(0.015625)"/>
      <path id="DejaVuSans-Oblique-5f" d="M 3263 -1063 
L 3263 -1509 
L -63 -1509 
L -63 -1063 
L 3263 -1063 
z
" transform="scale(0.015625)"/>
      <path id="DejaVuSans-Oblique-67" d="M 3816 3500 
L 3219 434 
Q 3047 -456 2561 -893 
Q 2075 -1331 1253 -1331 
Q 950 -1331 690 -1286 
Q 431 -1241 206 -1147 
L 313 -588 
Q 525 -725 762 -790 
Q 1000 -856 1269 -856 
Q 1816 -856 2167 -557 
Q 2519 -259 2631 300 
L 2681 563 
Q 2441 288 2122 144 
Q 1803 0 1434 0 
Q 903 0 598 351 
Q 294 703 294 1319 
Q 294 1803 478 2267 
Q 663 2731 997 3091 
Q 1219 3328 1514 3456 
Q 1809 3584 2131 3584 
Q 2484 3584 2746 3420 
Q 3009 3256 3138 2956 
L 3238 3500 
L 3816 3500 
z
M 2950 2216 
Q 2950 2641 2750 2872 
Q 2550 3103 2181 3103 
Q 1953 3103 1747 3012 
Q 1541 2922 1394 2759 
Q 1156 2491 1023 2127 
Q 891 1763 891 1375 
Q 891 944 1092 712 
Q 1294 481 1672 481 
Q 2219 481 2584 976 
Q 2950 1472 2950 2216 
z
" transform="scale(0.015625)"/>
     </defs>
     <use xlink:href="#DejaVuSans-Oblique-45"/>
     <use xlink:href="#DejaVuSans-Oblique-78" x="63.183594"/>
     <use xlink:href="#DejaVuSans-Oblique-63" x="122.363281"/>
     <use xlink:href="#DejaVuSans-Oblique-69" x="177.34375"/>
     <use xlink:href="#DejaVuSans-Oblique-74" x="205.126953"/>
     <use xlink:href="#DejaVuSans-Oblique-61" x="244.335938"/>
     <use xlink:href="#DejaVuSans-Oblique-74" x="305.615234"/>
     <use xlink:href="#DejaVuSans-Oblique-69" x="344.824219"/>
     <use xlink:href="#DejaVuSans-Oblique-6f" x="372.607422"/>
     <use xlink:href="#DejaVuSans-Oblique-6e" x="433.789062"/>
     <use xlink:href="#DejaVuSans-Oblique-20" x="497.167969"/>
     <use xlink:href="#DejaVuSans-Oblique-3d" x="528.955078"/>
     <use xlink:href="#DejaVuSans-Oblique-20" x="612.744141"/>
     <use xlink:href="#DejaVuSans-Oblique-73" x="644.53125"/>
     <use xlink:href="#DejaVuSans-Oblique-69" x="696.630859"/>
     <use xlink:href="#DejaVuSans-Oblique-6e" x="724.414062"/>
     <use xlink:href="#DejaVuSans-Oblique-5f" x="787.792969"/>
     <use xlink:href="#DejaVuSans-Oblique-69" x="837.792969"/>
     <use xlink:href="#DejaVuSans-Oblique-6d" x="865.576172"/>
     <use xlink:href="#DejaVuSans-Oblique-70" x="962.988281"/>
     <use xlink:href="#DejaVuSans-Oblique-75" x="1026.464844"/>
     <use xlink:href="#DejaVuSans-Oblique-6c" x="1089.84375"/>
     <use xlink:href="#DejaVuSans-Oblique-73" x="1117.626953"/>
     <use xlink:href="#DejaVuSans-Oblique-65" x="1169.726562"/>
     <use xlink:href="#DejaVuSans-Oblique-5f" x="1231.25"/>
     <use xlink:href="#DejaVuSans-Oblique-6c" x="1281.25"/>
     <use xlink:href="#DejaVuSans-Oblique-6f" x="1309.033203"/>
     <use xlink:href="#DejaVuSans-Oblique-67" x="1370.214844"/>
     <use xlink:href="#DejaVuSans-Oblique-66" x="1433.691406"/>
     <use xlink:href="#DejaVuSans-Oblique-3a" x="1468.896484"/>
    </g>
    <!--     p_A = -140179.24 [Pa] -->
    <g transform="translate(947.565312 161.736813) scale(0.14 -0.14)">
     <defs>
      <path id="DejaVuSans-Oblique-41" d="M 2356 4666 
L 3072 4666 
L 3938 0 
L 3278 0 
L 3084 1197 
L 984 1197 
L 325 0 
L -341 0 
L 2356 4666 
z
M 2584 4044 
L 1275 1722 
L 2988 1722 
L 2584 4044 
z
" transform="scale(0.015625)"/>
      <path id="DejaVuSans-Oblique-2d" d="M 391 2009 
L 2075 2009 
L 1978 1497 
L 288 1497 
L 391 2009 
z
" transform="scale(0.015625)"/>
      <path id="DejaVuSans-Oblique-5b" d="M 1363 4863 
L 2688 4863 
L 2597 4416 
L 1850 4416 
L 916 -397 
L 1663 -397 
L 1581 -844 
L 256 -844 
L 1363 4863 
z
" transform="scale(0.015625)"/>
      <path id="DejaVuSans-Oblique-5d" d="M 2188 4863 
L 1081 -844 
L -244 -844 
L -159 -397 
L 588 -397 
L 1522 4416 
L 781 4416 
L 863 4863 
L 2188 4863 
z
" transform="scale(0.015625)"/>
     </defs>
     <use xlink:href="#DejaVuSans-Oblique-20"/>
     <use xlink:href="#DejaVuSans-Oblique-20" x="31.787109"/>
     <use xlink:href="#DejaVuSans-Oblique-20" x="63.574219"/>
     <use xlink:href="#DejaVuSans-Oblique-20" x="95.361328"/>
     <use xlink:href="#DejaVuSans-Oblique-70" x="127.148438"/>
     <use xlink:href="#DejaVuSans-Oblique-5f" x="190.625"/>
     <use xlink:href="#DejaVuSans-Oblique-41" x="240.625"/>
     <use xlink:href="#DejaVuSans-Oblique-20" x="309.033203"/>
     <use xlink:href="#DejaVuSans-Oblique-3d" x="340.820312"/>
     <use xlink:href="#DejaVuSans-Oblique-20" x="424.609375"/>
     <use xlink:href="#DejaVuSans-Oblique-2d" x="456.396484"/>
     <use xlink:href="#DejaVuSans-Oblique-31" x="492.480469"/>
     <use xlink:href="#DejaVuSans-Oblique-34" x="556.103516"/>
     <use xlink:href="#DejaVuSans-Oblique-30" x="619.726562"/>
     <use xlink:href="#DejaVuSans-Oblique-31" x="683.349609"/>
     <use xlink:href="#DejaVuSans-Oblique-37" x="746.972656"/>
     <use xlink:href="#DejaVuSans-Oblique-39" x="810.595703"/>
     <use xlink:href="#DejaVuSans-Oblique-2e" x="874.21875"/>
     <use xlink:href="#DejaVuSans-Oblique-32" x="906.005859"/>
     <use xlink:href="#DejaVuSans-Oblique-34" x="969.628906"/>
     <use xlink:href="#DejaVuSans-Oblique-20" x="1033.251953"/>
     <use xlink:href="#DejaVuSans-Oblique-5b" x="1065.039062"/>
     <use xlink:href="#DejaVuSans-Oblique-50" x="1104.052734"/>
     <use xlink:href="#DejaVuSans-Oblique-61" x="1164.355469"/>
     <use xlink:href="#DejaVuSans-Oblique-5d" x="1225.634766"/>
    </g>
    <!--     logf =  4.01 [-] -->
    <g transform="translate(947.565312 177.803125) scale(0.14 -0.14)">
     <use xlink:href="#DejaVuSans-Oblique-20"/>
     <use xlink:href="#DejaVuSans-Oblique-20" x="31.787109"/>
     <use xlink:href="#DejaVuSans-Oblique-20" x="63.574219"/>
     <use xlink:href="#DejaVuSans-Oblique-20" x="95.361328"/>
     <use xlink:href="#DejaVuSans-Oblique-6c" x="127.148438"/>
     <use xlink:href="#DejaVuSans-Oblique-6f" x="154.931641"/>
     <use xlink:href="#DejaVuSans-Oblique-67" x="216.113281"/>
     <use xlink:href="#DejaVuSans-Oblique-66" x="279.589844"/>
     <use xlink:href="#DejaVuSans-Oblique-20" x="314.794922"/>
     <use xlink:href="#DejaVuSans-Oblique-3d" x="346.582031"/>
     <use xlink:href="#DejaVuSans-Oblique-20" x="430.371094"/>
     <use xlink:href="#DejaVuSans-Oblique-20" x="462.158203"/>
     <use xlink:href="#DejaVuSans-Oblique-34" x="493.945312"/>
     <use xlink:href="#DejaVuSans-Oblique-2e" x="557.568359"/>
     <use xlink:href="#DejaVuSans-Oblique-30" x="589.355469"/>
     <use xlink:href="#DejaVuSans-Oblique-31" x="652.978516"/>
     <use xlink:href="#DejaVuSans-Oblique-20" x="716.601562"/>
     <use xlink:href="#DejaVuSans-Oblique-5b" x="748.388672"/>
     <use xlink:href="#DejaVuSans-Oblique-2d" x="787.402344"/>
     <use xlink:href="#DejaVuSans-Oblique-5d" x="823.486328"/>
    </g>
    <!--     n =  4.00 [-] -->
    <g transform="translate(947.565312 193.480063) scale(0.14 -0.14)">
     <use xlink:href="#DejaVuSans-Oblique-20"/>
     <use xlink:href="#DejaVuSans-Oblique-20" x="31.787109"/>
     <use xlink:href="#DejaVuSans-Oblique-20" x="63.574219"/>
     <use xlink:href="#DejaVuSans-Oblique-20" x="95.361328"/>
     <use xlink:href="#DejaVuSans-Oblique-6e" x="127.148438"/>
     <use xlink:href="#DejaVuSans-Oblique-20" x="190.527344"/>
     <use xlink:href="#DejaVuSans-Oblique-3d" x="222.314453"/>
     <use xlink:href="#DejaVuSans-Oblique-20" x="306.103516"/>
     <use xlink:href="#DejaVuSans-Oblique-20" x="337.890625"/>
     <use xlink:href="#DejaVuSans-Oblique-34" x="369.677734"/>
     <use xlink:href="#DejaVuSans-Oblique-2e" x="433.300781"/>
     <use xlink:href="#DejaVuSans-Oblique-30" x="465.087891"/>
     <use xlink:href="#DejaVuSans-Oblique-30" x="528.710938"/>
     <use xlink:href="#DejaVuSans-Oblique-20" x="592.333984"/>
     <use xlink:href="#DejaVuSans-Oblique-5b" x="624.121094"/>
     <use xlink:href="#DejaVuSans-Oblique-2d" x="663.134766"/>
     <use xlink:href="#DejaVuSans-Oblique-5d" x="699.21875"/>
    </g>
   </g>
  </g>
  <g id="axes_2">
   <g id="matplotlib.axis_3">
    <g id="ytick_10">
     <g id="line2d_32">
      <defs>
       <path id="ma97c76e82e" d="M 0 0 
L 3.5 0 
" style="stroke: #000000; stroke-width: 0.8"/>
      </defs>
      <g>
       <use xlink:href="#ma97c76e82e" x="1180.24625" y="272.311264" style="stroke: #000000; stroke-width: 0.8"/>
      </g>
     </g>
     <g id="text_19">
      <!-- 1000 -->
      <g transform="translate(1187.24625 279.149858) scale(0.18 -0.18)">
       <use xlink:href="#DejaVuSans-31"/>
       <use xlink:href="#DejaVuSans-30" x="63.623047"/>
       <use xlink:href="#DejaVuSans-30" x="127.246094"/>
       <use xlink:href="#DejaVuSans-30" x="190.869141"/>
      </g>
     </g>
    </g>
    <g id="ytick_11">
     <g id="line2d_33">
      <g>
       <use xlink:href="#ma97c76e82e" x="1180.24625" y="204.583487" style="stroke: #000000; stroke-width: 0.8"/>
      </g>
     </g>
     <g id="text_20">
      <!-- 2000 -->
      <g transform="translate(1187.24625 211.42208) scale(0.18 -0.18)">
       <use xlink:href="#DejaVuSans-32"/>
       <use xlink:href="#DejaVuSans-30" x="63.623047"/>
       <use xlink:href="#DejaVuSans-30" x="127.246094"/>
       <use xlink:href="#DejaVuSans-30" x="190.869141"/>
      </g>
     </g>
    </g>
    <g id="ytick_12">
     <g id="line2d_34">
      <g>
       <use xlink:href="#ma97c76e82e" x="1180.24625" y="136.855709" style="stroke: #000000; stroke-width: 0.8"/>
      </g>
     </g>
     <g id="text_21">
      <!-- 3000 -->
      <g transform="translate(1187.24625 143.694303) scale(0.18 -0.18)">
       <use xlink:href="#DejaVuSans-33"/>
       <use xlink:href="#DejaVuSans-30" x="63.623047"/>
       <use xlink:href="#DejaVuSans-30" x="127.246094"/>
       <use xlink:href="#DejaVuSans-30" x="190.869141"/>
      </g>
     </g>
    </g>
    <g id="ytick_13">
     <g id="line2d_35">
      <g>
       <use xlink:href="#ma97c76e82e" x="1180.24625" y="69.127932" style="stroke: #000000; stroke-width: 0.8"/>
      </g>
     </g>
     <g id="text_22">
      <!-- 4000 -->
      <g transform="translate(1187.24625 75.966525) scale(0.18 -0.18)">
       <use xlink:href="#DejaVuSans-34"/>
       <use xlink:href="#DejaVuSans-30" x="63.623047"/>
       <use xlink:href="#DejaVuSans-30" x="127.246094"/>
       <use xlink:href="#DejaVuSans-30" x="190.869141"/>
      </g>
     </g>
    </g>
    <g id="text_23">
     <!-- $T$ [K] -->
     <g style="fill: #ff0000" transform="translate(1250.733437 194.85) rotate(-90) scale(0.18 -0.18)">
      <defs>
       <path id="DejaVuSans-4b" d="M 628 4666 
L 1259 4666 
L 1259 2694 
L 3353 4666 
L 4166 4666 
L 1850 2491 
L 4331 0 
L 3500 0 
L 1259 2247 
L 1259 0 
L 628 0 
L 628 4666 
z
" transform="scale(0.015625)"/>
      </defs>
      <use xlink:href="#DejaVuSans-Oblique-54" transform="translate(0 0.015625)"/>
      <use xlink:href="#DejaVuSans-20" transform="translate(61.083984 0.015625)"/>
      <use xlink:href="#DejaVuSans-5b" transform="translate(92.871094 0.015625)"/>
      <use xlink:href="#DejaVuSans-4b" transform="translate(131.884766 0.015625)"/>
      <use xlink:href="#DejaVuSans-5d" transform="translate(197.460938 0.015625)"/>
     </g>
    </g>
   </g>
   <g id="line2d_36">
    <path d="M 114.973523 319.507366 
L 118.169814 319.611788 
L 120.266448 319.90567 
L 122.756311 320.495643 
L 128.395598 321.923288 
L 130.853679 322.266425 
L 133.505321 322.405119 
L 136.724859 322.327842 
L 141.27563 321.96612 
L 157.602716 320.499048 
L 177.408978 318.977864 
L 180.453239 318.459572 
L 182.516233 317.896237 
L 184.046731 317.25212 
L 185.200015 316.529155 
L 186.107978 315.706598 
L 186.862123 314.734817 
L 187.530942 313.502916 
L 188.1139 311.94268 
L 188.633345 309.883819 
L 189.128349 306.994144 
L 189.549733 303.118798 
L 189.887505 297.817536 
L 190.159912 289.748556 
L 190.367102 276.358737 
L 190.513381 250.23007 
L 190.602711 184.663046 
L 190.639317 114.754406 
L 190.700371 206.15971 
L 190.882708 273.721211 
L 191.14346 296.844853 
L 191.468615 307.963578 
L 191.861014 314.346713 
L 192.304605 318.234422 
L 192.800938 320.762317 
L 193.338957 322.41358 
L 193.885195 323.404416 
L 194.425008 323.948116 
L 194.975829 324.206554 
L 195.625094 324.257088 
L 196.441598 324.078531 
L 197.651583 323.559685 
L 203.797403 320.617769 
L 211.342294 317.546964 
L 212.704235 316.633301 
L 213.779929 315.64568 
L 214.655608 314.546237 
L 215.429718 313.208459 
L 216.106962 311.573111 
L 216.723332 309.479538 
L 217.309214 306.706013 
L 217.815467 303.192714 
L 218.252061 298.533121 
L 218.63636 291.871067 
L 218.987597 281.493972 
L 219.474916 264.293091 
L 219.531149 264.926891 
L 219.662496 270.558291 
L 220.304731 300.926399 
L 220.725012 309.656572 
L 221.191679 315.047507 
L 221.705813 318.573053 
L 222.253308 320.915325 
L 222.849767 322.552144 
L 223.425707 323.55807 
L 224.032926 324.204186 
L 224.677382 324.570209 
L 225.35621 324.712864 
L 226.243979 324.656768 
L 227.438992 324.337505 
L 230.258229 323.263775 
L 232.953765 322.363795 
L 235.537617 321.744584 
L 238.586079 321.259872 
L 242.677046 320.860435 
L 249.011173 320.489289 
L 262.00385 319.989439 
L 281.676049 319.219505 
L 286.697788 318.795137 
L 289.689462 318.339328 
L 291.741769 317.817543 
L 293.232326 317.218968 
L 294.37082 316.525972 
L 295.258338 315.732409 
L 296.007446 314.762895 
L 296.650896 313.553179 
L 297.20703 312.017834 
L 297.707074 309.938175 
L 298.182353 306.950806 
L 298.584418 302.896727 
L 298.907209 297.146482 
L 299.156728 288.34364 
L 299.343198 272.901277 
L 299.46567 241.044535 
L 299.530691 149.349392 
L 299.550668 22.32 
L 299.627908 207.247142 
L 299.816835 269.556085 
L 300.087495 293.22536 
L 300.421139 305.081527 
L 300.823723 312.089187 
L 301.285371 316.481735 
L 301.799517 319.356033 
L 302.349694 321.243038 
L 302.920774 322.439881 
L 303.483135 323.131198 
L 304.070037 323.510116 
L 304.714332 323.657865 
L 305.508304 323.595819 
L 306.599536 323.269635 
L 309.225925 322.16473 
L 311.806639 321.207083 
L 314.390917 320.497034 
L 317.396899 319.909629 
L 321.468314 319.354645 
L 327.322331 318.797157 
L 333.219375 318.4438 
L 337.534479 318.399583 
L 341.191684 318.583441 
L 345.09696 319.010116 
L 354.283178 320.117471 
L 357.894163 320.265633 
L 361.850228 320.207249 
L 366.399805 319.912239 
L 370.631275 319.422173 
L 373.728842 318.849908 
L 375.914233 318.22729 
L 377.537541 317.53568 
L 378.750949 316.786974 
L 379.764357 315.898718 
L 380.582696 314.889473 
L 381.305121 313.638234 
L 381.934985 312.087527 
L 382.509031 310.062194 
L 383.057595 307.293296 
L 383.524993 303.704326 
L 383.920736 298.778949 
L 384.243718 291.785082 
L 384.516763 280.505206 
L 384.743263 260.69176 
L 384.946418 238.597475 
L 385.00128 242.25246 
L 385.578638 299.182402 
L 385.9387 309.114921 
L 386.358283 314.949202 
L 386.828986 318.586581 
L 387.342132 320.93741 
L 387.895729 322.495587 
L 388.442959 323.431654 
L 389.013842 323.986386 
L 389.599961 324.253543 
L 390.245025 324.30816 
L 391.08384 324.13648 
L 392.211625 323.656185 
L 394.104959 322.570422 
L 397.321246 320.460459 
L 399.128227 319.03594 
L 400.355331 317.783697 
L 401.303473 316.489641 
L 402.063533 315.079277 
L 402.722484 313.389857 
L 403.366104 311.06643 
L 403.920183 308.199848 
L 404.399718 304.485533 
L 404.81552 299.405525 
L 405.17988 292.014889 
L 405.5584 279.105221 
L 405.852137 271.36771 
L 405.862339 271.383871 
L 405.908005 271.8959 
L 406.036555 276.548651 
L 406.723427 304.520455 
L 407.152784 311.992593 
L 407.623285 316.561313 
L 408.14352 319.554887 
L 408.693604 321.512187 
L 409.273674 322.819539 
L 409.872807 323.641204 
L 410.45992 324.095647 
L 411.123387 324.325375 
L 411.873754 324.34227 
L 412.864099 324.120562 
L 414.315135 323.539803 
L 421.074082 320.575933 
L 424.079655 319.630281 
L 427.15656 318.897806 
L 429.813944 318.479271 
L 432.109569 318.333404 
L 434.176485 318.423309 
L 436.253812 318.745503 
L 438.620222 319.350031 
L 445.00144 321.108368 
L 447.420996 321.45669 
L 450.033589 321.593991 
L 453.164463 321.520126 
L 458.027157 321.149814 
L 477.004148 319.328272 
L 480.494493 318.758611 
L 482.830263 318.160219 
L 484.466684 317.520907 
L 485.704098 316.809977 
L 486.690323 315.996177 
L 487.502994 315.04583 
L 488.213746 313.866471 
L 488.826899 312.407635 
L 489.376708 310.498447 
L 489.896865 307.879844 
L 490.354181 304.364297 
L 490.723432 299.705597 
L 491.030784 292.755564 
L 491.269233 281.861276 
L 491.447286 262.331436 
L 491.571642 219.492085 
L 491.641719 170.442839 
L 491.697736 209.060653 
L 491.897056 275.980314 
L 492.160092 298.034456 
L 492.487913 308.776292 
L 492.874158 314.848818 
L 493.321533 318.652296 
L 493.823886 321.117168 
L 494.356212 322.68833 
L 494.892824 323.628827 
L 495.434013 324.153436 
L 495.988453 324.396872 
L 496.616309 324.433415 
L 497.443799 324.238662 
L 498.656378 323.691721 
L 508.913263 318.207845 
L 510.222966 317.213127 
L 511.28314 316.128251 
L 512.143415 314.920447 
L 512.852396 313.548792 
L 513.501741 311.78728 
L 514.102463 309.489046 
L 514.649005 306.494244 
L 515.121077 302.559306 
L 515.515953 297.266003 
L 515.851003 289.62126 
L 516.152598 277.222141 
L 516.524489 258.42761 
L 516.582869 259.686519 
L 516.742293 271.110597 
L 517.15965 296.977833 
L 517.541044 307.679644 
L 517.975121 313.995995 
L 518.453025 317.93377 
L 518.984969 320.568111 
L 519.559248 322.33606 
L 520.116891 323.420735 
L 520.718286 324.12573 
L 521.323461 324.505869 
L 522.010939 324.66692 
L 522.813996 324.616342 
L 523.899877 324.309072 
L 525.871201 323.467677 
L 529.381343 321.98395 
L 532.07439 321.107992 
L 535.291237 320.312635 
L 545.797442 317.928381 
L 547.614271 317.181681 
L 549.038845 316.354725 
L 550.190608 315.418867 
L 551.147227 314.341325 
L 551.935759 313.12431 
L 552.667867 311.570328 
L 553.347127 309.55851 
L 553.996201 306.931214 
L 554.571278 303.654532 
L 555.097909 299.318144 
L 555.635852 292.84856 
L 556.341328 284.409059 
L 556.423112 284.269534 
L 556.472409 284.356661 
L 556.584276 285.119559 
L 556.797706 288.59714 
L 557.902895 309.066381 
L 558.450966 314.214565 
L 559.029659 317.644039 
L 559.64467 320.0053 
L 560.273405 321.601709 
L 560.908216 322.658682 
L 561.584135 323.360137 
L 562.272192 323.759382 
L 563.058983 323.94701 
L 563.988105 323.924067 
L 565.206767 323.656223 
L 567.303122 322.923778 
L 572.283986 321.144611 
L 576.444921 319.954536 
L 581.450314 318.493821 
L 583.600695 317.628166 
L 585.171195 316.764832 
L 586.447378 315.809385 
L 587.518309 314.720423 
L 588.438711 313.455039 
L 589.250241 311.952264 
L 590.015198 310.040688 
L 590.811396 307.429763 
L 591.64252 303.882542 
L 592.888672 298.4533 
L 593.15964 298.099141 
L 593.308315 298.216439 
L 593.510866 298.760305 
L 593.815133 300.329025 
L 594.366495 304.686285 
L 595.350547 312.123995 
L 596.060537 315.825236 
L 596.765683 318.382018 
L 597.47418 320.176759 
L 598.201045 321.442956 
L 598.940724 322.295967 
L 599.718468 322.848566 
L 600.493005 323.145032 
L 601.451347 323.266248 
L 602.554189 323.183349 
L 604.188403 322.812947 
L 607.171224 321.854007 
L 617.516205 318.239462 
L 619.391731 317.269529 
L 620.884412 316.249531 
L 622.132651 315.125648 
L 623.241811 313.822139 
L 624.303223 312.213032 
L 625.467954 309.998004 
L 626.953833 307.185376 
L 627.417246 306.759447 
L 627.736134 306.729118 
L 628.037681 306.932856 
L 628.401412 307.48668 
L 628.891935 308.701364 
L 629.732207 311.509704 
L 631.188346 316.279445 
L 632.101383 318.502369 
L 632.971629 320.048369 
L 633.804712 321.093632 
L 634.667112 321.822319 
L 635.569585 322.289881 
L 636.545544 322.543651 
L 637.713465 322.604663 
L 639.129581 322.447875 
L 641.146672 321.982443 
L 644.590321 320.925864 
L 649.156936 319.311187 
L 651.844257 318.14299 
L 653.90014 317.01095 
L 655.655973 315.796531 
L 657.801988 314.007938 
L 659.295529 312.859902 
L 660.076316 312.518636 
L 660.704695 312.484548 
L 661.27215 312.684458 
L 661.878716 313.152335 
L 662.609503 314.022344 
L 663.763749 315.802846 
L 665.650501 318.669411 
L 666.773775 319.958276 
L 667.791977 320.809397 
L 668.863628 321.414896 
L 669.942477 321.777169 
L 671.182603 321.957294 
L 672.686429 321.932599 
L 674.594134 321.654509 
L 677.17032 321.036394 
L 680.827815 319.919258 
L 684.527941 318.568085 
L 691.570323 315.86315 
L 692.674414 315.815424 
L 693.628516 315.989403 
L 694.665842 316.414192 
L 695.876229 317.161976 
L 700.395128 320.195661 
L 701.814854 320.752292 
L 703.292501 321.089682 
L 704.916529 321.224459 
L 706.881406 321.141968 
L 709.239259 320.807664 
L 712.477543 320.107779 
L 717.874284 318.670291 
L 721.32561 317.846191 
L 723.271526 317.602898 
L 724.878501 317.619974 
L 726.451151 317.859865 
L 728.319777 318.38933 
L 734.041935 320.190637 
L 736.044375 320.491393 
L 738.248625 320.587355 
L 740.713387 320.46548 
L 743.966378 320.06242 
L 754.834966 318.514582 
L 757.176435 318.542209 
L 759.662556 318.807235 
L 764.389521 319.617155 
L 767.596957 320.017386 
L 770.432352 320.143759 
L 773.574685 320.056457 
L 777.811412 319.697097 
L 785.473629 319.019845 
L 788.74977 318.982523 
L 792.283846 319.177446 
L 801.93443 319.860609 
L 806.038883 319.818476 
L 812.217441 319.48794 
L 818.374736 319.227656 
L 822.791022 319.267868 
L 838.688671 319.6749 
L 856.033875 319.397924 
L 870.517338 319.60545 
L 891.060583 319.485869 
L 903.44168 319.557104 
L 924.891857 319.508497 
L 939.632641 319.514036 
L 958.238933 319.512631 
L 981.286729 319.49293 
L 1129.518977 319.507883 
L 1129.518977 319.507883 
" clip-path="url(#p0b0dc1b1e3)" style="fill: none; stroke-dasharray: 6.4,1.6,1,1.6; stroke-dashoffset: 0; stroke: #ff0000"/>
   </g>
   <g id="patch_8">
    <path d="M 64.24625 339.84 
L 64.24625 7.2 
" style="fill: none; stroke: #000000; stroke-width: 0.8; stroke-linejoin: miter; stroke-linecap: square"/>
   </g>
   <g id="patch_9">
    <path d="M 1180.24625 339.84 
L 1180.24625 7.2 
" style="fill: none; stroke: #000000; stroke-width: 0.8; stroke-linejoin: miter; stroke-linecap: square"/>
   </g>
   <g id="patch_10">
    <path d="M 64.24625 339.84 
L 1180.24625 339.84 
" style="fill: none; stroke: #000000; stroke-width: 0.8; stroke-linejoin: miter; stroke-linecap: square"/>
   </g>
   <g id="patch_11">
    <path d="M 64.24625 7.2 
L 1180.24625 7.2 
" style="fill: none; stroke: #000000; stroke-width: 0.8; stroke-linejoin: miter; stroke-linecap: square"/>
   </g>
  </g>
 </g>
 <defs>
  <clipPath id="p0b0dc1b1e3">
   <rect x="64.24625" y="7.2" width="1116" height="332.64"/>
  </clipPath>
 </defs>
</svg>
