<?xml version="1.0" encoding="utf-8" standalone="no"?>
<!DOCTYPE svg PUBLIC "-//W3C//DTD SVG 1.1//EN"
  "http://www.w3.org/Graphics/SVG/1.1/DTD/svg11.dtd">
<svg xmlns:xlink="http://www.w3.org/1999/xlink" width="1261.676875pt" height="392.920625pt" viewBox="0 0 1261.676875 392.920625" xmlns="http://www.w3.org/2000/svg" version="1.1">
 <metadata>
  <rdf:RDF xmlns:dc="http://purl.org/dc/elements/1.1/" xmlns:cc="http://creativecommons.org/ns#" xmlns:rdf="http://www.w3.org/1999/02/22-rdf-syntax-ns#">
   <cc:Work>
    <dc:type rdf:resource="http://purl.org/dc/dcmitype/StillImage"/>
    <dc:date>2023-12-04T01:07:41.712175</dc:date>
    <dc:format>image/svg+xml</dc:format>
    <dc:creator>
     <cc:Agent>
      <dc:title>Matplotlib v3.7.0, https://matplotlib.org/</dc:title>
     </cc:Agent>
    </dc:creator>
   </cc:Work>
  </rdf:RDF>
 </metadata>
 <defs>
  <style type="text/css">*{stroke-linejoin: round; stroke-linecap: butt}</style>
 </defs>
 <g id="figure_1">
  <g id="patch_1">
   <path d="M -0 392.920625 
L 1261.676875 392.920625 
L 1261.676875 0 
L -0 0 
z
" style="fill: #ffffff"/>
  </g>
  <g id="axes_1">
   <g id="patch_2">
    <path d="M 64.24625 339.84 
L 1180.24625 339.84 
L 1180.24625 7.2 
L 64.24625 7.2 
z
" style="fill: #ffffff"/>
   </g>
   <g id="matplotlib.axis_1">
    <g id="xtick_1">
     <g id="line2d_1">
      <path d="M 114.973523 339.84 
L 114.973523 7.2 
" clip-path="url(#p6480b2db68)" style="fill: none; stroke: #b0b0b0; stroke-width: 0.8; stroke-linecap: square"/>
     </g>
     <g id="line2d_2">
      <defs>
       <path id="m7f21fa7dce" d="M 0 0 
L 0 3.5 
" style="stroke: #000000; stroke-width: 0.8"/>
      </defs>
      <g>
       <use xlink:href="#m7f21fa7dce" x="114.973523" y="339.84" style="stroke: #000000; stroke-width: 0.8"/>
      </g>
     </g>
     <g id="text_1">
      <!-- 0 -->
      <g transform="translate(109.247273 360.517188) scale(0.18 -0.18)">
       <defs>
        <path id="DejaVuSans-30" d="M 2034 4250 
Q 1547 4250 1301 3770 
Q 1056 3291 1056 2328 
Q 1056 1369 1301 889 
Q 1547 409 2034 409 
Q 2525 409 2770 889 
Q 3016 1369 3016 2328 
Q 3016 3291 2770 3770 
Q 2525 4250 2034 4250 
z
M 2034 4750 
Q 2819 4750 3233 4129 
Q 3647 3509 3647 2328 
Q 3647 1150 3233 529 
Q 2819 -91 2034 -91 
Q 1250 -91 836 529 
Q 422 1150 422 2328 
Q 422 3509 836 4129 
Q 1250 4750 2034 4750 
z
" transform="scale(0.015625)"/>
       </defs>
       <use xlink:href="#DejaVuSans-30"/>
      </g>
     </g>
    </g>
    <g id="xtick_2">
     <g id="line2d_3">
      <path d="M 253.689617 339.84 
L 253.689617 7.2 
" clip-path="url(#p6480b2db68)" style="fill: none; stroke: #b0b0b0; stroke-width: 0.8; stroke-linecap: square"/>
     </g>
     <g id="line2d_4">
      <g>
       <use xlink:href="#m7f21fa7dce" x="253.689617" y="339.84" style="stroke: #000000; stroke-width: 0.8"/>
      </g>
     </g>
     <g id="text_2">
      <!-- 50 -->
      <g transform="translate(242.237117 360.517188) scale(0.18 -0.18)">
       <defs>
        <path id="DejaVuSans-35" d="M 691 4666 
L 3169 4666 
L 3169 4134 
L 1269 4134 
L 1269 2991 
Q 1406 3038 1543 3061 
Q 1681 3084 1819 3084 
Q 2600 3084 3056 2656 
Q 3513 2228 3513 1497 
Q 3513 744 3044 326 
Q 2575 -91 1722 -91 
Q 1428 -91 1123 -41 
Q 819 9 494 109 
L 494 744 
Q 775 591 1075 516 
Q 1375 441 1709 441 
Q 2250 441 2565 725 
Q 2881 1009 2881 1497 
Q 2881 1984 2565 2268 
Q 2250 2553 1709 2553 
Q 1456 2553 1204 2497 
Q 953 2441 691 2322 
L 691 4666 
z
" transform="scale(0.015625)"/>
       </defs>
       <use xlink:href="#DejaVuSans-35"/>
       <use xlink:href="#DejaVuSans-30" x="63.623047"/>
      </g>
     </g>
    </g>
    <g id="xtick_3">
     <g id="line2d_5">
      <path d="M 392.405711 339.84 
L 392.405711 7.2 
" clip-path="url(#p6480b2db68)" style="fill: none; stroke: #b0b0b0; stroke-width: 0.8; stroke-linecap: square"/>
     </g>
     <g id="line2d_6">
      <g>
       <use xlink:href="#m7f21fa7dce" x="392.405711" y="339.84" style="stroke: #000000; stroke-width: 0.8"/>
      </g>
     </g>
     <g id="text_3">
      <!-- 100 -->
      <g transform="translate(375.226961 360.517188) scale(0.18 -0.18)">
       <defs>
        <path id="DejaVuSans-31" d="M 794 531 
L 1825 531 
L 1825 4091 
L 703 3866 
L 703 4441 
L 1819 4666 
L 2450 4666 
L 2450 531 
L 3481 531 
L 3481 0 
L 794 0 
L 794 531 
z
" transform="scale(0.015625)"/>
       </defs>
       <use xlink:href="#DejaVuSans-31"/>
       <use xlink:href="#DejaVuSans-30" x="63.623047"/>
       <use xlink:href="#DejaVuSans-30" x="127.246094"/>
      </g>
     </g>
    </g>
    <g id="xtick_4">
     <g id="line2d_7">
      <path d="M 531.121805 339.84 
L 531.121805 7.2 
" clip-path="url(#p6480b2db68)" style="fill: none; stroke: #b0b0b0; stroke-width: 0.8; stroke-linecap: square"/>
     </g>
     <g id="line2d_8">
      <g>
       <use xlink:href="#m7f21fa7dce" x="531.121805" y="339.84" style="stroke: #000000; stroke-width: 0.8"/>
      </g>
     </g>
     <g id="text_4">
      <!-- 150 -->
      <g transform="translate(513.943055 360.517188) scale(0.18 -0.18)">
       <use xlink:href="#DejaVuSans-31"/>
       <use xlink:href="#DejaVuSans-35" x="63.623047"/>
       <use xlink:href="#DejaVuSans-30" x="127.246094"/>
      </g>
     </g>
    </g>
    <g id="xtick_5">
     <g id="line2d_9">
      <path d="M 669.837899 339.84 
L 669.837899 7.2 
" clip-path="url(#p6480b2db68)" style="fill: none; stroke: #b0b0b0; stroke-width: 0.8; stroke-linecap: square"/>
     </g>
     <g id="line2d_10">
      <g>
       <use xlink:href="#m7f21fa7dce" x="669.837899" y="339.84" style="stroke: #000000; stroke-width: 0.8"/>
      </g>
     </g>
     <g id="text_5">
      <!-- 200 -->
      <g transform="translate(652.659149 360.517188) scale(0.18 -0.18)">
       <defs>
        <path id="DejaVuSans-32" d="M 1228 531 
L 3431 531 
L 3431 0 
L 469 0 
L 469 531 
Q 828 903 1448 1529 
Q 2069 2156 2228 2338 
Q 2531 2678 2651 2914 
Q 2772 3150 2772 3378 
Q 2772 3750 2511 3984 
Q 2250 4219 1831 4219 
Q 1534 4219 1204 4116 
Q 875 4013 500 3803 
L 500 4441 
Q 881 4594 1212 4672 
Q 1544 4750 1819 4750 
Q 2544 4750 2975 4387 
Q 3406 4025 3406 3419 
Q 3406 3131 3298 2873 
Q 3191 2616 2906 2266 
Q 2828 2175 2409 1742 
Q 1991 1309 1228 531 
z
" transform="scale(0.015625)"/>
       </defs>
       <use xlink:href="#DejaVuSans-32"/>
       <use xlink:href="#DejaVuSans-30" x="63.623047"/>
       <use xlink:href="#DejaVuSans-30" x="127.246094"/>
      </g>
     </g>
    </g>
    <g id="xtick_6">
     <g id="line2d_11">
      <path d="M 808.553993 339.84 
L 808.553993 7.2 
" clip-path="url(#p6480b2db68)" style="fill: none; stroke: #b0b0b0; stroke-width: 0.8; stroke-linecap: square"/>
     </g>
     <g id="line2d_12">
      <g>
       <use xlink:href="#m7f21fa7dce" x="808.553993" y="339.84" style="stroke: #000000; stroke-width: 0.8"/>
      </g>
     </g>
     <g id="text_6">
      <!-- 250 -->
      <g transform="translate(791.375243 360.517188) scale(0.18 -0.18)">
       <use xlink:href="#DejaVuSans-32"/>
       <use xlink:href="#DejaVuSans-35" x="63.623047"/>
       <use xlink:href="#DejaVuSans-30" x="127.246094"/>
      </g>
     </g>
    </g>
    <g id="xtick_7">
     <g id="line2d_13">
      <path d="M 947.270087 339.84 
L 947.270087 7.2 
" clip-path="url(#p6480b2db68)" style="fill: none; stroke: #b0b0b0; stroke-width: 0.8; stroke-linecap: square"/>
     </g>
     <g id="line2d_14">
      <g>
       <use xlink:href="#m7f21fa7dce" x="947.270087" y="339.84" style="stroke: #000000; stroke-width: 0.8"/>
      </g>
     </g>
     <g id="text_7">
      <!-- 300 -->
      <g transform="translate(930.091337 360.517188) scale(0.18 -0.18)">
       <defs>
        <path id="DejaVuSans-33" d="M 2597 2516 
Q 3050 2419 3304 2112 
Q 3559 1806 3559 1356 
Q 3559 666 3084 287 
Q 2609 -91 1734 -91 
Q 1441 -91 1130 -33 
Q 819 25 488 141 
L 488 750 
Q 750 597 1062 519 
Q 1375 441 1716 441 
Q 2309 441 2620 675 
Q 2931 909 2931 1356 
Q 2931 1769 2642 2001 
Q 2353 2234 1838 2234 
L 1294 2234 
L 1294 2753 
L 1863 2753 
Q 2328 2753 2575 2939 
Q 2822 3125 2822 3475 
Q 2822 3834 2567 4026 
Q 2313 4219 1838 4219 
Q 1578 4219 1281 4162 
Q 984 4106 628 3988 
L 628 4550 
Q 988 4650 1302 4700 
Q 1616 4750 1894 4750 
Q 2613 4750 3031 4423 
Q 3450 4097 3450 3541 
Q 3450 3153 3228 2886 
Q 3006 2619 2597 2516 
z
" transform="scale(0.015625)"/>
       </defs>
       <use xlink:href="#DejaVuSans-33"/>
       <use xlink:href="#DejaVuSans-30" x="63.623047"/>
       <use xlink:href="#DejaVuSans-30" x="127.246094"/>
      </g>
     </g>
    </g>
    <g id="xtick_8">
     <g id="line2d_15">
      <path d="M 1085.986181 339.84 
L 1085.986181 7.2 
" clip-path="url(#p6480b2db68)" style="fill: none; stroke: #b0b0b0; stroke-width: 0.8; stroke-linecap: square"/>
     </g>
     <g id="line2d_16">
      <g>
       <use xlink:href="#m7f21fa7dce" x="1085.986181" y="339.84" style="stroke: #000000; stroke-width: 0.8"/>
      </g>
     </g>
     <g id="text_8">
      <!-- 350 -->
      <g transform="translate(1068.807431 360.517188) scale(0.18 -0.18)">
       <use xlink:href="#DejaVuSans-33"/>
       <use xlink:href="#DejaVuSans-35" x="63.623047"/>
       <use xlink:href="#DejaVuSans-30" x="127.246094"/>
      </g>
     </g>
    </g>
    <g id="text_9">
     <!-- $t$ [μs] -->
     <g transform="translate(598.39625 381.940625) scale(0.18 -0.18)">
      <defs>
       <path id="DejaVuSans-Oblique-74" d="M 2706 3500 
L 2619 3053 
L 1472 3053 
L 1100 1153 
Q 1081 1047 1072 975 
Q 1063 903 1063 863 
Q 1063 663 1183 572 
Q 1303 481 1569 481 
L 2150 481 
L 2053 0 
L 1503 0 
Q 991 0 739 200 
Q 488 400 488 806 
Q 488 878 497 964 
Q 506 1050 525 1153 
L 897 3053 
L 409 3053 
L 500 3500 
L 978 3500 
L 1172 4494 
L 1747 4494 
L 1556 3500 
L 2706 3500 
z
" transform="scale(0.015625)"/>
       <path id="DejaVuSans-20" transform="scale(0.015625)"/>
       <path id="DejaVuSans-5b" d="M 550 4863 
L 1875 4863 
L 1875 4416 
L 1125 4416 
L 1125 -397 
L 1875 -397 
L 1875 -844 
L 550 -844 
L 550 4863 
z
" transform="scale(0.015625)"/>
       <path id="DejaVuSans-3bc" d="M 544 -1331 
L 544 3500 
L 1119 3500 
L 1119 1325 
Q 1119 872 1334 640 
Q 1550 409 1972 409 
Q 2434 409 2667 671 
Q 2900 934 2900 1459 
L 2900 3500 
L 3475 3500 
L 3475 806 
Q 3475 619 3529 530 
Q 3584 441 3700 441 
Q 3728 441 3778 458 
Q 3828 475 3916 513 
L 3916 50 
Q 3788 -22 3673 -56 
Q 3559 -91 3450 -91 
Q 3234 -91 3106 31 
Q 2978 153 2931 403 
Q 2775 156 2548 32 
Q 2322 -91 2016 -91 
Q 1697 -91 1473 31 
Q 1250 153 1119 397 
L 1119 -1331 
L 544 -1331 
z
" transform="scale(0.015625)"/>
       <path id="DejaVuSans-73" d="M 2834 3397 
L 2834 2853 
Q 2591 2978 2328 3040 
Q 2066 3103 1784 3103 
Q 1356 3103 1142 2972 
Q 928 2841 928 2578 
Q 928 2378 1081 2264 
Q 1234 2150 1697 2047 
L 1894 2003 
Q 2506 1872 2764 1633 
Q 3022 1394 3022 966 
Q 3022 478 2636 193 
Q 2250 -91 1575 -91 
Q 1294 -91 989 -36 
Q 684 19 347 128 
L 347 722 
Q 666 556 975 473 
Q 1284 391 1588 391 
Q 1994 391 2212 530 
Q 2431 669 2431 922 
Q 2431 1156 2273 1281 
Q 2116 1406 1581 1522 
L 1381 1569 
Q 847 1681 609 1914 
Q 372 2147 372 2553 
Q 372 3047 722 3315 
Q 1072 3584 1716 3584 
Q 2034 3584 2315 3537 
Q 2597 3491 2834 3397 
z
" transform="scale(0.015625)"/>
       <path id="DejaVuSans-5d" d="M 1947 4863 
L 1947 -844 
L 622 -844 
L 622 -397 
L 1369 -397 
L 1369 4416 
L 622 4416 
L 622 4863 
L 1947 4863 
z
" transform="scale(0.015625)"/>
      </defs>
      <use xlink:href="#DejaVuSans-Oblique-74" transform="translate(0 0.015625)"/>
      <use xlink:href="#DejaVuSans-20" transform="translate(39.208984 0.015625)"/>
      <use xlink:href="#DejaVuSans-5b" transform="translate(70.996094 0.015625)"/>
      <use xlink:href="#DejaVuSans-3bc" transform="translate(110.009766 0.015625)"/>
      <use xlink:href="#DejaVuSans-73" transform="translate(173.632812 0.015625)"/>
      <use xlink:href="#DejaVuSans-5d" transform="translate(225.732422 0.015625)"/>
     </g>
    </g>
   </g>
   <g id="matplotlib.axis_2">
    <g id="ytick_1">
     <g id="line2d_17">
      <path d="M 64.24625 333.442952 
L 1180.24625 333.442952 
" clip-path="url(#p6480b2db68)" style="fill: none; stroke: #b0b0b0; stroke-width: 0.8; stroke-linecap: square"/>
     </g>
     <g id="line2d_18">
      <defs>
       <path id="m3ab872bb7d" d="M 0 0 
L -3.5 0 
" style="stroke: #000000; stroke-width: 0.8"/>
      </defs>
      <g>
       <use xlink:href="#m3ab872bb7d" x="64.24625" y="333.442952" style="stroke: #000000; stroke-width: 0.8"/>
      </g>
     </g>
     <g id="text_10">
      <!-- 0.0 -->
      <g transform="translate(28.620625 340.281546) scale(0.18 -0.18)">
       <defs>
        <path id="DejaVuSans-2e" d="M 684 794 
L 1344 794 
L 1344 0 
L 684 0 
L 684 794 
z
" transform="scale(0.015625)"/>
       </defs>
       <use xlink:href="#DejaVuSans-30"/>
       <use xlink:href="#DejaVuSans-2e" x="63.623047"/>
       <use xlink:href="#DejaVuSans-30" x="95.410156"/>
      </g>
     </g>
    </g>
    <g id="ytick_2">
     <g id="line2d_19">
      <path d="M 64.24625 291.948253 
L 1180.24625 291.948253 
" clip-path="url(#p6480b2db68)" style="fill: none; stroke: #b0b0b0; stroke-width: 0.8; stroke-linecap: square"/>
     </g>
     <g id="line2d_20">
      <g>
       <use xlink:href="#m3ab872bb7d" x="64.24625" y="291.948253" style="stroke: #000000; stroke-width: 0.8"/>
      </g>
     </g>
     <g id="text_11">
      <!-- 0.5 -->
      <g transform="translate(28.620625 298.786847) scale(0.18 -0.18)">
       <use xlink:href="#DejaVuSans-30"/>
       <use xlink:href="#DejaVuSans-2e" x="63.623047"/>
       <use xlink:href="#DejaVuSans-35" x="95.410156"/>
      </g>
     </g>
    </g>
    <g id="ytick_3">
     <g id="line2d_21">
      <path d="M 64.24625 250.453554 
L 1180.24625 250.453554 
" clip-path="url(#p6480b2db68)" style="fill: none; stroke: #b0b0b0; stroke-width: 0.8; stroke-linecap: square"/>
     </g>
     <g id="line2d_22">
      <g>
       <use xlink:href="#m3ab872bb7d" x="64.24625" y="250.453554" style="stroke: #000000; stroke-width: 0.8"/>
      </g>
     </g>
     <g id="text_12">
      <!-- 1.0 -->
      <g transform="translate(28.620625 257.292148) scale(0.18 -0.18)">
       <use xlink:href="#DejaVuSans-31"/>
       <use xlink:href="#DejaVuSans-2e" x="63.623047"/>
       <use xlink:href="#DejaVuSans-30" x="95.410156"/>
      </g>
     </g>
    </g>
    <g id="ytick_4">
     <g id="line2d_23">
      <path d="M 64.24625 208.958855 
L 1180.24625 208.958855 
" clip-path="url(#p6480b2db68)" style="fill: none; stroke: #b0b0b0; stroke-width: 0.8; stroke-linecap: square"/>
     </g>
     <g id="line2d_24">
      <g>
       <use xlink:href="#m3ab872bb7d" x="64.24625" y="208.958855" style="stroke: #000000; stroke-width: 0.8"/>
      </g>
     </g>
     <g id="text_13">
      <!-- 1.5 -->
      <g transform="translate(28.620625 215.797448) scale(0.18 -0.18)">
       <use xlink:href="#DejaVuSans-31"/>
       <use xlink:href="#DejaVuSans-2e" x="63.623047"/>
       <use xlink:href="#DejaVuSans-35" x="95.410156"/>
      </g>
     </g>
    </g>
    <g id="ytick_5">
     <g id="line2d_25">
      <path d="M 64.24625 167.464155 
L 1180.24625 167.464155 
" clip-path="url(#p6480b2db68)" style="fill: none; stroke: #b0b0b0; stroke-width: 0.8; stroke-linecap: square"/>
     </g>
     <g id="line2d_26">
      <g>
       <use xlink:href="#m3ab872bb7d" x="64.24625" y="167.464155" style="stroke: #000000; stroke-width: 0.8"/>
      </g>
     </g>
     <g id="text_14">
      <!-- 2.0 -->
      <g transform="translate(28.620625 174.302749) scale(0.18 -0.18)">
       <use xlink:href="#DejaVuSans-32"/>
       <use xlink:href="#DejaVuSans-2e" x="63.623047"/>
       <use xlink:href="#DejaVuSans-30" x="95.410156"/>
      </g>
     </g>
    </g>
    <g id="ytick_6">
     <g id="line2d_27">
      <path d="M 64.24625 125.969456 
L 1180.24625 125.969456 
" clip-path="url(#p6480b2db68)" style="fill: none; stroke: #b0b0b0; stroke-width: 0.8; stroke-linecap: square"/>
     </g>
     <g id="line2d_28">
      <g>
       <use xlink:href="#m3ab872bb7d" x="64.24625" y="125.969456" style="stroke: #000000; stroke-width: 0.8"/>
      </g>
     </g>
     <g id="text_15">
      <!-- 2.5 -->
      <g transform="translate(28.620625 132.80805) scale(0.18 -0.18)">
       <use xlink:href="#DejaVuSans-32"/>
       <use xlink:href="#DejaVuSans-2e" x="63.623047"/>
       <use xlink:href="#DejaVuSans-35" x="95.410156"/>
      </g>
     </g>
    </g>
    <g id="ytick_7">
     <g id="line2d_29">
      <path d="M 64.24625 84.474757 
L 1180.24625 84.474757 
" clip-path="url(#p6480b2db68)" style="fill: none; stroke: #b0b0b0; stroke-width: 0.8; stroke-linecap: square"/>
     </g>
     <g id="line2d_30">
      <g>
       <use xlink:href="#m3ab872bb7d" x="64.24625" y="84.474757" style="stroke: #000000; stroke-width: 0.8"/>
      </g>
     </g>
     <g id="text_16">
      <!-- 3.0 -->
      <g transform="translate(28.620625 91.31335) scale(0.18 -0.18)">
       <use xlink:href="#DejaVuSans-33"/>
       <use xlink:href="#DejaVuSans-2e" x="63.623047"/>
       <use xlink:href="#DejaVuSans-30" x="95.410156"/>
      </g>
     </g>
    </g>
    <g id="ytick_8">
     <g id="line2d_31">
      <path d="M 64.24625 42.980057 
L 1180.24625 42.980057 
" clip-path="url(#p6480b2db68)" style="fill: none; stroke: #b0b0b0; stroke-width: 0.8; stroke-linecap: square"/>
     </g>
     <g id="line2d_32">
      <g>
       <use xlink:href="#m3ab872bb7d" x="64.24625" y="42.980057" style="stroke: #000000; stroke-width: 0.8"/>
      </g>
     </g>
     <g id="text_17">
      <!-- 3.5 -->
      <g transform="translate(28.620625 49.818651) scale(0.18 -0.18)">
       <use xlink:href="#DejaVuSans-33"/>
       <use xlink:href="#DejaVuSans-2e" x="63.623047"/>
       <use xlink:href="#DejaVuSans-35" x="95.410156"/>
      </g>
     </g>
    </g>
    <g id="text_18">
     <!-- $R/R_E$ [-] -->
     <g style="fill: #0000ff" transform="translate(20.877188 206.46) rotate(-90) scale(0.18 -0.18)">
      <defs>
       <path id="DejaVuSans-Oblique-52" d="M 1613 4147 
L 1294 2491 
L 2106 2491 
Q 2584 2491 2879 2755 
Q 3175 3019 3175 3444 
Q 3175 3784 2976 3965 
Q 2778 4147 2406 4147 
L 1613 4147 
z
M 2772 2241 
Q 2972 2194 3105 2009 
Q 3238 1825 3413 1275 
L 3809 0 
L 3144 0 
L 2778 1197 
Q 2638 1659 2453 1815 
Q 2269 1972 1888 1972 
L 1191 1972 
L 806 0 
L 172 0 
L 1081 4666 
L 2503 4666 
Q 3150 4666 3495 4373 
Q 3841 4081 3841 3531 
Q 3841 3044 3547 2687 
Q 3253 2331 2772 2241 
z
" transform="scale(0.015625)"/>
       <path id="DejaVuSans-2f" d="M 1625 4666 
L 2156 4666 
L 531 -594 
L 0 -594 
L 1625 4666 
z
" transform="scale(0.015625)"/>
       <path id="DejaVuSans-Oblique-45" d="M 1081 4666 
L 4031 4666 
L 3928 4134 
L 1606 4134 
L 1338 2753 
L 3566 2753 
L 3463 2222 
L 1234 2222 
L 909 531 
L 3284 531 
L 3181 0 
L 172 0 
L 1081 4666 
z
" transform="scale(0.015625)"/>
       <path id="DejaVuSans-2d" d="M 313 2009 
L 1997 2009 
L 1997 1497 
L 313 1497 
L 313 2009 
z
" transform="scale(0.015625)"/>
      </defs>
      <use xlink:href="#DejaVuSans-Oblique-52" transform="translate(0 0.015625)"/>
      <use xlink:href="#DejaVuSans-2f" transform="translate(69.482422 0.015625)"/>
      <use xlink:href="#DejaVuSans-Oblique-52" transform="translate(103.173828 0.015625)"/>
      <use xlink:href="#DejaVuSans-Oblique-45" transform="translate(172.65625 -16.390625) scale(0.7)"/>
      <use xlink:href="#DejaVuSans-20" transform="translate(219.619141 0.015625)"/>
      <use xlink:href="#DejaVuSans-5b" transform="translate(251.40625 0.015625)"/>
      <use xlink:href="#DejaVuSans-2d" transform="translate(290.419922 0.015625)"/>
      <use xlink:href="#DejaVuSans-5d" transform="translate(326.503906 0.015625)"/>
     </g>
    </g>
   </g>
   <g id="line2d_33">
    <path d="M 114.973523 250.453554 
L 119.552594 250.348023 
L 122.06208 250.081001 
L 124.269488 249.640711 
L 126.286758 249.030611 
L 128.330378 248.183137 
L 130.393877 247.075079 
L 132.432805 245.721761 
L 134.59194 244.006649 
L 136.657259 242.099305 
L 138.920792 239.720403 
L 141.277622 236.939617 
L 144.029988 233.326566 
L 146.875619 229.210205 
L 149.826926 224.568433 
L 153.199404 218.84443 
L 156.623364 212.621465 
L 160.540898 205.049782 
L 164.893714 196.14313 
L 170.00321 185.129338 
L 175.683642 172.321593 
L 182.995896 155.227716 
L 206.696277 99.281706 
L 212.3053 86.837006 
L 217.21559 76.457298 
L 221.734817 67.423422 
L 225.713499 59.948611 
L 229.692181 52.979905 
L 233.498083 46.838836 
L 236.785642 41.985775 
L 240.073202 37.585133 
L 242.538872 34.601183 
L 245.385615 31.513824 
L 248.085419 28.95928 
L 250.110272 27.293862 
L 252.582887 25.564911 
L 254.828312 24.297676 
L 257.073737 23.331517 
L 259.038156 22.743345 
L 260.908906 22.414934 
L 262.696151 22.32 
L 264.617068 22.465097 
L 266.537984 22.875865 
L 268.4589 23.562777 
L 270.379817 24.537033 
L 272.300733 25.810675 
L 274.221649 27.39674 
L 276.142566 29.309431 
L 278.063482 31.564329 
L 279.984398 34.178653 
L 281.905315 37.171583 
L 283.879734 40.665123 
L 285.788018 44.468324 
L 287.696301 48.718689 
L 289.867634 54.139403 
L 291.972029 60.036927 
L 294.076423 66.629687 
L 296.178993 73.985592 
L 298.149125 81.658107 
L 300.116729 90.172838 
L 302.118709 99.839981 
L 303.984933 109.917076 
L 305.810387 120.960454 
L 307.638424 133.457341 
L 309.290339 146.307618 
L 310.824734 159.965116 
L 312.25314 174.684931 
L 313.546456 190.366524 
L 314.668604 206.678885 
L 315.646874 224.194631 
L 316.447016 242.549396 
L 317.079403 262.264735 
L 317.531746 283.456834 
L 317.807294 307.066335 
L 317.908091 324.72 
L 317.987445 316.409722 
L 318.289548 298.712233 
L 318.764926 283.616493 
L 319.417868 269.838813 
L 320.242057 257.109427 
L 321.223574 245.358514 
L 322.349373 234.514476 
L 323.620323 224.425666 
L 324.998999 215.251941 
L 326.451141 207.03807 
L 328.025528 199.411503 
L 329.631459 192.717005 
L 331.291864 186.735483 
L 332.999393 181.419862 
L 334.688015 176.877691 
L 336.418058 172.867889 
L 338.138171 169.454698 
L 339.84654 166.574096 
L 341.523743 164.195654 
L 343.074441 162.36182 
L 344.682905 160.804338 
L 346.303715 159.567226 
L 347.789007 158.709361 
L 349.19157 158.128819 
L 350.756527 157.731612 
L 352.321485 157.586579 
L 353.911857 157.685991 
L 355.480889 158.017633 
L 357.111076 158.598093 
L 358.694718 159.383521 
L 360.450885 160.500441 
L 362.435059 162.06208 
L 364.453163 163.964469 
L 366.359172 166.041666 
L 368.539041 168.741748 
L 370.676889 171.73588 
L 372.858222 175.168172 
L 375.109268 179.141315 
L 377.360314 183.593082 
L 379.467409 188.239711 
L 381.574504 193.405312 
L 383.758685 199.382584 
L 385.84329 205.772235 
L 387.828948 212.593761 
L 389.761597 220.063915 
L 391.593644 228.079362 
L 393.244878 236.288196 
L 394.850941 245.435537 
L 396.31353 255.098068 
L 397.667074 265.597195 
L 398.907077 277.021975 
L 401.256178 299.534092 
L 401.431272 299.717051 
L 401.448345 299.707906 
L 401.571335 299.502882 
L 401.78495 298.611489 
L 402.141862 295.991689 
L 403.011335 287.422176 
L 404.410417 274.39817 
L 405.689852 264.562514 
L 407.071529 255.631907 
L 408.577551 247.339263 
L 410.141575 239.901985 
L 411.898989 232.628708 
L 413.692315 226.13186 
L 415.622647 219.975406 
L 417.619292 214.358082 
L 419.607682 209.402299 
L 421.706643 204.764677 
L 423.794878 200.680805 
L 425.929946 196.99165 
L 428.120215 193.66848 
L 430.174125 190.941155 
L 432.3312 188.452715 
L 434.410705 186.395958 
L 436.485595 184.660985 
L 438.421088 183.31598 
L 440.347921 182.230002 
L 442.297774 181.380899 
L 444.204711 180.788293 
L 445.999612 180.441944 
L 447.992378 180.295059 
L 449.947184 180.392622 
L 451.888081 180.726236 
L 453.855641 181.306507 
L 455.802036 182.122944 
L 457.651655 183.125803 
L 459.501274 184.354576 
L 461.350894 185.815193 
L 463.570437 187.884469 
L 465.684628 190.190484 
L 467.777837 192.812675 
L 469.783102 195.660132 
L 471.987099 199.195297 
L 474.191096 203.190634 
L 476.265827 207.413086 
L 478.35928 212.17726 
L 480.379077 217.312291 
L 482.424716 223.127823 
L 484.484726 229.709946 
L 486.34208 236.380089 
L 488.176922 243.786396 
L 489.96051 251.91833 
L 491.72132 261.015222 
L 493.586029 271.894093 
L 496.089244 286.59293 
L 496.712585 288.959196 
L 497.137397 289.831886 
L 497.416902 290.015961 
L 497.645439 289.927559 
L 497.918537 289.548378 
L 498.290214 288.598884 
L 498.830338 286.512729 
L 499.709981 282.055454 
L 503.618188 261.246741 
L 505.330032 253.691432 
L 507.155644 246.639068 
L 509.040419 240.263413 
L 510.9772 234.507358 
L 512.955316 229.328541 
L 514.930439 224.761664 
L 516.973007 220.59139 
L 518.982791 216.973425 
L 521.062458 213.684589 
L 523.040511 210.947717 
L 525.138705 208.428934 
L 527.205711 206.30839 
L 529.189039 204.590855 
L 531.244896 203.122443 
L 533.203141 202.007285 
L 535.214741 201.14043 
L 537.12494 200.572201 
L 538.997795 200.251783 
L 540.808975 200.162191 
L 542.542114 200.277977 
L 544.465024 200.636817 
L 546.352768 201.225787 
L 548.174284 202.01851 
L 550.107228 203.104388 
L 551.989994 204.409247 
L 554.040542 206.115484 
L 556.233527 208.280847 
L 558.422775 210.809424 
L 560.54042 213.62281 
L 562.52019 216.599519 
L 564.764395 220.40678 
L 566.901362 224.493137 
L 569.069113 229.138738 
L 571.233512 234.327494 
L 573.398627 240.121437 
L 575.577368 246.613787 
L 577.80608 253.971578 
L 580.51005 263.741869 
L 583.497515 274.429385 
L 584.58565 277.52645 
L 585.379978 279.177398 
L 585.98883 279.982828 
L 586.48545 280.303941 
L 586.910255 280.328548 
L 587.340685 280.120208 
L 587.837336 279.602803 
L 588.45166 278.594965 
L 589.204543 276.905499 
L 590.295343 273.842476 
L 592.194949 267.709029 
L 595.605048 256.768747 
L 597.850676 250.347097 
L 599.947105 245.000969 
L 602.024054 240.290084 
L 604.123694 236.071606 
L 606.23459 232.33305 
L 608.151727 229.337665 
L 610.149402 226.590433 
L 612.15703 224.187666 
L 614.286239 222.00683 
L 616.26086 220.303601 
L 618.026642 219.028645 
L 619.778542 217.986596 
L 621.539277 217.156162 
L 623.300011 216.537623 
L 625.060746 216.126624 
L 626.821481 215.919873 
L 628.524388 215.912028 
L 630.530001 216.143334 
L 632.317303 216.568139 
L 634.220911 217.247681 
L 636.213721 218.2117 
L 638.136131 219.38931 
L 640.085753 220.835885 
L 642.271613 222.766073 
L 644.302533 224.858794 
L 646.411826 227.346232 
L 648.530731 230.176696 
L 650.849617 233.666735 
L 653.112267 237.477069 
L 655.542352 242.018201 
L 658.139328 247.366147 
L 661.118674 254.026343 
L 666.269733 265.62184 
L 667.767808 268.397436 
L 668.930979 270.108608 
L 669.84997 271.10213 
L 670.69099 271.690127 
L 671.439649 271.935889 
L 672.149647 271.922205 
L 672.811783 271.697192 
L 673.587103 271.188106 
L 674.470642 270.317192 
L 675.549088 268.902593 
L 676.875885 266.764288 
L 678.765046 263.261746 
L 685.8259 249.809942 
L 688.263756 245.803551 
L 690.563842 242.432815 
L 692.710791 239.647585 
L 694.8884 237.171499 
L 696.968185 235.124817 
L 699.0773 233.356097 
L 701.206702 231.873382 
L 703.12646 230.789623 
L 705.093532 229.921181 
L 706.921049 229.328807 
L 709.031744 228.896387 
L 711.081102 228.730149 
L 712.890567 228.78804 
L 714.803322 229.055532 
L 716.935688 229.601345 
L 718.984227 230.369637 
L 720.997146 231.355824 
L 723.255889 232.733444 
L 725.538337 234.413906 
L 727.727665 236.294158 
L 730.103608 238.624371 
L 732.626074 241.41285 
L 735.496071 244.942461 
L 738.813485 249.396338 
L 745.938741 259.101243 
L 747.907989 261.325275 
L 749.460494 262.756787 
L 750.805404 263.705096 
L 752.038239 264.300924 
L 753.192644 264.603353 
L 754.30822 264.654771 
L 755.34991 264.492369 
L 756.536942 264.072933 
L 757.805826 263.374751 
L 759.291715 262.278522 
L 761.033245 260.697019 
L 763.37878 258.237966 
L 772.964487 247.837874 
L 775.722229 245.355334 
L 778.126307 243.472028 
L 780.426373 241.927893 
L 782.665966 240.671317 
L 784.796976 239.702931 
L 787.069276 238.913478 
L 789.331918 238.374319 
L 791.594561 238.078193 
L 793.895619 238.022073 
L 796.058235 238.190132 
L 798.202017 238.563054 
L 800.549102 239.200341 
L 802.935189 240.08474 
L 805.478182 241.276731 
L 808.202305 242.818557 
L 811.087153 244.716716 
L 814.289049 247.082557 
L 819.633444 251.362511 
L 823.825982 254.612091 
L 826.510704 256.409929 
L 828.529187 257.518031 
L 830.348024 258.28854 
L 832.166861 258.811436 
L 833.806021 259.054926 
L 835.496544 259.075554 
L 837.179025 258.870397 
L 838.903655 258.443887 
L 840.867006 257.725756 
L 843.174583 256.628036 
L 846.028445 255.01056 
L 858.214982 247.803123 
L 861.18667 246.45105 
L 864.087366 245.37889 
L 866.912923 244.586649 
L 869.419928 244.098755 
L 871.926934 243.814681 
L 874.43394 243.732675 
L 877.041403 243.856746 
L 879.898406 244.227803 
L 882.788076 244.837364 
L 885.94964 245.747887 
L 889.513264 247.032108 
L 893.881011 248.874058 
L 903.825938 253.186664 
L 906.856155 254.211424 
L 909.621633 254.910428 
L 912.183308 255.318539 
L 914.646834 255.476547 
L 917.104336 255.40463 
L 919.568812 255.11679 
L 922.43028 254.547984 
L 925.830401 253.621047 
L 930.472711 252.102494 
L 938.38487 249.50337 
L 942.413093 248.425315 
L 946.065639 247.67816 
L 949.3827 247.216618 
L 952.684324 246.973468 
L 956.081424 246.949089 
L 959.478525 247.144705 
L 963.253081 247.597459 
L 967.419231 248.339541 
L 972.596223 249.510259 
L 984.216933 252.229858 
L 988.097793 252.864581 
L 991.583301 253.220439 
L 994.897184 253.347937 
L 998.520768 253.251819 
L 1002.304598 252.915621 
L 1006.652201 252.299832 
L 1013.611624 251.052043 
L 1021.318492 249.732504 
L 1026.319086 249.10741 
L 1030.646284 248.777721 
L 1034.781548 248.663653 
L 1039.443981 248.76755 
L 1044.512042 249.129065 
L 1050.526911 249.806994 
L 1066.751134 251.783115 
L 1071.846429 252.0858 
L 1076.650853 252.141625 
L 1081.504912 251.979032 
L 1087.329782 251.555343 
L 1108.934161 249.73035 
L 1114.755785 249.59608 
L 1120.649644 249.680662 
L 1127.745111 250.026839 
L 1129.518977 250.142954 
L 1129.518977 250.142954 
" clip-path="url(#p6480b2db68)" style="fill: none; stroke: #0000ff; stroke-linecap: square"/>
   </g>
   <g id="patch_3">
    <path d="M 64.24625 339.84 
L 64.24625 7.2 
" style="fill: none; stroke: #000000; stroke-width: 0.8; stroke-linejoin: miter; stroke-linecap: square"/>
   </g>
   <g id="patch_4">
    <path d="M 1180.24625 339.84 
L 1180.24625 7.2 
" style="fill: none; stroke: #000000; stroke-width: 0.8; stroke-linejoin: miter; stroke-linecap: square"/>
   </g>
   <g id="patch_5">
    <path d="M 64.24625 339.84 
L 1180.24625 339.84 
" style="fill: none; stroke: #000000; stroke-width: 0.8; stroke-linejoin: miter; stroke-linecap: square"/>
   </g>
   <g id="patch_6">
    <path d="M 64.24625 7.2 
L 1180.24625 7.2 
" style="fill: none; stroke: #000000; stroke-width: 0.8; stroke-linejoin: miter; stroke-linecap: square"/>
   </g>
  </g>
  <g id="axes_2">
   <g id="matplotlib.axis_3">
    <g id="ytick_9">
     <g id="line2d_34">
      <defs>
       <path id="mfabfcb998c" d="M 0 0 
L 3.5 0 
" style="stroke: #000000; stroke-width: 0.8"/>
      </defs>
      <g>
       <use xlink:href="#mfabfcb998c" x="1180.24625" y="272.875149" style="stroke: #000000; stroke-width: 0.8"/>
      </g>
     </g>
     <g id="text_19">
      <!-- 1000 -->
      <g transform="translate(1187.24625 279.713743) scale(0.18 -0.18)">
       <use xlink:href="#DejaVuSans-31"/>
       <use xlink:href="#DejaVuSans-30" x="63.623047"/>
       <use xlink:href="#DejaVuSans-30" x="127.246094"/>
       <use xlink:href="#DejaVuSans-30" x="190.869141"/>
      </g>
     </g>
    </g>
    <g id="ytick_10">
     <g id="line2d_35">
      <g>
       <use xlink:href="#mfabfcb998c" x="1180.24625" y="205.355069" style="stroke: #000000; stroke-width: 0.8"/>
      </g>
     </g>
     <g id="text_20">
      <!-- 2000 -->
      <g transform="translate(1187.24625 212.193663) scale(0.18 -0.18)">
       <use xlink:href="#DejaVuSans-32"/>
       <use xlink:href="#DejaVuSans-30" x="63.623047"/>
       <use xlink:href="#DejaVuSans-30" x="127.246094"/>
       <use xlink:href="#DejaVuSans-30" x="190.869141"/>
      </g>
     </g>
    </g>
    <g id="ytick_11">
     <g id="line2d_36">
      <g>
       <use xlink:href="#mfabfcb998c" x="1180.24625" y="137.834989" style="stroke: #000000; stroke-width: 0.8"/>
      </g>
     </g>
     <g id="text_21">
      <!-- 3000 -->
      <g transform="translate(1187.24625 144.673583) scale(0.18 -0.18)">
       <use xlink:href="#DejaVuSans-33"/>
       <use xlink:href="#DejaVuSans-30" x="63.623047"/>
       <use xlink:href="#DejaVuSans-30" x="127.246094"/>
       <use xlink:href="#DejaVuSans-30" x="190.869141"/>
      </g>
     </g>
    </g>
    <g id="ytick_12">
     <g id="line2d_37">
      <g>
       <use xlink:href="#mfabfcb998c" x="1180.24625" y="70.314909" style="stroke: #000000; stroke-width: 0.8"/>
      </g>
     </g>
     <g id="text_22">
      <!-- 4000 -->
      <g transform="translate(1187.24625 77.153503) scale(0.18 -0.18)">
       <defs>
        <path id="DejaVuSans-34" d="M 2419 4116 
L 825 1625 
L 2419 1625 
L 2419 4116 
z
M 2253 4666 
L 3047 4666 
L 3047 1625 
L 3713 1625 
L 3713 1100 
L 3047 1100 
L 3047 0 
L 2419 0 
L 2419 1100 
L 313 1100 
L 313 1709 
L 2253 4666 
z
" transform="scale(0.015625)"/>
       </defs>
       <use xlink:href="#DejaVuSans-34"/>
       <use xlink:href="#DejaVuSans-30" x="63.623047"/>
       <use xlink:href="#DejaVuSans-30" x="127.246094"/>
       <use xlink:href="#DejaVuSans-30" x="190.869141"/>
      </g>
     </g>
    </g>
    <g id="text_23">
     <!-- $T$ [K] -->
     <g style="fill: #ff0000" transform="translate(1250.733437 194.85) rotate(-90) scale(0.18 -0.18)">
      <defs>
       <path id="DejaVuSans-Oblique-54" d="M 378 4666 
L 4325 4666 
L 4225 4134 
L 2559 4134 
L 1759 0 
L 1125 0 
L 1925 4134 
L 275 4134 
L 378 4666 
z
" transform="scale(0.015625)"/>
       <path id="DejaVuSans-4b" d="M 628 4666 
L 1259 4666 
L 1259 2694 
L 3353 4666 
L 4166 4666 
L 1850 2491 
L 4331 0 
L 3500 0 
L 1259 2247 
L 1259 0 
L 628 0 
L 628 4666 
z
" transform="scale(0.015625)"/>
      </defs>
      <use xlink:href="#DejaVuSans-Oblique-54" transform="translate(0 0.015625)"/>
      <use xlink:href="#DejaVuSans-20" transform="translate(61.083984 0.015625)"/>
      <use xlink:href="#DejaVuSans-5b" transform="translate(92.871094 0.015625)"/>
      <use xlink:href="#DejaVuSans-4b" transform="translate(131.884766 0.015625)"/>
      <use xlink:href="#DejaVuSans-5d" transform="translate(197.460938 0.015625)"/>
     </g>
    </g>
   </g>
   <g id="line2d_38">
    <path d="M 114.973523 319.926517 
L 122.242476 320.031144 
L 127.145748 320.339518 
L 132.432805 320.903927 
L 146.619411 322.547834 
L 152.016751 322.875354 
L 157.929209 323.001522 
L 164.893714 322.912054 
L 175.1379 322.524507 
L 205.978084 321.234568 
L 225.713499 320.701174 
L 259.973531 320.050072 
L 280.752765 319.548568 
L 290.656782 319.100166 
L 296.835704 318.609501 
L 301.02672 318.066818 
L 304.135155 317.446101 
L 306.434059 316.769368 
L 308.257892 316.006477 
L 309.71656 315.160645 
L 310.965252 314.170443 
L 312.01914 313.03356 
L 312.896639 311.757925 
L 313.703226 310.177075 
L 314.477901 308.164875 
L 315.154475 305.77495 
L 315.747123 302.820939 
L 316.257525 299.071193 
L 316.694444 294.083621 
L 317.062189 287.096942 
L 317.360578 276.757496 
L 317.589716 260.144447 
L 317.753771 229.676065 
L 317.854586 160.819788 
L 317.907942 22.32 
L 317.977825 141.318298 
L 318.173905 229.069465 
L 318.451776 263.655259 
L 318.807726 282.716251 
L 319.239234 294.709808 
L 319.729482 302.602395 
L 320.290281 308.214672 
L 320.908381 312.265419 
L 321.580401 315.276739 
L 322.320742 317.609031 
L 323.118565 319.407974 
L 323.971881 320.803645 
L 324.896147 321.893142 
L 325.879906 322.706063 
L 326.965469 323.302345 
L 328.159423 323.695105 
L 329.538899 323.907083 
L 331.186649 323.932207 
L 333.43664 323.72566 
L 337.001543 323.139907 
L 347.023282 321.416109 
L 353.439312 320.594586 
L 362.435059 319.69374 
L 375.672029 318.363359 
L 380.169774 317.673057 
L 383.563679 316.934673 
L 386.241458 316.122298 
L 388.274944 315.286066 
L 390.033886 314.325438 
L 391.52016 313.254935 
L 392.792555 312.05793 
L 393.940644 310.650273 
L 394.99969 309.003581 
L 395.966556 307.101317 
L 396.859836 304.827901 
L 397.667074 302.110752 
L 398.388968 298.840655 
L 399.043739 294.792783 
L 399.669491 289.445028 
L 400.339178 281.572098 
L 401.174634 271.908375 
L 401.382986 271.357738 
L 401.388047 271.359318 
L 401.469362 271.517631 
L 401.603731 272.41396 
L 401.871398 276.030788 
L 403.539984 302.203206 
L 404.204589 307.831132 
L 404.903586 311.943362 
L 405.638642 315.022501 
L 406.435307 317.442582 
L 407.270598 319.308917 
L 408.160157 320.788889 
L 409.155294 322.019376 
L 410.141575 322.916559 
L 411.294147 323.660533 
L 412.529969 324.186918 
L 413.959496 324.540309 
L 415.622647 324.707341 
L 417.619292 324.676709 
L 420.299707 324.400823 
L 424.865756 323.668424 
L 434.218622 322.154655 
L 441.10343 321.29861 
L 449.571242 320.484405 
L 468.72085 318.721799 
L 473.640097 318.016312 
L 477.46728 317.25086 
L 480.379077 316.448749 
L 482.79665 315.548301 
L 484.778369 314.564141 
L 486.459583 313.467361 
L 487.884996 312.261301 
L 489.163202 310.869222 
L 490.369184 309.221375 
L 491.46584 307.369637 
L 492.528478 305.126141 
L 493.525007 302.475996 
L 494.537121 299.109984 
L 496.807696 291.138413 
L 497.1688 290.74279 
L 497.371276 290.765926 
L 497.590207 291.039624 
L 497.881573 291.806159 
L 498.290214 293.644287 
L 499.068994 298.442163 
L 500.409934 306.471966 
L 501.344723 310.69436 
L 502.250915 313.80089 
L 503.167581 316.19783 
L 504.129311 318.123645 
L 505.18621 319.737114 
L 506.27644 321.001351 
L 507.453021 322.02381 
L 508.709538 322.815941 
L 510.033063 323.394759 
L 511.597436 323.824889 
L 513.387187 324.070851 
L 515.555711 324.126667 
L 518.285047 323.960434 
L 522.298741 323.472217 
L 541.848858 320.814895 
L 559.033391 318.73276 
L 563.715215 317.910933 
L 567.295498 317.068715 
L 570.054455 316.210318 
L 572.453748 315.235912 
L 574.454498 314.186832 
L 576.241855 312.993514 
L 577.80608 311.681784 
L 579.337953 310.089949 
L 581.044041 307.97565 
L 585.108488 302.707623 
L 585.711145 302.369411 
L 586.201667 302.341821 
L 586.662814 302.541917 
L 587.175135 303.023181 
L 587.804226 303.952732 
L 588.636149 305.620574 
L 590.112207 309.209192 
L 591.815528 313.122018 
L 593.130348 315.58262 
L 594.380125 317.463315 
L 595.605048 318.943806 
L 596.961755 320.234488 
L 598.320716 321.224798 
L 599.821673 322.035634 
L 601.475778 322.657803 
L 603.214063 323.07528 
L 605.31334 323.339453 
L 607.7078 323.413888 
L 610.902263 323.271983 
L 615.533626 322.807078 
L 625.76504 321.482311 
L 643.517994 319.04214 
L 648.7114 318.082844 
L 652.721712 317.121779 
L 655.965339 316.121002 
L 658.805543 315.014691 
L 661.42537 313.761199 
L 664.723553 311.905607 
L 667.322478 310.518001 
L 668.619098 310.056726 
L 669.720582 309.898349 
L 670.69099 309.989405 
L 671.660479 310.320102 
L 672.630526 310.885801 
L 673.823714 311.853466 
L 675.521003 313.555872 
L 679.345865 317.458741 
L 681.127549 318.927332 
L 682.919301 320.115326 
L 684.719314 321.036098 
L 686.585788 321.740003 
L 688.632015 322.268708 
L 690.908074 322.620498 
L 693.49936 322.793489 
L 696.560462 322.77874 
L 700.699129 322.522535 
L 706.616463 321.91566 
L 717.452248 320.546529 
L 726.742585 319.181703 
L 732.990835 318.051787 
L 738.619236 316.805549 
L 747.134592 314.867 
L 749.348418 314.638336 
L 751.253708 314.666935 
L 753.007707 314.91709 
L 754.842644 315.411207 
L 756.988489 316.23742 
L 760.496829 317.873782 
L 764.177495 319.505952 
L 766.87686 320.46067 
L 769.553341 321.165525 
L 772.331735 321.658328 
L 775.3914 321.963424 
L 778.707796 322.075169 
L 782.939422 321.983498 
L 788.200597 321.639152 
L 795.886454 320.894765 
L 806.524766 319.629066 
L 825.379047 317.312707 
L 828.832327 317.200982 
L 831.863721 317.318406 
L 834.980392 317.667669 
L 838.598847 318.312233 
L 850.386624 320.603472 
L 854.434689 321.048301 
L 858.68743 321.284477 
L 863.333194 321.320259 
L 869.106553 321.132637 
L 876.760005 320.641776 
L 889.513264 319.562002 
L 900.050963 318.752501 
L 905.579781 318.54024 
L 910.472549 318.573524 
L 915.413992 318.841347 
L 921.845741 319.440524 
L 931.885596 320.371781 
L 937.819716 320.677112 
L 943.97788 320.764593 
L 951.174501 320.630205 
L 960.988348 320.197286 
L 980.541729 319.277279 
L 987.829677 319.199916 
L 994.897184 319.355354 
L 1005.319802 319.852541 
L 1015.984526 320.292179 
L 1024.318848 320.404191 
L 1033.623133 320.295388 
L 1049.67053 319.826633 
L 1062.383737 319.557207 
L 1072.210379 319.582633 
L 1085.064555 319.876651 
L 1100.194748 320.171727 
L 1111.992956 320.155752 
L 1129.518977 319.87807 
L 1129.518977 319.87807 
" clip-path="url(#p6480b2db68)" style="fill: none; stroke-dasharray: 6.4,1.6,1,1.6; stroke-dashoffset: 0; stroke: #ff0000"/>
   </g>
   <g id="patch_7">
    <path d="M 64.24625 339.84 
L 64.24625 7.2 
" style="fill: none; stroke: #000000; stroke-width: 0.8; stroke-linejoin: miter; stroke-linecap: square"/>
   </g>
   <g id="patch_8">
    <path d="M 1180.24625 339.84 
L 1180.24625 7.2 
" style="fill: none; stroke: #000000; stroke-width: 0.8; stroke-linejoin: miter; stroke-linecap: square"/>
   </g>
   <g id="patch_9">
    <path d="M 64.24625 339.84 
L 1180.24625 339.84 
" style="fill: none; stroke: #000000; stroke-width: 0.8; stroke-linejoin: miter; stroke-linecap: square"/>
   </g>
   <g id="patch_10">
    <path d="M 64.24625 7.2 
L 1180.24625 7.2 
" style="fill: none; stroke: #000000; stroke-width: 0.8; stroke-linejoin: miter; stroke-linecap: square"/>
   </g>
   <g id="text_24">
    <g id="patch_11">
     <path d="M 937.625312 206.331625 
L 1167.86625 206.331625 
L 1167.86625 13.892 
L 937.625312 13.892 
z
" style="fill: #ffffff; stroke: #000000; stroke-linejoin: miter"/>
    </g>
    <!-- Initial conditions: -->
    <g transform="translate(947.565312 34.469813) scale(0.14 -0.14)">
     <defs>
      <path id="DejaVuSans-Oblique-49" d="M 1081 4666 
L 1716 4666 
L 806 0 
L 172 0 
L 1081 4666 
z
" transform="scale(0.015625)"/>
      <path id="DejaVuSans-Oblique-6e" d="M 3566 2113 
L 3156 0 
L 2578 0 
L 2988 2091 
Q 3016 2238 3031 2350 
Q 3047 2463 3047 2528 
Q 3047 2791 2881 2937 
Q 2716 3084 2419 3084 
Q 1956 3084 1622 2776 
Q 1288 2469 1184 1941 
L 800 0 
L 225 0 
L 903 3500 
L 1478 3500 
L 1363 2950 
Q 1603 3253 1940 3418 
Q 2278 3584 2650 3584 
Q 3113 3584 3367 3334 
Q 3622 3084 3622 2631 
Q 3622 2519 3608 2391 
Q 3594 2263 3566 2113 
z
" transform="scale(0.015625)"/>
      <path id="DejaVuSans-Oblique-69" d="M 1172 4863 
L 1747 4863 
L 1606 4134 
L 1031 4134 
L 1172 4863 
z
M 909 3500 
L 1484 3500 
L 800 0 
L 225 0 
L 909 3500 
z
" transform="scale(0.015625)"/>
      <path id="DejaVuSans-Oblique-61" d="M 3438 1997 
L 3047 0 
L 2472 0 
L 2578 531 
Q 2325 219 2001 64 
Q 1678 -91 1281 -91 
Q 834 -91 548 182 
Q 263 456 263 884 
Q 263 1497 752 1853 
Q 1241 2209 2100 2209 
L 2900 2209 
L 2931 2363 
Q 2938 2388 2941 2417 
Q 2944 2447 2944 2509 
Q 2944 2788 2717 2942 
Q 2491 3097 2081 3097 
Q 1800 3097 1504 3025 
Q 1209 2953 897 2809 
L 997 3341 
Q 1322 3463 1633 3523 
Q 1944 3584 2234 3584 
Q 2853 3584 3176 3315 
Q 3500 3047 3500 2534 
Q 3500 2431 3484 2292 
Q 3469 2153 3438 1997 
z
M 2816 1759 
L 2241 1759 
Q 1534 1759 1195 1570 
Q 856 1381 856 984 
Q 856 709 1029 553 
Q 1203 397 1509 397 
Q 1978 397 2328 733 
Q 2678 1069 2791 1631 
L 2816 1759 
z
" transform="scale(0.015625)"/>
      <path id="DejaVuSans-Oblique-6c" d="M 1172 4863 
L 1747 4863 
L 800 0 
L 225 0 
L 1172 4863 
z
" transform="scale(0.015625)"/>
      <path id="DejaVuSans-Oblique-20" transform="scale(0.015625)"/>
      <path id="DejaVuSans-Oblique-63" d="M 3431 3366 
L 3316 2797 
Q 3109 2947 2876 3022 
Q 2644 3097 2394 3097 
Q 2119 3097 1870 3000 
Q 1622 2903 1453 2725 
Q 1184 2453 1037 2087 
Q 891 1722 891 1331 
Q 891 859 1127 628 
Q 1363 397 1844 397 
Q 2081 397 2348 469 
Q 2616 541 2906 684 
L 2797 116 
Q 2547 13 2283 -39 
Q 2019 -91 1741 -91 
Q 1044 -91 669 257 
Q 294 606 294 1253 
Q 294 1797 489 2255 
Q 684 2713 1069 3078 
Q 1331 3328 1684 3456 
Q 2038 3584 2456 3584 
Q 2700 3584 2940 3529 
Q 3181 3475 3431 3366 
z
" transform="scale(0.015625)"/>
      <path id="DejaVuSans-Oblique-6f" d="M 1625 -91 
Q 1009 -91 651 289 
Q 294 669 294 1325 
Q 294 1706 417 2101 
Q 541 2497 738 2766 
Q 1047 3184 1428 3384 
Q 1809 3584 2291 3584 
Q 2888 3584 3255 3212 
Q 3622 2841 3622 2241 
Q 3622 1825 3500 1412 
Q 3378 1000 3181 728 
Q 2875 309 2494 109 
Q 2113 -91 1625 -91 
z
M 891 1344 
Q 891 869 1089 633 
Q 1288 397 1691 397 
Q 2269 397 2648 901 
Q 3028 1406 3028 2181 
Q 3028 2634 2825 2865 
Q 2622 3097 2228 3097 
Q 1903 3097 1650 2945 
Q 1397 2794 1197 2484 
Q 1050 2253 970 1956 
Q 891 1659 891 1344 
z
" transform="scale(0.015625)"/>
      <path id="DejaVuSans-Oblique-64" d="M 2675 525 
Q 2444 222 2128 65 
Q 1813 -91 1428 -91 
Q 903 -91 598 267 
Q 294 625 294 1247 
Q 294 1766 478 2236 
Q 663 2706 1013 3078 
Q 1244 3325 1534 3454 
Q 1825 3584 2144 3584 
Q 2481 3584 2739 3421 
Q 2997 3259 3138 2956 
L 3513 4863 
L 4091 4863 
L 3144 0 
L 2566 0 
L 2675 525 
z
M 891 1350 
Q 891 897 1095 644 
Q 1300 391 1663 391 
Q 1931 391 2161 520 
Q 2391 650 2566 903 
Q 2750 1166 2856 1509 
Q 2963 1853 2963 2188 
Q 2963 2622 2758 2865 
Q 2553 3109 2194 3109 
Q 1922 3109 1687 2981 
Q 1453 2853 1288 2613 
Q 1106 2353 998 2009 
Q 891 1666 891 1350 
z
" transform="scale(0.015625)"/>
      <path id="DejaVuSans-Oblique-73" d="M 3200 3397 
L 3091 2853 
Q 2863 2978 2609 3040 
Q 2356 3103 2088 3103 
Q 1634 3103 1373 2948 
Q 1113 2794 1113 2528 
Q 1113 2219 1719 2053 
Q 1766 2041 1788 2034 
L 1972 1978 
Q 2547 1819 2739 1644 
Q 2931 1469 2931 1166 
Q 2931 609 2489 259 
Q 2047 -91 1331 -91 
Q 1053 -91 747 -37 
Q 441 16 72 128 
L 184 722 
Q 500 559 806 475 
Q 1113 391 1394 391 
Q 1816 391 2080 572 
Q 2344 753 2344 1031 
Q 2344 1331 1650 1516 
L 1591 1531 
L 1394 1581 
Q 956 1697 753 1886 
Q 550 2075 550 2369 
Q 550 2928 970 3256 
Q 1391 3584 2113 3584 
Q 2397 3584 2667 3537 
Q 2938 3491 3200 3397 
z
" transform="scale(0.015625)"/>
      <path id="DejaVuSans-Oblique-3a" d="M 978 3309 
L 1638 3309 
L 1484 2516 
L 825 2516 
L 978 3309 
z
M 488 794 
L 1147 794 
L 991 0 
L 331 0 
L 488 794 
z
" transform="scale(0.015625)"/>
     </defs>
     <use xlink:href="#DejaVuSans-Oblique-49"/>
     <use xlink:href="#DejaVuSans-Oblique-6e" x="29.492188"/>
     <use xlink:href="#DejaVuSans-Oblique-69" x="92.871094"/>
     <use xlink:href="#DejaVuSans-Oblique-74" x="120.654297"/>
     <use xlink:href="#DejaVuSans-Oblique-69" x="159.863281"/>
     <use xlink:href="#DejaVuSans-Oblique-61" x="187.646484"/>
     <use xlink:href="#DejaVuSans-Oblique-6c" x="248.925781"/>
     <use xlink:href="#DejaVuSans-Oblique-20" x="276.708984"/>
     <use xlink:href="#DejaVuSans-Oblique-63" x="308.496094"/>
     <use xlink:href="#DejaVuSans-Oblique-6f" x="363.476562"/>
     <use xlink:href="#DejaVuSans-Oblique-6e" x="424.658203"/>
     <use xlink:href="#DejaVuSans-Oblique-64" x="488.037109"/>
     <use xlink:href="#DejaVuSans-Oblique-69" x="551.513672"/>
     <use xlink:href="#DejaVuSans-Oblique-74" x="579.296875"/>
     <use xlink:href="#DejaVuSans-Oblique-69" x="618.505859"/>
     <use xlink:href="#DejaVuSans-Oblique-6f" x="646.289062"/>
     <use xlink:href="#DejaVuSans-Oblique-6e" x="707.470703"/>
     <use xlink:href="#DejaVuSans-Oblique-73" x="770.849609"/>
     <use xlink:href="#DejaVuSans-Oblique-3a" x="822.949219"/>
    </g>
    <!--     $R_E$ =  89.93 $[\mu m]$ -->
    <g transform="translate(947.565312 50.149375) scale(0.14 -0.14)">
     <defs>
      <path id="DejaVuSans-Oblique-3d" d="M 678 2906 
L 4684 2906 
L 4684 2381 
L 678 2381 
L 678 2906 
z
M 678 1631 
L 4684 1631 
L 4684 1100 
L 678 1100 
L 678 1631 
z
" transform="scale(0.015625)"/>
      <path id="DejaVuSans-Oblique-38" d="M 2847 1416 
Q 2847 1769 2600 1992 
Q 2353 2216 1953 2216 
Q 1466 2216 1148 1923 
Q 831 1631 831 1184 
Q 831 828 1073 618 
Q 1316 409 1728 409 
Q 2219 409 2533 693 
Q 2847 978 2847 1416 
z
M 3169 3591 
Q 3169 3888 2950 4069 
Q 2731 4250 2369 4250 
Q 1941 4250 1664 4009 
Q 1388 3769 1388 3406 
Q 1388 3094 1605 2903 
Q 1822 2713 2181 2713 
Q 2613 2713 2891 2961 
Q 3169 3209 3169 3591 
z
M 2741 2456 
Q 3094 2322 3281 2050 
Q 3469 1778 3469 1394 
Q 3469 747 2969 328 
Q 2469 -91 1678 -91 
Q 1006 -91 609 239 
Q 213 569 213 1119 
Q 213 1619 553 2008 
Q 894 2397 1441 2503 
Q 1113 2616 941 2852 
Q 769 3088 769 3425 
Q 769 3991 1239 4370 
Q 1709 4750 2431 4750 
Q 3034 4750 3414 4442 
Q 3794 4134 3794 3659 
Q 3794 3247 3511 2923 
Q 3228 2600 2741 2456 
z
" transform="scale(0.015625)"/>
      <path id="DejaVuSans-Oblique-39" d="M 281 103 
L 397 678 
Q 578 559 809 496 
Q 1041 434 1306 434 
Q 1953 434 2348 843 
Q 2744 1253 2938 2119 
Q 2706 1853 2401 1714 
Q 2097 1575 1747 1575 
Q 1178 1575 842 1904 
Q 506 2234 506 2791 
Q 506 3247 672 3639 
Q 838 4031 1159 4325 
Q 1378 4531 1665 4640 
Q 1953 4750 2278 4750 
Q 2925 4750 3300 4339 
Q 3675 3928 3675 3219 
Q 3675 2559 3501 1943 
Q 3328 1328 3022 878 
Q 2697 403 2240 156 
Q 1784 -91 1228 -91 
Q 988 -91 748 -42 
Q 509 6 281 103 
z
M 1131 2938 
Q 1131 2541 1337 2308 
Q 1544 2075 1894 2075 
Q 2378 2075 2706 2447 
Q 3034 2819 3034 3372 
Q 3034 3784 2831 4017 
Q 2628 4250 2272 4250 
Q 1788 4250 1459 3870 
Q 1131 3491 1131 2938 
z
" transform="scale(0.015625)"/>
      <path id="DejaVuSans-Oblique-2e" d="M 525 794 
L 1184 794 
L 1031 0 
L 372 0 
L 525 794 
z
" transform="scale(0.015625)"/>
      <path id="DejaVuSans-Oblique-33" d="M 1013 4550 
Q 1356 4650 1679 4700 
Q 2003 4750 2316 4750 
Q 2934 4750 3296 4475 
Q 3659 4200 3659 3738 
Q 3659 3284 3373 2959 
Q 3088 2634 2584 2516 
Q 2978 2403 3162 2165 
Q 3347 1928 3347 1538 
Q 3347 1163 3167 834 
Q 2988 506 2650 269 
Q 2394 88 2037 -1 
Q 1681 -91 1216 -91 
Q 922 -91 622 -33 
Q 322 25 13 141 
L 128 738 
Q 422 575 720 495 
Q 1019 416 1331 416 
Q 1947 416 2330 733 
Q 2713 1050 2713 1556 
Q 2713 1881 2469 2057 
Q 2225 2234 1772 2234 
L 1228 2234 
L 1325 2747 
L 1900 2747 
Q 2419 2747 2717 2984 
Q 3016 3222 3016 3628 
Q 3016 3922 2797 4083 
Q 2578 4244 2181 4244 
Q 1881 4244 1567 4180 
Q 1253 4116 916 3988 
L 1013 4550 
z
" transform="scale(0.015625)"/>
      <path id="DejaVuSans-Oblique-3bc" d="M -84 -1331 
L 856 3500 
L 1434 3500 
L 1009 1322 
Q 997 1256 987 1175 
Q 978 1094 978 1013 
Q 978 722 1161 565 
Q 1344 409 1684 409 
Q 2147 409 2431 671 
Q 2716 934 2816 1459 
L 3213 3500 
L 3788 3500 
L 3266 809 
Q 3253 750 3248 706 
Q 3244 663 3244 628 
Q 3244 531 3283 486 
Q 3322 441 3406 441 
Q 3438 441 3492 456 
Q 3547 472 3647 513 
L 3559 50 
Q 3422 -19 3297 -55 
Q 3172 -91 3053 -91 
Q 2847 -91 2730 40 
Q 2613 172 2613 403 
Q 2438 153 2195 31 
Q 1953 -91 1625 -91 
Q 1334 -91 1117 43 
Q 900 178 831 397 
L 494 -1331 
L -84 -1331 
z
" transform="scale(0.015625)"/>
      <path id="DejaVuSans-Oblique-6d" d="M 5747 2113 
L 5338 0 
L 4763 0 
L 5166 2094 
Q 5191 2228 5203 2325 
Q 5216 2422 5216 2491 
Q 5216 2772 5059 2928 
Q 4903 3084 4622 3084 
Q 4203 3084 3875 2770 
Q 3547 2456 3450 1953 
L 3066 0 
L 2491 0 
L 2900 2094 
Q 2925 2209 2937 2307 
Q 2950 2406 2950 2484 
Q 2950 2769 2794 2926 
Q 2638 3084 2363 3084 
Q 1938 3084 1609 2770 
Q 1281 2456 1184 1953 
L 800 0 
L 225 0 
L 909 3500 
L 1484 3500 
L 1375 2956 
Q 1609 3263 1923 3423 
Q 2238 3584 2597 3584 
Q 2978 3584 3223 3384 
Q 3469 3184 3519 2828 
Q 3781 3197 4126 3390 
Q 4472 3584 4856 3584 
Q 5306 3584 5551 3325 
Q 5797 3066 5797 2591 
Q 5797 2488 5784 2364 
Q 5772 2241 5747 2113 
z
" transform="scale(0.015625)"/>
     </defs>
     <use xlink:href="#DejaVuSans-Oblique-20" transform="translate(0 0.015625)"/>
     <use xlink:href="#DejaVuSans-Oblique-20" transform="translate(31.787109 0.015625)"/>
     <use xlink:href="#DejaVuSans-Oblique-20" transform="translate(63.574219 0.015625)"/>
     <use xlink:href="#DejaVuSans-Oblique-20" transform="translate(95.361328 0.015625)"/>
     <use xlink:href="#DejaVuSans-Oblique-52" transform="translate(127.148438 0.015625)"/>
     <use xlink:href="#DejaVuSans-Oblique-45" transform="translate(196.630859 -16.390625) scale(0.7)"/>
     <use xlink:href="#DejaVuSans-Oblique-20" transform="translate(243.59375 0.015625)"/>
     <use xlink:href="#DejaVuSans-Oblique-3d" transform="translate(275.380859 0.015625)"/>
     <use xlink:href="#DejaVuSans-Oblique-20" transform="translate(359.169922 0.015625)"/>
     <use xlink:href="#DejaVuSans-Oblique-20" transform="translate(390.957031 0.015625)"/>
     <use xlink:href="#DejaVuSans-Oblique-38" transform="translate(422.744141 0.015625)"/>
     <use xlink:href="#DejaVuSans-Oblique-39" transform="translate(486.367188 0.015625)"/>
     <use xlink:href="#DejaVuSans-Oblique-2e" transform="translate(549.990234 0.015625)"/>
     <use xlink:href="#DejaVuSans-Oblique-39" transform="translate(581.777344 0.015625)"/>
     <use xlink:href="#DejaVuSans-Oblique-33" transform="translate(645.400391 0.015625)"/>
     <use xlink:href="#DejaVuSans-Oblique-20" transform="translate(709.023438 0.015625)"/>
     <use xlink:href="#DejaVuSans-5b" transform="translate(740.810547 0.015625)"/>
     <use xlink:href="#DejaVuSans-Oblique-3bc" transform="translate(779.824219 0.015625)"/>
     <use xlink:href="#DejaVuSans-Oblique-6d" transform="translate(843.447266 0.015625)"/>
     <use xlink:href="#DejaVuSans-5d" transform="translate(940.859375 0.015625)"/>
    </g>
    <!--     $P_{amb}$ =  1.01 $[bar]$ -->
    <g transform="translate(947.565312 65.85475) scale(0.14 -0.14)">
     <defs>
      <path id="DejaVuSans-Oblique-50" d="M 1081 4666 
L 2541 4666 
Q 3178 4666 3512 4369 
Q 3847 4072 3847 3500 
Q 3847 2731 3353 2303 
Q 2859 1875 1966 1875 
L 1172 1875 
L 806 0 
L 172 0 
L 1081 4666 
z
M 1613 4147 
L 1275 2394 
L 2069 2394 
Q 2606 2394 2893 2669 
Q 3181 2944 3181 3456 
Q 3181 3784 2986 3965 
Q 2791 4147 2438 4147 
L 1613 4147 
z
" transform="scale(0.015625)"/>
      <path id="DejaVuSans-Oblique-62" d="M 3169 2138 
Q 3169 2591 2961 2847 
Q 2753 3103 2388 3103 
Q 2122 3103 1889 2973 
Q 1656 2844 1484 2597 
Q 1303 2338 1198 1995 
Q 1094 1653 1094 1313 
Q 1094 881 1298 636 
Q 1503 391 1863 391 
Q 2134 391 2365 517 
Q 2597 644 2772 891 
Q 2950 1147 3059 1487 
Q 3169 1828 3169 2138 
z
M 1381 2969 
Q 1594 3256 1914 3420 
Q 2234 3584 2584 3584 
Q 3122 3584 3439 3221 
Q 3756 2859 3756 2241 
Q 3756 1734 3570 1259 
Q 3384 784 3041 416 
Q 2816 172 2522 40 
Q 2228 -91 1906 -91 
Q 1566 -91 1316 65 
Q 1066 222 909 531 
L 806 0 
L 231 0 
L 1178 4863 
L 1753 4863 
L 1381 2969 
z
" transform="scale(0.015625)"/>
      <path id="DejaVuSans-Oblique-31" d="M 416 531 
L 1447 531 
L 2144 4122 
L 978 3897 
L 1088 4441 
L 2247 4666 
L 2881 4666 
L 2075 531 
L 3103 531 
L 3003 0 
L 313 0 
L 416 531 
z
" transform="scale(0.015625)"/>
      <path id="DejaVuSans-Oblique-30" d="M 2444 4750 
Q 3078 4750 3414 4328 
Q 3750 3906 3750 3116 
Q 3750 2516 3592 1923 
Q 3434 1331 3150 863 
Q 2859 394 2467 151 
Q 2075 -91 1600 -91 
Q 988 -91 653 334 
Q 319 759 319 1544 
Q 319 2138 480 2733 
Q 641 3328 928 3794 
Q 1216 4263 1602 4506 
Q 1988 4750 2444 4750 
z
M 2406 4250 
Q 2169 4250 1955 4123 
Q 1741 3997 1569 3750 
Q 1281 3338 1111 2720 
Q 941 2103 941 1453 
Q 941 938 1123 673 
Q 1306 409 1663 409 
Q 1913 409 2125 536 
Q 2338 663 2509 909 
Q 2794 1319 2961 1936 
Q 3128 2553 3128 3206 
Q 3128 3722 2945 3986 
Q 2763 4250 2406 4250 
z
" transform="scale(0.015625)"/>
      <path id="DejaVuSans-Oblique-72" d="M 2853 2969 
Q 2766 3016 2653 3041 
Q 2541 3066 2413 3066 
Q 1953 3066 1609 2717 
Q 1266 2369 1153 1784 
L 800 0 
L 225 0 
L 909 3500 
L 1484 3500 
L 1375 2956 
Q 1603 3259 1920 3421 
Q 2238 3584 2597 3584 
Q 2691 3584 2781 3573 
Q 2872 3563 2963 3538 
L 2853 2969 
z
" transform="scale(0.015625)"/>
     </defs>
     <use xlink:href="#DejaVuSans-Oblique-20" transform="translate(0 0.015625)"/>
     <use xlink:href="#DejaVuSans-Oblique-20" transform="translate(31.787109 0.015625)"/>
     <use xlink:href="#DejaVuSans-Oblique-20" transform="translate(63.574219 0.015625)"/>
     <use xlink:href="#DejaVuSans-Oblique-20" transform="translate(95.361328 0.015625)"/>
     <use xlink:href="#DejaVuSans-Oblique-50" transform="translate(127.148438 0.015625)"/>
     <use xlink:href="#DejaVuSans-Oblique-61" transform="translate(187.451172 -16.390625) scale(0.7)"/>
     <use xlink:href="#DejaVuSans-Oblique-6d" transform="translate(230.34668 -16.390625) scale(0.7)"/>
     <use xlink:href="#DejaVuSans-Oblique-62" transform="translate(298.535156 -16.390625) scale(0.7)"/>
     <use xlink:href="#DejaVuSans-Oblique-20" transform="translate(345.703125 0.015625)"/>
     <use xlink:href="#DejaVuSans-Oblique-3d" transform="translate(377.490234 0.015625)"/>
     <use xlink:href="#DejaVuSans-Oblique-20" transform="translate(461.279297 0.015625)"/>
     <use xlink:href="#DejaVuSans-Oblique-20" transform="translate(493.066406 0.015625)"/>
     <use xlink:href="#DejaVuSans-Oblique-31" transform="translate(524.853516 0.015625)"/>
     <use xlink:href="#DejaVuSans-Oblique-2e" transform="translate(588.476562 0.015625)"/>
     <use xlink:href="#DejaVuSans-Oblique-30" transform="translate(620.263672 0.015625)"/>
     <use xlink:href="#DejaVuSans-Oblique-31" transform="translate(683.886719 0.015625)"/>
     <use xlink:href="#DejaVuSans-Oblique-20" transform="translate(747.509766 0.015625)"/>
     <use xlink:href="#DejaVuSans-5b" transform="translate(779.296875 0.015625)"/>
     <use xlink:href="#DejaVuSans-Oblique-62" transform="translate(818.310547 0.015625)"/>
     <use xlink:href="#DejaVuSans-Oblique-61" transform="translate(881.787109 0.015625)"/>
     <use xlink:href="#DejaVuSans-Oblique-72" transform="translate(943.066406 0.015625)"/>
     <use xlink:href="#DejaVuSans-5d" transform="translate(984.179688 0.015625)"/>
    </g>
    <!--     $T_{inf}$ =  30.00 $[°C]$ -->
    <g transform="translate(947.565312 81.531688) scale(0.14 -0.14)">
     <defs>
      <path id="DejaVuSans-Oblique-66" d="M 3059 4863 
L 2969 4384 
L 2419 4384 
Q 2106 4384 1964 4261 
Q 1822 4138 1753 3809 
L 1691 3500 
L 2638 3500 
L 2553 3053 
L 1606 3053 
L 1013 0 
L 434 0 
L 1031 3053 
L 481 3053 
L 563 3500 
L 1113 3500 
L 1159 3744 
Q 1278 4363 1576 4613 
Q 1875 4863 2516 4863 
L 3059 4863 
z
" transform="scale(0.015625)"/>
      <path id="DejaVuSans-b0" d="M 1600 4347 
Q 1350 4347 1178 4173 
Q 1006 4000 1006 3750 
Q 1006 3503 1178 3333 
Q 1350 3163 1600 3163 
Q 1850 3163 2022 3333 
Q 2194 3503 2194 3750 
Q 2194 3997 2020 4172 
Q 1847 4347 1600 4347 
z
M 1600 4750 
Q 1800 4750 1984 4673 
Q 2169 4597 2303 4453 
Q 2447 4313 2519 4134 
Q 2591 3956 2591 3750 
Q 2591 3338 2302 3052 
Q 2013 2766 1594 2766 
Q 1172 2766 890 3047 
Q 609 3328 609 3750 
Q 609 4169 896 4459 
Q 1184 4750 1600 4750 
z
" transform="scale(0.015625)"/>
      <path id="DejaVuSans-Oblique-43" d="M 4447 4306 
L 4319 3641 
Q 4019 3944 3683 4091 
Q 3347 4238 2956 4238 
Q 2422 4238 2017 3981 
Q 1613 3725 1319 3200 
Q 1131 2863 1032 2486 
Q 934 2109 934 1728 
Q 934 1091 1264 756 
Q 1594 422 2222 422 
Q 2656 422 3056 561 
Q 3456 700 3834 978 
L 3688 231 
Q 3316 72 2936 -9 
Q 2556 -91 2175 -91 
Q 1278 -91 773 396 
Q 269 884 269 1753 
Q 269 2309 461 2846 
Q 653 3384 1013 3828 
Q 1394 4300 1883 4525 
Q 2372 4750 3022 4750 
Q 3422 4750 3780 4639 
Q 4138 4528 4447 4306 
z
" transform="scale(0.015625)"/>
     </defs>
     <use xlink:href="#DejaVuSans-Oblique-20" transform="translate(0 0.015625)"/>
     <use xlink:href="#DejaVuSans-Oblique-20" transform="translate(31.787109 0.015625)"/>
     <use xlink:href="#DejaVuSans-Oblique-20" transform="translate(63.574219 0.015625)"/>
     <use xlink:href="#DejaVuSans-Oblique-20" transform="translate(95.361328 0.015625)"/>
     <use xlink:href="#DejaVuSans-Oblique-54" transform="translate(127.148438 0.015625)"/>
     <use xlink:href="#DejaVuSans-Oblique-69" transform="translate(188.232422 -16.390625) scale(0.7)"/>
     <use xlink:href="#DejaVuSans-Oblique-6e" transform="translate(207.680664 -16.390625) scale(0.7)"/>
     <use xlink:href="#DejaVuSans-Oblique-66" transform="translate(252.045898 -16.390625) scale(0.7)"/>
     <use xlink:href="#DejaVuSans-Oblique-20" transform="translate(279.423828 0.015625)"/>
     <use xlink:href="#DejaVuSans-Oblique-3d" transform="translate(311.210938 0.015625)"/>
     <use xlink:href="#DejaVuSans-Oblique-20" transform="translate(395 0.015625)"/>
     <use xlink:href="#DejaVuSans-Oblique-20" transform="translate(426.787109 0.015625)"/>
     <use xlink:href="#DejaVuSans-Oblique-33" transform="translate(458.574219 0.015625)"/>
     <use xlink:href="#DejaVuSans-Oblique-30" transform="translate(522.197266 0.015625)"/>
     <use xlink:href="#DejaVuSans-Oblique-2e" transform="translate(585.820312 0.015625)"/>
     <use xlink:href="#DejaVuSans-Oblique-30" transform="translate(617.607422 0.015625)"/>
     <use xlink:href="#DejaVuSans-Oblique-30" transform="translate(681.230469 0.015625)"/>
     <use xlink:href="#DejaVuSans-Oblique-20" transform="translate(744.853516 0.015625)"/>
     <use xlink:href="#DejaVuSans-5b" transform="translate(776.640625 0.015625)"/>
     <use xlink:href="#DejaVuSans-b0" transform="translate(815.654297 0.015625)"/>
     <use xlink:href="#DejaVuSans-Oblique-43" transform="translate(865.654297 0.015625)"/>
     <use xlink:href="#DejaVuSans-5d" transform="translate(935.478516 0.015625)"/>
    </g>
    <!--     $P_{vapour}$ =  2338.1 $[Pa]$ -->
    <g transform="translate(947.565312 97.21125) scale(0.14 -0.14)">
     <defs>
      <path id="DejaVuSans-Oblique-76" d="M 459 3500 
L 1069 3500 
L 1581 525 
L 3256 3500 
L 3866 3500 
L 1875 0 
L 1100 0 
L 459 3500 
z
" transform="scale(0.015625)"/>
      <path id="DejaVuSans-Oblique-70" d="M 3175 2156 
Q 3175 2616 2975 2859 
Q 2775 3103 2400 3103 
Q 2144 3103 1911 2972 
Q 1678 2841 1497 2591 
Q 1319 2344 1212 1994 
Q 1106 1644 1106 1300 
Q 1106 863 1306 627 
Q 1506 391 1875 391 
Q 2147 391 2380 519 
Q 2613 647 2778 891 
Q 2956 1147 3065 1494 
Q 3175 1841 3175 2156 
z
M 1394 2969 
Q 1625 3272 1939 3428 
Q 2253 3584 2638 3584 
Q 3175 3584 3472 3232 
Q 3769 2881 3769 2247 
Q 3769 1728 3584 1258 
Q 3400 788 3053 416 
Q 2822 169 2531 39 
Q 2241 -91 1919 -91 
Q 1547 -91 1294 64 
Q 1041 219 916 525 
L 556 -1331 
L -19 -1331 
L 922 3500 
L 1497 3500 
L 1394 2969 
z
" transform="scale(0.015625)"/>
      <path id="DejaVuSans-Oblique-75" d="M 428 1388 
L 838 3500 
L 1416 3500 
L 1006 1409 
Q 975 1256 961 1147 
Q 947 1038 947 966 
Q 947 700 1109 554 
Q 1272 409 1569 409 
Q 2031 409 2368 721 
Q 2706 1034 2809 1563 
L 3194 3500 
L 3769 3500 
L 3091 0 
L 2516 0 
L 2631 550 
Q 2388 244 2052 76 
Q 1716 -91 1338 -91 
Q 878 -91 622 161 
Q 366 413 366 863 
Q 366 956 381 1097 
Q 397 1238 428 1388 
z
" transform="scale(0.015625)"/>
      <path id="DejaVuSans-Oblique-32" d="M 2950 2253 
L 934 525 
L 3163 525 
L 3053 0 
L 25 0 
L 128 531 
L 2234 2338 
Q 2656 2703 2832 2979 
Q 3009 3256 3009 3547 
Q 3009 3850 2796 4040 
Q 2584 4231 2241 4231 
Q 1944 4231 1581 4125 
Q 1219 4019 806 3816 
L 922 4441 
Q 1309 4594 1662 4672 
Q 2016 4750 2316 4750 
Q 2928 4750 3301 4425 
Q 3675 4100 3675 3572 
Q 3675 3216 3497 2892 
Q 3319 2569 2950 2253 
z
" transform="scale(0.015625)"/>
     </defs>
     <use xlink:href="#DejaVuSans-Oblique-20" transform="translate(0 0.015625)"/>
     <use xlink:href="#DejaVuSans-Oblique-20" transform="translate(31.787109 0.015625)"/>
     <use xlink:href="#DejaVuSans-Oblique-20" transform="translate(63.574219 0.015625)"/>
     <use xlink:href="#DejaVuSans-Oblique-20" transform="translate(95.361328 0.015625)"/>
     <use xlink:href="#DejaVuSans-Oblique-50" transform="translate(127.148438 0.015625)"/>
     <use xlink:href="#DejaVuSans-Oblique-76" transform="translate(187.451172 -16.390625) scale(0.7)"/>
     <use xlink:href="#DejaVuSans-Oblique-61" transform="translate(228.876953 -16.390625) scale(0.7)"/>
     <use xlink:href="#DejaVuSans-Oblique-70" transform="translate(271.772461 -16.390625) scale(0.7)"/>
     <use xlink:href="#DejaVuSans-Oblique-6f" transform="translate(316.206055 -16.390625) scale(0.7)"/>
     <use xlink:href="#DejaVuSans-Oblique-75" transform="translate(359.033203 -16.390625) scale(0.7)"/>
     <use xlink:href="#DejaVuSans-Oblique-72" transform="translate(403.398438 -16.390625) scale(0.7)"/>
     <use xlink:href="#DejaVuSans-Oblique-20" transform="translate(434.912109 0.015625)"/>
     <use xlink:href="#DejaVuSans-Oblique-3d" transform="translate(466.699219 0.015625)"/>
     <use xlink:href="#DejaVuSans-Oblique-20" transform="translate(550.488281 0.015625)"/>
     <use xlink:href="#DejaVuSans-Oblique-20" transform="translate(582.275391 0.015625)"/>
     <use xlink:href="#DejaVuSans-Oblique-32" transform="translate(614.0625 0.015625)"/>
     <use xlink:href="#DejaVuSans-Oblique-33" transform="translate(677.685547 0.015625)"/>
     <use xlink:href="#DejaVuSans-Oblique-33" transform="translate(741.308594 0.015625)"/>
     <use xlink:href="#DejaVuSans-Oblique-38" transform="translate(804.931641 0.015625)"/>
     <use xlink:href="#DejaVuSans-Oblique-2e" transform="translate(868.554688 0.015625)"/>
     <use xlink:href="#DejaVuSans-Oblique-31" transform="translate(900.341797 0.015625)"/>
     <use xlink:href="#DejaVuSans-Oblique-20" transform="translate(963.964844 0.015625)"/>
     <use xlink:href="#DejaVuSans-5b" transform="translate(995.751953 0.015625)"/>
     <use xlink:href="#DejaVuSans-Oblique-50" transform="translate(1034.765625 0.015625)"/>
     <use xlink:href="#DejaVuSans-Oblique-61" transform="translate(1095.068359 0.015625)"/>
     <use xlink:href="#DejaVuSans-5d" transform="translate(1156.347656 0.015625)"/>
    </g>
    <!-- Initial content: -->
    <g transform="translate(947.565312 114.316625) scale(0.14 -0.14)">
     <defs>
      <path id="DejaVuSans-Oblique-65" d="M 3078 2063 
Q 3088 2113 3092 2166 
Q 3097 2219 3097 2272 
Q 3097 2653 2873 2875 
Q 2650 3097 2266 3097 
Q 1838 3097 1509 2826 
Q 1181 2556 1013 2059 
L 3078 2063 
z
M 3578 1613 
L 903 1613 
Q 884 1494 878 1425 
Q 872 1356 872 1306 
Q 872 872 1139 634 
Q 1406 397 1894 397 
Q 2269 397 2603 481 
Q 2938 566 3225 728 
L 3116 159 
Q 2806 34 2476 -28 
Q 2147 -91 1806 -91 
Q 1078 -91 686 257 
Q 294 606 294 1247 
Q 294 1794 489 2264 
Q 684 2734 1063 3103 
Q 1306 3334 1642 3459 
Q 1978 3584 2356 3584 
Q 2950 3584 3301 3228 
Q 3653 2872 3653 2272 
Q 3653 2128 3634 1964 
Q 3616 1800 3578 1613 
z
" transform="scale(0.015625)"/>
     </defs>
     <use xlink:href="#DejaVuSans-Oblique-49"/>
     <use xlink:href="#DejaVuSans-Oblique-6e" x="29.492188"/>
     <use xlink:href="#DejaVuSans-Oblique-69" x="92.871094"/>
     <use xlink:href="#DejaVuSans-Oblique-74" x="120.654297"/>
     <use xlink:href="#DejaVuSans-Oblique-69" x="159.863281"/>
     <use xlink:href="#DejaVuSans-Oblique-61" x="187.646484"/>
     <use xlink:href="#DejaVuSans-Oblique-6c" x="248.925781"/>
     <use xlink:href="#DejaVuSans-Oblique-20" x="276.708984"/>
     <use xlink:href="#DejaVuSans-Oblique-63" x="308.496094"/>
     <use xlink:href="#DejaVuSans-Oblique-6f" x="363.476562"/>
     <use xlink:href="#DejaVuSans-Oblique-6e" x="424.658203"/>
     <use xlink:href="#DejaVuSans-Oblique-74" x="488.037109"/>
     <use xlink:href="#DejaVuSans-Oblique-65" x="527.246094"/>
     <use xlink:href="#DejaVuSans-Oblique-6e" x="588.769531"/>
     <use xlink:href="#DejaVuSans-Oblique-74" x="652.148438"/>
     <use xlink:href="#DejaVuSans-Oblique-3a" x="691.357422"/>
    </g>
    <!--     25% N2, 75% H2 -->
    <g transform="translate(947.565312 129.993563) scale(0.14 -0.14)">
     <defs>
      <path id="DejaVuSans-Oblique-35" d="M 3719 4666 
L 3622 4141 
L 1691 4141 
L 1466 2988 
Q 1609 3034 1757 3056 
Q 1906 3078 2059 3078 
Q 2706 3078 3081 2731 
Q 3456 2384 3456 1791 
Q 3456 1375 3264 994 
Q 3072 613 2719 325 
Q 2469 125 2108 17 
Q 1747 -91 1319 -91 
Q 1038 -91 744 -41 
Q 450 9 128 109 
L 244 697 
Q 531 556 820 486 
Q 1109 416 1403 416 
Q 2013 416 2411 781 
Q 2809 1147 2809 1697 
Q 2809 2103 2548 2328 
Q 2288 2553 1819 2553 
Q 1572 2553 1305 2495 
Q 1038 2438 756 2322 
L 1209 4666 
L 3719 4666 
z
" transform="scale(0.015625)"/>
      <path id="DejaVuSans-Oblique-25" d="M 1503 2209 
Q 1078 2209 829 2486 
Q 581 2763 581 3238 
Q 581 3913 943 4331 
Q 1306 4750 1888 4750 
Q 2313 4750 2561 4470 
Q 2809 4191 2809 3713 
Q 2809 3044 2446 2626 
Q 2084 2209 1503 2209 
z
M 2309 3694 
Q 2309 4022 2187 4187 
Q 2066 4353 1825 4353 
Q 1475 4353 1278 4050 
Q 1081 3747 1081 3206 
Q 1081 2919 1207 2762 
Q 1334 2606 1569 2606 
Q 1903 2606 2106 2903 
Q 2309 3200 2309 3694 
z
M 4997 1394 
Q 4997 1728 4878 1893 
Q 4759 2059 4519 2059 
Q 4172 2059 3973 1754 
Q 3775 1450 3775 909 
Q 3775 619 3901 462 
Q 4028 306 4263 306 
Q 4597 306 4797 603 
Q 4997 900 4997 1394 
z
M 4197 -91 
Q 3772 -91 3525 187 
Q 3278 466 3278 941 
Q 3278 1616 3639 2033 
Q 4000 2450 4581 2450 
Q 5006 2450 5251 2175 
Q 5497 1900 5497 1422 
Q 5497 750 5136 329 
Q 4775 -91 4197 -91 
z
M 5259 4750 
L 1403 -91 
L 903 -91 
L 4763 4750 
L 5259 4750 
z
" transform="scale(0.015625)"/>
      <path id="DejaVuSans-Oblique-4e" d="M 1081 4666 
L 1931 4666 
L 3219 666 
L 4000 4666 
L 4616 4666 
L 3706 0 
L 2853 0 
L 1569 4025 
L 788 0 
L 172 0 
L 1081 4666 
z
" transform="scale(0.015625)"/>
      <path id="DejaVuSans-Oblique-2c" d="M 575 794 
L 1234 794 
L 1131 256 
L 422 -744 
L 19 -744 
L 469 256 
L 575 794 
z
" transform="scale(0.015625)"/>
      <path id="DejaVuSans-Oblique-37" d="M 819 4666 
L 4013 4666 
L 3956 4397 
L 1288 0 
L 594 0 
L 3116 4134 
L 716 4134 
L 819 4666 
z
" transform="scale(0.015625)"/>
      <path id="DejaVuSans-Oblique-48" d="M 1081 4666 
L 1716 4666 
L 1344 2753 
L 3634 2753 
L 4006 4666 
L 4641 4666 
L 3731 0 
L 3097 0 
L 3531 2222 
L 1241 2222 
L 806 0 
L 172 0 
L 1081 4666 
z
" transform="scale(0.015625)"/>
     </defs>
     <use xlink:href="#DejaVuSans-Oblique-20"/>
     <use xlink:href="#DejaVuSans-Oblique-20" x="31.787109"/>
     <use xlink:href="#DejaVuSans-Oblique-20" x="63.574219"/>
     <use xlink:href="#DejaVuSans-Oblique-20" x="95.361328"/>
     <use xlink:href="#DejaVuSans-Oblique-32" x="127.148438"/>
     <use xlink:href="#DejaVuSans-Oblique-35" x="190.771484"/>
     <use xlink:href="#DejaVuSans-Oblique-25" x="254.394531"/>
     <use xlink:href="#DejaVuSans-Oblique-20" x="349.414062"/>
     <use xlink:href="#DejaVuSans-Oblique-4e" x="381.201172"/>
     <use xlink:href="#DejaVuSans-Oblique-32" x="456.005859"/>
     <use xlink:href="#DejaVuSans-Oblique-2c" x="519.628906"/>
     <use xlink:href="#DejaVuSans-Oblique-20" x="551.416016"/>
     <use xlink:href="#DejaVuSans-Oblique-37" x="583.203125"/>
     <use xlink:href="#DejaVuSans-Oblique-35" x="646.826172"/>
     <use xlink:href="#DejaVuSans-Oblique-25" x="710.449219"/>
     <use xlink:href="#DejaVuSans-Oblique-20" x="805.46875"/>
     <use xlink:href="#DejaVuSans-Oblique-48" x="837.255859"/>
     <use xlink:href="#DejaVuSans-Oblique-32" x="912.451172"/>
    </g>
    <!-- Excitation = sin_impulse_logf: -->
    <g transform="translate(947.565312 145.6705) scale(0.14 -0.14)">
     <defs>
      <path id="DejaVuSans-Oblique-78" d="M 3841 3500 
L 2234 1784 
L 3219 0 
L 2559 0 
L 1819 1388 
L 531 0 
L -166 0 
L 1556 1844 
L 641 3500 
L 1300 3500 
L 1972 2234 
L 3144 3500 
L 3841 3500 
z
" transform="scale(0.015625)"/>
      <path id="DejaVuSans-Oblique-5f" d="M 3263 -1063 
L 3263 -1509 
L -63 -1509 
L -63 -1063 
L 3263 -1063 
z
" transform="scale(0.015625)"/>
      <path id="DejaVuSans-Oblique-67" d="M 3816 3500 
L 3219 434 
Q 3047 -456 2561 -893 
Q 2075 -1331 1253 -1331 
Q 950 -1331 690 -1286 
Q 431 -1241 206 -1147 
L 313 -588 
Q 525 -725 762 -790 
Q 1000 -856 1269 -856 
Q 1816 -856 2167 -557 
Q 2519 -259 2631 300 
L 2681 563 
Q 2441 288 2122 144 
Q 1803 0 1434 0 
Q 903 0 598 351 
Q 294 703 294 1319 
Q 294 1803 478 2267 
Q 663 2731 997 3091 
Q 1219 3328 1514 3456 
Q 1809 3584 2131 3584 
Q 2484 3584 2746 3420 
Q 3009 3256 3138 2956 
L 3238 3500 
L 3816 3500 
z
M 2950 2216 
Q 2950 2641 2750 2872 
Q 2550 3103 2181 3103 
Q 1953 3103 1747 3012 
Q 1541 2922 1394 2759 
Q 1156 2491 1023 2127 
Q 891 1763 891 1375 
Q 891 944 1092 712 
Q 1294 481 1672 481 
Q 2219 481 2584 976 
Q 2950 1472 2950 2216 
z
" transform="scale(0.015625)"/>
     </defs>
     <use xlink:href="#DejaVuSans-Oblique-45"/>
     <use xlink:href="#DejaVuSans-Oblique-78" x="63.183594"/>
     <use xlink:href="#DejaVuSans-Oblique-63" x="122.363281"/>
     <use xlink:href="#DejaVuSans-Oblique-69" x="177.34375"/>
     <use xlink:href="#DejaVuSans-Oblique-74" x="205.126953"/>
     <use xlink:href="#DejaVuSans-Oblique-61" x="244.335938"/>
     <use xlink:href="#DejaVuSans-Oblique-74" x="305.615234"/>
     <use xlink:href="#DejaVuSans-Oblique-69" x="344.824219"/>
     <use xlink:href="#DejaVuSans-Oblique-6f" x="372.607422"/>
     <use xlink:href="#DejaVuSans-Oblique-6e" x="433.789062"/>
     <use xlink:href="#DejaVuSans-Oblique-20" x="497.167969"/>
     <use xlink:href="#DejaVuSans-Oblique-3d" x="528.955078"/>
     <use xlink:href="#DejaVuSans-Oblique-20" x="612.744141"/>
     <use xlink:href="#DejaVuSans-Oblique-73" x="644.53125"/>
     <use xlink:href="#DejaVuSans-Oblique-69" x="696.630859"/>
     <use xlink:href="#DejaVuSans-Oblique-6e" x="724.414062"/>
     <use xlink:href="#DejaVuSans-Oblique-5f" x="787.792969"/>
     <use xlink:href="#DejaVuSans-Oblique-69" x="837.792969"/>
     <use xlink:href="#DejaVuSans-Oblique-6d" x="865.576172"/>
     <use xlink:href="#DejaVuSans-Oblique-70" x="962.988281"/>
     <use xlink:href="#DejaVuSans-Oblique-75" x="1026.464844"/>
     <use xlink:href="#DejaVuSans-Oblique-6c" x="1089.84375"/>
     <use xlink:href="#DejaVuSans-Oblique-73" x="1117.626953"/>
     <use xlink:href="#DejaVuSans-Oblique-65" x="1169.726562"/>
     <use xlink:href="#DejaVuSans-Oblique-5f" x="1231.25"/>
     <use xlink:href="#DejaVuSans-Oblique-6c" x="1281.25"/>
     <use xlink:href="#DejaVuSans-Oblique-6f" x="1309.033203"/>
     <use xlink:href="#DejaVuSans-Oblique-67" x="1370.214844"/>
     <use xlink:href="#DejaVuSans-Oblique-66" x="1433.691406"/>
     <use xlink:href="#DejaVuSans-Oblique-3a" x="1468.896484"/>
    </g>
    <!--     p_A = -180509.34 [Pa] -->
    <g transform="translate(947.565312 161.736813) scale(0.14 -0.14)">
     <defs>
      <path id="DejaVuSans-Oblique-41" d="M 2356 4666 
L 3072 4666 
L 3938 0 
L 3278 0 
L 3084 1197 
L 984 1197 
L 325 0 
L -341 0 
L 2356 4666 
z
M 2584 4044 
L 1275 1722 
L 2988 1722 
L 2584 4044 
z
" transform="scale(0.015625)"/>
      <path id="DejaVuSans-Oblique-2d" d="M 391 2009 
L 2075 2009 
L 1978 1497 
L 288 1497 
L 391 2009 
z
" transform="scale(0.015625)"/>
      <path id="DejaVuSans-Oblique-34" d="M 2753 4666 
L 3547 4666 
L 2950 1625 
L 3616 1625 
L 3513 1100 
L 2847 1100 
L 2638 0 
L 2009 0 
L 2222 1100 
L 116 1100 
L 238 1709 
L 2753 4666 
z
M 2809 4116 
L 728 1625 
L 2322 1625 
L 2809 4116 
z
" transform="scale(0.015625)"/>
      <path id="DejaVuSans-Oblique-5b" d="M 1363 4863 
L 2688 4863 
L 2597 4416 
L 1850 4416 
L 916 -397 
L 1663 -397 
L 1581 -844 
L 256 -844 
L 1363 4863 
z
" transform="scale(0.015625)"/>
      <path id="DejaVuSans-Oblique-5d" d="M 2188 4863 
L 1081 -844 
L -244 -844 
L -159 -397 
L 588 -397 
L 1522 4416 
L 781 4416 
L 863 4863 
L 2188 4863 
z
" transform="scale(0.015625)"/>
     </defs>
     <use xlink:href="#DejaVuSans-Oblique-20"/>
     <use xlink:href="#DejaVuSans-Oblique-20" x="31.787109"/>
     <use xlink:href="#DejaVuSans-Oblique-20" x="63.574219"/>
     <use xlink:href="#DejaVuSans-Oblique-20" x="95.361328"/>
     <use xlink:href="#DejaVuSans-Oblique-70" x="127.148438"/>
     <use xlink:href="#DejaVuSans-Oblique-5f" x="190.625"/>
     <use xlink:href="#DejaVuSans-Oblique-41" x="240.625"/>
     <use xlink:href="#DejaVuSans-Oblique-20" x="309.033203"/>
     <use xlink:href="#DejaVuSans-Oblique-3d" x="340.820312"/>
     <use xlink:href="#DejaVuSans-Oblique-20" x="424.609375"/>
     <use xlink:href="#DejaVuSans-Oblique-2d" x="456.396484"/>
     <use xlink:href="#DejaVuSans-Oblique-31" x="492.480469"/>
     <use xlink:href="#DejaVuSans-Oblique-38" x="556.103516"/>
     <use xlink:href="#DejaVuSans-Oblique-30" x="619.726562"/>
     <use xlink:href="#DejaVuSans-Oblique-35" x="683.349609"/>
     <use xlink:href="#DejaVuSans-Oblique-30" x="746.972656"/>
     <use xlink:href="#DejaVuSans-Oblique-39" x="810.595703"/>
     <use xlink:href="#DejaVuSans-Oblique-2e" x="874.21875"/>
     <use xlink:href="#DejaVuSans-Oblique-33" x="906.005859"/>
     <use xlink:href="#DejaVuSans-Oblique-34" x="969.628906"/>
     <use xlink:href="#DejaVuSans-Oblique-20" x="1033.251953"/>
     <use xlink:href="#DejaVuSans-Oblique-5b" x="1065.039062"/>
     <use xlink:href="#DejaVuSans-Oblique-50" x="1104.052734"/>
     <use xlink:href="#DejaVuSans-Oblique-61" x="1164.355469"/>
     <use xlink:href="#DejaVuSans-Oblique-5d" x="1225.634766"/>
    </g>
    <!--     logf =  4.04 [-] -->
    <g transform="translate(947.565312 177.803125) scale(0.14 -0.14)">
     <use xlink:href="#DejaVuSans-Oblique-20"/>
     <use xlink:href="#DejaVuSans-Oblique-20" x="31.787109"/>
     <use xlink:href="#DejaVuSans-Oblique-20" x="63.574219"/>
     <use xlink:href="#DejaVuSans-Oblique-20" x="95.361328"/>
     <use xlink:href="#DejaVuSans-Oblique-6c" x="127.148438"/>
     <use xlink:href="#DejaVuSans-Oblique-6f" x="154.931641"/>
     <use xlink:href="#DejaVuSans-Oblique-67" x="216.113281"/>
     <use xlink:href="#DejaVuSans-Oblique-66" x="279.589844"/>
     <use xlink:href="#DejaVuSans-Oblique-20" x="314.794922"/>
     <use xlink:href="#DejaVuSans-Oblique-3d" x="346.582031"/>
     <use xlink:href="#DejaVuSans-Oblique-20" x="430.371094"/>
     <use xlink:href="#DejaVuSans-Oblique-20" x="462.158203"/>
     <use xlink:href="#DejaVuSans-Oblique-34" x="493.945312"/>
     <use xlink:href="#DejaVuSans-Oblique-2e" x="557.568359"/>
     <use xlink:href="#DejaVuSans-Oblique-30" x="589.355469"/>
     <use xlink:href="#DejaVuSans-Oblique-34" x="652.978516"/>
     <use xlink:href="#DejaVuSans-Oblique-20" x="716.601562"/>
     <use xlink:href="#DejaVuSans-Oblique-5b" x="748.388672"/>
     <use xlink:href="#DejaVuSans-Oblique-2d" x="787.402344"/>
     <use xlink:href="#DejaVuSans-Oblique-5d" x="823.486328"/>
    </g>
    <!--     n =  1.00 [-] -->
    <g transform="translate(947.565312 193.480063) scale(0.14 -0.14)">
     <use xlink:href="#DejaVuSans-Oblique-20"/>
     <use xlink:href="#DejaVuSans-Oblique-20" x="31.787109"/>
     <use xlink:href="#DejaVuSans-Oblique-20" x="63.574219"/>
     <use xlink:href="#DejaVuSans-Oblique-20" x="95.361328"/>
     <use xlink:href="#DejaVuSans-Oblique-6e" x="127.148438"/>
     <use xlink:href="#DejaVuSans-Oblique-20" x="190.527344"/>
     <use xlink:href="#DejaVuSans-Oblique-3d" x="222.314453"/>
     <use xlink:href="#DejaVuSans-Oblique-20" x="306.103516"/>
     <use xlink:href="#DejaVuSans-Oblique-20" x="337.890625"/>
     <use xlink:href="#DejaVuSans-Oblique-31" x="369.677734"/>
     <use xlink:href="#DejaVuSans-Oblique-2e" x="433.300781"/>
     <use xlink:href="#DejaVuSans-Oblique-30" x="465.087891"/>
     <use xlink:href="#DejaVuSans-Oblique-30" x="528.710938"/>
     <use xlink:href="#DejaVuSans-Oblique-20" x="592.333984"/>
     <use xlink:href="#DejaVuSans-Oblique-5b" x="624.121094"/>
     <use xlink:href="#DejaVuSans-Oblique-2d" x="663.134766"/>
     <use xlink:href="#DejaVuSans-Oblique-5d" x="699.21875"/>
    </g>
   </g>
  </g>
 </g>
 <defs>
  <clipPath id="p6480b2db68">
   <rect x="64.24625" y="7.2" width="1116" height="332.64"/>
  </clipPath>
 </defs>
</svg>
