<?xml version="1.0" encoding="utf-8" standalone="no"?>
<!DOCTYPE svg PUBLIC "-//W3C//DTD SVG 1.1//EN"
  "http://www.w3.org/Graphics/SVG/1.1/DTD/svg11.dtd">
<svg xmlns:xlink="http://www.w3.org/1999/xlink" width="1261.676875pt" height="392.88125pt" viewBox="0 0 1261.676875 392.88125" xmlns="http://www.w3.org/2000/svg" version="1.1">
 <metadata>
  <rdf:RDF xmlns:dc="http://purl.org/dc/elements/1.1/" xmlns:cc="http://creativecommons.org/ns#" xmlns:rdf="http://www.w3.org/1999/02/22-rdf-syntax-ns#">
   <cc:Work>
    <dc:type rdf:resource="http://purl.org/dc/dcmitype/StillImage"/>
    <dc:date>2023-12-03T13:03:13.657223</dc:date>
    <dc:format>image/svg+xml</dc:format>
    <dc:creator>
     <cc:Agent>
      <dc:title>Matplotlib v3.7.0, https://matplotlib.org/</dc:title>
     </cc:Agent>
    </dc:creator>
   </cc:Work>
  </rdf:RDF>
 </metadata>
 <defs>
  <style type="text/css">*{stroke-linejoin: round; stroke-linecap: butt}</style>
 </defs>
 <g id="figure_1">
  <g id="patch_1">
   <path d="M -0 392.88125 
L 1261.676875 392.88125 
L 1261.676875 0 
L -0 0 
z
" style="fill: #ffffff"/>
  </g>
  <g id="axes_1">
   <g id="patch_2">
    <path d="M 64.24625 339.84 
L 1180.24625 339.84 
L 1180.24625 7.2 
L 64.24625 7.2 
z
" style="fill: #ffffff"/>
   </g>
   <g id="matplotlib.axis_1">
    <g id="xtick_1">
     <g id="line2d_1">
      <path d="M 114.973523 339.84 
L 114.973523 7.2 
" clip-path="url(#p3b7c737e12)" style="fill: none; stroke: #b0b0b0; stroke-width: 0.8; stroke-linecap: square"/>
     </g>
     <g id="line2d_2">
      <defs>
       <path id="m99795df95c" d="M 0 0 
L 0 3.5 
" style="stroke: #000000; stroke-width: 0.8"/>
      </defs>
      <g>
       <use xlink:href="#m99795df95c" x="114.973523" y="339.84" style="stroke: #000000; stroke-width: 0.8"/>
      </g>
     </g>
     <g id="text_1">
      <!-- 0.0 -->
      <g transform="translate(100.66071 360.517187) scale(0.18 -0.18)">
       <defs>
        <path id="DejaVuSans-30" d="M 2034 4250 
Q 1547 4250 1301 3770 
Q 1056 3291 1056 2328 
Q 1056 1369 1301 889 
Q 1547 409 2034 409 
Q 2525 409 2770 889 
Q 3016 1369 3016 2328 
Q 3016 3291 2770 3770 
Q 2525 4250 2034 4250 
z
M 2034 4750 
Q 2819 4750 3233 4129 
Q 3647 3509 3647 2328 
Q 3647 1150 3233 529 
Q 2819 -91 2034 -91 
Q 1250 -91 836 529 
Q 422 1150 422 2328 
Q 422 3509 836 4129 
Q 1250 4750 2034 4750 
z
" transform="scale(0.015625)"/>
        <path id="DejaVuSans-2e" d="M 684 794 
L 1344 794 
L 1344 0 
L 684 0 
L 684 794 
z
" transform="scale(0.015625)"/>
       </defs>
       <use xlink:href="#DejaVuSans-30"/>
       <use xlink:href="#DejaVuSans-2e" x="63.623047"/>
       <use xlink:href="#DejaVuSans-30" x="95.410156"/>
      </g>
     </g>
    </g>
    <g id="xtick_2">
     <g id="line2d_3">
      <path d="M 267.964757 339.84 
L 267.964757 7.2 
" clip-path="url(#p3b7c737e12)" style="fill: none; stroke: #b0b0b0; stroke-width: 0.8; stroke-linecap: square"/>
     </g>
     <g id="line2d_4">
      <g>
       <use xlink:href="#m99795df95c" x="267.964757" y="339.84" style="stroke: #000000; stroke-width: 0.8"/>
      </g>
     </g>
     <g id="text_2">
      <!-- 0.2 -->
      <g transform="translate(253.651945 360.517187) scale(0.18 -0.18)">
       <defs>
        <path id="DejaVuSans-32" d="M 1228 531 
L 3431 531 
L 3431 0 
L 469 0 
L 469 531 
Q 828 903 1448 1529 
Q 2069 2156 2228 2338 
Q 2531 2678 2651 2914 
Q 2772 3150 2772 3378 
Q 2772 3750 2511 3984 
Q 2250 4219 1831 4219 
Q 1534 4219 1204 4116 
Q 875 4013 500 3803 
L 500 4441 
Q 881 4594 1212 4672 
Q 1544 4750 1819 4750 
Q 2544 4750 2975 4387 
Q 3406 4025 3406 3419 
Q 3406 3131 3298 2873 
Q 3191 2616 2906 2266 
Q 2828 2175 2409 1742 
Q 1991 1309 1228 531 
z
" transform="scale(0.015625)"/>
       </defs>
       <use xlink:href="#DejaVuSans-30"/>
       <use xlink:href="#DejaVuSans-2e" x="63.623047"/>
       <use xlink:href="#DejaVuSans-32" x="95.410156"/>
      </g>
     </g>
    </g>
    <g id="xtick_3">
     <g id="line2d_5">
      <path d="M 420.955992 339.84 
L 420.955992 7.2 
" clip-path="url(#p3b7c737e12)" style="fill: none; stroke: #b0b0b0; stroke-width: 0.8; stroke-linecap: square"/>
     </g>
     <g id="line2d_6">
      <g>
       <use xlink:href="#m99795df95c" x="420.955992" y="339.84" style="stroke: #000000; stroke-width: 0.8"/>
      </g>
     </g>
     <g id="text_3">
      <!-- 0.4 -->
      <g transform="translate(406.64318 360.517187) scale(0.18 -0.18)">
       <defs>
        <path id="DejaVuSans-34" d="M 2419 4116 
L 825 1625 
L 2419 1625 
L 2419 4116 
z
M 2253 4666 
L 3047 4666 
L 3047 1625 
L 3713 1625 
L 3713 1100 
L 3047 1100 
L 3047 0 
L 2419 0 
L 2419 1100 
L 313 1100 
L 313 1709 
L 2253 4666 
z
" transform="scale(0.015625)"/>
       </defs>
       <use xlink:href="#DejaVuSans-30"/>
       <use xlink:href="#DejaVuSans-2e" x="63.623047"/>
       <use xlink:href="#DejaVuSans-34" x="95.410156"/>
      </g>
     </g>
    </g>
    <g id="xtick_4">
     <g id="line2d_7">
      <path d="M 573.947227 339.84 
L 573.947227 7.2 
" clip-path="url(#p3b7c737e12)" style="fill: none; stroke: #b0b0b0; stroke-width: 0.8; stroke-linecap: square"/>
     </g>
     <g id="line2d_8">
      <g>
       <use xlink:href="#m99795df95c" x="573.947227" y="339.84" style="stroke: #000000; stroke-width: 0.8"/>
      </g>
     </g>
     <g id="text_4">
      <!-- 0.6 -->
      <g transform="translate(559.634414 360.517187) scale(0.18 -0.18)">
       <defs>
        <path id="DejaVuSans-36" d="M 2113 2584 
Q 1688 2584 1439 2293 
Q 1191 2003 1191 1497 
Q 1191 994 1439 701 
Q 1688 409 2113 409 
Q 2538 409 2786 701 
Q 3034 994 3034 1497 
Q 3034 2003 2786 2293 
Q 2538 2584 2113 2584 
z
M 3366 4563 
L 3366 3988 
Q 3128 4100 2886 4159 
Q 2644 4219 2406 4219 
Q 1781 4219 1451 3797 
Q 1122 3375 1075 2522 
Q 1259 2794 1537 2939 
Q 1816 3084 2150 3084 
Q 2853 3084 3261 2657 
Q 3669 2231 3669 1497 
Q 3669 778 3244 343 
Q 2819 -91 2113 -91 
Q 1303 -91 875 529 
Q 447 1150 447 2328 
Q 447 3434 972 4092 
Q 1497 4750 2381 4750 
Q 2619 4750 2861 4703 
Q 3103 4656 3366 4563 
z
" transform="scale(0.015625)"/>
       </defs>
       <use xlink:href="#DejaVuSans-30"/>
       <use xlink:href="#DejaVuSans-2e" x="63.623047"/>
       <use xlink:href="#DejaVuSans-36" x="95.410156"/>
      </g>
     </g>
    </g>
    <g id="xtick_5">
     <g id="line2d_9">
      <path d="M 726.938462 339.84 
L 726.938462 7.2 
" clip-path="url(#p3b7c737e12)" style="fill: none; stroke: #b0b0b0; stroke-width: 0.8; stroke-linecap: square"/>
     </g>
     <g id="line2d_10">
      <g>
       <use xlink:href="#m99795df95c" x="726.938462" y="339.84" style="stroke: #000000; stroke-width: 0.8"/>
      </g>
     </g>
     <g id="text_5">
      <!-- 0.8 -->
      <g transform="translate(712.625649 360.517187) scale(0.18 -0.18)">
       <defs>
        <path id="DejaVuSans-38" d="M 2034 2216 
Q 1584 2216 1326 1975 
Q 1069 1734 1069 1313 
Q 1069 891 1326 650 
Q 1584 409 2034 409 
Q 2484 409 2743 651 
Q 3003 894 3003 1313 
Q 3003 1734 2745 1975 
Q 2488 2216 2034 2216 
z
M 1403 2484 
Q 997 2584 770 2862 
Q 544 3141 544 3541 
Q 544 4100 942 4425 
Q 1341 4750 2034 4750 
Q 2731 4750 3128 4425 
Q 3525 4100 3525 3541 
Q 3525 3141 3298 2862 
Q 3072 2584 2669 2484 
Q 3125 2378 3379 2068 
Q 3634 1759 3634 1313 
Q 3634 634 3220 271 
Q 2806 -91 2034 -91 
Q 1263 -91 848 271 
Q 434 634 434 1313 
Q 434 1759 690 2068 
Q 947 2378 1403 2484 
z
M 1172 3481 
Q 1172 3119 1398 2916 
Q 1625 2713 2034 2713 
Q 2441 2713 2670 2916 
Q 2900 3119 2900 3481 
Q 2900 3844 2670 4047 
Q 2441 4250 2034 4250 
Q 1625 4250 1398 4047 
Q 1172 3844 1172 3481 
z
" transform="scale(0.015625)"/>
       </defs>
       <use xlink:href="#DejaVuSans-30"/>
       <use xlink:href="#DejaVuSans-2e" x="63.623047"/>
       <use xlink:href="#DejaVuSans-38" x="95.410156"/>
      </g>
     </g>
    </g>
    <g id="xtick_6">
     <g id="line2d_11">
      <path d="M 879.929696 339.84 
L 879.929696 7.2 
" clip-path="url(#p3b7c737e12)" style="fill: none; stroke: #b0b0b0; stroke-width: 0.8; stroke-linecap: square"/>
     </g>
     <g id="line2d_12">
      <g>
       <use xlink:href="#m99795df95c" x="879.929696" y="339.84" style="stroke: #000000; stroke-width: 0.8"/>
      </g>
     </g>
     <g id="text_6">
      <!-- 1.0 -->
      <g transform="translate(865.616884 360.517187) scale(0.18 -0.18)">
       <defs>
        <path id="DejaVuSans-31" d="M 794 531 
L 1825 531 
L 1825 4091 
L 703 3866 
L 703 4441 
L 1819 4666 
L 2450 4666 
L 2450 531 
L 3481 531 
L 3481 0 
L 794 0 
L 794 531 
z
" transform="scale(0.015625)"/>
       </defs>
       <use xlink:href="#DejaVuSans-31"/>
       <use xlink:href="#DejaVuSans-2e" x="63.623047"/>
       <use xlink:href="#DejaVuSans-30" x="95.410156"/>
      </g>
     </g>
    </g>
    <g id="xtick_7">
     <g id="line2d_13">
      <path d="M 1032.920931 339.84 
L 1032.920931 7.2 
" clip-path="url(#p3b7c737e12)" style="fill: none; stroke: #b0b0b0; stroke-width: 0.8; stroke-linecap: square"/>
     </g>
     <g id="line2d_14">
      <g>
       <use xlink:href="#m99795df95c" x="1032.920931" y="339.84" style="stroke: #000000; stroke-width: 0.8"/>
      </g>
     </g>
     <g id="text_7">
      <!-- 1.2 -->
      <g transform="translate(1018.608118 360.517187) scale(0.18 -0.18)">
       <use xlink:href="#DejaVuSans-31"/>
       <use xlink:href="#DejaVuSans-2e" x="63.623047"/>
       <use xlink:href="#DejaVuSans-32" x="95.410156"/>
      </g>
     </g>
    </g>
    <g id="text_8">
     <!-- $t$ [ms] -->
     <g transform="translate(595.33625 381.937812) scale(0.18 -0.18)">
      <defs>
       <path id="DejaVuSans-Oblique-74" d="M 2706 3500 
L 2619 3053 
L 1472 3053 
L 1100 1153 
Q 1081 1047 1072 975 
Q 1063 903 1063 863 
Q 1063 663 1183 572 
Q 1303 481 1569 481 
L 2150 481 
L 2053 0 
L 1503 0 
Q 991 0 739 200 
Q 488 400 488 806 
Q 488 878 497 964 
Q 506 1050 525 1153 
L 897 3053 
L 409 3053 
L 500 3500 
L 978 3500 
L 1172 4494 
L 1747 4494 
L 1556 3500 
L 2706 3500 
z
" transform="scale(0.015625)"/>
       <path id="DejaVuSans-20" transform="scale(0.015625)"/>
       <path id="DejaVuSans-5b" d="M 550 4863 
L 1875 4863 
L 1875 4416 
L 1125 4416 
L 1125 -397 
L 1875 -397 
L 1875 -844 
L 550 -844 
L 550 4863 
z
" transform="scale(0.015625)"/>
       <path id="DejaVuSans-6d" d="M 3328 2828 
Q 3544 3216 3844 3400 
Q 4144 3584 4550 3584 
Q 5097 3584 5394 3201 
Q 5691 2819 5691 2113 
L 5691 0 
L 5113 0 
L 5113 2094 
Q 5113 2597 4934 2840 
Q 4756 3084 4391 3084 
Q 3944 3084 3684 2787 
Q 3425 2491 3425 1978 
L 3425 0 
L 2847 0 
L 2847 2094 
Q 2847 2600 2669 2842 
Q 2491 3084 2119 3084 
Q 1678 3084 1418 2786 
Q 1159 2488 1159 1978 
L 1159 0 
L 581 0 
L 581 3500 
L 1159 3500 
L 1159 2956 
Q 1356 3278 1631 3431 
Q 1906 3584 2284 3584 
Q 2666 3584 2933 3390 
Q 3200 3197 3328 2828 
z
" transform="scale(0.015625)"/>
       <path id="DejaVuSans-73" d="M 2834 3397 
L 2834 2853 
Q 2591 2978 2328 3040 
Q 2066 3103 1784 3103 
Q 1356 3103 1142 2972 
Q 928 2841 928 2578 
Q 928 2378 1081 2264 
Q 1234 2150 1697 2047 
L 1894 2003 
Q 2506 1872 2764 1633 
Q 3022 1394 3022 966 
Q 3022 478 2636 193 
Q 2250 -91 1575 -91 
Q 1294 -91 989 -36 
Q 684 19 347 128 
L 347 722 
Q 666 556 975 473 
Q 1284 391 1588 391 
Q 1994 391 2212 530 
Q 2431 669 2431 922 
Q 2431 1156 2273 1281 
Q 2116 1406 1581 1522 
L 1381 1569 
Q 847 1681 609 1914 
Q 372 2147 372 2553 
Q 372 3047 722 3315 
Q 1072 3584 1716 3584 
Q 2034 3584 2315 3537 
Q 2597 3491 2834 3397 
z
" transform="scale(0.015625)"/>
       <path id="DejaVuSans-5d" d="M 1947 4863 
L 1947 -844 
L 622 -844 
L 622 -397 
L 1369 -397 
L 1369 4416 
L 622 4416 
L 622 4863 
L 1947 4863 
z
" transform="scale(0.015625)"/>
      </defs>
      <use xlink:href="#DejaVuSans-Oblique-74" transform="translate(0 0.015625)"/>
      <use xlink:href="#DejaVuSans-20" transform="translate(39.208984 0.015625)"/>
      <use xlink:href="#DejaVuSans-5b" transform="translate(70.996094 0.015625)"/>
      <use xlink:href="#DejaVuSans-6d" transform="translate(110.009766 0.015625)"/>
      <use xlink:href="#DejaVuSans-73" transform="translate(207.421875 0.015625)"/>
      <use xlink:href="#DejaVuSans-5d" transform="translate(259.521484 0.015625)"/>
     </g>
    </g>
   </g>
   <g id="matplotlib.axis_2">
    <g id="ytick_1">
     <g id="line2d_15">
      <path d="M 64.24625 335.295573 
L 1180.24625 335.295573 
" clip-path="url(#p3b7c737e12)" style="fill: none; stroke: #b0b0b0; stroke-width: 0.8; stroke-linecap: square"/>
     </g>
     <g id="line2d_16">
      <defs>
       <path id="mcc5cbf655d" d="M 0 0 
L -3.5 0 
" style="stroke: #000000; stroke-width: 0.8"/>
      </defs>
      <g>
       <use xlink:href="#mcc5cbf655d" x="64.24625" y="335.295573" style="stroke: #000000; stroke-width: 0.8"/>
      </g>
     </g>
     <g id="text_9">
      <!-- 0.0 -->
      <g transform="translate(28.620625 342.134167) scale(0.18 -0.18)">
       <use xlink:href="#DejaVuSans-30"/>
       <use xlink:href="#DejaVuSans-2e" x="63.623047"/>
       <use xlink:href="#DejaVuSans-30" x="95.410156"/>
      </g>
     </g>
    </g>
    <g id="ytick_2">
     <g id="line2d_17">
      <path d="M 64.24625 290.698113 
L 1180.24625 290.698113 
" clip-path="url(#p3b7c737e12)" style="fill: none; stroke: #b0b0b0; stroke-width: 0.8; stroke-linecap: square"/>
     </g>
     <g id="line2d_18">
      <g>
       <use xlink:href="#mcc5cbf655d" x="64.24625" y="290.698113" style="stroke: #000000; stroke-width: 0.8"/>
      </g>
     </g>
     <g id="text_10">
      <!-- 0.5 -->
      <g transform="translate(28.620625 297.536707) scale(0.18 -0.18)">
       <defs>
        <path id="DejaVuSans-35" d="M 691 4666 
L 3169 4666 
L 3169 4134 
L 1269 4134 
L 1269 2991 
Q 1406 3038 1543 3061 
Q 1681 3084 1819 3084 
Q 2600 3084 3056 2656 
Q 3513 2228 3513 1497 
Q 3513 744 3044 326 
Q 2575 -91 1722 -91 
Q 1428 -91 1123 -41 
Q 819 9 494 109 
L 494 744 
Q 775 591 1075 516 
Q 1375 441 1709 441 
Q 2250 441 2565 725 
Q 2881 1009 2881 1497 
Q 2881 1984 2565 2268 
Q 2250 2553 1709 2553 
Q 1456 2553 1204 2497 
Q 953 2441 691 2322 
L 691 4666 
z
" transform="scale(0.015625)"/>
       </defs>
       <use xlink:href="#DejaVuSans-30"/>
       <use xlink:href="#DejaVuSans-2e" x="63.623047"/>
       <use xlink:href="#DejaVuSans-35" x="95.410156"/>
      </g>
     </g>
    </g>
    <g id="ytick_3">
     <g id="line2d_19">
      <path d="M 64.24625 246.100653 
L 1180.24625 246.100653 
" clip-path="url(#p3b7c737e12)" style="fill: none; stroke: #b0b0b0; stroke-width: 0.8; stroke-linecap: square"/>
     </g>
     <g id="line2d_20">
      <g>
       <use xlink:href="#mcc5cbf655d" x="64.24625" y="246.100653" style="stroke: #000000; stroke-width: 0.8"/>
      </g>
     </g>
     <g id="text_11">
      <!-- 1.0 -->
      <g transform="translate(28.620625 252.939247) scale(0.18 -0.18)">
       <use xlink:href="#DejaVuSans-31"/>
       <use xlink:href="#DejaVuSans-2e" x="63.623047"/>
       <use xlink:href="#DejaVuSans-30" x="95.410156"/>
      </g>
     </g>
    </g>
    <g id="ytick_4">
     <g id="line2d_21">
      <path d="M 64.24625 201.503193 
L 1180.24625 201.503193 
" clip-path="url(#p3b7c737e12)" style="fill: none; stroke: #b0b0b0; stroke-width: 0.8; stroke-linecap: square"/>
     </g>
     <g id="line2d_22">
      <g>
       <use xlink:href="#mcc5cbf655d" x="64.24625" y="201.503193" style="stroke: #000000; stroke-width: 0.8"/>
      </g>
     </g>
     <g id="text_12">
      <!-- 1.5 -->
      <g transform="translate(28.620625 208.341787) scale(0.18 -0.18)">
       <use xlink:href="#DejaVuSans-31"/>
       <use xlink:href="#DejaVuSans-2e" x="63.623047"/>
       <use xlink:href="#DejaVuSans-35" x="95.410156"/>
      </g>
     </g>
    </g>
    <g id="ytick_5">
     <g id="line2d_23">
      <path d="M 64.24625 156.905733 
L 1180.24625 156.905733 
" clip-path="url(#p3b7c737e12)" style="fill: none; stroke: #b0b0b0; stroke-width: 0.8; stroke-linecap: square"/>
     </g>
     <g id="line2d_24">
      <g>
       <use xlink:href="#mcc5cbf655d" x="64.24625" y="156.905733" style="stroke: #000000; stroke-width: 0.8"/>
      </g>
     </g>
     <g id="text_13">
      <!-- 2.0 -->
      <g transform="translate(28.620625 163.744327) scale(0.18 -0.18)">
       <use xlink:href="#DejaVuSans-32"/>
       <use xlink:href="#DejaVuSans-2e" x="63.623047"/>
       <use xlink:href="#DejaVuSans-30" x="95.410156"/>
      </g>
     </g>
    </g>
    <g id="ytick_6">
     <g id="line2d_25">
      <path d="M 64.24625 112.308273 
L 1180.24625 112.308273 
" clip-path="url(#p3b7c737e12)" style="fill: none; stroke: #b0b0b0; stroke-width: 0.8; stroke-linecap: square"/>
     </g>
     <g id="line2d_26">
      <g>
       <use xlink:href="#mcc5cbf655d" x="64.24625" y="112.308273" style="stroke: #000000; stroke-width: 0.8"/>
      </g>
     </g>
     <g id="text_14">
      <!-- 2.5 -->
      <g transform="translate(28.620625 119.146867) scale(0.18 -0.18)">
       <use xlink:href="#DejaVuSans-32"/>
       <use xlink:href="#DejaVuSans-2e" x="63.623047"/>
       <use xlink:href="#DejaVuSans-35" x="95.410156"/>
      </g>
     </g>
    </g>
    <g id="ytick_7">
     <g id="line2d_27">
      <path d="M 64.24625 67.710813 
L 1180.24625 67.710813 
" clip-path="url(#p3b7c737e12)" style="fill: none; stroke: #b0b0b0; stroke-width: 0.8; stroke-linecap: square"/>
     </g>
     <g id="line2d_28">
      <g>
       <use xlink:href="#mcc5cbf655d" x="64.24625" y="67.710813" style="stroke: #000000; stroke-width: 0.8"/>
      </g>
     </g>
     <g id="text_15">
      <!-- 3.0 -->
      <g transform="translate(28.620625 74.549407) scale(0.18 -0.18)">
       <defs>
        <path id="DejaVuSans-33" d="M 2597 2516 
Q 3050 2419 3304 2112 
Q 3559 1806 3559 1356 
Q 3559 666 3084 287 
Q 2609 -91 1734 -91 
Q 1441 -91 1130 -33 
Q 819 25 488 141 
L 488 750 
Q 750 597 1062 519 
Q 1375 441 1716 441 
Q 2309 441 2620 675 
Q 2931 909 2931 1356 
Q 2931 1769 2642 2001 
Q 2353 2234 1838 2234 
L 1294 2234 
L 1294 2753 
L 1863 2753 
Q 2328 2753 2575 2939 
Q 2822 3125 2822 3475 
Q 2822 3834 2567 4026 
Q 2313 4219 1838 4219 
Q 1578 4219 1281 4162 
Q 984 4106 628 3988 
L 628 4550 
Q 988 4650 1302 4700 
Q 1616 4750 1894 4750 
Q 2613 4750 3031 4423 
Q 3450 4097 3450 3541 
Q 3450 3153 3228 2886 
Q 3006 2619 2597 2516 
z
" transform="scale(0.015625)"/>
       </defs>
       <use xlink:href="#DejaVuSans-33"/>
       <use xlink:href="#DejaVuSans-2e" x="63.623047"/>
       <use xlink:href="#DejaVuSans-30" x="95.410156"/>
      </g>
     </g>
    </g>
    <g id="ytick_8">
     <g id="line2d_29">
      <path d="M 64.24625 23.113353 
L 1180.24625 23.113353 
" clip-path="url(#p3b7c737e12)" style="fill: none; stroke: #b0b0b0; stroke-width: 0.8; stroke-linecap: square"/>
     </g>
     <g id="line2d_30">
      <g>
       <use xlink:href="#mcc5cbf655d" x="64.24625" y="23.113353" style="stroke: #000000; stroke-width: 0.8"/>
      </g>
     </g>
     <g id="text_16">
      <!-- 3.5 -->
      <g transform="translate(28.620625 29.951947) scale(0.18 -0.18)">
       <use xlink:href="#DejaVuSans-33"/>
       <use xlink:href="#DejaVuSans-2e" x="63.623047"/>
       <use xlink:href="#DejaVuSans-35" x="95.410156"/>
      </g>
     </g>
    </g>
    <g id="text_17">
     <!-- $R/R_E$ [-] -->
     <g style="fill: #0000ff" transform="translate(20.877188 206.46) rotate(-90) scale(0.18 -0.18)">
      <defs>
       <path id="DejaVuSans-Oblique-52" d="M 1613 4147 
L 1294 2491 
L 2106 2491 
Q 2584 2491 2879 2755 
Q 3175 3019 3175 3444 
Q 3175 3784 2976 3965 
Q 2778 4147 2406 4147 
L 1613 4147 
z
M 2772 2241 
Q 2972 2194 3105 2009 
Q 3238 1825 3413 1275 
L 3809 0 
L 3144 0 
L 2778 1197 
Q 2638 1659 2453 1815 
Q 2269 1972 1888 1972 
L 1191 1972 
L 806 0 
L 172 0 
L 1081 4666 
L 2503 4666 
Q 3150 4666 3495 4373 
Q 3841 4081 3841 3531 
Q 3841 3044 3547 2687 
Q 3253 2331 2772 2241 
z
" transform="scale(0.015625)"/>
       <path id="DejaVuSans-2f" d="M 1625 4666 
L 2156 4666 
L 531 -594 
L 0 -594 
L 1625 4666 
z
" transform="scale(0.015625)"/>
       <path id="DejaVuSans-Oblique-45" d="M 1081 4666 
L 4031 4666 
L 3928 4134 
L 1606 4134 
L 1338 2753 
L 3566 2753 
L 3463 2222 
L 1234 2222 
L 909 531 
L 3284 531 
L 3181 0 
L 172 0 
L 1081 4666 
z
" transform="scale(0.015625)"/>
       <path id="DejaVuSans-2d" d="M 313 2009 
L 1997 2009 
L 1997 1497 
L 313 1497 
L 313 2009 
z
" transform="scale(0.015625)"/>
      </defs>
      <use xlink:href="#DejaVuSans-Oblique-52" transform="translate(0 0.015625)"/>
      <use xlink:href="#DejaVuSans-2f" transform="translate(69.482422 0.015625)"/>
      <use xlink:href="#DejaVuSans-Oblique-52" transform="translate(103.173828 0.015625)"/>
      <use xlink:href="#DejaVuSans-Oblique-45" transform="translate(172.65625 -16.390625) scale(0.7)"/>
      <use xlink:href="#DejaVuSans-20" transform="translate(219.619141 0.015625)"/>
      <use xlink:href="#DejaVuSans-5b" transform="translate(251.40625 0.015625)"/>
      <use xlink:href="#DejaVuSans-2d" transform="translate(290.419922 0.015625)"/>
      <use xlink:href="#DejaVuSans-5d" transform="translate(326.503906 0.015625)"/>
     </g>
    </g>
   </g>
   <g id="line2d_31">
    <path d="M 114.973523 246.100653 
L 116.851789 245.995735 
L 117.942693 245.707341 
L 118.909475 245.215599 
L 119.838805 244.481827 
L 120.820918 243.389204 
L 121.795942 241.957418 
L 122.868469 239.971167 
L 124.038498 237.317868 
L 125.331584 233.82185 
L 126.793958 229.210203 
L 128.522219 222.955364 
L 130.383422 215.368977 
L 132.618645 205.26493 
L 135.238745 192.278423 
L 138.310956 175.824677 
L 142.305072 153.102731 
L 153.100593 90.896752 
L 156.103493 75.118163 
L 158.73103 62.417296 
L 160.983205 52.549583 
L 162.860018 45.164569 
L 164.852128 38.268512 
L 166.403859 33.639747 
L 167.899981 29.848516 
L 169.173666 27.178811 
L 170.44735 25.056415 
L 171.546265 23.691042 
L 172.390444 22.950352 
L 173.197709 22.503578 
L 173.894231 22.331351 
L 174.590753 22.363769 
L 175.287276 22.607909 
L 175.983798 23.071229 
L 176.854451 23.970678 
L 177.725104 25.241513 
L 178.595757 26.901735 
L 179.610814 29.355361 
L 180.621641 32.386191 
L 181.776873 36.618606 
L 182.932105 41.736999 
L 184.182442 48.371115 
L 185.384355 55.938528 
L 186.659904 65.412713 
L 187.934354 76.592868 
L 189.168461 89.358299 
L 190.438054 104.943243 
L 191.608003 122.136365 
L 192.707413 141.661259 
L 193.696029 163.267795 
L 194.569188 187.425952 
L 195.285827 213.635056 
L 195.838668 242.246057 
L 196.217443 273.704803 
L 196.42102 309.738886 
L 196.460861 324.72 
L 196.530879 309.670775 
L 196.804772 282.657007 
L 197.251929 259.935589 
L 197.865382 239.770631 
L 198.634193 221.715146 
L 199.522167 205.970353 
L 200.513124 192.263469 
L 201.568766 180.656708 
L 202.655855 171.044871 
L 203.763274 163.136958 
L 204.88704 156.68222 
L 205.976561 151.688563 
L 206.963866 148.092186 
L 207.979521 145.206861 
L 208.850529 143.325832 
L 209.721929 141.944756 
L 210.506477 141.09804 
L 211.185632 140.648821 
L 211.80848 140.455347 
L 212.504735 140.473672 
L 213.224106 140.739299 
L 213.942202 141.241253 
L 214.743133 142.064901 
L 215.738077 143.451823 
L 216.782638 145.311581 
L 217.865032 147.641017 
L 219.270577 151.220993 
L 220.791261 155.721238 
L 222.664365 162.022996 
L 224.920527 170.473986 
L 228.514936 184.973658 
L 231.65387 197.295137 
L 233.428714 203.402533 
L 234.802797 207.377183 
L 235.884725 209.899196 
L 236.795088 211.532272 
L 237.614413 212.578222 
L 238.342703 213.14824 
L 238.979957 213.358635 
L 239.526174 213.321023 
L 240.072391 213.081641 
L 240.707195 212.552233 
L 241.386293 211.693639 
L 242.218179 210.247206 
L 243.133254 208.186887 
L 244.261883 205.036163 
L 245.572124 200.654834 
L 247.133913 194.622928 
L 249.176252 185.795105 
L 252.412168 170.678623 
L 257.41793 147.392898 
L 259.985183 136.531592 
L 262.132598 128.395589 
L 264.013137 122.155758 
L 265.658608 117.486298 
L 267.069012 114.144606 
L 268.271358 111.825303 
L 269.432092 110.087467 
L 270.42934 109.016499 
L 271.230797 108.456703 
L 271.898449 108.206101 
L 272.565143 108.160732 
L 273.231836 108.329289 
L 273.89853 108.721606 
L 274.565224 109.348263 
L 275.389621 110.464381 
L 276.213308 111.97881 
L 277.109493 114.111296 
L 278.060369 116.969446 
L 279.023506 120.545352 
L 280.126293 125.570827 
L 281.185292 131.448795 
L 282.288286 138.831223 
L 283.427158 148.045982 
L 284.557053 159.14546 
L 285.637202 172.091373 
L 286.645273 186.960271 
L 287.553527 203.695455 
L 288.351382 222.538232 
L 289.013567 243.459135 
L 289.525355 266.704848 
L 289.876805 293.002146 
L 290.073231 318.988959 
L 290.151667 310.255826 
L 290.469808 283.868998 
L 290.944406 262.716434 
L 291.575892 244.208499 
L 292.352509 227.864502 
L 293.236053 213.867585 
L 294.191235 202.163825 
L 295.196369 192.527562 
L 296.182597 185.101824 
L 297.15596 179.372311 
L 298.061517 175.262703 
L 298.940709 172.273869 
L 299.71934 170.38264 
L 300.421641 169.248944 
L 300.985046 168.715479 
L 301.454549 168.519562 
L 301.94432 168.551582 
L 302.439508 168.826186 
L 302.991897 169.417409 
L 303.622305 170.457964 
L 304.3464 172.136157 
L 305.18447 174.732851 
L 306.038935 178.125213 
L 307.019669 182.995238 
L 308.041722 189.273678 
L 309.088713 197.13967 
L 310.14082 206.771565 
L 311.18603 218.494848 
L 312.128675 231.553526 
L 313.005284 246.819399 
L 313.770457 264.168888 
L 314.413963 284.008616 
L 315.037637 303.868144 
L 315.068973 303.762165 
L 315.158697 302.392543 
L 315.422853 293.820941 
L 316.180505 270.564682 
L 316.946793 254.022525 
L 317.854824 239.163081 
L 318.892914 225.763621 
L 320.026736 213.901744 
L 321.25504 203.304948 
L 322.519083 194.204407 
L 323.854744 186.133612 
L 325.171376 179.442446 
L 326.530777 173.645038 
L 327.83622 169.004186 
L 329.105181 165.272244 
L 330.300926 162.400892 
L 331.390508 160.295192 
L 332.522404 158.598304 
L 333.447905 157.569182 
L 334.387227 156.845893 
L 335.282133 156.452736 
L 336.041565 156.343292 
L 336.746426 156.425059 
L 337.579358 156.749215 
L 338.496272 157.39242 
L 339.367413 158.284412 
L 340.299351 159.546758 
L 341.394433 161.447257 
L 342.442004 163.701768 
L 343.5373 166.536487 
L 344.783372 170.390804 
L 346.118226 175.323083 
L 347.429769 181.063858 
L 348.76675 187.949934 
L 350.098645 196.017827 
L 351.375604 205.112447 
L 352.615394 215.5264 
L 353.820994 227.59424 
L 354.91022 240.724937 
L 355.937478 255.833323 
L 356.941231 274.037727 
L 357.908028 291.046436 
L 358.136438 292.130963 
L 358.208245 292.020797 
L 358.342565 291.253677 
L 358.597033 288.208058 
L 359.237793 276.893679 
L 360.373597 258.122903 
L 361.427584 244.406479 
L 362.557649 232.547096 
L 363.740531 222.369893 
L 365.005851 213.360093 
L 366.294223 205.735983 
L 367.592559 199.336294 
L 368.83023 194.249206 
L 370.11811 189.871981 
L 371.255264 186.705316 
L 372.46548 183.995545 
L 373.521697 182.152462 
L 374.523677 180.832239 
L 375.45202 179.968645 
L 376.313666 179.469382 
L 377.149964 179.258921 
L 377.864748 179.29132 
L 378.607875 179.531879 
L 379.415433 180.032933 
L 380.236461 180.800096 
L 381.161661 181.980325 
L 382.135378 183.591574 
L 383.231254 185.872346 
L 384.346272 188.723605 
L 385.563909 192.485826 
L 386.804801 197.071379 
L 388.069897 202.605982 
L 389.408429 209.526864 
L 390.693474 217.361353 
L 391.984333 226.623358 
L 393.27735 237.593877 
L 394.55133 250.401895 
L 396.038687 267.861221 
L 397.097252 279.39328 
L 397.520602 281.944933 
L 397.770238 282.432141 
L 397.901295 282.35304 
L 398.082387 281.873177 
L 398.36619 280.349232 
L 398.831133 276.383625 
L 399.948993 264.239347 
L 401.395149 249.553141 
L 402.649567 238.981663 
L 403.919287 230.076541 
L 405.225249 222.464419 
L 406.493246 216.323235 
L 407.774213 211.186673 
L 409.009685 207.125199 
L 410.23397 203.878326 
L 411.343562 201.551652 
L 412.368296 199.891733 
L 413.352643 198.719475 
L 414.166959 198.052542 
L 415.018272 197.64198 
L 415.711424 197.521117 
L 416.407094 197.590839 
L 417.04047 197.820198 
L 417.830625 198.328139 
L 418.676563 199.146346 
L 419.598879 200.365591 
L 420.680006 202.238121 
L 421.700438 204.457563 
L 422.799988 207.360544 
L 424.078477 211.43928 
L 425.364067 216.357078 
L 426.709625 222.457818 
L 428.046903 229.580133 
L 429.468702 238.41379 
L 430.993001 249.34903 
L 433.867214 270.447906 
L 434.425867 272.767196 
L 434.788183 273.510076 
L 435.03971 273.63015 
L 435.258866 273.467232 
L 435.537792 272.914308 
L 435.926587 271.565524 
L 436.478405 268.751057 
L 437.419837 262.588945 
L 440.188137 243.989995 
L 441.620844 236.08486 
L 442.953621 229.91038 
L 444.240119 224.941561 
L 445.476936 221.002542 
L 446.634673 218.001182 
L 447.788868 215.62501 
L 448.829359 213.981768 
L 449.712416 212.943016 
L 450.595473 212.221133 
L 451.331354 211.856467 
L 452.149172 211.69991 
L 452.966989 211.802419 
L 453.784806 212.162356 
L 454.602623 212.779267 
L 455.42044 213.65381 
L 456.449464 215.122978 
L 457.450989 216.952555 
L 458.57174 219.476266 
L 459.808238 222.858387 
L 461.08289 227.01861 
L 462.454232 232.272777 
L 463.991711 239.107807 
L 465.83576 248.416044 
L 468.356747 261.140408 
L 469.203144 264.279088 
L 469.787115 265.712596 
L 470.241315 266.31675 
L 470.598187 266.453353 
L 470.905964 266.330432 
L 471.259525 265.923688 
L 471.695819 265.061466 
L 472.29731 263.320635 
L 473.150112 260.066136 
L 474.703674 253.069132 
L 476.933036 243.255187 
L 478.492664 237.405515 
L 479.825234 233.209702 
L 481.12962 229.823038 
L 482.272184 227.427228 
L 483.321892 225.681186 
L 484.3716 224.35806 
L 485.316611 223.519367 
L 486.188056 223.03563 
L 487.034662 222.827341 
L 487.850338 222.86729 
L 488.623508 223.120841 
L 489.507256 223.665478 
L 490.391004 224.479915 
L 491.437681 225.790946 
L 492.489854 227.48437 
L 493.662844 229.810337 
L 494.960141 232.907272 
L 496.420927 237.01657 
L 498.11137 242.476514 
L 502.471686 257.026432 
L 503.363007 259.043008 
L 504.026617 260.059117 
L 504.558123 260.526898 
L 505.039734 260.669585 
L 505.474779 260.567875 
L 505.935409 260.230002 
L 506.488011 259.535963 
L 507.187263 258.267886 
L 508.112775 256.078087 
L 509.536532 252.056693 
L 512.815905 242.662876 
L 514.326265 239.056633 
L 515.634598 236.458991 
L 516.825827 234.545124 
L 517.864579 233.233359 
L 518.87686 232.275243 
L 519.889142 231.630937 
L 520.81791 231.312746 
L 521.706606 231.24954 
L 522.614262 231.42479 
L 523.521917 231.838055 
L 524.429572 232.484226 
L 525.488503 233.524141 
L 526.698709 235.074171 
L 528.030804 237.196099 
L 529.54128 240.06589 
L 531.473023 244.268989 
L 534.998977 252.032094 
L 536.176029 254.031815 
L 537.063554 255.137144 
L 537.815057 255.744 
L 538.481241 256.006613 
L 539.096576 256.013688 
L 539.723792 255.793383 
L 540.421901 255.2959 
L 541.202654 254.461943 
L 542.208932 253.040683 
L 543.575291 250.69808 
L 548.225262 242.423825 
L 549.67408 240.424847 
L 550.960291 239.011767 
L 552.146438 238.032351 
L 553.213971 237.424479 
L 554.281503 237.077867 
L 555.321701 236.989847 
L 556.282504 237.123721 
L 557.341354 237.503738 
L 558.509191 238.193194 
L 559.743665 239.209418 
L 561.073796 240.599986 
L 562.73206 242.683811 
L 565.230296 246.245434 
L 567.636407 249.552253 
L 568.983167 251.043505 
L 570.100323 251.952961 
L 571.04561 252.439688 
L 571.904961 252.636836 
L 572.770256 252.59541 
L 573.661388 252.311262 
L 574.659046 251.731533 
L 575.778916 250.809342 
L 577.283045 249.256251 
L 582.826259 243.224469 
L 584.33734 242.055309 
L 585.688161 241.291767 
L 586.992338 240.825592 
L 588.157533 240.639763 
L 589.322727 240.670185 
L 590.487922 240.910081 
L 591.776431 241.404733 
L 593.20629 242.207267 
L 594.908114 243.448792 
L 597.21254 245.44726 
L 600.542367 248.324858 
L 602.0435 249.334893 
L 603.35301 249.955412 
L 604.475448 250.256844 
L 605.59018 250.331544 
L 606.756841 250.173432 
L 608.029561 249.750271 
L 609.502096 248.99527 
L 611.432168 247.725509 
L 616.101337 244.558357 
L 617.791595 243.717549 
L 619.29181 243.19622 
L 620.834708 242.904124 
L 622.208449 242.85803 
L 623.621682 243.015631 
L 625.256674 243.437096 
L 626.975594 244.115 
L 629.195043 245.240418 
L 634.168517 247.847986 
L 635.797316 248.425688 
L 637.352039 248.746378 
L 638.823017 248.819249 
L 640.362565 248.658657 
L 641.995245 248.25623 
L 644.076353 247.491311 
L 650.776766 244.814428 
L 652.633711 244.395937 
L 654.441152 244.209106 
L 656.318493 244.2522 
L 658.195833 244.520561 
L 660.45719 245.087324 
L 663.826947 246.204482 
L 667.26056 247.269517 
L 669.380761 247.695222 
L 671.275232 247.856015 
L 673.259222 247.788218 
L 675.36699 247.480424 
L 678.144525 246.823742 
L 683.682995 245.450242 
L 686.185736 245.101259 
L 688.302092 245.012155 
L 690.69485 245.140625 
L 693.353924 245.521482 
L 698.106944 246.491386 
L 701.47324 247.051536 
L 703.940519 247.244649 
L 706.42573 247.213737 
L 709.156702 246.94848 
L 713.637758 246.241131 
L 717.633512 245.695222 
L 720.60018 245.515105 
L 723.532203 245.568564 
L 727.007456 245.881128 
L 736.030084 246.843233 
L 739.186004 246.869363 
L 742.677375 246.665185 
L 753.822755 245.813009 
L 757.438009 245.877038 
L 762.305613 246.20648 
L 768.817361 246.618685 
L 772.904717 246.633245 
L 777.893547 246.400597 
L 786.046933 246.007072 
L 790.563631 246.034853 
L 797.787826 246.350181 
L 803.65833 246.510815 
L 809.062481 246.426698 
L 821.853633 246.109729 
L 829.117393 246.272633 
L 837.62005 246.424561 
L 845.442151 246.29965 
L 855.151947 246.178264 
L 866.890799 246.350382 
L 875.721236 246.334131 
L 891.528668 246.239441 
L 910.254907 246.303827 
L 926.634717 246.269314 
L 945.39116 246.285884 
L 964.193406 246.293767 
L 988.519655 246.270891 
L 1098.08034 246.287321 
L 1129.518977 246.28614 
L 1129.518977 246.28614 
" clip-path="url(#p3b7c737e12)" style="fill: none; stroke: #0000ff; stroke-linecap: square"/>
   </g>
   <g id="patch_3">
    <path d="M 64.24625 339.84 
L 64.24625 7.2 
" style="fill: none; stroke: #000000; stroke-width: 0.8; stroke-linejoin: miter; stroke-linecap: square"/>
   </g>
   <g id="patch_4">
    <path d="M 1180.24625 339.84 
L 1180.24625 7.2 
" style="fill: none; stroke: #000000; stroke-width: 0.8; stroke-linejoin: miter; stroke-linecap: square"/>
   </g>
   <g id="patch_5">
    <path d="M 64.24625 339.84 
L 1180.24625 339.84 
" style="fill: none; stroke: #000000; stroke-width: 0.8; stroke-linejoin: miter; stroke-linecap: square"/>
   </g>
   <g id="patch_6">
    <path d="M 64.24625 7.2 
L 1180.24625 7.2 
" style="fill: none; stroke: #000000; stroke-width: 0.8; stroke-linejoin: miter; stroke-linecap: square"/>
   </g>
   <g id="text_18">
    <g id="patch_7">
     <path d="M 937.625312 206.331625 
L 1167.86625 206.331625 
L 1167.86625 13.892 
L 937.625312 13.892 
z
" style="fill: #ffffff; stroke: #000000; stroke-linejoin: miter"/>
    </g>
    <!-- Initial conditions: -->
    <g transform="translate(947.565312 34.469812) scale(0.14 -0.14)">
     <defs>
      <path id="DejaVuSans-Oblique-49" d="M 1081 4666 
L 1716 4666 
L 806 0 
L 172 0 
L 1081 4666 
z
" transform="scale(0.015625)"/>
      <path id="DejaVuSans-Oblique-6e" d="M 3566 2113 
L 3156 0 
L 2578 0 
L 2988 2091 
Q 3016 2238 3031 2350 
Q 3047 2463 3047 2528 
Q 3047 2791 2881 2937 
Q 2716 3084 2419 3084 
Q 1956 3084 1622 2776 
Q 1288 2469 1184 1941 
L 800 0 
L 225 0 
L 903 3500 
L 1478 3500 
L 1363 2950 
Q 1603 3253 1940 3418 
Q 2278 3584 2650 3584 
Q 3113 3584 3367 3334 
Q 3622 3084 3622 2631 
Q 3622 2519 3608 2391 
Q 3594 2263 3566 2113 
z
" transform="scale(0.015625)"/>
      <path id="DejaVuSans-Oblique-69" d="M 1172 4863 
L 1747 4863 
L 1606 4134 
L 1031 4134 
L 1172 4863 
z
M 909 3500 
L 1484 3500 
L 800 0 
L 225 0 
L 909 3500 
z
" transform="scale(0.015625)"/>
      <path id="DejaVuSans-Oblique-61" d="M 3438 1997 
L 3047 0 
L 2472 0 
L 2578 531 
Q 2325 219 2001 64 
Q 1678 -91 1281 -91 
Q 834 -91 548 182 
Q 263 456 263 884 
Q 263 1497 752 1853 
Q 1241 2209 2100 2209 
L 2900 2209 
L 2931 2363 
Q 2938 2388 2941 2417 
Q 2944 2447 2944 2509 
Q 2944 2788 2717 2942 
Q 2491 3097 2081 3097 
Q 1800 3097 1504 3025 
Q 1209 2953 897 2809 
L 997 3341 
Q 1322 3463 1633 3523 
Q 1944 3584 2234 3584 
Q 2853 3584 3176 3315 
Q 3500 3047 3500 2534 
Q 3500 2431 3484 2292 
Q 3469 2153 3438 1997 
z
M 2816 1759 
L 2241 1759 
Q 1534 1759 1195 1570 
Q 856 1381 856 984 
Q 856 709 1029 553 
Q 1203 397 1509 397 
Q 1978 397 2328 733 
Q 2678 1069 2791 1631 
L 2816 1759 
z
" transform="scale(0.015625)"/>
      <path id="DejaVuSans-Oblique-6c" d="M 1172 4863 
L 1747 4863 
L 800 0 
L 225 0 
L 1172 4863 
z
" transform="scale(0.015625)"/>
      <path id="DejaVuSans-Oblique-20" transform="scale(0.015625)"/>
      <path id="DejaVuSans-Oblique-63" d="M 3431 3366 
L 3316 2797 
Q 3109 2947 2876 3022 
Q 2644 3097 2394 3097 
Q 2119 3097 1870 3000 
Q 1622 2903 1453 2725 
Q 1184 2453 1037 2087 
Q 891 1722 891 1331 
Q 891 859 1127 628 
Q 1363 397 1844 397 
Q 2081 397 2348 469 
Q 2616 541 2906 684 
L 2797 116 
Q 2547 13 2283 -39 
Q 2019 -91 1741 -91 
Q 1044 -91 669 257 
Q 294 606 294 1253 
Q 294 1797 489 2255 
Q 684 2713 1069 3078 
Q 1331 3328 1684 3456 
Q 2038 3584 2456 3584 
Q 2700 3584 2940 3529 
Q 3181 3475 3431 3366 
z
" transform="scale(0.015625)"/>
      <path id="DejaVuSans-Oblique-6f" d="M 1625 -91 
Q 1009 -91 651 289 
Q 294 669 294 1325 
Q 294 1706 417 2101 
Q 541 2497 738 2766 
Q 1047 3184 1428 3384 
Q 1809 3584 2291 3584 
Q 2888 3584 3255 3212 
Q 3622 2841 3622 2241 
Q 3622 1825 3500 1412 
Q 3378 1000 3181 728 
Q 2875 309 2494 109 
Q 2113 -91 1625 -91 
z
M 891 1344 
Q 891 869 1089 633 
Q 1288 397 1691 397 
Q 2269 397 2648 901 
Q 3028 1406 3028 2181 
Q 3028 2634 2825 2865 
Q 2622 3097 2228 3097 
Q 1903 3097 1650 2945 
Q 1397 2794 1197 2484 
Q 1050 2253 970 1956 
Q 891 1659 891 1344 
z
" transform="scale(0.015625)"/>
      <path id="DejaVuSans-Oblique-64" d="M 2675 525 
Q 2444 222 2128 65 
Q 1813 -91 1428 -91 
Q 903 -91 598 267 
Q 294 625 294 1247 
Q 294 1766 478 2236 
Q 663 2706 1013 3078 
Q 1244 3325 1534 3454 
Q 1825 3584 2144 3584 
Q 2481 3584 2739 3421 
Q 2997 3259 3138 2956 
L 3513 4863 
L 4091 4863 
L 3144 0 
L 2566 0 
L 2675 525 
z
M 891 1350 
Q 891 897 1095 644 
Q 1300 391 1663 391 
Q 1931 391 2161 520 
Q 2391 650 2566 903 
Q 2750 1166 2856 1509 
Q 2963 1853 2963 2188 
Q 2963 2622 2758 2865 
Q 2553 3109 2194 3109 
Q 1922 3109 1687 2981 
Q 1453 2853 1288 2613 
Q 1106 2353 998 2009 
Q 891 1666 891 1350 
z
" transform="scale(0.015625)"/>
      <path id="DejaVuSans-Oblique-73" d="M 3200 3397 
L 3091 2853 
Q 2863 2978 2609 3040 
Q 2356 3103 2088 3103 
Q 1634 3103 1373 2948 
Q 1113 2794 1113 2528 
Q 1113 2219 1719 2053 
Q 1766 2041 1788 2034 
L 1972 1978 
Q 2547 1819 2739 1644 
Q 2931 1469 2931 1166 
Q 2931 609 2489 259 
Q 2047 -91 1331 -91 
Q 1053 -91 747 -37 
Q 441 16 72 128 
L 184 722 
Q 500 559 806 475 
Q 1113 391 1394 391 
Q 1816 391 2080 572 
Q 2344 753 2344 1031 
Q 2344 1331 1650 1516 
L 1591 1531 
L 1394 1581 
Q 956 1697 753 1886 
Q 550 2075 550 2369 
Q 550 2928 970 3256 
Q 1391 3584 2113 3584 
Q 2397 3584 2667 3537 
Q 2938 3491 3200 3397 
z
" transform="scale(0.015625)"/>
      <path id="DejaVuSans-Oblique-3a" d="M 978 3309 
L 1638 3309 
L 1484 2516 
L 825 2516 
L 978 3309 
z
M 488 794 
L 1147 794 
L 991 0 
L 331 0 
L 488 794 
z
" transform="scale(0.015625)"/>
     </defs>
     <use xlink:href="#DejaVuSans-Oblique-49"/>
     <use xlink:href="#DejaVuSans-Oblique-6e" x="29.492188"/>
     <use xlink:href="#DejaVuSans-Oblique-69" x="92.871094"/>
     <use xlink:href="#DejaVuSans-Oblique-74" x="120.654297"/>
     <use xlink:href="#DejaVuSans-Oblique-69" x="159.863281"/>
     <use xlink:href="#DejaVuSans-Oblique-61" x="187.646484"/>
     <use xlink:href="#DejaVuSans-Oblique-6c" x="248.925781"/>
     <use xlink:href="#DejaVuSans-Oblique-20" x="276.708984"/>
     <use xlink:href="#DejaVuSans-Oblique-63" x="308.496094"/>
     <use xlink:href="#DejaVuSans-Oblique-6f" x="363.476562"/>
     <use xlink:href="#DejaVuSans-Oblique-6e" x="424.658203"/>
     <use xlink:href="#DejaVuSans-Oblique-64" x="488.037109"/>
     <use xlink:href="#DejaVuSans-Oblique-69" x="551.513672"/>
     <use xlink:href="#DejaVuSans-Oblique-74" x="579.296875"/>
     <use xlink:href="#DejaVuSans-Oblique-69" x="618.505859"/>
     <use xlink:href="#DejaVuSans-Oblique-6f" x="646.289062"/>
     <use xlink:href="#DejaVuSans-Oblique-6e" x="707.470703"/>
     <use xlink:href="#DejaVuSans-Oblique-73" x="770.849609"/>
     <use xlink:href="#DejaVuSans-Oblique-3a" x="822.949219"/>
    </g>
    <!--     $R_E$ =  138.84 $[\mu m]$ -->
    <g transform="translate(947.565312 50.149375) scale(0.14 -0.14)">
     <defs>
      <path id="DejaVuSans-Oblique-3d" d="M 678 2906 
L 4684 2906 
L 4684 2381 
L 678 2381 
L 678 2906 
z
M 678 1631 
L 4684 1631 
L 4684 1100 
L 678 1100 
L 678 1631 
z
" transform="scale(0.015625)"/>
      <path id="DejaVuSans-Oblique-31" d="M 416 531 
L 1447 531 
L 2144 4122 
L 978 3897 
L 1088 4441 
L 2247 4666 
L 2881 4666 
L 2075 531 
L 3103 531 
L 3003 0 
L 313 0 
L 416 531 
z
" transform="scale(0.015625)"/>
      <path id="DejaVuSans-Oblique-33" d="M 1013 4550 
Q 1356 4650 1679 4700 
Q 2003 4750 2316 4750 
Q 2934 4750 3296 4475 
Q 3659 4200 3659 3738 
Q 3659 3284 3373 2959 
Q 3088 2634 2584 2516 
Q 2978 2403 3162 2165 
Q 3347 1928 3347 1538 
Q 3347 1163 3167 834 
Q 2988 506 2650 269 
Q 2394 88 2037 -1 
Q 1681 -91 1216 -91 
Q 922 -91 622 -33 
Q 322 25 13 141 
L 128 738 
Q 422 575 720 495 
Q 1019 416 1331 416 
Q 1947 416 2330 733 
Q 2713 1050 2713 1556 
Q 2713 1881 2469 2057 
Q 2225 2234 1772 2234 
L 1228 2234 
L 1325 2747 
L 1900 2747 
Q 2419 2747 2717 2984 
Q 3016 3222 3016 3628 
Q 3016 3922 2797 4083 
Q 2578 4244 2181 4244 
Q 1881 4244 1567 4180 
Q 1253 4116 916 3988 
L 1013 4550 
z
" transform="scale(0.015625)"/>
      <path id="DejaVuSans-Oblique-38" d="M 2847 1416 
Q 2847 1769 2600 1992 
Q 2353 2216 1953 2216 
Q 1466 2216 1148 1923 
Q 831 1631 831 1184 
Q 831 828 1073 618 
Q 1316 409 1728 409 
Q 2219 409 2533 693 
Q 2847 978 2847 1416 
z
M 3169 3591 
Q 3169 3888 2950 4069 
Q 2731 4250 2369 4250 
Q 1941 4250 1664 4009 
Q 1388 3769 1388 3406 
Q 1388 3094 1605 2903 
Q 1822 2713 2181 2713 
Q 2613 2713 2891 2961 
Q 3169 3209 3169 3591 
z
M 2741 2456 
Q 3094 2322 3281 2050 
Q 3469 1778 3469 1394 
Q 3469 747 2969 328 
Q 2469 -91 1678 -91 
Q 1006 -91 609 239 
Q 213 569 213 1119 
Q 213 1619 553 2008 
Q 894 2397 1441 2503 
Q 1113 2616 941 2852 
Q 769 3088 769 3425 
Q 769 3991 1239 4370 
Q 1709 4750 2431 4750 
Q 3034 4750 3414 4442 
Q 3794 4134 3794 3659 
Q 3794 3247 3511 2923 
Q 3228 2600 2741 2456 
z
" transform="scale(0.015625)"/>
      <path id="DejaVuSans-Oblique-2e" d="M 525 794 
L 1184 794 
L 1031 0 
L 372 0 
L 525 794 
z
" transform="scale(0.015625)"/>
      <path id="DejaVuSans-Oblique-34" d="M 2753 4666 
L 3547 4666 
L 2950 1625 
L 3616 1625 
L 3513 1100 
L 2847 1100 
L 2638 0 
L 2009 0 
L 2222 1100 
L 116 1100 
L 238 1709 
L 2753 4666 
z
M 2809 4116 
L 728 1625 
L 2322 1625 
L 2809 4116 
z
" transform="scale(0.015625)"/>
      <path id="DejaVuSans-Oblique-3bc" d="M -84 -1331 
L 856 3500 
L 1434 3500 
L 1009 1322 
Q 997 1256 987 1175 
Q 978 1094 978 1013 
Q 978 722 1161 565 
Q 1344 409 1684 409 
Q 2147 409 2431 671 
Q 2716 934 2816 1459 
L 3213 3500 
L 3788 3500 
L 3266 809 
Q 3253 750 3248 706 
Q 3244 663 3244 628 
Q 3244 531 3283 486 
Q 3322 441 3406 441 
Q 3438 441 3492 456 
Q 3547 472 3647 513 
L 3559 50 
Q 3422 -19 3297 -55 
Q 3172 -91 3053 -91 
Q 2847 -91 2730 40 
Q 2613 172 2613 403 
Q 2438 153 2195 31 
Q 1953 -91 1625 -91 
Q 1334 -91 1117 43 
Q 900 178 831 397 
L 494 -1331 
L -84 -1331 
z
" transform="scale(0.015625)"/>
      <path id="DejaVuSans-Oblique-6d" d="M 5747 2113 
L 5338 0 
L 4763 0 
L 5166 2094 
Q 5191 2228 5203 2325 
Q 5216 2422 5216 2491 
Q 5216 2772 5059 2928 
Q 4903 3084 4622 3084 
Q 4203 3084 3875 2770 
Q 3547 2456 3450 1953 
L 3066 0 
L 2491 0 
L 2900 2094 
Q 2925 2209 2937 2307 
Q 2950 2406 2950 2484 
Q 2950 2769 2794 2926 
Q 2638 3084 2363 3084 
Q 1938 3084 1609 2770 
Q 1281 2456 1184 1953 
L 800 0 
L 225 0 
L 909 3500 
L 1484 3500 
L 1375 2956 
Q 1609 3263 1923 3423 
Q 2238 3584 2597 3584 
Q 2978 3584 3223 3384 
Q 3469 3184 3519 2828 
Q 3781 3197 4126 3390 
Q 4472 3584 4856 3584 
Q 5306 3584 5551 3325 
Q 5797 3066 5797 2591 
Q 5797 2488 5784 2364 
Q 5772 2241 5747 2113 
z
" transform="scale(0.015625)"/>
     </defs>
     <use xlink:href="#DejaVuSans-Oblique-20" transform="translate(0 0.015625)"/>
     <use xlink:href="#DejaVuSans-Oblique-20" transform="translate(31.787109 0.015625)"/>
     <use xlink:href="#DejaVuSans-Oblique-20" transform="translate(63.574219 0.015625)"/>
     <use xlink:href="#DejaVuSans-Oblique-20" transform="translate(95.361328 0.015625)"/>
     <use xlink:href="#DejaVuSans-Oblique-52" transform="translate(127.148438 0.015625)"/>
     <use xlink:href="#DejaVuSans-Oblique-45" transform="translate(196.630859 -16.390625) scale(0.7)"/>
     <use xlink:href="#DejaVuSans-Oblique-20" transform="translate(243.59375 0.015625)"/>
     <use xlink:href="#DejaVuSans-Oblique-3d" transform="translate(275.380859 0.015625)"/>
     <use xlink:href="#DejaVuSans-Oblique-20" transform="translate(359.169922 0.015625)"/>
     <use xlink:href="#DejaVuSans-Oblique-20" transform="translate(390.957031 0.015625)"/>
     <use xlink:href="#DejaVuSans-Oblique-31" transform="translate(422.744141 0.015625)"/>
     <use xlink:href="#DejaVuSans-Oblique-33" transform="translate(486.367188 0.015625)"/>
     <use xlink:href="#DejaVuSans-Oblique-38" transform="translate(549.990234 0.015625)"/>
     <use xlink:href="#DejaVuSans-Oblique-2e" transform="translate(613.613281 0.015625)"/>
     <use xlink:href="#DejaVuSans-Oblique-38" transform="translate(643.650391 0.015625)"/>
     <use xlink:href="#DejaVuSans-Oblique-34" transform="translate(707.273438 0.015625)"/>
     <use xlink:href="#DejaVuSans-Oblique-20" transform="translate(770.896484 0.015625)"/>
     <use xlink:href="#DejaVuSans-5b" transform="translate(802.683594 0.015625)"/>
     <use xlink:href="#DejaVuSans-Oblique-3bc" transform="translate(841.697266 0.015625)"/>
     <use xlink:href="#DejaVuSans-Oblique-6d" transform="translate(905.320312 0.015625)"/>
     <use xlink:href="#DejaVuSans-5d" transform="translate(1002.732422 0.015625)"/>
    </g>
    <!--     $P_{amb}$ =  1.01 $[bar]$ -->
    <g transform="translate(947.565312 65.85475) scale(0.14 -0.14)">
     <defs>
      <path id="DejaVuSans-Oblique-50" d="M 1081 4666 
L 2541 4666 
Q 3178 4666 3512 4369 
Q 3847 4072 3847 3500 
Q 3847 2731 3353 2303 
Q 2859 1875 1966 1875 
L 1172 1875 
L 806 0 
L 172 0 
L 1081 4666 
z
M 1613 4147 
L 1275 2394 
L 2069 2394 
Q 2606 2394 2893 2669 
Q 3181 2944 3181 3456 
Q 3181 3784 2986 3965 
Q 2791 4147 2438 4147 
L 1613 4147 
z
" transform="scale(0.015625)"/>
      <path id="DejaVuSans-Oblique-62" d="M 3169 2138 
Q 3169 2591 2961 2847 
Q 2753 3103 2388 3103 
Q 2122 3103 1889 2973 
Q 1656 2844 1484 2597 
Q 1303 2338 1198 1995 
Q 1094 1653 1094 1313 
Q 1094 881 1298 636 
Q 1503 391 1863 391 
Q 2134 391 2365 517 
Q 2597 644 2772 891 
Q 2950 1147 3059 1487 
Q 3169 1828 3169 2138 
z
M 1381 2969 
Q 1594 3256 1914 3420 
Q 2234 3584 2584 3584 
Q 3122 3584 3439 3221 
Q 3756 2859 3756 2241 
Q 3756 1734 3570 1259 
Q 3384 784 3041 416 
Q 2816 172 2522 40 
Q 2228 -91 1906 -91 
Q 1566 -91 1316 65 
Q 1066 222 909 531 
L 806 0 
L 231 0 
L 1178 4863 
L 1753 4863 
L 1381 2969 
z
" transform="scale(0.015625)"/>
      <path id="DejaVuSans-Oblique-30" d="M 2444 4750 
Q 3078 4750 3414 4328 
Q 3750 3906 3750 3116 
Q 3750 2516 3592 1923 
Q 3434 1331 3150 863 
Q 2859 394 2467 151 
Q 2075 -91 1600 -91 
Q 988 -91 653 334 
Q 319 759 319 1544 
Q 319 2138 480 2733 
Q 641 3328 928 3794 
Q 1216 4263 1602 4506 
Q 1988 4750 2444 4750 
z
M 2406 4250 
Q 2169 4250 1955 4123 
Q 1741 3997 1569 3750 
Q 1281 3338 1111 2720 
Q 941 2103 941 1453 
Q 941 938 1123 673 
Q 1306 409 1663 409 
Q 1913 409 2125 536 
Q 2338 663 2509 909 
Q 2794 1319 2961 1936 
Q 3128 2553 3128 3206 
Q 3128 3722 2945 3986 
Q 2763 4250 2406 4250 
z
" transform="scale(0.015625)"/>
      <path id="DejaVuSans-Oblique-72" d="M 2853 2969 
Q 2766 3016 2653 3041 
Q 2541 3066 2413 3066 
Q 1953 3066 1609 2717 
Q 1266 2369 1153 1784 
L 800 0 
L 225 0 
L 909 3500 
L 1484 3500 
L 1375 2956 
Q 1603 3259 1920 3421 
Q 2238 3584 2597 3584 
Q 2691 3584 2781 3573 
Q 2872 3563 2963 3538 
L 2853 2969 
z
" transform="scale(0.015625)"/>
     </defs>
     <use xlink:href="#DejaVuSans-Oblique-20" transform="translate(0 0.015625)"/>
     <use xlink:href="#DejaVuSans-Oblique-20" transform="translate(31.787109 0.015625)"/>
     <use xlink:href="#DejaVuSans-Oblique-20" transform="translate(63.574219 0.015625)"/>
     <use xlink:href="#DejaVuSans-Oblique-20" transform="translate(95.361328 0.015625)"/>
     <use xlink:href="#DejaVuSans-Oblique-50" transform="translate(127.148438 0.015625)"/>
     <use xlink:href="#DejaVuSans-Oblique-61" transform="translate(187.451172 -16.390625) scale(0.7)"/>
     <use xlink:href="#DejaVuSans-Oblique-6d" transform="translate(230.34668 -16.390625) scale(0.7)"/>
     <use xlink:href="#DejaVuSans-Oblique-62" transform="translate(298.535156 -16.390625) scale(0.7)"/>
     <use xlink:href="#DejaVuSans-Oblique-20" transform="translate(345.703125 0.015625)"/>
     <use xlink:href="#DejaVuSans-Oblique-3d" transform="translate(377.490234 0.015625)"/>
     <use xlink:href="#DejaVuSans-Oblique-20" transform="translate(461.279297 0.015625)"/>
     <use xlink:href="#DejaVuSans-Oblique-20" transform="translate(493.066406 0.015625)"/>
     <use xlink:href="#DejaVuSans-Oblique-31" transform="translate(524.853516 0.015625)"/>
     <use xlink:href="#DejaVuSans-Oblique-2e" transform="translate(588.476562 0.015625)"/>
     <use xlink:href="#DejaVuSans-Oblique-30" transform="translate(620.263672 0.015625)"/>
     <use xlink:href="#DejaVuSans-Oblique-31" transform="translate(683.886719 0.015625)"/>
     <use xlink:href="#DejaVuSans-Oblique-20" transform="translate(747.509766 0.015625)"/>
     <use xlink:href="#DejaVuSans-5b" transform="translate(779.296875 0.015625)"/>
     <use xlink:href="#DejaVuSans-Oblique-62" transform="translate(818.310547 0.015625)"/>
     <use xlink:href="#DejaVuSans-Oblique-61" transform="translate(881.787109 0.015625)"/>
     <use xlink:href="#DejaVuSans-Oblique-72" transform="translate(943.066406 0.015625)"/>
     <use xlink:href="#DejaVuSans-5d" transform="translate(984.179688 0.015625)"/>
    </g>
    <!--     $T_{inf}$ =  30.00 $[C]$ -->
    <g transform="translate(947.565312 81.531687) scale(0.14 -0.14)">
     <defs>
      <path id="DejaVuSans-Oblique-54" d="M 378 4666 
L 4325 4666 
L 4225 4134 
L 2559 4134 
L 1759 0 
L 1125 0 
L 1925 4134 
L 275 4134 
L 378 4666 
z
" transform="scale(0.015625)"/>
      <path id="DejaVuSans-Oblique-66" d="M 3059 4863 
L 2969 4384 
L 2419 4384 
Q 2106 4384 1964 4261 
Q 1822 4138 1753 3809 
L 1691 3500 
L 2638 3500 
L 2553 3053 
L 1606 3053 
L 1013 0 
L 434 0 
L 1031 3053 
L 481 3053 
L 563 3500 
L 1113 3500 
L 1159 3744 
Q 1278 4363 1576 4613 
Q 1875 4863 2516 4863 
L 3059 4863 
z
" transform="scale(0.015625)"/>
      <path id="DejaVuSans-b0" d="M 1600 4347 
Q 1350 4347 1178 4173 
Q 1006 4000 1006 3750 
Q 1006 3503 1178 3333 
Q 1350 3163 1600 3163 
Q 1850 3163 2022 3333 
Q 2194 3503 2194 3750 
Q 2194 3997 2020 4172 
Q 1847 4347 1600 4347 
z
M 1600 4750 
Q 1800 4750 1984 4673 
Q 2169 4597 2303 4453 
Q 2447 4313 2519 4134 
Q 2591 3956 2591 3750 
Q 2591 3338 2302 3052 
Q 2013 2766 1594 2766 
Q 1172 2766 890 3047 
Q 609 3328 609 3750 
Q 609 4169 896 4459 
Q 1184 4750 1600 4750 
z
" transform="scale(0.015625)"/>
      <path id="DejaVuSans-Oblique-43" d="M 4447 4306 
L 4319 3641 
Q 4019 3944 3683 4091 
Q 3347 4238 2956 4238 
Q 2422 4238 2017 3981 
Q 1613 3725 1319 3200 
Q 1131 2863 1032 2486 
Q 934 2109 934 1728 
Q 934 1091 1264 756 
Q 1594 422 2222 422 
Q 2656 422 3056 561 
Q 3456 700 3834 978 
L 3688 231 
Q 3316 72 2936 -9 
Q 2556 -91 2175 -91 
Q 1278 -91 773 396 
Q 269 884 269 1753 
Q 269 2309 461 2846 
Q 653 3384 1013 3828 
Q 1394 4300 1883 4525 
Q 2372 4750 3022 4750 
Q 3422 4750 3780 4639 
Q 4138 4528 4447 4306 
z
" transform="scale(0.015625)"/>
     </defs>
     <use xlink:href="#DejaVuSans-Oblique-20" transform="translate(0 0.015625)"/>
     <use xlink:href="#DejaVuSans-Oblique-20" transform="translate(31.787109 0.015625)"/>
     <use xlink:href="#DejaVuSans-Oblique-20" transform="translate(63.574219 0.015625)"/>
     <use xlink:href="#DejaVuSans-Oblique-20" transform="translate(95.361328 0.015625)"/>
     <use xlink:href="#DejaVuSans-Oblique-54" transform="translate(127.148438 0.015625)"/>
     <use xlink:href="#DejaVuSans-Oblique-69" transform="translate(188.232422 -16.390625) scale(0.7)"/>
     <use xlink:href="#DejaVuSans-Oblique-6e" transform="translate(207.680664 -16.390625) scale(0.7)"/>
     <use xlink:href="#DejaVuSans-Oblique-66" transform="translate(252.045898 -16.390625) scale(0.7)"/>
     <use xlink:href="#DejaVuSans-Oblique-20" transform="translate(279.423828 0.015625)"/>
     <use xlink:href="#DejaVuSans-Oblique-3d" transform="translate(311.210938 0.015625)"/>
     <use xlink:href="#DejaVuSans-Oblique-20" transform="translate(395 0.015625)"/>
     <use xlink:href="#DejaVuSans-Oblique-20" transform="translate(426.787109 0.015625)"/>
     <use xlink:href="#DejaVuSans-Oblique-33" transform="translate(458.574219 0.015625)"/>
     <use xlink:href="#DejaVuSans-Oblique-30" transform="translate(522.197266 0.015625)"/>
     <use xlink:href="#DejaVuSans-Oblique-2e" transform="translate(585.820312 0.015625)"/>
     <use xlink:href="#DejaVuSans-Oblique-30" transform="translate(617.607422 0.015625)"/>
     <use xlink:href="#DejaVuSans-Oblique-30" transform="translate(681.230469 0.015625)"/>
     <use xlink:href="#DejaVuSans-Oblique-20" transform="translate(744.853516 0.015625)"/>
     <use xlink:href="#DejaVuSans-5b" transform="translate(776.640625 0.015625)"/>
     <use xlink:href="#DejaVuSans-b0" transform="translate(815.654297 0.015625)"/>
     <use xlink:href="#DejaVuSans-Oblique-43" transform="translate(865.654297 0.015625)"/>
     <use xlink:href="#DejaVuSans-5d" transform="translate(935.478516 0.015625)"/>
    </g>
    <!--     $P_{vapour}$ =  2338.1 $[Pa]$ -->
    <g transform="translate(947.565312 97.21125) scale(0.14 -0.14)">
     <defs>
      <path id="DejaVuSans-Oblique-76" d="M 459 3500 
L 1069 3500 
L 1581 525 
L 3256 3500 
L 3866 3500 
L 1875 0 
L 1100 0 
L 459 3500 
z
" transform="scale(0.015625)"/>
      <path id="DejaVuSans-Oblique-70" d="M 3175 2156 
Q 3175 2616 2975 2859 
Q 2775 3103 2400 3103 
Q 2144 3103 1911 2972 
Q 1678 2841 1497 2591 
Q 1319 2344 1212 1994 
Q 1106 1644 1106 1300 
Q 1106 863 1306 627 
Q 1506 391 1875 391 
Q 2147 391 2380 519 
Q 2613 647 2778 891 
Q 2956 1147 3065 1494 
Q 3175 1841 3175 2156 
z
M 1394 2969 
Q 1625 3272 1939 3428 
Q 2253 3584 2638 3584 
Q 3175 3584 3472 3232 
Q 3769 2881 3769 2247 
Q 3769 1728 3584 1258 
Q 3400 788 3053 416 
Q 2822 169 2531 39 
Q 2241 -91 1919 -91 
Q 1547 -91 1294 64 
Q 1041 219 916 525 
L 556 -1331 
L -19 -1331 
L 922 3500 
L 1497 3500 
L 1394 2969 
z
" transform="scale(0.015625)"/>
      <path id="DejaVuSans-Oblique-75" d="M 428 1388 
L 838 3500 
L 1416 3500 
L 1006 1409 
Q 975 1256 961 1147 
Q 947 1038 947 966 
Q 947 700 1109 554 
Q 1272 409 1569 409 
Q 2031 409 2368 721 
Q 2706 1034 2809 1563 
L 3194 3500 
L 3769 3500 
L 3091 0 
L 2516 0 
L 2631 550 
Q 2388 244 2052 76 
Q 1716 -91 1338 -91 
Q 878 -91 622 161 
Q 366 413 366 863 
Q 366 956 381 1097 
Q 397 1238 428 1388 
z
" transform="scale(0.015625)"/>
      <path id="DejaVuSans-Oblique-32" d="M 2950 2253 
L 934 525 
L 3163 525 
L 3053 0 
L 25 0 
L 128 531 
L 2234 2338 
Q 2656 2703 2832 2979 
Q 3009 3256 3009 3547 
Q 3009 3850 2796 4040 
Q 2584 4231 2241 4231 
Q 1944 4231 1581 4125 
Q 1219 4019 806 3816 
L 922 4441 
Q 1309 4594 1662 4672 
Q 2016 4750 2316 4750 
Q 2928 4750 3301 4425 
Q 3675 4100 3675 3572 
Q 3675 3216 3497 2892 
Q 3319 2569 2950 2253 
z
" transform="scale(0.015625)"/>
     </defs>
     <use xlink:href="#DejaVuSans-Oblique-20" transform="translate(0 0.015625)"/>
     <use xlink:href="#DejaVuSans-Oblique-20" transform="translate(31.787109 0.015625)"/>
     <use xlink:href="#DejaVuSans-Oblique-20" transform="translate(63.574219 0.015625)"/>
     <use xlink:href="#DejaVuSans-Oblique-20" transform="translate(95.361328 0.015625)"/>
     <use xlink:href="#DejaVuSans-Oblique-50" transform="translate(127.148438 0.015625)"/>
     <use xlink:href="#DejaVuSans-Oblique-76" transform="translate(187.451172 -16.390625) scale(0.7)"/>
     <use xlink:href="#DejaVuSans-Oblique-61" transform="translate(228.876953 -16.390625) scale(0.7)"/>
     <use xlink:href="#DejaVuSans-Oblique-70" transform="translate(271.772461 -16.390625) scale(0.7)"/>
     <use xlink:href="#DejaVuSans-Oblique-6f" transform="translate(316.206055 -16.390625) scale(0.7)"/>
     <use xlink:href="#DejaVuSans-Oblique-75" transform="translate(359.033203 -16.390625) scale(0.7)"/>
     <use xlink:href="#DejaVuSans-Oblique-72" transform="translate(403.398438 -16.390625) scale(0.7)"/>
     <use xlink:href="#DejaVuSans-Oblique-20" transform="translate(434.912109 0.015625)"/>
     <use xlink:href="#DejaVuSans-Oblique-3d" transform="translate(466.699219 0.015625)"/>
     <use xlink:href="#DejaVuSans-Oblique-20" transform="translate(550.488281 0.015625)"/>
     <use xlink:href="#DejaVuSans-Oblique-20" transform="translate(582.275391 0.015625)"/>
     <use xlink:href="#DejaVuSans-Oblique-32" transform="translate(614.0625 0.015625)"/>
     <use xlink:href="#DejaVuSans-Oblique-33" transform="translate(677.685547 0.015625)"/>
     <use xlink:href="#DejaVuSans-Oblique-33" transform="translate(741.308594 0.015625)"/>
     <use xlink:href="#DejaVuSans-Oblique-38" transform="translate(804.931641 0.015625)"/>
     <use xlink:href="#DejaVuSans-Oblique-2e" transform="translate(868.554688 0.015625)"/>
     <use xlink:href="#DejaVuSans-Oblique-31" transform="translate(900.341797 0.015625)"/>
     <use xlink:href="#DejaVuSans-Oblique-20" transform="translate(963.964844 0.015625)"/>
     <use xlink:href="#DejaVuSans-5b" transform="translate(995.751953 0.015625)"/>
     <use xlink:href="#DejaVuSans-Oblique-50" transform="translate(1034.765625 0.015625)"/>
     <use xlink:href="#DejaVuSans-Oblique-61" transform="translate(1095.068359 0.015625)"/>
     <use xlink:href="#DejaVuSans-5d" transform="translate(1156.347656 0.015625)"/>
    </g>
    <!-- Initial content: -->
    <g transform="translate(947.565312 114.316625) scale(0.14 -0.14)">
     <defs>
      <path id="DejaVuSans-Oblique-65" d="M 3078 2063 
Q 3088 2113 3092 2166 
Q 3097 2219 3097 2272 
Q 3097 2653 2873 2875 
Q 2650 3097 2266 3097 
Q 1838 3097 1509 2826 
Q 1181 2556 1013 2059 
L 3078 2063 
z
M 3578 1613 
L 903 1613 
Q 884 1494 878 1425 
Q 872 1356 872 1306 
Q 872 872 1139 634 
Q 1406 397 1894 397 
Q 2269 397 2603 481 
Q 2938 566 3225 728 
L 3116 159 
Q 2806 34 2476 -28 
Q 2147 -91 1806 -91 
Q 1078 -91 686 257 
Q 294 606 294 1247 
Q 294 1794 489 2264 
Q 684 2734 1063 3103 
Q 1306 3334 1642 3459 
Q 1978 3584 2356 3584 
Q 2950 3584 3301 3228 
Q 3653 2872 3653 2272 
Q 3653 2128 3634 1964 
Q 3616 1800 3578 1613 
z
" transform="scale(0.015625)"/>
     </defs>
     <use xlink:href="#DejaVuSans-Oblique-49"/>
     <use xlink:href="#DejaVuSans-Oblique-6e" x="29.492188"/>
     <use xlink:href="#DejaVuSans-Oblique-69" x="92.871094"/>
     <use xlink:href="#DejaVuSans-Oblique-74" x="120.654297"/>
     <use xlink:href="#DejaVuSans-Oblique-69" x="159.863281"/>
     <use xlink:href="#DejaVuSans-Oblique-61" x="187.646484"/>
     <use xlink:href="#DejaVuSans-Oblique-6c" x="248.925781"/>
     <use xlink:href="#DejaVuSans-Oblique-20" x="276.708984"/>
     <use xlink:href="#DejaVuSans-Oblique-63" x="308.496094"/>
     <use xlink:href="#DejaVuSans-Oblique-6f" x="363.476562"/>
     <use xlink:href="#DejaVuSans-Oblique-6e" x="424.658203"/>
     <use xlink:href="#DejaVuSans-Oblique-74" x="488.037109"/>
     <use xlink:href="#DejaVuSans-Oblique-65" x="527.246094"/>
     <use xlink:href="#DejaVuSans-Oblique-6e" x="588.769531"/>
     <use xlink:href="#DejaVuSans-Oblique-74" x="652.148438"/>
     <use xlink:href="#DejaVuSans-Oblique-3a" x="691.357422"/>
    </g>
    <!--     25% N2, 75% H2 -->
    <g transform="translate(947.565312 129.993562) scale(0.14 -0.14)">
     <defs>
      <path id="DejaVuSans-Oblique-35" d="M 3719 4666 
L 3622 4141 
L 1691 4141 
L 1466 2988 
Q 1609 3034 1757 3056 
Q 1906 3078 2059 3078 
Q 2706 3078 3081 2731 
Q 3456 2384 3456 1791 
Q 3456 1375 3264 994 
Q 3072 613 2719 325 
Q 2469 125 2108 17 
Q 1747 -91 1319 -91 
Q 1038 -91 744 -41 
Q 450 9 128 109 
L 244 697 
Q 531 556 820 486 
Q 1109 416 1403 416 
Q 2013 416 2411 781 
Q 2809 1147 2809 1697 
Q 2809 2103 2548 2328 
Q 2288 2553 1819 2553 
Q 1572 2553 1305 2495 
Q 1038 2438 756 2322 
L 1209 4666 
L 3719 4666 
z
" transform="scale(0.015625)"/>
      <path id="DejaVuSans-Oblique-25" d="M 1503 2209 
Q 1078 2209 829 2486 
Q 581 2763 581 3238 
Q 581 3913 943 4331 
Q 1306 4750 1888 4750 
Q 2313 4750 2561 4470 
Q 2809 4191 2809 3713 
Q 2809 3044 2446 2626 
Q 2084 2209 1503 2209 
z
M 2309 3694 
Q 2309 4022 2187 4187 
Q 2066 4353 1825 4353 
Q 1475 4353 1278 4050 
Q 1081 3747 1081 3206 
Q 1081 2919 1207 2762 
Q 1334 2606 1569 2606 
Q 1903 2606 2106 2903 
Q 2309 3200 2309 3694 
z
M 4997 1394 
Q 4997 1728 4878 1893 
Q 4759 2059 4519 2059 
Q 4172 2059 3973 1754 
Q 3775 1450 3775 909 
Q 3775 619 3901 462 
Q 4028 306 4263 306 
Q 4597 306 4797 603 
Q 4997 900 4997 1394 
z
M 4197 -91 
Q 3772 -91 3525 187 
Q 3278 466 3278 941 
Q 3278 1616 3639 2033 
Q 4000 2450 4581 2450 
Q 5006 2450 5251 2175 
Q 5497 1900 5497 1422 
Q 5497 750 5136 329 
Q 4775 -91 4197 -91 
z
M 5259 4750 
L 1403 -91 
L 903 -91 
L 4763 4750 
L 5259 4750 
z
" transform="scale(0.015625)"/>
      <path id="DejaVuSans-Oblique-4e" d="M 1081 4666 
L 1931 4666 
L 3219 666 
L 4000 4666 
L 4616 4666 
L 3706 0 
L 2853 0 
L 1569 4025 
L 788 0 
L 172 0 
L 1081 4666 
z
" transform="scale(0.015625)"/>
      <path id="DejaVuSans-Oblique-2c" d="M 575 794 
L 1234 794 
L 1131 256 
L 422 -744 
L 19 -744 
L 469 256 
L 575 794 
z
" transform="scale(0.015625)"/>
      <path id="DejaVuSans-Oblique-37" d="M 819 4666 
L 4013 4666 
L 3956 4397 
L 1288 0 
L 594 0 
L 3116 4134 
L 716 4134 
L 819 4666 
z
" transform="scale(0.015625)"/>
      <path id="DejaVuSans-Oblique-48" d="M 1081 4666 
L 1716 4666 
L 1344 2753 
L 3634 2753 
L 4006 4666 
L 4641 4666 
L 3731 0 
L 3097 0 
L 3531 2222 
L 1241 2222 
L 806 0 
L 172 0 
L 1081 4666 
z
" transform="scale(0.015625)"/>
     </defs>
     <use xlink:href="#DejaVuSans-Oblique-20"/>
     <use xlink:href="#DejaVuSans-Oblique-20" x="31.787109"/>
     <use xlink:href="#DejaVuSans-Oblique-20" x="63.574219"/>
     <use xlink:href="#DejaVuSans-Oblique-20" x="95.361328"/>
     <use xlink:href="#DejaVuSans-Oblique-32" x="127.148438"/>
     <use xlink:href="#DejaVuSans-Oblique-35" x="190.771484"/>
     <use xlink:href="#DejaVuSans-Oblique-25" x="254.394531"/>
     <use xlink:href="#DejaVuSans-Oblique-20" x="349.414062"/>
     <use xlink:href="#DejaVuSans-Oblique-4e" x="381.201172"/>
     <use xlink:href="#DejaVuSans-Oblique-32" x="456.005859"/>
     <use xlink:href="#DejaVuSans-Oblique-2c" x="519.628906"/>
     <use xlink:href="#DejaVuSans-Oblique-20" x="551.416016"/>
     <use xlink:href="#DejaVuSans-Oblique-37" x="583.203125"/>
     <use xlink:href="#DejaVuSans-Oblique-35" x="646.826172"/>
     <use xlink:href="#DejaVuSans-Oblique-25" x="710.449219"/>
     <use xlink:href="#DejaVuSans-Oblique-20" x="805.46875"/>
     <use xlink:href="#DejaVuSans-Oblique-48" x="837.255859"/>
     <use xlink:href="#DejaVuSans-Oblique-32" x="912.451172"/>
    </g>
    <!-- Excitation = sin_impulse_logf: -->
    <g transform="translate(947.565312 145.6705) scale(0.14 -0.14)">
     <defs>
      <path id="DejaVuSans-Oblique-78" d="M 3841 3500 
L 2234 1784 
L 3219 0 
L 2559 0 
L 1819 1388 
L 531 0 
L -166 0 
L 1556 1844 
L 641 3500 
L 1300 3500 
L 1972 2234 
L 3144 3500 
L 3841 3500 
z
" transform="scale(0.015625)"/>
      <path id="DejaVuSans-Oblique-5f" d="M 3263 -1063 
L 3263 -1509 
L -63 -1509 
L -63 -1063 
L 3263 -1063 
z
" transform="scale(0.015625)"/>
      <path id="DejaVuSans-Oblique-67" d="M 3816 3500 
L 3219 434 
Q 3047 -456 2561 -893 
Q 2075 -1331 1253 -1331 
Q 950 -1331 690 -1286 
Q 431 -1241 206 -1147 
L 313 -588 
Q 525 -725 762 -790 
Q 1000 -856 1269 -856 
Q 1816 -856 2167 -557 
Q 2519 -259 2631 300 
L 2681 563 
Q 2441 288 2122 144 
Q 1803 0 1434 0 
Q 903 0 598 351 
Q 294 703 294 1319 
Q 294 1803 478 2267 
Q 663 2731 997 3091 
Q 1219 3328 1514 3456 
Q 1809 3584 2131 3584 
Q 2484 3584 2746 3420 
Q 3009 3256 3138 2956 
L 3238 3500 
L 3816 3500 
z
M 2950 2216 
Q 2950 2641 2750 2872 
Q 2550 3103 2181 3103 
Q 1953 3103 1747 3012 
Q 1541 2922 1394 2759 
Q 1156 2491 1023 2127 
Q 891 1763 891 1375 
Q 891 944 1092 712 
Q 1294 481 1672 481 
Q 2219 481 2584 976 
Q 2950 1472 2950 2216 
z
" transform="scale(0.015625)"/>
     </defs>
     <use xlink:href="#DejaVuSans-Oblique-45"/>
     <use xlink:href="#DejaVuSans-Oblique-78" x="63.183594"/>
     <use xlink:href="#DejaVuSans-Oblique-63" x="122.363281"/>
     <use xlink:href="#DejaVuSans-Oblique-69" x="177.34375"/>
     <use xlink:href="#DejaVuSans-Oblique-74" x="205.126953"/>
     <use xlink:href="#DejaVuSans-Oblique-61" x="244.335938"/>
     <use xlink:href="#DejaVuSans-Oblique-74" x="305.615234"/>
     <use xlink:href="#DejaVuSans-Oblique-69" x="344.824219"/>
     <use xlink:href="#DejaVuSans-Oblique-6f" x="372.607422"/>
     <use xlink:href="#DejaVuSans-Oblique-6e" x="433.789062"/>
     <use xlink:href="#DejaVuSans-Oblique-20" x="497.167969"/>
     <use xlink:href="#DejaVuSans-Oblique-3d" x="528.955078"/>
     <use xlink:href="#DejaVuSans-Oblique-20" x="612.744141"/>
     <use xlink:href="#DejaVuSans-Oblique-73" x="644.53125"/>
     <use xlink:href="#DejaVuSans-Oblique-69" x="696.630859"/>
     <use xlink:href="#DejaVuSans-Oblique-6e" x="724.414062"/>
     <use xlink:href="#DejaVuSans-Oblique-5f" x="787.792969"/>
     <use xlink:href="#DejaVuSans-Oblique-69" x="837.792969"/>
     <use xlink:href="#DejaVuSans-Oblique-6d" x="865.576172"/>
     <use xlink:href="#DejaVuSans-Oblique-70" x="962.988281"/>
     <use xlink:href="#DejaVuSans-Oblique-75" x="1026.464844"/>
     <use xlink:href="#DejaVuSans-Oblique-6c" x="1089.84375"/>
     <use xlink:href="#DejaVuSans-Oblique-73" x="1117.626953"/>
     <use xlink:href="#DejaVuSans-Oblique-65" x="1169.726562"/>
     <use xlink:href="#DejaVuSans-Oblique-5f" x="1231.25"/>
     <use xlink:href="#DejaVuSans-Oblique-6c" x="1281.25"/>
     <use xlink:href="#DejaVuSans-Oblique-6f" x="1309.033203"/>
     <use xlink:href="#DejaVuSans-Oblique-67" x="1370.214844"/>
     <use xlink:href="#DejaVuSans-Oblique-66" x="1433.691406"/>
     <use xlink:href="#DejaVuSans-Oblique-3a" x="1468.896484"/>
    </g>
    <!--     p_A = -175585.09 [Pa] -->
    <g transform="translate(947.565312 161.736812) scale(0.14 -0.14)">
     <defs>
      <path id="DejaVuSans-Oblique-41" d="M 2356 4666 
L 3072 4666 
L 3938 0 
L 3278 0 
L 3084 1197 
L 984 1197 
L 325 0 
L -341 0 
L 2356 4666 
z
M 2584 4044 
L 1275 1722 
L 2988 1722 
L 2584 4044 
z
" transform="scale(0.015625)"/>
      <path id="DejaVuSans-Oblique-2d" d="M 391 2009 
L 2075 2009 
L 1978 1497 
L 288 1497 
L 391 2009 
z
" transform="scale(0.015625)"/>
      <path id="DejaVuSans-Oblique-39" d="M 281 103 
L 397 678 
Q 578 559 809 496 
Q 1041 434 1306 434 
Q 1953 434 2348 843 
Q 2744 1253 2938 2119 
Q 2706 1853 2401 1714 
Q 2097 1575 1747 1575 
Q 1178 1575 842 1904 
Q 506 2234 506 2791 
Q 506 3247 672 3639 
Q 838 4031 1159 4325 
Q 1378 4531 1665 4640 
Q 1953 4750 2278 4750 
Q 2925 4750 3300 4339 
Q 3675 3928 3675 3219 
Q 3675 2559 3501 1943 
Q 3328 1328 3022 878 
Q 2697 403 2240 156 
Q 1784 -91 1228 -91 
Q 988 -91 748 -42 
Q 509 6 281 103 
z
M 1131 2938 
Q 1131 2541 1337 2308 
Q 1544 2075 1894 2075 
Q 2378 2075 2706 2447 
Q 3034 2819 3034 3372 
Q 3034 3784 2831 4017 
Q 2628 4250 2272 4250 
Q 1788 4250 1459 3870 
Q 1131 3491 1131 2938 
z
" transform="scale(0.015625)"/>
      <path id="DejaVuSans-Oblique-5b" d="M 1363 4863 
L 2688 4863 
L 2597 4416 
L 1850 4416 
L 916 -397 
L 1663 -397 
L 1581 -844 
L 256 -844 
L 1363 4863 
z
" transform="scale(0.015625)"/>
      <path id="DejaVuSans-Oblique-5d" d="M 2188 4863 
L 1081 -844 
L -244 -844 
L -159 -397 
L 588 -397 
L 1522 4416 
L 781 4416 
L 863 4863 
L 2188 4863 
z
" transform="scale(0.015625)"/>
     </defs>
     <use xlink:href="#DejaVuSans-Oblique-20"/>
     <use xlink:href="#DejaVuSans-Oblique-20" x="31.787109"/>
     <use xlink:href="#DejaVuSans-Oblique-20" x="63.574219"/>
     <use xlink:href="#DejaVuSans-Oblique-20" x="95.361328"/>
     <use xlink:href="#DejaVuSans-Oblique-70" x="127.148438"/>
     <use xlink:href="#DejaVuSans-Oblique-5f" x="190.625"/>
     <use xlink:href="#DejaVuSans-Oblique-41" x="240.625"/>
     <use xlink:href="#DejaVuSans-Oblique-20" x="309.033203"/>
     <use xlink:href="#DejaVuSans-Oblique-3d" x="340.820312"/>
     <use xlink:href="#DejaVuSans-Oblique-20" x="424.609375"/>
     <use xlink:href="#DejaVuSans-Oblique-2d" x="456.396484"/>
     <use xlink:href="#DejaVuSans-Oblique-31" x="492.480469"/>
     <use xlink:href="#DejaVuSans-Oblique-37" x="556.103516"/>
     <use xlink:href="#DejaVuSans-Oblique-35" x="619.726562"/>
     <use xlink:href="#DejaVuSans-Oblique-35" x="683.349609"/>
     <use xlink:href="#DejaVuSans-Oblique-38" x="746.972656"/>
     <use xlink:href="#DejaVuSans-Oblique-35" x="810.595703"/>
     <use xlink:href="#DejaVuSans-Oblique-2e" x="874.21875"/>
     <use xlink:href="#DejaVuSans-Oblique-30" x="906.005859"/>
     <use xlink:href="#DejaVuSans-Oblique-39" x="969.628906"/>
     <use xlink:href="#DejaVuSans-Oblique-20" x="1033.251953"/>
     <use xlink:href="#DejaVuSans-Oblique-5b" x="1065.039062"/>
     <use xlink:href="#DejaVuSans-Oblique-50" x="1104.052734"/>
     <use xlink:href="#DejaVuSans-Oblique-61" x="1164.355469"/>
     <use xlink:href="#DejaVuSans-Oblique-5d" x="1225.634766"/>
    </g>
    <!--     logf =  3.88 [-] -->
    <g transform="translate(947.565312 177.803125) scale(0.14 -0.14)">
     <use xlink:href="#DejaVuSans-Oblique-20"/>
     <use xlink:href="#DejaVuSans-Oblique-20" x="31.787109"/>
     <use xlink:href="#DejaVuSans-Oblique-20" x="63.574219"/>
     <use xlink:href="#DejaVuSans-Oblique-20" x="95.361328"/>
     <use xlink:href="#DejaVuSans-Oblique-6c" x="127.148438"/>
     <use xlink:href="#DejaVuSans-Oblique-6f" x="154.931641"/>
     <use xlink:href="#DejaVuSans-Oblique-67" x="216.113281"/>
     <use xlink:href="#DejaVuSans-Oblique-66" x="279.589844"/>
     <use xlink:href="#DejaVuSans-Oblique-20" x="314.794922"/>
     <use xlink:href="#DejaVuSans-Oblique-3d" x="346.582031"/>
     <use xlink:href="#DejaVuSans-Oblique-20" x="430.371094"/>
     <use xlink:href="#DejaVuSans-Oblique-20" x="462.158203"/>
     <use xlink:href="#DejaVuSans-Oblique-33" x="493.945312"/>
     <use xlink:href="#DejaVuSans-Oblique-2e" x="557.568359"/>
     <use xlink:href="#DejaVuSans-Oblique-38" x="589.355469"/>
     <use xlink:href="#DejaVuSans-Oblique-38" x="652.978516"/>
     <use xlink:href="#DejaVuSans-Oblique-20" x="716.601562"/>
     <use xlink:href="#DejaVuSans-Oblique-5b" x="748.388672"/>
     <use xlink:href="#DejaVuSans-Oblique-2d" x="787.402344"/>
     <use xlink:href="#DejaVuSans-Oblique-5d" x="823.486328"/>
    </g>
    <!--     n =  2.00 [-] -->
    <g transform="translate(947.565312 193.480063) scale(0.14 -0.14)">
     <use xlink:href="#DejaVuSans-Oblique-20"/>
     <use xlink:href="#DejaVuSans-Oblique-20" x="31.787109"/>
     <use xlink:href="#DejaVuSans-Oblique-20" x="63.574219"/>
     <use xlink:href="#DejaVuSans-Oblique-20" x="95.361328"/>
     <use xlink:href="#DejaVuSans-Oblique-6e" x="127.148438"/>
     <use xlink:href="#DejaVuSans-Oblique-20" x="190.527344"/>
     <use xlink:href="#DejaVuSans-Oblique-3d" x="222.314453"/>
     <use xlink:href="#DejaVuSans-Oblique-20" x="306.103516"/>
     <use xlink:href="#DejaVuSans-Oblique-20" x="337.890625"/>
     <use xlink:href="#DejaVuSans-Oblique-32" x="369.677734"/>
     <use xlink:href="#DejaVuSans-Oblique-2e" x="433.300781"/>
     <use xlink:href="#DejaVuSans-Oblique-30" x="465.087891"/>
     <use xlink:href="#DejaVuSans-Oblique-30" x="528.710938"/>
     <use xlink:href="#DejaVuSans-Oblique-20" x="592.333984"/>
     <use xlink:href="#DejaVuSans-Oblique-5b" x="624.121094"/>
     <use xlink:href="#DejaVuSans-Oblique-2d" x="663.134766"/>
     <use xlink:href="#DejaVuSans-Oblique-5d" x="699.21875"/>
    </g>
   </g>
  </g>
  <g id="axes_2">
   <g id="matplotlib.axis_3">
    <g id="ytick_9">
     <g id="line2d_32">
      <defs>
       <path id="m4a94523b65" d="M 0 0 
L 3.5 0 
" style="stroke: #000000; stroke-width: 0.8"/>
      </defs>
      <g>
       <use xlink:href="#m4a94523b65" x="1180.24625" y="270.509274" style="stroke: #000000; stroke-width: 0.8"/>
      </g>
     </g>
     <g id="text_19">
      <!-- 1000 -->
      <g transform="translate(1187.24625 277.347867) scale(0.18 -0.18)">
       <use xlink:href="#DejaVuSans-31"/>
       <use xlink:href="#DejaVuSans-30" x="63.623047"/>
       <use xlink:href="#DejaVuSans-30" x="127.246094"/>
       <use xlink:href="#DejaVuSans-30" x="190.869141"/>
      </g>
     </g>
    </g>
    <g id="ytick_10">
     <g id="line2d_33">
      <g>
       <use xlink:href="#m4a94523b65" x="1180.24625" y="200.711291" style="stroke: #000000; stroke-width: 0.8"/>
      </g>
     </g>
     <g id="text_20">
      <!-- 2000 -->
      <g transform="translate(1187.24625 207.549885) scale(0.18 -0.18)">
       <use xlink:href="#DejaVuSans-32"/>
       <use xlink:href="#DejaVuSans-30" x="63.623047"/>
       <use xlink:href="#DejaVuSans-30" x="127.246094"/>
       <use xlink:href="#DejaVuSans-30" x="190.869141"/>
      </g>
     </g>
    </g>
    <g id="ytick_11">
     <g id="line2d_34">
      <g>
       <use xlink:href="#m4a94523b65" x="1180.24625" y="130.913309" style="stroke: #000000; stroke-width: 0.8"/>
      </g>
     </g>
     <g id="text_21">
      <!-- 3000 -->
      <g transform="translate(1187.24625 137.751903) scale(0.18 -0.18)">
       <use xlink:href="#DejaVuSans-33"/>
       <use xlink:href="#DejaVuSans-30" x="63.623047"/>
       <use xlink:href="#DejaVuSans-30" x="127.246094"/>
       <use xlink:href="#DejaVuSans-30" x="190.869141"/>
      </g>
     </g>
    </g>
    <g id="ytick_12">
     <g id="line2d_35">
      <g>
       <use xlink:href="#m4a94523b65" x="1180.24625" y="61.115326" style="stroke: #000000; stroke-width: 0.8"/>
      </g>
     </g>
     <g id="text_22">
      <!-- 4000 -->
      <g transform="translate(1187.24625 67.95392) scale(0.18 -0.18)">
       <use xlink:href="#DejaVuSans-34"/>
       <use xlink:href="#DejaVuSans-30" x="63.623047"/>
       <use xlink:href="#DejaVuSans-30" x="127.246094"/>
       <use xlink:href="#DejaVuSans-30" x="190.869141"/>
      </g>
     </g>
    </g>
    <g id="text_23">
     <!-- $T$ [K] -->
     <g style="fill: #ff0000" transform="translate(1250.733437 194.85) rotate(-90) scale(0.18 -0.18)">
      <defs>
       <path id="DejaVuSans-4b" d="M 628 4666 
L 1259 4666 
L 1259 2694 
L 3353 4666 
L 4166 4666 
L 1850 2491 
L 4331 0 
L 3500 0 
L 1259 2247 
L 1259 0 
L 628 0 
L 628 4666 
z
" transform="scale(0.015625)"/>
      </defs>
      <use xlink:href="#DejaVuSans-Oblique-54" transform="translate(0 0.015625)"/>
      <use xlink:href="#DejaVuSans-20" transform="translate(61.083984 0.015625)"/>
      <use xlink:href="#DejaVuSans-5b" transform="translate(92.871094 0.015625)"/>
      <use xlink:href="#DejaVuSans-4b" transform="translate(131.884766 0.015625)"/>
      <use xlink:href="#DejaVuSans-5d" transform="translate(197.460938 0.015625)"/>
     </g>
    </g>
   </g>
   <g id="line2d_36">
    <path d="M 114.973523 319.147998 
L 118.005268 319.257791 
L 119.941788 319.569813 
L 121.893445 320.117904 
L 124.862326 321.225186 
L 128.123389 322.383998 
L 130.383422 322.955521 
L 132.618645 323.288622 
L 135.046732 323.409009 
L 137.734916 323.311204 
L 141.356891 322.933562 
L 149.72233 321.736749 
L 156.854218 320.854511 
L 164.852128 320.106192 
L 181.054853 318.663017 
L 184.543016 318.088441 
L 186.8586 317.499658 
L 188.592544 316.842454 
L 189.96076 316.085237 
L 191.040124 315.229625 
L 191.947397 314.21207 
L 192.707413 313.009965 
L 193.374606 311.514384 
L 193.962142 309.619974 
L 194.524235 307.041915 
L 195.015754 303.67716 
L 195.420586 299.25632 
L 195.750242 293.075321 
L 196.016292 283.559445 
L 196.217443 267.450798 
L 196.354843 235.518142 
L 196.431879 152.142512 
L 196.460792 22.32 
L 196.530879 185.523364 
L 196.717122 258.111851 
L 196.984343 285.231806 
L 197.325534 299.367447 
L 197.730573 307.643497 
L 198.1958 312.923774 
L 198.715603 316.468611 
L 199.296085 318.962062 
L 199.901956 320.65733 
L 200.549708 321.839724 
L 201.211479 322.599055 
L 201.882016 323.050472 
L 202.623139 323.291141 
L 203.518307 323.33779 
L 204.602835 323.169819 
L 206.293317 322.654754 
L 215.442193 319.52348 
L 220.951878 318.093471 
L 232.385115 315.356246 
L 234.293024 315.160102 
L 235.884725 315.203141 
L 237.341305 315.459253 
L 238.797884 315.943836 
L 240.405374 316.721853 
L 242.717311 318.1232 
L 245.932537 320.048109 
L 247.854738 320.929005 
L 249.656802 321.507252 
L 251.529994 321.865117 
L 253.582749 322.019609 
L 256.075836 321.963886 
L 259.351234 321.649133 
L 265.658608 320.768791 
L 274.96524 319.289329 
L 278.316742 318.541745 
L 280.571842 317.82459 
L 282.210592 317.085437 
L 283.491578 316.278074 
L 284.557053 315.345771 
L 285.415238 314.311439 
L 286.200718 313.001015 
L 286.867662 311.438853 
L 287.501515 309.347085 
L 288.064319 306.723956 
L 288.555844 303.310909 
L 288.967166 298.785624 
L 289.311205 292.312506 
L 289.582198 282.731257 
L 289.795029 266.4144 
L 289.944878 235.227601 
L 290.050326 154.614632 
L 290.072971 139.93841 
L 290.129912 189.930925 
L 290.324992 264.746355 
L 290.588649 290.260241 
L 290.924529 303.179715 
L 291.328294 310.661765 
L 291.784993 315.297438 
L 292.300347 318.405872 
L 292.858237 320.505391 
L 293.464777 321.97069 
L 294.064739 322.895055 
L 294.686074 323.478582 
L 295.363933 323.81561 
L 296.125095 323.937335 
L 297.058596 323.840583 
L 298.245437 323.477604 
L 300.038006 322.667078 
L 303.028941 321.039827 
L 305.741771 319.34282 
L 307.460453 318.011619 
L 308.706407 316.772781 
L 309.705486 315.475448 
L 310.567909 313.984731 
L 311.328277 312.19585 
L 312.023375 309.985219 
L 312.640683 307.260104 
L 313.185669 303.761402 
L 313.635684 299.378206 
L 314.02707 293.316486 
L 314.374132 284.149873 
L 314.682644 269.44097 
L 315.034613 250.499166 
L 315.080049 251.280716 
L 315.206647 259.431222 
L 315.715216 292.911914 
L 316.108614 304.297397 
L 316.558236 311.239984 
L 317.059899 315.72464 
L 317.60923 318.755757 
L 318.210029 320.888069 
L 318.862274 322.409982 
L 319.522498 323.430203 
L 320.223977 324.110454 
L 320.956722 324.511556 
L 321.773624 324.700258 
L 322.728606 324.688056 
L 324.022265 324.425371 
L 325.923768 323.785662 
L 333.133742 321.190552 
L 337.246185 320.055617 
L 344.921824 317.995159 
L 347.255206 317.097388 
L 348.969388 316.200282 
L 350.287251 315.271891 
L 351.375604 314.252315 
L 352.355941 313.027025 
L 353.218827 311.573537 
L 354.001346 309.789886 
L 354.749485 307.529138 
L 355.434051 304.701296 
L 356.030205 301.234483 
L 356.57157 296.693679 
L 357.08836 290.313598 
L 358.108562 276.20298 
L 358.144133 276.251142 
L 358.234809 276.813461 
L 358.420417 279.833376 
L 359.823939 307.546387 
L 360.385355 312.589158 
L 360.986331 316.104181 
L 361.625546 318.608092 
L 362.310516 320.440848 
L 363.006338 321.729913 
L 363.740531 322.653527 
L 364.524723 323.286904 
L 365.369784 323.677767 
L 366.294223 323.860648 
L 367.434705 323.847671 
L 368.83023 323.607903 
L 370.96527 322.998676 
L 383.283938 318.907562 
L 386.009952 317.807404 
L 387.926109 316.797887 
L 389.408429 315.767108 
L 390.620556 314.655559 
L 391.668953 313.387245 
L 392.592232 311.908445 
L 393.415332 310.169627 
L 394.248762 307.897973 
L 395.02273 305.121416 
L 395.771128 301.562258 
L 396.695063 295.922195 
L 397.339706 292.518657 
L 397.634072 291.91198 
L 397.758324 291.951779 
L 397.913209 292.308662 
L 398.145654 293.488135 
L 398.552236 297.026736 
L 399.8739 309.202171 
L 400.58271 313.431844 
L 401.282445 316.36136 
L 402.026228 318.563383 
L 402.770944 320.135655 
L 403.57394 321.334774 
L 404.40044 322.176263 
L 405.272386 322.747397 
L 406.216852 323.098031 
L 407.315361 323.255709 
L 408.569743 323.210939 
L 410.289271 322.907709 
L 412.737175 322.225911 
L 417.238009 320.701408 
L 421.405357 319.087206 
L 423.865343 317.901117 
L 425.578332 316.850865 
L 427.052958 315.691468 
L 428.284635 314.439065 
L 429.355826 313.036141 
L 430.363726 311.336026 
L 431.398343 309.13086 
L 432.578358 306.062203 
L 433.998087 302.415494 
L 434.457591 301.782846 
L 434.728303 301.708493 
L 434.967823 301.867515 
L 435.278789 302.391637 
L 435.712699 303.651777 
L 436.315061 306.136433 
L 438.048736 313.5433 
L 438.942252 316.274174 
L 439.838604 318.305044 
L 440.736665 319.795599 
L 441.620844 320.850434 
L 442.560749 321.626524 
L 443.559797 322.15448 
L 444.652596 322.470297 
L 445.862477 322.58799 
L 447.397427 322.495158 
L 449.270888 322.146923 
L 451.822045 321.433787 
L 455.093313 320.281906 
L 458.085984 318.99689 
L 460.285215 317.820155 
L 462.073122 316.616596 
L 463.574218 315.345397 
L 464.981257 313.856759 
L 466.428451 311.976238 
L 468.981121 308.55681 
L 469.560015 308.189257 
L 470.014215 308.14522 
L 470.435972 308.327354 
L 470.905964 308.78805 
L 471.508911 309.731531 
L 472.393876 311.593574 
L 474.746886 316.70097 
L 475.835716 318.459104 
L 476.861604 319.712718 
L 477.861652 320.608765 
L 478.956048 321.286331 
L 480.063908 321.715361 
L 481.304363 321.95931 
L 482.692067 322.011061 
L 484.3716 321.851165 
L 486.454016 321.424145 
L 489.065382 320.651034 
L 491.94422 319.558651 
L 494.487515 318.358941 
L 496.726686 317.0555 
L 498.834314 315.570895 
L 502.531693 312.892668 
L 503.412281 312.583711 
L 504.149272 312.558692 
L 504.827071 312.756677 
L 505.55853 313.209269 
L 506.454827 314.049379 
L 507.882687 315.754103 
L 510.007261 318.242401 
L 511.342821 319.457472 
L 512.578953 320.293859 
L 513.873553 320.897368 
L 515.253316 321.281333 
L 516.6955 321.453624 
L 518.314482 321.432977 
L 520.339045 321.17355 
L 522.765537 320.620428 
L 525.488503 319.769337 
L 528.513331 318.583715 
L 532.176163 316.880746 
L 534.810985 315.739614 
L 536.206672 315.372831 
L 537.337567 315.3019 
L 538.409241 315.465046 
L 539.525109 315.873719 
L 540.832874 316.598946 
L 546.199909 319.846887 
L 547.753214 320.392352 
L 549.373889 320.732809 
L 551.19752 320.876395 
L 553.213971 320.799949 
L 555.585011 320.473477 
L 558.440279 319.838509 
L 561.956303 318.819007 
L 567.362061 317.237914 
L 569.155037 316.963043 
L 570.701869 316.941328 
L 572.189513 317.136236 
L 573.884171 317.588043 
L 576.676479 318.612082 
L 579.505014 319.57006 
L 581.664776 320.061177 
L 583.730453 320.304534 
L 585.889363 320.344271 
L 588.490446 320.156833 
L 591.620055 319.686759 
L 596.772814 318.637179 
L 600.298847 318.031213 
L 602.604719 317.858561 
L 604.68445 317.924301 
L 606.968961 318.231473 
L 610.789499 319.029971 
L 614.220343 319.646816 
L 616.936092 319.902428 
L 619.713628 319.932958 
L 622.826565 319.737235 
L 627.123557 319.219014 
L 633.243436 318.491677 
L 636.184997 318.386029 
L 638.963126 318.507431 
L 642.694965 318.919438 
L 648.3225 319.532581 
L 651.731376 319.660929 
L 655.294489 319.572155 
L 660.273464 319.199953 
L 666.875725 318.732102 
L 670.606347 318.713258 
L 674.825901 318.93694 
L 683.363511 319.45062 
L 687.64178 319.441045 
L 693.493551 319.178692 
L 700.832041 318.881959 
L 705.632661 318.932069 
L 721.235894 319.323899 
L 740.78247 319.062924 
L 752.98899 319.26916 
L 762.921898 319.097516 
L 771.302477 319.061788 
L 792.143923 319.165791 
L 805.235821 319.100587 
L 826.194892 319.151509 
L 841.46391 319.136091 
L 860.252821 319.145531 
L 880.197019 319.160311 
L 922.194265 319.154672 
L 998.653865 319.144572 
L 1129.518977 319.147383 
L 1129.518977 319.147383 
" clip-path="url(#p3b7c737e12)" style="fill: none; stroke-dasharray: 6.4,1.6,1,1.6; stroke-dashoffset: 0; stroke: #ff0000"/>
   </g>
   <g id="patch_8">
    <path d="M 64.24625 339.84 
L 64.24625 7.2 
" style="fill: none; stroke: #000000; stroke-width: 0.8; stroke-linejoin: miter; stroke-linecap: square"/>
   </g>
   <g id="patch_9">
    <path d="M 1180.24625 339.84 
L 1180.24625 7.2 
" style="fill: none; stroke: #000000; stroke-width: 0.8; stroke-linejoin: miter; stroke-linecap: square"/>
   </g>
   <g id="patch_10">
    <path d="M 64.24625 339.84 
L 1180.24625 339.84 
" style="fill: none; stroke: #000000; stroke-width: 0.8; stroke-linejoin: miter; stroke-linecap: square"/>
   </g>
   <g id="patch_11">
    <path d="M 64.24625 7.2 
L 1180.24625 7.2 
" style="fill: none; stroke: #000000; stroke-width: 0.8; stroke-linejoin: miter; stroke-linecap: square"/>
   </g>
  </g>
 </g>
 <defs>
  <clipPath id="p3b7c737e12">
   <rect x="64.24625" y="7.2" width="1116" height="332.64"/>
  </clipPath>
 </defs>
</svg>
