<?xml version="1.0" encoding="utf-8" standalone="no"?>
<!DOCTYPE svg PUBLIC "-//W3C//DTD SVG 1.1//EN"
  "http://www.w3.org/Graphics/SVG/1.1/DTD/svg11.dtd">
<svg xmlns:xlink="http://www.w3.org/1999/xlink" width="1209.040625pt" height="559.240625pt" viewBox="0 0 1209.040625 559.240625" xmlns="http://www.w3.org/2000/svg" version="1.1">
 <metadata>
  <rdf:RDF xmlns:dc="http://purl.org/dc/elements/1.1/" xmlns:cc="http://creativecommons.org/ns#" xmlns:rdf="http://www.w3.org/1999/02/22-rdf-syntax-ns#">
   <cc:Work>
    <dc:type rdf:resource="http://purl.org/dc/dcmitype/StillImage"/>
    <dc:date>2023-12-03T13:02:56.038067</dc:date>
    <dc:format>image/svg+xml</dc:format>
    <dc:creator>
     <cc:Agent>
      <dc:title>Matplotlib v3.7.0, https://matplotlib.org/</dc:title>
     </cc:Agent>
    </dc:creator>
   </cc:Work>
  </rdf:RDF>
 </metadata>
 <defs>
  <style type="text/css">*{stroke-linejoin: round; stroke-linecap: butt}</style>
 </defs>
 <g id="figure_1">
  <g id="patch_1">
   <path d="M 0 559.240625 
L 1209.040625 559.240625 
L 1209.040625 0 
L 0 0 
z
" style="fill: #ffffff"/>
  </g>
  <g id="axes_1">
   <g id="patch_2">
    <path d="M 85.840625 506.16 
L 1201.840625 506.16 
L 1201.840625 7.2 
L 85.840625 7.2 
z
" style="fill: #ffffff"/>
   </g>
   <g id="matplotlib.axis_1">
    <g id="xtick_1">
     <g id="line2d_1">
      <path d="M 136.567898 506.16 
L 136.567898 7.2 
" clip-path="url(#p49f2efd9e6)" style="fill: none; stroke: #b0b0b0; stroke-width: 0.8; stroke-linecap: square"/>
     </g>
     <g id="line2d_2">
      <defs>
       <path id="m7041127fd0" d="M 0 0 
L 0 3.5 
" style="stroke: #000000; stroke-width: 0.8"/>
      </defs>
      <g>
       <use xlink:href="#m7041127fd0" x="136.567898" y="506.16" style="stroke: #000000; stroke-width: 0.8"/>
      </g>
     </g>
     <g id="text_1">
      <!-- 0 -->
      <g transform="translate(130.841648 526.837188) scale(0.18 -0.18)">
       <defs>
        <path id="DejaVuSans-30" d="M 2034 4250 
Q 1547 4250 1301 3770 
Q 1056 3291 1056 2328 
Q 1056 1369 1301 889 
Q 1547 409 2034 409 
Q 2525 409 2770 889 
Q 3016 1369 3016 2328 
Q 3016 3291 2770 3770 
Q 2525 4250 2034 4250 
z
M 2034 4750 
Q 2819 4750 3233 4129 
Q 3647 3509 3647 2328 
Q 3647 1150 3233 529 
Q 2819 -91 2034 -91 
Q 1250 -91 836 529 
Q 422 1150 422 2328 
Q 422 3509 836 4129 
Q 1250 4750 2034 4750 
z
" transform="scale(0.015625)"/>
       </defs>
       <use xlink:href="#DejaVuSans-30"/>
      </g>
     </g>
    </g>
    <g id="xtick_2">
     <g id="line2d_3">
      <path d="M 359.804648 506.16 
L 359.804648 7.2 
" clip-path="url(#p49f2efd9e6)" style="fill: none; stroke: #b0b0b0; stroke-width: 0.8; stroke-linecap: square"/>
     </g>
     <g id="line2d_4">
      <g>
       <use xlink:href="#m7041127fd0" x="359.804648" y="506.16" style="stroke: #000000; stroke-width: 0.8"/>
      </g>
     </g>
     <g id="text_2">
      <!-- 200 -->
      <g transform="translate(342.625898 526.837188) scale(0.18 -0.18)">
       <defs>
        <path id="DejaVuSans-32" d="M 1228 531 
L 3431 531 
L 3431 0 
L 469 0 
L 469 531 
Q 828 903 1448 1529 
Q 2069 2156 2228 2338 
Q 2531 2678 2651 2914 
Q 2772 3150 2772 3378 
Q 2772 3750 2511 3984 
Q 2250 4219 1831 4219 
Q 1534 4219 1204 4116 
Q 875 4013 500 3803 
L 500 4441 
Q 881 4594 1212 4672 
Q 1544 4750 1819 4750 
Q 2544 4750 2975 4387 
Q 3406 4025 3406 3419 
Q 3406 3131 3298 2873 
Q 3191 2616 2906 2266 
Q 2828 2175 2409 1742 
Q 1991 1309 1228 531 
z
" transform="scale(0.015625)"/>
       </defs>
       <use xlink:href="#DejaVuSans-32"/>
       <use xlink:href="#DejaVuSans-30" x="63.623047"/>
       <use xlink:href="#DejaVuSans-30" x="127.246094"/>
      </g>
     </g>
    </g>
    <g id="xtick_3">
     <g id="line2d_5">
      <path d="M 583.041399 506.16 
L 583.041399 7.2 
" clip-path="url(#p49f2efd9e6)" style="fill: none; stroke: #b0b0b0; stroke-width: 0.8; stroke-linecap: square"/>
     </g>
     <g id="line2d_6">
      <g>
       <use xlink:href="#m7041127fd0" x="583.041399" y="506.16" style="stroke: #000000; stroke-width: 0.8"/>
      </g>
     </g>
     <g id="text_3">
      <!-- 400 -->
      <g transform="translate(565.862649 526.837188) scale(0.18 -0.18)">
       <defs>
        <path id="DejaVuSans-34" d="M 2419 4116 
L 825 1625 
L 2419 1625 
L 2419 4116 
z
M 2253 4666 
L 3047 4666 
L 3047 1625 
L 3713 1625 
L 3713 1100 
L 3047 1100 
L 3047 0 
L 2419 0 
L 2419 1100 
L 313 1100 
L 313 1709 
L 2253 4666 
z
" transform="scale(0.015625)"/>
       </defs>
       <use xlink:href="#DejaVuSans-34"/>
       <use xlink:href="#DejaVuSans-30" x="63.623047"/>
       <use xlink:href="#DejaVuSans-30" x="127.246094"/>
      </g>
     </g>
    </g>
    <g id="xtick_4">
     <g id="line2d_7">
      <path d="M 806.27815 506.16 
L 806.27815 7.2 
" clip-path="url(#p49f2efd9e6)" style="fill: none; stroke: #b0b0b0; stroke-width: 0.8; stroke-linecap: square"/>
     </g>
     <g id="line2d_8">
      <g>
       <use xlink:href="#m7041127fd0" x="806.27815" y="506.16" style="stroke: #000000; stroke-width: 0.8"/>
      </g>
     </g>
     <g id="text_4">
      <!-- 600 -->
      <g transform="translate(789.0994 526.837188) scale(0.18 -0.18)">
       <defs>
        <path id="DejaVuSans-36" d="M 2113 2584 
Q 1688 2584 1439 2293 
Q 1191 2003 1191 1497 
Q 1191 994 1439 701 
Q 1688 409 2113 409 
Q 2538 409 2786 701 
Q 3034 994 3034 1497 
Q 3034 2003 2786 2293 
Q 2538 2584 2113 2584 
z
M 3366 4563 
L 3366 3988 
Q 3128 4100 2886 4159 
Q 2644 4219 2406 4219 
Q 1781 4219 1451 3797 
Q 1122 3375 1075 2522 
Q 1259 2794 1537 2939 
Q 1816 3084 2150 3084 
Q 2853 3084 3261 2657 
Q 3669 2231 3669 1497 
Q 3669 778 3244 343 
Q 2819 -91 2113 -91 
Q 1303 -91 875 529 
Q 447 1150 447 2328 
Q 447 3434 972 4092 
Q 1497 4750 2381 4750 
Q 2619 4750 2861 4703 
Q 3103 4656 3366 4563 
z
" transform="scale(0.015625)"/>
       </defs>
       <use xlink:href="#DejaVuSans-36"/>
       <use xlink:href="#DejaVuSans-30" x="63.623047"/>
       <use xlink:href="#DejaVuSans-30" x="127.246094"/>
      </g>
     </g>
    </g>
    <g id="xtick_5">
     <g id="line2d_9">
      <path d="M 1029.5149 506.16 
L 1029.5149 7.2 
" clip-path="url(#p49f2efd9e6)" style="fill: none; stroke: #b0b0b0; stroke-width: 0.8; stroke-linecap: square"/>
     </g>
     <g id="line2d_10">
      <g>
       <use xlink:href="#m7041127fd0" x="1029.5149" y="506.16" style="stroke: #000000; stroke-width: 0.8"/>
      </g>
     </g>
     <g id="text_5">
      <!-- 800 -->
      <g transform="translate(1012.33615 526.837188) scale(0.18 -0.18)">
       <defs>
        <path id="DejaVuSans-38" d="M 2034 2216 
Q 1584 2216 1326 1975 
Q 1069 1734 1069 1313 
Q 1069 891 1326 650 
Q 1584 409 2034 409 
Q 2484 409 2743 651 
Q 3003 894 3003 1313 
Q 3003 1734 2745 1975 
Q 2488 2216 2034 2216 
z
M 1403 2484 
Q 997 2584 770 2862 
Q 544 3141 544 3541 
Q 544 4100 942 4425 
Q 1341 4750 2034 4750 
Q 2731 4750 3128 4425 
Q 3525 4100 3525 3541 
Q 3525 3141 3298 2862 
Q 3072 2584 2669 2484 
Q 3125 2378 3379 2068 
Q 3634 1759 3634 1313 
Q 3634 634 3220 271 
Q 2806 -91 2034 -91 
Q 1263 -91 848 271 
Q 434 634 434 1313 
Q 434 1759 690 2068 
Q 947 2378 1403 2484 
z
M 1172 3481 
Q 1172 3119 1398 2916 
Q 1625 2713 2034 2713 
Q 2441 2713 2670 2916 
Q 2900 3119 2900 3481 
Q 2900 3844 2670 4047 
Q 2441 4250 2034 4250 
Q 1625 4250 1398 4047 
Q 1172 3844 1172 3481 
z
" transform="scale(0.015625)"/>
       </defs>
       <use xlink:href="#DejaVuSans-38"/>
       <use xlink:href="#DejaVuSans-30" x="63.623047"/>
       <use xlink:href="#DejaVuSans-30" x="127.246094"/>
      </g>
     </g>
    </g>
    <g id="text_6">
     <!-- $t$ [μs] -->
     <g transform="translate(619.990625 548.260625) scale(0.18 -0.18)">
      <defs>
       <path id="DejaVuSans-Oblique-74" d="M 2706 3500 
L 2619 3053 
L 1472 3053 
L 1100 1153 
Q 1081 1047 1072 975 
Q 1063 903 1063 863 
Q 1063 663 1183 572 
Q 1303 481 1569 481 
L 2150 481 
L 2053 0 
L 1503 0 
Q 991 0 739 200 
Q 488 400 488 806 
Q 488 878 497 964 
Q 506 1050 525 1153 
L 897 3053 
L 409 3053 
L 500 3500 
L 978 3500 
L 1172 4494 
L 1747 4494 
L 1556 3500 
L 2706 3500 
z
" transform="scale(0.015625)"/>
       <path id="DejaVuSans-20" transform="scale(0.015625)"/>
       <path id="DejaVuSans-5b" d="M 550 4863 
L 1875 4863 
L 1875 4416 
L 1125 4416 
L 1125 -397 
L 1875 -397 
L 1875 -844 
L 550 -844 
L 550 4863 
z
" transform="scale(0.015625)"/>
       <path id="DejaVuSans-3bc" d="M 544 -1331 
L 544 3500 
L 1119 3500 
L 1119 1325 
Q 1119 872 1334 640 
Q 1550 409 1972 409 
Q 2434 409 2667 671 
Q 2900 934 2900 1459 
L 2900 3500 
L 3475 3500 
L 3475 806 
Q 3475 619 3529 530 
Q 3584 441 3700 441 
Q 3728 441 3778 458 
Q 3828 475 3916 513 
L 3916 50 
Q 3788 -22 3673 -56 
Q 3559 -91 3450 -91 
Q 3234 -91 3106 31 
Q 2978 153 2931 403 
Q 2775 156 2548 32 
Q 2322 -91 2016 -91 
Q 1697 -91 1473 31 
Q 1250 153 1119 397 
L 1119 -1331 
L 544 -1331 
z
" transform="scale(0.015625)"/>
       <path id="DejaVuSans-73" d="M 2834 3397 
L 2834 2853 
Q 2591 2978 2328 3040 
Q 2066 3103 1784 3103 
Q 1356 3103 1142 2972 
Q 928 2841 928 2578 
Q 928 2378 1081 2264 
Q 1234 2150 1697 2047 
L 1894 2003 
Q 2506 1872 2764 1633 
Q 3022 1394 3022 966 
Q 3022 478 2636 193 
Q 2250 -91 1575 -91 
Q 1294 -91 989 -36 
Q 684 19 347 128 
L 347 722 
Q 666 556 975 473 
Q 1284 391 1588 391 
Q 1994 391 2212 530 
Q 2431 669 2431 922 
Q 2431 1156 2273 1281 
Q 2116 1406 1581 1522 
L 1381 1569 
Q 847 1681 609 1914 
Q 372 2147 372 2553 
Q 372 3047 722 3315 
Q 1072 3584 1716 3584 
Q 2034 3584 2315 3537 
Q 2597 3491 2834 3397 
z
" transform="scale(0.015625)"/>
       <path id="DejaVuSans-5d" d="M 1947 4863 
L 1947 -844 
L 622 -844 
L 622 -397 
L 1369 -397 
L 1369 4416 
L 622 4416 
L 622 4863 
L 1947 4863 
z
" transform="scale(0.015625)"/>
      </defs>
      <use xlink:href="#DejaVuSans-Oblique-74" transform="translate(0 0.015625)"/>
      <use xlink:href="#DejaVuSans-20" transform="translate(39.208984 0.015625)"/>
      <use xlink:href="#DejaVuSans-5b" transform="translate(70.996094 0.015625)"/>
      <use xlink:href="#DejaVuSans-3bc" transform="translate(110.009766 0.015625)"/>
      <use xlink:href="#DejaVuSans-73" transform="translate(173.632812 0.015625)"/>
      <use xlink:href="#DejaVuSans-5d" transform="translate(225.732422 0.015625)"/>
     </g>
    </g>
   </g>
   <g id="matplotlib.axis_2">
    <g id="ytick_1">
     <g id="line2d_11">
      <path d="M 85.840625 506.16 
L 1201.840625 506.16 
" clip-path="url(#p49f2efd9e6)" style="fill: none; stroke: #b0b0b0; stroke-width: 0.8; stroke-linecap: square"/>
     </g>
     <g id="line2d_12">
      <defs>
       <path id="m074de9f0c7" d="M 0 0 
L -3.5 0 
" style="stroke: #000000; stroke-width: 0.8"/>
      </defs>
      <g>
       <use xlink:href="#m074de9f0c7" x="85.840625" y="506.16" style="stroke: #000000; stroke-width: 0.8"/>
      </g>
     </g>
     <g id="text_7">
      <!-- $\mathdefault{10^{-24}}$ -->
      <g transform="translate(28.620625 512.998594) scale(0.18 -0.18)">
       <defs>
        <path id="DejaVuSans-31" d="M 794 531 
L 1825 531 
L 1825 4091 
L 703 3866 
L 703 4441 
L 1819 4666 
L 2450 4666 
L 2450 531 
L 3481 531 
L 3481 0 
L 794 0 
L 794 531 
z
" transform="scale(0.015625)"/>
        <path id="DejaVuSans-2212" d="M 678 2272 
L 4684 2272 
L 4684 1741 
L 678 1741 
L 678 2272 
z
" transform="scale(0.015625)"/>
       </defs>
       <use xlink:href="#DejaVuSans-31" transform="translate(0 0.765625)"/>
       <use xlink:href="#DejaVuSans-30" transform="translate(63.623047 0.765625)"/>
       <use xlink:href="#DejaVuSans-2212" transform="translate(128.203125 39.046875) scale(0.7)"/>
       <use xlink:href="#DejaVuSans-32" transform="translate(186.855469 39.046875) scale(0.7)"/>
       <use xlink:href="#DejaVuSans-34" transform="translate(231.391602 39.046875) scale(0.7)"/>
      </g>
     </g>
    </g>
    <g id="ytick_2">
     <g id="line2d_13">
      <path d="M 85.840625 440.900557 
L 1201.840625 440.900557 
" clip-path="url(#p49f2efd9e6)" style="fill: none; stroke: #b0b0b0; stroke-width: 0.8; stroke-linecap: square"/>
     </g>
     <g id="line2d_14">
      <g>
       <use xlink:href="#m074de9f0c7" x="85.840625" y="440.900557" style="stroke: #000000; stroke-width: 0.8"/>
      </g>
     </g>
     <g id="text_8">
      <!-- $\mathdefault{10^{-22}}$ -->
      <g transform="translate(28.620625 447.739151) scale(0.18 -0.18)">
       <use xlink:href="#DejaVuSans-31" transform="translate(0 0.765625)"/>
       <use xlink:href="#DejaVuSans-30" transform="translate(63.623047 0.765625)"/>
       <use xlink:href="#DejaVuSans-2212" transform="translate(128.203125 39.046875) scale(0.7)"/>
       <use xlink:href="#DejaVuSans-32" transform="translate(186.855469 39.046875) scale(0.7)"/>
       <use xlink:href="#DejaVuSans-32" transform="translate(231.391602 39.046875) scale(0.7)"/>
      </g>
     </g>
    </g>
    <g id="ytick_3">
     <g id="line2d_15">
      <path d="M 85.840625 375.641115 
L 1201.840625 375.641115 
" clip-path="url(#p49f2efd9e6)" style="fill: none; stroke: #b0b0b0; stroke-width: 0.8; stroke-linecap: square"/>
     </g>
     <g id="line2d_16">
      <g>
       <use xlink:href="#m074de9f0c7" x="85.840625" y="375.641115" style="stroke: #000000; stroke-width: 0.8"/>
      </g>
     </g>
     <g id="text_9">
      <!-- $\mathdefault{10^{-20}}$ -->
      <g transform="translate(28.620625 382.479709) scale(0.18 -0.18)">
       <use xlink:href="#DejaVuSans-31" transform="translate(0 0.765625)"/>
       <use xlink:href="#DejaVuSans-30" transform="translate(63.623047 0.765625)"/>
       <use xlink:href="#DejaVuSans-2212" transform="translate(128.203125 39.046875) scale(0.7)"/>
       <use xlink:href="#DejaVuSans-32" transform="translate(186.855469 39.046875) scale(0.7)"/>
       <use xlink:href="#DejaVuSans-30" transform="translate(231.391602 39.046875) scale(0.7)"/>
      </g>
     </g>
    </g>
    <g id="ytick_4">
     <g id="line2d_17">
      <path d="M 85.840625 310.381672 
L 1201.840625 310.381672 
" clip-path="url(#p49f2efd9e6)" style="fill: none; stroke: #b0b0b0; stroke-width: 0.8; stroke-linecap: square"/>
     </g>
     <g id="line2d_18">
      <g>
       <use xlink:href="#m074de9f0c7" x="85.840625" y="310.381672" style="stroke: #000000; stroke-width: 0.8"/>
      </g>
     </g>
     <g id="text_10">
      <!-- $\mathdefault{10^{-18}}$ -->
      <g transform="translate(28.620625 317.220266) scale(0.18 -0.18)">
       <use xlink:href="#DejaVuSans-31" transform="translate(0 0.765625)"/>
       <use xlink:href="#DejaVuSans-30" transform="translate(63.623047 0.765625)"/>
       <use xlink:href="#DejaVuSans-2212" transform="translate(128.203125 39.046875) scale(0.7)"/>
       <use xlink:href="#DejaVuSans-31" transform="translate(186.855469 39.046875) scale(0.7)"/>
       <use xlink:href="#DejaVuSans-38" transform="translate(231.391602 39.046875) scale(0.7)"/>
      </g>
     </g>
    </g>
    <g id="ytick_5">
     <g id="line2d_19">
      <path d="M 85.840625 245.12223 
L 1201.840625 245.12223 
" clip-path="url(#p49f2efd9e6)" style="fill: none; stroke: #b0b0b0; stroke-width: 0.8; stroke-linecap: square"/>
     </g>
     <g id="line2d_20">
      <g>
       <use xlink:href="#m074de9f0c7" x="85.840625" y="245.12223" style="stroke: #000000; stroke-width: 0.8"/>
      </g>
     </g>
     <g id="text_11">
      <!-- $\mathdefault{10^{-16}}$ -->
      <g transform="translate(28.620625 251.960824) scale(0.18 -0.18)">
       <use xlink:href="#DejaVuSans-31" transform="translate(0 0.765625)"/>
       <use xlink:href="#DejaVuSans-30" transform="translate(63.623047 0.765625)"/>
       <use xlink:href="#DejaVuSans-2212" transform="translate(128.203125 39.046875) scale(0.7)"/>
       <use xlink:href="#DejaVuSans-31" transform="translate(186.855469 39.046875) scale(0.7)"/>
       <use xlink:href="#DejaVuSans-36" transform="translate(231.391602 39.046875) scale(0.7)"/>
      </g>
     </g>
    </g>
    <g id="ytick_6">
     <g id="line2d_21">
      <path d="M 85.840625 179.862787 
L 1201.840625 179.862787 
" clip-path="url(#p49f2efd9e6)" style="fill: none; stroke: #b0b0b0; stroke-width: 0.8; stroke-linecap: square"/>
     </g>
     <g id="line2d_22">
      <g>
       <use xlink:href="#m074de9f0c7" x="85.840625" y="179.862787" style="stroke: #000000; stroke-width: 0.8"/>
      </g>
     </g>
     <g id="text_12">
      <!-- $\mathdefault{10^{-14}}$ -->
      <g transform="translate(28.620625 186.701381) scale(0.18 -0.18)">
       <use xlink:href="#DejaVuSans-31" transform="translate(0 0.684375)"/>
       <use xlink:href="#DejaVuSans-30" transform="translate(63.623047 0.684375)"/>
       <use xlink:href="#DejaVuSans-2212" transform="translate(128.203125 38.965625) scale(0.7)"/>
       <use xlink:href="#DejaVuSans-31" transform="translate(186.855469 38.965625) scale(0.7)"/>
       <use xlink:href="#DejaVuSans-34" transform="translate(231.391602 38.965625) scale(0.7)"/>
      </g>
     </g>
    </g>
    <g id="ytick_7">
     <g id="line2d_23">
      <path d="M 85.840625 114.603345 
L 1201.840625 114.603345 
" clip-path="url(#p49f2efd9e6)" style="fill: none; stroke: #b0b0b0; stroke-width: 0.8; stroke-linecap: square"/>
     </g>
     <g id="line2d_24">
      <g>
       <use xlink:href="#m074de9f0c7" x="85.840625" y="114.603345" style="stroke: #000000; stroke-width: 0.8"/>
      </g>
     </g>
     <g id="text_13">
      <!-- $\mathdefault{10^{-12}}$ -->
      <g transform="translate(28.620625 121.441938) scale(0.18 -0.18)">
       <use xlink:href="#DejaVuSans-31" transform="translate(0 0.765625)"/>
       <use xlink:href="#DejaVuSans-30" transform="translate(63.623047 0.765625)"/>
       <use xlink:href="#DejaVuSans-2212" transform="translate(128.203125 39.046875) scale(0.7)"/>
       <use xlink:href="#DejaVuSans-31" transform="translate(186.855469 39.046875) scale(0.7)"/>
       <use xlink:href="#DejaVuSans-32" transform="translate(231.391602 39.046875) scale(0.7)"/>
      </g>
     </g>
    </g>
    <g id="ytick_8">
     <g id="line2d_25">
      <path d="M 85.840625 49.343902 
L 1201.840625 49.343902 
" clip-path="url(#p49f2efd9e6)" style="fill: none; stroke: #b0b0b0; stroke-width: 0.8; stroke-linecap: square"/>
     </g>
     <g id="line2d_26">
      <g>
       <use xlink:href="#m074de9f0c7" x="85.840625" y="49.343902" style="stroke: #000000; stroke-width: 0.8"/>
      </g>
     </g>
     <g id="text_14">
      <!-- $\mathdefault{10^{-10}}$ -->
      <g transform="translate(28.620625 56.182496) scale(0.18 -0.18)">
       <use xlink:href="#DejaVuSans-31" transform="translate(0 0.765625)"/>
       <use xlink:href="#DejaVuSans-30" transform="translate(63.623047 0.765625)"/>
       <use xlink:href="#DejaVuSans-2212" transform="translate(128.203125 39.046875) scale(0.7)"/>
       <use xlink:href="#DejaVuSans-31" transform="translate(186.855469 39.046875) scale(0.7)"/>
       <use xlink:href="#DejaVuSans-30" transform="translate(231.391602 39.046875) scale(0.7)"/>
      </g>
     </g>
    </g>
    <g id="text_15">
     <!-- $n_k$ [mol] -->
     <g transform="translate(20.877188 292.95) rotate(-90) scale(0.18 -0.18)">
      <defs>
       <path id="DejaVuSans-Oblique-6e" d="M 3566 2113 
L 3156 0 
L 2578 0 
L 2988 2091 
Q 3016 2238 3031 2350 
Q 3047 2463 3047 2528 
Q 3047 2791 2881 2937 
Q 2716 3084 2419 3084 
Q 1956 3084 1622 2776 
Q 1288 2469 1184 1941 
L 800 0 
L 225 0 
L 903 3500 
L 1478 3500 
L 1363 2950 
Q 1603 3253 1940 3418 
Q 2278 3584 2650 3584 
Q 3113 3584 3367 3334 
Q 3622 3084 3622 2631 
Q 3622 2519 3608 2391 
Q 3594 2263 3566 2113 
z
" transform="scale(0.015625)"/>
       <path id="DejaVuSans-Oblique-6b" d="M 1172 4863 
L 1747 4863 
L 1197 2028 
L 3169 3500 
L 3916 3500 
L 1716 1825 
L 3322 0 
L 2625 0 
L 1131 1709 
L 800 0 
L 225 0 
L 1172 4863 
z
" transform="scale(0.015625)"/>
       <path id="DejaVuSans-6d" d="M 3328 2828 
Q 3544 3216 3844 3400 
Q 4144 3584 4550 3584 
Q 5097 3584 5394 3201 
Q 5691 2819 5691 2113 
L 5691 0 
L 5113 0 
L 5113 2094 
Q 5113 2597 4934 2840 
Q 4756 3084 4391 3084 
Q 3944 3084 3684 2787 
Q 3425 2491 3425 1978 
L 3425 0 
L 2847 0 
L 2847 2094 
Q 2847 2600 2669 2842 
Q 2491 3084 2119 3084 
Q 1678 3084 1418 2786 
Q 1159 2488 1159 1978 
L 1159 0 
L 581 0 
L 581 3500 
L 1159 3500 
L 1159 2956 
Q 1356 3278 1631 3431 
Q 1906 3584 2284 3584 
Q 2666 3584 2933 3390 
Q 3200 3197 3328 2828 
z
" transform="scale(0.015625)"/>
       <path id="DejaVuSans-6f" d="M 1959 3097 
Q 1497 3097 1228 2736 
Q 959 2375 959 1747 
Q 959 1119 1226 758 
Q 1494 397 1959 397 
Q 2419 397 2687 759 
Q 2956 1122 2956 1747 
Q 2956 2369 2687 2733 
Q 2419 3097 1959 3097 
z
M 1959 3584 
Q 2709 3584 3137 3096 
Q 3566 2609 3566 1747 
Q 3566 888 3137 398 
Q 2709 -91 1959 -91 
Q 1206 -91 779 398 
Q 353 888 353 1747 
Q 353 2609 779 3096 
Q 1206 3584 1959 3584 
z
" transform="scale(0.015625)"/>
       <path id="DejaVuSans-6c" d="M 603 4863 
L 1178 4863 
L 1178 0 
L 603 0 
L 603 4863 
z
" transform="scale(0.015625)"/>
      </defs>
      <use xlink:href="#DejaVuSans-Oblique-6e" transform="translate(0 0.015625)"/>
      <use xlink:href="#DejaVuSans-Oblique-6b" transform="translate(63.378906 -16.390625) scale(0.7)"/>
      <use xlink:href="#DejaVuSans-20" transform="translate(106.650391 0.015625)"/>
      <use xlink:href="#DejaVuSans-5b" transform="translate(138.4375 0.015625)"/>
      <use xlink:href="#DejaVuSans-6d" transform="translate(177.451172 0.015625)"/>
      <use xlink:href="#DejaVuSans-6f" transform="translate(274.863281 0.015625)"/>
      <use xlink:href="#DejaVuSans-6c" transform="translate(336.044922 0.015625)"/>
      <use xlink:href="#DejaVuSans-5d" transform="translate(363.828125 0.015625)"/>
     </g>
    </g>
   </g>
   <g id="line2d_27">
    <path d="M 218.179821 560.240625 
L 218.32863 113.715196 
L 218.639283 113.65777 
L 251.716481 113.660049 
L 269.698884 113.658564 
L 1151.113352 113.658568 
L 1151.113352 113.658568 
" clip-path="url(#p49f2efd9e6)" style="fill: none; stroke: #e41a1c; stroke-linecap: square"/>
   </g>
   <g id="line2d_28">
    <path d="M 136.567898 50.327006 
L 218.204862 50.436785 
L 218.215983 50.878305 
L 218.320891 50.583191 
L 221.556521 50.580698 
L 1151.113352 50.573321 
L 1151.113352 50.573321 
" clip-path="url(#p49f2efd9e6)" style="fill: none; stroke: #377eb8; stroke-linecap: square"/>
   </g>
   <g id="line2d_29">
    <path d="M 138.131207 560.240625 
L 138.131288 460.467421 
L 138.131369 560.240625 
M 138.208849 560.240625 
L 138.208911 484.11869 
L 138.208973 560.240625 
M 138.366291 560.240625 
L 138.366336 527.749086 
L 138.366381 560.240625 
M 138.518205 560.240625 
L 138.582424 529.029489 
L 138.646624 560.240625 
M 139.129431 560.240625 
L 139.129511 525.438814 
L 139.12959 560.240625 
M 139.274539 560.240625 
L 139.274665 504.630151 
L 139.274792 560.240625 
M 139.419642 560.240625 
L 139.41982 482.056172 
L 139.419998 560.240625 
M 139.564746 560.240625 
L 139.564975 459.658358 
L 139.565204 560.240625 
M 139.70985 560.240625 
L 139.71013 437.246499 
L 139.782959 560.240625 
M 139.927699 560.240625 
L 139.927862 488.659346 
L 140.000541 560.240625 
M 140.145513 560.240625 
L 140.226755 468.376058 
L 140.226988 560.240625 
M 140.388828 560.240625 
L 140.389075 463.370679 
L 140.389321 560.240625 
M 140.551095 560.240625 
L 140.551395 442.332243 
L 140.632819 560.240625 
M 140.956985 560.240625 
L 140.957196 477.610034 
L 140.957406 560.240625 
M 141.266567 560.240625 
L 141.266785 454.811819 
L 141.267004 560.240625 
M 141.398729 560.240625 
L 141.399003 427.721247 
L 141.465317 560.240625 
M 141.597149 560.240625 
L 141.59733 472.67495 
L 141.597512 560.240625 
M 141.795544 560.240625 
L 141.86869 454.261316 
L 141.868932 560.240625 
M 142.014501 560.240625 
L 142.014754 449.381365 
L 142.015008 560.240625 
M 142.160519 560.240625 
L 142.160819 429.125198 
L 142.219141 560.240625 
M 142.313591 560.240625 
L 142.3612 411.190398 
L 142.361422 560.240625 
M 142.50323 560.240625 
L 142.503431 424.668139 
L 142.503587 560.240625 
M 142.613545 560.240625 
L 142.61366 460.527421 
L 142.613775 560.240625 
M 142.723807 560.240625 
L 142.771981 485.217195 
L 142.772094 560.240625 
M 142.868148 560.240625 
L 142.916258 521.091639 
L 142.916318 560.240625 
M 143.040491 560.240625 
L 143.080014 536.157496 
L 143.080065 560.240625 
M 143.59229 560.240625 
L 143.679604 534.921236 
L 143.76685 513.004705 
L 143.766979 560.240625 
M 143.941133 560.240625 
L 143.941341 484.151062 
L 143.941549 560.240625 
M 144.115528 560.240625 
L 144.115832 448.887241 
L 144.116137 560.240625 
M 144.271468 560.240625 
L 144.284284 464.275587 
L 144.284322 560.240625 
M 144.322256 560.240625 
L 144.322283 492.379653 
L 144.33498 560.240625 
M 144.41092 560.240625 
L 144.410946 527.297492 
L 144.410972 560.240625 
M 145.674202 560.240625 
L 145.674242 546.948533 
L 145.674281 560.240625 
M 145.877913 560.240625 
L 145.878087 509.088266 
L 145.878261 560.240625 
M 146.094913 560.240625 
L 146.095197 476.921671 
L 146.095481 560.240625 
M 146.312041 560.240625 
L 146.312307 482.27738 
L 146.312573 560.240625 
M 146.6655 560.240625 
L 146.665685 512.071406 
L 146.66587 560.240625 
M 146.910462 560.240625 
L 146.910507 548.501331 
L 147.032932 560.240625 
M 147.431612 560.240625 
L 147.431841 507.474772 
L 147.43207 560.240625 
M 147.984448 560.240625 
L 147.984863 464.546828 
L 148.261392 560.240625 
M 148.53769 560.240625 
L 148.537884 515.392377 
L 148.67614 494.474886 
L 148.676425 560.240625 
M 148.952368 560.240625 
L 148.952651 494.992563 
L 148.952934 560.240625 
M 149.367251 560.240625 
L 149.367417 522.091867 
L 149.367583 560.240625 
M 149.643887 560.240625 
L 149.643928 550.893023 
L 149.710329 560.240625 
M 166.89465 560.240625 
L 166.894723 552.930833 
L 166.939228 560.240625 
M 218.077032 560.240625 
L 218.213726 94.438386 
L 218.387847 144.77267 
L 218.574937 146.307289 
L 218.806334 146.54035 
L 219.313016 146.678222 
L 220.684695 146.761952 
L 226.904935 146.804165 
L 249.079327 146.967345 
L 250.312757 147.175585 
L 250.823192 147.470608 
L 251.131728 147.917473 
L 251.361498 148.677218 
L 251.573851 150.252326 
L 252.364291 157.5282 
L 252.708947 157.959312 
L 253.200736 158.20539 
L 254.077375 158.361038 
L 256.154537 158.452176 
L 264.702961 158.502946 
L 287.707586 158.667449 
L 289.001139 158.877611 
L 289.609457 159.188938 
L 290.059046 159.681577 
L 291.441333 161.496465 
L 292.10874 161.768598 
L 293.19362 161.941745 
L 295.535812 162.046275 
L 304.031052 162.111446 
L 322.897616 162.291215 
L 324.721283 162.516253 
L 325.798255 162.869784 
L 328.277246 163.838163 
L 329.787674 164.032728 
L 332.802737 164.154031 
L 342.603951 164.243322 
L 356.21828 164.432644 
L 358.880423 164.681321 
L 361.432984 165.184513 
L 363.642622 165.508989 
L 366.610843 165.684074 
L 373.466216 165.808609 
L 389.196769 166.094224 
L 393.028939 166.406206 
L 398.568603 166.889856 
L 404.183509 167.070724 
L 423.935869 167.588836 
L 435.514077 168.175105 
L 463.707433 169.083384 
L 475.550397 169.422662 
L 491.963902 169.937395 
L 508.202101 170.424636 
L 553.548608 171.711085 
L 599.439918 172.918642 
L 686.011023 174.950505 
L 769.818597 176.691016 
L 868.70509 178.520202 
L 979.950849 180.35002 
L 1105.744791 182.191877 
L 1151.113352 182.807221 
L 1151.113352 182.807221 
" clip-path="url(#p49f2efd9e6)" style="fill: none; stroke: #4daf4a; stroke-linecap: square"/>
   </g>
   <g id="line2d_30">
    <path d="M 218.180448 560.240625 
L 218.216292 134.622428 
L 218.32632 189.374832 
L 218.536055 238.447186 
L 219.122359 417.638988 
L 219.128029 417.070979 
L 219.132462 415.204402 
L 219.150196 433.038765 
L 219.197848 432.780038 
L 219.24725 430.148487 
L 219.470112 492.588313 
L 219.481465 457.138079 
L 219.487883 560.240625 
M 219.491081 560.240625 
L 219.491085 477.579059 
L 219.491089 560.240625 
M 219.494287 560.240625 
L 219.500705 457.028041 
L 219.518252 560.240625 
M 219.523333 560.240625 
L 219.538614 458.668531 
L 219.628502 520.644352 
L 219.669156 533.337964 
L 219.67932 516.614863 
L 219.679334 560.240625 
M 219.699638 560.240625 
L 219.756159 493.937385 
L 219.756192 560.240625 
M 219.787867 560.240625 
L 219.787877 541.343666 
L 219.82982 560.240625 
M 219.838772 560.240625 
L 219.86717 537.282168 
L 219.867182 560.240625 
M 219.898868 560.240625 
L 219.898888 521.009419 
L 219.912299 560.240625 
M 219.976701 560.240625 
L 219.978181 558.704216 
L 219.978182 560.240625 
M 220.062 560.240625 
L 220.073333 533.067675 
L 220.073347 560.240625 
M 220.130482 560.240625 
L 220.136768 518.901899 
L 220.152552 560.240625 
M 220.173566 560.240625 
L 220.177653 522.166935 
L 220.177664 560.240625 
M 220.212444 560.240625 
L 220.213331 548.484608 
L 220.213333 560.240625 
M 220.227773 560.240625 
L 220.227778 523.633977 
L 220.227784 560.240625 
M 220.242221 560.240625 
L 220.242225 533.340805 
L 220.243495 560.240625 
M 220.257054 560.240625 
L 220.257056 546.611723 
L 220.257058 560.240625 
M 220.26535 560.240625 
L 220.265353 539.91117 
L 220.265356 560.240625 
M 220.274528 560.240625 
L 220.274532 534.368406 
L 220.275993 560.240625 
M 220.314997 560.240625 
L 220.314999 549.518111 
L 220.315002 560.240625 
M 220.329763 560.240625 
L 220.329766 547.643869 
L 220.330968 560.240625 
M 220.746908 560.240625 
L 220.746913 552.674876 
L 220.747112 560.240625 
M 228.609739 560.240625 
L 228.614523 556.748423 
L 228.614531 560.240625 
M 228.885072 560.240625 
L 228.885074 557.246796 
L 228.885075 560.240625 
M 228.941868 560.240625 
L 228.941871 556.011919 
L 228.941873 560.240625 
M 228.998659 560.240625 
L 228.998668 544.758852 
L 228.998677 560.240625 
M 229.055452 560.240625 
L 229.055465 537.710913 
L 229.067468 560.240625 
M 232.739271 560.240625 
L 232.739337 539.852789 
L 232.841759 560.240625 
M 233.046539 560.240625 
L 233.149013 516.360433 
L 233.149155 560.240625 
M 233.906104 560.240625 
L 233.987998 513.203994 
L 233.988096 560.240625 
M 235.945654 560.240625 
L 235.950412 558.00501 
L 235.951203 560.240625 
M 237.801027 560.240625 
L 237.801039 556.902298 
L 237.801054 560.240625 
M 243.72844 560.240625 
L 244.692941 549.343573 
L 245.607399 536.658977 
L 245.800687 533.407074 
L 246.59958 518.627545 
L 247.429972 499.046504 
L 248.21225 474.982876 
L 248.420908 467.32001 
L 249.186999 433.9515 
L 249.972038 390.391609 
L 250.725252 332.804754 
L 251.79568 238.805682 
L 251.855124 239.705144 
L 251.966176 247.201707 
L 252.188761 280.398156 
L 252.976226 443.64621 
L 252.983723 442.110478 
L 252.991221 473.573051 
L 253.100212 468.903108 
L 253.107393 466.728 
L 253.143294 482.928836 
L 253.164835 476.538014 
L 253.232509 474.675982 
L 253.23253 560.240625 
M 253.241578 560.240625 
L 253.243837 486.044283 
L 253.318616 560.240625 
M 253.337316 560.240625 
L 253.33733 489.066114 
L 253.337343 560.240625 
M 253.355455 560.240625 
L 253.355465 511.533461 
L 253.355475 560.240625 
M 253.375872 560.240625 
L 253.382692 472.879025 
L 253.393792 560.240625 
M 253.404871 560.240625 
L 253.415971 478.910118 
L 253.513899 539.075505 
L 253.602955 555.599488 
L 253.620068 537.444917 
L 253.62008 560.240625 
M 253.852547 560.240625 
L 253.86644 534.101622 
L 253.875037 560.240625 
M 253.985355 560.240625 
L 253.987045 553.667799 
L 253.987049 560.240625 
M 254.067433 560.240625 
L 254.067448 535.571481 
L 254.068426 560.240625 
M 254.080682 560.240625 
L 254.080683 543.028567 
L 254.082298 560.240625 
M 254.229358 560.240625 
L 254.230683 547.454244 
L 254.230688 560.240625 
M 265.873716 560.240625 
L 265.88932 551.229011 
L 265.890468 560.240625 
M 266.235064 560.240625 
L 266.242338 546.396125 
L 266.242349 560.240625 
M 266.309705 560.240625 
L 266.309727 526.427523 
L 266.330619 560.240625 
M 271.014787 560.240625 
L 271.043629 553.07309 
L 271.056144 560.240625 
M 272.241924 560.240625 
L 272.242031 540.848496 
L 272.242137 560.240625 
M 272.730792 560.240625 
L 272.840513 515.498545 
L 272.840668 560.240625 
M 273.121725 560.240625 
L 273.121733 542.538086 
L 273.121742 560.240625 
M 276.460731 560.240625 
L 276.460784 545.510245 
L 276.573442 549.027696 
L 276.573482 560.240625 
M 276.862521 560.240625 
L 276.868398 550.081099 
L 276.875701 560.240625 
M 281.768949 560.240625 
L 281.865748 541.733008 
L 281.865804 560.240625 
M 282.155934 560.240625 
L 282.156034 527.454022 
L 282.170009 560.240625 
M 282.191489 560.240625 
L 282.201702 551.348544 
L 282.201706 560.240625 
M 282.232145 560.240625 
L 282.247369 554.788369 
L 282.272883 560.240625 
M 282.389341 560.240625 
L 282.399595 553.617287 
L 282.437551 560.240625 
M 282.482462 560.240625 
L 282.522104 556.466296 
L 282.557872 560.240625 
M 282.605303 560.240625 
L 282.79038 554.689516 
L 282.914782 557.03886 
L 282.976983 552.623615 
L 283.048646 553.833524 
L 283.191973 550.793804 
L 283.263636 551.473173 
L 283.406962 547.252666 
L 283.478625 549.508373 
L 283.621952 541.456047 
L 283.765278 551.391577 
L 283.836941 533.799007 
L 283.918138 540.296244 
L 284.080531 536.944217 
L 284.161728 537.151806 
L 284.324122 529.558381 
L 284.486515 537.730928 
L 284.621736 517.496658 
L 284.621827 560.240625 
M 284.824435 560.240625 
L 284.824569 497.501709 
L 284.916863 560.240625 
M 284.953729 560.240625 
L 284.995761 498.888815 
L 284.995806 560.240625 
M 285.042823 560.240625 
L 285.042876 487.833851 
L 285.13714 560.240625 
M 285.193018 560.240625 
L 285.290259 509.509 
L 285.359931 514.618826 
L 285.397204 507.693094 
L 285.434477 510.345481 
L 285.47175 520.098291 
L 285.509023 504.089753 
L 285.546297 500.497347 
L 285.546367 560.240625 
M 285.645304 560.240625 
L 285.645378 484.309967 
L 285.738091 502.4669 
L 285.843713 500.140377 
L 286.508293 479.149108 
L 286.593383 484.017409 
L 286.668906 462.527235 
L 286.73449 472.56011 
L 286.743806 472.866187 
L 286.771755 471.578441 
L 288.011255 419.594593 
L 290.242686 306.533192 
L 290.35984 305.694514 
L 290.402473 305.842663 
L 290.502776 307.351895 
L 290.674887 314.04326 
L 290.94695 335.349733 
L 291.464734 396.987024 
L 291.919438 464.105401 
L 291.952166 462.370045 
L 291.963075 499.692889 
L 292.064081 480.477784 
L 292.073013 470.864418 
L 292.162331 493.473169 
L 292.171262 490.822822 
L 292.23863 499.706123 
L 292.250492 502.921826 
L 292.262353 498.379466 
L 292.266154 560.240625 
M 292.281102 560.240625 
L 292.30348 489.014758 
L 292.362026 560.240625 
M 292.385357 560.240625 
L 292.408733 477.457142 
L 292.412583 560.240625 
M 292.416425 560.240625 
L 292.416428 504.777854 
L 292.416432 560.240625 
M 292.420884 560.240625 
L 292.425957 520.478782 
L 292.501962 560.240625 
M 292.518559 560.240625 
L 292.518571 511.318921 
L 292.518587 560.240625 
M 292.545622 560.240625 
L 292.545638 499.46675 
L 292.545654 560.240625 
M 292.570703 560.240625 
L 292.57071 535.03386 
L 292.577987 560.240625 
M 292.578814 560.240625 
L 292.594001 509.20284 
L 292.601768 560.240625 
M 292.617289 560.240625 
L 292.625056 533.940667 
L 292.640588 560.240625 
M 292.656102 560.240625 
L 292.656111 524.791898 
L 292.656119 560.240625 
M 292.670298 560.240625 
L 292.68315 520.549243 
L 292.683158 560.240625 
M 292.708847 560.240625 
L 292.70885 546.911828 
L 292.708853 560.240625 
M 292.721696 560.240625 
L 292.7217 538.394998 
L 292.721705 560.240625 
M 292.734545 560.240625 
L 292.734551 530.389825 
L 292.741265 560.240625 
M 292.775703 560.240625 
L 292.784038 524.184454 
L 292.791507 560.240625 
M 292.796335 560.240625 
L 292.80418 515.950945 
L 292.804194 560.240625 
M 292.824315 560.240625 
L 292.824322 538.213382 
L 292.831067 560.240625 
M 292.838 560.240625 
L 292.871488 519.189978 
L 292.871504 560.240625 
M 292.903412 560.240625 
L 292.903426 516.04435 
L 292.903439 560.240625 
M 292.97849 560.240625 
L 292.978499 535.812396 
L 292.978508 560.240625 
M 293.038104 560.240625 
L 293.052002 541.927928 
L 293.05201 560.240625 
M 293.079776 560.240625 
L 293.079792 523.945269 
L 293.086532 560.240625 
M 293.177843 560.240625 
L 293.184834 535.469923 
L 293.184841 560.240625 
M 293.219979 560.240625 
L 293.219979 558.823087 
L 293.219979 560.240625 
M 293.425125 560.240625 
L 293.430038 555.256313 
L 293.431193 560.240625 
M 293.503225 560.240625 
L 293.503235 542.850679 
L 293.503784 560.240625 
M 306.651479 560.240625 
L 306.651491 557.368343 
L 306.782835 540.552707 
L 306.782916 560.240625 
M 307.08743 560.240625 
L 307.087438 545.286618 
L 307.087445 560.240625 
M 307.166402 560.240625 
L 307.166412 547.250326 
L 307.183095 560.240625 
M 309.895812 560.240625 
L 310.053338 535.531444 
L 310.053436 560.240625 
M 310.383914 560.240625 
L 310.383923 545.15385 
L 310.383932 560.240625 
M 310.533496 560.240625 
L 310.539163 541.73188 
L 310.54936 560.240625 
M 310.790397 560.240625 
L 310.790398 559.302588 
L 310.790399 560.240625 
M 312.80158 560.240625 
L 312.91084 532.823529 
L 312.910916 560.240625 
M 315.248215 560.240625 
L 315.248228 556.664815 
L 315.360325 535.666843 
L 315.360395 560.240625 
M 318.647601 560.240625 
L 318.786058 551.209797 
L 318.786082 560.240625 
M 319.037213 560.240625 
L 319.121043 518.197615 
L 319.121153 560.240625 
M 319.218689 560.240625 
L 319.232595 552.007451 
L 319.232599 560.240625 
M 319.260392 560.240625 
L 319.260402 537.976042 
L 319.274306 560.240625 
M 319.316009 560.240625 
L 319.343822 521.371004 
L 319.371638 560.240625 
M 319.427218 560.240625 
L 319.427242 533.38343 
L 319.45994 560.240625 
M 319.464951 560.240625 
L 319.498942 512.913053 
L 319.498995 560.240625 
M 319.587721 560.240625 
L 319.587768 497.175378 
L 319.64523 560.240625 
M 319.729695 560.240625 
L 319.729733 507.001234 
L 319.775982 560.240625 
M 319.825559 560.240625 
L 319.852061 541.667092 
L 319.852077 560.240625 
M 319.90501 560.240625 
L 319.90504 524.453417 
L 319.931546 560.240625 
M 319.98448 560.240625 
L 320.010997 526.165107 
L 320.011025 560.240625 
M 320.063959 560.240625 
L 320.090465 518.938051 
L 320.159926 537.465759 
L 320.194656 527.477778 
L 320.229386 536.18833 
L 320.264117 541.465092 
L 320.298847 529.453269 
L 320.333577 532.350399 
L 320.368308 545.05509 
L 320.403038 530.633223 
L 320.437768 525.33829 
L 320.472499 540.855768 
L 320.515798 534.027746 
L 320.559096 520.51005 
L 320.602395 533.490678 
L 320.645694 545.080039 
L 320.688993 513.214823 
L 320.723546 560.240625 
M 320.826938 560.240625 
L 320.827018 486.838607 
L 320.932486 522.036576 
L 321.262024 515.30424 
L 321.522663 508.631555 
L 321.566103 508.566993 
L 321.783302 502.134648 
L 322.261141 489.612059 
L 322.52178 477.6365 
L 322.56522 498.885714 
L 322.565284 560.240625 
M 322.631601 560.240625 
L 322.631696 469.753442 
L 322.734842 475.223869 
L 322.835718 470.928869 
L 322.856351 476.138623 
L 322.876983 464.928204 
L 322.918249 469.519154 
L 322.938882 468.761625 
L 322.959514 462.346711 
L 323.062826 464.732939 
L 325.576539 384.336915 
L 325.934473 379.79664 
L 326.055549 379.500265 
L 326.08409 379.536544 
L 326.183986 379.994723 
L 326.355236 382.017769 
L 326.627081 388.51844 
L 327.000115 403.590864 
L 327.728225 450.915858 
L 327.871475 461.804829 
L 327.89194 455.914181 
L 327.912404 465.207922 
L 327.912455 560.240625 
M 327.94613 560.240625 
L 327.946184 458.082584 
L 328.051208 476.493286 
L 328.138004 486.456337 
L 328.211643 469.594994 
L 328.220037 495.408638 
L 328.239728 491.293095 
L 328.25099 493.684618 
L 328.270682 487.966612 
L 328.270697 560.240625 
M 328.286366 560.240625 
L 328.388642 478.769013 
L 328.469447 560.240625 
M 328.501063 560.240625 
L 328.516923 499.80134 
L 328.516953 560.240625 
M 328.545275 560.240625 
L 328.570364 497.741005 
L 328.644983 526.592984 
L 328.697353 543.250694 
L 328.716691 509.725934 
L 328.716721 560.240625 
M 328.763071 560.240625 
L 328.76308 534.734124 
L 328.775354 560.240625 
M 328.799867 560.240625 
L 328.799876 537.891717 
L 328.799885 560.240625 
M 328.824384 560.240625 
L 328.824406 502.426898 
L 328.824429 560.240625 
M 328.848922 560.240625 
L 328.848937 521.037621 
L 328.950764 546.791533 
L 329.045597 560.240625 
M 329.115462 560.240625 
L 329.135602 547.575768 
L 329.135613 560.240625 
M 329.18405 560.240625 
L 329.184083 511.786125 
L 329.211153 560.240625 
M 329.230544 560.240625 
L 329.241051 516.400019 
L 329.268107 560.240625 
M 330.126242 560.240625 
L 330.126268 537.835011 
L 330.127517 560.240625 
M 330.147951 560.240625 
L 330.147953 548.826779 
L 330.14951 560.240625 
M 330.408739 560.240625 
L 330.409413 556.378504 
L 330.410283 560.240625 
M 343.02507 560.240625 
L 343.025096 554.324034 
L 343.165477 555.750886 
L 343.165497 560.240625 
M 343.586447 560.240625 
L 343.586622 520.561985 
L 343.701625 509.206133 
L 343.732304 560.240625 
M 346.087119 560.240625 
L 346.087182 545.624605 
L 346.225078 546.822857 
L 346.225136 560.240625 
M 350.299994 560.240625 
L 350.339498 555.355939 
L 350.339515 560.240625 
M 350.641526 560.240625 
L 350.735635 517.909825 
L 350.742683 560.240625 
M 350.773151 560.240625 
L 350.773194 560.111053 
L 350.773194 560.240625 
M 352.810386 560.240625 
L 352.823439 557.799312 
L 352.842572 560.240625 
M 353.046877 560.240625 
L 353.121373 546.091792 
L 353.121407 560.240625 
M 353.344742 560.240625 
L 353.344824 525.143071 
L 353.400742 560.240625 
M 353.491363 560.240625 
L 353.491425 516.514941 
L 353.536816 560.240625 
M 353.619345 560.240625 
L 353.656549 555.622892 
L 353.693752 558.362708 
L 353.730954 555.845076 
L 353.730959 560.240625 
M 353.805358 560.240625 
L 353.835074 502.799264 
L 353.835128 560.240625 
M 353.912831 560.240625 
L 353.912866 513.892286 
L 353.912901 560.240625 
M 353.980148 560.240625 
L 353.996076 515.425506 
L 353.996099 560.240625 
M 354.043814 560.240625 
L 354.043854 480.814089 
L 354.059809 560.240625 
M 354.080619 560.240625 
L 354.080621 539.037959 
L 354.080622 560.240625 
M 354.085535 560.240625 
L 354.090452 543.764252 
L 354.090455 560.240625 
M 354.100282 560.240625 
L 354.100283 550.479255 
L 354.103573 560.240625 
M 354.107383 560.240625 
L 354.125929 512.3786 
L 354.169949 560.240625 
M 354.185504 560.240625 
L 354.227474 546.750924 
L 354.285871 547.163259 
L 354.318967 547.518747 
L 354.352063 546.999795 
L 354.670247 540.866456 
L 354.714026 542.96021 
L 354.762227 541.978374 
L 354.810427 534.750559 
L 354.858628 535.247262 
L 354.858666 560.240625 
M 354.955013 560.240625 
L 355.00323 516.994146 
L 355.057983 560.240625 
M 355.187886 560.240625 
L 355.253169 518.516623 
L 355.285823 560.240625 
M 355.351019 560.240625 
L 355.351052 528.247426 
L 355.383705 560.240625 
M 355.448889 560.240625 
L 355.481562 513.32506 
L 355.48161 560.240625 
M 355.519562 560.240625 
L 355.616926 524.678873 
L 356.932356 496.988117 
L 357.02827 503.879142 
L 357.124183 482.920138 
L 357.162837 493.779299 
L 357.192166 500.506534 
L 357.221495 472.849975 
L 357.250825 473.62856 
L 357.250904 560.240625 
M 357.285171 560.240625 
L 357.389624 488.277845 
L 357.401844 491.086238 
L 357.493764 487.078428 
L 357.5387 487.18988 
L 357.673508 482.897296 
L 357.69868 482.953241 
L 357.82454 477.972874 
L 357.749024 484.620684 
L 357.847491 478.986094 
L 357.866008 479.885849 
L 357.940075 478.330697 
L 357.982181 477.160351 
L 358.005771 478.378826 
L 358.02936 474.076982 
L 358.052949 487.814122 
L 358.13443 474.888444 
L 358.880423 463.45492 
L 359.345054 459.169978 
L 359.56734 457.633938 
L 359.622911 459.116181 
L 359.650696 456.440196 
L 359.678482 456.890531 
L 359.763751 477.457273 
L 359.781552 462.152731 
L 359.799354 444.380571 
L 359.817155 464.08502 
L 359.817209 560.240625 
M 359.848574 560.240625 
L 359.850771 457.639898 
L 359.942952 458.488516 
L 360.176289 460.01973 
L 360.474797 463.610322 
L 360.883518 471.657784 
L 360.99928 474.706229 
L 361.022433 474.553659 
L 361.045585 477.105948 
L 361.068738 473.14972 
L 361.09189 496.898236 
L 361.115043 460.403371 
L 361.183733 479.674731 
L 361.22 480.551018 
L 361.407076 486.570937 
L 361.432984 483.727066 
L 361.458892 495.880624 
L 361.4848 478.036993 
L 361.536617 491.49614 
L 361.562525 491.619803 
L 361.588433 493.173434 
L 361.588488 560.240625 
M 361.640199 560.240625 
L 361.692066 493.795499 
L 361.743883 494.135986 
L 361.821607 502.42741 
L 361.847516 491.551704 
L 361.899332 503.705552 
L 361.951148 501.797219 
L 362.014647 560.240625 
M 362.077999 560.240625 
L 362.141496 507.952728 
L 362.183861 517.95393 
L 362.26859 521.892728 
L 362.310955 504.930955 
L 362.345734 525.352032 
L 362.380513 526.291298 
L 362.51963 536.904757 
L 362.554409 533.243003 
L 362.554439 560.240625 
M 362.623914 560.240625 
L 362.623967 511.265358 
L 362.693546 560.240625 
M 362.733581 560.240625 
L 362.744141 517.776678 
L 362.744148 560.240625 
M 362.75469 560.240625 
L 362.765256 501.291812 
L 362.765266 560.240625 
M 362.781091 560.240625 
L 362.786371 483.704621 
L 362.791528 560.240625 
M 362.799991 560.240625 
L 362.799995 527.530691 
L 362.799999 560.240625 
M 362.805836 560.240625 
L 362.806671 532.534123 
L 362.806672 560.240625 
M 362.80834 560.240625 
L 362.80834 539.914618 
L 362.916012 553.176591 
L 363.056113 560.240625 
M 363.717362 560.240625 
L 363.717378 546.447101 
L 363.717394 560.240625 
M 363.769429 560.240625 
L 363.770664 549.935516 
L 363.770666 560.240625 
M 363.781268 560.240625 
L 363.78127 552.890103 
L 363.782357 560.240625 
M 363.836066 560.240625 
L 363.836069 549.903722 
L 363.836072 560.240625 
M 363.855063 560.240625 
L 363.855078 510.447364 
L 363.860462 560.240625 
M 363.894557 560.240625 
L 363.916504 514.095206 
L 363.91652 560.240625 
M 363.956481 560.240625 
L 363.960388 535.49429 
L 363.966501 560.240625 
M 364.026203 560.240625 
L 364.026212 531.95088 
L 364.026222 560.240625 
M 364.19343 560.240625 
L 364.193446 537.263608 
L 364.199854 560.240625 
M 364.379289 560.240625 
L 364.379294 548.716793 
L 364.379298 560.240625 
M 364.413452 560.240625 
L 364.413455 553.706708 
L 364.418968 560.240625 
M 378.405606 560.240625 
L 378.505426 534.774936 
L 378.525641 560.240625 
M 380.826779 560.240625 
L 380.826782 559.467064 
L 380.946318 552.769978 
L 380.946346 560.240625 
M 381.413196 560.240625 
L 381.413196 559.705444 
L 381.413197 560.240625 
M 381.577509 560.240625 
L 381.577535 540.422441 
L 381.5949 560.240625 
M 381.678683 560.240625 
L 381.678706 538.987415 
L 381.706658 560.240625 
M 381.790456 560.240625 
L 381.79049 521.707004 
L 381.79211 560.240625 
M 385.785285 560.240625 
L 385.78536 528.140812 
L 385.791481 560.240625 
M 388.066553 560.240625 
L 389.722585 542.186136 
L 390.577045 534.92592 
L 390.969669 531.635176 
L 391.024453 532.259535 
L 391.04831 530.525892 
L 391.072167 531.198427 
L 391.096024 536.465475 
L 391.160323 531.461118 
L 391.606398 529.963511 
L 391.881669 529.6253 
L 392.052558 529.664133 
L 392.274463 530.017861 
L 392.540748 530.919608 
L 392.895796 532.974959 
L 393.339605 536.794048 
L 393.383986 538.041239 
L 393.428367 536.375649 
L 393.472748 545.533263 
L 393.517129 526.917717 
L 393.58401 539.879412 
L 393.633325 550.360056 
L 393.682641 517.093325 
L 393.723717 541.724426 
L 393.764793 542.822172 
L 393.805869 540.353461 
L 393.846945 517.351662 
L 393.847001 560.240625 
M 393.929027 560.240625 
L 393.929098 505.529709 
L 393.929168 560.240625 
M 394.02917 560.240625 
L 394.029181 545.967718 
L 394.055094 560.240625 
M 394.106875 560.240625 
L 394.158704 503.218927 
L 394.15875 560.240625 
M 394.210495 560.240625 
L 394.210513 538.47187 
L 394.210531 560.240625 
M 394.262293 560.240625 
L 394.262322 524.813827 
L 394.262351 560.240625 
M 394.314105 560.240625 
L 394.314131 528.783972 
L 394.314157 560.240625 
M 394.365915 560.240625 
L 394.36594 528.923494 
L 394.365966 560.240625 
M 394.422233 560.240625 
L 394.48303 526.062956 
L 394.483062 560.240625 
M 394.576145 560.240625 
L 394.60461 503.770404 
L 394.604664 560.240625 
M 394.659977 560.240625 
L 394.684952 558.474968 
L 394.737229 560.240625 
M 394.789297 560.240625 
L 394.817639 552.376649 
L 394.817647 560.240625 
M 394.883187 560.240625 
L 394.883223 524.533057 
L 394.88326 560.240625 
M 394.929768 560.240625 
L 394.935691 535.389217 
L 394.935696 560.240625 
M 394.948804 560.240625 
L 394.948808 542.373221 
L 394.955996 560.240625 
M 394.966762 560.240625 
L 394.966801 560.220934 
L 394.966809 560.240625 
M 394.984196 560.240625 
L 394.984794 558.746422 
L 394.985565 560.240625 
M 395.067458 560.240625 
L 395.096408 524.317031 
L 395.096447 560.240625 
M 395.418887 560.240625 
L 395.4189 545.675702 
L 395.418913 560.240625 
M 395.531818 560.240625 
L 395.531824 553.621893 
L 395.53183 560.240625 
M 395.588282 560.240625 
L 395.588287 554.756593 
L 395.5942 560.240625 
M 395.815513 560.240625 
L 395.815528 543.339135 
L 395.815543 560.240625 
M 395.9193 560.240625 
L 395.922601 551.818799 
L 395.922605 560.240625 
M 395.966207 560.240625 
L 395.966222 527.394427 
L 395.966237 560.240625 
M 395.997199 560.240625 
L 395.997205 548.334678 
L 395.997211 560.240625 
M 396.039168 560.240625 
L 396.051941 522.352758 
L 396.051956 560.240625 
M 396.090218 560.240625 
L 396.090235 516.866671 
L 396.091362 560.240625 
M 396.757128 560.240625 
L 396.757154 541.799284 
L 396.792305 560.240625 
M 396.8675 560.240625 
L 396.867534 531.26499 
L 396.882163 560.240625 
M 397.59374 560.240625 
L 397.59375 543.184142 
L 397.594468 560.240625 
M 408.73069 560.240625 
L 408.730704 555.283408 
L 408.731225 560.240625 
M 412.470846 560.240625 
L 412.470884 549.935214 
L 412.472521 560.240625 
M 414.273525 560.240625 
L 414.273804 559.474003 
L 414.274184 560.240625 
M 425.796619 560.240625 
L 425.796696 524.301925 
L 425.834074 560.240625 
M 426.148101 560.240625 
L 426.14816 535.315302 
L 426.189336 560.240625 
M 426.238283 560.240625 
L 426.271508 545.74879 
L 426.271537 560.240625 
M 426.394779 560.240625 
L 426.394857 519.793641 
L 426.394936 560.240625 
M 426.518082 560.240625 
L 426.518206 495.983879 
L 426.547682 560.240625 
M 426.668285 560.240625 
L 426.670593 542.879326 
L 426.670597 560.240625 
M 426.68327 560.240625 
L 426.683271 556.584336 
L 426.68424 560.240625 
M 426.747978 560.240625 
L 426.747981 549.799613 
L 426.753538 560.240625 
M 426.881914 560.240625 
L 426.881936 528.851308 
L 426.881958 560.240625 
M 426.948363 560.240625 
L 426.948413 488.013385 
L 426.951495 560.240625 
M 426.965441 560.240625 
L 426.965443 542.479046 
L 426.965445 560.240625 
M 426.986673 560.240625 
L 426.986731 559.984997 
L 426.986785 560.240625 
M 427.02726 560.240625 
L 427.027264 550.372602 
L 427.027268 560.240625 
M 427.050752 560.240625 
L 427.050767 518.088197 
L 427.050783 560.240625 
M 427.101487 560.240625 
L 427.108501 531.801946 
L 427.116588 560.240625 
M 427.13314 560.240625 
L 427.139156 543.789595 
L 427.139165 560.240625 
M 427.173776 560.240625 
L 427.173801 514.248692 
L 427.173826 560.240625 
M 427.208437 560.240625 
L 427.208446 543.311473 
L 427.208455 560.240625 
M 427.243079 560.240625 
L 427.243092 536.488786 
L 427.243104 560.240625 
M 427.277719 560.240625 
L 427.277737 527.217612 
L 427.286636 560.240625 
M 427.359363 560.240625 
L 427.359367 554.113141 
L 427.359371 560.240625 
M 427.403584 560.240625 
L 427.403608 527.351701 
L 427.403633 560.240625 
M 427.451264 560.240625 
L 427.451276 544.014696 
L 427.451288 560.240625 
M 427.498924 560.240625 
L 427.498943 535.186569 
L 427.509216 560.240625 
M 427.61491 560.240625 
L 427.614915 554.621707 
L 427.61492 560.240625 
M 427.67289 560.240625 
L 427.672902 547.704059 
L 427.672913 560.240625 
M 427.788852 560.240625 
L 427.788874 535.906731 
L 427.788896 560.240625 
M 429.173513 560.240625 
L 429.173523 553.236283 
L 429.173533 560.240625 
M 432.279527 560.240625 
L 432.285611 558.714667 
L 432.285613 560.240625 
M 444.686158 560.240625 
L 444.689112 552.7753 
L 444.724464 560.240625 
M 444.808972 560.240625 
L 444.830498 543.712746 
L 444.830516 560.240625 
M 444.948345 560.240625 
L 444.971884 531.160647 
L 444.97875 560.240625 
M 445.18572 560.240625 
L 445.185729 551.975519 
L 445.185739 560.240625 
M 445.434218 560.240625 
L 445.457907 536.839613 
L 445.520759 560.240625 
M 446.206916 560.240625 
L 446.206919 558.948405 
L 446.206922 560.240625 
M 446.682754 560.240625 
L 446.684352 559.390616 
L 446.686319 560.240625 
M 447.096445 560.240625 
L 447.096449 558.469515 
L 447.100633 560.240625 
M 447.247177 560.240625 
L 447.274309 544.9812 
L 447.274329 560.240625 
M 456.917461 560.240625 
L 456.917469 557.423353 
L 456.921155 560.240625 
M 457.378068 560.240625 
L 457.378109 526.517387 
L 457.416552 560.240625 
M 457.498414 560.240625 
L 457.539453 511.44071 
L 457.542901 560.240625 
M 458.529354 560.240625 
L 458.529369 551.873588 
L 458.529384 560.240625 
M 458.644231 560.240625 
L 458.644309 517.1059 
L 458.644387 560.240625 
M 460.042586 560.240625 
L 460.042636 531.186644 
L 460.045427 560.240625 
M 462.276121 560.240625 
L 462.276136 553.518183 
L 462.347924 560.240625 
M 463.555386 560.240625 
L 463.555402 554.360631 
L 463.556137 560.240625 
M 474.616498 560.240625 
L 474.636289 558.261669 
L 474.636299 560.240625 
M 475.473867 560.240625 
L 475.474011 513.784039 
L 475.479195 560.240625 
M 480.873281 560.240625 
L 480.87334 544.094578 
L 480.87647 560.240625 
M 490.992972 560.240625 
L 490.992984 556.934463 
L 491.025936 560.240625 
M 491.324897 560.240625 
L 491.435548 550.921065 
L 491.43558 560.240625 
M 491.703565 560.240625 
L 491.767471 552.593406 
L 491.777247 560.240625 
M 492.682102 560.240625 
L 492.682178 535.160014 
L 492.764546 560.240625 
M 493.394621 560.240625 
L 493.394655 545.231235 
L 493.405939 560.240625 
M 493.683034 560.240625 
L 493.685893 556.787944 
L 493.68644 560.240625 
M 497.615453 560.240625 
L 497.63268 558.588233 
L 497.632686 560.240625 
M 523.495453 560.240625 
L 523.495457 559.118927 
L 523.495462 560.240625 
M 525.455718 560.240625 
L 525.46854 554.822415 
L 525.473765 560.240625 
M 526.081264 560.240625 
L 526.116401 547.557153 
L 526.11644 560.240625 
" clip-path="url(#p49f2efd9e6)" style="fill: none; stroke: #984ea3; stroke-linecap: square"/>
   </g>
   <g id="line2d_31">
    <path d="M 218.186133 560.240625 
L 218.196633 383.224957 
L 218.196634 560.240625 
M 218.196971 560.240625 
L 218.215878 158.384387 
L 218.307861 225.842045 
L 218.347494 226.65895 
L 218.432518 236.172749 
L 218.991127 308.28375 
L 219.436054 331.892453 
L 219.978181 349.328057 
L 220.634966 363.440115 
L 221.407627 375.300521 
L 222.307327 385.701964 
L 223.354529 395.210428 
L 224.558747 404.117153 
L 225.990347 413.021129 
L 227.711374 422.299188 
L 229.983629 433.27188 
L 237.68613 469.521809 
L 239.616174 480.212745 
L 241.319322 490.922073 
L 242.774649 501.48222 
L 244.064169 512.43099 
L 245.229886 524.196225 
L 246.448753 538.951425 
L 247.166328 546.874815 
L 247.377244 547.690499 
L 247.482701 547.532997 
L 247.640888 546.40341 
L 247.858219 542.935338 
L 248.233777 532.27662 
L 248.803375 508.644921 
L 249.573017 466.87198 
L 250.294093 415.534149 
L 250.915908 354.716578 
L 251.838243 260.325982 
L 251.847329 260.349203 
L 251.895726 261.228222 
L 252.017268 268.434411 
L 252.345184 305.29866 
L 252.837991 350.478197 
L 253.32524 375.465299 
L 253.886541 393.557653 
L 254.55056 408.03594 
L 255.304396 419.785975 
L 256.185088 430.032672 
L 257.13019 438.57363 
L 258.227822 446.531831 
L 259.482359 453.985128 
L 260.865831 460.886961 
L 262.433148 467.610218 
L 264.271558 474.528655 
L 266.571785 482.274145 
L 269.698884 491.966873 
L 275.192817 508.911152 
L 277.47905 516.766221 
L 279.279231 523.719276 
L 280.797853 530.411839 
L 282.247369 537.846883 
L 283.621952 546.117452 
L 284.689347 552.298337 
L 284.972203 553.09768 
L 285.089992 553.157331 
L 285.113549 553.134308 
L 285.257861 552.745885 
L 285.47175 551.38489 
L 285.738091 548.05285 
L 286.082843 540.891804 
L 286.635928 523.90563 
L 287.597161 482.951266 
L 288.518209 432.55026 
L 289.609457 358.79395 
L 290.177715 327.353866 
L 290.443576 321.964845 
L 290.481959 321.891925 
L 290.523593 322.039759 
L 290.632355 323.541011 
L 290.825638 330.094254 
L 291.249812 354.301145 
L 291.952166 390.61667 
L 292.578473 411.467806 
L 293.266928 427.282554 
L 294.029599 440.008552 
L 294.919204 451.188645 
L 295.915118 460.904631 
L 297.036442 469.662552 
L 298.259456 477.538562 
L 299.72024 485.469146 
L 301.380203 493.224731 
L 303.397183 501.533459 
L 305.994769 511.237787 
L 312.91084 536.593097 
L 314.769589 544.444592 
L 316.43898 552.423235 
L 317.875546 560.240625 
M 320.998843 560.240625 
L 321.522663 549.198922 
L 322.261141 528.656724 
L 323.236983 494.910824 
L 325.875388 397.850965 
L 326.198257 393.94905 
L 326.312423 393.648536 
L 326.355236 393.68705 
L 326.467209 394.175256 
L 326.667049 396.38974 
L 326.97347 402.705959 
L 327.523581 419.581289 
L 328.661499 454.159114 
L 329.485972 472.115734 
L 330.367887 486.641239 
L 331.349353 499.194881 
L 332.435164 510.259804 
L 333.655378 520.419605 
L 335.01787 529.919618 
L 336.525654 538.959522 
L 338.39939 548.833818 
L 340.801748 560.240625 
M 355.49367 560.240625 
L 356.788486 531.015038 
L 358.921644 482.839752 
L 359.511768 474.312512 
L 359.918141 471.12011 
L 360.176289 470.438213 
L 360.299275 470.501288 
L 360.474797 471.029065 
L 360.744603 472.826069 
L 361.125481 477.236669 
L 361.666158 486.487919 
L 364.79982 545.709824 
L 365.912208 560.240625 
M 390.033993 560.240625 
L 391.024453 549.536653 
L 391.698325 544.324268 
L 392.185701 541.980831 
L 392.540748 541.150489 
L 392.762653 541.034054 
L 392.940177 541.170618 
L 393.206462 541.762583 
L 393.517129 543.035997 
L 393.970174 546.000634 
L 394.391845 549.730073 
L 395.130614 558.292525 
L 395.277652 560.240625 
L 395.277652 560.240625 
" clip-path="url(#p49f2efd9e6)" style="fill: none; stroke: #d48044; stroke-linecap: square"/>
   </g>
   <g id="line2d_32">
    <path d="M 218.188353 560.240625 
L 218.196803 419.268274 
L 218.196803 560.240625 
M 218.19724 560.240625 
L 218.19724 421.687459 
L 218.197341 560.240625 
M 218.197473 560.240625 
L 218.215739 186.912302 
L 218.307861 238.68228 
L 218.487617 212.248788 
L 218.655026 211.021133 
L 218.864559 210.892783 
L 219.628502 210.865265 
L 250.402587 210.865385 
L 251.735633 210.977344 
L 251.945597 210.938164 
L 252.351553 210.641058 
L 253.355465 210.629106 
L 353.730954 210.68175 
L 606.207157 210.866076 
L 1151.113352 211.254665 
L 1151.113352 211.254665 
" clip-path="url(#p49f2efd9e6)" style="fill: none; stroke: #33adff; stroke-linecap: square"/>
   </g>
   <g id="line2d_33">
    <path d="M 138.016087 560.240625 
L 138.07954 434.940225 
L 138.105492 560.240625 
M 138.157091 560.240625 
L 138.157163 472.580154 
L 138.18309 560.240625 
M 138.234738 560.240625 
L 138.278636 470.550755 
L 138.322591 560.240625 
M 138.416234 560.240625 
L 138.454036 538.947476 
L 138.454079 560.240625 
M 138.887135 560.240625 
L 138.911778 540.347827 
L 138.971552 560.240625 
M 138.995622 560.240625 
L 139.056933 537.051909 
L 139.056986 560.240625 
M 139.201987 560.240625 
L 139.202088 515.952386 
L 139.202189 560.240625 
M 139.34709 560.240625 
L 139.347243 493.213652 
L 139.347395 560.240625 
M 139.492194 560.240625 
L 139.492398 470.872747 
L 139.492601 560.240625 
M 139.637298 560.240625 
L 139.637552 448.451543 
L 139.637807 560.240625 
M 139.85513 560.240625 
L 139.855285 492.466545 
L 139.855439 560.240625 
M 140.072895 560.240625 
L 140.073017 506.77063 
L 140.073139 560.240625 
M 140.307755 560.240625 
L 140.307915 497.467341 
L 140.308075 560.240625 
M 140.469959 560.240625 
L 140.470235 451.835744 
L 140.470511 560.240625 
M 140.713542 560.240625 
L 140.794876 428.453201 
L 140.876036 451.498452 
L 140.876312 560.240625 
M 141.038215 560.240625 
L 141.119516 425.974599 
L 141.200676 451.18973 
L 141.200902 560.240625 
M 141.332708 560.240625 
L 141.332894 470.564953 
L 141.33308 560.240625 
M 141.531021 560.240625 
L 141.531221 463.44278 
L 141.531422 560.240625 
M 141.663317 560.240625 
L 141.729548 498.243652 
L 141.729677 560.240625 
M 141.941512 560.240625 
L 141.941722 468.536371 
L 141.941932 560.240625 
M 142.087507 560.240625 
L 142.087787 438.030641 
L 142.088066 560.240625 
M 142.266177 560.240625 
L 142.26638 423.976041 
L 142.266582 560.240625 
M 142.408407 560.240625 
L 142.456021 422.97071 
L 142.456225 560.240625 
M 142.540127 560.240625 
L 142.576917 458.060751 
L 142.577035 560.240625 
M 142.650318 560.240625 
L 142.687146 482.934805 
L 142.687235 560.240625 
M 142.819983 560.240625 
L 142.820074 500.092652 
L 142.820164 560.240625 
M 142.964305 560.240625 
L 142.964351 529.838567 
L 142.964397 560.240625 
M 143.488198 560.240625 
L 143.505113 547.678336 
L 143.505147 560.240625 
M 143.853934 560.240625 
L 143.854095 501.42998 
L 143.854257 560.240625 
M 144.02833 560.240625 
L 144.028587 466.331203 
L 144.028844 560.240625 
M 144.202726 560.240625 
L 144.203078 431.432857 
L 144.203355 560.240625 
M 144.296917 560.240625 
L 144.29695 477.69223 
L 144.309644 560.240625 
M 144.360228 560.240625 
L 144.360281 493.051946 
L 144.385654 560.240625 
M 144.452592 560.240625 
L 144.507497 542.175161 
L 144.507523 560.240625 
M 145.578945 560.240625 
L 145.578951 558.125731 
L 145.578958 560.240625 
M 145.769459 560.240625 
L 145.769532 535.777764 
L 145.769615 560.240625 
M 145.986419 560.240625 
L 145.986642 494.94484 
L 145.986864 560.240625 
M 146.203409 560.240625 
L 146.203752 459.399363 
L 146.204095 560.240625 
M 146.420559 560.240625 
L 146.420862 471.204026 
L 146.543273 503.068697 
L 146.543493 560.240625 
M 146.787957 560.240625 
L 146.788096 524.179298 
L 146.788235 560.240625 
M 147.15876 560.240625 
L 147.293586 498.178938 
L 147.293855 560.240625 
M 147.569782 560.240625 
L 147.570096 487.685102 
L 147.708352 501.531073 
L 147.846607 471.085909 
L 147.846994 560.240625 
M 148.399432 560.240625 
L 148.399629 514.946332 
L 148.399826 560.240625 
M 148.814232 560.240625 
L 148.814395 522.709009 
L 148.814558 560.240625 
M 149.090555 560.240625 
L 149.090906 479.250074 
L 149.229162 519.500738 
L 149.229339 560.240625 
M 149.505543 560.240625 
L 149.505672 530.525346 
L 149.505802 560.240625 
M 218.125566 560.240625 
L 218.213824 155.723061 
L 218.324149 285.382266 
L 218.593785 345.217609 
L 219.090534 404.510465 
L 219.740301 456.713145 
L 220.431366 495.53068 
L 221.091384 521.216851 
L 221.693725 536.790958 
L 222.2534 546.043393 
L 222.767066 551.214069 
L 223.2182 553.752432 
L 223.598405 554.7521 
L 223.865133 554.951621 
L 224.092362 554.851155 
L 224.403285 554.379984 
L 224.858033 553.153876 
L 225.513553 550.650631 
L 226.956314 543.979188 
L 228.835355 535.662573 
L 230.28128 530.223269 
L 231.919985 524.939761 
L 233.906158 519.333712 
L 239.516941 503.98142 
L 240.978693 499.062733 
L 242.302846 493.717718 
L 243.435173 488.17693 
L 244.535748 481.583187 
L 245.539566 474.121802 
L 246.479117 465.381293 
L 247.324515 455.467636 
L 248.158874 442.949172 
L 248.936798 427.720383 
L 249.721486 407.909735 
L 250.402587 384.863946 
L 251.009767 356.301731 
L 251.746836 321.229829 
L 251.755239 321.241286 
L 251.806665 321.707672 
L 251.914503 325.263759 
L 252.162118 342.813116 
L 253.637181 459.08452 
L 254.432273 501.182466 
L 255.193517 530.506868 
L 255.863908 548.533457 
L 256.468594 559.350254 
L 256.533262 560.240625 
M 261.279012 560.240625 
L 263.516602 550.074525 
L 265.026514 544.29789 
L 266.539694 539.41746 
L 268.055307 535.243369 
L 269.997716 530.575967 
L 276.010149 516.705303 
L 277.550833 512.31465 
L 278.92878 507.715754 
L 280.213768 502.622136 
L 281.381939 497.06849 
L 282.522104 490.493126 
L 283.550288 483.234387 
L 284.554126 474.482018 
L 285.509023 464.049955 
L 286.380658 452.035778 
L 287.23449 437.06257 
L 288.155608 416.784535 
L 289.056588 391.751966 
L 290.128987 362.078461 
L 290.369534 360.254908 
L 290.42601 360.371732 
L 290.54441 361.400252 
L 290.737098 365.43139 
L 291.069683 378.002371 
L 291.866125 419.234185 
L 293.038107 475.737321 
L 293.948466 509.30197 
L 294.736509 530.935014 
L 295.422567 544.409399 
L 296.053612 552.910103 
L 296.602616 557.754975 
L 297.045856 560.240625 
M 299.424065 560.240625 
L 300.149882 557.93978 
L 301.475569 552.906801 
L 304.61529 540.888694 
L 306.651491 534.0827 
L 309.564527 525.235558 
L 312.360194 516.561175 
L 314.045293 510.619971 
L 315.539872 504.497563 
L 316.830358 498.25456 
L 318.045895 491.240044 
L 319.218692 483.051037 
L 320.264117 474.175556 
L 321.305464 463.384592 
L 322.30458 450.686607 
L 323.366997 434.17993 
L 325.648131 397.384808 
L 325.998466 395.063699 
L 326.155445 394.838457 
L 326.169715 394.845655 
L 326.283882 395.074412 
L 326.467209 396.088939 
L 326.746985 399.161869 
L 327.145013 406.417819 
L 327.707761 421.252176 
L 330.934707 513.83523 
L 331.743904 528.577658 
L 332.497787 538.536219 
L 333.145036 544.485711 
L 333.760971 548.249354 
L 334.27137 550.198896 
L 334.709053 551.170929 
L 335.135082 551.600278 
L 335.434594 551.644177 
L 335.776011 551.473689 
L 336.184975 551.008376 
L 336.752774 549.985309 
L 337.587107 547.910045 
L 338.734133 544.39181 
L 341.200135 535.909597 
L 347.009266 515.203357 
L 348.85917 507.718591 
L 349.086913 506.623925 
L 350.225626 501.287261 
L 351.631702 493.753817 
L 352.972406 485.317377 
L 354.285871 475.542691 
L 355.616926 463.862035 
L 357.331881 446.570511 
L 358.667197 433.840922 
L 359.283273 429.797409 
L 359.706268 428.297078 
L 359.962614 428.03014 
L 360.11991 428.132577 
L 360.323873 428.584175 
L 360.614485 429.872461 
L 360.90667 431.805092 
L 360.976128 431.738842 
L 361.022433 434.72834 
L 361.068738 430.660296 
L 361.09189 438.595752 
L 361.115043 439.271338 
L 361.122001 433.502204 
L 361.22 434.963781 
L 361.821607 442.92565 
L 362.658747 457.406733 
L 365.661478 512.145653 
L 366.58743 523.901655 
L 367.378578 531.3526 
L 368.125036 536.346004 
L 368.776198 539.281765 
L 369.314835 540.851648 
L 369.834004 541.73786 
L 370.263103 542.072763 
L 370.692201 542.115565 
L 370.973346 542.023084 
L 371.043632 541.830134 
L 371.09891 541.873139 
L 371.142574 541.889284 
L 371.186239 541.527578 
L 371.270449 541.726939 
L 371.76248 541.105321 
L 372.476727 539.809159 
L 373.466216 537.44836 
L 374.83518 533.489573 
L 376.76549 527.15921 
L 379.317105 518.000701 
L 381.577535 509.064479 
L 383.435614 500.855297 
L 385.253057 491.815618 
L 387.261459 480.585987 
L 390.292225 463.437632 
L 391.160323 459.893256 
L 391.47142 458.700692 
L 391.507953 459.782284 
L 391.544486 456.181753 
L 391.615109 458.625759 
L 391.728158 458.377643 
L 392.14132 457.791687 
L 392.451987 457.680625 
L 392.718272 457.829316 
L 393.028939 458.302569 
L 393.428367 459.402185 
L 393.929098 461.56865 
L 394.54382 465.377122 
L 395.305975 471.6212 
L 396.40769 482.678527 
L 399.104853 510.349477 
L 400.164898 518.612673 
L 401.060186 523.929421 
L 401.806771 527.210312 
L 402.499986 529.38524 
L 403.094171 530.646131 
L 403.688356 531.41224 
L 404.183509 531.716151 
L 404.678663 531.752129 
L 405.173817 531.552181 
L 405.768002 531.042314 
L 406.451464 530.147627 
L 407.330911 528.602844 
L 408.436218 526.177771 
L 409.899555 522.369737 
L 411.647901 517.197038 
L 413.921903 509.736079 
L 416.565804 500.268947 
L 420.63041 485.651262 
L 421.81839 482.266574 
L 422.648188 480.49014 
L 423.299562 479.549212 
L 423.794467 479.150062 
L 424.241739 479.049997 
L 424.653285 479.191665 
L 425.064832 479.567119 
L 425.593963 480.401119 
L 426.209834 481.866739 
L 426.961186 484.336623 
L 427.84686 488.078544 
L 429.082113 494.344674 
L 432.238637 510.785214 
L 433.367747 515.32566 
L 434.321339 518.307286 
L 435.201296 520.344275 
L 435.968656 521.580819 
L 436.584746 522.233064 
L 437.212802 522.610098 
L 437.772603 522.721575 
L 438.332404 522.640531 
L 439.032156 522.29618 
L 439.871857 521.571168 
L 440.85151 520.363114 
L 442.033866 518.486471 
L 443.433763 515.81275 
L 445.360187 511.581598 
L 448.663944 503.647469 
L 451.010281 498.274094 
L 452.433221 495.528772 
L 453.500426 493.907183 
L 454.427711 492.901198 
L 455.150544 492.424861 
L 455.793062 492.25301 
L 456.355265 492.308921 
L 456.981878 492.605336 
L 457.646632 493.190602 
L 458.356959 494.115042 
L 459.208141 495.597976 
L 460.295061 497.989702 
L 461.806315 501.924745 
L 464.800137 509.819815 
L 466.006138 512.389885 
L 467.119637 514.26119 
L 468.003747 515.373645 
L 468.858747 516.132118 
L 469.713748 516.588215 
L 470.461878 516.753009 
L 471.323738 516.692552 
L 472.192334 516.386215 
L 473.133644 515.809294 
L 474.323995 514.77096 
L 475.71363 513.212789 
L 477.452805 510.897135 
L 483.49323 502.52066 
L 484.801113 501.240712 
L 485.918381 500.460359 
L 486.890792 500.057026 
L 487.718187 499.934948 
L 488.545581 500.024735 
L 489.384551 500.332584 
L 490.365625 500.95827 
L 491.435548 501.93477 
L 492.754737 503.477288 
L 494.701981 506.150533 
L 497.311238 509.686667 
L 498.808835 511.334132 
L 500.028832 512.358184 
L 501.198407 513.039414 
L 502.272407 513.400141 
L 503.23371 513.514153 
L 504.227471 513.437503 
L 505.410977 513.113194 
L 506.588017 512.573646 
L 508.040692 511.669179 
L 509.977592 510.184269 
L 515.073734 506.129191 
L 516.672909 505.22053 
L 518.028084 504.710352 
L 519.223341 504.490708 
L 520.418599 504.501123 
L 521.613856 504.740794 
L 522.886415 505.229926 
L 524.426759 506.091133 
L 526.48973 507.544073 
L 530.205877 510.206524 
L 531.927309 511.136962 
L 533.460677 511.701216 
L 534.823671 511.973137 
L 536.186665 512.030386 
L 537.720033 511.858034 
L 539.231857 511.478569 
L 541.275336 510.720641 
L 548.599365 507.713441 
L 550.366952 507.369798 
L 551.95778 507.283701 
L 553.548608 507.415575 
L 555.345776 507.804897 
L 557.463262 508.514814 
L 564.513267 511.100641 
L 566.389382 511.449693 
L 568.283666 511.577393 
L 570.295643 511.478069 
L 572.53395 511.136525 
L 575.928901 510.358533 
L 579.837142 509.508916 
L 582.269795 509.214241 
L 584.515321 509.17597 
L 586.783868 509.369974 
L 589.444719 509.836678 
L 597.655375 511.481872 
L 600.247091 511.667527 
L 602.937667 511.625569 
L 606.207157 511.333079 
L 613.802953 510.561934 
L 616.707228 510.538387 
L 619.69557 510.727695 
L 624.067621 511.260672 
L 629.961814 511.928688 
L 633.515222 512.071144 
L 637.504766 511.979593 
L 639.652927 511.869295 
L 646.422591 511.586645 
L 650.328693 511.654308 
L 655.147122 511.973839 
L 663.407724 512.543863 
L 668.054938 512.614081 
L 684.604969 512.619025 
L 700.417841 513.228847 
L 718.30227 513.43298 
L 732.657362 513.856131 
L 753.695602 514.216679 
L 767.449025 514.514222 
L 787.167948 514.881781 
L 805.783645 515.221023 
L 852.936134 516.095628 
L 910.953652 517.088956 
L 1007.388016 518.620523 
L 1132.12734 520.403048 
L 1151.113352 520.657756 
L 1151.113352 520.657756 
" clip-path="url(#p49f2efd9e6)" style="fill: none; stroke: #a65628; stroke-linecap: square"/>
   </g>
   <g id="line2d_34">
    <path d="M 218.185695 560.240625 
L 218.216214 227.438015 
L 218.317634 255.157337 
L 218.409017 251.941791 
L 218.454079 252.093009 
L 218.734361 252.951298 
L 219.052017 253.187956 
L 219.638666 253.300105 
L 221.535303 253.348634 
L 248.438937 253.643309 
L 249.824799 253.881498 
L 250.47454 254.20098 
L 250.880793 254.652146 
L 251.184349 255.345041 
L 251.461752 256.609368 
L 252.404028 261.796231 
L 252.754461 262.098723 
L 253.298686 262.241606 
L 254.658686 262.305717 
L 264.59511 262.334987 
L 286.508293 262.494757 
L 288.476968 262.69581 
L 289.298513 262.985407 
L 289.843283 263.416171 
L 290.452359 264.2314 
L 291.089166 264.961952 
L 291.626537 265.22747 
L 292.477026 265.36289 
L 294.701922 265.419738 
L 323.999514 265.737579 
L 325.400295 266.029538 
L 328.437758 266.85498 
L 330.732181 266.934898 
L 344.349678 266.987564 
L 356.681569 267.149016 
L 359.728148 267.402186 
L 363.253847 267.721354 
L 367.884826 267.789556 
L 390.776283 268.022262 
L 400.890201 268.312854 
L 427.359367 268.620145 
L 438.612305 268.741008 
L 462.510869 269.005413 
L 509.493367 269.435734 
L 696.134617 270.859583 
L 860.25928 271.804882 
L 1060.13963 272.724315 
L 1151.113352 273.082675 
L 1151.113352 273.082675 
" clip-path="url(#p49f2efd9e6)" style="fill: none; stroke: #1f77b4; stroke-linecap: square"/>
   </g>
   <g id="line2d_35">
    <path d="M 218.177317 560.240625 
L 218.214157 214.982023 
L 218.317634 252.498453 
L 218.469965 246.022933 
L 218.666869 245.493921 
L 218.968851 245.307021 
L 219.638666 245.220412 
L 222.603018 245.189835 
L 248.580731 245.022385 
L 250.211968 244.820336 
L 250.842392 244.539987 
L 251.227014 244.124181 
L 251.565096 243.391535 
L 252.135476 242.145817 
L 252.496599 241.951426 
L 253.224565 241.872812 
L 256.902971 241.851907 
L 289.11405 241.720294 
L 290.262986 241.495511 
L 291.464734 241.256239 
L 293.564759 241.212941 
L 327.605439 240.982819 
L 332.35926 240.950501 
L 389.836513 240.791267 
L 433.194272 240.689469 
L 807.954278 240.339147 
L 1151.113352 240.176873 
L 1151.113352 240.176873 
" clip-path="url(#p49f2efd9e6)" style="fill: none; stroke: #ff7f0e; stroke-linecap: square"/>
   </g>
   <g id="line2d_36">
    <path d="M 218.166088 560.240625 
L 218.214184 208.353011 
L 218.316548 288.636301 
L 218.703625 366.337409 
L 219.145762 409.865245 
L 219.150196 408.060132 
L 219.234526 415.758361 
L 219.787877 446.239907 
L 220.573325 478.142262 
L 221.316431 499.978178 
L 221.9684 513.224389 
L 222.567218 521.210655 
L 223.095163 525.560328 
L 223.576376 527.804785 
L 223.9369 528.644547 
L 224.247823 528.908475 
L 224.506926 528.861755 
L 224.817849 528.543887 
L 225.238522 527.7558 
L 225.84844 526.097387 
L 226.904935 522.44439 
L 230.588537 509.180821 
L 232.534499 503.212433 
L 235.347523 495.389082 
L 239.020778 485.104691 
L 240.638063 479.925507 
L 242.000582 474.838042 
L 243.246452 469.335108 
L 244.378555 463.352719 
L 245.50565 456.177669 
L 245.539566 455.73012 
L 245.573483 457.756567 
L 245.607399 456.53984 
L 245.641315 451.176675 
L 245.718811 454.640098 
L 246.263073 450.145003 
L 246.316986 450.229987 
L 246.448753 448.859063 
L 247.377244 440.071085 
L 247.945151 433.678371 
L 248.129624 431.038393 
L 248.144249 431.858104 
L 248.188124 429.598884 
L 248.21225 430.322811 
L 248.262166 427.128402 
L 248.24324 431.369361 
L 248.34424 428.552587 
L 249.186999 415.668917 
L 249.898419 401.427264 
L 250.517713 384.407004 
L 251.073191 362.556322 
L 251.80435 333.026509 
L 251.814674 333.041269 
L 251.85962 333.518628 
L 251.977871 337.874237 
L 252.286307 359.907275 
L 253.208679 418.894259 
L 253.846339 443.583923 
L 254.636178 465.149341 
L 255.531759 486.194869 
L 255.702775 489.433972 
L 256.442487 501.188733 
L 257.086749 508.331313 
L 257.699565 512.856458 
L 258.227822 515.310598 
L 258.462603 516.205489 
L 258.521298 515.730039 
L 258.565838 516.046197 
L 258.711628 516.611871 
L 258.875645 516.905151 
L 258.921206 516.826117 
L 258.966767 517.396371 
L 259.057889 517.229411 
L 259.10345 516.977994 
L 259.149011 517.319399 
L 259.194573 517.083542 
L 259.331256 517.346919 
L 259.482359 517.31154 
L 259.633463 517.278111 
L 259.697315 517.533737 
L 259.761168 516.971045 
L 259.825021 517.207348 
L 260.016579 516.969622 
L 260.248193 516.750993 
L 260.557012 516.334828 
L 261.02024 515.348421 
L 261.097445 515.801702 
L 261.160667 515.264186 
L 261.223889 513.650571 
L 261.287111 514.454978 
L 261.350333 520.680759 
L 261.393197 514.681541 
L 261.719861 513.89698 
L 263.3009 509.802603 
L 266.16551 502.469073 
L 269.400052 495.328564 
L 274.836287 483.831834 
L 276.573442 479.507628 
L 278.125097 475.060398 
L 279.512865 470.430258 
L 280.797853 465.40677 
L 282.059272 459.564776 
L 283.263636 452.872218 
L 284.405318 445.185692 
L 285.47175 436.419763 
L 286.465748 426.390709 
L 287.255407 416.713689 
L 288.133323 403.172513 
L 288.983998 386.436309 
L 290.177715 362.506977 
L 290.303587 361.496217 
L 290.397765 361.665064 
L 290.488898 362.109708 
L 290.647238 364.189224 
L 290.915072 371.399974 
L 291.585618 397.625826 
L 292.477026 428.628463 
L 293.255124 448.185045 
L 294.029599 463.261138 
L 294.056643 462.565595 
L 294.094717 464.270007 
L 294.112136 463.219209 
L 294.220144 466.607666 
L 295.112752 481.317566 
L 295.847771 490.419003 
L 296.488977 496.279847 
L 297.180244 500.682488 
L 297.786966 503.179924 
L 298.345384 504.560719 
L 298.775027 505.134754 
L 299.204669 505.360882 
L 299.634312 505.300353 
L 300.063954 505.006467 
L 300.617275 504.357084 
L 301.380203 503.095689 
L 302.483334 500.802547 
L 304.543084 495.892282 
L 310.660187 480.565853 
L 312.684435 474.880892 
L 314.394462 469.424096 
L 315.950596 463.675396 
L 317.336832 457.685697 
L 318.618566 451.181094 
L 319.90504 443.440454 
L 321.115181 434.749957 
L 322.52178 422.868104 
L 323.713139 409.949911 
L 325.513864 390.118217 
L 325.910839 387.960276 
L 326.112632 387.711714 
L 326.241069 387.913934 
L 326.440564 388.807508 
L 326.733662 391.374359 
L 327.15496 397.323083 
L 327.851011 410.961262 
L 329.373351 440.754634 
L 330.326361 454.924656 
L 331.996765 475.030181 
L 332.842267 482.394905 
L 333.612697 487.258159 
L 334.27137 490.181051 
L 334.920194 492.109906 
L 335.502877 493.166003 
L 335.957855 493.617706 
L 336.412094 493.792928 
L 336.866334 493.734074 
L 337.449227 493.373975 
L 338.093463 492.67699 
L 338.947813 491.386871 
L 340.077082 489.235121 
L 341.62128 485.778357 
L 343.804452 480.282988 
L 345.949287 474.312473 
L 347.948199 468.092812 
L 349.65627 462.063835 
L 351.2922 455.448849 
L 352.823439 448.307688 
L 354.385159 439.907975 
L 357.250825 422.740135 
L 358.269346 416.402974 
L 359.004084 412.81995 
L 359.483983 411.411381 
L 359.799354 411.040962 
L 360.060924 411.140594 
L 360.299275 411.561248 
L 360.614485 412.624267 
L 361.045585 414.990319 
L 361.614341 419.518983 
L 362.484851 428.498247 
L 364.79982 453.057087 
L 365.822732 461.224462 
L 366.493778 466.661656 
L 367.435588 472.952284 
L 368.262276 477.117225 
L 369.038344 479.950894 
L 369.748184 481.728822 
L 370.348922 482.705576 
L 370.520562 482.938771 
L 370.606382 482.849898 
L 370.692201 483.587336 
L 370.762487 483.271923 
L 370.832773 482.864896 
L 370.973346 484.898997 
L 371.043632 480.051649 
L 371.09891 483.332826 
L 371.142574 484.774945 
L 371.186239 474.730358 
L 371.255644 483.393812 
L 371.665921 483.447471 
L 372.194207 483.312525 
L 372.785472 482.927956 
L 373.466216 482.228688 
L 374.364999 480.965143 
L 375.512546 478.917258 
L 376.862409 476.042861 
L 378.605176 471.768986 
L 380.468175 466.605092 
L 382.475832 460.355426 
L 384.487818 453.330667 
L 387.164234 443.04367 
L 387.261459 443.223015 
L 387.310071 442.148469 
L 387.412941 442.323972 
L 388.803366 437.571605 
L 388.848697 436.818299 
L 388.936196 436.969369 
L 390.292225 432.676195 
L 390.690973 431.410742 
L 390.776283 431.471263 
L 390.81496 430.949571 
L 390.853637 431.213043 
L 390.892315 432.089728 
L 390.930992 430.734644 
L 391.024453 431.036798 
L 391.04831 428.490893 
L 391.096024 440.021869 
L 391.18601 430.589142 
L 391.434887 430.122666 
L 391.47142 430.304372 
L 391.507953 429.437516 
L 391.544486 432.517345 
L 391.615109 429.92942 
L 392.052558 429.550133 
L 392.407606 429.488108 
L 392.762653 429.66564 
L 393.162082 430.165887 
L 393.633325 431.170975 
L 394.210513 432.989869 
L 394.957804 436.17825 
L 396.026412 441.851351 
L 398.822512 457.126678 
L 400.439674 464.143625 
L 401.453739 467.963682 
L 402.301925 470.386061 
L 403.094171 472.038033 
L 403.787386 473.035382 
L 404.480602 473.653591 
L 405.074786 473.911975 
L 405.668971 473.946384 
L 406.298474 473.765373 
L 407.015554 473.319915 
L 407.856506 472.518447 
L 408.907998 471.162968 
L 410.091895 469.25591 
L 411.501242 466.569673 
L 413.304009 462.623629 
L 415.519588 457.20124 
L 419.03951 448.241164 
L 419.094012 448.420731 
L 419.266565 447.878156 
L 419.651949 447.088437 
L 422.133576 442.817663 
L 422.946059 441.945781 
L 423.653066 441.506749 
L 424.241739 441.403622 
L 424.77087 441.531898 
L 425.358793 441.929377 
L 425.999428 442.662418 
L 426.737196 443.886797 
L 427.643908 445.849749 
L 428.906745 449.168641 
L 432.191662 458.024043 
L 434.255692 462.502146 
L 435.201296 464.151957 
L 436.082301 465.296431 
L 436.961579 466.071056 
L 437.772603 466.478568 
L 438.472354 466.61159 
L 439.312056 466.525206 
L 440.151758 466.200815 
L 441.13141 465.558064 
L 442.114748 464.666323 
L 443.28495 463.338964 
L 444.901191 461.135086 
L 446.753035 458.253532 
L 450.654546 452.102481 
L 452.314642 450.210756 
L 453.619004 449.066711 
L 454.668655 448.450033 
L 455.552117 448.18507 
L 456.355265 448.166904 
L 457.175107 448.376242 
L 458.020461 448.830386 
L 458.918791 449.559404 
L 460.070269 450.805863 
L 461.571038 452.784322 
L 465.090985 457.524352 
L 467.187629 459.789066 
L 468.324372 460.78026 
L 469.393123 461.417804 
L 470.333627 461.743588 
L 471.323738 461.856108 
L 472.192334 461.781221 
L 473.322231 461.453157 
L 474.480142 460.884199 
L 475.996894 459.846416 
L 477.750921 458.34591 
L 481.176168 455.023114 
L 482.162698 454.211674 
L 483.978889 452.996886 
L 485.421818 452.275413 
L 486.663227 451.883214 
L 487.821611 451.736938 
L 488.959279 451.811606 
L 490.094908 452.098166 
L 491.435548 452.681487 
L 493.045304 453.652089 
L 499.29252 457.722691 
L 501.198407 458.663471 
L 501.332636 458.464519 
L 501.466866 459.210829 
L 501.573139 459.008707 
L 501.65498 458.317216 
L 501.784839 458.782453 
L 502.196457 458.825907 
L 502.272407 459.069498 
L 502.348357 458.457622 
L 502.424307 460.202275 
L 502.500257 458.850753 
L 502.576207 459.110788 
L 502.652157 458.794294 
L 502.728107 459.112647 
L 502.980908 459.011587 
L 503.931087 459.105947 
L 504.079279 458.934551 
L 504.227471 459.368163 
L 504.375663 459.022596 
L 504.523855 459.064565 
L 504.672047 458.983815 
L 504.820239 460.066847 
L 504.942573 458.98905 
L 505.187242 458.954798 
L 505.309577 458.150387 
L 505.350137 458.926151 
L 505.410977 458.911927 
L 506.588017 458.623136 
L 508.202101 458.021546 
L 510.300409 456.988642 
L 513.947161 455.064799 
L 514.140492 455.095644 
L 514.913816 454.68307 
L 515.873321 454.356828 
L 517.762471 453.834121 
L 518.028084 453.817793 
L 518.16089 453.700098 
L 518.426503 453.915864 
L 518.55931 453.632952 
L 518.824922 453.683649 
L 520.418599 453.616449 
L 522.091066 453.780094 
L 523.905869 454.196553 
L 526.276842 454.996438 
L 531.178261 456.709932 
L 533.290303 457.162887 
L 535.16442 457.434436 
L 536.868162 457.462402 
L 538.646319 457.28447 
L 540.764466 456.847773 
L 548.952882 454.848877 
L 551.250745 454.620045 
L 553.371849 454.621907 
L 555.7012 454.845506 
L 558.744762 455.377946 
L 564.072358 456.343362 
L 566.632332 456.578942 
L 569.289655 456.597465 
L 572.106423 456.391315 
L 576.381561 455.822816 
L 581.147032 455.248351 
L 584.141067 455.109899 
L 587.264893 455.19601 
L 591.228214 455.551348 
L 597.435747 456.116437 
L 601.054264 456.195241 
L 604.82107 456.047927 
L 616.930633 455.372091 
L 621.36768 455.494773 
L 632.833469 455.957545 
L 638.01887 455.840352 
L 649.258054 455.503134 
L 655.597162 455.624184 
L 665.345462 455.815001 
L 673.183016 455.682408 
L 682.402904 455.565005 
L 713.836882 455.585768 
L 890.412823 455.53421 
L 1151.113352 455.417767 
L 1151.113352 455.417767 
" clip-path="url(#p49f2efd9e6)" style="fill: none; stroke: #f781bf; stroke-linecap: square"/>
   </g>
   <g id="line2d_37">
    <path d="M 218.173978 560.240625 
L 218.21403 233.486891 
L 218.314376 318.440194 
L 218.352896 316.319487 
L 218.414537 319.424311 
L 218.626389 348.329845 
L 218.968851 379.498259 
L 219.397578 399.040382 
L 219.930605 413.495409 
L 220.573325 425.02278 
L 221.33467 434.743637 
L 222.226436 443.29914 
L 223.263643 451.095352 
L 224.455105 458.367912 
L 225.84844 465.500243 
L 227.544961 473.000581 
L 229.778095 481.79855 
L 238.033472 513.384982 
L 239.84326 521.640186 
L 241.432865 529.840908 
L 242.869009 538.369887 
L 244.142765 547.232225 
L 245.295364 556.795923 
L 245.660578 560.240625 
M 249.15351 560.240625 
L 249.849339 522.037048 
L 250.517713 472.963521 
L 251.137608 409.903269 
L 251.798249 345.40284 
L 251.861868 344.466314 
L 251.915711 345.214225 
L 252.032341 351.577888 
L 252.383397 388.017527 
L 252.832697 422.547759 
L 253.311963 442.874929 
L 253.86644 457.511624 
L 254.532465 469.334739 
L 255.276677 478.771801 
L 256.154537 487.102799 
L 257.13019 494.276543 
L 258.227822 500.732557 
L 259.482359 506.775732 
L 260.865831 512.3632 
L 262.433148 517.796585 
L 264.271558 523.379232 
L 266.571785 529.62224 
L 269.698884 537.429209 
L 275.192817 551.07408 
L 277.47905 557.400222 
L 278.419746 560.240625 
M 287.445812 560.240625 
L 288.244646 522.031529 
L 289.171512 466.687456 
L 290.161472 408.976262 
L 290.434793 403.258722 
L 290.488898 403.103668 
L 290.537471 403.281781 
L 290.647238 404.797789 
L 290.849854 411.470068 
L 291.476434 443.539027 
L 292.064081 466.075104 
L 292.689575 481.803566 
L 293.393439 494.082075 
L 294.196248 504.265944 
L 295.078555 512.761438 
L 296.091086 520.41948 
L 297.216195 527.287046 
L 298.517241 533.848365 
L 299.978025 540.07061 
L 301.666301 546.290571 
L 303.749881 553.080536 
L 306.152528 560.240625 
M 323.458889 560.240625 
L 325.648131 482.351553 
L 326.06982 474.951032 
L 326.298153 473.69816 
L 326.37586 473.766201 
L 326.507177 474.44521 
L 326.733662 477.173771 
L 327.095281 484.784345 
L 329.184083 534.629935 
L 330.051025 547.247273 
L 331.00529 557.894826 
L 331.249994 560.240625 
M 358.935732 560.240625 
L 359.511768 552.671522 
L 359.930547 549.669475 
L 360.176289 549.11054 
L 360.299275 549.165355 
L 360.474797 549.630487 
L 360.744603 551.206667 
L 361.22 555.831623 
L 361.536797 560.240625 
L 361.536797 560.240625 
" clip-path="url(#p49f2efd9e6)" style="fill: none; stroke: #2ca02c; stroke-linecap: square"/>
   </g>
   <g id="line2d_38">
    <path d="M 136.567898 65.895339 
L 218.211822 66.005893 
L 218.217106 66.19406 
L 218.325235 66.141372 
L 511.591676 66.141324 
L 1151.113352 66.141315 
L 1151.113352 66.141315 
" clip-path="url(#p49f2efd9e6)" style="fill: none; stroke: #d444ca; stroke-linecap: square"/>
   </g>
   <g id="patch_3">
    <path d="M 85.840625 506.16 
L 85.840625 7.2 
" style="fill: none; stroke: #000000; stroke-width: 0.8; stroke-linejoin: miter; stroke-linecap: square"/>
   </g>
   <g id="patch_4">
    <path d="M 1201.840625 506.16 
L 1201.840625 7.2 
" style="fill: none; stroke: #000000; stroke-width: 0.8; stroke-linejoin: miter; stroke-linecap: square"/>
   </g>
   <g id="patch_5">
    <path d="M 85.840625 506.16 
L 1201.840625 506.16 
" style="fill: none; stroke: #000000; stroke-width: 0.8; stroke-linejoin: miter; stroke-linecap: square"/>
   </g>
   <g id="patch_6">
    <path d="M 85.840625 7.2 
L 1201.840625 7.2 
" style="fill: none; stroke: #000000; stroke-width: 0.8; stroke-linejoin: miter; stroke-linecap: square"/>
   </g>
   <g id="text_16">
    <g id="patch_7">
     <path d="M 1151.113352 59.283634 
L 1173.253352 59.283634 
L 1173.253352 41.863009 
L 1151.113352 41.863009 
z
" style="fill: #ffffff"/>
    </g>
    <!-- $H_2$ -->
    <g style="fill: #377eb8" transform="translate(1151.113352 55.540196) scale(0.18 -0.18)">
     <defs>
      <path id="DejaVuSans-Oblique-48" d="M 1081 4666 
L 1716 4666 
L 1344 2753 
L 3634 2753 
L 4006 4666 
L 4641 4666 
L 3731 0 
L 3097 0 
L 3531 2222 
L 1241 2222 
L 806 0 
L 172 0 
L 1081 4666 
z
" transform="scale(0.015625)"/>
     </defs>
     <use xlink:href="#DejaVuSans-Oblique-48" transform="translate(0 0.09375)"/>
     <use xlink:href="#DejaVuSans-32" transform="translate(75.195312 -16.3125) scale(0.7)"/>
    </g>
   </g>
   <g id="text_17">
    <g id="patch_8">
     <path d="M 1151.113352 77.036423 
L 1173.253352 77.036423 
L 1173.253352 59.615798 
L 1151.113352 59.615798 
z
" style="fill: #ffffff"/>
    </g>
    <!-- $N_2$ -->
    <g style="fill: #d444ca" transform="translate(1151.113352 73.292985) scale(0.18 -0.18)">
     <defs>
      <path id="DejaVuSans-Oblique-4e" d="M 1081 4666 
L 1931 4666 
L 3219 666 
L 4000 4666 
L 4616 4666 
L 3706 0 
L 2853 0 
L 1569 4025 
L 788 0 
L 172 0 
L 1081 4666 
z
" transform="scale(0.015625)"/>
     </defs>
     <use xlink:href="#DejaVuSans-Oblique-4e" transform="translate(0 0.09375)"/>
     <use xlink:href="#DejaVuSans-32" transform="translate(74.804688 -16.3125) scale(0.7)"/>
    </g>
   </g>
   <g id="text_18">
    <g id="patch_9">
     <path d="M 1151.113352 122.36888 
L 1186.753352 122.36888 
L 1186.753352 104.948255 
L 1151.113352 104.948255 
z
" style="fill: #ffffff"/>
    </g>
    <!-- $NH_3$ -->
    <g style="fill: #e41a1c" transform="translate(1151.113352 118.625443) scale(0.18 -0.18)">
     <defs>
      <path id="DejaVuSans-33" d="M 2597 2516 
Q 3050 2419 3304 2112 
Q 3559 1806 3559 1356 
Q 3559 666 3084 287 
Q 2609 -91 1734 -91 
Q 1441 -91 1130 -33 
Q 819 25 488 141 
L 488 750 
Q 750 597 1062 519 
Q 1375 441 1716 441 
Q 2309 441 2620 675 
Q 2931 909 2931 1356 
Q 2931 1769 2642 2001 
Q 2353 2234 1838 2234 
L 1294 2234 
L 1294 2753 
L 1863 2753 
Q 2328 2753 2575 2939 
Q 2822 3125 2822 3475 
Q 2822 3834 2567 4026 
Q 2313 4219 1838 4219 
Q 1578 4219 1281 4162 
Q 984 4106 628 3988 
L 628 4550 
Q 988 4650 1302 4700 
Q 1616 4750 1894 4750 
Q 2613 4750 3031 4423 
Q 3450 4097 3450 3541 
Q 3450 3153 3228 2886 
Q 3006 2619 2597 2516 
z
" transform="scale(0.015625)"/>
     </defs>
     <use xlink:href="#DejaVuSans-Oblique-4e" transform="translate(0 0.09375)"/>
     <use xlink:href="#DejaVuSans-Oblique-48" transform="translate(74.804688 0.09375)"/>
     <use xlink:href="#DejaVuSans-33" transform="translate(150 -16.3125) scale(0.7)"/>
    </g>
   </g>
   <g id="text_19">
    <g id="patch_10">
     <path d="M 1151.113352 191.517534 
L 1164.793352 191.517534 
L 1164.793352 174.096909 
L 1151.113352 174.096909 
z
" style="fill: #ffffff"/>
    </g>
    <!-- $H$ -->
    <g style="fill: #4daf4a" transform="translate(1151.113352 187.774096) scale(0.18 -0.18)">
     <use xlink:href="#DejaVuSans-Oblique-48" transform="translate(0 0.09375)"/>
    </g>
   </g>
   <g id="text_20">
    <g id="patch_11">
     <path d="M 1151.113352 219.964977 
L 1164.613352 219.964977 
L 1164.613352 202.544352 
L 1151.113352 202.544352 
z
" style="fill: #ffffff"/>
    </g>
    <!-- $N$ -->
    <g style="fill: #33adff" transform="translate(1151.113352 216.22154) scale(0.18 -0.18)">
     <use xlink:href="#DejaVuSans-Oblique-4e" transform="translate(0 0.09375)"/>
    </g>
   </g>
   <g id="text_21">
    <g id="patch_12">
     <path d="M 1151.113352 464.128079 
L 1195.213352 464.128079 
L 1195.213352 446.707454 
L 1151.113352 446.707454 
z
" style="fill: #ffffff"/>
    </g>
    <!-- $N_2H_2$ -->
    <g style="fill: #f781bf" transform="translate(1151.113352 460.384642) scale(0.18 -0.18)">
     <use xlink:href="#DejaVuSans-Oblique-4e" transform="translate(0 0.09375)"/>
     <use xlink:href="#DejaVuSans-32" transform="translate(74.804688 -16.3125) scale(0.7)"/>
     <use xlink:href="#DejaVuSans-Oblique-48" transform="translate(122.075195 0.09375)"/>
     <use xlink:href="#DejaVuSans-32" transform="translate(197.270508 -16.3125) scale(0.7)"/>
    </g>
   </g>
  </g>
 </g>
 <defs>
  <clipPath id="p49f2efd9e6">
   <rect x="85.840625" y="7.2" width="1116" height="498.96"/>
  </clipPath>
 </defs>
</svg>
