<?xml version="1.0" encoding="utf-8" standalone="no"?>
<!DOCTYPE svg PUBLIC "-//W3C//DTD SVG 1.1//EN"
  "http://www.w3.org/Graphics/SVG/1.1/DTD/svg11.dtd">
<svg xmlns:xlink="http://www.w3.org/1999/xlink" width="1261.676875pt" height="392.920625pt" viewBox="0 0 1261.676875 392.920625" xmlns="http://www.w3.org/2000/svg" version="1.1">
 <metadata>
  <rdf:RDF xmlns:dc="http://purl.org/dc/elements/1.1/" xmlns:cc="http://creativecommons.org/ns#" xmlns:rdf="http://www.w3.org/1999/02/22-rdf-syntax-ns#">
   <cc:Work>
    <dc:type rdf:resource="http://purl.org/dc/dcmitype/StillImage"/>
    <dc:date>2023-12-03T13:02:55.888028</dc:date>
    <dc:format>image/svg+xml</dc:format>
    <dc:creator>
     <cc:Agent>
      <dc:title>Matplotlib v3.7.0, https://matplotlib.org/</dc:title>
     </cc:Agent>
    </dc:creator>
   </cc:Work>
  </rdf:RDF>
 </metadata>
 <defs>
  <style type="text/css">*{stroke-linejoin: round; stroke-linecap: butt}</style>
 </defs>
 <g id="figure_1">
  <g id="patch_1">
   <path d="M -0 392.920625 
L 1261.676875 392.920625 
L 1261.676875 0 
L -0 0 
z
" style="fill: #ffffff"/>
  </g>
  <g id="axes_1">
   <g id="patch_2">
    <path d="M 64.24625 339.84 
L 1180.24625 339.84 
L 1180.24625 7.2 
L 64.24625 7.2 
z
" style="fill: #ffffff"/>
   </g>
   <g id="matplotlib.axis_1">
    <g id="xtick_1">
     <g id="line2d_1">
      <path d="M 114.973523 339.84 
L 114.973523 7.2 
" clip-path="url(#p2f592a3703)" style="fill: none; stroke: #b0b0b0; stroke-width: 0.8; stroke-linecap: square"/>
     </g>
     <g id="line2d_2">
      <defs>
       <path id="m7a1e9d03d4" d="M 0 0 
L 0 3.5 
" style="stroke: #000000; stroke-width: 0.8"/>
      </defs>
      <g>
       <use xlink:href="#m7a1e9d03d4" x="114.973523" y="339.84" style="stroke: #000000; stroke-width: 0.8"/>
      </g>
     </g>
     <g id="text_1">
      <!-- 0 -->
      <g transform="translate(109.247273 360.517188) scale(0.18 -0.18)">
       <defs>
        <path id="DejaVuSans-30" d="M 2034 4250 
Q 1547 4250 1301 3770 
Q 1056 3291 1056 2328 
Q 1056 1369 1301 889 
Q 1547 409 2034 409 
Q 2525 409 2770 889 
Q 3016 1369 3016 2328 
Q 3016 3291 2770 3770 
Q 2525 4250 2034 4250 
z
M 2034 4750 
Q 2819 4750 3233 4129 
Q 3647 3509 3647 2328 
Q 3647 1150 3233 529 
Q 2819 -91 2034 -91 
Q 1250 -91 836 529 
Q 422 1150 422 2328 
Q 422 3509 836 4129 
Q 1250 4750 2034 4750 
z
" transform="scale(0.015625)"/>
       </defs>
       <use xlink:href="#DejaVuSans-30"/>
      </g>
     </g>
    </g>
    <g id="xtick_2">
     <g id="line2d_3">
      <path d="M 338.210273 339.84 
L 338.210273 7.2 
" clip-path="url(#p2f592a3703)" style="fill: none; stroke: #b0b0b0; stroke-width: 0.8; stroke-linecap: square"/>
     </g>
     <g id="line2d_4">
      <g>
       <use xlink:href="#m7a1e9d03d4" x="338.210273" y="339.84" style="stroke: #000000; stroke-width: 0.8"/>
      </g>
     </g>
     <g id="text_2">
      <!-- 200 -->
      <g transform="translate(321.031523 360.517188) scale(0.18 -0.18)">
       <defs>
        <path id="DejaVuSans-32" d="M 1228 531 
L 3431 531 
L 3431 0 
L 469 0 
L 469 531 
Q 828 903 1448 1529 
Q 2069 2156 2228 2338 
Q 2531 2678 2651 2914 
Q 2772 3150 2772 3378 
Q 2772 3750 2511 3984 
Q 2250 4219 1831 4219 
Q 1534 4219 1204 4116 
Q 875 4013 500 3803 
L 500 4441 
Q 881 4594 1212 4672 
Q 1544 4750 1819 4750 
Q 2544 4750 2975 4387 
Q 3406 4025 3406 3419 
Q 3406 3131 3298 2873 
Q 3191 2616 2906 2266 
Q 2828 2175 2409 1742 
Q 1991 1309 1228 531 
z
" transform="scale(0.015625)"/>
       </defs>
       <use xlink:href="#DejaVuSans-32"/>
       <use xlink:href="#DejaVuSans-30" x="63.623047"/>
       <use xlink:href="#DejaVuSans-30" x="127.246094"/>
      </g>
     </g>
    </g>
    <g id="xtick_3">
     <g id="line2d_5">
      <path d="M 561.447024 339.84 
L 561.447024 7.2 
" clip-path="url(#p2f592a3703)" style="fill: none; stroke: #b0b0b0; stroke-width: 0.8; stroke-linecap: square"/>
     </g>
     <g id="line2d_6">
      <g>
       <use xlink:href="#m7a1e9d03d4" x="561.447024" y="339.84" style="stroke: #000000; stroke-width: 0.8"/>
      </g>
     </g>
     <g id="text_3">
      <!-- 400 -->
      <g transform="translate(544.268274 360.517188) scale(0.18 -0.18)">
       <defs>
        <path id="DejaVuSans-34" d="M 2419 4116 
L 825 1625 
L 2419 1625 
L 2419 4116 
z
M 2253 4666 
L 3047 4666 
L 3047 1625 
L 3713 1625 
L 3713 1100 
L 3047 1100 
L 3047 0 
L 2419 0 
L 2419 1100 
L 313 1100 
L 313 1709 
L 2253 4666 
z
" transform="scale(0.015625)"/>
       </defs>
       <use xlink:href="#DejaVuSans-34"/>
       <use xlink:href="#DejaVuSans-30" x="63.623047"/>
       <use xlink:href="#DejaVuSans-30" x="127.246094"/>
      </g>
     </g>
    </g>
    <g id="xtick_4">
     <g id="line2d_7">
      <path d="M 784.683775 339.84 
L 784.683775 7.2 
" clip-path="url(#p2f592a3703)" style="fill: none; stroke: #b0b0b0; stroke-width: 0.8; stroke-linecap: square"/>
     </g>
     <g id="line2d_8">
      <g>
       <use xlink:href="#m7a1e9d03d4" x="784.683775" y="339.84" style="stroke: #000000; stroke-width: 0.8"/>
      </g>
     </g>
     <g id="text_4">
      <!-- 600 -->
      <g transform="translate(767.505025 360.517188) scale(0.18 -0.18)">
       <defs>
        <path id="DejaVuSans-36" d="M 2113 2584 
Q 1688 2584 1439 2293 
Q 1191 2003 1191 1497 
Q 1191 994 1439 701 
Q 1688 409 2113 409 
Q 2538 409 2786 701 
Q 3034 994 3034 1497 
Q 3034 2003 2786 2293 
Q 2538 2584 2113 2584 
z
M 3366 4563 
L 3366 3988 
Q 3128 4100 2886 4159 
Q 2644 4219 2406 4219 
Q 1781 4219 1451 3797 
Q 1122 3375 1075 2522 
Q 1259 2794 1537 2939 
Q 1816 3084 2150 3084 
Q 2853 3084 3261 2657 
Q 3669 2231 3669 1497 
Q 3669 778 3244 343 
Q 2819 -91 2113 -91 
Q 1303 -91 875 529 
Q 447 1150 447 2328 
Q 447 3434 972 4092 
Q 1497 4750 2381 4750 
Q 2619 4750 2861 4703 
Q 3103 4656 3366 4563 
z
" transform="scale(0.015625)"/>
       </defs>
       <use xlink:href="#DejaVuSans-36"/>
       <use xlink:href="#DejaVuSans-30" x="63.623047"/>
       <use xlink:href="#DejaVuSans-30" x="127.246094"/>
      </g>
     </g>
    </g>
    <g id="xtick_5">
     <g id="line2d_9">
      <path d="M 1007.920525 339.84 
L 1007.920525 7.2 
" clip-path="url(#p2f592a3703)" style="fill: none; stroke: #b0b0b0; stroke-width: 0.8; stroke-linecap: square"/>
     </g>
     <g id="line2d_10">
      <g>
       <use xlink:href="#m7a1e9d03d4" x="1007.920525" y="339.84" style="stroke: #000000; stroke-width: 0.8"/>
      </g>
     </g>
     <g id="text_5">
      <!-- 800 -->
      <g transform="translate(990.741775 360.517188) scale(0.18 -0.18)">
       <defs>
        <path id="DejaVuSans-38" d="M 2034 2216 
Q 1584 2216 1326 1975 
Q 1069 1734 1069 1313 
Q 1069 891 1326 650 
Q 1584 409 2034 409 
Q 2484 409 2743 651 
Q 3003 894 3003 1313 
Q 3003 1734 2745 1975 
Q 2488 2216 2034 2216 
z
M 1403 2484 
Q 997 2584 770 2862 
Q 544 3141 544 3541 
Q 544 4100 942 4425 
Q 1341 4750 2034 4750 
Q 2731 4750 3128 4425 
Q 3525 4100 3525 3541 
Q 3525 3141 3298 2862 
Q 3072 2584 2669 2484 
Q 3125 2378 3379 2068 
Q 3634 1759 3634 1313 
Q 3634 634 3220 271 
Q 2806 -91 2034 -91 
Q 1263 -91 848 271 
Q 434 634 434 1313 
Q 434 1759 690 2068 
Q 947 2378 1403 2484 
z
M 1172 3481 
Q 1172 3119 1398 2916 
Q 1625 2713 2034 2713 
Q 2441 2713 2670 2916 
Q 2900 3119 2900 3481 
Q 2900 3844 2670 4047 
Q 2441 4250 2034 4250 
Q 1625 4250 1398 4047 
Q 1172 3844 1172 3481 
z
" transform="scale(0.015625)"/>
       </defs>
       <use xlink:href="#DejaVuSans-38"/>
       <use xlink:href="#DejaVuSans-30" x="63.623047"/>
       <use xlink:href="#DejaVuSans-30" x="127.246094"/>
      </g>
     </g>
    </g>
    <g id="text_6">
     <!-- $t$ [μs] -->
     <g transform="translate(598.39625 381.940625) scale(0.18 -0.18)">
      <defs>
       <path id="DejaVuSans-Oblique-74" d="M 2706 3500 
L 2619 3053 
L 1472 3053 
L 1100 1153 
Q 1081 1047 1072 975 
Q 1063 903 1063 863 
Q 1063 663 1183 572 
Q 1303 481 1569 481 
L 2150 481 
L 2053 0 
L 1503 0 
Q 991 0 739 200 
Q 488 400 488 806 
Q 488 878 497 964 
Q 506 1050 525 1153 
L 897 3053 
L 409 3053 
L 500 3500 
L 978 3500 
L 1172 4494 
L 1747 4494 
L 1556 3500 
L 2706 3500 
z
" transform="scale(0.015625)"/>
       <path id="DejaVuSans-20" transform="scale(0.015625)"/>
       <path id="DejaVuSans-5b" d="M 550 4863 
L 1875 4863 
L 1875 4416 
L 1125 4416 
L 1125 -397 
L 1875 -397 
L 1875 -844 
L 550 -844 
L 550 4863 
z
" transform="scale(0.015625)"/>
       <path id="DejaVuSans-3bc" d="M 544 -1331 
L 544 3500 
L 1119 3500 
L 1119 1325 
Q 1119 872 1334 640 
Q 1550 409 1972 409 
Q 2434 409 2667 671 
Q 2900 934 2900 1459 
L 2900 3500 
L 3475 3500 
L 3475 806 
Q 3475 619 3529 530 
Q 3584 441 3700 441 
Q 3728 441 3778 458 
Q 3828 475 3916 513 
L 3916 50 
Q 3788 -22 3673 -56 
Q 3559 -91 3450 -91 
Q 3234 -91 3106 31 
Q 2978 153 2931 403 
Q 2775 156 2548 32 
Q 2322 -91 2016 -91 
Q 1697 -91 1473 31 
Q 1250 153 1119 397 
L 1119 -1331 
L 544 -1331 
z
" transform="scale(0.015625)"/>
       <path id="DejaVuSans-73" d="M 2834 3397 
L 2834 2853 
Q 2591 2978 2328 3040 
Q 2066 3103 1784 3103 
Q 1356 3103 1142 2972 
Q 928 2841 928 2578 
Q 928 2378 1081 2264 
Q 1234 2150 1697 2047 
L 1894 2003 
Q 2506 1872 2764 1633 
Q 3022 1394 3022 966 
Q 3022 478 2636 193 
Q 2250 -91 1575 -91 
Q 1294 -91 989 -36 
Q 684 19 347 128 
L 347 722 
Q 666 556 975 473 
Q 1284 391 1588 391 
Q 1994 391 2212 530 
Q 2431 669 2431 922 
Q 2431 1156 2273 1281 
Q 2116 1406 1581 1522 
L 1381 1569 
Q 847 1681 609 1914 
Q 372 2147 372 2553 
Q 372 3047 722 3315 
Q 1072 3584 1716 3584 
Q 2034 3584 2315 3537 
Q 2597 3491 2834 3397 
z
" transform="scale(0.015625)"/>
       <path id="DejaVuSans-5d" d="M 1947 4863 
L 1947 -844 
L 622 -844 
L 622 -397 
L 1369 -397 
L 1369 4416 
L 622 4416 
L 622 4863 
L 1947 4863 
z
" transform="scale(0.015625)"/>
      </defs>
      <use xlink:href="#DejaVuSans-Oblique-74" transform="translate(0 0.015625)"/>
      <use xlink:href="#DejaVuSans-20" transform="translate(39.208984 0.015625)"/>
      <use xlink:href="#DejaVuSans-5b" transform="translate(70.996094 0.015625)"/>
      <use xlink:href="#DejaVuSans-3bc" transform="translate(110.009766 0.015625)"/>
      <use xlink:href="#DejaVuSans-73" transform="translate(173.632812 0.015625)"/>
      <use xlink:href="#DejaVuSans-5d" transform="translate(225.732422 0.015625)"/>
     </g>
    </g>
   </g>
   <g id="matplotlib.axis_2">
    <g id="ytick_1">
     <g id="line2d_11">
      <path d="M 64.24625 333.442968 
L 1180.24625 333.442968 
" clip-path="url(#p2f592a3703)" style="fill: none; stroke: #b0b0b0; stroke-width: 0.8; stroke-linecap: square"/>
     </g>
     <g id="line2d_12">
      <defs>
       <path id="mbf0e296640" d="M 0 0 
L -3.5 0 
" style="stroke: #000000; stroke-width: 0.8"/>
      </defs>
      <g>
       <use xlink:href="#mbf0e296640" x="64.24625" y="333.442968" style="stroke: #000000; stroke-width: 0.8"/>
      </g>
     </g>
     <g id="text_7">
      <!-- 0.0 -->
      <g transform="translate(28.620625 340.281561) scale(0.18 -0.18)">
       <defs>
        <path id="DejaVuSans-2e" d="M 684 794 
L 1344 794 
L 1344 0 
L 684 0 
L 684 794 
z
" transform="scale(0.015625)"/>
       </defs>
       <use xlink:href="#DejaVuSans-30"/>
       <use xlink:href="#DejaVuSans-2e" x="63.623047"/>
       <use xlink:href="#DejaVuSans-30" x="95.410156"/>
      </g>
     </g>
    </g>
    <g id="ytick_2">
     <g id="line2d_13">
      <path d="M 64.24625 291.948195 
L 1180.24625 291.948195 
" clip-path="url(#p2f592a3703)" style="fill: none; stroke: #b0b0b0; stroke-width: 0.8; stroke-linecap: square"/>
     </g>
     <g id="line2d_14">
      <g>
       <use xlink:href="#mbf0e296640" x="64.24625" y="291.948195" style="stroke: #000000; stroke-width: 0.8"/>
      </g>
     </g>
     <g id="text_8">
      <!-- 0.5 -->
      <g transform="translate(28.620625 298.786789) scale(0.18 -0.18)">
       <defs>
        <path id="DejaVuSans-35" d="M 691 4666 
L 3169 4666 
L 3169 4134 
L 1269 4134 
L 1269 2991 
Q 1406 3038 1543 3061 
Q 1681 3084 1819 3084 
Q 2600 3084 3056 2656 
Q 3513 2228 3513 1497 
Q 3513 744 3044 326 
Q 2575 -91 1722 -91 
Q 1428 -91 1123 -41 
Q 819 9 494 109 
L 494 744 
Q 775 591 1075 516 
Q 1375 441 1709 441 
Q 2250 441 2565 725 
Q 2881 1009 2881 1497 
Q 2881 1984 2565 2268 
Q 2250 2553 1709 2553 
Q 1456 2553 1204 2497 
Q 953 2441 691 2322 
L 691 4666 
z
" transform="scale(0.015625)"/>
       </defs>
       <use xlink:href="#DejaVuSans-30"/>
       <use xlink:href="#DejaVuSans-2e" x="63.623047"/>
       <use xlink:href="#DejaVuSans-35" x="95.410156"/>
      </g>
     </g>
    </g>
    <g id="ytick_3">
     <g id="line2d_15">
      <path d="M 64.24625 250.453423 
L 1180.24625 250.453423 
" clip-path="url(#p2f592a3703)" style="fill: none; stroke: #b0b0b0; stroke-width: 0.8; stroke-linecap: square"/>
     </g>
     <g id="line2d_16">
      <g>
       <use xlink:href="#mbf0e296640" x="64.24625" y="250.453423" style="stroke: #000000; stroke-width: 0.8"/>
      </g>
     </g>
     <g id="text_9">
      <!-- 1.0 -->
      <g transform="translate(28.620625 257.292017) scale(0.18 -0.18)">
       <defs>
        <path id="DejaVuSans-31" d="M 794 531 
L 1825 531 
L 1825 4091 
L 703 3866 
L 703 4441 
L 1819 4666 
L 2450 4666 
L 2450 531 
L 3481 531 
L 3481 0 
L 794 0 
L 794 531 
z
" transform="scale(0.015625)"/>
       </defs>
       <use xlink:href="#DejaVuSans-31"/>
       <use xlink:href="#DejaVuSans-2e" x="63.623047"/>
       <use xlink:href="#DejaVuSans-30" x="95.410156"/>
      </g>
     </g>
    </g>
    <g id="ytick_4">
     <g id="line2d_17">
      <path d="M 64.24625 208.958651 
L 1180.24625 208.958651 
" clip-path="url(#p2f592a3703)" style="fill: none; stroke: #b0b0b0; stroke-width: 0.8; stroke-linecap: square"/>
     </g>
     <g id="line2d_18">
      <g>
       <use xlink:href="#mbf0e296640" x="64.24625" y="208.958651" style="stroke: #000000; stroke-width: 0.8"/>
      </g>
     </g>
     <g id="text_10">
      <!-- 1.5 -->
      <g transform="translate(28.620625 215.797245) scale(0.18 -0.18)">
       <use xlink:href="#DejaVuSans-31"/>
       <use xlink:href="#DejaVuSans-2e" x="63.623047"/>
       <use xlink:href="#DejaVuSans-35" x="95.410156"/>
      </g>
     </g>
    </g>
    <g id="ytick_5">
     <g id="line2d_19">
      <path d="M 64.24625 167.463879 
L 1180.24625 167.463879 
" clip-path="url(#p2f592a3703)" style="fill: none; stroke: #b0b0b0; stroke-width: 0.8; stroke-linecap: square"/>
     </g>
     <g id="line2d_20">
      <g>
       <use xlink:href="#mbf0e296640" x="64.24625" y="167.463879" style="stroke: #000000; stroke-width: 0.8"/>
      </g>
     </g>
     <g id="text_11">
      <!-- 2.0 -->
      <g transform="translate(28.620625 174.302472) scale(0.18 -0.18)">
       <use xlink:href="#DejaVuSans-32"/>
       <use xlink:href="#DejaVuSans-2e" x="63.623047"/>
       <use xlink:href="#DejaVuSans-30" x="95.410156"/>
      </g>
     </g>
    </g>
    <g id="ytick_6">
     <g id="line2d_21">
      <path d="M 64.24625 125.969106 
L 1180.24625 125.969106 
" clip-path="url(#p2f592a3703)" style="fill: none; stroke: #b0b0b0; stroke-width: 0.8; stroke-linecap: square"/>
     </g>
     <g id="line2d_22">
      <g>
       <use xlink:href="#mbf0e296640" x="64.24625" y="125.969106" style="stroke: #000000; stroke-width: 0.8"/>
      </g>
     </g>
     <g id="text_12">
      <!-- 2.5 -->
      <g transform="translate(28.620625 132.8077) scale(0.18 -0.18)">
       <use xlink:href="#DejaVuSans-32"/>
       <use xlink:href="#DejaVuSans-2e" x="63.623047"/>
       <use xlink:href="#DejaVuSans-35" x="95.410156"/>
      </g>
     </g>
    </g>
    <g id="ytick_7">
     <g id="line2d_23">
      <path d="M 64.24625 84.474334 
L 1180.24625 84.474334 
" clip-path="url(#p2f592a3703)" style="fill: none; stroke: #b0b0b0; stroke-width: 0.8; stroke-linecap: square"/>
     </g>
     <g id="line2d_24">
      <g>
       <use xlink:href="#mbf0e296640" x="64.24625" y="84.474334" style="stroke: #000000; stroke-width: 0.8"/>
      </g>
     </g>
     <g id="text_13">
      <!-- 3.0 -->
      <g transform="translate(28.620625 91.312928) scale(0.18 -0.18)">
       <defs>
        <path id="DejaVuSans-33" d="M 2597 2516 
Q 3050 2419 3304 2112 
Q 3559 1806 3559 1356 
Q 3559 666 3084 287 
Q 2609 -91 1734 -91 
Q 1441 -91 1130 -33 
Q 819 25 488 141 
L 488 750 
Q 750 597 1062 519 
Q 1375 441 1716 441 
Q 2309 441 2620 675 
Q 2931 909 2931 1356 
Q 2931 1769 2642 2001 
Q 2353 2234 1838 2234 
L 1294 2234 
L 1294 2753 
L 1863 2753 
Q 2328 2753 2575 2939 
Q 2822 3125 2822 3475 
Q 2822 3834 2567 4026 
Q 2313 4219 1838 4219 
Q 1578 4219 1281 4162 
Q 984 4106 628 3988 
L 628 4550 
Q 988 4650 1302 4700 
Q 1616 4750 1894 4750 
Q 2613 4750 3031 4423 
Q 3450 4097 3450 3541 
Q 3450 3153 3228 2886 
Q 3006 2619 2597 2516 
z
" transform="scale(0.015625)"/>
       </defs>
       <use xlink:href="#DejaVuSans-33"/>
       <use xlink:href="#DejaVuSans-2e" x="63.623047"/>
       <use xlink:href="#DejaVuSans-30" x="95.410156"/>
      </g>
     </g>
    </g>
    <g id="ytick_8">
     <g id="line2d_25">
      <path d="M 64.24625 42.979562 
L 1180.24625 42.979562 
" clip-path="url(#p2f592a3703)" style="fill: none; stroke: #b0b0b0; stroke-width: 0.8; stroke-linecap: square"/>
     </g>
     <g id="line2d_26">
      <g>
       <use xlink:href="#mbf0e296640" x="64.24625" y="42.979562" style="stroke: #000000; stroke-width: 0.8"/>
      </g>
     </g>
     <g id="text_14">
      <!-- 3.5 -->
      <g transform="translate(28.620625 49.818155) scale(0.18 -0.18)">
       <use xlink:href="#DejaVuSans-33"/>
       <use xlink:href="#DejaVuSans-2e" x="63.623047"/>
       <use xlink:href="#DejaVuSans-35" x="95.410156"/>
      </g>
     </g>
    </g>
    <g id="text_15">
     <!-- $R/R_E$ [-] -->
     <g style="fill: #0000ff" transform="translate(20.877188 206.46) rotate(-90) scale(0.18 -0.18)">
      <defs>
       <path id="DejaVuSans-Oblique-52" d="M 1613 4147 
L 1294 2491 
L 2106 2491 
Q 2584 2491 2879 2755 
Q 3175 3019 3175 3444 
Q 3175 3784 2976 3965 
Q 2778 4147 2406 4147 
L 1613 4147 
z
M 2772 2241 
Q 2972 2194 3105 2009 
Q 3238 1825 3413 1275 
L 3809 0 
L 3144 0 
L 2778 1197 
Q 2638 1659 2453 1815 
Q 2269 1972 1888 1972 
L 1191 1972 
L 806 0 
L 172 0 
L 1081 4666 
L 2503 4666 
Q 3150 4666 3495 4373 
Q 3841 4081 3841 3531 
Q 3841 3044 3547 2687 
Q 3253 2331 2772 2241 
z
" transform="scale(0.015625)"/>
       <path id="DejaVuSans-2f" d="M 1625 4666 
L 2156 4666 
L 531 -594 
L 0 -594 
L 1625 4666 
z
" transform="scale(0.015625)"/>
       <path id="DejaVuSans-Oblique-45" d="M 1081 4666 
L 4031 4666 
L 3928 4134 
L 1606 4134 
L 1338 2753 
L 3566 2753 
L 3463 2222 
L 1234 2222 
L 909 531 
L 3284 531 
L 3181 0 
L 172 0 
L 1081 4666 
z
" transform="scale(0.015625)"/>
       <path id="DejaVuSans-2d" d="M 313 2009 
L 1997 2009 
L 1997 1497 
L 313 1497 
L 313 2009 
z
" transform="scale(0.015625)"/>
      </defs>
      <use xlink:href="#DejaVuSans-Oblique-52" transform="translate(0 0.015625)"/>
      <use xlink:href="#DejaVuSans-2f" transform="translate(69.482422 0.015625)"/>
      <use xlink:href="#DejaVuSans-Oblique-52" transform="translate(103.173828 0.015625)"/>
      <use xlink:href="#DejaVuSans-Oblique-45" transform="translate(172.65625 -16.390625) scale(0.7)"/>
      <use xlink:href="#DejaVuSans-20" transform="translate(219.619141 0.015625)"/>
      <use xlink:href="#DejaVuSans-5b" transform="translate(251.40625 0.015625)"/>
      <use xlink:href="#DejaVuSans-2d" transform="translate(290.419922 0.015625)"/>
      <use xlink:href="#DejaVuSans-5d" transform="translate(326.503906 0.015625)"/>
     </g>
    </g>
   </g>
   <g id="line2d_27">
    <path d="M 114.973523 250.453423 
L 116.815811 250.347891 
L 117.898023 250.052848 
L 118.7947 249.589024 
L 119.738519 248.833589 
L 120.672005 247.780583 
L 121.62078 246.37589 
L 122.715241 244.32594 
L 123.889286 241.622714 
L 125.193721 238.03834 
L 126.666999 233.315134 
L 128.326064 227.231636 
L 130.26164 219.241997 
L 132.407441 209.424299 
L 135.002674 196.430154 
L 138.028072 180.065599 
L 142.005869 157.19749 
L 153.280897 91.467992 
L 156.271304 75.625028 
L 158.779813 63.378431 
L 160.929964 53.811835 
L 163.080114 45.246529 
L 164.871907 38.972004 
L 166.645828 33.617377 
L 168.124096 29.864928 
L 169.442786 27.103908 
L 170.65509 25.085272 
L 171.624933 23.848836 
L 172.624561 22.944307 
L 173.424264 22.502929 
L 174.123843 22.330773 
L 174.790048 22.358942 
L 175.456253 22.580782 
L 176.122458 23.002762 
L 176.955214 23.822136 
L 177.78797 24.979211 
L 178.620726 26.489456 
L 179.620033 28.79183 
L 180.61934 31.659654 
L 181.728661 35.550396 
L 182.837982 40.24207 
L 184.085968 46.564799 
L 185.349271 54.212541 
L 186.593093 63.125166 
L 187.83282 73.577622 
L 189.114074 86.322531 
L 190.358205 101.00493 
L 191.56321 117.991964 
L 192.680294 137.010465 
L 193.681723 157.898027 
L 194.567965 181.095909 
L 195.314123 206.596471 
L 195.896215 234.208545 
L 196.309879 264.534378 
L 196.550077 298.896189 
L 196.619517 324.72 
L 196.697565 307.959119 
L 196.974507 282.973367 
L 197.426453 261.764799 
L 198.044291 242.99799 
L 198.802942 226.533033 
L 199.685577 212.103657 
L 200.659025 199.758216 
L 201.669268 189.625139 
L 202.705269 181.318342 
L 203.781662 174.43523 
L 204.832806 169.119959 
L 205.838448 165.138582 
L 206.777801 162.273318 
L 207.68319 160.211153 
L 208.463667 158.937551 
L 209.199 158.134151 
L 209.813514 157.740793 
L 210.428029 157.588037 
L 211.042543 157.665403 
L 211.657057 157.963463 
L 212.393623 158.59961 
L 213.181884 159.6032 
L 214.114881 161.203158 
L 215.139848 163.452207 
L 216.206664 166.31427 
L 217.426403 170.217497 
L 218.703058 175.067237 
L 220.065577 181.20442 
L 221.368995 188.138639 
L 222.705584 196.526781 
L 223.979108 205.993754 
L 225.197492 216.776358 
L 226.30731 228.569487 
L 227.342423 241.979731 
L 228.254964 256.731537 
L 229.068279 273.628687 
L 230.213589 299.721756 
L 230.26974 299.562118 
L 230.387873 298.281361 
L 230.675231 292.053244 
L 231.755045 267.830301 
L 232.636308 253.542359 
L 233.626862 241.023884 
L 234.736122 229.811459 
L 235.929105 220.001906 
L 237.190147 211.472583 
L 238.422204 204.549536 
L 239.692736 198.595296 
L 240.920897 193.809209 
L 242.137929 189.890148 
L 243.324288 186.781133 
L 244.494307 184.348785 
L 245.54564 182.66813 
L 246.460932 181.57748 
L 247.357428 180.835451 
L 248.104509 180.458988 
L 248.851589 180.299826 
L 249.59867 180.356693 
L 250.297994 180.605492 
L 251.136515 181.154151 
L 252.018768 182.029102 
L 252.911449 183.230467 
L 253.870886 184.885297 
L 254.979067 187.283041 
L 256.100024 190.266242 
L 257.217588 193.836941 
L 258.502576 198.744719 
L 259.787564 204.610422 
L 261.071602 211.572936 
L 262.323763 219.619412 
L 263.56629 229.11051 
L 264.743738 239.868371 
L 265.860787 252.159574 
L 266.944454 266.595523 
L 268.607704 289.286725 
L 268.840418 290.015841 
L 268.936157 289.919916 
L 269.087425 289.312633 
L 269.352575 287.123601 
L 269.882059 280.419124 
L 271.527101 259.04556 
L 272.649666 247.628706 
L 273.828192 237.876815 
L 275.053555 229.565276 
L 276.321367 222.490997 
L 277.610294 216.585415 
L 278.832168 211.996059 
L 280.071926 208.214975 
L 281.20752 205.448236 
L 282.314529 203.342563 
L 283.321889 201.904793 
L 284.137705 201.061003 
L 284.925771 200.510966 
L 285.771193 200.205227 
L 286.529297 200.178509 
L 287.318403 200.39792 
L 288.133089 200.88925 
L 289.022408 201.734982 
L 289.900392 202.891335 
L 290.863655 204.535902 
L 291.913189 206.790548 
L 293.032866 209.753171 
L 294.254392 213.684034 
L 295.438573 218.248588 
L 296.654109 223.785201 
L 297.969432 230.868088 
L 299.27261 239.1639 
L 300.579886 248.939589 
L 302.04717 261.676238 
L 303.825252 276.98531 
L 304.328281 279.550525 
L 304.646694 280.27706 
L 304.846189 280.328512 
L 305.032706 280.094749 
L 305.299159 279.318637 
L 305.695156 277.358356 
L 306.334919 272.869724 
L 309.766364 246.987918 
L 311.070007 239.538448 
L 312.349474 233.475992 
L 313.60908 228.559998 
L 314.817719 224.710207 
L 316.015712 221.649934 
L 317.056072 219.555101 
L 318.061562 217.997674 
L 319.044233 216.899321 
L 319.886523 216.280261 
L 320.728813 215.951861 
L 321.430721 215.896967 
L 322.251631 216.082828 
L 323.000617 216.48677 
L 323.732744 217.097995 
L 324.630703 218.141552 
L 325.585361 219.61042 
L 326.581567 221.545855 
L 327.720281 224.275775 
L 328.953083 227.876429 
L 330.260778 232.460716 
L 331.601482 238.01102 
L 333.075872 245.117737 
L 334.85135 254.881149 
L 337.105518 267.211994 
L 337.861822 270.159869 
L 338.387901 271.442521 
L 338.778693 271.898966 
L 339.075985 271.946048 
L 339.3586 271.752521 
L 339.716751 271.191923 
L 340.175416 270.018546 
L 340.820918 267.692617 
L 341.861359 262.974709 
L 345.039882 248.134655 
L 346.429557 242.844717 
L 347.72046 238.737952 
L 348.926187 235.584556 
L 350.119825 233.082451 
L 351.191097 231.338214 
L 352.218538 230.09329 
L 353.147233 229.317075 
L 354.008178 228.886097 
L 354.78344 228.731092 
L 355.591298 228.801085 
L 356.426985 229.119184 
L 357.284442 229.70276 
L 358.186307 230.595383 
L 359.112871 231.807994 
L 360.245624 233.693788 
L 361.401919 236.069851 
L 362.702133 239.269493 
L 364.21304 243.638971 
L 366.012219 249.572795 
L 369.220585 260.252639 
L 370.19345 262.652271 
L 370.901993 263.869203 
L 371.478945 264.460097 
L 371.922754 264.651726 
L 372.375799 264.609043 
L 372.827865 264.334192 
L 373.381423 263.705989 
L 374.050374 262.577541 
L 374.956733 260.559353 
L 376.359332 256.808886 
L 379.4957 248.331931 
L 381.004642 244.955287 
L 382.292042 242.581897 
L 383.480411 240.829056 
L 384.564736 239.60098 
L 385.526298 238.807124 
L 386.494016 238.285178 
L 387.431991 238.040482 
L 388.30518 238.039682 
L 389.199141 238.260963 
L 390.053526 238.677514 
L 391.108269 239.459677 
L 392.203949 240.572438 
L 393.466196 242.208658 
L 394.836258 244.367908 
L 396.626958 247.663493 
L 401.139582 256.250633 
L 402.200092 257.687905 
L 403.05891 258.512314 
L 403.823211 258.950766 
L 404.479419 259.092629 
L 405.181555 259.005001 
L 405.880734 258.684321 
L 406.6748 258.067085 
L 407.659323 256.994312 
L 408.937455 255.246377 
L 414.487926 247.221182 
L 415.898327 245.774087 
L 417.15788 244.797364 
L 418.277482 244.191913 
L 419.397085 243.837481 
L 420.520373 243.732459 
L 421.541762 243.849734 
L 422.732266 244.23152 
L 423.989188 244.902137 
L 425.296025 245.860567 
L 426.882872 247.320475 
L 429.060171 249.667426 
L 432.219608 253.063861 
L 433.636483 254.260642 
L 434.841205 254.989231 
L 435.902846 255.366883 
L 436.877524 255.480166 
L 437.885165 255.364723 
L 438.898996 255.028067 
L 440.055089 254.414698 
L 441.556348 253.34941 
L 444.30415 251.054936 
L 446.729997 249.162195 
L 448.354499 248.155043 
L 449.893712 247.461996 
L 451.162095 247.102775 
L 452.573472 246.935736 
L 454.014058 247.014121 
L 455.374165 247.305157 
L 456.901836 247.855059 
L 458.80822 248.8046 
L 461.713064 250.553211 
L 464.448147 252.110733 
L 466.123812 252.820277 
L 467.571752 253.205045 
L 468.906609 253.345969 
L 470.369527 253.262858 
L 471.873089 252.943326 
L 473.684481 252.313902 
L 476.554413 251.035872 
L 479.738261 249.689395 
L 481.765735 249.074629 
L 483.592867 248.751135 
L 485.316459 248.663731 
L 487.091951 248.789496 
L 489.028851 249.14697 
L 491.449976 249.831846 
L 497.761773 251.754415 
L 499.753868 252.06742 
L 501.61018 252.147255 
L 503.61372 252.007286 
L 505.92324 251.610365 
L 510.083251 250.606566 
L 513.229296 249.9517 
L 515.78491 249.651505 
L 518.148351 249.603855 
L 520.733 249.792702 
L 523.888993 250.270414 
L 530.363405 251.314085 
L 532.970453 251.478595 
L 535.7087 251.421448 
L 538.912449 251.11296 
L 547.494082 250.153942 
L 550.713245 250.107157 
L 554.108196 250.284576 
L 565.868684 251.123243 
L 569.633839 251.016424 
L 583.226695 250.37726 
L 588.187274 250.558071 
L 597.095903 250.920215 
L 602.274914 250.856881 
L 616.191058 250.527292 
L 625.061653 250.748506 
L 632.109685 250.81162 
L 656.662403 250.712948 
L 666.385125 250.743504 
L 686.313163 250.680875 
L 701.44691 250.703937 
L 720.52058 250.694396 
L 741.483735 250.676712 
L 840.897024 250.688704 
L 1129.518977 250.691702 
L 1129.518977 250.691702 
" clip-path="url(#p2f592a3703)" style="fill: none; stroke: #0000ff; stroke-linecap: square"/>
   </g>
   <g id="patch_3">
    <path d="M 64.24625 339.84 
L 64.24625 7.2 
" style="fill: none; stroke: #000000; stroke-width: 0.8; stroke-linejoin: miter; stroke-linecap: square"/>
   </g>
   <g id="patch_4">
    <path d="M 1180.24625 339.84 
L 1180.24625 7.2 
" style="fill: none; stroke: #000000; stroke-width: 0.8; stroke-linejoin: miter; stroke-linecap: square"/>
   </g>
   <g id="patch_5">
    <path d="M 64.24625 339.84 
L 1180.24625 339.84 
" style="fill: none; stroke: #000000; stroke-width: 0.8; stroke-linejoin: miter; stroke-linecap: square"/>
   </g>
   <g id="patch_6">
    <path d="M 64.24625 7.2 
L 1180.24625 7.2 
" style="fill: none; stroke: #000000; stroke-width: 0.8; stroke-linejoin: miter; stroke-linecap: square"/>
   </g>
   <g id="text_16">
    <g id="patch_7">
     <path d="M 937.625312 206.331625 
L 1167.86625 206.331625 
L 1167.86625 13.892 
L 937.625312 13.892 
z
" style="fill: #ffffff; stroke: #000000; stroke-linejoin: miter"/>
    </g>
    <!-- Initial conditions: -->
    <g transform="translate(947.565312 34.469813) scale(0.14 -0.14)">
     <defs>
      <path id="DejaVuSans-Oblique-49" d="M 1081 4666 
L 1716 4666 
L 806 0 
L 172 0 
L 1081 4666 
z
" transform="scale(0.015625)"/>
      <path id="DejaVuSans-Oblique-6e" d="M 3566 2113 
L 3156 0 
L 2578 0 
L 2988 2091 
Q 3016 2238 3031 2350 
Q 3047 2463 3047 2528 
Q 3047 2791 2881 2937 
Q 2716 3084 2419 3084 
Q 1956 3084 1622 2776 
Q 1288 2469 1184 1941 
L 800 0 
L 225 0 
L 903 3500 
L 1478 3500 
L 1363 2950 
Q 1603 3253 1940 3418 
Q 2278 3584 2650 3584 
Q 3113 3584 3367 3334 
Q 3622 3084 3622 2631 
Q 3622 2519 3608 2391 
Q 3594 2263 3566 2113 
z
" transform="scale(0.015625)"/>
      <path id="DejaVuSans-Oblique-69" d="M 1172 4863 
L 1747 4863 
L 1606 4134 
L 1031 4134 
L 1172 4863 
z
M 909 3500 
L 1484 3500 
L 800 0 
L 225 0 
L 909 3500 
z
" transform="scale(0.015625)"/>
      <path id="DejaVuSans-Oblique-61" d="M 3438 1997 
L 3047 0 
L 2472 0 
L 2578 531 
Q 2325 219 2001 64 
Q 1678 -91 1281 -91 
Q 834 -91 548 182 
Q 263 456 263 884 
Q 263 1497 752 1853 
Q 1241 2209 2100 2209 
L 2900 2209 
L 2931 2363 
Q 2938 2388 2941 2417 
Q 2944 2447 2944 2509 
Q 2944 2788 2717 2942 
Q 2491 3097 2081 3097 
Q 1800 3097 1504 3025 
Q 1209 2953 897 2809 
L 997 3341 
Q 1322 3463 1633 3523 
Q 1944 3584 2234 3584 
Q 2853 3584 3176 3315 
Q 3500 3047 3500 2534 
Q 3500 2431 3484 2292 
Q 3469 2153 3438 1997 
z
M 2816 1759 
L 2241 1759 
Q 1534 1759 1195 1570 
Q 856 1381 856 984 
Q 856 709 1029 553 
Q 1203 397 1509 397 
Q 1978 397 2328 733 
Q 2678 1069 2791 1631 
L 2816 1759 
z
" transform="scale(0.015625)"/>
      <path id="DejaVuSans-Oblique-6c" d="M 1172 4863 
L 1747 4863 
L 800 0 
L 225 0 
L 1172 4863 
z
" transform="scale(0.015625)"/>
      <path id="DejaVuSans-Oblique-20" transform="scale(0.015625)"/>
      <path id="DejaVuSans-Oblique-63" d="M 3431 3366 
L 3316 2797 
Q 3109 2947 2876 3022 
Q 2644 3097 2394 3097 
Q 2119 3097 1870 3000 
Q 1622 2903 1453 2725 
Q 1184 2453 1037 2087 
Q 891 1722 891 1331 
Q 891 859 1127 628 
Q 1363 397 1844 397 
Q 2081 397 2348 469 
Q 2616 541 2906 684 
L 2797 116 
Q 2547 13 2283 -39 
Q 2019 -91 1741 -91 
Q 1044 -91 669 257 
Q 294 606 294 1253 
Q 294 1797 489 2255 
Q 684 2713 1069 3078 
Q 1331 3328 1684 3456 
Q 2038 3584 2456 3584 
Q 2700 3584 2940 3529 
Q 3181 3475 3431 3366 
z
" transform="scale(0.015625)"/>
      <path id="DejaVuSans-Oblique-6f" d="M 1625 -91 
Q 1009 -91 651 289 
Q 294 669 294 1325 
Q 294 1706 417 2101 
Q 541 2497 738 2766 
Q 1047 3184 1428 3384 
Q 1809 3584 2291 3584 
Q 2888 3584 3255 3212 
Q 3622 2841 3622 2241 
Q 3622 1825 3500 1412 
Q 3378 1000 3181 728 
Q 2875 309 2494 109 
Q 2113 -91 1625 -91 
z
M 891 1344 
Q 891 869 1089 633 
Q 1288 397 1691 397 
Q 2269 397 2648 901 
Q 3028 1406 3028 2181 
Q 3028 2634 2825 2865 
Q 2622 3097 2228 3097 
Q 1903 3097 1650 2945 
Q 1397 2794 1197 2484 
Q 1050 2253 970 1956 
Q 891 1659 891 1344 
z
" transform="scale(0.015625)"/>
      <path id="DejaVuSans-Oblique-64" d="M 2675 525 
Q 2444 222 2128 65 
Q 1813 -91 1428 -91 
Q 903 -91 598 267 
Q 294 625 294 1247 
Q 294 1766 478 2236 
Q 663 2706 1013 3078 
Q 1244 3325 1534 3454 
Q 1825 3584 2144 3584 
Q 2481 3584 2739 3421 
Q 2997 3259 3138 2956 
L 3513 4863 
L 4091 4863 
L 3144 0 
L 2566 0 
L 2675 525 
z
M 891 1350 
Q 891 897 1095 644 
Q 1300 391 1663 391 
Q 1931 391 2161 520 
Q 2391 650 2566 903 
Q 2750 1166 2856 1509 
Q 2963 1853 2963 2188 
Q 2963 2622 2758 2865 
Q 2553 3109 2194 3109 
Q 1922 3109 1687 2981 
Q 1453 2853 1288 2613 
Q 1106 2353 998 2009 
Q 891 1666 891 1350 
z
" transform="scale(0.015625)"/>
      <path id="DejaVuSans-Oblique-73" d="M 3200 3397 
L 3091 2853 
Q 2863 2978 2609 3040 
Q 2356 3103 2088 3103 
Q 1634 3103 1373 2948 
Q 1113 2794 1113 2528 
Q 1113 2219 1719 2053 
Q 1766 2041 1788 2034 
L 1972 1978 
Q 2547 1819 2739 1644 
Q 2931 1469 2931 1166 
Q 2931 609 2489 259 
Q 2047 -91 1331 -91 
Q 1053 -91 747 -37 
Q 441 16 72 128 
L 184 722 
Q 500 559 806 475 
Q 1113 391 1394 391 
Q 1816 391 2080 572 
Q 2344 753 2344 1031 
Q 2344 1331 1650 1516 
L 1591 1531 
L 1394 1581 
Q 956 1697 753 1886 
Q 550 2075 550 2369 
Q 550 2928 970 3256 
Q 1391 3584 2113 3584 
Q 2397 3584 2667 3537 
Q 2938 3491 3200 3397 
z
" transform="scale(0.015625)"/>
      <path id="DejaVuSans-Oblique-3a" d="M 978 3309 
L 1638 3309 
L 1484 2516 
L 825 2516 
L 978 3309 
z
M 488 794 
L 1147 794 
L 991 0 
L 331 0 
L 488 794 
z
" transform="scale(0.015625)"/>
     </defs>
     <use xlink:href="#DejaVuSans-Oblique-49"/>
     <use xlink:href="#DejaVuSans-Oblique-6e" x="29.492188"/>
     <use xlink:href="#DejaVuSans-Oblique-69" x="92.871094"/>
     <use xlink:href="#DejaVuSans-Oblique-74" x="120.654297"/>
     <use xlink:href="#DejaVuSans-Oblique-69" x="159.863281"/>
     <use xlink:href="#DejaVuSans-Oblique-61" x="187.646484"/>
     <use xlink:href="#DejaVuSans-Oblique-6c" x="248.925781"/>
     <use xlink:href="#DejaVuSans-Oblique-20" x="276.708984"/>
     <use xlink:href="#DejaVuSans-Oblique-63" x="308.496094"/>
     <use xlink:href="#DejaVuSans-Oblique-6f" x="363.476562"/>
     <use xlink:href="#DejaVuSans-Oblique-6e" x="424.658203"/>
     <use xlink:href="#DejaVuSans-Oblique-64" x="488.037109"/>
     <use xlink:href="#DejaVuSans-Oblique-69" x="551.513672"/>
     <use xlink:href="#DejaVuSans-Oblique-74" x="579.296875"/>
     <use xlink:href="#DejaVuSans-Oblique-69" x="618.505859"/>
     <use xlink:href="#DejaVuSans-Oblique-6f" x="646.289062"/>
     <use xlink:href="#DejaVuSans-Oblique-6e" x="707.470703"/>
     <use xlink:href="#DejaVuSans-Oblique-73" x="770.849609"/>
     <use xlink:href="#DejaVuSans-Oblique-3a" x="822.949219"/>
    </g>
    <!--     $R_E$ =  89.93 $[\mu m]$ -->
    <g transform="translate(947.565312 50.149375) scale(0.14 -0.14)">
     <defs>
      <path id="DejaVuSans-Oblique-3d" d="M 678 2906 
L 4684 2906 
L 4684 2381 
L 678 2381 
L 678 2906 
z
M 678 1631 
L 4684 1631 
L 4684 1100 
L 678 1100 
L 678 1631 
z
" transform="scale(0.015625)"/>
      <path id="DejaVuSans-Oblique-38" d="M 2847 1416 
Q 2847 1769 2600 1992 
Q 2353 2216 1953 2216 
Q 1466 2216 1148 1923 
Q 831 1631 831 1184 
Q 831 828 1073 618 
Q 1316 409 1728 409 
Q 2219 409 2533 693 
Q 2847 978 2847 1416 
z
M 3169 3591 
Q 3169 3888 2950 4069 
Q 2731 4250 2369 4250 
Q 1941 4250 1664 4009 
Q 1388 3769 1388 3406 
Q 1388 3094 1605 2903 
Q 1822 2713 2181 2713 
Q 2613 2713 2891 2961 
Q 3169 3209 3169 3591 
z
M 2741 2456 
Q 3094 2322 3281 2050 
Q 3469 1778 3469 1394 
Q 3469 747 2969 328 
Q 2469 -91 1678 -91 
Q 1006 -91 609 239 
Q 213 569 213 1119 
Q 213 1619 553 2008 
Q 894 2397 1441 2503 
Q 1113 2616 941 2852 
Q 769 3088 769 3425 
Q 769 3991 1239 4370 
Q 1709 4750 2431 4750 
Q 3034 4750 3414 4442 
Q 3794 4134 3794 3659 
Q 3794 3247 3511 2923 
Q 3228 2600 2741 2456 
z
" transform="scale(0.015625)"/>
      <path id="DejaVuSans-Oblique-39" d="M 281 103 
L 397 678 
Q 578 559 809 496 
Q 1041 434 1306 434 
Q 1953 434 2348 843 
Q 2744 1253 2938 2119 
Q 2706 1853 2401 1714 
Q 2097 1575 1747 1575 
Q 1178 1575 842 1904 
Q 506 2234 506 2791 
Q 506 3247 672 3639 
Q 838 4031 1159 4325 
Q 1378 4531 1665 4640 
Q 1953 4750 2278 4750 
Q 2925 4750 3300 4339 
Q 3675 3928 3675 3219 
Q 3675 2559 3501 1943 
Q 3328 1328 3022 878 
Q 2697 403 2240 156 
Q 1784 -91 1228 -91 
Q 988 -91 748 -42 
Q 509 6 281 103 
z
M 1131 2938 
Q 1131 2541 1337 2308 
Q 1544 2075 1894 2075 
Q 2378 2075 2706 2447 
Q 3034 2819 3034 3372 
Q 3034 3784 2831 4017 
Q 2628 4250 2272 4250 
Q 1788 4250 1459 3870 
Q 1131 3491 1131 2938 
z
" transform="scale(0.015625)"/>
      <path id="DejaVuSans-Oblique-2e" d="M 525 794 
L 1184 794 
L 1031 0 
L 372 0 
L 525 794 
z
" transform="scale(0.015625)"/>
      <path id="DejaVuSans-Oblique-33" d="M 1013 4550 
Q 1356 4650 1679 4700 
Q 2003 4750 2316 4750 
Q 2934 4750 3296 4475 
Q 3659 4200 3659 3738 
Q 3659 3284 3373 2959 
Q 3088 2634 2584 2516 
Q 2978 2403 3162 2165 
Q 3347 1928 3347 1538 
Q 3347 1163 3167 834 
Q 2988 506 2650 269 
Q 2394 88 2037 -1 
Q 1681 -91 1216 -91 
Q 922 -91 622 -33 
Q 322 25 13 141 
L 128 738 
Q 422 575 720 495 
Q 1019 416 1331 416 
Q 1947 416 2330 733 
Q 2713 1050 2713 1556 
Q 2713 1881 2469 2057 
Q 2225 2234 1772 2234 
L 1228 2234 
L 1325 2747 
L 1900 2747 
Q 2419 2747 2717 2984 
Q 3016 3222 3016 3628 
Q 3016 3922 2797 4083 
Q 2578 4244 2181 4244 
Q 1881 4244 1567 4180 
Q 1253 4116 916 3988 
L 1013 4550 
z
" transform="scale(0.015625)"/>
      <path id="DejaVuSans-Oblique-3bc" d="M -84 -1331 
L 856 3500 
L 1434 3500 
L 1009 1322 
Q 997 1256 987 1175 
Q 978 1094 978 1013 
Q 978 722 1161 565 
Q 1344 409 1684 409 
Q 2147 409 2431 671 
Q 2716 934 2816 1459 
L 3213 3500 
L 3788 3500 
L 3266 809 
Q 3253 750 3248 706 
Q 3244 663 3244 628 
Q 3244 531 3283 486 
Q 3322 441 3406 441 
Q 3438 441 3492 456 
Q 3547 472 3647 513 
L 3559 50 
Q 3422 -19 3297 -55 
Q 3172 -91 3053 -91 
Q 2847 -91 2730 40 
Q 2613 172 2613 403 
Q 2438 153 2195 31 
Q 1953 -91 1625 -91 
Q 1334 -91 1117 43 
Q 900 178 831 397 
L 494 -1331 
L -84 -1331 
z
" transform="scale(0.015625)"/>
      <path id="DejaVuSans-Oblique-6d" d="M 5747 2113 
L 5338 0 
L 4763 0 
L 5166 2094 
Q 5191 2228 5203 2325 
Q 5216 2422 5216 2491 
Q 5216 2772 5059 2928 
Q 4903 3084 4622 3084 
Q 4203 3084 3875 2770 
Q 3547 2456 3450 1953 
L 3066 0 
L 2491 0 
L 2900 2094 
Q 2925 2209 2937 2307 
Q 2950 2406 2950 2484 
Q 2950 2769 2794 2926 
Q 2638 3084 2363 3084 
Q 1938 3084 1609 2770 
Q 1281 2456 1184 1953 
L 800 0 
L 225 0 
L 909 3500 
L 1484 3500 
L 1375 2956 
Q 1609 3263 1923 3423 
Q 2238 3584 2597 3584 
Q 2978 3584 3223 3384 
Q 3469 3184 3519 2828 
Q 3781 3197 4126 3390 
Q 4472 3584 4856 3584 
Q 5306 3584 5551 3325 
Q 5797 3066 5797 2591 
Q 5797 2488 5784 2364 
Q 5772 2241 5747 2113 
z
" transform="scale(0.015625)"/>
     </defs>
     <use xlink:href="#DejaVuSans-Oblique-20" transform="translate(0 0.015625)"/>
     <use xlink:href="#DejaVuSans-Oblique-20" transform="translate(31.787109 0.015625)"/>
     <use xlink:href="#DejaVuSans-Oblique-20" transform="translate(63.574219 0.015625)"/>
     <use xlink:href="#DejaVuSans-Oblique-20" transform="translate(95.361328 0.015625)"/>
     <use xlink:href="#DejaVuSans-Oblique-52" transform="translate(127.148438 0.015625)"/>
     <use xlink:href="#DejaVuSans-Oblique-45" transform="translate(196.630859 -16.390625) scale(0.7)"/>
     <use xlink:href="#DejaVuSans-Oblique-20" transform="translate(243.59375 0.015625)"/>
     <use xlink:href="#DejaVuSans-Oblique-3d" transform="translate(275.380859 0.015625)"/>
     <use xlink:href="#DejaVuSans-Oblique-20" transform="translate(359.169922 0.015625)"/>
     <use xlink:href="#DejaVuSans-Oblique-20" transform="translate(390.957031 0.015625)"/>
     <use xlink:href="#DejaVuSans-Oblique-38" transform="translate(422.744141 0.015625)"/>
     <use xlink:href="#DejaVuSans-Oblique-39" transform="translate(486.367188 0.015625)"/>
     <use xlink:href="#DejaVuSans-Oblique-2e" transform="translate(549.990234 0.015625)"/>
     <use xlink:href="#DejaVuSans-Oblique-39" transform="translate(581.777344 0.015625)"/>
     <use xlink:href="#DejaVuSans-Oblique-33" transform="translate(645.400391 0.015625)"/>
     <use xlink:href="#DejaVuSans-Oblique-20" transform="translate(709.023438 0.015625)"/>
     <use xlink:href="#DejaVuSans-5b" transform="translate(740.810547 0.015625)"/>
     <use xlink:href="#DejaVuSans-Oblique-3bc" transform="translate(779.824219 0.015625)"/>
     <use xlink:href="#DejaVuSans-Oblique-6d" transform="translate(843.447266 0.015625)"/>
     <use xlink:href="#DejaVuSans-5d" transform="translate(940.859375 0.015625)"/>
    </g>
    <!--     $P_{amb}$ =  1.01 $[bar]$ -->
    <g transform="translate(947.565312 65.85475) scale(0.14 -0.14)">
     <defs>
      <path id="DejaVuSans-Oblique-50" d="M 1081 4666 
L 2541 4666 
Q 3178 4666 3512 4369 
Q 3847 4072 3847 3500 
Q 3847 2731 3353 2303 
Q 2859 1875 1966 1875 
L 1172 1875 
L 806 0 
L 172 0 
L 1081 4666 
z
M 1613 4147 
L 1275 2394 
L 2069 2394 
Q 2606 2394 2893 2669 
Q 3181 2944 3181 3456 
Q 3181 3784 2986 3965 
Q 2791 4147 2438 4147 
L 1613 4147 
z
" transform="scale(0.015625)"/>
      <path id="DejaVuSans-Oblique-62" d="M 3169 2138 
Q 3169 2591 2961 2847 
Q 2753 3103 2388 3103 
Q 2122 3103 1889 2973 
Q 1656 2844 1484 2597 
Q 1303 2338 1198 1995 
Q 1094 1653 1094 1313 
Q 1094 881 1298 636 
Q 1503 391 1863 391 
Q 2134 391 2365 517 
Q 2597 644 2772 891 
Q 2950 1147 3059 1487 
Q 3169 1828 3169 2138 
z
M 1381 2969 
Q 1594 3256 1914 3420 
Q 2234 3584 2584 3584 
Q 3122 3584 3439 3221 
Q 3756 2859 3756 2241 
Q 3756 1734 3570 1259 
Q 3384 784 3041 416 
Q 2816 172 2522 40 
Q 2228 -91 1906 -91 
Q 1566 -91 1316 65 
Q 1066 222 909 531 
L 806 0 
L 231 0 
L 1178 4863 
L 1753 4863 
L 1381 2969 
z
" transform="scale(0.015625)"/>
      <path id="DejaVuSans-Oblique-31" d="M 416 531 
L 1447 531 
L 2144 4122 
L 978 3897 
L 1088 4441 
L 2247 4666 
L 2881 4666 
L 2075 531 
L 3103 531 
L 3003 0 
L 313 0 
L 416 531 
z
" transform="scale(0.015625)"/>
      <path id="DejaVuSans-Oblique-30" d="M 2444 4750 
Q 3078 4750 3414 4328 
Q 3750 3906 3750 3116 
Q 3750 2516 3592 1923 
Q 3434 1331 3150 863 
Q 2859 394 2467 151 
Q 2075 -91 1600 -91 
Q 988 -91 653 334 
Q 319 759 319 1544 
Q 319 2138 480 2733 
Q 641 3328 928 3794 
Q 1216 4263 1602 4506 
Q 1988 4750 2444 4750 
z
M 2406 4250 
Q 2169 4250 1955 4123 
Q 1741 3997 1569 3750 
Q 1281 3338 1111 2720 
Q 941 2103 941 1453 
Q 941 938 1123 673 
Q 1306 409 1663 409 
Q 1913 409 2125 536 
Q 2338 663 2509 909 
Q 2794 1319 2961 1936 
Q 3128 2553 3128 3206 
Q 3128 3722 2945 3986 
Q 2763 4250 2406 4250 
z
" transform="scale(0.015625)"/>
      <path id="DejaVuSans-Oblique-72" d="M 2853 2969 
Q 2766 3016 2653 3041 
Q 2541 3066 2413 3066 
Q 1953 3066 1609 2717 
Q 1266 2369 1153 1784 
L 800 0 
L 225 0 
L 909 3500 
L 1484 3500 
L 1375 2956 
Q 1603 3259 1920 3421 
Q 2238 3584 2597 3584 
Q 2691 3584 2781 3573 
Q 2872 3563 2963 3538 
L 2853 2969 
z
" transform="scale(0.015625)"/>
     </defs>
     <use xlink:href="#DejaVuSans-Oblique-20" transform="translate(0 0.015625)"/>
     <use xlink:href="#DejaVuSans-Oblique-20" transform="translate(31.787109 0.015625)"/>
     <use xlink:href="#DejaVuSans-Oblique-20" transform="translate(63.574219 0.015625)"/>
     <use xlink:href="#DejaVuSans-Oblique-20" transform="translate(95.361328 0.015625)"/>
     <use xlink:href="#DejaVuSans-Oblique-50" transform="translate(127.148438 0.015625)"/>
     <use xlink:href="#DejaVuSans-Oblique-61" transform="translate(187.451172 -16.390625) scale(0.7)"/>
     <use xlink:href="#DejaVuSans-Oblique-6d" transform="translate(230.34668 -16.390625) scale(0.7)"/>
     <use xlink:href="#DejaVuSans-Oblique-62" transform="translate(298.535156 -16.390625) scale(0.7)"/>
     <use xlink:href="#DejaVuSans-Oblique-20" transform="translate(345.703125 0.015625)"/>
     <use xlink:href="#DejaVuSans-Oblique-3d" transform="translate(377.490234 0.015625)"/>
     <use xlink:href="#DejaVuSans-Oblique-20" transform="translate(461.279297 0.015625)"/>
     <use xlink:href="#DejaVuSans-Oblique-20" transform="translate(493.066406 0.015625)"/>
     <use xlink:href="#DejaVuSans-Oblique-31" transform="translate(524.853516 0.015625)"/>
     <use xlink:href="#DejaVuSans-Oblique-2e" transform="translate(588.476562 0.015625)"/>
     <use xlink:href="#DejaVuSans-Oblique-30" transform="translate(620.263672 0.015625)"/>
     <use xlink:href="#DejaVuSans-Oblique-31" transform="translate(683.886719 0.015625)"/>
     <use xlink:href="#DejaVuSans-Oblique-20" transform="translate(747.509766 0.015625)"/>
     <use xlink:href="#DejaVuSans-5b" transform="translate(779.296875 0.015625)"/>
     <use xlink:href="#DejaVuSans-Oblique-62" transform="translate(818.310547 0.015625)"/>
     <use xlink:href="#DejaVuSans-Oblique-61" transform="translate(881.787109 0.015625)"/>
     <use xlink:href="#DejaVuSans-Oblique-72" transform="translate(943.066406 0.015625)"/>
     <use xlink:href="#DejaVuSans-5d" transform="translate(984.179688 0.015625)"/>
    </g>
    <!--     $T_{inf}$ =  30.00 $[°C]$ -->
    <g transform="translate(947.565312 81.531688) scale(0.14 -0.14)">
     <defs>
      <path id="DejaVuSans-Oblique-54" d="M 378 4666 
L 4325 4666 
L 4225 4134 
L 2559 4134 
L 1759 0 
L 1125 0 
L 1925 4134 
L 275 4134 
L 378 4666 
z
" transform="scale(0.015625)"/>
      <path id="DejaVuSans-Oblique-66" d="M 3059 4863 
L 2969 4384 
L 2419 4384 
Q 2106 4384 1964 4261 
Q 1822 4138 1753 3809 
L 1691 3500 
L 2638 3500 
L 2553 3053 
L 1606 3053 
L 1013 0 
L 434 0 
L 1031 3053 
L 481 3053 
L 563 3500 
L 1113 3500 
L 1159 3744 
Q 1278 4363 1576 4613 
Q 1875 4863 2516 4863 
L 3059 4863 
z
" transform="scale(0.015625)"/>
      <path id="DejaVuSans-b0" d="M 1600 4347 
Q 1350 4347 1178 4173 
Q 1006 4000 1006 3750 
Q 1006 3503 1178 3333 
Q 1350 3163 1600 3163 
Q 1850 3163 2022 3333 
Q 2194 3503 2194 3750 
Q 2194 3997 2020 4172 
Q 1847 4347 1600 4347 
z
M 1600 4750 
Q 1800 4750 1984 4673 
Q 2169 4597 2303 4453 
Q 2447 4313 2519 4134 
Q 2591 3956 2591 3750 
Q 2591 3338 2302 3052 
Q 2013 2766 1594 2766 
Q 1172 2766 890 3047 
Q 609 3328 609 3750 
Q 609 4169 896 4459 
Q 1184 4750 1600 4750 
z
" transform="scale(0.015625)"/>
      <path id="DejaVuSans-Oblique-43" d="M 4447 4306 
L 4319 3641 
Q 4019 3944 3683 4091 
Q 3347 4238 2956 4238 
Q 2422 4238 2017 3981 
Q 1613 3725 1319 3200 
Q 1131 2863 1032 2486 
Q 934 2109 934 1728 
Q 934 1091 1264 756 
Q 1594 422 2222 422 
Q 2656 422 3056 561 
Q 3456 700 3834 978 
L 3688 231 
Q 3316 72 2936 -9 
Q 2556 -91 2175 -91 
Q 1278 -91 773 396 
Q 269 884 269 1753 
Q 269 2309 461 2846 
Q 653 3384 1013 3828 
Q 1394 4300 1883 4525 
Q 2372 4750 3022 4750 
Q 3422 4750 3780 4639 
Q 4138 4528 4447 4306 
z
" transform="scale(0.015625)"/>
     </defs>
     <use xlink:href="#DejaVuSans-Oblique-20" transform="translate(0 0.015625)"/>
     <use xlink:href="#DejaVuSans-Oblique-20" transform="translate(31.787109 0.015625)"/>
     <use xlink:href="#DejaVuSans-Oblique-20" transform="translate(63.574219 0.015625)"/>
     <use xlink:href="#DejaVuSans-Oblique-20" transform="translate(95.361328 0.015625)"/>
     <use xlink:href="#DejaVuSans-Oblique-54" transform="translate(127.148438 0.015625)"/>
     <use xlink:href="#DejaVuSans-Oblique-69" transform="translate(188.232422 -16.390625) scale(0.7)"/>
     <use xlink:href="#DejaVuSans-Oblique-6e" transform="translate(207.680664 -16.390625) scale(0.7)"/>
     <use xlink:href="#DejaVuSans-Oblique-66" transform="translate(252.045898 -16.390625) scale(0.7)"/>
     <use xlink:href="#DejaVuSans-Oblique-20" transform="translate(279.423828 0.015625)"/>
     <use xlink:href="#DejaVuSans-Oblique-3d" transform="translate(311.210938 0.015625)"/>
     <use xlink:href="#DejaVuSans-Oblique-20" transform="translate(395 0.015625)"/>
     <use xlink:href="#DejaVuSans-Oblique-20" transform="translate(426.787109 0.015625)"/>
     <use xlink:href="#DejaVuSans-Oblique-33" transform="translate(458.574219 0.015625)"/>
     <use xlink:href="#DejaVuSans-Oblique-30" transform="translate(522.197266 0.015625)"/>
     <use xlink:href="#DejaVuSans-Oblique-2e" transform="translate(585.820312 0.015625)"/>
     <use xlink:href="#DejaVuSans-Oblique-30" transform="translate(617.607422 0.015625)"/>
     <use xlink:href="#DejaVuSans-Oblique-30" transform="translate(681.230469 0.015625)"/>
     <use xlink:href="#DejaVuSans-Oblique-20" transform="translate(744.853516 0.015625)"/>
     <use xlink:href="#DejaVuSans-5b" transform="translate(776.640625 0.015625)"/>
     <use xlink:href="#DejaVuSans-b0" transform="translate(815.654297 0.015625)"/>
     <use xlink:href="#DejaVuSans-Oblique-43" transform="translate(865.654297 0.015625)"/>
     <use xlink:href="#DejaVuSans-5d" transform="translate(935.478516 0.015625)"/>
    </g>
    <!--     $P_{vapour}$ =  2338.1 $[Pa]$ -->
    <g transform="translate(947.565312 97.21125) scale(0.14 -0.14)">
     <defs>
      <path id="DejaVuSans-Oblique-76" d="M 459 3500 
L 1069 3500 
L 1581 525 
L 3256 3500 
L 3866 3500 
L 1875 0 
L 1100 0 
L 459 3500 
z
" transform="scale(0.015625)"/>
      <path id="DejaVuSans-Oblique-70" d="M 3175 2156 
Q 3175 2616 2975 2859 
Q 2775 3103 2400 3103 
Q 2144 3103 1911 2972 
Q 1678 2841 1497 2591 
Q 1319 2344 1212 1994 
Q 1106 1644 1106 1300 
Q 1106 863 1306 627 
Q 1506 391 1875 391 
Q 2147 391 2380 519 
Q 2613 647 2778 891 
Q 2956 1147 3065 1494 
Q 3175 1841 3175 2156 
z
M 1394 2969 
Q 1625 3272 1939 3428 
Q 2253 3584 2638 3584 
Q 3175 3584 3472 3232 
Q 3769 2881 3769 2247 
Q 3769 1728 3584 1258 
Q 3400 788 3053 416 
Q 2822 169 2531 39 
Q 2241 -91 1919 -91 
Q 1547 -91 1294 64 
Q 1041 219 916 525 
L 556 -1331 
L -19 -1331 
L 922 3500 
L 1497 3500 
L 1394 2969 
z
" transform="scale(0.015625)"/>
      <path id="DejaVuSans-Oblique-75" d="M 428 1388 
L 838 3500 
L 1416 3500 
L 1006 1409 
Q 975 1256 961 1147 
Q 947 1038 947 966 
Q 947 700 1109 554 
Q 1272 409 1569 409 
Q 2031 409 2368 721 
Q 2706 1034 2809 1563 
L 3194 3500 
L 3769 3500 
L 3091 0 
L 2516 0 
L 2631 550 
Q 2388 244 2052 76 
Q 1716 -91 1338 -91 
Q 878 -91 622 161 
Q 366 413 366 863 
Q 366 956 381 1097 
Q 397 1238 428 1388 
z
" transform="scale(0.015625)"/>
      <path id="DejaVuSans-Oblique-32" d="M 2950 2253 
L 934 525 
L 3163 525 
L 3053 0 
L 25 0 
L 128 531 
L 2234 2338 
Q 2656 2703 2832 2979 
Q 3009 3256 3009 3547 
Q 3009 3850 2796 4040 
Q 2584 4231 2241 4231 
Q 1944 4231 1581 4125 
Q 1219 4019 806 3816 
L 922 4441 
Q 1309 4594 1662 4672 
Q 2016 4750 2316 4750 
Q 2928 4750 3301 4425 
Q 3675 4100 3675 3572 
Q 3675 3216 3497 2892 
Q 3319 2569 2950 2253 
z
" transform="scale(0.015625)"/>
     </defs>
     <use xlink:href="#DejaVuSans-Oblique-20" transform="translate(0 0.015625)"/>
     <use xlink:href="#DejaVuSans-Oblique-20" transform="translate(31.787109 0.015625)"/>
     <use xlink:href="#DejaVuSans-Oblique-20" transform="translate(63.574219 0.015625)"/>
     <use xlink:href="#DejaVuSans-Oblique-20" transform="translate(95.361328 0.015625)"/>
     <use xlink:href="#DejaVuSans-Oblique-50" transform="translate(127.148438 0.015625)"/>
     <use xlink:href="#DejaVuSans-Oblique-76" transform="translate(187.451172 -16.390625) scale(0.7)"/>
     <use xlink:href="#DejaVuSans-Oblique-61" transform="translate(228.876953 -16.390625) scale(0.7)"/>
     <use xlink:href="#DejaVuSans-Oblique-70" transform="translate(271.772461 -16.390625) scale(0.7)"/>
     <use xlink:href="#DejaVuSans-Oblique-6f" transform="translate(316.206055 -16.390625) scale(0.7)"/>
     <use xlink:href="#DejaVuSans-Oblique-75" transform="translate(359.033203 -16.390625) scale(0.7)"/>
     <use xlink:href="#DejaVuSans-Oblique-72" transform="translate(403.398438 -16.390625) scale(0.7)"/>
     <use xlink:href="#DejaVuSans-Oblique-20" transform="translate(434.912109 0.015625)"/>
     <use xlink:href="#DejaVuSans-Oblique-3d" transform="translate(466.699219 0.015625)"/>
     <use xlink:href="#DejaVuSans-Oblique-20" transform="translate(550.488281 0.015625)"/>
     <use xlink:href="#DejaVuSans-Oblique-20" transform="translate(582.275391 0.015625)"/>
     <use xlink:href="#DejaVuSans-Oblique-32" transform="translate(614.0625 0.015625)"/>
     <use xlink:href="#DejaVuSans-Oblique-33" transform="translate(677.685547 0.015625)"/>
     <use xlink:href="#DejaVuSans-Oblique-33" transform="translate(741.308594 0.015625)"/>
     <use xlink:href="#DejaVuSans-Oblique-38" transform="translate(804.931641 0.015625)"/>
     <use xlink:href="#DejaVuSans-Oblique-2e" transform="translate(868.554688 0.015625)"/>
     <use xlink:href="#DejaVuSans-Oblique-31" transform="translate(900.341797 0.015625)"/>
     <use xlink:href="#DejaVuSans-Oblique-20" transform="translate(963.964844 0.015625)"/>
     <use xlink:href="#DejaVuSans-5b" transform="translate(995.751953 0.015625)"/>
     <use xlink:href="#DejaVuSans-Oblique-50" transform="translate(1034.765625 0.015625)"/>
     <use xlink:href="#DejaVuSans-Oblique-61" transform="translate(1095.068359 0.015625)"/>
     <use xlink:href="#DejaVuSans-5d" transform="translate(1156.347656 0.015625)"/>
    </g>
    <!-- Initial content: -->
    <g transform="translate(947.565312 114.316625) scale(0.14 -0.14)">
     <defs>
      <path id="DejaVuSans-Oblique-65" d="M 3078 2063 
Q 3088 2113 3092 2166 
Q 3097 2219 3097 2272 
Q 3097 2653 2873 2875 
Q 2650 3097 2266 3097 
Q 1838 3097 1509 2826 
Q 1181 2556 1013 2059 
L 3078 2063 
z
M 3578 1613 
L 903 1613 
Q 884 1494 878 1425 
Q 872 1356 872 1306 
Q 872 872 1139 634 
Q 1406 397 1894 397 
Q 2269 397 2603 481 
Q 2938 566 3225 728 
L 3116 159 
Q 2806 34 2476 -28 
Q 2147 -91 1806 -91 
Q 1078 -91 686 257 
Q 294 606 294 1247 
Q 294 1794 489 2264 
Q 684 2734 1063 3103 
Q 1306 3334 1642 3459 
Q 1978 3584 2356 3584 
Q 2950 3584 3301 3228 
Q 3653 2872 3653 2272 
Q 3653 2128 3634 1964 
Q 3616 1800 3578 1613 
z
" transform="scale(0.015625)"/>
     </defs>
     <use xlink:href="#DejaVuSans-Oblique-49"/>
     <use xlink:href="#DejaVuSans-Oblique-6e" x="29.492188"/>
     <use xlink:href="#DejaVuSans-Oblique-69" x="92.871094"/>
     <use xlink:href="#DejaVuSans-Oblique-74" x="120.654297"/>
     <use xlink:href="#DejaVuSans-Oblique-69" x="159.863281"/>
     <use xlink:href="#DejaVuSans-Oblique-61" x="187.646484"/>
     <use xlink:href="#DejaVuSans-Oblique-6c" x="248.925781"/>
     <use xlink:href="#DejaVuSans-Oblique-20" x="276.708984"/>
     <use xlink:href="#DejaVuSans-Oblique-63" x="308.496094"/>
     <use xlink:href="#DejaVuSans-Oblique-6f" x="363.476562"/>
     <use xlink:href="#DejaVuSans-Oblique-6e" x="424.658203"/>
     <use xlink:href="#DejaVuSans-Oblique-74" x="488.037109"/>
     <use xlink:href="#DejaVuSans-Oblique-65" x="527.246094"/>
     <use xlink:href="#DejaVuSans-Oblique-6e" x="588.769531"/>
     <use xlink:href="#DejaVuSans-Oblique-74" x="652.148438"/>
     <use xlink:href="#DejaVuSans-Oblique-3a" x="691.357422"/>
    </g>
    <!--     25% N2, 75% H2 -->
    <g transform="translate(947.565312 129.993563) scale(0.14 -0.14)">
     <defs>
      <path id="DejaVuSans-Oblique-35" d="M 3719 4666 
L 3622 4141 
L 1691 4141 
L 1466 2988 
Q 1609 3034 1757 3056 
Q 1906 3078 2059 3078 
Q 2706 3078 3081 2731 
Q 3456 2384 3456 1791 
Q 3456 1375 3264 994 
Q 3072 613 2719 325 
Q 2469 125 2108 17 
Q 1747 -91 1319 -91 
Q 1038 -91 744 -41 
Q 450 9 128 109 
L 244 697 
Q 531 556 820 486 
Q 1109 416 1403 416 
Q 2013 416 2411 781 
Q 2809 1147 2809 1697 
Q 2809 2103 2548 2328 
Q 2288 2553 1819 2553 
Q 1572 2553 1305 2495 
Q 1038 2438 756 2322 
L 1209 4666 
L 3719 4666 
z
" transform="scale(0.015625)"/>
      <path id="DejaVuSans-Oblique-25" d="M 1503 2209 
Q 1078 2209 829 2486 
Q 581 2763 581 3238 
Q 581 3913 943 4331 
Q 1306 4750 1888 4750 
Q 2313 4750 2561 4470 
Q 2809 4191 2809 3713 
Q 2809 3044 2446 2626 
Q 2084 2209 1503 2209 
z
M 2309 3694 
Q 2309 4022 2187 4187 
Q 2066 4353 1825 4353 
Q 1475 4353 1278 4050 
Q 1081 3747 1081 3206 
Q 1081 2919 1207 2762 
Q 1334 2606 1569 2606 
Q 1903 2606 2106 2903 
Q 2309 3200 2309 3694 
z
M 4997 1394 
Q 4997 1728 4878 1893 
Q 4759 2059 4519 2059 
Q 4172 2059 3973 1754 
Q 3775 1450 3775 909 
Q 3775 619 3901 462 
Q 4028 306 4263 306 
Q 4597 306 4797 603 
Q 4997 900 4997 1394 
z
M 4197 -91 
Q 3772 -91 3525 187 
Q 3278 466 3278 941 
Q 3278 1616 3639 2033 
Q 4000 2450 4581 2450 
Q 5006 2450 5251 2175 
Q 5497 1900 5497 1422 
Q 5497 750 5136 329 
Q 4775 -91 4197 -91 
z
M 5259 4750 
L 1403 -91 
L 903 -91 
L 4763 4750 
L 5259 4750 
z
" transform="scale(0.015625)"/>
      <path id="DejaVuSans-Oblique-4e" d="M 1081 4666 
L 1931 4666 
L 3219 666 
L 4000 4666 
L 4616 4666 
L 3706 0 
L 2853 0 
L 1569 4025 
L 788 0 
L 172 0 
L 1081 4666 
z
" transform="scale(0.015625)"/>
      <path id="DejaVuSans-Oblique-2c" d="M 575 794 
L 1234 794 
L 1131 256 
L 422 -744 
L 19 -744 
L 469 256 
L 575 794 
z
" transform="scale(0.015625)"/>
      <path id="DejaVuSans-Oblique-37" d="M 819 4666 
L 4013 4666 
L 3956 4397 
L 1288 0 
L 594 0 
L 3116 4134 
L 716 4134 
L 819 4666 
z
" transform="scale(0.015625)"/>
      <path id="DejaVuSans-Oblique-48" d="M 1081 4666 
L 1716 4666 
L 1344 2753 
L 3634 2753 
L 4006 4666 
L 4641 4666 
L 3731 0 
L 3097 0 
L 3531 2222 
L 1241 2222 
L 806 0 
L 172 0 
L 1081 4666 
z
" transform="scale(0.015625)"/>
     </defs>
     <use xlink:href="#DejaVuSans-Oblique-20"/>
     <use xlink:href="#DejaVuSans-Oblique-20" x="31.787109"/>
     <use xlink:href="#DejaVuSans-Oblique-20" x="63.574219"/>
     <use xlink:href="#DejaVuSans-Oblique-20" x="95.361328"/>
     <use xlink:href="#DejaVuSans-Oblique-32" x="127.148438"/>
     <use xlink:href="#DejaVuSans-Oblique-35" x="190.771484"/>
     <use xlink:href="#DejaVuSans-Oblique-25" x="254.394531"/>
     <use xlink:href="#DejaVuSans-Oblique-20" x="349.414062"/>
     <use xlink:href="#DejaVuSans-Oblique-4e" x="381.201172"/>
     <use xlink:href="#DejaVuSans-Oblique-32" x="456.005859"/>
     <use xlink:href="#DejaVuSans-Oblique-2c" x="519.628906"/>
     <use xlink:href="#DejaVuSans-Oblique-20" x="551.416016"/>
     <use xlink:href="#DejaVuSans-Oblique-37" x="583.203125"/>
     <use xlink:href="#DejaVuSans-Oblique-35" x="646.826172"/>
     <use xlink:href="#DejaVuSans-Oblique-25" x="710.449219"/>
     <use xlink:href="#DejaVuSans-Oblique-20" x="805.46875"/>
     <use xlink:href="#DejaVuSans-Oblique-48" x="837.255859"/>
     <use xlink:href="#DejaVuSans-Oblique-32" x="912.451172"/>
    </g>
    <!-- Excitation = sin_impulse_logf: -->
    <g transform="translate(947.565312 145.6705) scale(0.14 -0.14)">
     <defs>
      <path id="DejaVuSans-Oblique-78" d="M 3841 3500 
L 2234 1784 
L 3219 0 
L 2559 0 
L 1819 1388 
L 531 0 
L -166 0 
L 1556 1844 
L 641 3500 
L 1300 3500 
L 1972 2234 
L 3144 3500 
L 3841 3500 
z
" transform="scale(0.015625)"/>
      <path id="DejaVuSans-Oblique-5f" d="M 3263 -1063 
L 3263 -1509 
L -63 -1509 
L -63 -1063 
L 3263 -1063 
z
" transform="scale(0.015625)"/>
      <path id="DejaVuSans-Oblique-67" d="M 3816 3500 
L 3219 434 
Q 3047 -456 2561 -893 
Q 2075 -1331 1253 -1331 
Q 950 -1331 690 -1286 
Q 431 -1241 206 -1147 
L 313 -588 
Q 525 -725 762 -790 
Q 1000 -856 1269 -856 
Q 1816 -856 2167 -557 
Q 2519 -259 2631 300 
L 2681 563 
Q 2441 288 2122 144 
Q 1803 0 1434 0 
Q 903 0 598 351 
Q 294 703 294 1319 
Q 294 1803 478 2267 
Q 663 2731 997 3091 
Q 1219 3328 1514 3456 
Q 1809 3584 2131 3584 
Q 2484 3584 2746 3420 
Q 3009 3256 3138 2956 
L 3238 3500 
L 3816 3500 
z
M 2950 2216 
Q 2950 2641 2750 2872 
Q 2550 3103 2181 3103 
Q 1953 3103 1747 3012 
Q 1541 2922 1394 2759 
Q 1156 2491 1023 2127 
Q 891 1763 891 1375 
Q 891 944 1092 712 
Q 1294 481 1672 481 
Q 2219 481 2584 976 
Q 2950 1472 2950 2216 
z
" transform="scale(0.015625)"/>
     </defs>
     <use xlink:href="#DejaVuSans-Oblique-45"/>
     <use xlink:href="#DejaVuSans-Oblique-78" x="63.183594"/>
     <use xlink:href="#DejaVuSans-Oblique-63" x="122.363281"/>
     <use xlink:href="#DejaVuSans-Oblique-69" x="177.34375"/>
     <use xlink:href="#DejaVuSans-Oblique-74" x="205.126953"/>
     <use xlink:href="#DejaVuSans-Oblique-61" x="244.335938"/>
     <use xlink:href="#DejaVuSans-Oblique-74" x="305.615234"/>
     <use xlink:href="#DejaVuSans-Oblique-69" x="344.824219"/>
     <use xlink:href="#DejaVuSans-Oblique-6f" x="372.607422"/>
     <use xlink:href="#DejaVuSans-Oblique-6e" x="433.789062"/>
     <use xlink:href="#DejaVuSans-Oblique-20" x="497.167969"/>
     <use xlink:href="#DejaVuSans-Oblique-3d" x="528.955078"/>
     <use xlink:href="#DejaVuSans-Oblique-20" x="612.744141"/>
     <use xlink:href="#DejaVuSans-Oblique-73" x="644.53125"/>
     <use xlink:href="#DejaVuSans-Oblique-69" x="696.630859"/>
     <use xlink:href="#DejaVuSans-Oblique-6e" x="724.414062"/>
     <use xlink:href="#DejaVuSans-Oblique-5f" x="787.792969"/>
     <use xlink:href="#DejaVuSans-Oblique-69" x="837.792969"/>
     <use xlink:href="#DejaVuSans-Oblique-6d" x="865.576172"/>
     <use xlink:href="#DejaVuSans-Oblique-70" x="962.988281"/>
     <use xlink:href="#DejaVuSans-Oblique-75" x="1026.464844"/>
     <use xlink:href="#DejaVuSans-Oblique-6c" x="1089.84375"/>
     <use xlink:href="#DejaVuSans-Oblique-73" x="1117.626953"/>
     <use xlink:href="#DejaVuSans-Oblique-65" x="1169.726562"/>
     <use xlink:href="#DejaVuSans-Oblique-5f" x="1231.25"/>
     <use xlink:href="#DejaVuSans-Oblique-6c" x="1281.25"/>
     <use xlink:href="#DejaVuSans-Oblique-6f" x="1309.033203"/>
     <use xlink:href="#DejaVuSans-Oblique-67" x="1370.214844"/>
     <use xlink:href="#DejaVuSans-Oblique-66" x="1433.691406"/>
     <use xlink:href="#DejaVuSans-Oblique-3a" x="1468.896484"/>
    </g>
    <!--     p_A = -180509.34 [Pa] -->
    <g transform="translate(947.565312 161.736813) scale(0.14 -0.14)">
     <defs>
      <path id="DejaVuSans-Oblique-41" d="M 2356 4666 
L 3072 4666 
L 3938 0 
L 3278 0 
L 3084 1197 
L 984 1197 
L 325 0 
L -341 0 
L 2356 4666 
z
M 2584 4044 
L 1275 1722 
L 2988 1722 
L 2584 4044 
z
" transform="scale(0.015625)"/>
      <path id="DejaVuSans-Oblique-2d" d="M 391 2009 
L 2075 2009 
L 1978 1497 
L 288 1497 
L 391 2009 
z
" transform="scale(0.015625)"/>
      <path id="DejaVuSans-Oblique-34" d="M 2753 4666 
L 3547 4666 
L 2950 1625 
L 3616 1625 
L 3513 1100 
L 2847 1100 
L 2638 0 
L 2009 0 
L 2222 1100 
L 116 1100 
L 238 1709 
L 2753 4666 
z
M 2809 4116 
L 728 1625 
L 2322 1625 
L 2809 4116 
z
" transform="scale(0.015625)"/>
      <path id="DejaVuSans-Oblique-5b" d="M 1363 4863 
L 2688 4863 
L 2597 4416 
L 1850 4416 
L 916 -397 
L 1663 -397 
L 1581 -844 
L 256 -844 
L 1363 4863 
z
" transform="scale(0.015625)"/>
      <path id="DejaVuSans-Oblique-5d" d="M 2188 4863 
L 1081 -844 
L -244 -844 
L -159 -397 
L 588 -397 
L 1522 4416 
L 781 4416 
L 863 4863 
L 2188 4863 
z
" transform="scale(0.015625)"/>
     </defs>
     <use xlink:href="#DejaVuSans-Oblique-20"/>
     <use xlink:href="#DejaVuSans-Oblique-20" x="31.787109"/>
     <use xlink:href="#DejaVuSans-Oblique-20" x="63.574219"/>
     <use xlink:href="#DejaVuSans-Oblique-20" x="95.361328"/>
     <use xlink:href="#DejaVuSans-Oblique-70" x="127.148438"/>
     <use xlink:href="#DejaVuSans-Oblique-5f" x="190.625"/>
     <use xlink:href="#DejaVuSans-Oblique-41" x="240.625"/>
     <use xlink:href="#DejaVuSans-Oblique-20" x="309.033203"/>
     <use xlink:href="#DejaVuSans-Oblique-3d" x="340.820312"/>
     <use xlink:href="#DejaVuSans-Oblique-20" x="424.609375"/>
     <use xlink:href="#DejaVuSans-Oblique-2d" x="456.396484"/>
     <use xlink:href="#DejaVuSans-Oblique-31" x="492.480469"/>
     <use xlink:href="#DejaVuSans-Oblique-38" x="556.103516"/>
     <use xlink:href="#DejaVuSans-Oblique-30" x="619.726562"/>
     <use xlink:href="#DejaVuSans-Oblique-35" x="683.349609"/>
     <use xlink:href="#DejaVuSans-Oblique-30" x="746.972656"/>
     <use xlink:href="#DejaVuSans-Oblique-39" x="810.595703"/>
     <use xlink:href="#DejaVuSans-Oblique-2e" x="874.21875"/>
     <use xlink:href="#DejaVuSans-Oblique-33" x="906.005859"/>
     <use xlink:href="#DejaVuSans-Oblique-34" x="969.628906"/>
     <use xlink:href="#DejaVuSans-Oblique-20" x="1033.251953"/>
     <use xlink:href="#DejaVuSans-Oblique-5b" x="1065.039062"/>
     <use xlink:href="#DejaVuSans-Oblique-50" x="1104.052734"/>
     <use xlink:href="#DejaVuSans-Oblique-61" x="1164.355469"/>
     <use xlink:href="#DejaVuSans-Oblique-5d" x="1225.634766"/>
    </g>
    <!--     logf =  4.04 [-] -->
    <g transform="translate(947.565312 177.803125) scale(0.14 -0.14)">
     <use xlink:href="#DejaVuSans-Oblique-20"/>
     <use xlink:href="#DejaVuSans-Oblique-20" x="31.787109"/>
     <use xlink:href="#DejaVuSans-Oblique-20" x="63.574219"/>
     <use xlink:href="#DejaVuSans-Oblique-20" x="95.361328"/>
     <use xlink:href="#DejaVuSans-Oblique-6c" x="127.148438"/>
     <use xlink:href="#DejaVuSans-Oblique-6f" x="154.931641"/>
     <use xlink:href="#DejaVuSans-Oblique-67" x="216.113281"/>
     <use xlink:href="#DejaVuSans-Oblique-66" x="279.589844"/>
     <use xlink:href="#DejaVuSans-Oblique-20" x="314.794922"/>
     <use xlink:href="#DejaVuSans-Oblique-3d" x="346.582031"/>
     <use xlink:href="#DejaVuSans-Oblique-20" x="430.371094"/>
     <use xlink:href="#DejaVuSans-Oblique-20" x="462.158203"/>
     <use xlink:href="#DejaVuSans-Oblique-34" x="493.945312"/>
     <use xlink:href="#DejaVuSans-Oblique-2e" x="557.568359"/>
     <use xlink:href="#DejaVuSans-Oblique-30" x="589.355469"/>
     <use xlink:href="#DejaVuSans-Oblique-34" x="652.978516"/>
     <use xlink:href="#DejaVuSans-Oblique-20" x="716.601562"/>
     <use xlink:href="#DejaVuSans-Oblique-5b" x="748.388672"/>
     <use xlink:href="#DejaVuSans-Oblique-2d" x="787.402344"/>
     <use xlink:href="#DejaVuSans-Oblique-5d" x="823.486328"/>
    </g>
    <!--     n =  1.00 [-] -->
    <g transform="translate(947.565312 193.480063) scale(0.14 -0.14)">
     <use xlink:href="#DejaVuSans-Oblique-20"/>
     <use xlink:href="#DejaVuSans-Oblique-20" x="31.787109"/>
     <use xlink:href="#DejaVuSans-Oblique-20" x="63.574219"/>
     <use xlink:href="#DejaVuSans-Oblique-20" x="95.361328"/>
     <use xlink:href="#DejaVuSans-Oblique-6e" x="127.148438"/>
     <use xlink:href="#DejaVuSans-Oblique-20" x="190.527344"/>
     <use xlink:href="#DejaVuSans-Oblique-3d" x="222.314453"/>
     <use xlink:href="#DejaVuSans-Oblique-20" x="306.103516"/>
     <use xlink:href="#DejaVuSans-Oblique-20" x="337.890625"/>
     <use xlink:href="#DejaVuSans-Oblique-31" x="369.677734"/>
     <use xlink:href="#DejaVuSans-Oblique-2e" x="433.300781"/>
     <use xlink:href="#DejaVuSans-Oblique-30" x="465.087891"/>
     <use xlink:href="#DejaVuSans-Oblique-30" x="528.710938"/>
     <use xlink:href="#DejaVuSans-Oblique-20" x="592.333984"/>
     <use xlink:href="#DejaVuSans-Oblique-5b" x="624.121094"/>
     <use xlink:href="#DejaVuSans-Oblique-2d" x="663.134766"/>
     <use xlink:href="#DejaVuSans-Oblique-5d" x="699.21875"/>
    </g>
   </g>
  </g>
  <g id="axes_2">
   <g id="matplotlib.axis_3">
    <g id="ytick_9">
     <g id="line2d_28">
      <defs>
       <path id="m7988f3a7ee" d="M 0 0 
L 3.5 0 
" style="stroke: #000000; stroke-width: 0.8"/>
      </defs>
      <g>
       <use xlink:href="#m7988f3a7ee" x="1180.24625" y="272.8752" style="stroke: #000000; stroke-width: 0.8"/>
      </g>
     </g>
     <g id="text_17">
      <!-- 1000 -->
      <g transform="translate(1187.24625 279.713794) scale(0.18 -0.18)">
       <use xlink:href="#DejaVuSans-31"/>
       <use xlink:href="#DejaVuSans-30" x="63.623047"/>
       <use xlink:href="#DejaVuSans-30" x="127.246094"/>
       <use xlink:href="#DejaVuSans-30" x="190.869141"/>
      </g>
     </g>
    </g>
    <g id="ytick_10">
     <g id="line2d_29">
      <g>
       <use xlink:href="#m7988f3a7ee" x="1180.24625" y="205.355107" style="stroke: #000000; stroke-width: 0.8"/>
      </g>
     </g>
     <g id="text_18">
      <!-- 2000 -->
      <g transform="translate(1187.24625 212.193701) scale(0.18 -0.18)">
       <use xlink:href="#DejaVuSans-32"/>
       <use xlink:href="#DejaVuSans-30" x="63.623047"/>
       <use xlink:href="#DejaVuSans-30" x="127.246094"/>
       <use xlink:href="#DejaVuSans-30" x="190.869141"/>
      </g>
     </g>
    </g>
    <g id="ytick_11">
     <g id="line2d_30">
      <g>
       <use xlink:href="#m7988f3a7ee" x="1180.24625" y="137.835014" style="stroke: #000000; stroke-width: 0.8"/>
      </g>
     </g>
     <g id="text_19">
      <!-- 3000 -->
      <g transform="translate(1187.24625 144.673608) scale(0.18 -0.18)">
       <use xlink:href="#DejaVuSans-33"/>
       <use xlink:href="#DejaVuSans-30" x="63.623047"/>
       <use xlink:href="#DejaVuSans-30" x="127.246094"/>
       <use xlink:href="#DejaVuSans-30" x="190.869141"/>
      </g>
     </g>
    </g>
    <g id="ytick_12">
     <g id="line2d_31">
      <g>
       <use xlink:href="#m7988f3a7ee" x="1180.24625" y="70.314921" style="stroke: #000000; stroke-width: 0.8"/>
      </g>
     </g>
     <g id="text_20">
      <!-- 4000 -->
      <g transform="translate(1187.24625 77.153515) scale(0.18 -0.18)">
       <use xlink:href="#DejaVuSans-34"/>
       <use xlink:href="#DejaVuSans-30" x="63.623047"/>
       <use xlink:href="#DejaVuSans-30" x="127.246094"/>
       <use xlink:href="#DejaVuSans-30" x="190.869141"/>
      </g>
     </g>
    </g>
    <g id="text_21">
     <!-- $T$ [K] -->
     <g style="fill: #ff0000" transform="translate(1250.733437 194.85) rotate(-90) scale(0.18 -0.18)">
      <defs>
       <path id="DejaVuSans-4b" d="M 628 4666 
L 1259 4666 
L 1259 2694 
L 3353 4666 
L 4166 4666 
L 1850 2491 
L 4331 0 
L 3500 0 
L 1259 2247 
L 1259 0 
L 628 0 
L 628 4666 
z
" transform="scale(0.015625)"/>
      </defs>
      <use xlink:href="#DejaVuSans-Oblique-54" transform="translate(0 0.015625)"/>
      <use xlink:href="#DejaVuSans-20" transform="translate(61.083984 0.015625)"/>
      <use xlink:href="#DejaVuSans-5b" transform="translate(92.871094 0.015625)"/>
      <use xlink:href="#DejaVuSans-4b" transform="translate(131.884766 0.015625)"/>
      <use xlink:href="#DejaVuSans-5d" transform="translate(197.460938 0.015625)"/>
     </g>
    </g>
   </g>
   <g id="line2d_32">
    <path d="M 114.973523 319.926577 
L 117.898023 320.031205 
L 119.870737 320.339579 
L 122.085229 320.930776 
L 127.634787 322.533601 
L 129.846873 322.872332 
L 132.234426 323.001394 
L 135.002674 322.915704 
L 139.113865 322.531882 
L 151.684787 321.226729 
L 159.854888 320.683109 
L 174.790048 319.979088 
L 182.144656 319.507521 
L 185.9235 319.058436 
L 188.309638 318.565558 
L 189.967114 318.009398 
L 191.183651 317.380686 
L 192.141083 316.644797 
L 192.934315 315.751043 
L 193.589844 314.674935 
L 194.176816 313.256452 
L 194.674172 311.451797 
L 195.144774 308.840236 
L 195.560748 305.249705 
L 195.896215 300.318485 
L 196.165641 292.773904 
L 196.36817 280.140319 
L 196.507319 255.355129 
L 196.586954 191.736997 
L 196.619456 22.32 
L 196.69128 205.728228 
L 196.87559 270.078888 
L 197.139986 293.915834 
L 197.476451 305.99704 
L 197.864384 312.755926 
L 198.320371 317.097947 
L 198.825641 319.903728 
L 199.370422 321.740033 
L 199.922688 322.86075 
L 200.480451 323.5087 
L 201.049655 323.838365 
L 201.669268 323.945426 
L 202.446166 323.847006 
L 203.610336 323.443947 
L 210.120771 320.82557 
L 213.372305 319.964409 
L 220.292663 318.219033 
L 222.029519 317.501575 
L 223.373598 316.706442 
L 224.451097 315.804153 
L 225.319121 314.791609 
L 226.089979 313.543369 
L 226.772449 311.991112 
L 227.38677 310.009547 
L 227.978642 307.351304 
L 228.499007 303.952805 
L 228.952119 299.440826 
L 229.353365 293.061817 
L 229.742517 282.916383 
L 230.201305 271.357145 
L 230.210992 271.367845 
L 230.258502 271.759675 
L 230.379119 275.181424 
L 231.301859 307.170233 
L 231.76109 313.536886 
L 232.251964 317.542281 
L 232.796178 320.283868 
L 233.384555 322.158081 
L 233.985961 323.366055 
L 234.575437 324.087897 
L 235.199746 324.512135 
L 235.87041 324.700549 
L 236.692142 324.683247 
L 237.787249 324.409959 
L 239.629514 323.677925 
L 243.539989 322.110908 
L 246.351166 321.25373 
L 249.948332 320.408145 
L 257.005763 318.808193 
L 259.203478 318.046185 
L 260.80522 317.256332 
L 262.027577 316.415373 
L 263.027361 315.473679 
L 263.914648 314.33216 
L 264.701193 312.9397 
L 265.397004 311.235098 
L 266.085605 308.912652 
L 266.735186 305.912233 
L 267.338201 301.999529 
L 267.99636 296.08609 
L 268.607704 291.087935 
L 268.780006 290.726458 
L 268.808098 290.745992 
L 268.908401 291.030508 
L 269.080512 292.31185 
L 269.410424 296.907686 
L 270.303245 309.49568 
L 270.89096 314.552755 
L 271.485417 317.87611 
L 272.112835 320.198191 
L 272.751134 321.778628 
L 273.415786 322.857183 
L 274.075034 323.52609 
L 274.780963 323.930029 
L 275.585869 324.116886 
L 276.493224 324.095657 
L 277.782151 323.817425 
L 279.97656 323.063847 
L 284.794427 321.385603 
L 289.843485 319.939996 
L 293.317562 318.849297 
L 295.337278 317.999267 
L 296.856699 317.134422 
L 298.135358 316.147371 
L 299.16363 315.079007 
L 300.102047 313.776299 
L 300.927405 312.250224 
L 301.733971 310.274504 
L 302.68938 307.287741 
L 304.133735 302.683678 
L 304.446903 302.328638 
L 304.632424 302.392276 
L 304.846189 302.740967 
L 305.15261 303.729213 
L 305.639525 306.185676 
L 307.372647 315.681586 
L 308.118056 318.304444 
L 308.888695 320.231322 
L 309.627035 321.509028 
L 310.374294 322.37872 
L 311.149067 322.946272 
L 311.956194 323.272471 
L 312.887427 323.410458 
L 314.045069 323.345726 
L 315.612639 323.017493 
L 318.342325 322.182808 
L 327.720281 319.001653 
L 329.88836 317.988503 
L 331.526998 316.981452 
L 332.900755 315.879709 
L 334.154174 314.586848 
L 335.433895 312.937425 
L 337.484925 310.234053 
L 338.00075 309.926698 
L 338.407563 309.927991 
L 338.778693 310.150808 
L 339.219685 310.697578 
L 339.786792 311.792437 
L 340.751359 314.23268 
L 342.270208 317.970881 
L 343.237475 319.758026 
L 344.146033 320.979076 
L 345.016468 321.792719 
L 345.898222 322.33083 
L 346.896634 322.672393 
L 347.998484 322.807546 
L 349.378971 322.734931 
L 351.191097 322.396762 
L 354.105163 321.590463 
L 358.8738 320.026421 
L 362.128203 318.749743 
L 364.609966 317.534224 
L 367.281245 315.950182 
L 369.143231 314.933361 
L 370.10395 314.650839 
L 370.857612 314.64816 
L 371.567707 314.866274 
L 372.334723 315.350834 
L 373.256056 316.219014 
L 375.118 318.37953 
L 376.599972 319.916743 
L 377.811829 320.857198 
L 378.913993 321.452029 
L 380.14179 321.857995 
L 381.400765 322.048253 
L 382.985258 322.048772 
L 384.933585 321.808287 
L 387.643311 321.226403 
L 391.586056 320.132135 
L 396.545874 318.515663 
L 399.934613 317.481732 
L 401.493085 317.226999 
L 402.764948 317.230129 
L 403.999588 317.458169 
L 405.358295 317.954995 
L 407.235864 318.908603 
L 409.979331 320.27305 
L 411.657722 320.852535 
L 413.308217 321.190375 
L 415.115982 321.327514 
L 417.15788 321.257698 
L 419.857688 320.922696 
L 423.591354 320.213199 
L 431.313159 318.688177 
L 433.475854 318.528077 
L 435.387503 318.605529 
L 437.396754 318.916943 
L 440.378392 319.641398 
L 443.73896 320.389088 
L 446.088747 320.682126 
L 448.611001 320.763737 
L 451.539269 320.618848 
L 455.597636 320.164717 
L 463.082597 319.286114 
L 466.020387 319.198314 
L 468.77125 319.336067 
L 472.673564 319.787139 
L 477.40284 320.287413 
L 480.753982 320.404138 
L 484.459538 320.30142 
L 490.481526 319.867845 
L 495.902484 319.563099 
L 499.753868 319.571659 
L 504.522026 319.82691 
L 511.184805 320.168115 
L 515.78491 320.163272 
L 522.726736 319.896118 
L 529.479611 319.719811 
L 535.06795 319.815164 
L 546.286896 320.071161 
L 554.108196 319.931267 
L 563.295201 319.818063 
L 592.208578 319.87058 
L 603.266575 319.930448 
L 616.191058 319.945453 
L 634.902867 319.924959 
L 653.724962 319.916598 
L 689.745941 319.916654 
L 933.913243 319.926295 
L 1129.518977 319.92632 
L 1129.518977 319.92632 
" clip-path="url(#p2f592a3703)" style="fill: none; stroke-dasharray: 6.4,1.6,1,1.6; stroke-dashoffset: 0; stroke: #ff0000"/>
   </g>
   <g id="patch_8">
    <path d="M 64.24625 339.84 
L 64.24625 7.2 
" style="fill: none; stroke: #000000; stroke-width: 0.8; stroke-linejoin: miter; stroke-linecap: square"/>
   </g>
   <g id="patch_9">
    <path d="M 1180.24625 339.84 
L 1180.24625 7.2 
" style="fill: none; stroke: #000000; stroke-width: 0.8; stroke-linejoin: miter; stroke-linecap: square"/>
   </g>
   <g id="patch_10">
    <path d="M 64.24625 339.84 
L 1180.24625 339.84 
" style="fill: none; stroke: #000000; stroke-width: 0.8; stroke-linejoin: miter; stroke-linecap: square"/>
   </g>
   <g id="patch_11">
    <path d="M 64.24625 7.2 
L 1180.24625 7.2 
" style="fill: none; stroke: #000000; stroke-width: 0.8; stroke-linejoin: miter; stroke-linecap: square"/>
   </g>
  </g>
 </g>
 <defs>
  <clipPath id="p2f592a3703">
   <rect x="64.24625" y="7.2" width="1116" height="332.64"/>
  </clipPath>
 </defs>
</svg>
