<?xml version="1.0" encoding="utf-8" standalone="no"?>
<!DOCTYPE svg PUBLIC "-//W3C//DTD SVG 1.1//EN"
  "http://www.w3.org/Graphics/SVG/1.1/DTD/svg11.dtd">
<svg xmlns:xlink="http://www.w3.org/1999/xlink" width="1201.120625pt" height="392.920625pt" viewBox="0 0 1201.120625 392.920625" xmlns="http://www.w3.org/2000/svg" version="1.1">
 <metadata>
  <rdf:RDF xmlns:dc="http://purl.org/dc/elements/1.1/" xmlns:cc="http://creativecommons.org/ns#" xmlns:rdf="http://www.w3.org/1999/02/22-rdf-syntax-ns#">
   <cc:Work>
    <dc:type rdf:resource="http://purl.org/dc/dcmitype/StillImage"/>
    <dc:date>2023-12-04T01:07:42.466389</dc:date>
    <dc:format>image/svg+xml</dc:format>
    <dc:creator>
     <cc:Agent>
      <dc:title>Matplotlib v3.7.0, https://matplotlib.org/</dc:title>
     </cc:Agent>
    </dc:creator>
   </cc:Work>
  </rdf:RDF>
 </metadata>
 <defs>
  <style type="text/css">*{stroke-linejoin: round; stroke-linecap: butt}</style>
 </defs>
 <g id="figure_1">
  <g id="patch_1">
   <path d="M 0 392.920625 
L 1201.120625 392.920625 
L 1201.120625 0 
L 0 0 
z
" style="fill: #ffffff"/>
  </g>
  <g id="axes_1">
   <g id="patch_2">
    <path d="M 77.920625 339.84 
L 1193.920625 339.84 
L 1193.920625 7.2 
L 77.920625 7.2 
z
" style="fill: #ffffff"/>
   </g>
   <g id="matplotlib.axis_1">
    <g id="xtick_1">
     <g id="line2d_1">
      <path d="M 128.647898 339.84 
L 128.647898 7.2 
" clip-path="url(#pb9d23e1559)" style="fill: none; stroke: #b0b0b0; stroke-width: 0.8; stroke-linecap: square"/>
     </g>
     <g id="line2d_2">
      <defs>
       <path id="m48787d81b6" d="M 0 0 
L 0 3.5 
" style="stroke: #000000; stroke-width: 0.8"/>
      </defs>
      <g>
       <use xlink:href="#m48787d81b6" x="128.647898" y="339.84" style="stroke: #000000; stroke-width: 0.8"/>
      </g>
     </g>
     <g id="text_1">
      <!-- 0 -->
      <g transform="translate(122.921648 360.517188) scale(0.18 -0.18)">
       <defs>
        <path id="DejaVuSans-30" d="M 2034 4250 
Q 1547 4250 1301 3770 
Q 1056 3291 1056 2328 
Q 1056 1369 1301 889 
Q 1547 409 2034 409 
Q 2525 409 2770 889 
Q 3016 1369 3016 2328 
Q 3016 3291 2770 3770 
Q 2525 4250 2034 4250 
z
M 2034 4750 
Q 2819 4750 3233 4129 
Q 3647 3509 3647 2328 
Q 3647 1150 3233 529 
Q 2819 -91 2034 -91 
Q 1250 -91 836 529 
Q 422 1150 422 2328 
Q 422 3509 836 4129 
Q 1250 4750 2034 4750 
z
" transform="scale(0.015625)"/>
       </defs>
       <use xlink:href="#DejaVuSans-30"/>
      </g>
     </g>
    </g>
    <g id="xtick_2">
     <g id="line2d_3">
      <path d="M 267.363992 339.84 
L 267.363992 7.2 
" clip-path="url(#pb9d23e1559)" style="fill: none; stroke: #b0b0b0; stroke-width: 0.8; stroke-linecap: square"/>
     </g>
     <g id="line2d_4">
      <g>
       <use xlink:href="#m48787d81b6" x="267.363992" y="339.84" style="stroke: #000000; stroke-width: 0.8"/>
      </g>
     </g>
     <g id="text_2">
      <!-- 50 -->
      <g transform="translate(255.911492 360.517188) scale(0.18 -0.18)">
       <defs>
        <path id="DejaVuSans-35" d="M 691 4666 
L 3169 4666 
L 3169 4134 
L 1269 4134 
L 1269 2991 
Q 1406 3038 1543 3061 
Q 1681 3084 1819 3084 
Q 2600 3084 3056 2656 
Q 3513 2228 3513 1497 
Q 3513 744 3044 326 
Q 2575 -91 1722 -91 
Q 1428 -91 1123 -41 
Q 819 9 494 109 
L 494 744 
Q 775 591 1075 516 
Q 1375 441 1709 441 
Q 2250 441 2565 725 
Q 2881 1009 2881 1497 
Q 2881 1984 2565 2268 
Q 2250 2553 1709 2553 
Q 1456 2553 1204 2497 
Q 953 2441 691 2322 
L 691 4666 
z
" transform="scale(0.015625)"/>
       </defs>
       <use xlink:href="#DejaVuSans-35"/>
       <use xlink:href="#DejaVuSans-30" x="63.623047"/>
      </g>
     </g>
    </g>
    <g id="xtick_3">
     <g id="line2d_5">
      <path d="M 406.080086 339.84 
L 406.080086 7.2 
" clip-path="url(#pb9d23e1559)" style="fill: none; stroke: #b0b0b0; stroke-width: 0.8; stroke-linecap: square"/>
     </g>
     <g id="line2d_6">
      <g>
       <use xlink:href="#m48787d81b6" x="406.080086" y="339.84" style="stroke: #000000; stroke-width: 0.8"/>
      </g>
     </g>
     <g id="text_3">
      <!-- 100 -->
      <g transform="translate(388.901336 360.517188) scale(0.18 -0.18)">
       <defs>
        <path id="DejaVuSans-31" d="M 794 531 
L 1825 531 
L 1825 4091 
L 703 3866 
L 703 4441 
L 1819 4666 
L 2450 4666 
L 2450 531 
L 3481 531 
L 3481 0 
L 794 0 
L 794 531 
z
" transform="scale(0.015625)"/>
       </defs>
       <use xlink:href="#DejaVuSans-31"/>
       <use xlink:href="#DejaVuSans-30" x="63.623047"/>
       <use xlink:href="#DejaVuSans-30" x="127.246094"/>
      </g>
     </g>
    </g>
    <g id="xtick_4">
     <g id="line2d_7">
      <path d="M 544.79618 339.84 
L 544.79618 7.2 
" clip-path="url(#pb9d23e1559)" style="fill: none; stroke: #b0b0b0; stroke-width: 0.8; stroke-linecap: square"/>
     </g>
     <g id="line2d_8">
      <g>
       <use xlink:href="#m48787d81b6" x="544.79618" y="339.84" style="stroke: #000000; stroke-width: 0.8"/>
      </g>
     </g>
     <g id="text_4">
      <!-- 150 -->
      <g transform="translate(527.61743 360.517188) scale(0.18 -0.18)">
       <use xlink:href="#DejaVuSans-31"/>
       <use xlink:href="#DejaVuSans-35" x="63.623047"/>
       <use xlink:href="#DejaVuSans-30" x="127.246094"/>
      </g>
     </g>
    </g>
    <g id="xtick_5">
     <g id="line2d_9">
      <path d="M 683.512274 339.84 
L 683.512274 7.2 
" clip-path="url(#pb9d23e1559)" style="fill: none; stroke: #b0b0b0; stroke-width: 0.8; stroke-linecap: square"/>
     </g>
     <g id="line2d_10">
      <g>
       <use xlink:href="#m48787d81b6" x="683.512274" y="339.84" style="stroke: #000000; stroke-width: 0.8"/>
      </g>
     </g>
     <g id="text_5">
      <!-- 200 -->
      <g transform="translate(666.333524 360.517188) scale(0.18 -0.18)">
       <defs>
        <path id="DejaVuSans-32" d="M 1228 531 
L 3431 531 
L 3431 0 
L 469 0 
L 469 531 
Q 828 903 1448 1529 
Q 2069 2156 2228 2338 
Q 2531 2678 2651 2914 
Q 2772 3150 2772 3378 
Q 2772 3750 2511 3984 
Q 2250 4219 1831 4219 
Q 1534 4219 1204 4116 
Q 875 4013 500 3803 
L 500 4441 
Q 881 4594 1212 4672 
Q 1544 4750 1819 4750 
Q 2544 4750 2975 4387 
Q 3406 4025 3406 3419 
Q 3406 3131 3298 2873 
Q 3191 2616 2906 2266 
Q 2828 2175 2409 1742 
Q 1991 1309 1228 531 
z
" transform="scale(0.015625)"/>
       </defs>
       <use xlink:href="#DejaVuSans-32"/>
       <use xlink:href="#DejaVuSans-30" x="63.623047"/>
       <use xlink:href="#DejaVuSans-30" x="127.246094"/>
      </g>
     </g>
    </g>
    <g id="xtick_6">
     <g id="line2d_11">
      <path d="M 822.228368 339.84 
L 822.228368 7.2 
" clip-path="url(#pb9d23e1559)" style="fill: none; stroke: #b0b0b0; stroke-width: 0.8; stroke-linecap: square"/>
     </g>
     <g id="line2d_12">
      <g>
       <use xlink:href="#m48787d81b6" x="822.228368" y="339.84" style="stroke: #000000; stroke-width: 0.8"/>
      </g>
     </g>
     <g id="text_6">
      <!-- 250 -->
      <g transform="translate(805.049618 360.517188) scale(0.18 -0.18)">
       <use xlink:href="#DejaVuSans-32"/>
       <use xlink:href="#DejaVuSans-35" x="63.623047"/>
       <use xlink:href="#DejaVuSans-30" x="127.246094"/>
      </g>
     </g>
    </g>
    <g id="xtick_7">
     <g id="line2d_13">
      <path d="M 960.944462 339.84 
L 960.944462 7.2 
" clip-path="url(#pb9d23e1559)" style="fill: none; stroke: #b0b0b0; stroke-width: 0.8; stroke-linecap: square"/>
     </g>
     <g id="line2d_14">
      <g>
       <use xlink:href="#m48787d81b6" x="960.944462" y="339.84" style="stroke: #000000; stroke-width: 0.8"/>
      </g>
     </g>
     <g id="text_7">
      <!-- 300 -->
      <g transform="translate(943.765712 360.517188) scale(0.18 -0.18)">
       <defs>
        <path id="DejaVuSans-33" d="M 2597 2516 
Q 3050 2419 3304 2112 
Q 3559 1806 3559 1356 
Q 3559 666 3084 287 
Q 2609 -91 1734 -91 
Q 1441 -91 1130 -33 
Q 819 25 488 141 
L 488 750 
Q 750 597 1062 519 
Q 1375 441 1716 441 
Q 2309 441 2620 675 
Q 2931 909 2931 1356 
Q 2931 1769 2642 2001 
Q 2353 2234 1838 2234 
L 1294 2234 
L 1294 2753 
L 1863 2753 
Q 2328 2753 2575 2939 
Q 2822 3125 2822 3475 
Q 2822 3834 2567 4026 
Q 2313 4219 1838 4219 
Q 1578 4219 1281 4162 
Q 984 4106 628 3988 
L 628 4550 
Q 988 4650 1302 4700 
Q 1616 4750 1894 4750 
Q 2613 4750 3031 4423 
Q 3450 4097 3450 3541 
Q 3450 3153 3228 2886 
Q 3006 2619 2597 2516 
z
" transform="scale(0.015625)"/>
       </defs>
       <use xlink:href="#DejaVuSans-33"/>
       <use xlink:href="#DejaVuSans-30" x="63.623047"/>
       <use xlink:href="#DejaVuSans-30" x="127.246094"/>
      </g>
     </g>
    </g>
    <g id="xtick_8">
     <g id="line2d_15">
      <path d="M 1099.660556 339.84 
L 1099.660556 7.2 
" clip-path="url(#pb9d23e1559)" style="fill: none; stroke: #b0b0b0; stroke-width: 0.8; stroke-linecap: square"/>
     </g>
     <g id="line2d_16">
      <g>
       <use xlink:href="#m48787d81b6" x="1099.660556" y="339.84" style="stroke: #000000; stroke-width: 0.8"/>
      </g>
     </g>
     <g id="text_8">
      <!-- 350 -->
      <g transform="translate(1082.481806 360.517188) scale(0.18 -0.18)">
       <use xlink:href="#DejaVuSans-33"/>
       <use xlink:href="#DejaVuSans-35" x="63.623047"/>
       <use xlink:href="#DejaVuSans-30" x="127.246094"/>
      </g>
     </g>
    </g>
    <g id="text_9">
     <!-- $t$ [μs] -->
     <g transform="translate(612.070625 381.940625) scale(0.18 -0.18)">
      <defs>
       <path id="DejaVuSans-Oblique-74" d="M 2706 3500 
L 2619 3053 
L 1472 3053 
L 1100 1153 
Q 1081 1047 1072 975 
Q 1063 903 1063 863 
Q 1063 663 1183 572 
Q 1303 481 1569 481 
L 2150 481 
L 2053 0 
L 1503 0 
Q 991 0 739 200 
Q 488 400 488 806 
Q 488 878 497 964 
Q 506 1050 525 1153 
L 897 3053 
L 409 3053 
L 500 3500 
L 978 3500 
L 1172 4494 
L 1747 4494 
L 1556 3500 
L 2706 3500 
z
" transform="scale(0.015625)"/>
       <path id="DejaVuSans-20" transform="scale(0.015625)"/>
       <path id="DejaVuSans-5b" d="M 550 4863 
L 1875 4863 
L 1875 4416 
L 1125 4416 
L 1125 -397 
L 1875 -397 
L 1875 -844 
L 550 -844 
L 550 4863 
z
" transform="scale(0.015625)"/>
       <path id="DejaVuSans-3bc" d="M 544 -1331 
L 544 3500 
L 1119 3500 
L 1119 1325 
Q 1119 872 1334 640 
Q 1550 409 1972 409 
Q 2434 409 2667 671 
Q 2900 934 2900 1459 
L 2900 3500 
L 3475 3500 
L 3475 806 
Q 3475 619 3529 530 
Q 3584 441 3700 441 
Q 3728 441 3778 458 
Q 3828 475 3916 513 
L 3916 50 
Q 3788 -22 3673 -56 
Q 3559 -91 3450 -91 
Q 3234 -91 3106 31 
Q 2978 153 2931 403 
Q 2775 156 2548 32 
Q 2322 -91 2016 -91 
Q 1697 -91 1473 31 
Q 1250 153 1119 397 
L 1119 -1331 
L 544 -1331 
z
" transform="scale(0.015625)"/>
       <path id="DejaVuSans-73" d="M 2834 3397 
L 2834 2853 
Q 2591 2978 2328 3040 
Q 2066 3103 1784 3103 
Q 1356 3103 1142 2972 
Q 928 2841 928 2578 
Q 928 2378 1081 2264 
Q 1234 2150 1697 2047 
L 1894 2003 
Q 2506 1872 2764 1633 
Q 3022 1394 3022 966 
Q 3022 478 2636 193 
Q 2250 -91 1575 -91 
Q 1294 -91 989 -36 
Q 684 19 347 128 
L 347 722 
Q 666 556 975 473 
Q 1284 391 1588 391 
Q 1994 391 2212 530 
Q 2431 669 2431 922 
Q 2431 1156 2273 1281 
Q 2116 1406 1581 1522 
L 1381 1569 
Q 847 1681 609 1914 
Q 372 2147 372 2553 
Q 372 3047 722 3315 
Q 1072 3584 1716 3584 
Q 2034 3584 2315 3537 
Q 2597 3491 2834 3397 
z
" transform="scale(0.015625)"/>
       <path id="DejaVuSans-5d" d="M 1947 4863 
L 1947 -844 
L 622 -844 
L 622 -397 
L 1369 -397 
L 1369 4416 
L 622 4416 
L 622 4863 
L 1947 4863 
z
" transform="scale(0.015625)"/>
      </defs>
      <use xlink:href="#DejaVuSans-Oblique-74" transform="translate(0 0.015625)"/>
      <use xlink:href="#DejaVuSans-20" transform="translate(39.208984 0.015625)"/>
      <use xlink:href="#DejaVuSans-5b" transform="translate(70.996094 0.015625)"/>
      <use xlink:href="#DejaVuSans-3bc" transform="translate(110.009766 0.015625)"/>
      <use xlink:href="#DejaVuSans-73" transform="translate(173.632812 0.015625)"/>
      <use xlink:href="#DejaVuSans-5d" transform="translate(225.732422 0.015625)"/>
     </g>
    </g>
   </g>
   <g id="matplotlib.axis_2">
    <g id="ytick_1">
     <g id="line2d_17">
      <path d="M 77.920625 319.116942 
L 1193.920625 319.116942 
" clip-path="url(#pb9d23e1559)" style="fill: none; stroke: #b0b0b0; stroke-width: 0.8; stroke-linecap: square"/>
     </g>
     <g id="line2d_18">
      <defs>
       <path id="me9b43ee5fc" d="M 0 0 
L -3.5 0 
" style="stroke: #000000; stroke-width: 0.8"/>
      </defs>
      <g>
       <use xlink:href="#me9b43ee5fc" x="77.920625" y="319.116942" style="stroke: #000000; stroke-width: 0.8"/>
      </g>
     </g>
     <g id="text_10">
      <!-- $\mathdefault{10^{-1}}$ -->
      <g transform="translate(28.620625 325.955536) scale(0.18 -0.18)">
       <defs>
        <path id="DejaVuSans-2212" d="M 678 2272 
L 4684 2272 
L 4684 1741 
L 678 1741 
L 678 2272 
z
" transform="scale(0.015625)"/>
       </defs>
       <use xlink:href="#DejaVuSans-31" transform="translate(0 0.684375)"/>
       <use xlink:href="#DejaVuSans-30" transform="translate(63.623047 0.684375)"/>
       <use xlink:href="#DejaVuSans-2212" transform="translate(128.203125 38.965625) scale(0.7)"/>
       <use xlink:href="#DejaVuSans-31" transform="translate(186.855469 38.965625) scale(0.7)"/>
      </g>
     </g>
    </g>
    <g id="ytick_2">
     <g id="line2d_19">
      <path d="M 77.920625 248.943835 
L 1193.920625 248.943835 
" clip-path="url(#pb9d23e1559)" style="fill: none; stroke: #b0b0b0; stroke-width: 0.8; stroke-linecap: square"/>
     </g>
     <g id="line2d_20">
      <g>
       <use xlink:href="#me9b43ee5fc" x="77.920625" y="248.943835" style="stroke: #000000; stroke-width: 0.8"/>
      </g>
     </g>
     <g id="text_11">
      <!-- $\mathdefault{10^{0}}$ -->
      <g transform="translate(39.240625 255.782429) scale(0.18 -0.18)">
       <use xlink:href="#DejaVuSans-31" transform="translate(0 0.765625)"/>
       <use xlink:href="#DejaVuSans-30" transform="translate(63.623047 0.765625)"/>
       <use xlink:href="#DejaVuSans-30" transform="translate(128.203125 39.046875) scale(0.7)"/>
      </g>
     </g>
    </g>
    <g id="ytick_3">
     <g id="line2d_21">
      <path d="M 77.920625 178.770728 
L 1193.920625 178.770728 
" clip-path="url(#pb9d23e1559)" style="fill: none; stroke: #b0b0b0; stroke-width: 0.8; stroke-linecap: square"/>
     </g>
     <g id="line2d_22">
      <g>
       <use xlink:href="#me9b43ee5fc" x="77.920625" y="178.770728" style="stroke: #000000; stroke-width: 0.8"/>
      </g>
     </g>
     <g id="text_12">
      <!-- $\mathdefault{10^{1}}$ -->
      <g transform="translate(39.240625 185.609322) scale(0.18 -0.18)">
       <use xlink:href="#DejaVuSans-31" transform="translate(0 0.684375)"/>
       <use xlink:href="#DejaVuSans-30" transform="translate(63.623047 0.684375)"/>
       <use xlink:href="#DejaVuSans-31" transform="translate(128.203125 38.965625) scale(0.7)"/>
      </g>
     </g>
    </g>
    <g id="ytick_4">
     <g id="line2d_23">
      <path d="M 77.920625 108.597621 
L 1193.920625 108.597621 
" clip-path="url(#pb9d23e1559)" style="fill: none; stroke: #b0b0b0; stroke-width: 0.8; stroke-linecap: square"/>
     </g>
     <g id="line2d_24">
      <g>
       <use xlink:href="#me9b43ee5fc" x="77.920625" y="108.597621" style="stroke: #000000; stroke-width: 0.8"/>
      </g>
     </g>
     <g id="text_13">
      <!-- $\mathdefault{10^{2}}$ -->
      <g transform="translate(39.240625 115.436215) scale(0.18 -0.18)">
       <use xlink:href="#DejaVuSans-31" transform="translate(0 0.765625)"/>
       <use xlink:href="#DejaVuSans-30" transform="translate(63.623047 0.765625)"/>
       <use xlink:href="#DejaVuSans-32" transform="translate(128.203125 39.046875) scale(0.7)"/>
      </g>
     </g>
    </g>
    <g id="ytick_5">
     <g id="line2d_25">
      <path d="M 77.920625 38.424514 
L 1193.920625 38.424514 
" clip-path="url(#pb9d23e1559)" style="fill: none; stroke: #b0b0b0; stroke-width: 0.8; stroke-linecap: square"/>
     </g>
     <g id="line2d_26">
      <g>
       <use xlink:href="#me9b43ee5fc" x="77.920625" y="38.424514" style="stroke: #000000; stroke-width: 0.8"/>
      </g>
     </g>
     <g id="text_14">
      <!-- $\mathdefault{10^{3}}$ -->
      <g transform="translate(39.240625 45.263107) scale(0.18 -0.18)">
       <use xlink:href="#DejaVuSans-31" transform="translate(0 0.765625)"/>
       <use xlink:href="#DejaVuSans-30" transform="translate(63.623047 0.765625)"/>
       <use xlink:href="#DejaVuSans-33" transform="translate(128.203125 39.046875) scale(0.7)"/>
      </g>
     </g>
    </g>
    <g id="ytick_6">
     <g id="line2d_27">
      <defs>
       <path id="mbeecd7e79f" d="M 0 0 
L -2 0 
" style="stroke: #000000; stroke-width: 0.6"/>
      </defs>
      <g>
       <use xlink:href="#mbeecd7e79f" x="77.920625" y="334.684758" style="stroke: #000000; stroke-width: 0.6"/>
      </g>
     </g>
    </g>
    <g id="ytick_7">
     <g id="line2d_28">
      <g>
       <use xlink:href="#mbeecd7e79f" x="77.920625" y="329.986894" style="stroke: #000000; stroke-width: 0.6"/>
      </g>
     </g>
    </g>
    <g id="ytick_8">
     <g id="line2d_29">
      <g>
       <use xlink:href="#mbeecd7e79f" x="77.920625" y="325.917419" style="stroke: #000000; stroke-width: 0.6"/>
      </g>
     </g>
    </g>
    <g id="ytick_9">
     <g id="line2d_30">
      <g>
       <use xlink:href="#mbeecd7e79f" x="77.920625" y="322.327888" style="stroke: #000000; stroke-width: 0.6"/>
      </g>
     </g>
    </g>
    <g id="ytick_10">
     <g id="line2d_31">
      <g>
       <use xlink:href="#mbeecd7e79f" x="77.920625" y="297.992732" style="stroke: #000000; stroke-width: 0.6"/>
      </g>
     </g>
    </g>
    <g id="ytick_11">
     <g id="line2d_32">
      <g>
       <use xlink:href="#mbeecd7e79f" x="77.920625" y="285.635861" style="stroke: #000000; stroke-width: 0.6"/>
      </g>
     </g>
    </g>
    <g id="ytick_12">
     <g id="line2d_33">
      <g>
       <use xlink:href="#mbeecd7e79f" x="77.920625" y="276.868522" style="stroke: #000000; stroke-width: 0.6"/>
      </g>
     </g>
    </g>
    <g id="ytick_13">
     <g id="line2d_34">
      <g>
       <use xlink:href="#mbeecd7e79f" x="77.920625" y="270.068045" style="stroke: #000000; stroke-width: 0.6"/>
      </g>
     </g>
    </g>
    <g id="ytick_14">
     <g id="line2d_35">
      <g>
       <use xlink:href="#mbeecd7e79f" x="77.920625" y="264.511651" style="stroke: #000000; stroke-width: 0.6"/>
      </g>
     </g>
    </g>
    <g id="ytick_15">
     <g id="line2d_36">
      <g>
       <use xlink:href="#mbeecd7e79f" x="77.920625" y="259.813787" style="stroke: #000000; stroke-width: 0.6"/>
      </g>
     </g>
    </g>
    <g id="ytick_16">
     <g id="line2d_37">
      <g>
       <use xlink:href="#mbeecd7e79f" x="77.920625" y="255.744312" style="stroke: #000000; stroke-width: 0.6"/>
      </g>
     </g>
    </g>
    <g id="ytick_17">
     <g id="line2d_38">
      <g>
       <use xlink:href="#mbeecd7e79f" x="77.920625" y="252.15478" style="stroke: #000000; stroke-width: 0.6"/>
      </g>
     </g>
    </g>
    <g id="ytick_18">
     <g id="line2d_39">
      <g>
       <use xlink:href="#mbeecd7e79f" x="77.920625" y="227.819625" style="stroke: #000000; stroke-width: 0.6"/>
      </g>
     </g>
    </g>
    <g id="ytick_19">
     <g id="line2d_40">
      <g>
       <use xlink:href="#mbeecd7e79f" x="77.920625" y="215.462754" style="stroke: #000000; stroke-width: 0.6"/>
      </g>
     </g>
    </g>
    <g id="ytick_20">
     <g id="line2d_41">
      <g>
       <use xlink:href="#mbeecd7e79f" x="77.920625" y="206.695415" style="stroke: #000000; stroke-width: 0.6"/>
      </g>
     </g>
    </g>
    <g id="ytick_21">
     <g id="line2d_42">
      <g>
       <use xlink:href="#mbeecd7e79f" x="77.920625" y="199.894938" style="stroke: #000000; stroke-width: 0.6"/>
      </g>
     </g>
    </g>
    <g id="ytick_22">
     <g id="line2d_43">
      <g>
       <use xlink:href="#mbeecd7e79f" x="77.920625" y="194.338544" style="stroke: #000000; stroke-width: 0.6"/>
      </g>
     </g>
    </g>
    <g id="ytick_23">
     <g id="line2d_44">
      <g>
       <use xlink:href="#mbeecd7e79f" x="77.920625" y="189.64068" style="stroke: #000000; stroke-width: 0.6"/>
      </g>
     </g>
    </g>
    <g id="ytick_24">
     <g id="line2d_45">
      <g>
       <use xlink:href="#mbeecd7e79f" x="77.920625" y="185.571205" style="stroke: #000000; stroke-width: 0.6"/>
      </g>
     </g>
    </g>
    <g id="ytick_25">
     <g id="line2d_46">
      <g>
       <use xlink:href="#mbeecd7e79f" x="77.920625" y="181.981673" style="stroke: #000000; stroke-width: 0.6"/>
      </g>
     </g>
    </g>
    <g id="ytick_26">
     <g id="line2d_47">
      <g>
       <use xlink:href="#mbeecd7e79f" x="77.920625" y="157.646518" style="stroke: #000000; stroke-width: 0.6"/>
      </g>
     </g>
    </g>
    <g id="ytick_27">
     <g id="line2d_48">
      <g>
       <use xlink:href="#mbeecd7e79f" x="77.920625" y="145.289647" style="stroke: #000000; stroke-width: 0.6"/>
      </g>
     </g>
    </g>
    <g id="ytick_28">
     <g id="line2d_49">
      <g>
       <use xlink:href="#mbeecd7e79f" x="77.920625" y="136.522308" style="stroke: #000000; stroke-width: 0.6"/>
      </g>
     </g>
    </g>
    <g id="ytick_29">
     <g id="line2d_50">
      <g>
       <use xlink:href="#mbeecd7e79f" x="77.920625" y="129.721831" style="stroke: #000000; stroke-width: 0.6"/>
      </g>
     </g>
    </g>
    <g id="ytick_30">
     <g id="line2d_51">
      <g>
       <use xlink:href="#mbeecd7e79f" x="77.920625" y="124.165437" style="stroke: #000000; stroke-width: 0.6"/>
      </g>
     </g>
    </g>
    <g id="ytick_31">
     <g id="line2d_52">
      <g>
       <use xlink:href="#mbeecd7e79f" x="77.920625" y="119.467573" style="stroke: #000000; stroke-width: 0.6"/>
      </g>
     </g>
    </g>
    <g id="ytick_32">
     <g id="line2d_53">
      <g>
       <use xlink:href="#mbeecd7e79f" x="77.920625" y="115.398098" style="stroke: #000000; stroke-width: 0.6"/>
      </g>
     </g>
    </g>
    <g id="ytick_33">
     <g id="line2d_54">
      <g>
       <use xlink:href="#mbeecd7e79f" x="77.920625" y="111.808566" style="stroke: #000000; stroke-width: 0.6"/>
      </g>
     </g>
    </g>
    <g id="ytick_34">
     <g id="line2d_55">
      <g>
       <use xlink:href="#mbeecd7e79f" x="77.920625" y="87.473411" style="stroke: #000000; stroke-width: 0.6"/>
      </g>
     </g>
    </g>
    <g id="ytick_35">
     <g id="line2d_56">
      <g>
       <use xlink:href="#mbeecd7e79f" x="77.920625" y="75.11654" style="stroke: #000000; stroke-width: 0.6"/>
      </g>
     </g>
    </g>
    <g id="ytick_36">
     <g id="line2d_57">
      <g>
       <use xlink:href="#mbeecd7e79f" x="77.920625" y="66.349201" style="stroke: #000000; stroke-width: 0.6"/>
      </g>
     </g>
    </g>
    <g id="ytick_37">
     <g id="line2d_58">
      <g>
       <use xlink:href="#mbeecd7e79f" x="77.920625" y="59.548724" style="stroke: #000000; stroke-width: 0.6"/>
      </g>
     </g>
    </g>
    <g id="ytick_38">
     <g id="line2d_59">
      <g>
       <use xlink:href="#mbeecd7e79f" x="77.920625" y="53.99233" style="stroke: #000000; stroke-width: 0.6"/>
      </g>
     </g>
    </g>
    <g id="ytick_39">
     <g id="line2d_60">
      <g>
       <use xlink:href="#mbeecd7e79f" x="77.920625" y="49.294465" style="stroke: #000000; stroke-width: 0.6"/>
      </g>
     </g>
    </g>
    <g id="ytick_40">
     <g id="line2d_61">
      <g>
       <use xlink:href="#mbeecd7e79f" x="77.920625" y="45.22499" style="stroke: #000000; stroke-width: 0.6"/>
      </g>
     </g>
    </g>
    <g id="ytick_41">
     <g id="line2d_62">
      <g>
       <use xlink:href="#mbeecd7e79f" x="77.920625" y="41.635459" style="stroke: #000000; stroke-width: 0.6"/>
      </g>
     </g>
    </g>
    <g id="ytick_42">
     <g id="line2d_63">
      <g>
       <use xlink:href="#mbeecd7e79f" x="77.920625" y="17.300303" style="stroke: #000000; stroke-width: 0.6"/>
      </g>
     </g>
    </g>
    <g id="text_15">
     <!-- Internal pressure [MPa] -->
     <g transform="translate(20.877188 278.116875) rotate(-90) scale(0.18 -0.18)">
      <defs>
       <path id="DejaVuSans-49" d="M 628 4666 
L 1259 4666 
L 1259 0 
L 628 0 
L 628 4666 
z
" transform="scale(0.015625)"/>
       <path id="DejaVuSans-6e" d="M 3513 2113 
L 3513 0 
L 2938 0 
L 2938 2094 
Q 2938 2591 2744 2837 
Q 2550 3084 2163 3084 
Q 1697 3084 1428 2787 
Q 1159 2491 1159 1978 
L 1159 0 
L 581 0 
L 581 3500 
L 1159 3500 
L 1159 2956 
Q 1366 3272 1645 3428 
Q 1925 3584 2291 3584 
Q 2894 3584 3203 3211 
Q 3513 2838 3513 2113 
z
" transform="scale(0.015625)"/>
       <path id="DejaVuSans-74" d="M 1172 4494 
L 1172 3500 
L 2356 3500 
L 2356 3053 
L 1172 3053 
L 1172 1153 
Q 1172 725 1289 603 
Q 1406 481 1766 481 
L 2356 481 
L 2356 0 
L 1766 0 
Q 1100 0 847 248 
Q 594 497 594 1153 
L 594 3053 
L 172 3053 
L 172 3500 
L 594 3500 
L 594 4494 
L 1172 4494 
z
" transform="scale(0.015625)"/>
       <path id="DejaVuSans-65" d="M 3597 1894 
L 3597 1613 
L 953 1613 
Q 991 1019 1311 708 
Q 1631 397 2203 397 
Q 2534 397 2845 478 
Q 3156 559 3463 722 
L 3463 178 
Q 3153 47 2828 -22 
Q 2503 -91 2169 -91 
Q 1331 -91 842 396 
Q 353 884 353 1716 
Q 353 2575 817 3079 
Q 1281 3584 2069 3584 
Q 2775 3584 3186 3129 
Q 3597 2675 3597 1894 
z
M 3022 2063 
Q 3016 2534 2758 2815 
Q 2500 3097 2075 3097 
Q 1594 3097 1305 2825 
Q 1016 2553 972 2059 
L 3022 2063 
z
" transform="scale(0.015625)"/>
       <path id="DejaVuSans-72" d="M 2631 2963 
Q 2534 3019 2420 3045 
Q 2306 3072 2169 3072 
Q 1681 3072 1420 2755 
Q 1159 2438 1159 1844 
L 1159 0 
L 581 0 
L 581 3500 
L 1159 3500 
L 1159 2956 
Q 1341 3275 1631 3429 
Q 1922 3584 2338 3584 
Q 2397 3584 2469 3576 
Q 2541 3569 2628 3553 
L 2631 2963 
z
" transform="scale(0.015625)"/>
       <path id="DejaVuSans-61" d="M 2194 1759 
Q 1497 1759 1228 1600 
Q 959 1441 959 1056 
Q 959 750 1161 570 
Q 1363 391 1709 391 
Q 2188 391 2477 730 
Q 2766 1069 2766 1631 
L 2766 1759 
L 2194 1759 
z
M 3341 1997 
L 3341 0 
L 2766 0 
L 2766 531 
Q 2569 213 2275 61 
Q 1981 -91 1556 -91 
Q 1019 -91 701 211 
Q 384 513 384 1019 
Q 384 1609 779 1909 
Q 1175 2209 1959 2209 
L 2766 2209 
L 2766 2266 
Q 2766 2663 2505 2880 
Q 2244 3097 1772 3097 
Q 1472 3097 1187 3025 
Q 903 2953 641 2809 
L 641 3341 
Q 956 3463 1253 3523 
Q 1550 3584 1831 3584 
Q 2591 3584 2966 3190 
Q 3341 2797 3341 1997 
z
" transform="scale(0.015625)"/>
       <path id="DejaVuSans-6c" d="M 603 4863 
L 1178 4863 
L 1178 0 
L 603 0 
L 603 4863 
z
" transform="scale(0.015625)"/>
       <path id="DejaVuSans-70" d="M 1159 525 
L 1159 -1331 
L 581 -1331 
L 581 3500 
L 1159 3500 
L 1159 2969 
Q 1341 3281 1617 3432 
Q 1894 3584 2278 3584 
Q 2916 3584 3314 3078 
Q 3713 2572 3713 1747 
Q 3713 922 3314 415 
Q 2916 -91 2278 -91 
Q 1894 -91 1617 61 
Q 1341 213 1159 525 
z
M 3116 1747 
Q 3116 2381 2855 2742 
Q 2594 3103 2138 3103 
Q 1681 3103 1420 2742 
Q 1159 2381 1159 1747 
Q 1159 1113 1420 752 
Q 1681 391 2138 391 
Q 2594 391 2855 752 
Q 3116 1113 3116 1747 
z
" transform="scale(0.015625)"/>
       <path id="DejaVuSans-75" d="M 544 1381 
L 544 3500 
L 1119 3500 
L 1119 1403 
Q 1119 906 1312 657 
Q 1506 409 1894 409 
Q 2359 409 2629 706 
Q 2900 1003 2900 1516 
L 2900 3500 
L 3475 3500 
L 3475 0 
L 2900 0 
L 2900 538 
Q 2691 219 2414 64 
Q 2138 -91 1772 -91 
Q 1169 -91 856 284 
Q 544 659 544 1381 
z
M 1991 3584 
L 1991 3584 
z
" transform="scale(0.015625)"/>
       <path id="DejaVuSans-4d" d="M 628 4666 
L 1569 4666 
L 2759 1491 
L 3956 4666 
L 4897 4666 
L 4897 0 
L 4281 0 
L 4281 4097 
L 3078 897 
L 2444 897 
L 1241 4097 
L 1241 0 
L 628 0 
L 628 4666 
z
" transform="scale(0.015625)"/>
       <path id="DejaVuSans-50" d="M 1259 4147 
L 1259 2394 
L 2053 2394 
Q 2494 2394 2734 2622 
Q 2975 2850 2975 3272 
Q 2975 3691 2734 3919 
Q 2494 4147 2053 4147 
L 1259 4147 
z
M 628 4666 
L 2053 4666 
Q 2838 4666 3239 4311 
Q 3641 3956 3641 3272 
Q 3641 2581 3239 2228 
Q 2838 1875 2053 1875 
L 1259 1875 
L 1259 0 
L 628 0 
L 628 4666 
z
" transform="scale(0.015625)"/>
      </defs>
      <use xlink:href="#DejaVuSans-49"/>
      <use xlink:href="#DejaVuSans-6e" x="29.492188"/>
      <use xlink:href="#DejaVuSans-74" x="92.871094"/>
      <use xlink:href="#DejaVuSans-65" x="132.080078"/>
      <use xlink:href="#DejaVuSans-72" x="193.603516"/>
      <use xlink:href="#DejaVuSans-6e" x="232.966797"/>
      <use xlink:href="#DejaVuSans-61" x="296.345703"/>
      <use xlink:href="#DejaVuSans-6c" x="357.625"/>
      <use xlink:href="#DejaVuSans-20" x="385.408203"/>
      <use xlink:href="#DejaVuSans-70" x="417.195312"/>
      <use xlink:href="#DejaVuSans-72" x="480.671875"/>
      <use xlink:href="#DejaVuSans-65" x="519.535156"/>
      <use xlink:href="#DejaVuSans-73" x="581.058594"/>
      <use xlink:href="#DejaVuSans-73" x="633.158203"/>
      <use xlink:href="#DejaVuSans-75" x="685.257812"/>
      <use xlink:href="#DejaVuSans-72" x="748.636719"/>
      <use xlink:href="#DejaVuSans-65" x="787.5"/>
      <use xlink:href="#DejaVuSans-20" x="849.023438"/>
      <use xlink:href="#DejaVuSans-5b" x="880.810547"/>
      <use xlink:href="#DejaVuSans-4d" x="919.824219"/>
      <use xlink:href="#DejaVuSans-50" x="1006.103516"/>
      <use xlink:href="#DejaVuSans-61" x="1061.90625"/>
      <use xlink:href="#DejaVuSans-5d" x="1123.185547"/>
     </g>
    </g>
   </g>
   <g id="line2d_64">
    <path d="M 128.647898 318.238133 
L 132.662427 318.348178 
L 134.834478 318.616878 
L 136.818827 319.074301 
L 138.750771 319.757759 
L 140.655807 320.689533 
L 142.549328 321.88338 
L 144.426867 323.331882 
L 146.324033 325.053124 
L 148.607725 327.440212 
L 151.042291 330.313731 
L 154.043358 334.227176 
L 157.704363 339.389305 
L 163.501301 348.009962 
L 178.132807 369.885647 
L 189.90376 386.935238 
L 194.743585 393.920625 
M 321.765602 393.920625 
L 323.390935 384.537466 
L 324.780145 375.254979 
L 325.986014 365.717941 
L 327.028822 355.737628 
L 327.999713 344.213555 
L 328.82885 331.647525 
L 329.530204 317.559571 
L 330.121391 301.054067 
L 330.605441 281.054772 
L 330.987314 255.628624 
L 331.270959 220.892078 
L 331.4584 168.17488 
L 331.560953 65.148967 
L 331.582358 28.32421 
L 331.655367 101.388851 
L 331.877055 177.393128 
L 332.207833 219.654919 
L 332.648234 248.981857 
L 333.187569 270.677008 
L 333.809193 287.096122 
L 334.512465 299.967877 
L 335.273857 310.006837 
L 336.10964 318.160115 
L 337.001634 324.708894 
L 337.929243 329.91332 
L 338.874237 333.998082 
L 339.836042 337.206651 
L 340.800344 339.685521 
L 341.796364 341.644337 
L 342.774697 343.104312 
L 343.781151 344.232336 
L 344.861024 345.116142 
L 346.053287 345.793639 
L 347.341438 346.265161 
L 348.856685 346.573405 
L 350.70814 346.707473 
L 353.056152 346.643201 
L 356.368448 346.31843 
L 361.632816 345.562699 
L 368.446565 344.365159 
L 373.794565 343.221081 
L 378.473215 341.995047 
L 382.405375 340.73579 
L 385.688454 339.450565 
L 388.502262 338.100643 
L 390.753308 336.79552 
L 392.907663 335.29886 
L 394.780636 333.743244 
L 396.653037 331.881757 
L 398.336281 329.870535 
L 399.78311 327.812451 
L 401.205992 325.407309 
L 402.54398 322.703129 
L 403.831885 319.574848 
L 405.076901 315.908992 
L 406.195537 311.90521 
L 407.310533 307.020973 
L 408.323773 301.571443 
L 409.343434 294.808286 
L 410.29753 286.845494 
L 411.16961 277.578593 
L 411.964903 266.7226 
L 412.738525 252.95459 
L 413.47885 235.64247 
L 414.979255 198.545851 
L 415.075074 198.291762 
L 415.125851 198.374228 
L 415.232752 199.074247 
L 415.437473 202.212825 
L 415.816237 212.172266 
L 417.402295 257.103509 
L 418.250656 273.518746 
L 419.125956 286.332325 
L 420.045503 296.703571 
L 421.032487 305.380381 
L 422.038781 312.356934 
L 423.118429 318.307635 
L 424.168677 322.924421 
L 425.209427 326.601987 
L 426.34083 329.795006 
L 427.45575 332.28773 
L 428.609644 334.324944 
L 429.752001 335.909715 
L 430.906175 337.164866 
L 432.244019 338.279027 
L 433.628069 339.135281 
L 435.150728 339.816012 
L 436.93527 340.359816 
L 438.847553 340.728069 
L 441.479197 340.995156 
L 444.662697 341.08948 
L 449.160877 340.982432 
L 454.777805 340.613858 
L 460.232891 340.049415 
L 465.318812 339.308375 
L 469.476411 338.500646 
L 473.175649 337.579876 
L 476.504964 336.538563 
L 479.672578 335.303659 
L 482.395225 333.994803 
L 484.834975 332.57053 
L 487.038972 331.022304 
L 488.967469 329.409287 
L 490.867529 327.521816 
L 492.565715 325.519271 
L 494.239419 323.176478 
L 495.727157 320.705643 
L 497.1364 317.939144 
L 498.452744 314.883409 
L 499.754331 311.295035 
L 501.013529 307.140154 
L 502.24053 302.259965 
L 503.410748 296.627958 
L 504.523346 290.189404 
L 505.628 282.454964 
L 506.70549 273.274359 
L 507.820375 261.75036 
L 510.558159 231.980944 
L 510.905439 230.741552 
L 511.091277 230.614939 
L 511.246172 230.814294 
L 511.473604 231.601401 
L 511.789076 233.641737 
L 512.255842 238.275035 
L 513.122496 249.581526 
L 514.913018 272.857086 
L 516.06884 284.86945 
L 517.17898 294.229774 
L 518.344171 302.200866 
L 519.508706 308.675249 
L 520.631768 313.796455 
L 521.832444 318.281009 
L 523.045676 321.962774 
L 524.283622 325.001738 
L 525.437673 327.300116 
L 526.761833 329.419912 
L 528.067077 331.070942 
L 529.386404 332.385214 
L 530.759737 333.450897 
L 532.308294 334.361042 
L 533.995064 335.080715 
L 535.973116 335.653901 
L 538.127739 336.034828 
L 540.665628 336.251579 
L 543.60901 336.281494 
L 547.143093 336.092866 
L 551.025944 335.665701 
L 554.829978 335.043829 
L 558.620576 334.210425 
L 562.066341 333.234815 
L 565.214951 332.119612 
L 568.080415 330.872691 
L 570.638897 329.525678 
L 573.131295 327.948037 
L 575.298295 326.311051 
L 577.38959 324.439724 
L 579.390869 322.315804 
L 581.166942 320.092566 
L 582.743488 317.791532 
L 584.416893 314.936161 
L 586.027645 311.694798 
L 587.501463 308.208635 
L 588.939524 304.222546 
L 590.394046 299.481281 
L 591.770578 294.213773 
L 593.226595 287.704131 
L 594.807415 279.567718 
L 598.64614 259.101565 
L 599.297397 257.026486 
L 599.769623 256.154458 
L 600.124352 255.897235 
L 600.372662 255.929528 
L 600.68396 256.218644 
L 601.04817 256.900045 
L 601.511711 258.267502 
L 602.137514 260.880086 
L 602.971104 265.405991 
L 604.578544 275.677741 
L 606.711692 288.892908 
L 608.205038 296.795813 
L 609.653233 303.304874 
L 611.092676 308.731236 
L 612.396997 312.850687 
L 613.746913 316.419837 
L 615.150153 319.486803 
L 616.510914 321.929134 
L 617.798069 323.831985 
L 619.171836 325.494977 
L 620.606171 326.892302 
L 622.048066 328.007903 
L 623.601813 328.943735 
L 625.329498 329.721171 
L 627.082979 330.282621 
L 629.208001 330.719926 
L 631.421066 330.952055 
L 633.805064 331.000411 
L 636.622239 330.839052 
L 639.791562 330.417671 
L 642.990798 329.756151 
L 645.991678 328.918314 
L 648.969475 327.86044 
L 651.810506 326.610299 
L 654.317163 325.277625 
L 656.807578 323.699478 
L 659.089998 321.98729 
L 661.301763 320.037162 
L 663.297479 317.984406 
L 665.3049 315.586133 
L 667.177197 312.994069 
L 669.054903 309.991719 
L 670.755025 306.873982 
L 672.541229 303.140372 
L 674.333004 298.890137 
L 676.398139 293.382515 
L 681.981591 278.003415 
L 682.9421 276.237687 
L 683.718426 275.261596 
L 684.300671 274.838241 
L 684.818222 274.702084 
L 685.334854 274.799182 
L 685.862533 275.139219 
L 686.486158 275.845589 
L 687.214155 277.057644 
L 688.082187 278.975711 
L 689.223463 282.098933 
L 690.92076 287.478881 
L 694.801924 299.91584 
L 696.678876 305.076634 
L 698.393689 309.133594 
L 700.006867 312.383519 
L 701.56329 315.034733 
L 703.106409 317.239513 
L 704.674119 319.09717 
L 706.220177 320.599886 
L 707.923338 321.929615 
L 709.623253 322.966768 
L 711.322735 323.758695 
L 713.227988 324.401335 
L 715.379757 324.86665 
L 717.615575 325.106139 
L 719.986252 325.131318 
L 722.463752 324.940142 
L 725.227677 324.491934 
L 727.91877 323.831619 
L 730.713375 322.913912 
L 733.382991 321.807384 
L 735.962232 320.508085 
L 738.667067 318.876738 
L 741.07368 317.166808 
L 743.543974 315.128189 
L 745.88406 312.903869 
L 748.318872 310.260647 
L 750.739498 307.286261 
L 753.402356 303.633081 
L 756.912392 298.389484 
L 760.32552 293.400865 
L 762.031127 291.291732 
L 763.359021 289.985527 
L 764.479779 289.183739 
L 765.488462 288.737629 
L 766.385069 288.580551 
L 767.275546 288.657093 
L 768.157778 288.962186 
L 769.024285 289.476941 
L 770.090945 290.382253 
L 771.249006 291.662705 
L 772.728335 293.655485 
L 774.70762 296.727998 
L 780.718444 306.311616 
L 782.910506 309.268426 
L 784.919503 311.605228 
L 786.790187 313.456353 
L 788.756891 315.07985 
L 790.646567 316.351576 
L 792.576 317.386215 
L 794.608997 318.218686 
L 796.814375 318.85766 
L 798.945954 319.245365 
L 801.309311 319.442522 
L 803.854784 319.411764 
L 806.345322 319.161685 
L 809.045486 318.66398 
L 811.876392 317.902565 
L 814.64359 316.928018 
L 817.563208 315.655074 
L 820.523284 314.107852 
L 823.584394 312.238651 
L 826.557981 310.173774 
L 830.309232 307.274898 
L 838.877067 300.477485 
L 841.041327 299.128635 
L 842.809841 298.279028 
L 844.325538 297.7748 
L 845.841236 297.504484 
L 847.205363 297.474108 
L 848.654767 297.66603 
L 850.131057 298.091171 
L 851.734515 298.793247 
L 853.544619 299.841284 
L 855.677828 301.338058 
L 859.075099 304.036441 
L 864.060999 307.966796 
L 866.917813 309.922604 
L 869.420431 311.380545 
L 871.889357 312.567541 
L 874.338855 313.498967 
L 876.630483 314.15688 
L 879.270084 314.674531 
L 881.8408 314.949622 
L 884.661182 315.012867 
L 887.481564 314.847303 
L 890.43438 314.449156 
L 893.572781 313.794627 
L 896.813736 312.890493 
L 900.326584 311.677436 
L 904.352372 310.040743 
L 910.323145 307.324698 
L 915.807362 304.904162 
L 918.784575 303.814628 
L 921.381447 303.089285 
L 923.721466 302.663443 
L 925.994521 302.484329 
L 928.155017 302.538353 
L 930.449246 302.829136 
L 932.750492 303.33954 
L 935.520116 304.190631 
L 939.198963 305.585431 
L 948.66832 309.306363 
L 952.059245 310.356343 
L 955.229885 311.124496 
L 958.27817 311.655751 
L 961.647184 312.006544 
L 964.848876 312.118595 
L 968.245977 312.0171 
L 972.020533 311.662583 
L 975.79509 311.085495 
L 980.171136 310.189966 
L 985.919674 308.77006 
L 995.169305 306.474337 
L 999.078228 305.748759 
L 1002.576516 305.328486 
L 1005.793908 305.169519 
L 1008.891762 305.232429 
L 1012.195143 305.519596 
L 1015.978973 306.079968 
L 1020.905437 307.048026 
L 1031.325765 309.153666 
L 1035.992986 309.831992 
L 1040.326833 310.232035 
L 1044.694873 310.39737 
L 1049.035131 310.333011 
L 1053.572048 310.047744 
L 1059.093118 309.460482 
L 1066.804103 308.38763 
L 1075.330213 307.249614 
L 1080.425509 306.792336 
L 1084.792905 306.608047 
L 1089.151674 306.634538 
L 1093.884871 306.88385 
L 1099.709742 307.422714 
L 1116.053977 309.08352 
L 1121.734595 309.367854 
L 1127.415213 309.425164 
L 1133.141441 309.266652 
L 1140.236908 308.83882 
L 1143.193352 308.613739 
L 1143.193352 308.613739 
" clip-path="url(#pb9d23e1559)" style="fill: none; stroke: #008000; stroke-linecap: square"/>
   </g>
   <g id="patch_3">
    <path d="M 77.920625 339.84 
L 77.920625 7.2 
" style="fill: none; stroke: #000000; stroke-width: 0.8; stroke-linejoin: miter; stroke-linecap: square"/>
   </g>
   <g id="patch_4">
    <path d="M 1193.920625 339.84 
L 1193.920625 7.2 
" style="fill: none; stroke: #000000; stroke-width: 0.8; stroke-linejoin: miter; stroke-linecap: square"/>
   </g>
   <g id="patch_5">
    <path d="M 77.920625 339.84 
L 1193.920625 339.84 
" style="fill: none; stroke: #000000; stroke-width: 0.8; stroke-linejoin: miter; stroke-linecap: square"/>
   </g>
   <g id="patch_6">
    <path d="M 77.920625 7.2 
L 1193.920625 7.2 
" style="fill: none; stroke: #000000; stroke-width: 0.8; stroke-linejoin: miter; stroke-linecap: square"/>
   </g>
  </g>
 </g>
 <defs>
  <clipPath id="pb9d23e1559">
   <rect x="77.920625" y="7.2" width="1116" height="332.64"/>
  </clipPath>
 </defs>
</svg>
