<?xml version="1.0" encoding="utf-8" standalone="no"?>
<!DOCTYPE svg PUBLIC "-//W3C//DTD SVG 1.1//EN"
  "http://www.w3.org/Graphics/SVG/1.1/DTD/svg11.dtd">
<svg xmlns:xlink="http://www.w3.org/1999/xlink" width="1261.676875pt" height="396.470123pt" viewBox="0 0 1261.676875 396.470123" xmlns="http://www.w3.org/2000/svg" version="1.1">
 <metadata>
  <rdf:RDF xmlns:dc="http://purl.org/dc/elements/1.1/" xmlns:cc="http://creativecommons.org/ns#" xmlns:rdf="http://www.w3.org/1999/02/22-rdf-syntax-ns#">
   <cc:Work>
    <dc:type rdf:resource="http://purl.org/dc/dcmitype/StillImage"/>
    <dc:date>2023-12-07T19:24:31.487641</dc:date>
    <dc:format>image/svg+xml</dc:format>
    <dc:creator>
     <cc:Agent>
      <dc:title>Matplotlib v3.8.0, https://matplotlib.org/</dc:title>
     </cc:Agent>
    </dc:creator>
   </cc:Work>
  </rdf:RDF>
 </metadata>
 <defs>
  <style type="text/css">*{stroke-linejoin: round; stroke-linecap: butt}</style>
 </defs>
 <g id="figure_1">
  <g id="patch_1">
   <path d="M -0 396.470123 
L 1261.676875 396.470123 
L 1261.676875 0 
L -0 0 
z
" style="fill: #ffffff"/>
  </g>
  <g id="axes_1">
   <g id="patch_2">
    <path d="M 64.24625 343.428873 
L 1180.24625 343.428873 
L 1180.24625 10.788873 
L 64.24625 10.788873 
z
" style="fill: #ffffff"/>
   </g>
   <g id="matplotlib.axis_1">
    <g id="xtick_1">
     <g id="line2d_1">
      <path d="M 114.973523 343.428873 
L 114.973523 10.788873 
" clip-path="url(#pea79e6f11c)" style="fill: none; stroke: #b0b0b0; stroke-width: 0.8; stroke-linecap: square"/>
     </g>
     <g id="line2d_2">
      <defs>
       <path id="m7488f54edc" d="M 0 0 
L 0 3.5 
" style="stroke: #000000; stroke-width: 0.8"/>
      </defs>
      <g>
       <use xlink:href="#m7488f54edc" x="114.973523" y="343.428873" style="stroke: #000000; stroke-width: 0.8"/>
      </g>
     </g>
     <g id="text_1">
      <!-- 0 -->
      <g transform="translate(109.247273 364.106061) scale(0.18 -0.18)">
       <defs>
        <path id="DejaVuSans-30" d="M 2034 4250 
Q 1547 4250 1301 3770 
Q 1056 3291 1056 2328 
Q 1056 1369 1301 889 
Q 1547 409 2034 409 
Q 2525 409 2770 889 
Q 3016 1369 3016 2328 
Q 3016 3291 2770 3770 
Q 2525 4250 2034 4250 
z
M 2034 4750 
Q 2819 4750 3233 4129 
Q 3647 3509 3647 2328 
Q 3647 1150 3233 529 
Q 2819 -91 2034 -91 
Q 1250 -91 836 529 
Q 422 1150 422 2328 
Q 422 3509 836 4129 
Q 1250 4750 2034 4750 
z
" transform="scale(0.015625)"/>
       </defs>
       <use xlink:href="#DejaVuSans-30"/>
      </g>
     </g>
    </g>
    <g id="xtick_2">
     <g id="line2d_3">
      <path d="M 284.117116 343.428873 
L 284.117116 10.788873 
" clip-path="url(#pea79e6f11c)" style="fill: none; stroke: #b0b0b0; stroke-width: 0.8; stroke-linecap: square"/>
     </g>
     <g id="line2d_4">
      <g>
       <use xlink:href="#m7488f54edc" x="284.117116" y="343.428873" style="stroke: #000000; stroke-width: 0.8"/>
      </g>
     </g>
     <g id="text_2">
      <!-- 2 -->
      <g transform="translate(278.390866 364.106061) scale(0.18 -0.18)">
       <defs>
        <path id="DejaVuSans-32" d="M 1228 531 
L 3431 531 
L 3431 0 
L 469 0 
L 469 531 
Q 828 903 1448 1529 
Q 2069 2156 2228 2338 
Q 2531 2678 2651 2914 
Q 2772 3150 2772 3378 
Q 2772 3750 2511 3984 
Q 2250 4219 1831 4219 
Q 1534 4219 1204 4116 
Q 875 4013 500 3803 
L 500 4441 
Q 881 4594 1212 4672 
Q 1544 4750 1819 4750 
Q 2544 4750 2975 4387 
Q 3406 4025 3406 3419 
Q 3406 3131 3298 2873 
Q 3191 2616 2906 2266 
Q 2828 2175 2409 1742 
Q 1991 1309 1228 531 
z
" transform="scale(0.015625)"/>
       </defs>
       <use xlink:href="#DejaVuSans-32"/>
      </g>
     </g>
    </g>
    <g id="xtick_3">
     <g id="line2d_5">
      <path d="M 453.26071 343.428873 
L 453.26071 10.788873 
" clip-path="url(#pea79e6f11c)" style="fill: none; stroke: #b0b0b0; stroke-width: 0.8; stroke-linecap: square"/>
     </g>
     <g id="line2d_6">
      <g>
       <use xlink:href="#m7488f54edc" x="453.26071" y="343.428873" style="stroke: #000000; stroke-width: 0.8"/>
      </g>
     </g>
     <g id="text_3">
      <!-- 4 -->
      <g transform="translate(447.53446 364.106061) scale(0.18 -0.18)">
       <defs>
        <path id="DejaVuSans-34" d="M 2419 4116 
L 825 1625 
L 2419 1625 
L 2419 4116 
z
M 2253 4666 
L 3047 4666 
L 3047 1625 
L 3713 1625 
L 3713 1100 
L 3047 1100 
L 3047 0 
L 2419 0 
L 2419 1100 
L 313 1100 
L 313 1709 
L 2253 4666 
z
" transform="scale(0.015625)"/>
       </defs>
       <use xlink:href="#DejaVuSans-34"/>
      </g>
     </g>
    </g>
    <g id="xtick_4">
     <g id="line2d_7">
      <path d="M 622.404303 343.428873 
L 622.404303 10.788873 
" clip-path="url(#pea79e6f11c)" style="fill: none; stroke: #b0b0b0; stroke-width: 0.8; stroke-linecap: square"/>
     </g>
     <g id="line2d_8">
      <g>
       <use xlink:href="#m7488f54edc" x="622.404303" y="343.428873" style="stroke: #000000; stroke-width: 0.8"/>
      </g>
     </g>
     <g id="text_4">
      <!-- 6 -->
      <g transform="translate(616.678053 364.106061) scale(0.18 -0.18)">
       <defs>
        <path id="DejaVuSans-36" d="M 2113 2584 
Q 1688 2584 1439 2293 
Q 1191 2003 1191 1497 
Q 1191 994 1439 701 
Q 1688 409 2113 409 
Q 2538 409 2786 701 
Q 3034 994 3034 1497 
Q 3034 2003 2786 2293 
Q 2538 2584 2113 2584 
z
M 3366 4563 
L 3366 3988 
Q 3128 4100 2886 4159 
Q 2644 4219 2406 4219 
Q 1781 4219 1451 3797 
Q 1122 3375 1075 2522 
Q 1259 2794 1537 2939 
Q 1816 3084 2150 3084 
Q 2853 3084 3261 2657 
Q 3669 2231 3669 1497 
Q 3669 778 3244 343 
Q 2819 -91 2113 -91 
Q 1303 -91 875 529 
Q 447 1150 447 2328 
Q 447 3434 972 4092 
Q 1497 4750 2381 4750 
Q 2619 4750 2861 4703 
Q 3103 4656 3366 4563 
z
" transform="scale(0.015625)"/>
       </defs>
       <use xlink:href="#DejaVuSans-36"/>
      </g>
     </g>
    </g>
    <g id="xtick_5">
     <g id="line2d_9">
      <path d="M 791.547897 343.428873 
L 791.547897 10.788873 
" clip-path="url(#pea79e6f11c)" style="fill: none; stroke: #b0b0b0; stroke-width: 0.8; stroke-linecap: square"/>
     </g>
     <g id="line2d_10">
      <g>
       <use xlink:href="#m7488f54edc" x="791.547897" y="343.428873" style="stroke: #000000; stroke-width: 0.8"/>
      </g>
     </g>
     <g id="text_5">
      <!-- 8 -->
      <g transform="translate(785.821647 364.106061) scale(0.18 -0.18)">
       <defs>
        <path id="DejaVuSans-38" d="M 2034 2216 
Q 1584 2216 1326 1975 
Q 1069 1734 1069 1313 
Q 1069 891 1326 650 
Q 1584 409 2034 409 
Q 2484 409 2743 651 
Q 3003 894 3003 1313 
Q 3003 1734 2745 1975 
Q 2488 2216 2034 2216 
z
M 1403 2484 
Q 997 2584 770 2862 
Q 544 3141 544 3541 
Q 544 4100 942 4425 
Q 1341 4750 2034 4750 
Q 2731 4750 3128 4425 
Q 3525 4100 3525 3541 
Q 3525 3141 3298 2862 
Q 3072 2584 2669 2484 
Q 3125 2378 3379 2068 
Q 3634 1759 3634 1313 
Q 3634 634 3220 271 
Q 2806 -91 2034 -91 
Q 1263 -91 848 271 
Q 434 634 434 1313 
Q 434 1759 690 2068 
Q 947 2378 1403 2484 
z
M 1172 3481 
Q 1172 3119 1398 2916 
Q 1625 2713 2034 2713 
Q 2441 2713 2670 2916 
Q 2900 3119 2900 3481 
Q 2900 3844 2670 4047 
Q 2441 4250 2034 4250 
Q 1625 4250 1398 4047 
Q 1172 3844 1172 3481 
z
" transform="scale(0.015625)"/>
       </defs>
       <use xlink:href="#DejaVuSans-38"/>
      </g>
     </g>
    </g>
    <g id="xtick_6">
     <g id="line2d_11">
      <path d="M 960.691491 343.428873 
L 960.691491 10.788873 
" clip-path="url(#pea79e6f11c)" style="fill: none; stroke: #b0b0b0; stroke-width: 0.8; stroke-linecap: square"/>
     </g>
     <g id="line2d_12">
      <g>
       <use xlink:href="#m7488f54edc" x="960.691491" y="343.428873" style="stroke: #000000; stroke-width: 0.8"/>
      </g>
     </g>
     <g id="text_6">
      <!-- 10 -->
      <g transform="translate(949.238991 364.106061) scale(0.18 -0.18)">
       <defs>
        <path id="DejaVuSans-31" d="M 794 531 
L 1825 531 
L 1825 4091 
L 703 3866 
L 703 4441 
L 1819 4666 
L 2450 4666 
L 2450 531 
L 3481 531 
L 3481 0 
L 794 0 
L 794 531 
z
" transform="scale(0.015625)"/>
       </defs>
       <use xlink:href="#DejaVuSans-31"/>
       <use xlink:href="#DejaVuSans-30" x="63.623047"/>
      </g>
     </g>
    </g>
    <g id="xtick_7">
     <g id="line2d_13">
      <path d="M 1129.835084 343.428873 
L 1129.835084 10.788873 
" clip-path="url(#pea79e6f11c)" style="fill: none; stroke: #b0b0b0; stroke-width: 0.8; stroke-linecap: square"/>
     </g>
     <g id="line2d_14">
      <g>
       <use xlink:href="#m7488f54edc" x="1129.835084" y="343.428873" style="stroke: #000000; stroke-width: 0.8"/>
      </g>
     </g>
     <g id="text_7">
      <!-- 12 -->
      <g transform="translate(1118.382584 364.106061) scale(0.18 -0.18)">
       <use xlink:href="#DejaVuSans-31"/>
       <use xlink:href="#DejaVuSans-32" x="63.623047"/>
      </g>
     </g>
    </g>
    <g id="text_8">
     <!-- $t$ [ms] -->
     <g transform="translate(595.33625 385.526686) scale(0.18 -0.18)">
      <defs>
       <path id="DejaVuSans-Oblique-74" d="M 2706 3500 
L 2619 3053 
L 1472 3053 
L 1100 1153 
Q 1081 1047 1072 975 
Q 1063 903 1063 863 
Q 1063 663 1183 572 
Q 1303 481 1569 481 
L 2150 481 
L 2053 0 
L 1503 0 
Q 991 0 739 200 
Q 488 400 488 806 
Q 488 878 497 964 
Q 506 1050 525 1153 
L 897 3053 
L 409 3053 
L 500 3500 
L 978 3500 
L 1172 4494 
L 1747 4494 
L 1556 3500 
L 2706 3500 
z
" transform="scale(0.015625)"/>
       <path id="DejaVuSans-20" transform="scale(0.015625)"/>
       <path id="DejaVuSans-5b" d="M 550 4863 
L 1875 4863 
L 1875 4416 
L 1125 4416 
L 1125 -397 
L 1875 -397 
L 1875 -844 
L 550 -844 
L 550 4863 
z
" transform="scale(0.015625)"/>
       <path id="DejaVuSans-6d" d="M 3328 2828 
Q 3544 3216 3844 3400 
Q 4144 3584 4550 3584 
Q 5097 3584 5394 3201 
Q 5691 2819 5691 2113 
L 5691 0 
L 5113 0 
L 5113 2094 
Q 5113 2597 4934 2840 
Q 4756 3084 4391 3084 
Q 3944 3084 3684 2787 
Q 3425 2491 3425 1978 
L 3425 0 
L 2847 0 
L 2847 2094 
Q 2847 2600 2669 2842 
Q 2491 3084 2119 3084 
Q 1678 3084 1418 2786 
Q 1159 2488 1159 1978 
L 1159 0 
L 581 0 
L 581 3500 
L 1159 3500 
L 1159 2956 
Q 1356 3278 1631 3431 
Q 1906 3584 2284 3584 
Q 2666 3584 2933 3390 
Q 3200 3197 3328 2828 
z
" transform="scale(0.015625)"/>
       <path id="DejaVuSans-73" d="M 2834 3397 
L 2834 2853 
Q 2591 2978 2328 3040 
Q 2066 3103 1784 3103 
Q 1356 3103 1142 2972 
Q 928 2841 928 2578 
Q 928 2378 1081 2264 
Q 1234 2150 1697 2047 
L 1894 2003 
Q 2506 1872 2764 1633 
Q 3022 1394 3022 966 
Q 3022 478 2636 193 
Q 2250 -91 1575 -91 
Q 1294 -91 989 -36 
Q 684 19 347 128 
L 347 722 
Q 666 556 975 473 
Q 1284 391 1588 391 
Q 1994 391 2212 530 
Q 2431 669 2431 922 
Q 2431 1156 2273 1281 
Q 2116 1406 1581 1522 
L 1381 1569 
Q 847 1681 609 1914 
Q 372 2147 372 2553 
Q 372 3047 722 3315 
Q 1072 3584 1716 3584 
Q 2034 3584 2315 3537 
Q 2597 3491 2834 3397 
z
" transform="scale(0.015625)"/>
       <path id="DejaVuSans-5d" d="M 1947 4863 
L 1947 -844 
L 622 -844 
L 622 -397 
L 1369 -397 
L 1369 4416 
L 622 4416 
L 622 4863 
L 1947 4863 
z
" transform="scale(0.015625)"/>
      </defs>
      <use xlink:href="#DejaVuSans-Oblique-74" transform="translate(0 0.015625)"/>
      <use xlink:href="#DejaVuSans-20" transform="translate(39.208984 0.015625)"/>
      <use xlink:href="#DejaVuSans-5b" transform="translate(70.996094 0.015625)"/>
      <use xlink:href="#DejaVuSans-6d" transform="translate(110.009766 0.015625)"/>
      <use xlink:href="#DejaVuSans-73" transform="translate(207.421875 0.015625)"/>
      <use xlink:href="#DejaVuSans-5d" transform="translate(259.521484 0.015625)"/>
     </g>
    </g>
   </g>
   <g id="matplotlib.axis_2">
    <g id="ytick_1">
     <g id="line2d_15">
      <path d="M 64.24625 330.012095 
L 1180.24625 330.012095 
" clip-path="url(#pea79e6f11c)" style="fill: none; stroke: #b0b0b0; stroke-width: 0.8; stroke-linecap: square"/>
     </g>
     <g id="line2d_16">
      <defs>
       <path id="m75122cf857" d="M 0 0 
L -3.5 0 
" style="stroke: #000000; stroke-width: 0.8"/>
      </defs>
      <g>
       <use xlink:href="#m75122cf857" x="64.24625" y="330.012095" style="stroke: #000000; stroke-width: 0.8"/>
      </g>
     </g>
     <g id="text_9">
      <!-- 0.0 -->
      <g transform="translate(28.620625 336.850689) scale(0.18 -0.18)">
       <defs>
        <path id="DejaVuSans-2e" d="M 684 794 
L 1344 794 
L 1344 0 
L 684 0 
L 684 794 
z
" transform="scale(0.015625)"/>
       </defs>
       <use xlink:href="#DejaVuSans-30"/>
       <use xlink:href="#DejaVuSans-2e" x="63.623047"/>
       <use xlink:href="#DejaVuSans-30" x="95.410156"/>
      </g>
     </g>
    </g>
    <g id="ytick_2">
     <g id="line2d_17">
      <path d="M 64.24625 289.078457 
L 1180.24625 289.078457 
" clip-path="url(#pea79e6f11c)" style="fill: none; stroke: #b0b0b0; stroke-width: 0.8; stroke-linecap: square"/>
     </g>
     <g id="line2d_18">
      <g>
       <use xlink:href="#m75122cf857" x="64.24625" y="289.078457" style="stroke: #000000; stroke-width: 0.8"/>
      </g>
     </g>
     <g id="text_10">
      <!-- 0.5 -->
      <g transform="translate(28.620625 295.91705) scale(0.18 -0.18)">
       <defs>
        <path id="DejaVuSans-35" d="M 691 4666 
L 3169 4666 
L 3169 4134 
L 1269 4134 
L 1269 2991 
Q 1406 3038 1543 3061 
Q 1681 3084 1819 3084 
Q 2600 3084 3056 2656 
Q 3513 2228 3513 1497 
Q 3513 744 3044 326 
Q 2575 -91 1722 -91 
Q 1428 -91 1123 -41 
Q 819 9 494 109 
L 494 744 
Q 775 591 1075 516 
Q 1375 441 1709 441 
Q 2250 441 2565 725 
Q 2881 1009 2881 1497 
Q 2881 1984 2565 2268 
Q 2250 2553 1709 2553 
Q 1456 2553 1204 2497 
Q 953 2441 691 2322 
L 691 4666 
z
" transform="scale(0.015625)"/>
       </defs>
       <use xlink:href="#DejaVuSans-30"/>
       <use xlink:href="#DejaVuSans-2e" x="63.623047"/>
       <use xlink:href="#DejaVuSans-35" x="95.410156"/>
      </g>
     </g>
    </g>
    <g id="ytick_3">
     <g id="line2d_19">
      <path d="M 64.24625 248.144818 
L 1180.24625 248.144818 
" clip-path="url(#pea79e6f11c)" style="fill: none; stroke: #b0b0b0; stroke-width: 0.8; stroke-linecap: square"/>
     </g>
     <g id="line2d_20">
      <g>
       <use xlink:href="#m75122cf857" x="64.24625" y="248.144818" style="stroke: #000000; stroke-width: 0.8"/>
      </g>
     </g>
     <g id="text_11">
      <!-- 1.0 -->
      <g transform="translate(28.620625 254.983412) scale(0.18 -0.18)">
       <use xlink:href="#DejaVuSans-31"/>
       <use xlink:href="#DejaVuSans-2e" x="63.623047"/>
       <use xlink:href="#DejaVuSans-30" x="95.410156"/>
      </g>
     </g>
    </g>
    <g id="ytick_4">
     <g id="line2d_21">
      <path d="M 64.24625 207.21118 
L 1180.24625 207.21118 
" clip-path="url(#pea79e6f11c)" style="fill: none; stroke: #b0b0b0; stroke-width: 0.8; stroke-linecap: square"/>
     </g>
     <g id="line2d_22">
      <g>
       <use xlink:href="#m75122cf857" x="64.24625" y="207.21118" style="stroke: #000000; stroke-width: 0.8"/>
      </g>
     </g>
     <g id="text_12">
      <!-- 1.5 -->
      <g transform="translate(28.620625 214.049774) scale(0.18 -0.18)">
       <use xlink:href="#DejaVuSans-31"/>
       <use xlink:href="#DejaVuSans-2e" x="63.623047"/>
       <use xlink:href="#DejaVuSans-35" x="95.410156"/>
      </g>
     </g>
    </g>
    <g id="ytick_5">
     <g id="line2d_23">
      <path d="M 64.24625 166.277542 
L 1180.24625 166.277542 
" clip-path="url(#pea79e6f11c)" style="fill: none; stroke: #b0b0b0; stroke-width: 0.8; stroke-linecap: square"/>
     </g>
     <g id="line2d_24">
      <g>
       <use xlink:href="#m75122cf857" x="64.24625" y="166.277542" style="stroke: #000000; stroke-width: 0.8"/>
      </g>
     </g>
     <g id="text_13">
      <!-- 2.0 -->
      <g transform="translate(28.620625 173.116135) scale(0.18 -0.18)">
       <use xlink:href="#DejaVuSans-32"/>
       <use xlink:href="#DejaVuSans-2e" x="63.623047"/>
       <use xlink:href="#DejaVuSans-30" x="95.410156"/>
      </g>
     </g>
    </g>
    <g id="ytick_6">
     <g id="line2d_25">
      <path d="M 64.24625 125.343903 
L 1180.24625 125.343903 
" clip-path="url(#pea79e6f11c)" style="fill: none; stroke: #b0b0b0; stroke-width: 0.8; stroke-linecap: square"/>
     </g>
     <g id="line2d_26">
      <g>
       <use xlink:href="#m75122cf857" x="64.24625" y="125.343903" style="stroke: #000000; stroke-width: 0.8"/>
      </g>
     </g>
     <g id="text_14">
      <!-- 2.5 -->
      <g transform="translate(28.620625 132.182497) scale(0.18 -0.18)">
       <use xlink:href="#DejaVuSans-32"/>
       <use xlink:href="#DejaVuSans-2e" x="63.623047"/>
       <use xlink:href="#DejaVuSans-35" x="95.410156"/>
      </g>
     </g>
    </g>
    <g id="ytick_7">
     <g id="line2d_27">
      <path d="M 64.24625 84.410265 
L 1180.24625 84.410265 
" clip-path="url(#pea79e6f11c)" style="fill: none; stroke: #b0b0b0; stroke-width: 0.8; stroke-linecap: square"/>
     </g>
     <g id="line2d_28">
      <g>
       <use xlink:href="#m75122cf857" x="64.24625" y="84.410265" style="stroke: #000000; stroke-width: 0.8"/>
      </g>
     </g>
     <g id="text_15">
      <!-- 3.0 -->
      <g transform="translate(28.620625 91.248859) scale(0.18 -0.18)">
       <defs>
        <path id="DejaVuSans-33" d="M 2597 2516 
Q 3050 2419 3304 2112 
Q 3559 1806 3559 1356 
Q 3559 666 3084 287 
Q 2609 -91 1734 -91 
Q 1441 -91 1130 -33 
Q 819 25 488 141 
L 488 750 
Q 750 597 1062 519 
Q 1375 441 1716 441 
Q 2309 441 2620 675 
Q 2931 909 2931 1356 
Q 2931 1769 2642 2001 
Q 2353 2234 1838 2234 
L 1294 2234 
L 1294 2753 
L 1863 2753 
Q 2328 2753 2575 2939 
Q 2822 3125 2822 3475 
Q 2822 3834 2567 4026 
Q 2313 4219 1838 4219 
Q 1578 4219 1281 4162 
Q 984 4106 628 3988 
L 628 4550 
Q 988 4650 1302 4700 
Q 1616 4750 1894 4750 
Q 2613 4750 3031 4423 
Q 3450 4097 3450 3541 
Q 3450 3153 3228 2886 
Q 3006 2619 2597 2516 
z
" transform="scale(0.015625)"/>
       </defs>
       <use xlink:href="#DejaVuSans-33"/>
       <use xlink:href="#DejaVuSans-2e" x="63.623047"/>
       <use xlink:href="#DejaVuSans-30" x="95.410156"/>
      </g>
     </g>
    </g>
    <g id="ytick_8">
     <g id="line2d_29">
      <path d="M 64.24625 43.476626 
L 1180.24625 43.476626 
" clip-path="url(#pea79e6f11c)" style="fill: none; stroke: #b0b0b0; stroke-width: 0.8; stroke-linecap: square"/>
     </g>
     <g id="line2d_30">
      <g>
       <use xlink:href="#m75122cf857" x="64.24625" y="43.476626" style="stroke: #000000; stroke-width: 0.8"/>
      </g>
     </g>
     <g id="text_16">
      <!-- 3.5 -->
      <g transform="translate(28.620625 50.31522) scale(0.18 -0.18)">
       <use xlink:href="#DejaVuSans-33"/>
       <use xlink:href="#DejaVuSans-2e" x="63.623047"/>
       <use xlink:href="#DejaVuSans-35" x="95.410156"/>
      </g>
     </g>
    </g>
    <g id="text_17">
     <!-- $R/R_E$ [-] -->
     <g style="fill: #0000ff" transform="translate(20.877188 210.048873) rotate(-90) scale(0.18 -0.18)">
      <defs>
       <path id="DejaVuSans-Oblique-52" d="M 1613 4147 
L 1294 2491 
L 2106 2491 
Q 2584 2491 2879 2755 
Q 3175 3019 3175 3444 
Q 3175 3784 2976 3965 
Q 2778 4147 2406 4147 
L 1613 4147 
z
M 2772 2241 
Q 2972 2194 3105 2009 
Q 3238 1825 3413 1275 
L 3809 0 
L 3144 0 
L 2778 1197 
Q 2638 1659 2453 1815 
Q 2269 1972 1888 1972 
L 1191 1972 
L 806 0 
L 172 0 
L 1081 4666 
L 2503 4666 
Q 3150 4666 3495 4373 
Q 3841 4081 3841 3531 
Q 3841 3044 3547 2687 
Q 3253 2331 2772 2241 
z
" transform="scale(0.015625)"/>
       <path id="DejaVuSans-2f" d="M 1625 4666 
L 2156 4666 
L 531 -594 
L 0 -594 
L 1625 4666 
z
" transform="scale(0.015625)"/>
       <path id="DejaVuSans-Oblique-45" d="M 1081 4666 
L 4031 4666 
L 3928 4134 
L 1606 4134 
L 1338 2753 
L 3566 2753 
L 3463 2222 
L 1234 2222 
L 909 531 
L 3284 531 
L 3181 0 
L 172 0 
L 1081 4666 
z
" transform="scale(0.015625)"/>
       <path id="DejaVuSans-2d" d="M 313 2009 
L 1997 2009 
L 1997 1497 
L 313 1497 
L 313 2009 
z
" transform="scale(0.015625)"/>
      </defs>
      <use xlink:href="#DejaVuSans-Oblique-52" transform="translate(0 0.015625)"/>
      <use xlink:href="#DejaVuSans-2f" transform="translate(69.482422 0.015625)"/>
      <use xlink:href="#DejaVuSans-Oblique-52" transform="translate(103.173828 0.015625)"/>
      <use xlink:href="#DejaVuSans-Oblique-45" transform="translate(172.65625 -16.390625) scale(0.7)"/>
      <use xlink:href="#DejaVuSans-20" transform="translate(219.619141 0.015625)"/>
      <use xlink:href="#DejaVuSans-5b" transform="translate(251.40625 0.015625)"/>
      <use xlink:href="#DejaVuSans-2d" transform="translate(290.419922 0.015625)"/>
      <use xlink:href="#DejaVuSans-5d" transform="translate(326.503906 0.015625)"/>
     </g>
    </g>
   </g>
   <g id="line2d_31">
    <path d="M 114.973523 248.144818 
L 115.248774 248.039726 
L 115.439526 247.667773 
L 115.669155 246.63102 
L 115.956599 244.101299 
L 116.322599 238.550144 
L 116.800892 227.510065 
L 117.598394 202.947201 
L 119.030021 158.942866 
L 119.696099 144.780873 
L 120.226814 137.670177 
L 120.640369 134.769247 
L 120.915318 134.050038 
L 121.076122 134.040025 
L 121.236925 134.306571 
L 121.504932 135.293544 
L 121.933741 137.953034 
L 123.050922 146.968629 
L 124.709138 161.896498 
L 126.177429 177.094764 
L 127.480769 192.865943 
L 128.60603 209.144303 
L 129.571596 226.384219 
L 130.355426 244.482842 
L 130.94967 263.48274 
L 131.359088 283.881691 
L 131.584926 306.597334 
L 131.639219 328.308873 
L 131.715031 310.161959 
L 131.982972 292.659593 
L 132.437654 277.321149 
L 133.078491 263.131994 
L 133.909976 249.653687 
L 134.899931 237.111878 
L 136.096133 224.77893 
L 137.471879 212.928466 
L 138.988995 201.756395 
L 140.64534 191.135319 
L 142.486739 180.728515 
L 144.540716 170.422442 
L 146.738708 160.561146 
L 148.965864 151.539604 
L 151.420027 142.510788 
L 154.049488 133.70845 
L 156.835408 125.199778 
L 159.703866 117.179993 
L 162.611895 109.706417 
L 165.770123 102.238618 
L 168.76472 95.705452 
L 172.042711 89.095294 
L 175.136977 83.321219 
L 178.609888 77.326343 
L 181.748773 72.311188 
L 185.374088 66.955 
L 188.638829 62.501476 
L 191.888134 58.392842 
L 195.742191 53.911253 
L 199.311935 50.116455 
L 202.846833 46.677121 
L 206.654184 43.309072 
L 209.903371 40.698305 
L 213.760456 37.901023 
L 217.498735 35.491141 
L 220.758184 33.623942 
L 224.482957 31.749418 
L 228.207729 30.144503 
L 231.932501 28.80317 
L 235.211448 27.836599 
L 239.32717 26.902965 
L 242.875517 26.345013 
L 245.930929 26.046329 
L 249.597978 25.908873 
L 252.899676 25.991029 
L 256.465417 26.299136 
L 260.559245 26.935035 
L 264.653073 27.875091 
L 268.746901 29.12324 
L 272.603674 30.585735 
L 275.986336 32.101886 
L 279.368998 33.841034 
L 282.75166 35.808671 
L 286.134322 38.011213 
L 289.885927 40.737784 
L 293.637533 43.774328 
L 297.602776 47.336145 
L 301.064742 50.75674 
L 304.565774 54.526634 
L 308.382958 59.014207 
L 312.200141 63.922238 
L 315.365333 68.334177 
L 318.530524 73.079929 
L 321.695715 78.185579 
L 324.834699 83.63482 
L 327.973683 89.504463 
L 331.273858 96.176802 
L 334.340561 102.891396 
L 337.381527 110.10186 
L 340.36192 117.776789 
L 343.14348 125.565415 
L 345.818372 133.719179 
L 348.493263 142.641944 
L 350.954813 151.668557 
L 353.293507 161.12959 
L 355.462278 170.860627 
L 357.523539 181.194802 
L 359.363596 191.582612 
L 361.081218 202.606418 
L 362.61498 213.951764 
L 363.941613 225.415064 
L 365.113152 237.470135 
L 366.099474 249.892718 
L 366.921272 263.064752 
L 367.564051 277.00356 
L 368.02138 291.821337 
L 368.297628 308.152182 
L 368.396975 327.767338 
L 368.467058 313.747819 
L 368.727407 298.847713 
L 369.17824 285.645621 
L 369.817115 273.391625 
L 370.647221 261.746035 
L 371.63709 250.905261 
L 372.816785 240.395455 
L 374.186364 230.211105 
L 375.695376 220.641318 
L 377.371729 211.421542 
L 379.169293 202.73701 
L 381.171257 194.167035 
L 383.332046 185.925752 
L 385.596765 178.178469 
L 387.87079 171.144732 
L 390.396766 164.057296 
L 393.076671 157.240482 
L 395.620154 151.342442 
L 398.3292 145.592007 
L 401.163301 140.092602 
L 403.879893 135.262476 
L 406.761015 130.564217 
L 409.564332 126.374222 
L 412.367649 122.529298 
L 415.63256 118.452468 
L 418.490874 115.212767 
L 421.648279 111.968017 
L 424.874339 108.993558 
L 427.848788 106.540139 
L 430.823237 104.351205 
L 434.108671 102.228202 
L 437.446009 100.376673 
L 440.54682 98.922917 
L 443.113664 97.90877 
L 446.488402 96.830743 
L 449.120732 96.187913 
L 451.955612 95.687183 
L 454.790493 95.383368 
L 457.74768 95.27511 
L 461.160944 95.414522 
L 464.102098 95.762347 
L 467.117938 96.339252 
L 469.816755 97.046411 
L 472.685257 97.998321 
L 476.050875 99.383061 
L 479.261434 100.979887 
L 482.66954 102.978627 
L 485.704128 105.030635 
L 488.621146 107.254404 
L 491.952732 110.108941 
L 495.044641 113.073699 
L 498.136549 116.36013 
L 501.443323 120.254581 
L 504.176976 123.791541 
L 507.274608 128.17469 
L 510.001032 132.390209 
L 513.019367 137.485644 
L 515.754974 142.533543 
L 518.607368 148.284102 
L 521.372776 154.396363 
L 523.845991 160.374914 
L 526.375407 167.067819 
L 528.696761 173.8117 
L 531.013535 181.225172 
L 533.228226 189.084298 
L 535.314269 197.342597 
L 537.194433 205.68594 
L 538.963707 214.548112 
L 540.577243 223.770652 
L 542.008948 233.213428 
L 543.305686 243.242586 
L 544.443023 253.806026 
L 545.406484 264.892145 
L 546.183267 276.45006 
L 546.775459 288.607416 
L 547.187198 301.689007 
L 547.418322 316.270881 
L 547.477265 325.848434 
L 547.536356 317.043513 
L 547.784651 303.150348 
L 548.217043 291.112508 
L 548.84572 279.754553 
L 549.647175 269.196601 
L 550.631351 259.099631 
L 551.799997 249.385939 
L 553.121659 240.223848 
L 554.63314 231.30582 
L 556.285219 222.883007 
L 558.064127 214.939085 
L 559.976077 207.384726 
L 562.061671 200.048823 
L 564.286674 193.051837 
L 566.559128 186.625821 
L 569.039575 180.301373 
L 571.56367 174.490422 
L 574.199989 168.998111 
L 576.978863 163.763863 
L 579.685764 159.148191 
L 582.40089 154.946544 
L 585.171827 151.058802 
L 587.938235 147.5465 
L 590.704643 144.37481 
L 593.548585 141.444894 
L 596.488951 138.746155 
L 599.255592 136.496762 
L 601.936692 134.572278 
L 604.615436 132.890324 
L 607.275197 131.450169 
L 610.375418 130.051588 
L 612.855594 129.14422 
L 615.692659 128.331899 
L 618.529724 127.756498 
L 621.656032 127.393464 
L 624.073074 127.306207 
L 626.995188 127.425396 
L 629.917302 127.791079 
L 632.839417 128.405044 
L 635.418656 129.15569 
L 638.629059 130.368193 
L 641.839462 131.896501 
L 644.64667 133.499525 
L 647.319479 135.265005 
L 650.381072 137.585539 
L 653.349169 140.153727 
L 656.12499 142.855053 
L 658.692227 145.626428 
L 661.649906 149.16657 
L 664.607585 153.107706 
L 667.318838 157.104535 
L 669.969273 161.401771 
L 672.595289 166.080416 
L 675.24038 171.267605 
L 677.885471 176.996322 
L 680.2799 182.720044 
L 682.717566 189.161566 
L 684.941508 195.679581 
L 687.029841 202.4723 
L 688.975364 209.517829 
L 690.847962 217.117204 
L 692.605949 225.190658 
L 694.224461 233.693981 
L 695.66052 242.424933 
L 696.951162 251.645579 
L 698.091178 261.444927 
L 699.022711 271.347674 
L 699.803128 282.037239 
L 700.400673 293.340407 
L 700.815581 305.510436 
L 701.052602 319.248585 
L 701.103965 323.713803 
L 701.160822 319.028708 
L 701.425269 305.793074 
L 701.868719 294.616168 
L 702.507144 284.081871 
L 703.316309 274.28196 
L 704.3068 264.900977 
L 705.479174 255.883177 
L 706.82978 247.222436 
L 708.309488 239.141948 
L 709.965179 231.323161 
L 711.772729 223.866803 
L 713.682383 216.918064 
L 715.716712 210.337412 
L 717.926611 203.959766 
L 720.259416 197.940777 
L 722.585461 192.549068 
L 724.878097 187.744066 
L 727.375159 183.010655 
L 729.856921 178.761845 
L 732.549284 174.609598 
L 735.112282 171.055338 
L 737.872368 167.623203 
L 740.344017 164.870666 
L 743.125777 162.109806 
L 745.877621 159.707988 
L 748.756687 157.525755 
L 751.252085 155.894756 
L 753.7219 154.509134 
L 756.10433 153.38124 
L 759.004085 152.277241 
L 761.68187 151.513815 
L 764.359655 150.991784 
L 767.03744 150.708222 
L 769.305155 150.653345 
L 771.702558 150.779761 
L 774.418365 151.152628 
L 776.807359 151.683846 
L 779.196352 152.40762 
L 782.093572 153.548352 
L 784.702687 154.828248 
L 787.311801 156.354873 
L 789.810227 158.056141 
L 792.518179 160.175761 
L 795.226131 162.59647 
L 798.03089 165.440226 
L 800.711887 168.500691 
L 803.328408 171.835291 
L 805.775553 175.291365 
L 808.467499 179.506393 
L 810.860339 183.655491 
L 813.253179 188.229188 
L 815.740451 193.494214 
L 817.971882 198.727788 
L 820.317892 204.840906 
L 822.404079 210.903338 
L 824.496004 217.704839 
L 826.420412 224.757092 
L 828.165227 231.993301 
L 829.787808 239.665809 
L 831.260949 247.699344 
L 832.585298 256.149313 
L 833.759259 265.092065 
L 834.774999 274.599017 
L 835.597575 284.421507 
L 836.242584 294.800736 
L 836.714312 306.057374 
L 837.036809 319.415081 
L 837.090549 320.945161 
L 837.146507 319.367397 
L 837.596693 303.94963 
L 838.140777 293.754751 
L 838.872294 284.125761 
L 839.799303 274.847777 
L 840.911208 265.984683 
L 842.170364 257.714491 
L 843.613215 249.723132 
L 845.224065 242.085766 
L 846.967903 234.915888 
L 848.818872 228.241442 
L 850.742154 222.100167 
L 852.836614 216.148408 
L 855.046284 210.550031 
L 857.37215 205.286454 
L 859.704079 200.55976 
L 862.210497 196.010281 
L 864.655255 192.03821 
L 867.236491 188.288245 
L 869.682567 185.114777 
L 872.100256 182.310797 
L 874.517945 179.813313 
L 877.138464 177.42965 
L 879.741992 175.37491 
L 882.20764 173.702253 
L 884.723514 172.257667 
L 887.32866 171.030711 
L 889.947179 170.064758 
L 892.120191 169.46192 
L 894.498982 169.005219 
L 896.877774 168.758558 
L 899.256565 168.72059 
L 901.635357 168.891054 
L 904.253523 169.320633 
L 906.871689 170.006355 
L 909.489856 170.952548 
L 912.164409 172.194472 
L 914.537656 173.536449 
L 916.96314 175.149452 
L 919.39443 177.021458 
L 921.82572 179.161417 
L 924.257011 181.584561 
L 926.688301 184.309433 
L 929.119591 187.358676 
L 931.680162 190.951483 
L 934.033782 194.633258 
L 936.492766 198.91229 
L 938.720883 203.218818 
L 940.941577 207.974133 
L 943.166052 213.273845 
L 945.230208 218.756972 
L 947.277954 224.843291 
L 949.137254 231.053433 
L 950.923785 237.791655 
L 952.562123 244.827961 
L 954.068602 252.263567 
L 955.465207 260.306306 
L 956.690206 268.694159 
L 957.734972 277.383011 
L 958.626688 286.687647 
L 959.343769 296.54711 
L 959.896994 307.293895 
L 960.346577 317.486581 
L 960.413095 316.961571 
L 960.626421 312.089439 
L 961.196985 300.868544 
L 961.90769 291.30267 
L 962.791019 282.330514 
L 963.864331 273.68806 
L 965.08103 265.654714 
L 966.485936 257.867744 
L 968.041071 250.515918 
L 969.736107 243.587898 
L 971.491532 237.30588 
L 973.45032 231.125933 
L 975.476089 225.468626 
L 977.540628 220.330414 
L 979.722021 215.476967 
L 981.952277 211.03654 
L 984.198389 207.027358 
L 986.651574 203.115521 
L 989.100768 199.643603 
L 991.434386 196.699602 
L 993.850632 193.994166 
L 996.227234 191.64844 
L 998.509807 189.671172 
L 1000.972578 187.823865 
L 1003.553545 186.190904 
L 1006.08565 184.877322 
L 1008.532623 183.869845 
L 1010.77087 183.167736 
L 1013.295656 182.622296 
L 1015.318446 182.371382 
L 1018.056047 182.29326 
L 1019.998906 182.41988 
L 1022.665829 182.840765 
L 1025.337684 183.552059 
L 1027.865864 184.496899 
L 1030.176594 185.597322 
L 1032.793194 187.125224 
L 1035.409794 188.96449 
L 1037.757721 190.892904 
L 1040.360297 193.355634 
L 1042.962872 196.183657 
L 1045.476091 199.289576 
L 1047.989309 202.798553 
L 1050.431139 206.635094 
L 1052.834062 210.871659 
L 1055.136298 215.41868 
L 1057.406589 220.443154 
L 1059.583489 225.854017 
L 1061.669093 231.692236 
L 1063.61054 237.833108 
L 1065.397931 244.242444 
L 1067.082231 251.136904 
L 1068.617062 258.380502 
L 1070.019185 266.107276 
L 1071.22212 273.956105 
L 1072.297255 282.425053 
L 1073.234186 291.62832 
L 1074.022201 301.644217 
L 1074.936151 313.601512 
L 1074.951384 313.59194 
L 1075.028141 313.326979 
L 1075.203752 311.679252 
L 1077.278286 287.759557 
L 1078.380309 279.108968 
L 1079.612339 271.159241 
L 1081.0185 263.53445 
L 1082.575788 256.33196 
L 1084.283637 249.513019 
L 1086.127433 243.09979 
L 1088.017608 237.317786 
L 1090.098108 231.693276 
L 1092.086245 226.913634 
L 1094.348159 222.067939 
L 1096.631121 217.723223 
L 1098.934606 213.821553 
L 1101.154941 210.466061 
L 1103.562786 207.230571 
L 1105.890336 204.465769 
L 1108.19916 202.047213 
L 1110.737161 199.734426 
L 1113.099427 197.887088 
L 1115.459026 196.320018 
L 1117.875145 194.990773 
L 1120.315082 193.920744 
L 1122.46578 193.197939 
L 1124.714054 192.658327 
L 1126.962862 192.336142 
L 1128.81686 192.232689 
L 1129.518977 192.23164 
L 1129.518977 192.23164 
" clip-path="url(#pea79e6f11c)" style="fill: none; stroke: #0000ff; stroke-linecap: square"/>
   </g>
   <g id="patch_3">
    <path d="M 64.24625 343.428873 
L 64.24625 10.788873 
" style="fill: none; stroke: #000000; stroke-width: 0.8; stroke-linejoin: miter; stroke-linecap: square"/>
   </g>
   <g id="patch_4">
    <path d="M 1180.24625 343.428873 
L 1180.24625 10.788873 
" style="fill: none; stroke: #000000; stroke-width: 0.8; stroke-linejoin: miter; stroke-linecap: square"/>
   </g>
   <g id="patch_5">
    <path d="M 64.24625 343.428873 
L 1180.24625 343.428873 
" style="fill: none; stroke: #000000; stroke-width: 0.8; stroke-linejoin: miter; stroke-linecap: square"/>
   </g>
   <g id="patch_6">
    <path d="M 64.24625 10.788873 
L 1180.24625 10.788873 
" style="fill: none; stroke: #000000; stroke-width: 0.8; stroke-linejoin: miter; stroke-linecap: square"/>
   </g>
  </g>
  <g id="axes_2">
   <g id="matplotlib.axis_3">
    <g id="ytick_9">
     <g id="line2d_32">
      <defs>
       <path id="m32ce577546" d="M 0 0 
L 3.5 0 
" style="stroke: #000000; stroke-width: 0.8"/>
      </defs>
      <g>
       <use xlink:href="#m32ce577546" x="1180.24625" y="342.581944" style="stroke: #000000; stroke-width: 0.8"/>
      </g>
     </g>
     <g id="text_18">
      <!-- 0 -->
      <g transform="translate(1187.24625 349.420537) scale(0.18 -0.18)">
       <use xlink:href="#DejaVuSans-30"/>
      </g>
     </g>
    </g>
    <g id="ytick_10">
     <g id="line2d_33">
      <g>
       <use xlink:href="#m32ce577546" x="1180.24625" y="276.873274" style="stroke: #000000; stroke-width: 0.8"/>
      </g>
     </g>
     <g id="text_19">
      <!-- 1000 -->
      <g transform="translate(1187.24625 283.711867) scale(0.18 -0.18)">
       <use xlink:href="#DejaVuSans-31"/>
       <use xlink:href="#DejaVuSans-30" x="63.623047"/>
       <use xlink:href="#DejaVuSans-30" x="127.246094"/>
       <use xlink:href="#DejaVuSans-30" x="190.869141"/>
      </g>
     </g>
    </g>
    <g id="ytick_11">
     <g id="line2d_34">
      <g>
       <use xlink:href="#m32ce577546" x="1180.24625" y="211.164604" style="stroke: #000000; stroke-width: 0.8"/>
      </g>
     </g>
     <g id="text_20">
      <!-- 2000 -->
      <g transform="translate(1187.24625 218.003197) scale(0.18 -0.18)">
       <use xlink:href="#DejaVuSans-32"/>
       <use xlink:href="#DejaVuSans-30" x="63.623047"/>
       <use xlink:href="#DejaVuSans-30" x="127.246094"/>
       <use xlink:href="#DejaVuSans-30" x="190.869141"/>
      </g>
     </g>
    </g>
    <g id="ytick_12">
     <g id="line2d_35">
      <g>
       <use xlink:href="#m32ce577546" x="1180.24625" y="145.455934" style="stroke: #000000; stroke-width: 0.8"/>
      </g>
     </g>
     <g id="text_21">
      <!-- 3000 -->
      <g transform="translate(1187.24625 152.294527) scale(0.18 -0.18)">
       <use xlink:href="#DejaVuSans-33"/>
       <use xlink:href="#DejaVuSans-30" x="63.623047"/>
       <use xlink:href="#DejaVuSans-30" x="127.246094"/>
       <use xlink:href="#DejaVuSans-30" x="190.869141"/>
      </g>
     </g>
    </g>
    <g id="ytick_13">
     <g id="line2d_36">
      <g>
       <use xlink:href="#m32ce577546" x="1180.24625" y="79.747264" style="stroke: #000000; stroke-width: 0.8"/>
      </g>
     </g>
     <g id="text_22">
      <!-- 4000 -->
      <g transform="translate(1187.24625 86.585857) scale(0.18 -0.18)">
       <use xlink:href="#DejaVuSans-34"/>
       <use xlink:href="#DejaVuSans-30" x="63.623047"/>
       <use xlink:href="#DejaVuSans-30" x="127.246094"/>
       <use xlink:href="#DejaVuSans-30" x="190.869141"/>
      </g>
     </g>
    </g>
    <g id="ytick_14">
     <g id="line2d_37">
      <g>
       <use xlink:href="#m32ce577546" x="1180.24625" y="14.038594" style="stroke: #000000; stroke-width: 0.8"/>
      </g>
     </g>
     <g id="text_23">
      <!-- 5000 -->
      <g transform="translate(1187.24625 20.877187) scale(0.18 -0.18)">
       <use xlink:href="#DejaVuSans-35"/>
       <use xlink:href="#DejaVuSans-30" x="63.623047"/>
       <use xlink:href="#DejaVuSans-30" x="127.246094"/>
       <use xlink:href="#DejaVuSans-30" x="190.869141"/>
      </g>
     </g>
    </g>
    <g id="text_24">
     <!-- $T$ [K] -->
     <g style="fill: #ff0000" transform="translate(1250.733437 198.438873) rotate(-90) scale(0.18 -0.18)">
      <defs>
       <path id="DejaVuSans-Oblique-54" d="M 378 4666 
L 4325 4666 
L 4225 4134 
L 2559 4134 
L 1759 0 
L 1125 0 
L 1925 4134 
L 275 4134 
L 378 4666 
z
" transform="scale(0.015625)"/>
       <path id="DejaVuSans-4b" d="M 628 4666 
L 1259 4666 
L 1259 2694 
L 3353 4666 
L 4166 4666 
L 1850 2491 
L 4331 0 
L 3500 0 
L 1259 2247 
L 1259 0 
L 628 0 
L 628 4666 
z
" transform="scale(0.015625)"/>
      </defs>
      <use xlink:href="#DejaVuSans-Oblique-54" transform="translate(0 0.015625)"/>
      <use xlink:href="#DejaVuSans-20" transform="translate(61.083984 0.015625)"/>
      <use xlink:href="#DejaVuSans-5b" transform="translate(92.871094 0.015625)"/>
      <use xlink:href="#DejaVuSans-4b" transform="translate(131.884766 0.015625)"/>
      <use xlink:href="#DejaVuSans-5d" transform="translate(197.460938 0.015625)"/>
     </g>
    </g>
   </g>
   <g id="line2d_38">
    <path d="M 114.973523 323.319447 
L 115.707427 323.429434 
L 116.884073 323.650916 
L 118.177114 323.521064 
L 120.770067 323.329975 
L 124.6228 323.275414 
L 129.219338 323.124668 
L 130.26025 322.89813 
L 130.728947 322.583521 
L 131.015929 322.112398 
L 131.226977 321.290276 
L 131.39043 319.633069 
L 131.513553 315.668004 
L 131.598842 303.627108 
L 131.633993 252.984037 
L 131.639244 25.908873 
L 131.739462 294.436693 
L 131.937422 319.510923 
L 132.146775 324.689348 
L 132.2921 325.100217 
L 132.310195 325.092588 
L 132.464844 324.853073 
L 132.968155 324.095182 
L 133.460604 323.797865 
L 134.279156 323.595666 
L 135.922483 323.456474 
L 140.241195 323.369791 
L 158.400022 323.329012 
L 365.301868 323.108046 
L 366.587253 322.87779 
L 367.178589 322.569123 
L 367.545857 322.123316 
L 367.808831 321.421449 
L 368.014437 320.166843 
L 368.177601 317.577093 
L 368.300955 311.324509 
L 368.373784 294.187493 
L 368.396551 201.895562 
L 368.396975 198.309435 
L 368.499988 322.52846 
L 368.669148 328.115476 
L 368.711013 328.205268 
L 368.767393 328.065787 
L 369.002882 326.549937 
L 369.364213 324.922971 
L 369.718591 324.270951 
L 370.164056 323.920196 
L 370.864058 323.682726 
L 372.127387 323.517402 
L 375.008391 323.405719 
L 384.275755 323.343372 
L 443.957349 323.320397 
L 542.137195 323.202869 
L 544.799112 323.011559 
L 545.785153 322.740321 
L 546.29706 322.380255 
L 546.631421 321.870207 
L 546.889214 321.035811 
L 547.096295 319.509347 
L 547.25916 316.374493 
L 547.386082 308.642634 
L 547.455683 287.447445 
L 547.477226 253.589802 
L 547.536356 313.984463 
L 547.695911 327.312578 
L 547.816729 328.308873 
L 547.852759 328.256644 
L 547.987445 327.561624 
L 548.476366 325.078588 
L 548.832877 324.369485 
L 549.265205 323.990802 
L 549.927046 323.733742 
L 551.0945 323.551463 
L 553.598057 323.426677 
L 560.836797 323.35333 
L 598.472392 323.322649 
L 695.53072 323.196806 
L 698.270894 322.997593 
L 699.270947 322.728135 
L 699.817753 322.360046 
L 700.172817 321.845426 
L 700.446935 321.014509 
L 700.662673 319.57764 
L 700.838585 316.690389 
L 700.978905 309.992468 
L 701.070672 293.048984 
L 701.103509 280.293024 
L 701.151152 305.480968 
L 701.313675 325.774368 
L 701.490631 328.058239 
L 701.526366 328.039844 
L 701.555834 327.971544 
L 701.740694 327.053809 
L 702.192486 325.087356 
L 702.566227 324.389828 
L 703.022655 324.006189 
L 703.681033 323.753718 
L 704.869679 323.564526 
L 707.362662 323.434551 
L 714.328785 323.356974 
L 747.855585 323.323204 
L 831.188323 323.193145 
L 834.017175 322.993285 
L 835.095573 322.714874 
L 835.662608 322.353819 
L 836.046312 321.838525 
L 836.337722 321.037358 
L 836.57269 319.665831 
L 836.766891 317.015272 
L 836.928565 311.139384 
L 837.085848 297.954116 
L 837.14008 305.253272 
L 837.350134 324.944893 
L 837.543815 327.477634 
L 837.596693 327.520262 
L 837.647699 327.445106 
L 837.83509 326.732304 
L 838.343341 324.962376 
L 838.742727 324.345672 
L 839.238631 323.986212 
L 839.982945 323.737042 
L 841.311483 323.55342 
L 844.178614 323.426117 
L 852.40377 323.352091 
L 894.498982 323.320313 
L 953.75616 323.198426 
L 956.880729 323.003784 
L 958.089844 322.727191 
L 958.72398 322.368122 
L 959.147338 321.868244 
L 959.466731 321.121568 
L 959.732486 319.870353 
L 959.961564 317.555231 
L 960.175027 312.715935 
L 960.312841 309.587419 
L 960.362266 310.34857 
L 960.531989 319.159924 
L 960.782766 325.921729 
L 960.975664 326.793687 
L 961.068997 326.709342 
L 961.312419 326.035156 
L 961.82827 324.783166 
L 962.269293 324.265418 
L 962.839244 323.937431 
L 963.754288 323.695188 
L 965.381422 323.523608 
L 969.018566 323.407184 
L 980.105062 323.342857 
L 1070.67146 323.051699 
L 1072.22171 322.791038 
L 1073.00295 322.452832 
L 1073.520469 321.984062 
L 1073.903941 321.317834 
L 1074.234753 320.253969 
L 1074.601067 318.188775 
L 1074.789939 317.436595 
L 1074.826171 317.484915 
L 1074.9166 318.05217 
L 1075.116608 321.176337 
L 1075.466959 325.499065 
L 1075.68045 326.053999 
L 1075.821873 325.983956 
L 1076.132552 325.444196 
L 1076.725556 324.543845 
L 1077.278286 324.11692 
L 1078.059449 323.821688 
L 1079.348797 323.608449 
L 1081.829553 323.461377 
L 1088.017608 323.370126 
L 1112.766324 323.325856 
L 1129.518977 323.319358 
L 1129.518977 323.319358 
" clip-path="url(#pea79e6f11c)" style="fill: none; stroke-dasharray: 6.4,1.6,1,1.6; stroke-dashoffset: 0; stroke: #ff0000"/>
   </g>
   <g id="patch_7">
    <path d="M 64.24625 343.428873 
L 64.24625 10.788873 
" style="fill: none; stroke: #000000; stroke-width: 0.8; stroke-linejoin: miter; stroke-linecap: square"/>
   </g>
   <g id="patch_8">
    <path d="M 1180.24625 343.428873 
L 1180.24625 10.788873 
" style="fill: none; stroke: #000000; stroke-width: 0.8; stroke-linejoin: miter; stroke-linecap: square"/>
   </g>
   <g id="patch_9">
    <path d="M 64.24625 343.428873 
L 1180.24625 343.428873 
" style="fill: none; stroke: #000000; stroke-width: 0.8; stroke-linejoin: miter; stroke-linecap: square"/>
   </g>
   <g id="patch_10">
    <path d="M 64.24625 10.788873 
L 1180.24625 10.788873 
" style="fill: none; stroke: #000000; stroke-width: 0.8; stroke-linejoin: miter; stroke-linecap: square"/>
   </g>
   <g id="text_25">
    <g id="patch_11">
     <path d="M 970.897187 209.920498 
L 1167.86625 209.920498 
L 1167.86625 17.480873 
L 970.897187 17.480873 
z
" style="fill: #ffffff; stroke: #000000; stroke-linejoin: miter"/>
    </g>
    <!-- Initial conditions: -->
    <g transform="translate(980.837188 38.058686) scale(0.14 -0.14)">
     <defs>
      <path id="DejaVuSans-Oblique-49" d="M 1081 4666 
L 1716 4666 
L 806 0 
L 172 0 
L 1081 4666 
z
" transform="scale(0.015625)"/>
      <path id="DejaVuSans-Oblique-6e" d="M 3566 2113 
L 3156 0 
L 2578 0 
L 2988 2091 
Q 3016 2238 3031 2350 
Q 3047 2463 3047 2528 
Q 3047 2791 2881 2937 
Q 2716 3084 2419 3084 
Q 1956 3084 1622 2776 
Q 1288 2469 1184 1941 
L 800 0 
L 225 0 
L 903 3500 
L 1478 3500 
L 1363 2950 
Q 1603 3253 1940 3418 
Q 2278 3584 2650 3584 
Q 3113 3584 3367 3334 
Q 3622 3084 3622 2631 
Q 3622 2519 3608 2391 
Q 3594 2263 3566 2113 
z
" transform="scale(0.015625)"/>
      <path id="DejaVuSans-Oblique-69" d="M 1172 4863 
L 1747 4863 
L 1606 4134 
L 1031 4134 
L 1172 4863 
z
M 909 3500 
L 1484 3500 
L 800 0 
L 225 0 
L 909 3500 
z
" transform="scale(0.015625)"/>
      <path id="DejaVuSans-Oblique-61" d="M 3438 1997 
L 3047 0 
L 2472 0 
L 2578 531 
Q 2325 219 2001 64 
Q 1678 -91 1281 -91 
Q 834 -91 548 182 
Q 263 456 263 884 
Q 263 1497 752 1853 
Q 1241 2209 2100 2209 
L 2900 2209 
L 2931 2363 
Q 2938 2388 2941 2417 
Q 2944 2447 2944 2509 
Q 2944 2788 2717 2942 
Q 2491 3097 2081 3097 
Q 1800 3097 1504 3025 
Q 1209 2953 897 2809 
L 997 3341 
Q 1322 3463 1633 3523 
Q 1944 3584 2234 3584 
Q 2853 3584 3176 3315 
Q 3500 3047 3500 2534 
Q 3500 2431 3484 2292 
Q 3469 2153 3438 1997 
z
M 2816 1759 
L 2241 1759 
Q 1534 1759 1195 1570 
Q 856 1381 856 984 
Q 856 709 1029 553 
Q 1203 397 1509 397 
Q 1978 397 2328 733 
Q 2678 1069 2791 1631 
L 2816 1759 
z
" transform="scale(0.015625)"/>
      <path id="DejaVuSans-Oblique-6c" d="M 1172 4863 
L 1747 4863 
L 800 0 
L 225 0 
L 1172 4863 
z
" transform="scale(0.015625)"/>
      <path id="DejaVuSans-Oblique-20" transform="scale(0.015625)"/>
      <path id="DejaVuSans-Oblique-63" d="M 3431 3366 
L 3316 2797 
Q 3109 2947 2876 3022 
Q 2644 3097 2394 3097 
Q 2119 3097 1870 3000 
Q 1622 2903 1453 2725 
Q 1184 2453 1037 2087 
Q 891 1722 891 1331 
Q 891 859 1127 628 
Q 1363 397 1844 397 
Q 2081 397 2348 469 
Q 2616 541 2906 684 
L 2797 116 
Q 2547 13 2283 -39 
Q 2019 -91 1741 -91 
Q 1044 -91 669 257 
Q 294 606 294 1253 
Q 294 1797 489 2255 
Q 684 2713 1069 3078 
Q 1331 3328 1684 3456 
Q 2038 3584 2456 3584 
Q 2700 3584 2940 3529 
Q 3181 3475 3431 3366 
z
" transform="scale(0.015625)"/>
      <path id="DejaVuSans-Oblique-6f" d="M 1625 -91 
Q 1009 -91 651 289 
Q 294 669 294 1325 
Q 294 1706 417 2101 
Q 541 2497 738 2766 
Q 1047 3184 1428 3384 
Q 1809 3584 2291 3584 
Q 2888 3584 3255 3212 
Q 3622 2841 3622 2241 
Q 3622 1825 3500 1412 
Q 3378 1000 3181 728 
Q 2875 309 2494 109 
Q 2113 -91 1625 -91 
z
M 891 1344 
Q 891 869 1089 633 
Q 1288 397 1691 397 
Q 2269 397 2648 901 
Q 3028 1406 3028 2181 
Q 3028 2634 2825 2865 
Q 2622 3097 2228 3097 
Q 1903 3097 1650 2945 
Q 1397 2794 1197 2484 
Q 1050 2253 970 1956 
Q 891 1659 891 1344 
z
" transform="scale(0.015625)"/>
      <path id="DejaVuSans-Oblique-64" d="M 2675 525 
Q 2444 222 2128 65 
Q 1813 -91 1428 -91 
Q 903 -91 598 267 
Q 294 625 294 1247 
Q 294 1766 478 2236 
Q 663 2706 1013 3078 
Q 1244 3325 1534 3454 
Q 1825 3584 2144 3584 
Q 2481 3584 2739 3421 
Q 2997 3259 3138 2956 
L 3513 4863 
L 4091 4863 
L 3144 0 
L 2566 0 
L 2675 525 
z
M 891 1350 
Q 891 897 1095 644 
Q 1300 391 1663 391 
Q 1931 391 2161 520 
Q 2391 650 2566 903 
Q 2750 1166 2856 1509 
Q 2963 1853 2963 2188 
Q 2963 2622 2758 2865 
Q 2553 3109 2194 3109 
Q 1922 3109 1687 2981 
Q 1453 2853 1288 2613 
Q 1106 2353 998 2009 
Q 891 1666 891 1350 
z
" transform="scale(0.015625)"/>
      <path id="DejaVuSans-Oblique-73" d="M 3200 3397 
L 3091 2853 
Q 2863 2978 2609 3040 
Q 2356 3103 2088 3103 
Q 1634 3103 1373 2948 
Q 1113 2794 1113 2528 
Q 1113 2219 1719 2053 
Q 1766 2041 1788 2034 
L 1972 1978 
Q 2547 1819 2739 1644 
Q 2931 1469 2931 1166 
Q 2931 609 2489 259 
Q 2047 -91 1331 -91 
Q 1053 -91 747 -37 
Q 441 16 72 128 
L 184 722 
Q 500 559 806 475 
Q 1113 391 1394 391 
Q 1816 391 2080 572 
Q 2344 753 2344 1031 
Q 2344 1331 1650 1516 
L 1591 1531 
L 1394 1581 
Q 956 1697 753 1886 
Q 550 2075 550 2369 
Q 550 2928 970 3256 
Q 1391 3584 2113 3584 
Q 2397 3584 2667 3537 
Q 2938 3491 3200 3397 
z
" transform="scale(0.015625)"/>
      <path id="DejaVuSans-Oblique-3a" d="M 978 3309 
L 1638 3309 
L 1484 2516 
L 825 2516 
L 978 3309 
z
M 488 794 
L 1147 794 
L 991 0 
L 331 0 
L 488 794 
z
" transform="scale(0.015625)"/>
     </defs>
     <use xlink:href="#DejaVuSans-Oblique-49"/>
     <use xlink:href="#DejaVuSans-Oblique-6e" x="29.492188"/>
     <use xlink:href="#DejaVuSans-Oblique-69" x="92.871094"/>
     <use xlink:href="#DejaVuSans-Oblique-74" x="120.654297"/>
     <use xlink:href="#DejaVuSans-Oblique-69" x="159.863281"/>
     <use xlink:href="#DejaVuSans-Oblique-61" x="187.646484"/>
     <use xlink:href="#DejaVuSans-Oblique-6c" x="248.925781"/>
     <use xlink:href="#DejaVuSans-Oblique-20" x="276.708984"/>
     <use xlink:href="#DejaVuSans-Oblique-63" x="308.496094"/>
     <use xlink:href="#DejaVuSans-Oblique-6f" x="363.476562"/>
     <use xlink:href="#DejaVuSans-Oblique-6e" x="424.658203"/>
     <use xlink:href="#DejaVuSans-Oblique-64" x="488.037109"/>
     <use xlink:href="#DejaVuSans-Oblique-69" x="551.513672"/>
     <use xlink:href="#DejaVuSans-Oblique-74" x="579.296875"/>
     <use xlink:href="#DejaVuSans-Oblique-69" x="618.505859"/>
     <use xlink:href="#DejaVuSans-Oblique-6f" x="646.289062"/>
     <use xlink:href="#DejaVuSans-Oblique-6e" x="707.470703"/>
     <use xlink:href="#DejaVuSans-Oblique-73" x="770.849609"/>
     <use xlink:href="#DejaVuSans-Oblique-3a" x="822.949219"/>
    </g>
    <!--     $R_E$ =  336.51 $[\mu m]$ -->
    <g transform="translate(980.837188 53.738248) scale(0.14 -0.14)">
     <defs>
      <path id="DejaVuSans-Oblique-3d" d="M 678 2906 
L 4684 2906 
L 4684 2381 
L 678 2381 
L 678 2906 
z
M 678 1631 
L 4684 1631 
L 4684 1100 
L 678 1100 
L 678 1631 
z
" transform="scale(0.015625)"/>
      <path id="DejaVuSans-Oblique-33" d="M 1013 4550 
Q 1356 4650 1679 4700 
Q 2003 4750 2316 4750 
Q 2934 4750 3296 4475 
Q 3659 4200 3659 3738 
Q 3659 3284 3373 2959 
Q 3088 2634 2584 2516 
Q 2978 2403 3162 2165 
Q 3347 1928 3347 1538 
Q 3347 1163 3167 834 
Q 2988 506 2650 269 
Q 2394 88 2037 -1 
Q 1681 -91 1216 -91 
Q 922 -91 622 -33 
Q 322 25 13 141 
L 128 738 
Q 422 575 720 495 
Q 1019 416 1331 416 
Q 1947 416 2330 733 
Q 2713 1050 2713 1556 
Q 2713 1881 2469 2057 
Q 2225 2234 1772 2234 
L 1228 2234 
L 1325 2747 
L 1900 2747 
Q 2419 2747 2717 2984 
Q 3016 3222 3016 3628 
Q 3016 3922 2797 4083 
Q 2578 4244 2181 4244 
Q 1881 4244 1567 4180 
Q 1253 4116 916 3988 
L 1013 4550 
z
" transform="scale(0.015625)"/>
      <path id="DejaVuSans-Oblique-36" d="M 2938 1728 
Q 2938 2125 2734 2354 
Q 2531 2584 2181 2584 
Q 1697 2584 1367 2211 
Q 1038 1838 1038 1288 
Q 1038 875 1239 642 
Q 1441 409 1797 409 
Q 2284 409 2611 792 
Q 2938 1175 2938 1728 
z
M 3788 4556 
L 3681 3981 
Q 3500 4100 3265 4162 
Q 3031 4225 2766 4225 
Q 2119 4225 1726 3819 
Q 1334 3413 1141 2547 
Q 1369 2813 1670 2948 
Q 1972 3084 2322 3084 
Q 2894 3084 3233 2754 
Q 3572 2425 3572 1869 
Q 3572 1413 3405 1020 
Q 3238 628 2919 331 
Q 2700 128 2409 18 
Q 2119 -91 1791 -91 
Q 1147 -91 775 318 
Q 403 728 403 1441 
Q 403 2103 573 2717 
Q 744 3331 1050 3781 
Q 1372 4256 1830 4503 
Q 2288 4750 2841 4750 
Q 3084 4750 3321 4701 
Q 3559 4653 3788 4556 
z
" transform="scale(0.015625)"/>
      <path id="DejaVuSans-Oblique-2e" d="M 525 794 
L 1184 794 
L 1031 0 
L 372 0 
L 525 794 
z
" transform="scale(0.015625)"/>
      <path id="DejaVuSans-Oblique-35" d="M 3719 4666 
L 3622 4141 
L 1691 4141 
L 1466 2988 
Q 1609 3034 1757 3056 
Q 1906 3078 2059 3078 
Q 2706 3078 3081 2731 
Q 3456 2384 3456 1791 
Q 3456 1375 3264 994 
Q 3072 613 2719 325 
Q 2469 125 2108 17 
Q 1747 -91 1319 -91 
Q 1038 -91 744 -41 
Q 450 9 128 109 
L 244 697 
Q 531 556 820 486 
Q 1109 416 1403 416 
Q 2013 416 2411 781 
Q 2809 1147 2809 1697 
Q 2809 2103 2548 2328 
Q 2288 2553 1819 2553 
Q 1572 2553 1305 2495 
Q 1038 2438 756 2322 
L 1209 4666 
L 3719 4666 
z
" transform="scale(0.015625)"/>
      <path id="DejaVuSans-Oblique-31" d="M 416 531 
L 1447 531 
L 2144 4122 
L 978 3897 
L 1088 4441 
L 2247 4666 
L 2881 4666 
L 2075 531 
L 3103 531 
L 3003 0 
L 313 0 
L 416 531 
z
" transform="scale(0.015625)"/>
      <path id="DejaVuSans-Oblique-3bc" d="M -84 -1331 
L 856 3500 
L 1434 3500 
L 1009 1322 
Q 997 1256 987 1175 
Q 978 1094 978 1013 
Q 978 722 1161 565 
Q 1344 409 1684 409 
Q 2147 409 2431 671 
Q 2716 934 2816 1459 
L 3213 3500 
L 3788 3500 
L 3266 809 
Q 3253 750 3248 706 
Q 3244 663 3244 628 
Q 3244 531 3283 486 
Q 3322 441 3406 441 
Q 3438 441 3492 456 
Q 3547 472 3647 513 
L 3559 50 
Q 3422 -19 3297 -55 
Q 3172 -91 3053 -91 
Q 2847 -91 2730 40 
Q 2613 172 2613 403 
Q 2438 153 2195 31 
Q 1953 -91 1625 -91 
Q 1334 -91 1117 43 
Q 900 178 831 397 
L 494 -1331 
L -84 -1331 
z
" transform="scale(0.015625)"/>
      <path id="DejaVuSans-Oblique-6d" d="M 5747 2113 
L 5338 0 
L 4763 0 
L 5166 2094 
Q 5191 2228 5203 2325 
Q 5216 2422 5216 2491 
Q 5216 2772 5059 2928 
Q 4903 3084 4622 3084 
Q 4203 3084 3875 2770 
Q 3547 2456 3450 1953 
L 3066 0 
L 2491 0 
L 2900 2094 
Q 2925 2209 2937 2307 
Q 2950 2406 2950 2484 
Q 2950 2769 2794 2926 
Q 2638 3084 2363 3084 
Q 1938 3084 1609 2770 
Q 1281 2456 1184 1953 
L 800 0 
L 225 0 
L 909 3500 
L 1484 3500 
L 1375 2956 
Q 1609 3263 1923 3423 
Q 2238 3584 2597 3584 
Q 2978 3584 3223 3384 
Q 3469 3184 3519 2828 
Q 3781 3197 4126 3390 
Q 4472 3584 4856 3584 
Q 5306 3584 5551 3325 
Q 5797 3066 5797 2591 
Q 5797 2488 5784 2364 
Q 5772 2241 5747 2113 
z
" transform="scale(0.015625)"/>
     </defs>
     <use xlink:href="#DejaVuSans-Oblique-20" transform="translate(0 0.015625)"/>
     <use xlink:href="#DejaVuSans-Oblique-20" transform="translate(31.787109 0.015625)"/>
     <use xlink:href="#DejaVuSans-Oblique-20" transform="translate(63.574219 0.015625)"/>
     <use xlink:href="#DejaVuSans-Oblique-20" transform="translate(95.361328 0.015625)"/>
     <use xlink:href="#DejaVuSans-Oblique-52" transform="translate(127.148438 0.015625)"/>
     <use xlink:href="#DejaVuSans-Oblique-45" transform="translate(196.630859 -16.390625) scale(0.7)"/>
     <use xlink:href="#DejaVuSans-Oblique-20" transform="translate(243.59375 0.015625)"/>
     <use xlink:href="#DejaVuSans-Oblique-3d" transform="translate(275.380859 0.015625)"/>
     <use xlink:href="#DejaVuSans-Oblique-20" transform="translate(359.169922 0.015625)"/>
     <use xlink:href="#DejaVuSans-Oblique-20" transform="translate(390.957031 0.015625)"/>
     <use xlink:href="#DejaVuSans-Oblique-33" transform="translate(422.744141 0.015625)"/>
     <use xlink:href="#DejaVuSans-Oblique-33" transform="translate(486.367188 0.015625)"/>
     <use xlink:href="#DejaVuSans-Oblique-36" transform="translate(549.990234 0.015625)"/>
     <use xlink:href="#DejaVuSans-Oblique-2e" transform="translate(613.613281 0.015625)"/>
     <use xlink:href="#DejaVuSans-Oblique-35" transform="translate(645.400391 0.015625)"/>
     <use xlink:href="#DejaVuSans-Oblique-31" transform="translate(709.023438 0.015625)"/>
     <use xlink:href="#DejaVuSans-Oblique-20" transform="translate(772.646484 0.015625)"/>
     <use xlink:href="#DejaVuSans-5b" transform="translate(804.433594 0.015625)"/>
     <use xlink:href="#DejaVuSans-Oblique-3bc" transform="translate(843.447266 0.015625)"/>
     <use xlink:href="#DejaVuSans-Oblique-6d" transform="translate(907.070312 0.015625)"/>
     <use xlink:href="#DejaVuSans-5d" transform="translate(1004.482422 0.015625)"/>
    </g>
    <!--     $P_{amb}$ =  0.01 $[bar]$ -->
    <g transform="translate(980.837188 69.443623) scale(0.14 -0.14)">
     <defs>
      <path id="DejaVuSans-Oblique-50" d="M 1081 4666 
L 2541 4666 
Q 3178 4666 3512 4369 
Q 3847 4072 3847 3500 
Q 3847 2731 3353 2303 
Q 2859 1875 1966 1875 
L 1172 1875 
L 806 0 
L 172 0 
L 1081 4666 
z
M 1613 4147 
L 1275 2394 
L 2069 2394 
Q 2606 2394 2893 2669 
Q 3181 2944 3181 3456 
Q 3181 3784 2986 3965 
Q 2791 4147 2438 4147 
L 1613 4147 
z
" transform="scale(0.015625)"/>
      <path id="DejaVuSans-Oblique-62" d="M 3169 2138 
Q 3169 2591 2961 2847 
Q 2753 3103 2388 3103 
Q 2122 3103 1889 2973 
Q 1656 2844 1484 2597 
Q 1303 2338 1198 1995 
Q 1094 1653 1094 1313 
Q 1094 881 1298 636 
Q 1503 391 1863 391 
Q 2134 391 2365 517 
Q 2597 644 2772 891 
Q 2950 1147 3059 1487 
Q 3169 1828 3169 2138 
z
M 1381 2969 
Q 1594 3256 1914 3420 
Q 2234 3584 2584 3584 
Q 3122 3584 3439 3221 
Q 3756 2859 3756 2241 
Q 3756 1734 3570 1259 
Q 3384 784 3041 416 
Q 2816 172 2522 40 
Q 2228 -91 1906 -91 
Q 1566 -91 1316 65 
Q 1066 222 909 531 
L 806 0 
L 231 0 
L 1178 4863 
L 1753 4863 
L 1381 2969 
z
" transform="scale(0.015625)"/>
      <path id="DejaVuSans-Oblique-30" d="M 2444 4750 
Q 3078 4750 3414 4328 
Q 3750 3906 3750 3116 
Q 3750 2516 3592 1923 
Q 3434 1331 3150 863 
Q 2859 394 2467 151 
Q 2075 -91 1600 -91 
Q 988 -91 653 334 
Q 319 759 319 1544 
Q 319 2138 480 2733 
Q 641 3328 928 3794 
Q 1216 4263 1602 4506 
Q 1988 4750 2444 4750 
z
M 2406 4250 
Q 2169 4250 1955 4123 
Q 1741 3997 1569 3750 
Q 1281 3338 1111 2720 
Q 941 2103 941 1453 
Q 941 938 1123 673 
Q 1306 409 1663 409 
Q 1913 409 2125 536 
Q 2338 663 2509 909 
Q 2794 1319 2961 1936 
Q 3128 2553 3128 3206 
Q 3128 3722 2945 3986 
Q 2763 4250 2406 4250 
z
" transform="scale(0.015625)"/>
      <path id="DejaVuSans-Oblique-72" d="M 2853 2969 
Q 2766 3016 2653 3041 
Q 2541 3066 2413 3066 
Q 1953 3066 1609 2717 
Q 1266 2369 1153 1784 
L 800 0 
L 225 0 
L 909 3500 
L 1484 3500 
L 1375 2956 
Q 1603 3259 1920 3421 
Q 2238 3584 2597 3584 
Q 2691 3584 2781 3573 
Q 2872 3563 2963 3538 
L 2853 2969 
z
" transform="scale(0.015625)"/>
     </defs>
     <use xlink:href="#DejaVuSans-Oblique-20" transform="translate(0 0.015625)"/>
     <use xlink:href="#DejaVuSans-Oblique-20" transform="translate(31.787109 0.015625)"/>
     <use xlink:href="#DejaVuSans-Oblique-20" transform="translate(63.574219 0.015625)"/>
     <use xlink:href="#DejaVuSans-Oblique-20" transform="translate(95.361328 0.015625)"/>
     <use xlink:href="#DejaVuSans-Oblique-50" transform="translate(127.148438 0.015625)"/>
     <use xlink:href="#DejaVuSans-Oblique-61" transform="translate(187.451172 -16.390625) scale(0.7)"/>
     <use xlink:href="#DejaVuSans-Oblique-6d" transform="translate(230.34668 -16.390625) scale(0.7)"/>
     <use xlink:href="#DejaVuSans-Oblique-62" transform="translate(298.535156 -16.390625) scale(0.7)"/>
     <use xlink:href="#DejaVuSans-Oblique-20" transform="translate(345.703125 0.015625)"/>
     <use xlink:href="#DejaVuSans-Oblique-3d" transform="translate(377.490234 0.015625)"/>
     <use xlink:href="#DejaVuSans-Oblique-20" transform="translate(461.279297 0.015625)"/>
     <use xlink:href="#DejaVuSans-Oblique-20" transform="translate(493.066406 0.015625)"/>
     <use xlink:href="#DejaVuSans-Oblique-30" transform="translate(524.853516 0.015625)"/>
     <use xlink:href="#DejaVuSans-Oblique-2e" transform="translate(588.476562 0.015625)"/>
     <use xlink:href="#DejaVuSans-Oblique-30" transform="translate(620.263672 0.015625)"/>
     <use xlink:href="#DejaVuSans-Oblique-31" transform="translate(683.886719 0.015625)"/>
     <use xlink:href="#DejaVuSans-Oblique-20" transform="translate(747.509766 0.015625)"/>
     <use xlink:href="#DejaVuSans-5b" transform="translate(779.296875 0.015625)"/>
     <use xlink:href="#DejaVuSans-Oblique-62" transform="translate(818.310547 0.015625)"/>
     <use xlink:href="#DejaVuSans-Oblique-61" transform="translate(881.787109 0.015625)"/>
     <use xlink:href="#DejaVuSans-Oblique-72" transform="translate(943.066406 0.015625)"/>
     <use xlink:href="#DejaVuSans-5d" transform="translate(984.179688 0.015625)"/>
    </g>
    <!--     $T_{inf}$ =  20.00 $[C]$ -->
    <g transform="translate(980.837188 85.120561) scale(0.14 -0.14)">
     <defs>
      <path id="DejaVuSans-Oblique-66" d="M 3059 4863 
L 2969 4384 
L 2419 4384 
Q 2106 4384 1964 4261 
Q 1822 4138 1753 3809 
L 1691 3500 
L 2638 3500 
L 2553 3053 
L 1606 3053 
L 1013 0 
L 434 0 
L 1031 3053 
L 481 3053 
L 563 3500 
L 1113 3500 
L 1159 3744 
Q 1278 4363 1576 4613 
Q 1875 4863 2516 4863 
L 3059 4863 
z
" transform="scale(0.015625)"/>
      <path id="DejaVuSans-Oblique-32" d="M 2950 2253 
L 934 525 
L 3163 525 
L 3053 0 
L 25 0 
L 128 531 
L 2234 2338 
Q 2656 2703 2832 2979 
Q 3009 3256 3009 3547 
Q 3009 3850 2796 4040 
Q 2584 4231 2241 4231 
Q 1944 4231 1581 4125 
Q 1219 4019 806 3816 
L 922 4441 
Q 1309 4594 1662 4672 
Q 2016 4750 2316 4750 
Q 2928 4750 3301 4425 
Q 3675 4100 3675 3572 
Q 3675 3216 3497 2892 
Q 3319 2569 2950 2253 
z
" transform="scale(0.015625)"/>
      <path id="DejaVuSans-b0" d="M 1600 4347 
Q 1350 4347 1178 4173 
Q 1006 4000 1006 3750 
Q 1006 3503 1178 3333 
Q 1350 3163 1600 3163 
Q 1850 3163 2022 3333 
Q 2194 3503 2194 3750 
Q 2194 3997 2020 4172 
Q 1847 4347 1600 4347 
z
M 1600 4750 
Q 1800 4750 1984 4673 
Q 2169 4597 2303 4453 
Q 2447 4313 2519 4134 
Q 2591 3956 2591 3750 
Q 2591 3338 2302 3052 
Q 2013 2766 1594 2766 
Q 1172 2766 890 3047 
Q 609 3328 609 3750 
Q 609 4169 896 4459 
Q 1184 4750 1600 4750 
z
" transform="scale(0.015625)"/>
      <path id="DejaVuSans-Oblique-43" d="M 4447 4306 
L 4319 3641 
Q 4019 3944 3683 4091 
Q 3347 4238 2956 4238 
Q 2422 4238 2017 3981 
Q 1613 3725 1319 3200 
Q 1131 2863 1032 2486 
Q 934 2109 934 1728 
Q 934 1091 1264 756 
Q 1594 422 2222 422 
Q 2656 422 3056 561 
Q 3456 700 3834 978 
L 3688 231 
Q 3316 72 2936 -9 
Q 2556 -91 2175 -91 
Q 1278 -91 773 396 
Q 269 884 269 1753 
Q 269 2309 461 2846 
Q 653 3384 1013 3828 
Q 1394 4300 1883 4525 
Q 2372 4750 3022 4750 
Q 3422 4750 3780 4639 
Q 4138 4528 4447 4306 
z
" transform="scale(0.015625)"/>
     </defs>
     <use xlink:href="#DejaVuSans-Oblique-20" transform="translate(0 0.015625)"/>
     <use xlink:href="#DejaVuSans-Oblique-20" transform="translate(31.787109 0.015625)"/>
     <use xlink:href="#DejaVuSans-Oblique-20" transform="translate(63.574219 0.015625)"/>
     <use xlink:href="#DejaVuSans-Oblique-20" transform="translate(95.361328 0.015625)"/>
     <use xlink:href="#DejaVuSans-Oblique-54" transform="translate(127.148438 0.015625)"/>
     <use xlink:href="#DejaVuSans-Oblique-69" transform="translate(188.232422 -16.390625) scale(0.7)"/>
     <use xlink:href="#DejaVuSans-Oblique-6e" transform="translate(207.680664 -16.390625) scale(0.7)"/>
     <use xlink:href="#DejaVuSans-Oblique-66" transform="translate(252.045898 -16.390625) scale(0.7)"/>
     <use xlink:href="#DejaVuSans-Oblique-20" transform="translate(279.423828 0.015625)"/>
     <use xlink:href="#DejaVuSans-Oblique-3d" transform="translate(311.210938 0.015625)"/>
     <use xlink:href="#DejaVuSans-Oblique-20" transform="translate(395 0.015625)"/>
     <use xlink:href="#DejaVuSans-Oblique-20" transform="translate(426.787109 0.015625)"/>
     <use xlink:href="#DejaVuSans-Oblique-32" transform="translate(458.574219 0.015625)"/>
     <use xlink:href="#DejaVuSans-Oblique-30" transform="translate(522.197266 0.015625)"/>
     <use xlink:href="#DejaVuSans-Oblique-2e" transform="translate(585.820312 0.015625)"/>
     <use xlink:href="#DejaVuSans-Oblique-30" transform="translate(617.607422 0.015625)"/>
     <use xlink:href="#DejaVuSans-Oblique-30" transform="translate(681.230469 0.015625)"/>
     <use xlink:href="#DejaVuSans-Oblique-20" transform="translate(744.853516 0.015625)"/>
     <use xlink:href="#DejaVuSans-5b" transform="translate(776.640625 0.015625)"/>
     <use xlink:href="#DejaVuSans-b0" transform="translate(815.654297 0.015625)"/>
     <use xlink:href="#DejaVuSans-Oblique-43" transform="translate(865.654297 0.015625)"/>
     <use xlink:href="#DejaVuSans-5d" transform="translate(935.478516 0.015625)"/>
    </g>
    <!--     $P_{vapour}$ =  4245.1 $[Pa]$ -->
    <g transform="translate(980.837188 100.800123) scale(0.14 -0.14)">
     <defs>
      <path id="DejaVuSans-Oblique-76" d="M 459 3500 
L 1069 3500 
L 1581 525 
L 3256 3500 
L 3866 3500 
L 1875 0 
L 1100 0 
L 459 3500 
z
" transform="scale(0.015625)"/>
      <path id="DejaVuSans-Oblique-70" d="M 3175 2156 
Q 3175 2616 2975 2859 
Q 2775 3103 2400 3103 
Q 2144 3103 1911 2972 
Q 1678 2841 1497 2591 
Q 1319 2344 1212 1994 
Q 1106 1644 1106 1300 
Q 1106 863 1306 627 
Q 1506 391 1875 391 
Q 2147 391 2380 519 
Q 2613 647 2778 891 
Q 2956 1147 3065 1494 
Q 3175 1841 3175 2156 
z
M 1394 2969 
Q 1625 3272 1939 3428 
Q 2253 3584 2638 3584 
Q 3175 3584 3472 3232 
Q 3769 2881 3769 2247 
Q 3769 1728 3584 1258 
Q 3400 788 3053 416 
Q 2822 169 2531 39 
Q 2241 -91 1919 -91 
Q 1547 -91 1294 64 
Q 1041 219 916 525 
L 556 -1331 
L -19 -1331 
L 922 3500 
L 1497 3500 
L 1394 2969 
z
" transform="scale(0.015625)"/>
      <path id="DejaVuSans-Oblique-75" d="M 428 1388 
L 838 3500 
L 1416 3500 
L 1006 1409 
Q 975 1256 961 1147 
Q 947 1038 947 966 
Q 947 700 1109 554 
Q 1272 409 1569 409 
Q 2031 409 2368 721 
Q 2706 1034 2809 1563 
L 3194 3500 
L 3769 3500 
L 3091 0 
L 2516 0 
L 2631 550 
Q 2388 244 2052 76 
Q 1716 -91 1338 -91 
Q 878 -91 622 161 
Q 366 413 366 863 
Q 366 956 381 1097 
Q 397 1238 428 1388 
z
" transform="scale(0.015625)"/>
      <path id="DejaVuSans-Oblique-34" d="M 2753 4666 
L 3547 4666 
L 2950 1625 
L 3616 1625 
L 3513 1100 
L 2847 1100 
L 2638 0 
L 2009 0 
L 2222 1100 
L 116 1100 
L 238 1709 
L 2753 4666 
z
M 2809 4116 
L 728 1625 
L 2322 1625 
L 2809 4116 
z
" transform="scale(0.015625)"/>
     </defs>
     <use xlink:href="#DejaVuSans-Oblique-20" transform="translate(0 0.015625)"/>
     <use xlink:href="#DejaVuSans-Oblique-20" transform="translate(31.787109 0.015625)"/>
     <use xlink:href="#DejaVuSans-Oblique-20" transform="translate(63.574219 0.015625)"/>
     <use xlink:href="#DejaVuSans-Oblique-20" transform="translate(95.361328 0.015625)"/>
     <use xlink:href="#DejaVuSans-Oblique-50" transform="translate(127.148438 0.015625)"/>
     <use xlink:href="#DejaVuSans-Oblique-76" transform="translate(187.451172 -16.390625) scale(0.7)"/>
     <use xlink:href="#DejaVuSans-Oblique-61" transform="translate(228.876953 -16.390625) scale(0.7)"/>
     <use xlink:href="#DejaVuSans-Oblique-70" transform="translate(271.772461 -16.390625) scale(0.7)"/>
     <use xlink:href="#DejaVuSans-Oblique-6f" transform="translate(316.206055 -16.390625) scale(0.7)"/>
     <use xlink:href="#DejaVuSans-Oblique-75" transform="translate(359.033203 -16.390625) scale(0.7)"/>
     <use xlink:href="#DejaVuSans-Oblique-72" transform="translate(403.398438 -16.390625) scale(0.7)"/>
     <use xlink:href="#DejaVuSans-Oblique-20" transform="translate(434.912109 0.015625)"/>
     <use xlink:href="#DejaVuSans-Oblique-3d" transform="translate(466.699219 0.015625)"/>
     <use xlink:href="#DejaVuSans-Oblique-20" transform="translate(550.488281 0.015625)"/>
     <use xlink:href="#DejaVuSans-Oblique-20" transform="translate(582.275391 0.015625)"/>
     <use xlink:href="#DejaVuSans-Oblique-34" transform="translate(614.0625 0.015625)"/>
     <use xlink:href="#DejaVuSans-Oblique-32" transform="translate(677.685547 0.015625)"/>
     <use xlink:href="#DejaVuSans-Oblique-34" transform="translate(741.308594 0.015625)"/>
     <use xlink:href="#DejaVuSans-Oblique-35" transform="translate(804.931641 0.015625)"/>
     <use xlink:href="#DejaVuSans-Oblique-2e" transform="translate(868.554688 0.015625)"/>
     <use xlink:href="#DejaVuSans-Oblique-31" transform="translate(900.341797 0.015625)"/>
     <use xlink:href="#DejaVuSans-Oblique-20" transform="translate(963.964844 0.015625)"/>
     <use xlink:href="#DejaVuSans-5b" transform="translate(995.751953 0.015625)"/>
     <use xlink:href="#DejaVuSans-Oblique-50" transform="translate(1034.765625 0.015625)"/>
     <use xlink:href="#DejaVuSans-Oblique-61" transform="translate(1095.068359 0.015625)"/>
     <use xlink:href="#DejaVuSans-5d" transform="translate(1156.347656 0.015625)"/>
    </g>
    <!-- Initial content: -->
    <g transform="translate(980.837188 117.905498) scale(0.14 -0.14)">
     <defs>
      <path id="DejaVuSans-Oblique-65" d="M 3078 2063 
Q 3088 2113 3092 2166 
Q 3097 2219 3097 2272 
Q 3097 2653 2873 2875 
Q 2650 3097 2266 3097 
Q 1838 3097 1509 2826 
Q 1181 2556 1013 2059 
L 3078 2063 
z
M 3578 1613 
L 903 1613 
Q 884 1494 878 1425 
Q 872 1356 872 1306 
Q 872 872 1139 634 
Q 1406 397 1894 397 
Q 2269 397 2603 481 
Q 2938 566 3225 728 
L 3116 159 
Q 2806 34 2476 -28 
Q 2147 -91 1806 -91 
Q 1078 -91 686 257 
Q 294 606 294 1247 
Q 294 1794 489 2264 
Q 684 2734 1063 3103 
Q 1306 3334 1642 3459 
Q 1978 3584 2356 3584 
Q 2950 3584 3301 3228 
Q 3653 2872 3653 2272 
Q 3653 2128 3634 1964 
Q 3616 1800 3578 1613 
z
" transform="scale(0.015625)"/>
     </defs>
     <use xlink:href="#DejaVuSans-Oblique-49"/>
     <use xlink:href="#DejaVuSans-Oblique-6e" x="29.492188"/>
     <use xlink:href="#DejaVuSans-Oblique-69" x="92.871094"/>
     <use xlink:href="#DejaVuSans-Oblique-74" x="120.654297"/>
     <use xlink:href="#DejaVuSans-Oblique-69" x="159.863281"/>
     <use xlink:href="#DejaVuSans-Oblique-61" x="187.646484"/>
     <use xlink:href="#DejaVuSans-Oblique-6c" x="248.925781"/>
     <use xlink:href="#DejaVuSans-Oblique-20" x="276.708984"/>
     <use xlink:href="#DejaVuSans-Oblique-63" x="308.496094"/>
     <use xlink:href="#DejaVuSans-Oblique-6f" x="363.476562"/>
     <use xlink:href="#DejaVuSans-Oblique-6e" x="424.658203"/>
     <use xlink:href="#DejaVuSans-Oblique-74" x="488.037109"/>
     <use xlink:href="#DejaVuSans-Oblique-65" x="527.246094"/>
     <use xlink:href="#DejaVuSans-Oblique-6e" x="588.769531"/>
     <use xlink:href="#DejaVuSans-Oblique-74" x="652.148438"/>
     <use xlink:href="#DejaVuSans-Oblique-3a" x="691.357422"/>
    </g>
    <!--     25% N2, 75% H2 -->
    <g transform="translate(980.837188 133.582436) scale(0.14 -0.14)">
     <defs>
      <path id="DejaVuSans-Oblique-25" d="M 1503 2209 
Q 1078 2209 829 2486 
Q 581 2763 581 3238 
Q 581 3913 943 4331 
Q 1306 4750 1888 4750 
Q 2313 4750 2561 4470 
Q 2809 4191 2809 3713 
Q 2809 3044 2446 2626 
Q 2084 2209 1503 2209 
z
M 2309 3694 
Q 2309 4022 2187 4187 
Q 2066 4353 1825 4353 
Q 1475 4353 1278 4050 
Q 1081 3747 1081 3206 
Q 1081 2919 1207 2762 
Q 1334 2606 1569 2606 
Q 1903 2606 2106 2903 
Q 2309 3200 2309 3694 
z
M 4997 1394 
Q 4997 1728 4878 1893 
Q 4759 2059 4519 2059 
Q 4172 2059 3973 1754 
Q 3775 1450 3775 909 
Q 3775 619 3901 462 
Q 4028 306 4263 306 
Q 4597 306 4797 603 
Q 4997 900 4997 1394 
z
M 4197 -91 
Q 3772 -91 3525 187 
Q 3278 466 3278 941 
Q 3278 1616 3639 2033 
Q 4000 2450 4581 2450 
Q 5006 2450 5251 2175 
Q 5497 1900 5497 1422 
Q 5497 750 5136 329 
Q 4775 -91 4197 -91 
z
M 5259 4750 
L 1403 -91 
L 903 -91 
L 4763 4750 
L 5259 4750 
z
" transform="scale(0.015625)"/>
      <path id="DejaVuSans-Oblique-4e" d="M 1081 4666 
L 1931 4666 
L 3219 666 
L 4000 4666 
L 4616 4666 
L 3706 0 
L 2853 0 
L 1569 4025 
L 788 0 
L 172 0 
L 1081 4666 
z
" transform="scale(0.015625)"/>
      <path id="DejaVuSans-Oblique-2c" d="M 575 794 
L 1234 794 
L 1131 256 
L 422 -744 
L 19 -744 
L 469 256 
L 575 794 
z
" transform="scale(0.015625)"/>
      <path id="DejaVuSans-Oblique-37" d="M 819 4666 
L 4013 4666 
L 3956 4397 
L 1288 0 
L 594 0 
L 3116 4134 
L 716 4134 
L 819 4666 
z
" transform="scale(0.015625)"/>
      <path id="DejaVuSans-Oblique-48" d="M 1081 4666 
L 1716 4666 
L 1344 2753 
L 3634 2753 
L 4006 4666 
L 4641 4666 
L 3731 0 
L 3097 0 
L 3531 2222 
L 1241 2222 
L 806 0 
L 172 0 
L 1081 4666 
z
" transform="scale(0.015625)"/>
     </defs>
     <use xlink:href="#DejaVuSans-Oblique-20"/>
     <use xlink:href="#DejaVuSans-Oblique-20" x="31.787109"/>
     <use xlink:href="#DejaVuSans-Oblique-20" x="63.574219"/>
     <use xlink:href="#DejaVuSans-Oblique-20" x="95.361328"/>
     <use xlink:href="#DejaVuSans-Oblique-32" x="127.148438"/>
     <use xlink:href="#DejaVuSans-Oblique-35" x="190.771484"/>
     <use xlink:href="#DejaVuSans-Oblique-25" x="254.394531"/>
     <use xlink:href="#DejaVuSans-Oblique-20" x="349.414062"/>
     <use xlink:href="#DejaVuSans-Oblique-4e" x="381.201172"/>
     <use xlink:href="#DejaVuSans-Oblique-32" x="456.005859"/>
     <use xlink:href="#DejaVuSans-Oblique-2c" x="519.628906"/>
     <use xlink:href="#DejaVuSans-Oblique-20" x="551.416016"/>
     <use xlink:href="#DejaVuSans-Oblique-37" x="583.203125"/>
     <use xlink:href="#DejaVuSans-Oblique-35" x="646.826172"/>
     <use xlink:href="#DejaVuSans-Oblique-25" x="710.449219"/>
     <use xlink:href="#DejaVuSans-Oblique-20" x="805.46875"/>
     <use xlink:href="#DejaVuSans-Oblique-48" x="837.255859"/>
     <use xlink:href="#DejaVuSans-Oblique-32" x="912.451172"/>
    </g>
    <!-- Excitation = sin_impulse: -->
    <g transform="translate(980.837188 149.259373) scale(0.14 -0.14)">
     <defs>
      <path id="DejaVuSans-Oblique-78" d="M 3841 3500 
L 2234 1784 
L 3219 0 
L 2559 0 
L 1819 1388 
L 531 0 
L -166 0 
L 1556 1844 
L 641 3500 
L 1300 3500 
L 1972 2234 
L 3144 3500 
L 3841 3500 
z
" transform="scale(0.015625)"/>
      <path id="DejaVuSans-Oblique-5f" d="M 3263 -1063 
L 3263 -1509 
L -63 -1509 
L -63 -1063 
L 3263 -1063 
z
" transform="scale(0.015625)"/>
     </defs>
     <use xlink:href="#DejaVuSans-Oblique-45"/>
     <use xlink:href="#DejaVuSans-Oblique-78" x="63.183594"/>
     <use xlink:href="#DejaVuSans-Oblique-63" x="122.363281"/>
     <use xlink:href="#DejaVuSans-Oblique-69" x="177.34375"/>
     <use xlink:href="#DejaVuSans-Oblique-74" x="205.126953"/>
     <use xlink:href="#DejaVuSans-Oblique-61" x="244.335938"/>
     <use xlink:href="#DejaVuSans-Oblique-74" x="305.615234"/>
     <use xlink:href="#DejaVuSans-Oblique-69" x="344.824219"/>
     <use xlink:href="#DejaVuSans-Oblique-6f" x="372.607422"/>
     <use xlink:href="#DejaVuSans-Oblique-6e" x="433.789062"/>
     <use xlink:href="#DejaVuSans-Oblique-20" x="497.167969"/>
     <use xlink:href="#DejaVuSans-Oblique-3d" x="528.955078"/>
     <use xlink:href="#DejaVuSans-Oblique-20" x="612.744141"/>
     <use xlink:href="#DejaVuSans-Oblique-73" x="644.53125"/>
     <use xlink:href="#DejaVuSans-Oblique-69" x="696.630859"/>
     <use xlink:href="#DejaVuSans-Oblique-6e" x="724.414062"/>
     <use xlink:href="#DejaVuSans-Oblique-5f" x="787.792969"/>
     <use xlink:href="#DejaVuSans-Oblique-69" x="837.792969"/>
     <use xlink:href="#DejaVuSans-Oblique-6d" x="865.576172"/>
     <use xlink:href="#DejaVuSans-Oblique-70" x="962.988281"/>
     <use xlink:href="#DejaVuSans-Oblique-75" x="1026.464844"/>
     <use xlink:href="#DejaVuSans-Oblique-6c" x="1089.84375"/>
     <use xlink:href="#DejaVuSans-Oblique-73" x="1117.626953"/>
     <use xlink:href="#DejaVuSans-Oblique-65" x="1169.726562"/>
     <use xlink:href="#DejaVuSans-Oblique-3a" x="1231.25"/>
    </g>
    <!--     p_A = -299857.13 [Pa] -->
    <g transform="translate(980.837188 165.325686) scale(0.14 -0.14)">
     <defs>
      <path id="DejaVuSans-Oblique-41" d="M 2356 4666 
L 3072 4666 
L 3938 0 
L 3278 0 
L 3084 1197 
L 984 1197 
L 325 0 
L -341 0 
L 2356 4666 
z
M 2584 4044 
L 1275 1722 
L 2988 1722 
L 2584 4044 
z
" transform="scale(0.015625)"/>
      <path id="DejaVuSans-Oblique-2d" d="M 391 2009 
L 2075 2009 
L 1978 1497 
L 288 1497 
L 391 2009 
z
" transform="scale(0.015625)"/>
      <path id="DejaVuSans-Oblique-39" d="M 281 103 
L 397 678 
Q 578 559 809 496 
Q 1041 434 1306 434 
Q 1953 434 2348 843 
Q 2744 1253 2938 2119 
Q 2706 1853 2401 1714 
Q 2097 1575 1747 1575 
Q 1178 1575 842 1904 
Q 506 2234 506 2791 
Q 506 3247 672 3639 
Q 838 4031 1159 4325 
Q 1378 4531 1665 4640 
Q 1953 4750 2278 4750 
Q 2925 4750 3300 4339 
Q 3675 3928 3675 3219 
Q 3675 2559 3501 1943 
Q 3328 1328 3022 878 
Q 2697 403 2240 156 
Q 1784 -91 1228 -91 
Q 988 -91 748 -42 
Q 509 6 281 103 
z
M 1131 2938 
Q 1131 2541 1337 2308 
Q 1544 2075 1894 2075 
Q 2378 2075 2706 2447 
Q 3034 2819 3034 3372 
Q 3034 3784 2831 4017 
Q 2628 4250 2272 4250 
Q 1788 4250 1459 3870 
Q 1131 3491 1131 2938 
z
" transform="scale(0.015625)"/>
      <path id="DejaVuSans-Oblique-38" d="M 2847 1416 
Q 2847 1769 2600 1992 
Q 2353 2216 1953 2216 
Q 1466 2216 1148 1923 
Q 831 1631 831 1184 
Q 831 828 1073 618 
Q 1316 409 1728 409 
Q 2219 409 2533 693 
Q 2847 978 2847 1416 
z
M 3169 3591 
Q 3169 3888 2950 4069 
Q 2731 4250 2369 4250 
Q 1941 4250 1664 4009 
Q 1388 3769 1388 3406 
Q 1388 3094 1605 2903 
Q 1822 2713 2181 2713 
Q 2613 2713 2891 2961 
Q 3169 3209 3169 3591 
z
M 2741 2456 
Q 3094 2322 3281 2050 
Q 3469 1778 3469 1394 
Q 3469 747 2969 328 
Q 2469 -91 1678 -91 
Q 1006 -91 609 239 
Q 213 569 213 1119 
Q 213 1619 553 2008 
Q 894 2397 1441 2503 
Q 1113 2616 941 2852 
Q 769 3088 769 3425 
Q 769 3991 1239 4370 
Q 1709 4750 2431 4750 
Q 3034 4750 3414 4442 
Q 3794 4134 3794 3659 
Q 3794 3247 3511 2923 
Q 3228 2600 2741 2456 
z
" transform="scale(0.015625)"/>
      <path id="DejaVuSans-Oblique-5b" d="M 1363 4863 
L 2688 4863 
L 2597 4416 
L 1850 4416 
L 916 -397 
L 1663 -397 
L 1581 -844 
L 256 -844 
L 1363 4863 
z
" transform="scale(0.015625)"/>
      <path id="DejaVuSans-Oblique-5d" d="M 2188 4863 
L 1081 -844 
L -244 -844 
L -159 -397 
L 588 -397 
L 1522 4416 
L 781 4416 
L 863 4863 
L 2188 4863 
z
" transform="scale(0.015625)"/>
     </defs>
     <use xlink:href="#DejaVuSans-Oblique-20"/>
     <use xlink:href="#DejaVuSans-Oblique-20" x="31.787109"/>
     <use xlink:href="#DejaVuSans-Oblique-20" x="63.574219"/>
     <use xlink:href="#DejaVuSans-Oblique-20" x="95.361328"/>
     <use xlink:href="#DejaVuSans-Oblique-70" x="127.148438"/>
     <use xlink:href="#DejaVuSans-Oblique-5f" x="190.625"/>
     <use xlink:href="#DejaVuSans-Oblique-41" x="240.625"/>
     <use xlink:href="#DejaVuSans-Oblique-20" x="309.033203"/>
     <use xlink:href="#DejaVuSans-Oblique-3d" x="340.820312"/>
     <use xlink:href="#DejaVuSans-Oblique-20" x="424.609375"/>
     <use xlink:href="#DejaVuSans-Oblique-2d" x="456.396484"/>
     <use xlink:href="#DejaVuSans-Oblique-32" x="492.480469"/>
     <use xlink:href="#DejaVuSans-Oblique-39" x="556.103516"/>
     <use xlink:href="#DejaVuSans-Oblique-39" x="619.726562"/>
     <use xlink:href="#DejaVuSans-Oblique-38" x="683.349609"/>
     <use xlink:href="#DejaVuSans-Oblique-35" x="746.972656"/>
     <use xlink:href="#DejaVuSans-Oblique-37" x="810.595703"/>
     <use xlink:href="#DejaVuSans-Oblique-2e" x="874.21875"/>
     <use xlink:href="#DejaVuSans-Oblique-31" x="906.005859"/>
     <use xlink:href="#DejaVuSans-Oblique-33" x="969.628906"/>
     <use xlink:href="#DejaVuSans-Oblique-20" x="1033.251953"/>
     <use xlink:href="#DejaVuSans-Oblique-5b" x="1065.039062"/>
     <use xlink:href="#DejaVuSans-Oblique-50" x="1104.052734"/>
     <use xlink:href="#DejaVuSans-Oblique-61" x="1164.355469"/>
     <use xlink:href="#DejaVuSans-Oblique-5d" x="1225.634766"/>
    </g>
    <!--     freq =  11586.11 [Hz] -->
    <g transform="translate(980.837188 181.391998) scale(0.14 -0.14)">
     <defs>
      <path id="DejaVuSans-Oblique-71" d="M 2669 525 
Q 2438 222 2123 65 
Q 1809 -91 1428 -91 
Q 897 -91 595 267 
Q 294 625 294 1253 
Q 294 1759 480 2231 
Q 666 2703 1013 3078 
Q 1238 3322 1530 3453 
Q 1822 3584 2144 3584 
Q 2531 3584 2781 3431 
Q 3031 3278 3144 2969 
L 3244 3494 
L 3822 3494 
L 2888 -1319 
L 2309 -1319 
L 2669 525 
z
M 891 1338 
Q 891 875 1084 633 
Q 1278 391 1644 391 
Q 2188 391 2572 911 
Q 2956 1431 2956 2175 
Q 2956 2625 2757 2864 
Q 2559 3103 2188 3103 
Q 1916 3103 1684 2976 
Q 1453 2850 1281 2606 
Q 1100 2350 995 2006 
Q 891 1663 891 1338 
z
" transform="scale(0.015625)"/>
      <path id="DejaVuSans-Oblique-7a" d="M 744 3500 
L 3475 3500 
L 3372 2975 
L 738 459 
L 2913 459 
L 2822 0 
L -19 0 
L 84 525 
L 2719 3041 
L 653 3041 
L 744 3500 
z
" transform="scale(0.015625)"/>
     </defs>
     <use xlink:href="#DejaVuSans-Oblique-20"/>
     <use xlink:href="#DejaVuSans-Oblique-20" x="31.787109"/>
     <use xlink:href="#DejaVuSans-Oblique-20" x="63.574219"/>
     <use xlink:href="#DejaVuSans-Oblique-20" x="95.361328"/>
     <use xlink:href="#DejaVuSans-Oblique-66" x="127.148438"/>
     <use xlink:href="#DejaVuSans-Oblique-72" x="162.353516"/>
     <use xlink:href="#DejaVuSans-Oblique-65" x="203.466797"/>
     <use xlink:href="#DejaVuSans-Oblique-71" x="264.990234"/>
     <use xlink:href="#DejaVuSans-Oblique-20" x="328.466797"/>
     <use xlink:href="#DejaVuSans-Oblique-3d" x="360.253906"/>
     <use xlink:href="#DejaVuSans-Oblique-20" x="444.042969"/>
     <use xlink:href="#DejaVuSans-Oblique-20" x="475.830078"/>
     <use xlink:href="#DejaVuSans-Oblique-31" x="507.617188"/>
     <use xlink:href="#DejaVuSans-Oblique-31" x="571.240234"/>
     <use xlink:href="#DejaVuSans-Oblique-35" x="634.863281"/>
     <use xlink:href="#DejaVuSans-Oblique-38" x="698.486328"/>
     <use xlink:href="#DejaVuSans-Oblique-36" x="762.109375"/>
     <use xlink:href="#DejaVuSans-Oblique-2e" x="825.732422"/>
     <use xlink:href="#DejaVuSans-Oblique-31" x="857.519531"/>
     <use xlink:href="#DejaVuSans-Oblique-31" x="921.142578"/>
     <use xlink:href="#DejaVuSans-Oblique-20" x="984.765625"/>
     <use xlink:href="#DejaVuSans-Oblique-5b" x="1016.552734"/>
     <use xlink:href="#DejaVuSans-Oblique-48" x="1055.566406"/>
     <use xlink:href="#DejaVuSans-Oblique-7a" x="1130.761719"/>
     <use xlink:href="#DejaVuSans-Oblique-5d" x="1183.251953"/>
    </g>
    <!--     n =  1.00 [-] -->
    <g transform="translate(980.837188 197.068936) scale(0.14 -0.14)">
     <use xlink:href="#DejaVuSans-Oblique-20"/>
     <use xlink:href="#DejaVuSans-Oblique-20" x="31.787109"/>
     <use xlink:href="#DejaVuSans-Oblique-20" x="63.574219"/>
     <use xlink:href="#DejaVuSans-Oblique-20" x="95.361328"/>
     <use xlink:href="#DejaVuSans-Oblique-6e" x="127.148438"/>
     <use xlink:href="#DejaVuSans-Oblique-20" x="190.527344"/>
     <use xlink:href="#DejaVuSans-Oblique-3d" x="222.314453"/>
     <use xlink:href="#DejaVuSans-Oblique-20" x="306.103516"/>
     <use xlink:href="#DejaVuSans-Oblique-20" x="337.890625"/>
     <use xlink:href="#DejaVuSans-Oblique-31" x="369.677734"/>
     <use xlink:href="#DejaVuSans-Oblique-2e" x="433.300781"/>
     <use xlink:href="#DejaVuSans-Oblique-30" x="465.087891"/>
     <use xlink:href="#DejaVuSans-Oblique-30" x="528.710938"/>
     <use xlink:href="#DejaVuSans-Oblique-20" x="592.333984"/>
     <use xlink:href="#DejaVuSans-Oblique-5b" x="624.121094"/>
     <use xlink:href="#DejaVuSans-Oblique-2d" x="663.134766"/>
     <use xlink:href="#DejaVuSans-Oblique-5d" x="699.21875"/>
    </g>
   </g>
  </g>
 </g>
 <defs>
  <clipPath id="pea79e6f11c">
   <rect x="64.24625" y="10.788873" width="1116" height="332.64"/>
  </clipPath>
 </defs>
</svg>
