<?xml version="1.0" encoding="utf-8" standalone="no"?>
<!DOCTYPE svg PUBLIC "-//W3C//DTD SVG 1.1//EN"
  "http://www.w3.org/Graphics/SVG/1.1/DTD/svg11.dtd">
<svg xmlns:xlink="http://www.w3.org/1999/xlink" width="1209.040625pt" height="559.20125pt" viewBox="0 0 1209.040625 559.20125" xmlns="http://www.w3.org/2000/svg" version="1.1">
 <metadata>
  <rdf:RDF xmlns:dc="http://purl.org/dc/elements/1.1/" xmlns:cc="http://creativecommons.org/ns#" xmlns:rdf="http://www.w3.org/1999/02/22-rdf-syntax-ns#">
   <cc:Work>
    <dc:type rdf:resource="http://purl.org/dc/dcmitype/StillImage"/>
    <dc:date>2023-12-07T19:24:31.902937</dc:date>
    <dc:format>image/svg+xml</dc:format>
    <dc:creator>
     <cc:Agent>
      <dc:title>Matplotlib v3.8.0, https://matplotlib.org/</dc:title>
     </cc:Agent>
    </dc:creator>
   </cc:Work>
  </rdf:RDF>
 </metadata>
 <defs>
  <style type="text/css">*{stroke-linejoin: round; stroke-linecap: butt}</style>
 </defs>
 <g id="figure_1">
  <g id="patch_1">
   <path d="M 0 559.20125 
L 1209.040625 559.20125 
L 1209.040625 0 
L 0 0 
z
" style="fill: #ffffff"/>
  </g>
  <g id="axes_1">
   <g id="patch_2">
    <path d="M 85.840625 506.16 
L 1201.840625 506.16 
L 1201.840625 7.2 
L 85.840625 7.2 
z
" style="fill: #ffffff"/>
   </g>
   <g id="matplotlib.axis_1">
    <g id="xtick_1">
     <g id="line2d_1">
      <path d="M 136.567898 506.16 
L 136.567898 7.2 
" clip-path="url(#pd7711eacde)" style="fill: none; stroke: #b0b0b0; stroke-width: 0.8; stroke-linecap: square"/>
     </g>
     <g id="line2d_2">
      <defs>
       <path id="m1984577c75" d="M 0 0 
L 0 3.5 
" style="stroke: #000000; stroke-width: 0.8"/>
      </defs>
      <g>
       <use xlink:href="#m1984577c75" x="136.567898" y="506.16" style="stroke: #000000; stroke-width: 0.8"/>
      </g>
     </g>
     <g id="text_1">
      <!-- 0 -->
      <g transform="translate(130.841648 526.837188) scale(0.18 -0.18)">
       <defs>
        <path id="DejaVuSans-30" d="M 2034 4250 
Q 1547 4250 1301 3770 
Q 1056 3291 1056 2328 
Q 1056 1369 1301 889 
Q 1547 409 2034 409 
Q 2525 409 2770 889 
Q 3016 1369 3016 2328 
Q 3016 3291 2770 3770 
Q 2525 4250 2034 4250 
z
M 2034 4750 
Q 2819 4750 3233 4129 
Q 3647 3509 3647 2328 
Q 3647 1150 3233 529 
Q 2819 -91 2034 -91 
Q 1250 -91 836 529 
Q 422 1150 422 2328 
Q 422 3509 836 4129 
Q 1250 4750 2034 4750 
z
" transform="scale(0.015625)"/>
       </defs>
       <use xlink:href="#DejaVuSans-30"/>
      </g>
     </g>
    </g>
    <g id="xtick_2">
     <g id="line2d_3">
      <path d="M 305.711491 506.16 
L 305.711491 7.2 
" clip-path="url(#pd7711eacde)" style="fill: none; stroke: #b0b0b0; stroke-width: 0.8; stroke-linecap: square"/>
     </g>
     <g id="line2d_4">
      <g>
       <use xlink:href="#m1984577c75" x="305.711491" y="506.16" style="stroke: #000000; stroke-width: 0.8"/>
      </g>
     </g>
     <g id="text_2">
      <!-- 2 -->
      <g transform="translate(299.985241 526.837188) scale(0.18 -0.18)">
       <defs>
        <path id="DejaVuSans-32" d="M 1228 531 
L 3431 531 
L 3431 0 
L 469 0 
L 469 531 
Q 828 903 1448 1529 
Q 2069 2156 2228 2338 
Q 2531 2678 2651 2914 
Q 2772 3150 2772 3378 
Q 2772 3750 2511 3984 
Q 2250 4219 1831 4219 
Q 1534 4219 1204 4116 
Q 875 4013 500 3803 
L 500 4441 
Q 881 4594 1212 4672 
Q 1544 4750 1819 4750 
Q 2544 4750 2975 4387 
Q 3406 4025 3406 3419 
Q 3406 3131 3298 2873 
Q 3191 2616 2906 2266 
Q 2828 2175 2409 1742 
Q 1991 1309 1228 531 
z
" transform="scale(0.015625)"/>
       </defs>
       <use xlink:href="#DejaVuSans-32"/>
      </g>
     </g>
    </g>
    <g id="xtick_3">
     <g id="line2d_5">
      <path d="M 474.855085 506.16 
L 474.855085 7.2 
" clip-path="url(#pd7711eacde)" style="fill: none; stroke: #b0b0b0; stroke-width: 0.8; stroke-linecap: square"/>
     </g>
     <g id="line2d_6">
      <g>
       <use xlink:href="#m1984577c75" x="474.855085" y="506.16" style="stroke: #000000; stroke-width: 0.8"/>
      </g>
     </g>
     <g id="text_3">
      <!-- 4 -->
      <g transform="translate(469.128835 526.837188) scale(0.18 -0.18)">
       <defs>
        <path id="DejaVuSans-34" d="M 2419 4116 
L 825 1625 
L 2419 1625 
L 2419 4116 
z
M 2253 4666 
L 3047 4666 
L 3047 1625 
L 3713 1625 
L 3713 1100 
L 3047 1100 
L 3047 0 
L 2419 0 
L 2419 1100 
L 313 1100 
L 313 1709 
L 2253 4666 
z
" transform="scale(0.015625)"/>
       </defs>
       <use xlink:href="#DejaVuSans-34"/>
      </g>
     </g>
    </g>
    <g id="xtick_4">
     <g id="line2d_7">
      <path d="M 643.998678 506.16 
L 643.998678 7.2 
" clip-path="url(#pd7711eacde)" style="fill: none; stroke: #b0b0b0; stroke-width: 0.8; stroke-linecap: square"/>
     </g>
     <g id="line2d_8">
      <g>
       <use xlink:href="#m1984577c75" x="643.998678" y="506.16" style="stroke: #000000; stroke-width: 0.8"/>
      </g>
     </g>
     <g id="text_4">
      <!-- 6 -->
      <g transform="translate(638.272428 526.837188) scale(0.18 -0.18)">
       <defs>
        <path id="DejaVuSans-36" d="M 2113 2584 
Q 1688 2584 1439 2293 
Q 1191 2003 1191 1497 
Q 1191 994 1439 701 
Q 1688 409 2113 409 
Q 2538 409 2786 701 
Q 3034 994 3034 1497 
Q 3034 2003 2786 2293 
Q 2538 2584 2113 2584 
z
M 3366 4563 
L 3366 3988 
Q 3128 4100 2886 4159 
Q 2644 4219 2406 4219 
Q 1781 4219 1451 3797 
Q 1122 3375 1075 2522 
Q 1259 2794 1537 2939 
Q 1816 3084 2150 3084 
Q 2853 3084 3261 2657 
Q 3669 2231 3669 1497 
Q 3669 778 3244 343 
Q 2819 -91 2113 -91 
Q 1303 -91 875 529 
Q 447 1150 447 2328 
Q 447 3434 972 4092 
Q 1497 4750 2381 4750 
Q 2619 4750 2861 4703 
Q 3103 4656 3366 4563 
z
" transform="scale(0.015625)"/>
       </defs>
       <use xlink:href="#DejaVuSans-36"/>
      </g>
     </g>
    </g>
    <g id="xtick_5">
     <g id="line2d_9">
      <path d="M 813.142272 506.16 
L 813.142272 7.2 
" clip-path="url(#pd7711eacde)" style="fill: none; stroke: #b0b0b0; stroke-width: 0.8; stroke-linecap: square"/>
     </g>
     <g id="line2d_10">
      <g>
       <use xlink:href="#m1984577c75" x="813.142272" y="506.16" style="stroke: #000000; stroke-width: 0.8"/>
      </g>
     </g>
     <g id="text_5">
      <!-- 8 -->
      <g transform="translate(807.416022 526.837188) scale(0.18 -0.18)">
       <defs>
        <path id="DejaVuSans-38" d="M 2034 2216 
Q 1584 2216 1326 1975 
Q 1069 1734 1069 1313 
Q 1069 891 1326 650 
Q 1584 409 2034 409 
Q 2484 409 2743 651 
Q 3003 894 3003 1313 
Q 3003 1734 2745 1975 
Q 2488 2216 2034 2216 
z
M 1403 2484 
Q 997 2584 770 2862 
Q 544 3141 544 3541 
Q 544 4100 942 4425 
Q 1341 4750 2034 4750 
Q 2731 4750 3128 4425 
Q 3525 4100 3525 3541 
Q 3525 3141 3298 2862 
Q 3072 2584 2669 2484 
Q 3125 2378 3379 2068 
Q 3634 1759 3634 1313 
Q 3634 634 3220 271 
Q 2806 -91 2034 -91 
Q 1263 -91 848 271 
Q 434 634 434 1313 
Q 434 1759 690 2068 
Q 947 2378 1403 2484 
z
M 1172 3481 
Q 1172 3119 1398 2916 
Q 1625 2713 2034 2713 
Q 2441 2713 2670 2916 
Q 2900 3119 2900 3481 
Q 2900 3844 2670 4047 
Q 2441 4250 2034 4250 
Q 1625 4250 1398 4047 
Q 1172 3844 1172 3481 
z
" transform="scale(0.015625)"/>
       </defs>
       <use xlink:href="#DejaVuSans-38"/>
      </g>
     </g>
    </g>
    <g id="xtick_6">
     <g id="line2d_11">
      <path d="M 982.285866 506.16 
L 982.285866 7.2 
" clip-path="url(#pd7711eacde)" style="fill: none; stroke: #b0b0b0; stroke-width: 0.8; stroke-linecap: square"/>
     </g>
     <g id="line2d_12">
      <g>
       <use xlink:href="#m1984577c75" x="982.285866" y="506.16" style="stroke: #000000; stroke-width: 0.8"/>
      </g>
     </g>
     <g id="text_6">
      <!-- 10 -->
      <g transform="translate(970.833366 526.837188) scale(0.18 -0.18)">
       <defs>
        <path id="DejaVuSans-31" d="M 794 531 
L 1825 531 
L 1825 4091 
L 703 3866 
L 703 4441 
L 1819 4666 
L 2450 4666 
L 2450 531 
L 3481 531 
L 3481 0 
L 794 0 
L 794 531 
z
" transform="scale(0.015625)"/>
       </defs>
       <use xlink:href="#DejaVuSans-31"/>
       <use xlink:href="#DejaVuSans-30" x="63.623047"/>
      </g>
     </g>
    </g>
    <g id="xtick_7">
     <g id="line2d_13">
      <path d="M 1151.429459 506.16 
L 1151.429459 7.2 
" clip-path="url(#pd7711eacde)" style="fill: none; stroke: #b0b0b0; stroke-width: 0.8; stroke-linecap: square"/>
     </g>
     <g id="line2d_14">
      <g>
       <use xlink:href="#m1984577c75" x="1151.429459" y="506.16" style="stroke: #000000; stroke-width: 0.8"/>
      </g>
     </g>
     <g id="text_7">
      <!-- 12 -->
      <g transform="translate(1139.976959 526.837188) scale(0.18 -0.18)">
       <use xlink:href="#DejaVuSans-31"/>
       <use xlink:href="#DejaVuSans-32" x="63.623047"/>
      </g>
     </g>
    </g>
    <g id="text_8">
     <!-- $t$ [ms] -->
     <g transform="translate(616.930625 548.257813) scale(0.18 -0.18)">
      <defs>
       <path id="DejaVuSans-Oblique-74" d="M 2706 3500 
L 2619 3053 
L 1472 3053 
L 1100 1153 
Q 1081 1047 1072 975 
Q 1063 903 1063 863 
Q 1063 663 1183 572 
Q 1303 481 1569 481 
L 2150 481 
L 2053 0 
L 1503 0 
Q 991 0 739 200 
Q 488 400 488 806 
Q 488 878 497 964 
Q 506 1050 525 1153 
L 897 3053 
L 409 3053 
L 500 3500 
L 978 3500 
L 1172 4494 
L 1747 4494 
L 1556 3500 
L 2706 3500 
z
" transform="scale(0.015625)"/>
       <path id="DejaVuSans-20" transform="scale(0.015625)"/>
       <path id="DejaVuSans-5b" d="M 550 4863 
L 1875 4863 
L 1875 4416 
L 1125 4416 
L 1125 -397 
L 1875 -397 
L 1875 -844 
L 550 -844 
L 550 4863 
z
" transform="scale(0.015625)"/>
       <path id="DejaVuSans-6d" d="M 3328 2828 
Q 3544 3216 3844 3400 
Q 4144 3584 4550 3584 
Q 5097 3584 5394 3201 
Q 5691 2819 5691 2113 
L 5691 0 
L 5113 0 
L 5113 2094 
Q 5113 2597 4934 2840 
Q 4756 3084 4391 3084 
Q 3944 3084 3684 2787 
Q 3425 2491 3425 1978 
L 3425 0 
L 2847 0 
L 2847 2094 
Q 2847 2600 2669 2842 
Q 2491 3084 2119 3084 
Q 1678 3084 1418 2786 
Q 1159 2488 1159 1978 
L 1159 0 
L 581 0 
L 581 3500 
L 1159 3500 
L 1159 2956 
Q 1356 3278 1631 3431 
Q 1906 3584 2284 3584 
Q 2666 3584 2933 3390 
Q 3200 3197 3328 2828 
z
" transform="scale(0.015625)"/>
       <path id="DejaVuSans-73" d="M 2834 3397 
L 2834 2853 
Q 2591 2978 2328 3040 
Q 2066 3103 1784 3103 
Q 1356 3103 1142 2972 
Q 928 2841 928 2578 
Q 928 2378 1081 2264 
Q 1234 2150 1697 2047 
L 1894 2003 
Q 2506 1872 2764 1633 
Q 3022 1394 3022 966 
Q 3022 478 2636 193 
Q 2250 -91 1575 -91 
Q 1294 -91 989 -36 
Q 684 19 347 128 
L 347 722 
Q 666 556 975 473 
Q 1284 391 1588 391 
Q 1994 391 2212 530 
Q 2431 669 2431 922 
Q 2431 1156 2273 1281 
Q 2116 1406 1581 1522 
L 1381 1569 
Q 847 1681 609 1914 
Q 372 2147 372 2553 
Q 372 3047 722 3315 
Q 1072 3584 1716 3584 
Q 2034 3584 2315 3537 
Q 2597 3491 2834 3397 
z
" transform="scale(0.015625)"/>
       <path id="DejaVuSans-5d" d="M 1947 4863 
L 1947 -844 
L 622 -844 
L 622 -397 
L 1369 -397 
L 1369 4416 
L 622 4416 
L 622 4863 
L 1947 4863 
z
" transform="scale(0.015625)"/>
      </defs>
      <use xlink:href="#DejaVuSans-Oblique-74" transform="translate(0 0.015625)"/>
      <use xlink:href="#DejaVuSans-20" transform="translate(39.208984 0.015625)"/>
      <use xlink:href="#DejaVuSans-5b" transform="translate(70.996094 0.015625)"/>
      <use xlink:href="#DejaVuSans-6d" transform="translate(110.009766 0.015625)"/>
      <use xlink:href="#DejaVuSans-73" transform="translate(207.421875 0.015625)"/>
      <use xlink:href="#DejaVuSans-5d" transform="translate(259.521484 0.015625)"/>
     </g>
    </g>
   </g>
   <g id="matplotlib.axis_2">
    <g id="ytick_1">
     <g id="line2d_15">
      <path d="M 85.840625 506.16 
L 1201.840625 506.16 
" clip-path="url(#pd7711eacde)" style="fill: none; stroke: #b0b0b0; stroke-width: 0.8; stroke-linecap: square"/>
     </g>
     <g id="line2d_16">
      <defs>
       <path id="m82fc1e8a3f" d="M 0 0 
L -3.5 0 
" style="stroke: #000000; stroke-width: 0.8"/>
      </defs>
      <g>
       <use xlink:href="#m82fc1e8a3f" x="85.840625" y="506.16" style="stroke: #000000; stroke-width: 0.8"/>
      </g>
     </g>
     <g id="text_9">
      <!-- $\mathdefault{10^{-24}}$ -->
      <g transform="translate(28.620625 512.998594) scale(0.18 -0.18)">
       <defs>
        <path id="DejaVuSans-2212" d="M 678 2272 
L 4684 2272 
L 4684 1741 
L 678 1741 
L 678 2272 
z
" transform="scale(0.015625)"/>
       </defs>
       <use xlink:href="#DejaVuSans-31" transform="translate(0 0.765625)"/>
       <use xlink:href="#DejaVuSans-30" transform="translate(63.623047 0.765625)"/>
       <use xlink:href="#DejaVuSans-2212" transform="translate(128.203125 39.046875) scale(0.7)"/>
       <use xlink:href="#DejaVuSans-32" transform="translate(186.855469 39.046875) scale(0.7)"/>
       <use xlink:href="#DejaVuSans-34" transform="translate(231.391602 39.046875) scale(0.7)"/>
      </g>
     </g>
    </g>
    <g id="ytick_2">
     <g id="line2d_17">
      <path d="M 85.840625 434.729938 
L 1201.840625 434.729938 
" clip-path="url(#pd7711eacde)" style="fill: none; stroke: #b0b0b0; stroke-width: 0.8; stroke-linecap: square"/>
     </g>
     <g id="line2d_18">
      <g>
       <use xlink:href="#m82fc1e8a3f" x="85.840625" y="434.729938" style="stroke: #000000; stroke-width: 0.8"/>
      </g>
     </g>
     <g id="text_10">
      <!-- $\mathdefault{10^{-22}}$ -->
      <g transform="translate(28.620625 441.568532) scale(0.18 -0.18)">
       <use xlink:href="#DejaVuSans-31" transform="translate(0 0.765625)"/>
       <use xlink:href="#DejaVuSans-30" transform="translate(63.623047 0.765625)"/>
       <use xlink:href="#DejaVuSans-2212" transform="translate(128.203125 39.046875) scale(0.7)"/>
       <use xlink:href="#DejaVuSans-32" transform="translate(186.855469 39.046875) scale(0.7)"/>
       <use xlink:href="#DejaVuSans-32" transform="translate(231.391602 39.046875) scale(0.7)"/>
      </g>
     </g>
    </g>
    <g id="ytick_3">
     <g id="line2d_19">
      <path d="M 85.840625 363.299877 
L 1201.840625 363.299877 
" clip-path="url(#pd7711eacde)" style="fill: none; stroke: #b0b0b0; stroke-width: 0.8; stroke-linecap: square"/>
     </g>
     <g id="line2d_20">
      <g>
       <use xlink:href="#m82fc1e8a3f" x="85.840625" y="363.299877" style="stroke: #000000; stroke-width: 0.8"/>
      </g>
     </g>
     <g id="text_11">
      <!-- $\mathdefault{10^{-20}}$ -->
      <g transform="translate(28.620625 370.138471) scale(0.18 -0.18)">
       <use xlink:href="#DejaVuSans-31" transform="translate(0 0.765625)"/>
       <use xlink:href="#DejaVuSans-30" transform="translate(63.623047 0.765625)"/>
       <use xlink:href="#DejaVuSans-2212" transform="translate(128.203125 39.046875) scale(0.7)"/>
       <use xlink:href="#DejaVuSans-32" transform="translate(186.855469 39.046875) scale(0.7)"/>
       <use xlink:href="#DejaVuSans-30" transform="translate(231.391602 39.046875) scale(0.7)"/>
      </g>
     </g>
    </g>
    <g id="ytick_4">
     <g id="line2d_21">
      <path d="M 85.840625 291.869815 
L 1201.840625 291.869815 
" clip-path="url(#pd7711eacde)" style="fill: none; stroke: #b0b0b0; stroke-width: 0.8; stroke-linecap: square"/>
     </g>
     <g id="line2d_22">
      <g>
       <use xlink:href="#m82fc1e8a3f" x="85.840625" y="291.869815" style="stroke: #000000; stroke-width: 0.8"/>
      </g>
     </g>
     <g id="text_12">
      <!-- $\mathdefault{10^{-18}}$ -->
      <g transform="translate(28.620625 298.708409) scale(0.18 -0.18)">
       <use xlink:href="#DejaVuSans-31" transform="translate(0 0.765625)"/>
       <use xlink:href="#DejaVuSans-30" transform="translate(63.623047 0.765625)"/>
       <use xlink:href="#DejaVuSans-2212" transform="translate(128.203125 39.046875) scale(0.7)"/>
       <use xlink:href="#DejaVuSans-31" transform="translate(186.855469 39.046875) scale(0.7)"/>
       <use xlink:href="#DejaVuSans-38" transform="translate(231.391602 39.046875) scale(0.7)"/>
      </g>
     </g>
    </g>
    <g id="ytick_5">
     <g id="line2d_23">
      <path d="M 85.840625 220.439754 
L 1201.840625 220.439754 
" clip-path="url(#pd7711eacde)" style="fill: none; stroke: #b0b0b0; stroke-width: 0.8; stroke-linecap: square"/>
     </g>
     <g id="line2d_24">
      <g>
       <use xlink:href="#m82fc1e8a3f" x="85.840625" y="220.439754" style="stroke: #000000; stroke-width: 0.8"/>
      </g>
     </g>
     <g id="text_13">
      <!-- $\mathdefault{10^{-16}}$ -->
      <g transform="translate(28.620625 227.278348) scale(0.18 -0.18)">
       <use xlink:href="#DejaVuSans-31" transform="translate(0 0.765625)"/>
       <use xlink:href="#DejaVuSans-30" transform="translate(63.623047 0.765625)"/>
       <use xlink:href="#DejaVuSans-2212" transform="translate(128.203125 39.046875) scale(0.7)"/>
       <use xlink:href="#DejaVuSans-31" transform="translate(186.855469 39.046875) scale(0.7)"/>
       <use xlink:href="#DejaVuSans-36" transform="translate(231.391602 39.046875) scale(0.7)"/>
      </g>
     </g>
    </g>
    <g id="ytick_6">
     <g id="line2d_25">
      <path d="M 85.840625 149.009692 
L 1201.840625 149.009692 
" clip-path="url(#pd7711eacde)" style="fill: none; stroke: #b0b0b0; stroke-width: 0.8; stroke-linecap: square"/>
     </g>
     <g id="line2d_26">
      <g>
       <use xlink:href="#m82fc1e8a3f" x="85.840625" y="149.009692" style="stroke: #000000; stroke-width: 0.8"/>
      </g>
     </g>
     <g id="text_14">
      <!-- $\mathdefault{10^{-14}}$ -->
      <g transform="translate(28.620625 155.848286) scale(0.18 -0.18)">
       <use xlink:href="#DejaVuSans-31" transform="translate(0 0.684375)"/>
       <use xlink:href="#DejaVuSans-30" transform="translate(63.623047 0.684375)"/>
       <use xlink:href="#DejaVuSans-2212" transform="translate(128.203125 38.965625) scale(0.7)"/>
       <use xlink:href="#DejaVuSans-31" transform="translate(186.855469 38.965625) scale(0.7)"/>
       <use xlink:href="#DejaVuSans-34" transform="translate(231.391602 38.965625) scale(0.7)"/>
      </g>
     </g>
    </g>
    <g id="ytick_7">
     <g id="line2d_27">
      <path d="M 85.840625 77.579631 
L 1201.840625 77.579631 
" clip-path="url(#pd7711eacde)" style="fill: none; stroke: #b0b0b0; stroke-width: 0.8; stroke-linecap: square"/>
     </g>
     <g id="line2d_28">
      <g>
       <use xlink:href="#m82fc1e8a3f" x="85.840625" y="77.579631" style="stroke: #000000; stroke-width: 0.8"/>
      </g>
     </g>
     <g id="text_15">
      <!-- $\mathdefault{10^{-12}}$ -->
      <g transform="translate(28.620625 84.418225) scale(0.18 -0.18)">
       <use xlink:href="#DejaVuSans-31" transform="translate(0 0.765625)"/>
       <use xlink:href="#DejaVuSans-30" transform="translate(63.623047 0.765625)"/>
       <use xlink:href="#DejaVuSans-2212" transform="translate(128.203125 39.046875) scale(0.7)"/>
       <use xlink:href="#DejaVuSans-31" transform="translate(186.855469 39.046875) scale(0.7)"/>
       <use xlink:href="#DejaVuSans-32" transform="translate(231.391602 39.046875) scale(0.7)"/>
      </g>
     </g>
    </g>
    <g id="text_16">
     <!-- $n_k$ [mol] -->
     <g transform="translate(20.877188 292.95) rotate(-90) scale(0.18 -0.18)">
      <defs>
       <path id="DejaVuSans-Oblique-6e" d="M 3566 2113 
L 3156 0 
L 2578 0 
L 2988 2091 
Q 3016 2238 3031 2350 
Q 3047 2463 3047 2528 
Q 3047 2791 2881 2937 
Q 2716 3084 2419 3084 
Q 1956 3084 1622 2776 
Q 1288 2469 1184 1941 
L 800 0 
L 225 0 
L 903 3500 
L 1478 3500 
L 1363 2950 
Q 1603 3253 1940 3418 
Q 2278 3584 2650 3584 
Q 3113 3584 3367 3334 
Q 3622 3084 3622 2631 
Q 3622 2519 3608 2391 
Q 3594 2263 3566 2113 
z
" transform="scale(0.015625)"/>
       <path id="DejaVuSans-Oblique-6b" d="M 1172 4863 
L 1747 4863 
L 1197 2028 
L 3169 3500 
L 3916 3500 
L 1716 1825 
L 3322 0 
L 2625 0 
L 1131 1709 
L 800 0 
L 225 0 
L 1172 4863 
z
" transform="scale(0.015625)"/>
       <path id="DejaVuSans-6f" d="M 1959 3097 
Q 1497 3097 1228 2736 
Q 959 2375 959 1747 
Q 959 1119 1226 758 
Q 1494 397 1959 397 
Q 2419 397 2687 759 
Q 2956 1122 2956 1747 
Q 2956 2369 2687 2733 
Q 2419 3097 1959 3097 
z
M 1959 3584 
Q 2709 3584 3137 3096 
Q 3566 2609 3566 1747 
Q 3566 888 3137 398 
Q 2709 -91 1959 -91 
Q 1206 -91 779 398 
Q 353 888 353 1747 
Q 353 2609 779 3096 
Q 1206 3584 1959 3584 
z
" transform="scale(0.015625)"/>
       <path id="DejaVuSans-6c" d="M 603 4863 
L 1178 4863 
L 1178 0 
L 603 0 
L 603 4863 
z
" transform="scale(0.015625)"/>
      </defs>
      <use xlink:href="#DejaVuSans-Oblique-6e" transform="translate(0 0.015625)"/>
      <use xlink:href="#DejaVuSans-Oblique-6b" transform="translate(63.378906 -16.390625) scale(0.7)"/>
      <use xlink:href="#DejaVuSans-20" transform="translate(106.650391 0.015625)"/>
      <use xlink:href="#DejaVuSans-5b" transform="translate(138.4375 0.015625)"/>
      <use xlink:href="#DejaVuSans-6d" transform="translate(177.451172 0.015625)"/>
      <use xlink:href="#DejaVuSans-6f" transform="translate(274.863281 0.015625)"/>
      <use xlink:href="#DejaVuSans-6c" transform="translate(336.044922 0.015625)"/>
      <use xlink:href="#DejaVuSans-5d" transform="translate(363.828125 0.015625)"/>
     </g>
    </g>
   </g>
   <g id="line2d_29">
    <path d="M 153.231562 560.20125 
L 153.344372 31.268625 
L 203.885884 31.268528 
L 1151.113352 31.264221 
L 1151.113352 31.264221 
" clip-path="url(#pd7711eacde)" style="fill: none; stroke: #e41a1c; stroke-linecap: square"/>
   </g>
   <g id="line2d_30">
    <path d="M 136.567898 15.12334 
L 153.233122 15.230757 
L 153.234004 27.512613 
L 153.352801 26.930266 
L 1151.113352 26.931076 
L 1151.113352 26.931076 
" clip-path="url(#pd7711eacde)" style="fill: none; stroke: #377eb8; stroke-linecap: square"/>
   </g>
   <g id="line2d_31">
    <path d="M 136.715986 560.20125 
L 136.734432 382.103147 
L 136.734701 560.20125 
M 136.735118 560.20125 
L 136.735118 454.950918 
L 136.735118 560.20125 
M 136.73541 560.20125 
L 136.73541 488.191798 
L 136.73541 560.20125 
M 136.73693 560.20125 
L 136.736931 499.601508 
L 136.737781 560.20125 
M 137.033901 560.20125 
L 137.033901 559.428209 
L 137.033901 560.20125 
M 137.059401 560.20125 
L 137.059415 520.956218 
L 137.05943 560.20125 
M 137.084901 560.20125 
L 137.08493 482.479701 
L 137.084958 560.20125 
M 137.123184 560.20125 
L 137.123201 513.810522 
L 137.123218 560.20125 
M 137.148709 560.20125 
L 137.148716 543.533955 
L 137.155689 560.20125 
M 153.226331 560.20125 
L 153.233368 106.98956 
L 153.344372 235.272962 
L 153.471115 444.432057 
L 153.471986 443.408895 
L 153.477418 560.20125 
M 153.480059 560.20125 
L 153.481387 451.736095 
L 153.491984 560.20125 
M 153.494625 560.20125 
L 153.494628 465.842101 
L 153.49728 560.20125 
M 153.499921 560.20125 
L 153.499925 464.657541 
L 153.508307 560.20125 
M 153.511236 560.20125 
L 153.518582 476.095885 
L 153.518585 560.20125 
M 153.521516 560.20125 
L 153.522987 489.957578 
L 153.524458 560.20125 
M 153.530326 560.20125 
L 153.533265 490.731755 
L 153.533269 560.20125 
M 153.53652 560.20125 
L 153.536523 487.76206 
L 153.543041 560.20125 
M 153.546293 560.20125 
L 153.547924 509.989441 
L 153.549555 560.20125 
M 153.556066 560.20125 
L 153.559325 506.827714 
L 153.559328 560.20125 
M 153.562581 560.20125 
L 153.562583 518.577697 
L 153.562585 560.20125 
M 153.565839 560.20125 
L 153.567636 512.217906 
L 153.569411 560.20125 
M 153.569449 560.20125 
L 153.571228 502.503234 
L 153.571231 560.20125 
M 153.575904 560.20125 
L 153.575906 499.569231 
L 153.575909 560.20125 
M 153.580229 560.20125 
L 153.58023 535.363614 
L 153.586913 560.20125 
M 153.590251 560.20125 
L 153.590253 526.879171 
L 153.590255 560.20125 
M 153.59393 560.20125 
L 153.597609 507.546297 
L 153.599422 560.20125 
M 153.599493 560.20125 
L 153.601288 528.928186 
L 153.611804 560.20125 
M 153.616798 560.20125 
L 153.616801 518.572042 
L 153.618843 560.20125 
M 153.622919 560.20125 
L 153.622922 507.316752 
L 153.624962 560.20125 
M 153.627619 560.20125 
L 153.627894 557.008569 
L 153.627928 560.20125 
M 153.628432 560.20125 
L 153.628489 554.338062 
L 153.62888 560.20125 
M 153.630329 560.20125 
L 153.630331 560.189303 
L 153.630332 560.20125 
M 153.637758 560.20125 
L 153.638218 556.016623 
L 153.638219 560.20125 
M 153.64315 560.20125 
L 153.64425 548.400344 
L 153.64425 560.20125 
M 153.650838 560.20125 
L 153.650838 560.017322 
L 153.650838 560.20125 
M 153.661148 560.20125 
L 153.661148 556.757308 
L 153.661529 560.20125 
M 153.669094 560.20125 
L 153.669095 546.889353 
L 153.67017 560.20125 
M 153.677842 560.20125 
L 153.678548 552.559334 
L 153.679472 560.20125 
M 153.715176 560.20125 
L 153.715645 556.562246 
L 153.71605 560.20125 
M 153.955621 560.20125 
L 153.955625 533.568326 
L 153.955951 560.20125 
M 154.079943 560.20125 
L 154.086851 548.606558 
L 154.086854 560.20125 
M 154.105963 560.20125 
L 154.106725 548.132949 
L 154.107529 560.20125 
M 154.214893 560.20125 
L 154.217655 543.623236 
L 154.219749 560.20125 
M 154.23203 560.20125 
L 154.232035 524.008276 
L 154.232586 560.20125 
M 154.389678 560.20125 
L 154.395581 547.477583 
L 154.399845 560.20125 
M 154.422682 560.20125 
L 154.422958 555.002039 
L 154.423483 560.20125 
M 154.430036 560.20125 
L 154.432168 544.977419 
L 154.436369 560.20125 
M 154.440979 560.20125 
L 154.441026 560.000065 
L 154.441217 560.20125 
M 154.464761 560.20125 
L 154.468624 559.50236 
L 154.474532 537.622004 
L 154.48475 560.20125 
M 154.504625 560.20125 
L 154.50998 530.724683 
L 154.511014 560.20125 
M 154.512733 560.20125 
L 154.513275 557.254831 
L 154.513576 560.20125 
M 154.596679 560.20125 
L 154.94373 553.39635 
L 154.95935 553.474629 
L 155.037448 551.685866 
L 155.054979 551.963057 
L 155.125103 556.024336 
L 155.107572 549.930348 
L 155.142634 553.035453 
L 155.160165 543.157731 
L 155.177699 560.20125 
M 155.212747 560.20125 
L 155.230289 524.283904 
L 155.230291 560.20125 
M 155.235656 560.20125 
L 155.235658 538.08094 
L 155.238986 560.20125 
M 155.242165 560.20125 
L 155.243712 540.127067 
L 155.248704 560.20125 
M 155.252209 560.20125 
L 155.260312 548.06982 
L 155.36051 550.045827 
L 155.372005 550.015038 
L 155.434223 550.247298 
L 155.504351 549.371957 
L 155.562881 549.094129 
L 155.60738 549.810536 
L 155.682348 547.777332 
L 155.732327 545.69377 
L 155.757317 556.724022 
L 155.782306 541.631827 
L 155.797163 560.20125 
M 155.842377 560.20125 
L 155.85796 513.218638 
L 155.857981 560.20125 
M 155.892138 560.20125 
L 155.894569 542.738419 
L 155.896369 560.20125 
M 155.898244 560.20125 
L 155.900037 542.932878 
L 156.005233 548.928831 
L 156.251608 549.256312 
L 156.39488 549.554792 
L 156.428022 549.10535 
L 156.494306 546.132684 
L 156.512199 560.20125 
M 156.537464 560.20125 
L 156.560591 532.514843 
L 156.560617 560.20125 
M 156.619404 560.20125 
L 156.64027 534.830381 
L 156.640285 560.20125 
M 156.681974 560.20125 
L 156.702848 512.225093 
L 156.702877 560.20125 
M 156.727106 560.20125 
L 156.730506 549.544861 
L 156.834645 550.816134 
L 157.151992 552.050369 
L 157.186788 551.738096 
L 157.221585 553.05564 
L 157.256381 550.225442 
L 157.299794 552.46192 
L 158.265858 556.297769 
L 158.314763 555.958976 
L 158.363668 557.143818 
L 158.412573 555.007358 
L 158.452954 560.20125 
M 158.466181 560.20125 
L 158.510384 549.893994 
L 158.510398 560.20125 
M 158.645254 560.20125 
L 158.657099 558.620337 
L 158.706004 531.751834 
L 158.754909 559.226931 
L 158.76799 560.20125 
M 158.81334 560.20125 
L 158.835834 557.648085 
L 158.835837 560.20125 
M 158.934881 560.20125 
L 158.934882 558.35505 
L 159.03998 558.858287 
L 159.096715 559.811723 
L 159.127176 558.25801 
L 159.142488 560.20125 
M 159.164402 560.20125 
L 159.188097 553.468232 
L 159.188103 560.20125 
M 159.248999 560.20125 
L 159.249019 537.476766 
L 159.345768 560.20125 
M 159.494457 560.20125 
L 159.498295 560.074713 
L 159.498295 560.20125 
M 159.599595 560.20125 
L 159.599616 545.82973 
L 159.599637 560.20125 
M 159.700922 560.20125 
L 159.700937 550.159574 
L 159.700951 560.20125 
M 160.204525 560.20125 
L 160.222256 553.752428 
L 160.222267 560.20125 
M 160.407263 560.20125 
L 160.454327 528.741688 
L 160.520116 560.20125 
M 160.639465 560.20125 
L 160.639543 511.695021 
L 160.695787 560.20125 
M 160.864109 560.20125 
L 160.864238 479.893724 
L 160.873357 560.20125 
M 162.374781 560.20125 
L 162.435069 552.56973 
L 162.43509 560.20125 
M 162.630316 560.20125 
L 162.630422 522.074557 
L 162.642211 560.20125 
M 165.60473 560.20125 
L 165.652573 559.762335 
L 165.654122 560.20125 
M 185.944127 560.20125 
L 185.944209 540.436394 
L 186.09006 541.036873 
L 186.09016 560.20125 
M 385.576153 560.20125 
L 385.636787 560.03251 
L 385.737585 559.059583 
L 385.787985 559.849709 
L 385.838384 559.254401 
L 385.888783 556.765444 
L 385.939182 558.076494 
L 385.95824 560.20125 
M 386.014328 560.20125 
L 386.073148 552.541688 
L 386.098785 560.20125 
M 386.149357 560.20125 
L 386.198498 540.743886 
L 386.240287 560.20125 
M 386.323824 560.20125 
L 386.365632 522.840324 
L 386.365676 560.20125 
M 386.413833 560.20125 
L 386.433089 553.891284 
L 386.510113 555.120066 
L 387.965951 544.91779 
L 388.372012 541.023927 
L 388.425875 538.532882 
L 388.461784 545.227715 
L 388.479738 535.515438 
L 388.511346 560.20125 
M 388.519745 560.20125 
L 388.533601 536.278551 
L 388.638322 539.997663 
L 388.698163 541.445786 
L 388.713123 534.812545 
L 388.728083 545.701264 
L 388.81257 538.600944 
L 388.824893 535.134348 
L 388.923477 535.549596 
L 388.972769 533.863732 
L 388.985092 537.655853 
L 389.038029 520.99368 
L 389.017722 547.479124 
L 389.085652 532.921802 
L 389.103846 522.70319 
L 389.103855 560.20125 
M 389.122031 560.20125 
L 389.140232 527.314845 
L 389.231199 530.670748 
L 389.256944 532.056426 
L 389.264496 530.035629 
L 389.302254 522.429659 
L 389.302262 560.20125 
M 389.317352 560.20125 
L 389.339758 497.926229 
L 389.344327 560.20125 
M 389.35344 560.20125 
L 389.358008 472.670441 
L 389.358672 560.20125 
M 389.359997 560.20125 
L 389.465949 516.958805 
L 389.471238 560.20125 
M 389.478584 560.20125 
L 389.478589 503.787288 
L 389.481249 560.20125 
M 389.486557 560.20125 
L 389.489218 504.689669 
L 389.489222 560.20125 
M 389.495361 560.20125 
L 389.495365 522.051006 
L 389.495369 560.20125 
M 389.502339 560.20125 
L 389.502345 495.819054 
L 389.612289 560.20125 
M 389.619221 560.20125 
L 389.622697 483.366642 
L 389.72847 489.955674 
L 389.731375 484.055552 
L 389.734286 560.20125 
M 389.740086 560.20125 
L 389.742196 474.550181 
L 389.742202 560.20125 
M 389.744896 560.20125 
L 389.828179 441.248374 
L 389.828185 560.20125 
M 389.830326 560.20125 
L 389.831525 441.746051 
L 389.832112 560.20125 
M 389.832695 560.20125 
L 389.943806 357.403278 
L 389.991353 204.669658 
L 390.005854 428.65972 
L 390.006402 428.001593 
L 390.008854 427.881092 
L 390.012957 560.20125 
M 390.013363 560.20125 
L 390.014847 452.386422 
L 390.014848 560.20125 
M 390.015471 560.20125 
L 390.015471 454.642851 
L 390.021529 560.20125 
M 390.022081 560.20125 
L 390.022082 466.52047 
L 390.022083 560.20125 
M 390.022757 560.20125 
L 390.022757 472.615367 
L 390.022757 560.20125 
M 390.02329 560.20125 
L 390.023468 483.620745 
L 390.023647 560.20125 
M 390.024727 560.20125 
L 390.024727 450.930012 
L 390.024728 560.20125 
M 390.025152 560.20125 
L 390.025152 468.07986 
L 390.025183 560.20125 
M 390.025291 560.20125 
L 390.025292 475.184823 
L 390.029623 560.20125 
M 390.030206 560.20125 
L 390.030206 514.552539 
L 390.030207 560.20125 
M 390.03079 560.20125 
L 390.03079 491.200566 
L 390.030791 560.20125 
M 390.031373 560.20125 
L 390.031374 457.960348 
L 390.031605 560.20125 
M 390.032211 560.20125 
L 390.032212 438.432175 
L 390.032415 560.20125 
M 390.032984 560.20125 
L 390.032984 476.372849 
L 390.032984 560.20125 
M 390.033252 560.20125 
L 390.033386 439.017652 
L 390.033386 560.20125 
M 390.033966 560.20125 
L 390.033966 472.216536 
L 390.033967 560.20125 
M 390.03459 560.20125 
L 390.03459 505.779837 
L 390.034591 560.20125 
M 390.034902 560.20125 
L 390.034902 535.598619 
L 390.034903 560.20125 
M 390.035252 560.20125 
L 390.035252 493.36713 
L 390.035253 560.20125 
M 390.035601 560.20125 
L 390.035602 468.35246 
L 390.035602 560.20125 
M 390.036062 560.20125 
L 390.036062 492.638137 
L 390.036062 560.20125 
M 390.036688 560.20125 
L 390.036688 528.886151 
L 390.036887 560.20125 
M 390.037354 560.20125 
L 390.037483 544.812045 
L 390.038128 560.20125 
M 390.038773 560.20125 
L 390.038773 557.930378 
L 390.038773 560.20125 
M 390.039418 560.20125 
L 390.039418 524.073085 
L 390.040098 560.20125 
M 390.041138 560.20125 
L 390.041138 523.840883 
L 390.041139 560.20125 
M 390.041998 560.20125 
L 390.041998 505.183797 
L 390.041999 560.20125 
M 390.043037 560.20125 
L 390.043038 497.779133 
L 390.043558 560.20125 
M 390.044597 560.20125 
L 390.044598 533.532156 
L 390.044598 560.20125 
M 390.045637 560.20125 
L 390.045637 555.851831 
L 390.045637 560.20125 
M 390.046676 560.20125 
L 390.046677 500.525443 
L 390.046678 560.20125 
M 390.047716 560.20125 
L 390.047717 529.777972 
L 390.047717 560.20125 
M 390.049276 560.20125 
L 390.049276 544.153345 
L 390.049277 560.20125 
M 390.050316 560.20125 
L 390.050316 551.269242 
L 390.0506 560.20125 
M 390.050921 560.20125 
L 390.051356 522.09598 
L 390.051356 560.20125 
M 390.052502 560.20125 
L 390.052503 527.571019 
L 390.052503 560.20125 
M 390.054223 560.20125 
L 390.054797 503.54472 
L 390.05537 560.20125 
M 390.058237 560.20125 
L 390.058238 526.659597 
L 390.058626 560.20125 
M 390.060473 560.20125 
L 390.060794 535.147434 
L 390.060794 560.20125 
M 390.062071 560.20125 
L 390.062072 520.006011 
L 390.062073 560.20125 
M 390.063349 560.20125 
L 390.06335 488.093181 
L 390.063833 560.20125 
M 390.064618 560.20125 
L 390.065011 498.852267 
L 390.065404 560.20125 
M 390.06666 560.20125 
L 390.066661 502.746073 
L 390.067048 560.20125 
M 390.067974 560.20125 
L 390.067974 531.559931 
L 390.068051 560.20125 
M 390.069494 560.20125 
L 390.07024 496.660966 
L 390.070241 560.20125 
M 390.070985 560.20125 
L 390.070986 507.396227 
L 390.070987 560.20125 
M 390.072262 560.20125 
L 390.072478 497.543038 
L 390.072479 560.20125 
M 390.073449 560.20125 
L 390.073449 552.332267 
L 390.073449 560.20125 
M 390.074345 560.20125 
L 390.074346 501.025174 
L 390.074531 560.20125 
M 390.075324 560.20125 
L 390.075324 532.350651 
L 390.075325 560.20125 
M 390.07767 560.20125 
L 390.07767 559.062302 
L 390.07767 560.20125 
M 390.078648 560.20125 
L 390.078648 521.360808 
L 390.079627 560.20125 
M 390.080604 560.20125 
L 390.080605 531.577337 
L 390.080973 560.20125 
M 390.084071 560.20125 
L 390.084072 510.952152 
L 390.084073 560.20125 
M 390.087298 560.20125 
L 390.087708 507.139395 
L 390.088033 560.20125 
M 390.089753 560.20125 
L 390.089754 507.302713 
L 390.089834 560.20125 
M 390.090101 560.20125 
L 390.090101 556.773098 
L 390.090101 560.20125 
M 390.091305 560.20125 
L 390.091305 553.362399 
L 390.091305 560.20125 
M 390.091776 560.20125 
L 390.091777 512.213745 
L 390.091777 560.20125 
M 390.093019 560.20125 
L 390.09302 513.310704 
L 390.093355 560.20125 
M 390.094698 560.20125 
L 390.095084 500.957906 
L 390.095085 560.20125 
M 390.095856 560.20125 
L 390.095856 520.671311 
L 390.096084 560.20125 
M 390.098139 560.20125 
L 390.098281 547.939403 
L 390.098281 560.20125 
M 390.100485 560.20125 
L 390.100486 535.431121 
L 390.100486 560.20125 
M 390.10269 560.20125 
L 390.10269 554.421305 
L 390.10269 560.20125 
M 390.103792 560.20125 
L 390.103792 545.412058 
L 390.103926 560.20125 
M 390.104707 560.20125 
L 390.104894 536.346669 
L 390.104895 560.20125 
M 390.108279 560.20125 
L 390.10891 540.89596 
L 390.10891 560.20125 
M 390.110169 560.20125 
L 390.11017 537.623787 
L 390.11017 560.20125 
M 390.120324 560.20125 
L 390.120342 557.196002 
L 390.120342 560.20125 
M 390.121149 560.20125 
L 390.121149 556.262946 
L 390.121149 560.20125 
M 390.122038 560.20125 
L 390.122039 520.739931 
L 390.122039 560.20125 
M 390.123196 560.20125 
L 390.123196 492.389082 
L 390.123553 560.20125 
M 390.124575 560.20125 
L 390.124773 514.265516 
L 390.124808 560.20125 
M 390.147809 560.20125 
L 390.14781 537.409121 
L 390.148755 560.20125 
M 568.043573 560.20125 
L 568.04358 529.042487 
L 568.045141 560.20125 
M 568.059907 560.20125 
L 568.059914 513.522804 
L 568.060337 560.20125 
M 568.157881 560.20125 
L 568.157881 557.962579 
L 568.158949 560.20125 
M 568.174755 560.20125 
L 568.174757 539.716987 
L 568.177333 560.20125 
M 568.588823 560.20125 
L 568.588824 553.682812 
L 568.589625 560.20125 
M 568.609196 560.20125 
L 568.609202 517.192925 
L 568.609581 560.20125 
M 568.735028 560.20125 
L 568.73503 539.331608 
L 568.737205 560.20125 
M 568.747251 560.20125 
L 568.749111 505.727539 
L 568.750898 560.20125 
M 568.75769 560.20125 
L 568.757694 517.852125 
L 568.757697 560.20125 
M 568.762405 560.20125 
L 568.764759 494.772284 
L 568.767116 560.20125 
M 568.770164 560.20125 
L 568.770164 541.704965 
L 568.770165 560.20125 
M 568.77086 560.20125 
L 568.77086 539.661848 
L 568.77086 560.20125 
M 568.812512 560.20125 
L 568.812513 552.112738 
L 568.814236 560.20125 
M 568.821006 560.20125 
L 568.823837 526.197097 
L 568.82384 560.20125 
M 568.832327 560.20125 
L 568.832331 506.821196 
L 568.832737 560.20125 
M 568.833547 560.20125 
L 568.833547 544.149899 
L 568.833548 560.20125 
M 568.834617 560.20125 
L 568.835575 549.455562 
L 568.835575 560.20125 
M 568.880897 560.20125 
L 568.880897 552.749823 
L 568.880898 560.20125 
M 568.960733 560.20125 
L 568.961004 559.963638 
L 568.961258 560.20125 
M 568.963787 560.20125 
L 568.964806 558.117642 
L 568.966085 560.20125 
M 568.967305 560.20125 
L 568.969278 550.917488 
L 568.969777 560.20125 
M 568.972075 560.20125 
L 568.972632 538.458918 
L 568.97375 560.20125 
M 568.977102 560.20125 
L 568.977103 511.215676 
L 568.978223 560.20125 
M 568.981573 560.20125 
L 568.981575 479.157624 
L 568.982695 560.20125 
M 568.985379 560.20125 
L 568.98538 501.284066 
L 568.985381 560.20125 
M 568.986729 560.20125 
L 568.986731 494.174542 
L 568.987406 560.20125 
M 568.988755 560.20125 
L 568.988757 498.906528 
L 568.98964 560.20125 
M 568.991402 560.20125 
L 568.991403 530.645794 
L 568.991404 560.20125 
M 568.994049 560.20125 
L 568.99405 512.257519 
L 568.994051 560.20125 
M 568.996695 560.20125 
L 568.996696 506.5904 
L 568.997579 560.20125 
M 568.999342 560.20125 
L 569.000225 500.003753 
L 569.000227 560.20125 
M 569.001989 560.20125 
L 569.002872 502.068081 
L 569.002873 560.20125 
M 569.004635 560.20125 
L 569.005369 480.818554 
L 569.005371 560.20125 
M 569.007567 560.20125 
L 569.009766 508.024805 
L 569.009767 560.20125 
M 569.011231 560.20125 
L 569.011965 503.757973 
L 569.011966 560.20125 
M 569.01343 560.20125 
L 569.014163 495.138371 
L 569.014165 560.20125 
M 569.01636 560.20125 
L 569.016362 487.543826 
L 569.01697 560.20125 
M 569.018789 560.20125 
L 569.018791 457.437508 
L 569.019293 560.20125 
M 569.020292 560.20125 
L 569.020293 478.972765 
L 569.020794 560.20125 
M 569.021793 560.20125 
L 569.022979 465.373653 
L 569.022981 560.20125 
M 569.024755 560.20125 
L 569.024757 488.298398 
L 569.029497 560.20125 
M 569.030472 560.20125 
L 569.071675 300.588596 
L 569.090916 560.20125 
M 569.091407 560.20125 
L 569.092256 466.691743 
L 569.092257 560.20125 
M 569.092643 560.20125 
L 569.092644 456.970391 
L 569.092644 560.20125 
M 569.093225 560.20125 
L 569.093419 468.288236 
L 569.09342 560.20125 
M 569.094 560.20125 
L 569.094388 459.305143 
L 569.095708 560.20125 
M 569.096146 560.20125 
L 569.096587 464.3694 
L 569.096807 560.20125 
M 569.097685 560.20125 
L 569.097906 456.254557 
L 569.098126 560.20125 
M 569.098565 560.20125 
L 569.098785 448.623287 
L 569.099005 560.20125 
M 569.09936 560.20125 
L 569.099361 437.964534 
L 569.099539 560.20125 
M 569.100072 560.20125 
L 569.100073 416.886807 
L 569.100103 560.20125 
M 569.100192 560.20125 
L 569.100221 465.663906 
L 569.100313 560.20125 
M 569.100425 560.20125 
L 569.100574 474.323114 
L 569.100723 560.20125 
M 569.100964 560.20125 
L 569.10113 501.656814 
L 569.10163 560.20125 
M 569.102016 560.20125 
L 569.102016 497.118296 
L 569.102016 560.20125 
M 569.102402 560.20125 
L 569.102403 475.263916 
L 569.102403 560.20125 
M 569.103083 560.20125 
L 569.103083 495.704452 
L 569.103084 560.20125 
M 569.104109 560.20125 
L 569.104992 484.619806 
L 569.104993 560.20125 
M 569.10558 560.20125 
L 569.105581 454.885486 
L 569.105818 560.20125 
M 569.105912 560.20125 
L 569.10596 497.654118 
L 569.106007 560.20125 
M 569.106244 560.20125 
L 569.108808 520.666861 
L 569.108808 560.20125 
M 569.109804 560.20125 
L 569.110597 511.66106 
L 569.110597 560.20125 
M 569.111388 560.20125 
L 569.111389 492.236882 
L 569.11139 560.20125 
M 569.11218 560.20125 
L 569.112181 462.899659 
L 569.11224 560.20125 
M 569.112358 560.20125 
L 569.112417 499.338003 
L 569.112417 560.20125 
M 569.112652 560.20125 
L 569.11277 505.194505 
L 569.113005 560.20125 
M 569.113422 560.20125 
L 569.113691 546.880581 
L 569.113972 560.20125 
M 569.114765 560.20125 
L 569.115882 545.795151 
L 569.115882 560.20125 
M 569.116551 560.20125 
L 569.116551 526.179717 
L 569.116551 560.20125 
M 569.117357 560.20125 
L 569.117358 469.8992 
L 569.117359 560.20125 
M 569.117883 560.20125 
L 569.117883 477.871995 
L 569.117943 560.20125 
M 569.118185 560.20125 
L 569.118185 491.30552 
L 569.118306 560.20125 
M 569.118867 560.20125 
L 569.119066 536.501834 
L 569.119066 560.20125 
M 569.120375 560.20125 
L 569.120701 528.942899 
L 569.121394 560.20125 
M 569.124445 560.20125 
L 569.124446 530.172237 
L 569.124446 560.20125 
M 569.125527 560.20125 
L 569.125528 501.060205 
L 569.125529 560.20125 
M 569.126609 560.20125 
L 569.12661 469.995597 
L 569.126689 560.20125 
M 569.126926 560.20125 
L 569.126926 512.904097 
L 569.126926 560.20125 
M 569.127459 560.20125 
L 569.127476 554.545884 
L 569.127476 560.20125 
M 569.130339 560.20125 
L 569.13034 541.957238 
L 569.13034 560.20125 
M 569.131121 560.20125 
L 569.131122 501.235286 
L 569.131123 560.20125 
M 569.132473 560.20125 
L 569.132953 482.320305 
L 569.133433 560.20125 
M 569.135104 560.20125 
L 569.135104 522.925039 
L 569.135104 560.20125 
M 569.136352 560.20125 
L 569.136664 492.432395 
L 569.136665 560.20125 
M 569.1372 560.20125 
L 569.1372 498.127099 
L 569.137271 560.20125 
M 569.137412 560.20125 
L 569.137552 530.12241 
L 569.137688 560.20125 
M 569.137712 560.20125 
L 569.137831 555.949389 
L 569.137831 560.20125 
M 569.138355 560.20125 
L 569.138355 530.123733 
L 569.138476 560.20125 
M 569.1386 560.20125 
L 569.13874 513.037331 
L 569.13874 560.20125 
M 569.139514 560.20125 
L 569.139805 526.29664 
L 569.139805 560.20125 
M 569.140386 560.20125 
L 569.140386 533.656899 
L 569.140387 560.20125 
M 569.141064 560.20125 
L 569.141064 489.285733 
L 569.141065 560.20125 
M 569.141742 560.20125 
L 569.141742 501.681311 
L 569.142082 560.20125 
M 569.143776 560.20125 
L 569.143777 511.218277 
L 569.143777 560.20125 
M 569.144952 560.20125 
L 569.144953 541.254077 
L 569.144953 560.20125 
M 569.146208 560.20125 
L 569.146208 542.567698 
L 569.146208 560.20125 
M 569.147045 560.20125 
L 569.147045 552.853548 
L 569.147045 560.20125 
M 569.147968 560.20125 
L 569.147968 517.676714 
L 569.147969 560.20125 
M 569.148977 560.20125 
L 569.148978 492.368791 
L 569.148979 560.20125 
M 569.150492 560.20125 
L 569.150492 556.358134 
L 569.151149 560.20125 
M 569.152787 560.20125 
L 569.153117 518.022206 
L 569.153118 560.20125 
M 569.154429 560.20125 
L 569.15443 509.533712 
L 569.154431 560.20125 
M 569.155742 560.20125 
L 569.155742 551.022176 
L 569.155742 560.20125 
M 569.163498 560.20125 
L 569.163499 520.79168 
L 569.1635 560.20125 
M 569.166301 560.20125 
L 569.166889 517.776599 
L 569.167817 560.20125 
M 569.17229 560.20125 
L 569.172291 505.588937 
L 569.172382 560.20125 
M 569.174726 560.20125 
L 569.174726 560.125026 
L 569.174726 560.20125 
M 569.178223 560.20125 
L 569.178224 519.211265 
L 569.178224 560.20125 
M 569.180163 560.20125 
L 569.180447 547.945357 
L 569.180447 560.20125 
M 569.182845 560.20125 
L 569.182845 531.524844 
L 569.183178 560.20125 
M 569.191424 560.20125 
L 569.191424 532.387933 
L 569.191425 560.20125 
M 569.193119 560.20125 
L 569.193119 549.283591 
L 569.19312 560.20125 
M 569.195809 560.20125 
L 569.19581 525.885246 
L 569.196649 560.20125 
M 569.196914 560.20125 
L 569.197801 507.392986 
L 569.198369 560.20125 
M 569.203775 560.20125 
L 569.203776 532.357324 
L 569.203777 560.20125 
M 569.205767 560.20125 
L 569.205767 558.569353 
L 569.205789 560.20125 
M 569.207551 560.20125 
L 569.207759 541.214195 
L 569.208257 560.20125 
M 569.217715 560.20125 
L 569.217716 523.623706 
L 569.217717 560.20125 
M 569.226586 560.20125 
L 569.226587 542.626795 
L 569.226587 560.20125 
M 569.228097 560.20125 
L 569.228099 559.498739 
L 569.228099 560.20125 
M 569.329539 560.20125 
L 569.329539 555.276125 
L 569.329563 560.20125 
M 569.335665 560.20125 
L 569.335833 556.666684 
L 569.335843 560.20125 
M 569.383303 560.20125 
L 569.383303 552.521509 
L 569.383316 560.20125 
M 722.035776 560.20125 
L 722.035785 524.381924 
L 722.036213 560.20125 
M 722.156189 560.20125 
L 722.160204 531.170357 
L 722.160207 560.20125 
M 722.333103 560.20125 
L 722.335023 552.903001 
L 722.335024 560.20125 
M 722.348015 560.20125 
L 722.351478 520.20241 
L 722.351482 560.20125 
M 722.360556 560.20125 
L 722.360559 523.453378 
L 722.360562 560.20125 
M 722.368987 560.20125 
L 722.368993 483.646255 
L 722.369436 560.20125 
M 722.37032 560.20125 
L 722.370321 525.386722 
L 722.370321 560.20125 
M 722.371206 560.20125 
L 722.371648 539.729118 
L 722.373001 560.20125 
M 722.389778 560.20125 
L 722.38978 530.444041 
L 722.391618 560.20125 
M 722.398424 560.20125 
L 722.398427 530.589961 
L 722.400173 560.20125 
M 722.40707 560.20125 
L 722.409956 510.644097 
L 722.40996 560.20125 
M 722.413676 560.20125 
L 722.413676 555.469611 
L 722.413676 560.20125 
M 722.414514 560.20125 
L 722.414514 542.908969 
L 722.414514 560.20125 
M 722.417027 560.20125 
L 722.417027 530.058264 
L 722.417866 560.20125 
M 722.427129 560.20125 
L 722.427129 555.449634 
L 722.427129 560.20125 
M 722.455331 560.20125 
L 722.455333 526.077152 
L 722.455336 560.20125 
M 722.462434 560.20125 
L 722.462435 549.161627 
L 722.462435 560.20125 
M 722.466783 560.20125 
L 722.466786 510.913912 
L 722.468963 560.20125 
M 722.471869 560.20125 
L 722.471869 538.775029 
L 722.471869 560.20125 
M 722.472599 560.20125 
L 722.4726 533.423084 
L 722.4726 560.20125 
M 722.474597 560.20125 
L 722.474598 532.009756 
L 722.475231 560.20125 
M 722.616443 560.20125 
L 722.617442 552.578696 
L 722.617442 560.20125 
M 722.620034 560.20125 
L 722.620257 549.99614 
L 722.620257 560.20125 
M 722.622712 560.20125 
L 722.622713 511.05835 
L 722.623533 560.20125 
M 722.625169 560.20125 
L 722.625989 483.283792 
L 722.625991 560.20125 
M 722.628444 560.20125 
L 722.629265 456.074272 
L 722.629267 560.20125 
M 722.630319 560.20125 
L 722.630319 480.218322 
L 722.63032 560.20125 
M 722.630673 560.20125 
L 722.630996 499.371189 
L 722.630996 560.20125 
M 722.631609 560.20125 
L 722.631609 533.978055 
L 722.631814 560.20125 
M 722.63286 560.20125 
L 722.632914 554.417018 
L 722.63323 560.20125 
M 722.633742 560.20125 
L 722.634154 551.943164 
L 722.634661 560.20125 
M 722.635674 560.20125 
L 722.636181 526.748313 
L 722.636181 560.20125 
M 722.6377 560.20125 
L 722.638208 500.440051 
L 722.638893 560.20125 
M 722.64014 560.20125 
L 722.640141 489.319221 
L 722.640705 560.20125 
M 722.641829 560.20125 
L 722.642393 464.371986 
L 722.642395 560.20125 
M 722.64408 560.20125 
L 722.644082 452.414426 
L 722.644164 560.20125 
M 722.644409 560.20125 
L 722.644409 481.795772 
L 722.644491 560.20125 
M 722.644955 560.20125 
L 722.644955 509.591396 
L 722.645083 560.20125 
M 722.646046 560.20125 
L 722.646046 519.664044 
L 722.646046 560.20125 
M 722.64683 560.20125 
L 722.646977 521.124929 
L 722.646978 560.20125 
M 722.648472 560.20125 
L 722.648473 486.054038 
L 722.648847 560.20125 
M 722.649967 560.20125 
L 722.649968 457.309088 
L 722.650979 560.20125 
M 722.651633 560.20125 
L 722.651709 489.879821 
L 722.651709 560.20125 
M 722.651936 560.20125 
L 722.652087 463.417075 
L 722.652239 560.20125 
M 722.652692 560.20125 
L 722.652933 494.094443 
L 722.653174 560.20125 
M 722.653655 560.20125 
L 722.653655 527.651517 
L 722.653896 560.20125 
M 722.654578 560.20125 
L 722.65526 476.678911 
L 722.655261 560.20125 
M 722.656283 560.20125 
L 722.656625 456.863174 
L 722.656626 560.20125 
M 722.657475 560.20125 
L 722.657476 491.220824 
L 722.657477 560.20125 
M 722.658131 560.20125 
L 722.658204 462.841095 
L 722.658205 560.20125 
M 722.658424 560.20125 
L 722.658536 447.527498 
L 722.658649 560.20125 
M 722.658985 560.20125 
L 722.659172 474.764566 
L 722.659359 560.20125 
M 722.659732 560.20125 
L 722.65992 515.317835 
L 722.65992 560.20125 
M 722.660736 560.20125 
L 722.662198 506.687191 
L 722.662198 560.20125 
M 722.662843 560.20125 
L 722.662844 492.497776 
L 722.662845 560.20125 
M 722.663489 560.20125 
L 722.66349 470.119492 
L 722.66388 560.20125 
M 722.664657 560.20125 
L 722.664657 504.612436 
L 722.665047 560.20125 
M 722.665824 560.20125 
L 722.666214 514.895245 
L 722.666215 560.20125 
M 722.666992 560.20125 
L 722.669916 501.529334 
L 722.669917 560.20125 
M 722.670793 560.20125 
L 722.670794 494.514613 
L 722.670795 560.20125 
M 722.671671 560.20125 
L 722.671672 479.076037 
L 722.672112 560.20125 
M 722.672818 560.20125 
L 722.673173 458.321072 
L 722.673174 560.20125 
M 722.674233 560.20125 
L 722.674234 437.583402 
L 722.674589 560.20125 
M 722.675444 560.20125 
L 722.675445 441.081721 
L 722.675446 560.20125 
M 722.676103 560.20125 
L 722.676104 408.144518 
L 722.676181 560.20125 
M 722.676297 560.20125 
L 722.676355 441.251392 
L 722.67647 560.20125 
M 722.676599 560.20125 
L 722.678194 467.594697 
L 722.678194 560.20125 
M 722.678539 560.20125 
L 722.67854 448.98891 
L 722.678755 560.20125 
M 722.679182 560.20125 
L 722.679396 472.471865 
L 722.679825 560.20125 
M 722.680298 560.20125 
L 722.680773 462.523348 
L 722.680773 560.20125 
M 722.681246 560.20125 
L 722.681247 459.127638 
L 722.681247 560.20125 
M 722.68172 560.20125 
L 722.681721 443.635495 
L 722.681722 560.20125 
M 722.682443 560.20125 
L 722.682444 446.90109 
L 722.682444 560.20125 
M 722.68289 560.20125 
L 722.68289 459.333372 
L 722.683039 560.20125 
M 722.683415 560.20125 
L 722.683416 458.371491 
L 722.683416 560.20125 
M 722.683792 560.20125 
L 722.683793 430.819009 
L 722.683794 560.20125 
M 722.684169 560.20125 
L 722.68417 406.742187 
L 722.684598 560.20125 
M 722.684885 560.20125 
L 722.684885 433.830495 
L 722.684981 560.20125 
M 722.685267 560.20125 
L 722.685268 444.483235 
L 722.685364 560.20125 
M 722.685576 560.20125 
L 722.685694 445.700286 
L 722.685694 560.20125 
M 722.686046 560.20125 
L 722.686164 423.076162 
L 722.686164 560.20125 
M 722.686516 560.20125 
L 722.686516 408.227651 
L 722.686723 560.20125 
M 722.686901 560.20125 
L 722.686901 451.5545 
L 722.686937 560.20125 
M 722.687084 560.20125 
L 722.698188 438.40495 
L 722.723441 560.20125 
M 722.723993 560.20125 
L 722.723993 492.827814 
L 722.723994 560.20125 
M 722.724625 560.20125 
L 722.724626 476.642616 
L 722.724943 560.20125 
M 722.725891 560.20125 
L 722.726524 491.635804 
L 722.726525 560.20125 
M 722.728719 560.20125 
L 722.72872 455.345596 
L 722.728721 560.20125 
M 722.729723 560.20125 
L 722.729724 423.523531 
L 722.729773 560.20125 
M 722.72992 560.20125 
L 722.72992 456.503951 
L 722.729969 560.20125 
M 722.730197 560.20125 
L 722.730279 455.466063 
L 722.730279 560.20125 
M 722.730523 560.20125 
L 722.730524 438.723433 
L 722.730606 560.20125 
M 722.730863 560.20125 
L 722.730863 456.620703 
L 722.730959 560.20125 
M 722.731148 560.20125 
L 722.731243 497.159832 
L 722.73138 560.20125 
M 722.731791 560.20125 
L 722.731791 529.329839 
L 722.732339 560.20125 
M 722.732825 560.20125 
L 722.733163 538.031599 
L 722.739425 560.20125 
M 722.739919 560.20125 
L 722.740149 544.10645 
L 722.740149 560.20125 
M 722.741003 560.20125 
L 722.741003 518.294606 
L 722.741004 560.20125 
M 722.741856 560.20125 
L 722.741857 484.708792 
L 722.741858 560.20125 
M 722.742872 560.20125 
L 722.742872 497.274836 
L 722.742872 560.20125 
M 722.743286 560.20125 
L 722.743494 453.27958 
L 722.743494 560.20125 
M 722.744115 560.20125 
L 722.744116 431.97911 
L 722.744153 560.20125 
M 722.744263 560.20125 
L 722.744264 479.134485 
L 722.744301 560.20125 
M 722.744477 560.20125 
L 722.744536 531.476566 
L 722.744636 560.20125 
M 722.745527 560.20125 
L 722.745527 547.195777 
L 722.745622 560.20125 
M 722.74665 560.20125 
L 722.74665 559.792045 
L 722.746657 560.20125 
M 722.749289 560.20125 
L 722.74929 501.627211 
L 722.749291 560.20125 
M 722.750203 560.20125 
L 722.750205 463.569012 
L 722.750206 560.20125 
M 722.750796 560.20125 
L 722.750796 467.931946 
L 722.750796 560.20125 
M 722.750996 560.20125 
L 722.751063 494.969624 
L 722.751064 560.20125 
M 722.751498 560.20125 
L 722.751499 533.844679 
L 722.751499 560.20125 
M 722.758147 560.20125 
L 722.758147 552.621941 
L 722.758147 560.20125 
M 722.759326 560.20125 
L 722.759327 523.920716 
L 722.759328 560.20125 
M 722.760506 560.20125 
L 722.760507 492.891395 
L 722.760508 560.20125 
M 722.762046 560.20125 
L 722.762047 522.025835 
L 722.762047 560.20125 
M 722.762996 560.20125 
L 722.762996 554.778423 
L 722.763151 560.20125 
M 722.763588 560.20125 
L 722.763946 525.814941 
L 722.763947 560.20125 
M 722.766873 560.20125 
L 722.767459 495.480063 
L 722.76746 560.20125 
M 722.772001 560.20125 
L 722.772651 509.414332 
L 722.772652 560.20125 
M 722.775558 560.20125 
L 722.776181 511.659178 
L 722.776182 560.20125 
M 722.77906 560.20125 
L 722.779061 482.770128 
L 722.779655 560.20125 
M 722.780612 560.20125 
L 722.78109 496.896697 
L 722.781569 560.20125 
M 722.783118 560.20125 
L 722.783119 494.362935 
L 722.78409 560.20125 
M 722.78477 560.20125 
L 722.78477 520.314029 
L 722.784867 560.20125 
M 722.785061 560.20125 
L 722.785061 558.66256 
L 722.785074 560.20125 
M 722.805355 560.20125 
L 722.805356 546.630323 
L 722.805356 560.20125 
M 722.807622 560.20125 
L 722.807624 489.128314 
L 722.808496 560.20125 
M 722.809983 560.20125 
L 722.810628 506.707302 
L 722.811339 560.20125 
M 722.814011 560.20125 
L 722.814045 558.589167 
L 722.814045 560.20125 
M 722.815189 560.20125 
L 722.815191 495.826671 
L 722.815305 560.20125 
M 722.815649 560.20125 
L 722.815649 552.818676 
L 722.815649 560.20125 
M 722.828383 560.20125 
L 722.828383 553.878711 
L 722.828467 560.20125 
M 722.832808 560.20125 
L 722.832808 548.673078 
L 722.832809 560.20125 
M 722.837232 560.20125 
L 722.837234 517.6794 
L 722.837235 560.20125 
M 722.842929 560.20125 
L 722.842929 559.369316 
L 722.842944 560.20125 
M 722.844677 560.20125 
L 722.844765 554.581871 
L 722.844765 560.20125 
M 722.851658 560.20125 
L 722.85166 515.239005 
L 722.851661 560.20125 
M 722.861136 560.20125 
L 722.861137 522.41066 
L 722.8624 560.20125 
M 722.86501 560.20125 
L 722.865514 529.162943 
L 722.8663 560.20125 
M 722.884658 560.20125 
L 722.886863 538.93769 
L 722.886864 560.20125 
M 722.89298 560.20125 
L 722.892981 546.476398 
L 722.892981 560.20125 
M 722.896135 560.20125 
L 722.896135 542.04268 
L 722.896509 560.20125 
M 722.901395 560.20125 
L 722.901395 525.016296 
L 722.901396 560.20125 
M 722.903926 560.20125 
L 722.903927 517.935461 
L 722.904717 560.20125 
M 722.980092 560.20125 
L 722.980092 555.314194 
L 722.980108 560.20125 
M 722.983409 560.20125 
L 722.983409 528.064394 
L 722.983539 560.20125 
M 722.985178 560.20125 
L 722.985302 526.66587 
L 722.985302 560.20125 
M 723.000562 560.20125 
L 723.000562 556.400725 
L 723.000614 560.20125 
M 723.233221 560.20125 
L 723.233222 551.490536 
L 723.233247 560.20125 
M 857.662189 560.20125 
L 857.662194 543.613366 
L 857.662433 560.20125 
M 858.065508 560.20125 
L 858.065508 559.870686 
L 858.065978 560.20125 
M 858.093466 560.20125 
L 858.093476 513.921306 
L 858.094023 560.20125 
M 858.096496 560.20125 
L 858.096496 556.992134 
L 858.096496 560.20125 
M 858.110321 560.20125 
L 858.111884 535.136827 
L 858.111885 560.20125 
M 858.126682 560.20125 
L 858.126685 512.259377 
L 858.126689 560.20125 
M 858.267026 560.20125 
L 858.270263 553.526783 
L 858.270264 560.20125 
M 858.365495 560.20125 
L 858.365496 556.627975 
L 858.365944 560.20125 
M 858.378184 560.20125 
L 858.382414 528.707774 
L 858.382417 560.20125 
M 858.409529 560.20125 
L 858.409531 544.341891 
L 858.409532 560.20125 
M 858.419697 560.20125 
L 858.4197 530.541368 
L 858.42309 560.20125 
M 858.431518 560.20125 
L 858.431523 493.790414 
L 858.433556 560.20125 
M 858.437304 560.20125 
L 858.437308 479.352098 
L 858.439091 560.20125 
M 858.442479 560.20125 
L 858.44248 533.916888 
L 858.44248 560.20125 
M 858.54621 560.20125 
L 858.546211 544.892668 
L 858.547873 560.20125 
M 858.572632 560.20125 
L 858.572633 551.136237 
L 858.572633 560.20125 
M 858.597886 560.20125 
L 858.598768 554.017181 
L 858.598768 560.20125 
M 858.602894 560.20125 
L 858.602895 535.774857 
L 858.603536 560.20125 
M 858.606766 560.20125 
L 858.606767 524.678887 
L 858.606768 560.20125 
M 858.610129 560.20125 
L 858.611252 499.731714 
L 858.611254 560.20125 
M 858.614232 560.20125 
L 858.614233 536.586679 
L 858.614234 560.20125 
M 858.616092 560.20125 
L 858.616093 529.088134 
L 858.616094 560.20125 
M 858.618882 560.20125 
L 858.618883 540.599462 
L 858.618883 560.20125 
M 858.621672 560.20125 
L 858.621672 543.164329 
L 858.622097 560.20125 
M 858.624297 560.20125 
L 858.624298 526.314502 
L 858.625063 560.20125 
M 858.627357 560.20125 
L 858.627358 498.252473 
L 858.62736 560.20125 
M 858.629652 560.20125 
L 858.629654 490.856776 
L 858.63042 560.20125 
M 858.631949 560.20125 
L 858.631949 534.909922 
L 858.63195 560.20125 
M 858.634244 560.20125 
L 858.634245 538.266983 
L 858.634245 560.20125 
M 858.63654 560.20125 
L 858.636541 552.991912 
L 858.636541 560.20125 
M 858.724243 560.20125 
L 858.724243 536.061291 
L 858.724244 560.20125 
M 858.725655 560.20125 
L 858.725656 507.114618 
L 858.725658 560.20125 
M 858.727068 560.20125 
L 858.727069 475.593312 
L 858.727657 560.20125 
M 858.728562 560.20125 
L 858.729016 497.432828 
L 858.729017 560.20125 
M 858.729922 560.20125 
L 858.729922 524.515859 
L 858.729923 560.20125 
M 858.730828 560.20125 
L 858.730829 494.42604 
L 858.73083 560.20125 
M 858.733094 560.20125 
L 858.733095 499.861189 
L 858.733096 560.20125 
M 858.734454 560.20125 
L 858.734455 496.636703 
L 858.734909 560.20125 
M 858.736809 560.20125 
L 858.73681 479.059011 
L 858.736812 560.20125 
M 858.738303 560.20125 
L 858.738305 444.362695 
L 858.738804 560.20125 
M 858.739452 560.20125 
L 858.739452 466.892395 
L 858.739452 560.20125 
M 858.739678 560.20125 
L 858.739783 488.469062 
L 858.739887 560.20125 
M 858.740292 560.20125 
L 858.740292 552.659918 
L 858.74036 560.20125 
M 858.75306 560.20125 
L 858.753061 538.79032 
L 858.753061 560.20125 
M 858.754613 560.20125 
L 858.754614 513.520438 
L 858.754615 560.20125 
M 858.756165 560.20125 
L 858.756167 484.022586 
L 858.756812 560.20125 
M 858.757833 560.20125 
L 858.758344 504.153899 
L 858.758345 560.20125 
M 858.759366 560.20125 
L 858.759366 520.291639 
L 858.759367 560.20125 
M 858.760388 560.20125 
L 858.760389 493.467427 
L 858.7609 560.20125 
M 858.762944 560.20125 
L 858.762944 542.915791 
L 858.763455 560.20125 
M 858.764157 560.20125 
L 858.764157 510.174094 
L 858.764157 560.20125 
M 858.764524 560.20125 
L 858.764634 533.699604 
L 858.764817 560.20125 
M 858.764835 560.20125 
L 858.765206 534.104396 
L 858.765397 560.20125 
M 858.78946 560.20125 
L 858.78946 548.394442 
L 858.789461 560.20125 
M 858.792105 560.20125 
L 858.792107 513.894683 
L 858.792108 560.20125 
M 858.795491 560.20125 
L 858.795493 498.148882 
L 858.795495 560.20125 
M 858.798585 560.20125 
L 858.798588 467.361167 
L 858.798732 560.20125 
M 858.799163 560.20125 
L 858.799163 524.23883 
L 858.799163 560.20125 
M 858.816572 560.20125 
L 858.816573 513.724486 
L 858.816575 560.20125 
M 858.830503 560.20125 
L 858.831551 546.049134 
L 858.831552 560.20125 
M 858.838879 560.20125 
L 858.839721 518.966795 
L 858.839722 560.20125 
M 858.851576 560.20125 
L 858.852815 544.914725 
L 858.855421 560.20125 
M 858.858027 560.20125 
L 858.858027 550.353719 
L 858.858233 560.20125 
M 858.864817 560.20125 
L 858.865845 524.750605 
L 858.865847 560.20125 
M 858.871056 560.20125 
L 858.871057 509.295793 
L 858.871212 560.20125 
M 858.873853 560.20125 
L 858.873962 536.35115 
L 858.873963 560.20125 
M 858.874856 560.20125 
L 858.874856 549.022672 
L 858.874856 560.20125 
M 858.889131 560.20125 
L 858.889132 540.348663 
L 858.889132 560.20125 
M 858.891694 560.20125 
L 858.891695 513.024208 
L 858.891811 560.20125 
M 858.893368 560.20125 
L 858.893436 548.004276 
L 858.8938 560.20125 
M 858.896272 560.20125 
L 858.896631 524.131689 
L 858.897011 560.20125 
M 858.897861 560.20125 
L 858.898177 534.328499 
L 858.898178 560.20125 
M 858.899723 560.20125 
L 858.899724 522.436118 
L 858.899725 560.20125 
M 858.906555 560.20125 
L 858.906556 525.386127 
L 858.906557 560.20125 
M 858.908683 560.20125 
L 858.908685 508.179673 
L 858.909542 560.20125 
M 858.910587 560.20125 
L 858.910589 559.843339 
L 858.910589 560.20125 
M 858.99712 560.20125 
L 858.997123 528.120144 
L 858.997243 560.20125 
M 858.999752 560.20125 
L 858.999753 536.892464 
L 858.999753 560.20125 
M 859.000768 560.20125 
L 859.000768 555.856528 
L 859.000768 560.20125 
M 859.001783 560.20125 
L 859.001783 547.698154 
L 859.001783 560.20125 
M 859.010012 560.20125 
L 859.010013 532.419396 
L 859.010013 560.20125 
M 859.249376 560.20125 
L 859.25103 542.358573 
L 859.251071 560.20125 
M 980.648778 560.20125 
L 980.64878 555.928909 
L 980.64945 560.20125 
M 980.725971 560.20125 
L 980.725984 511.453774 
L 980.72665 560.20125 
M 980.896606 560.20125 
L 980.902301 543.418392 
L 980.903032 560.20125 
M 980.944389 560.20125 
L 980.944397 560.191734 
L 980.944397 560.20125 
M 980.964775 560.20125 
L 980.96478 538.537294 
L 980.9691 560.20125 
M 981.345687 560.20125 
L 981.348312 544.537469 
L 981.348315 560.20125 
M 981.367221 560.20125 
L 981.373528 508.383332 
L 981.374067 560.20125 
M 981.491369 560.20125 
L 981.491369 560.101461 
L 981.491369 560.20125 
M 981.546591 560.20125 
L 981.547394 556.346914 
L 981.547395 560.20125 
M 981.559813 560.20125 
L 981.563692 528.1742 
L 981.563696 560.20125 
M 981.575314 560.20125 
L 981.575321 501.401103 
L 981.575811 560.20125 
M 981.576877 560.20125 
L 981.576877 547.349047 
L 981.576877 560.20125 
M 981.652681 560.20125 
L 981.652682 544.301432 
L 981.652684 560.20125 
M 981.669622 560.20125 
L 981.669623 550.181264 
L 981.669624 560.20125 
M 981.679787 560.20125 
L 981.679788 550.861435 
L 981.679789 560.20125 
M 981.689951 560.20125 
L 981.689953 543.499253 
L 981.693341 560.20125 
M 981.701468 560.20125 
L 981.703506 533.166162 
L 981.703508 560.20125 
M 981.712128 560.20125 
L 981.71475 503.600498 
L 981.714755 560.20125 
M 981.718103 560.20125 
L 981.718103 541.75424 
L 981.718103 560.20125 
M 981.718837 560.20125 
L 981.718837 544.220989 
L 981.718837 560.20125 
M 981.721025 560.20125 
L 981.721025 545.248034 
L 981.721752 560.20125 
M 982.030935 560.20125 
L 982.030935 559.073551 
L 982.030949 560.20125 
M 982.096827 560.20125 
L 982.09683 517.056931 
L 982.097843 560.20125 
M 982.206907 560.20125 
L 982.206909 539.950353 
L 982.20691 560.20125 
M 982.211052 560.20125 
L 982.21117 546.755366 
L 982.21117 560.20125 
M 982.212012 560.20125 
L 982.212012 542.964286 
L 982.212013 560.20125 
M 982.220796 560.20125 
L 982.220796 545.216159 
L 982.220797 560.20125 
M 982.226857 560.20125 
L 982.226858 543.850212 
L 982.227555 560.20125 
M 982.241598 560.20125 
L 982.241599 556.118148 
L 982.241599 560.20125 
M 982.246864 560.20125 
L 982.246865 526.016397 
L 982.246866 560.20125 
M 982.248845 560.20125 
L 982.248845 546.913335 
L 982.248846 560.20125 
M 982.250825 560.20125 
L 982.250826 537.129674 
L 982.25109 560.20125 
M 982.25587 560.20125 
L 982.25587 558.276865 
L 982.25587 560.20125 
M 982.258522 560.20125 
L 982.258523 532.363832 
L 982.258524 560.20125 
M 982.26409 560.20125 
L 982.264091 521.255306 
L 982.264652 560.20125 
M 982.273414 560.20125 
L 982.273415 535.071852 
L 982.273417 560.20125 
M 982.32601 560.20125 
L 982.326013 527.783135 
L 982.328625 560.20125 
M 982.334519 560.20125 
L 982.334799 542.418747 
L 982.335504 560.20125 
M 982.353895 560.20125 
L 982.353896 545.466572 
L 982.353932 560.20125 
M 982.415921 560.20125 
L 982.415922 550.917849 
L 982.416153 560.20125 
M 982.594692 560.20125 
L 982.594692 556.86745 
L 982.594853 560.20125 
M 1094.774145 560.20125 
L 1094.774148 556.229331 
L 1094.774246 560.20125 
M 1095.554746 560.20125 
L 1095.555136 559.055625 
L 1095.555137 560.20125 
M 1095.583952 560.20125 
L 1095.583957 540.415044 
L 1095.585129 560.20125 
M 1095.601316 560.20125 
L 1095.601322 523.407256 
L 1095.606675 560.20125 
M 1095.689985 560.20125 
L 1095.689986 554.579272 
L 1095.689987 560.20125 
M 1095.914994 560.20125 
L 1095.919284 537.431364 
L 1095.919289 560.20125 
M 1096.456777 560.20125 
L 1096.456778 550.248704 
L 1096.457185 560.20125 
M 1096.483128 560.20125 
L 1096.483129 554.674145 
L 1096.483129 560.20125 
M 1096.489714 560.20125 
L 1096.489716 538.922828 
L 1096.489718 560.20125 
M 1096.4963 560.20125 
L 1096.496304 519.307632 
L 1096.496308 560.20125 
M 1096.513132 560.20125 
L 1096.513134 535.830272 
L 1096.513135 560.20125 
M 1096.530526 560.20125 
L 1096.530526 559.116113 
L 1096.530602 560.20125 
M 1096.535916 560.20125 
L 1096.536619 547.475238 
L 1096.53662 560.20125 
M 1096.54271 560.20125 
L 1096.542712 533.68829 
L 1096.542715 560.20125 
M 1096.548801 560.20125 
L 1096.548805 511.619301 
L 1096.54881 560.20125 
M 1096.554892 560.20125 
L 1096.557351 483.958765 
L 1096.557355 560.20125 
M 1096.568928 560.20125 
L 1096.571424 495.234749 
L 1096.571429 560.20125 
M 1096.576411 560.20125 
L 1096.576415 504.65134 
L 1096.578266 560.20125 
M 1096.584843 560.20125 
L 1096.586658 486.499426 
L 1096.592177 560.20125 
M 1096.597689 560.20125 
L 1096.597691 525.635677 
L 1096.597694 560.20125 
M 1096.603206 560.20125 
L 1096.603208 538.270307 
L 1096.60321 560.20125 
M 1096.608722 560.20125 
L 1096.608724 535.629564 
L 1096.608726 560.20125 
M 1096.614239 560.20125 
L 1096.614241 535.465039 
L 1096.614243 560.20125 
M 1096.619755 560.20125 
L 1096.619757 530.484835 
L 1096.61976 560.20125 
M 1096.629614 560.20125 
L 1096.630791 530.814082 
L 1096.630793 560.20125 
M 1096.647935 560.20125 
L 1096.647936 554.15404 
L 1096.647937 560.20125 
M 1096.666272 560.20125 
L 1096.666273 544.216721 
L 1096.667813 560.20125 
M 1096.689159 560.20125 
L 1096.689224 556.291854 
L 1096.689224 560.20125 
M 1096.690262 560.20125 
L 1096.690262 555.24791 
L 1096.690262 560.20125 
M 1096.713477 560.20125 
L 1096.713478 554.778141 
L 1096.713478 560.20125 
M 1096.718463 560.20125 
L 1096.718466 512.172306 
L 1096.71847 560.20125 
M 1096.721836 560.20125 
L 1096.722065 545.256109 
L 1096.722065 560.20125 
M 1096.865055 560.20125 
L 1096.865056 555.242093 
L 1096.865226 560.20125 
M 1096.888676 560.20125 
L 1096.888678 539.825183 
L 1096.88868 560.20125 
M 1097.103258 560.20125 
L 1097.10326 548.881225 
L 1097.105398 560.20125 
M 1097.114267 560.20125 
L 1097.11427 533.146291 
L 1097.117942 560.20125 
" clip-path="url(#pd7711eacde)" style="fill: none; stroke: #1f77b4; stroke-linecap: square"/>
   </g>
   <g id="line2d_32">
    <path d="M 153.231572 560.20125 
L 153.23395 88.343525 
L 153.343414 204.655325 
L 153.481387 209.034342 
L 153.753661 210.144727 
L 154.148905 210.848797 
L 154.697247 211.372868 
L 155.504351 211.819427 
L 156.730506 212.22111 
L 158.608194 212.58818 
L 161.682337 212.943651 
L 166.768149 213.285607 
L 175.293268 213.616348 
L 190.359095 213.952699 
L 217.823514 214.313211 
L 276.695183 214.818709 
L 342.657052 215.449928 
L 365.467371 215.875001 
L 376.556168 216.28335 
L 382.319266 216.697825 
L 385.43519 217.123242 
L 387.205246 217.567836 
L 388.264286 218.047457 
L 388.911154 218.571165 
L 389.339758 219.204626 
L 389.630015 220.054536 
L 389.82105 221.370244 
L 389.932136 223.943797 
L 389.976917 232.065125 
L 389.991355 184.454469 
L 390.200038 321.824819 
L 390.468617 323.431696 
L 390.847991 324.401233 
L 391.355919 325.098281 
L 392.042763 325.656277 
L 393.000686 326.1391 
L 394.41116 326.586581 
L 396.536952 327.009903 
L 399.797526 327.414919 
L 404.926421 327.809624 
L 413.137235 328.200245 
L 426.891781 328.607678 
L 450.632943 329.063443 
L 541.742462 330.639839 
L 552.993276 331.113782 
L 559.246212 331.580725 
L 562.870832 332.053928 
L 565.075442 332.548303 
L 566.462423 333.076307 
L 567.34386 333.640477 
L 567.940891 334.285788 
L 568.354637 335.067688 
L 568.652647 336.138076 
L 568.857165 337.782173 
L 568.984705 340.90288 
L 569.045834 349.432826 
L 569.054625 352.928972 
L 569.066181 310.934178 
L 569.071883 283.36057 
L 569.169432 359.6086 
L 569.359669 363.338734 
L 569.650717 364.940857 
L 570.052857 366.113154 
L 570.571478 366.963204 
L 571.24155 367.639263 
L 572.156612 368.232506 
L 573.394372 368.759238 
L 575.192432 369.264117 
L 577.80165 369.745038 
L 581.570452 370.201913 
L 587.341912 370.66147 
L 596.330528 371.131558 
L 610.718214 371.635666 
L 635.868501 372.264266 
L 686.20196 373.498847 
L 700.067644 374.066392 
L 708.207318 374.604437 
L 713.130284 375.133825 
L 716.291071 375.68442 
L 718.287023 376.241392 
L 719.624603 376.830091 
L 720.549386 377.47049 
L 721.202993 378.188109 
L 721.689905 379.06201 
L 722.0523 380.196561 
L 722.317695 381.812212 
L 722.50374 384.483023 
L 722.617442 389.865543 
L 722.669916 399.362756 
L 722.684694 385.601039 
L 722.702157 366.049763 
L 722.791785 393.086056 
L 722.98129 398.939995 
L 723.002222 398.849603 
L 723.237411 401.383852 
L 723.620849 403.07308 
L 724.101519 404.231349 
L 724.70644 405.126313 
L 725.480974 405.871524 
L 726.49081 406.52405 
L 727.84258 407.120336 
L 729.721421 407.688018 
L 732.284109 408.219944 
L 736.024378 408.752351 
L 741.395633 409.276027 
L 749.21924 409.80477 
L 761.321392 410.383595 
L 781.937352 411.118004 
L 824.190282 412.593082 
L 836.043974 413.240683 
L 843.316245 413.841449 
L 848.014787 414.433893 
L 851.20585 415.050485 
L 853.312742 415.671105 
L 854.772921 416.318108 
L 855.814521 417.008706 
L 856.599243 417.794034 
L 857.19195 418.711491 
L 857.640687 419.824463 
L 857.992639 421.317776 
L 858.260189 423.491431 
L 858.455225 427.124141 
L 858.585013 434.390453 
L 858.925699 458.560384 
L 859.182395 462.7506 
L 859.473213 464.831885 
L 859.915732 466.623197 
L 860.449775 467.900611 
L 861.098781 468.899853 
L 861.925367 469.756392 
L 862.949467 470.491109 
L 864.273308 471.161649 
L 866.066799 471.804867 
L 868.469905 472.415234 
L 871.798968 473.014624 
L 876.480263 473.612336 
L 882.989953 474.208186 
L 892.658479 474.854669 
L 907.946105 475.631007 
L 951.929612 477.754179 
L 961.150802 478.46676 
L 967.165758 479.140764 
L 971.253625 479.81174 
L 974.061639 480.486543 
L 976.039855 481.177674 
L 977.484868 481.908335 
L 978.551313 482.687894 
L 979.360756 483.545579 
L 980.014625 484.570804 
L 980.522295 485.787112 
L 980.938144 487.385416 
L 981.266271 489.569924 
L 981.528719 492.957437 
L 981.730673 498.861583 
L 981.952874 514.034534 
L 982.291354 532.967204 
L 982.594692 537.575821 
L 983.385271 542.194964 
L 983.940275 543.72322 
L 984.601467 544.91943 
L 985.405648 545.918159 
L 986.35793 546.75745 
L 987.560789 547.525096 
L 989.128086 548.252006 
L 991.200798 548.950083 
L 993.913762 549.615308 
L 997.586598 550.273405 
L 1002.681745 550.942429 
L 1009.825554 551.637413 
L 1020.104182 552.39932 
L 1037.707562 553.453688 
L 1062.388434 554.964969 
L 1072.323057 555.794632 
L 1078.773935 556.538935 
L 1083.263468 557.264025 
L 1086.497959 558.000624 
L 1088.852196 558.758716 
L 1090.568634 559.537341 
L 1091.644991 560.20125 
L 1091.644991 560.20125 
" clip-path="url(#pd7711eacde)" style="fill: none; stroke: #ff7f0e; stroke-linecap: square"/>
   </g>
   <g id="line2d_33">
    <path d="M 153.23191 560.20125 
L 153.233948 149.893015 
L 153.343414 283.905016 
L 153.560954 285.128741 
L 153.886475 285.758639 
L 154.366582 286.195605 
L 155.107572 286.550292 
L 156.328596 286.867865 
L 158.461479 287.166522 
L 162.239715 287.44605 
L 169.280095 287.715621 
L 182.73557 287.978561 
L 209.737336 288.251912 
L 272.292919 288.616911 
L 350.614386 289.127139 
L 372.348684 289.468385 
L 381.498505 289.808241 
L 385.636787 290.158664 
L 387.667924 290.532994 
L 388.698163 290.92939 
L 389.264496 291.371657 
L 389.60187 291.919926 
L 389.810826 292.716323 
L 389.932136 294.188564 
L 389.980203 298.309833 
L 389.989009 356.081092 
L 389.991357 314.764819 
L 390.122039 471.261589 
L 390.349238 472.613585 
L 390.686203 473.341682 
L 391.166547 473.844866 
L 391.878307 474.25033 
L 393.000686 474.610991 
L 394.850355 474.946147 
L 397.957526 475.260356 
L 403.377626 475.562452 
L 413.137235 475.859765 
L 431.559181 476.170203 
L 469.770146 476.556697 
L 536.802227 477.247952 
L 553.185958 477.629817 
L 560.746556 478.005854 
L 564.476124 478.392548 
L 566.423604 478.797767 
L 567.504365 479.234643 
L 568.131845 479.719008 
L 568.518668 480.295137 
L 568.777439 481.103266 
L 568.942215 482.42561 
L 569.032915 485.310254 
L 569.061644 496.83325 
L 569.07212 471.33198 
L 569.186339 530.475645 
L 569.400183 532.599166 
L 569.711758 533.651226 
L 570.140972 534.345515 
L 570.730787 534.87329 
L 571.588743 535.324835 
L 572.862193 535.727657 
L 574.877115 536.11018 
L 578.10565 536.473734 
L 583.383852 536.823989 
L 592.447837 537.177221 
L 608.347007 537.547987 
L 640.124099 538.028918 
L 690.701025 538.814085 
L 705.322824 539.253568 
L 712.786311 539.679948 
L 716.800594 540.11332 
L 719.076793 540.567741 
L 720.390587 541.039171 
L 721.215375 541.560793 
L 721.747443 542.156672 
L 722.110678 542.902298 
L 722.369878 543.983688 
L 722.541392 545.756683 
L 722.644327 549.60112 
L 722.687535 560.20125 
L 722.687535 560.20125 
" clip-path="url(#pd7711eacde)" style="fill: none; stroke: #2ca02c; stroke-linecap: square"/>
   </g>
   <g id="line2d_34">
    <path d="M 153.231913 560.20125 
L 153.233961 216.251428 
L 153.343414 337.721885 
L 153.371222 337.672106 
L 153.458929 337.70618 
L 154.093759 337.779458 
L 157.343207 337.835439 
L 179.472859 337.879251 
L 389.973223 338.148656 
L 389.983911 338.470486 
L 389.988725 362.378072 
L 390.104894 545.256683 
L 517.875779 545.256961 
L 569.056669 545.363099 
L 569.065957 549.723742 
L 569.06875 560.20125 
L 569.06875 560.20125 
" clip-path="url(#pd7711eacde)" style="fill: none; stroke: #d62728; stroke-linecap: square"/>
   </g>
   <g id="line2d_35">
    <path d="M 136.734768 560.20125 
L 136.734768 390.282368 
L 136.73508 560.20125 
M 136.735156 560.20125 
L 136.735194 438.824057 
L 136.735363 560.20125 
M 136.735456 560.20125 
L 136.735779 486.466931 
L 136.736327 560.20125 
M 136.738744 560.20125 
L 136.738744 546.318299 
L 136.739929 560.20125 
M 137.046651 560.20125 
L 137.046658 540.192211 
L 137.046665 560.20125 
M 137.072151 560.20125 
L 137.072172 501.718548 
L 137.072194 560.20125 
M 137.097651 560.20125 
L 137.097687 463.239675 
L 137.110462 560.20125 
M 137.135945 560.20125 
L 137.135958 522.671798 
L 137.135972 560.20125 
M 153.228342 560.20125 
L 153.233473 102.296283 
L 153.341499 418.759022 
L 153.362895 452.735671 
L 153.364085 442.512206 
L 153.364089 560.20125 
M 153.366459 560.20125 
L 153.368843 424.609481 
L 153.370036 560.20125 
M 153.372408 560.20125 
L 153.375053 429.848988 
L 153.375058 560.20125 
M 153.377689 560.20125 
L 153.380336 409.637012 
L 153.380342 560.20125 
M 153.382972 560.20125 
L 153.382978 403.348714 
L 153.382984 560.20125 
M 153.385613 560.20125 
L 153.386643 380.863501 
L 153.386647 560.20125 
M 153.387783 560.20125 
L 153.387784 432.030022 
L 153.387938 560.20125 
M 153.388521 560.20125 
L 153.388522 432.413513 
L 153.389074 560.20125 
M 153.389623 560.20125 
L 153.39019 440.001954 
L 153.499925 481.259743 
L 153.764715 495.539877 
L 154.206398 507.386549 
L 154.740676 515.937594 
L 154.881252 517.814421 
L 154.896871 517.341335 
L 154.912491 519.949818 
L 154.928111 512.909261 
L 155.006208 519.083196 
L 155.090041 520.44217 
L 155.107572 519.089598 
L 155.142634 515.933512 
L 155.160165 544.143789 
L 155.177696 505.140589 
L 155.177723 560.20125 
M 155.21272 560.20125 
L 155.212758 485.636233 
L 155.212795 560.20125 
M 155.235654 560.20125 
L 155.235658 504.082586 
L 155.235662 560.20125 
M 155.241025 560.20125 
L 155.243712 516.989552 
L 155.349014 522.493303 
L 155.732327 525.931354 
L 155.757317 525.09171 
L 155.782306 529.261788 
L 155.807296 518.465006 
L 155.826819 526.190614 
L 155.826834 560.20125 
M 155.85794 560.20125 
L 155.873531 501.384118 
L 155.873557 560.20125 
M 155.891833 560.20125 
L 155.894569 523.14667 
L 155.989866 527.580613 
L 156.834645 532.695417 
L 157.777334 537.121896 
L 158.876297 541.224115 
L 160.055561 544.798353 
L 161.37192 548.101603 
L 162.839337 551.185051 
L 164.39143 553.951236 
L 166.135091 556.611959 
L 168.017413 559.085834 
L 168.960476 560.20125 
M 375.690897 560.20125 
L 377.497973 557.85356 
L 379.258964 555.191852 
L 380.741757 552.568986 
L 382.141103 549.65839 
L 383.399868 546.541473 
L 384.574544 543.025598 
L 385.636787 539.100838 
L 386.568891 534.757012 
L 387.361471 529.995688 
L 388.052222 524.47925 
L 388.638322 517.955067 
L 389.112942 510.108679 
L 389.483903 500.074526 
L 389.737187 487.104167 
L 389.900684 466.25226 
L 389.973429 423.560486 
L 389.991399 215.26845 
L 390.007262 560.20125 
M 390.007768 560.20125 
L 390.007902 556.538817 
L 390.008167 560.20125 
M 390.008689 560.20125 
L 390.008985 552.828539 
L 390.009085 560.20125 
M 390.597256 560.20125 
L 390.597257 551.562891 
L 390.597259 560.20125 
M 390.608581 560.20125 
L 390.608588 517.529233 
L 390.608595 560.20125 
M 390.619907 560.20125 
L 390.619919 483.55458 
L 390.625591 560.20125 
M 390.636911 560.20125 
L 390.636915 532.51893 
L 390.63692 560.20125 
M 390.667219 560.20125 
L 390.673551 495.442822 
L 390.673563 560.20125 
M 390.686189 560.20125 
L 390.698856 464.240052 
L 390.705195 560.20125 
M 390.718385 560.20125 
L 390.736813 457.026168 
L 390.736831 560.20125 
M 390.744874 560.20125 
L 390.744876 478.517472 
L 390.744878 560.20125 
M 390.74748 560.20125 
L 390.748858 496.175274 
L 390.750237 560.20125 
M 390.754963 560.20125 
L 390.760895 482.326004 
L 390.760899 560.20125 
M 390.767739 560.20125 
L 390.767743 508.204663 
L 390.767747 560.20125 
M 390.77505 560.20125 
L 390.778698 542.801164 
L 390.7787 560.20125 
M 390.812148 560.20125 
L 390.816865 543.485953 
L 390.816868 560.20125 
M 568.977103 560.20125 
L 568.977103 557.637018 
L 568.977298 560.20125 
M 568.981004 560.20125 
L 568.981575 536.425748 
L 568.981576 560.20125 
M 568.985252 560.20125 
L 568.98538 557.072989 
L 568.98538 560.20125 
M 569.049685 560.20125 
L 569.071564 363.787705 
L 569.087809 560.20125 
M 569.83943 560.20125 
L 569.83943 559.76963 
L 569.83951 560.20125 
M 570.401558 560.20125 
L 570.401567 536.999266 
L 570.401575 560.20125 
M 570.427231 560.20125 
L 570.427252 501.992013 
L 570.427274 560.20125 
M 570.46577 560.20125 
L 570.46578 533.111227 
L 570.46579 560.20125 
M 570.611737 560.20125 
L 570.614441 553.923555 
L 570.617648 560.20125 
M 570.671718 560.20125 
L 570.671725 542.619301 
L 570.671732 560.20125 
M 570.700349 560.20125 
L 570.700367 518.347034 
L 570.700384 560.20125 
M 570.746885 560.20125 
L 570.746886 559.219886 
L 570.746886 560.20125 
M 722.680893 560.20125 
L 722.68101 556.564404 
L 722.681186 560.20125 
M 722.681272 560.20125 
L 722.681484 550.011039 
L 722.681557 560.20125 
M 722.681852 560.20125 
L 722.682146 535.766688 
L 722.682332 560.20125 
M 722.682542 560.20125 
L 722.683981 535.205308 
L 722.683982 560.20125 
M 722.684326 560.20125 
L 722.684326 547.27398 
L 722.684326 560.20125 
M 722.684789 560.20125 
L 722.684789 530.175228 
L 722.684925 560.20125 
M 722.685068 560.20125 
L 722.698028 516.017275 
L 722.712053 560.20125 
M 860.201811 560.20125 
L 860.201812 557.927995 
L 860.201813 560.20125 
M 860.231858 560.20125 
L 860.231876 516.834635 
L 860.231895 560.20125 
M 860.261906 560.20125 
L 860.261941 480.346029 
L 860.261975 560.20125 
M 860.291979 560.20125 
L 860.292005 499.212182 
L 860.292032 560.20125 
M 860.337094 560.20125 
L 860.337102 542.675766 
L 860.337109 560.20125 
M 860.39203 560.20125 
L 860.399093 530.227509 
L 860.399107 560.20125 
M 860.466642 560.20125 
L 860.466669 504.657065 
L 860.478773 560.20125 
M 860.553397 560.20125 
L 860.553399 555.375765 
L 860.553401 560.20125 
M 860.61737 560.20125 
L 860.617393 512.526256 
L 860.631293 560.20125 
M 860.660583 560.20125 
L 860.660608 494.53837 
L 860.6739 560.20125 
M 860.713651 560.20125 
L 860.713687 466.111338 
L 860.713721 560.20125 
M 860.743453 560.20125 
L 860.743457 495.014339 
L 860.743461 560.20125 
M 860.749994 560.20125 
L 860.753691 520.053547 
L 860.753695 560.20125 
M 986.539309 560.20125 
L 986.539344 533.176157 
L 986.557441 560.20125 
M 986.758266 560.20125 
L 986.758289 538.778575 
L 986.795823 560.20125 
M 986.870868 560.20125 
L 986.908411 516.349912 
L 986.908458 560.20125 
" clip-path="url(#pd7711eacde)" style="fill: none; stroke: #9467bd; stroke-linecap: square"/>
   </g>
   <g id="line2d_36">
    <path d="M 153.231801 560.20125 
L 153.233601 60.923593 
L 153.343414 116.547064 
L 158.934882 116.548519 
L 389.991168 116.663191 
L 390.103241 116.871553 
L 1151.113352 116.87169 
L 1151.113352 116.87169 
" clip-path="url(#pd7711eacde)" style="fill: none; stroke: #4daf4a; stroke-linecap: square"/>
   </g>
   <g id="line2d_37">
    <path d="M 153.231352 560.20125 
L 153.233499 89.469115 
L 153.343414 147.699464 
L 153.963966 147.744362 
L 159.373657 147.774679 
L 236.760534 147.797189 
L 389.988299 147.707387 
L 389.989305 147.534044 
L 389.992448 151.435732 
L 390.079627 151.079745 
L 577.879594 151.062307 
L 1151.113352 151.062219 
L 1151.113352 151.062219 
" clip-path="url(#pd7711eacde)" style="fill: none; stroke: #984ea3; stroke-linecap: square"/>
   </g>
   <g id="line2d_38">
    <path d="M 153.230766 560.20125 
L 153.233554 123.265724 
L 153.343414 344.598758 
L 153.354935 346.791485 
L 153.398236 325.799803 
L 153.556068 306.420448 
L 153.80203 300.600325 
L 154.138213 297.511851 
L 154.555311 295.623373 
L 155.054979 294.331114 
L 155.657359 293.360935 
L 156.428022 292.543488 
L 157.386619 291.873072 
L 158.657099 291.259218 
L 160.222256 290.730185 
L 162.532745 290.193935 
L 165.710046 289.691311 
L 170.227106 289.208924 
L 176.804663 288.739059 
L 186.81831 288.266304 
L 201.714938 287.800361 
L 225.484495 287.297794 
L 267.525304 286.660636 
L 340.757937 285.549095 
L 361.871575 285.004231 
L 373.351203 284.506093 
L 379.985009 284.015912 
L 383.914996 283.51943 
L 386.240282 283.019267 
L 387.641999 282.510649 
L 388.533601 281.962988 
L 389.103846 281.358004 
L 389.495365 280.608806 
L 389.756662 279.585631 
L 389.916916 277.93595 
L 389.945903 277.551729 
L 389.966056 278.923883 
L 389.983911 303.728454 
L 389.987693 257.343938 
L 389.990721 191.672461 
L 390.101037 210.180822 
L 485.696473 210.180727 
L 569.069655 210.291488 
L 569.192272 210.907904 
L 1151.113352 210.909476 
L 1151.113352 210.909476 
" clip-path="url(#pd7711eacde)" style="fill: none; stroke: #d48044; stroke-linecap: square"/>
   </g>
   <g id="line2d_39">
    <path d="M 153.231178 560.20125 
L 153.233519 150.513304 
L 153.344372 203.533055 
L 153.533265 202.397465 
L 153.832189 201.85395 
L 154.289614 201.497608 
L 155.054979 201.212293 
L 156.428022 200.96395 
L 159.096715 200.73666 
L 164.512819 200.528767 
L 176.340343 200.332829 
L 203.885884 200.139595 
L 279.424402 199.890259 
L 365.953715 199.537945 
L 382.497429 199.281122 
L 387.392716 199.016726 
L 389.017722 198.73684 
L 389.608812 198.435818 
L 389.85215 198.07004 
L 389.961185 197.443938 
L 389.982457 197.030537 
L 389.987168 198.584835 
L 389.998264 271.549056 
L 390.139319 270.887129 
L 390.505496 270.801446 
L 392.157911 270.739336 
L 402.230761 270.69258 
L 489.976879 270.649081 
L 568.907054 270.515275 
L 569.054815 270.460134 
L 569.060484 270.592508 
L 569.069712 278.265423 
L 569.082295 289.7247 
L 569.184644 289.499615 
L 569.666223 289.457961 
L 574.480903 289.432665 
L 665.572843 289.414522 
L 722.695306 289.517607 
L 722.714583 289.682994 
L 722.81542 289.65727 
L 725.047455 289.648882 
L 959.479714 289.64203 
L 1151.113352 289.641952 
L 1151.113352 289.641952 
" clip-path="url(#pd7711eacde)" style="fill: none; stroke: #33adff; stroke-linecap: square"/>
   </g>
   <g id="line2d_40">
    <path d="M 136.567898 32.16374 
L 153.233072 32.273062 
L 153.23387 46.079845 
L 153.353868 44.028884 
L 1151.113352 44.026604 
L 1151.113352 44.026604 
" clip-path="url(#pd7711eacde)" style="fill: none; stroke: #a65628; stroke-linecap: square"/>
   </g>
   <g id="patch_3">
    <path d="M 85.840625 506.16 
L 85.840625 7.2 
" style="fill: none; stroke: #000000; stroke-width: 0.8; stroke-linejoin: miter; stroke-linecap: square"/>
   </g>
   <g id="patch_4">
    <path d="M 1201.840625 506.16 
L 1201.840625 7.2 
" style="fill: none; stroke: #000000; stroke-width: 0.8; stroke-linejoin: miter; stroke-linecap: square"/>
   </g>
   <g id="patch_5">
    <path d="M 85.840625 506.16 
L 1201.840625 506.16 
" style="fill: none; stroke: #000000; stroke-width: 0.8; stroke-linejoin: miter; stroke-linecap: square"/>
   </g>
   <g id="patch_6">
    <path d="M 85.840625 7.2 
L 1201.840625 7.2 
" style="fill: none; stroke: #000000; stroke-width: 0.8; stroke-linejoin: miter; stroke-linecap: square"/>
   </g>
   <g id="text_17">
    <g id="patch_7">
     <path d="M 1151.113352 35.641388 
L 1173.253352 35.641388 
L 1173.253352 18.220763 
L 1151.113352 18.220763 
z
" style="fill: #ffffff"/>
    </g>
    <!-- $H_2$ -->
    <g style="fill: #377eb8" transform="translate(1151.113352 31.897951) scale(0.18 -0.18)">
     <defs>
      <path id="DejaVuSans-Oblique-48" d="M 1081 4666 
L 1716 4666 
L 1344 2753 
L 3634 2753 
L 4006 4666 
L 4641 4666 
L 3731 0 
L 3097 0 
L 3531 2222 
L 1241 2222 
L 806 0 
L 172 0 
L 1081 4666 
z
" transform="scale(0.015625)"/>
     </defs>
     <use xlink:href="#DejaVuSans-Oblique-48" transform="translate(0 0.09375)"/>
     <use xlink:href="#DejaVuSans-32" transform="translate(75.195312 -16.3125) scale(0.7)"/>
    </g>
   </g>
   <g id="text_18">
    <g id="patch_8">
     <path d="M 1151.113352 55.072795 
L 1186.753352 55.072795 
L 1186.753352 37.65217 
L 1151.113352 37.65217 
z
" style="fill: #ffffff"/>
    </g>
    <!-- $NH_3$ -->
    <g style="fill: #e41a1c" transform="translate(1151.113352 51.329358) scale(0.18 -0.18)">
     <defs>
      <path id="DejaVuSans-Oblique-4e" d="M 1081 4666 
L 1931 4666 
L 3219 666 
L 4000 4666 
L 4616 4666 
L 3706 0 
L 2853 0 
L 1569 4025 
L 788 0 
L 172 0 
L 1081 4666 
z
" transform="scale(0.015625)"/>
      <path id="DejaVuSans-33" d="M 2597 2516 
Q 3050 2419 3304 2112 
Q 3559 1806 3559 1356 
Q 3559 666 3084 287 
Q 2609 -91 1734 -91 
Q 1441 -91 1130 -33 
Q 819 25 488 141 
L 488 750 
Q 750 597 1062 519 
Q 1375 441 1716 441 
Q 2309 441 2620 675 
Q 2931 909 2931 1356 
Q 2931 1769 2642 2001 
Q 2353 2234 1838 2234 
L 1294 2234 
L 1294 2753 
L 1863 2753 
Q 2328 2753 2575 2939 
Q 2822 3125 2822 3475 
Q 2822 3834 2567 4026 
Q 2313 4219 1838 4219 
Q 1578 4219 1281 4162 
Q 984 4106 628 3988 
L 628 4550 
Q 988 4650 1302 4700 
Q 1616 4750 1894 4750 
Q 2613 4750 3031 4423 
Q 3450 4097 3450 3541 
Q 3450 3153 3228 2886 
Q 3006 2619 2597 2516 
z
" transform="scale(0.015625)"/>
     </defs>
     <use xlink:href="#DejaVuSans-Oblique-4e" transform="translate(0 0.09375)"/>
     <use xlink:href="#DejaVuSans-Oblique-48" transform="translate(74.804688 0.09375)"/>
     <use xlink:href="#DejaVuSans-33" transform="translate(150 -16.3125) scale(0.7)"/>
    </g>
   </g>
   <g id="text_19">
    <g id="patch_9">
     <path d="M 1151.113352 74.504202 
L 1173.253352 74.504202 
L 1173.253352 57.083577 
L 1151.113352 57.083577 
z
" style="fill: #ffffff"/>
    </g>
    <!-- $N_2$ -->
    <g style="fill: #a65628" transform="translate(1151.113352 70.760765) scale(0.18 -0.18)">
     <use xlink:href="#DejaVuSans-Oblique-4e" transform="translate(0 0.09375)"/>
     <use xlink:href="#DejaVuSans-32" transform="translate(74.804688 -16.3125) scale(0.7)"/>
    </g>
   </g>
   <g id="text_20">
    <g id="patch_10">
     <path d="M 1151.113352 125.582003 
L 1195.213352 125.582003 
L 1195.213352 108.161378 
L 1151.113352 108.161378 
z
" style="fill: #ffffff"/>
    </g>
    <!-- $N_2H_4$ -->
    <g style="fill: #4daf4a" transform="translate(1151.113352 121.838565) scale(0.18 -0.18)">
     <use xlink:href="#DejaVuSans-Oblique-4e" transform="translate(0 0.09375)"/>
     <use xlink:href="#DejaVuSans-32" transform="translate(74.804688 -16.3125) scale(0.7)"/>
     <use xlink:href="#DejaVuSans-Oblique-48" transform="translate(122.075195 0.09375)"/>
     <use xlink:href="#DejaVuSans-34" transform="translate(197.270508 -16.3125) scale(0.7)"/>
    </g>
   </g>
   <g id="text_21">
    <g id="patch_11">
     <path d="M 1151.113352 159.772532 
L 1195.213352 159.772532 
L 1195.213352 142.351907 
L 1151.113352 142.351907 
z
" style="fill: #ffffff"/>
    </g>
    <!-- $N_2H_3$ -->
    <g style="fill: #984ea3" transform="translate(1151.113352 156.029094) scale(0.18 -0.18)">
     <use xlink:href="#DejaVuSans-Oblique-4e" transform="translate(0 0.09375)"/>
     <use xlink:href="#DejaVuSans-32" transform="translate(74.804688 -16.3125) scale(0.7)"/>
     <use xlink:href="#DejaVuSans-Oblique-48" transform="translate(122.075195 0.09375)"/>
     <use xlink:href="#DejaVuSans-33" transform="translate(197.270508 -16.3125) scale(0.7)"/>
    </g>
   </g>
   <g id="text_22">
    <g id="patch_12">
     <path d="M 1151.113352 219.619788 
L 1195.213352 219.619788 
L 1195.213352 202.199163 
L 1151.113352 202.199163 
z
" style="fill: #ffffff"/>
    </g>
    <!-- $N_2H_2$ -->
    <g style="fill: #d48044" transform="translate(1151.113352 215.876351) scale(0.18 -0.18)">
     <use xlink:href="#DejaVuSans-Oblique-4e" transform="translate(0 0.09375)"/>
     <use xlink:href="#DejaVuSans-32" transform="translate(74.804688 -16.3125) scale(0.7)"/>
     <use xlink:href="#DejaVuSans-Oblique-48" transform="translate(122.075195 0.09375)"/>
     <use xlink:href="#DejaVuSans-32" transform="translate(197.270508 -16.3125) scale(0.7)"/>
    </g>
   </g>
   <g id="text_23">
    <g id="patch_13">
     <path d="M 1151.113352 298.352264 
L 1200.253352 298.352264 
L 1200.253352 280.931639 
L 1151.113352 280.931639 
z
" style="fill: #ffffff"/>
    </g>
    <!-- $H_2NN$ -->
    <g style="fill: #33adff" transform="translate(1151.113352 294.608827) scale(0.18 -0.18)">
     <use xlink:href="#DejaVuSans-Oblique-48" transform="translate(0 0.09375)"/>
     <use xlink:href="#DejaVuSans-32" transform="translate(75.195312 -16.3125) scale(0.7)"/>
     <use xlink:href="#DejaVuSans-Oblique-4e" transform="translate(122.46582 0.09375)"/>
     <use xlink:href="#DejaVuSans-Oblique-4e" transform="translate(197.270508 0.09375)"/>
    </g>
   </g>
  </g>
 </g>
 <defs>
  <clipPath id="pd7711eacde">
   <rect x="85.840625" y="7.2" width="1116" height="498.96"/>
  </clipPath>
 </defs>
</svg>
