<?xml version="1.0" encoding="utf-8" standalone="no"?>
<!DOCTYPE svg PUBLIC "-//W3C//DTD SVG 1.1//EN"
  "http://www.w3.org/Graphics/SVG/1.1/DTD/svg11.dtd">
<svg xmlns:xlink="http://www.w3.org/1999/xlink" width="1209.040625pt" height="559.240625pt" viewBox="0 0 1209.040625 559.240625" xmlns="http://www.w3.org/2000/svg" version="1.1">
 <metadata>
  <rdf:RDF xmlns:dc="http://purl.org/dc/elements/1.1/" xmlns:cc="http://creativecommons.org/ns#" xmlns:rdf="http://www.w3.org/1999/02/22-rdf-syntax-ns#">
   <cc:Work>
    <dc:type rdf:resource="http://purl.org/dc/dcmitype/StillImage"/>
    <dc:date>2023-12-06T12:13:52.762733</dc:date>
    <dc:format>image/svg+xml</dc:format>
    <dc:creator>
     <cc:Agent>
      <dc:title>Matplotlib v3.7.0, https://matplotlib.org/</dc:title>
     </cc:Agent>
    </dc:creator>
   </cc:Work>
  </rdf:RDF>
 </metadata>
 <defs>
  <style type="text/css">*{stroke-linejoin: round; stroke-linecap: butt}</style>
 </defs>
 <g id="figure_1">
  <g id="patch_1">
   <path d="M 0 559.240625 
L 1209.040625 559.240625 
L 1209.040625 0 
L 0 0 
z
" style="fill: #ffffff"/>
  </g>
  <g id="axes_1">
   <g id="patch_2">
    <path d="M 85.840625 506.16 
L 1201.840625 506.16 
L 1201.840625 7.2 
L 85.840625 7.2 
z
" style="fill: #ffffff"/>
   </g>
   <g id="matplotlib.axis_1">
    <g id="xtick_1">
     <g id="line2d_1">
      <path d="M 136.567898 506.16 
L 136.567898 7.2 
" clip-path="url(#pd197ae185f)" style="fill: none; stroke: #b0b0b0; stroke-width: 0.8; stroke-linecap: square"/>
     </g>
     <g id="line2d_2">
      <defs>
       <path id="mc344e2e32d" d="M 0 0 
L 0 3.5 
" style="stroke: #000000; stroke-width: 0.8"/>
      </defs>
      <g>
       <use xlink:href="#mc344e2e32d" x="136.567898" y="506.16" style="stroke: #000000; stroke-width: 0.8"/>
      </g>
     </g>
     <g id="text_1">
      <!-- 0 -->
      <g transform="translate(130.841648 526.837188) scale(0.18 -0.18)">
       <defs>
        <path id="DejaVuSans-30" d="M 2034 4250 
Q 1547 4250 1301 3770 
Q 1056 3291 1056 2328 
Q 1056 1369 1301 889 
Q 1547 409 2034 409 
Q 2525 409 2770 889 
Q 3016 1369 3016 2328 
Q 3016 3291 2770 3770 
Q 2525 4250 2034 4250 
z
M 2034 4750 
Q 2819 4750 3233 4129 
Q 3647 3509 3647 2328 
Q 3647 1150 3233 529 
Q 2819 -91 2034 -91 
Q 1250 -91 836 529 
Q 422 1150 422 2328 
Q 422 3509 836 4129 
Q 1250 4750 2034 4750 
z
" transform="scale(0.015625)"/>
       </defs>
       <use xlink:href="#DejaVuSans-30"/>
      </g>
     </g>
    </g>
    <g id="xtick_2">
     <g id="line2d_3">
      <path d="M 342.711001 506.16 
L 342.711001 7.2 
" clip-path="url(#pd197ae185f)" style="fill: none; stroke: #b0b0b0; stroke-width: 0.8; stroke-linecap: square"/>
     </g>
     <g id="line2d_4">
      <g>
       <use xlink:href="#mc344e2e32d" x="342.711001" y="506.16" style="stroke: #000000; stroke-width: 0.8"/>
      </g>
     </g>
     <g id="text_2">
      <!-- 200 -->
      <g transform="translate(325.532251 526.837188) scale(0.18 -0.18)">
       <defs>
        <path id="DejaVuSans-32" d="M 1228 531 
L 3431 531 
L 3431 0 
L 469 0 
L 469 531 
Q 828 903 1448 1529 
Q 2069 2156 2228 2338 
Q 2531 2678 2651 2914 
Q 2772 3150 2772 3378 
Q 2772 3750 2511 3984 
Q 2250 4219 1831 4219 
Q 1534 4219 1204 4116 
Q 875 4013 500 3803 
L 500 4441 
Q 881 4594 1212 4672 
Q 1544 4750 1819 4750 
Q 2544 4750 2975 4387 
Q 3406 4025 3406 3419 
Q 3406 3131 3298 2873 
Q 3191 2616 2906 2266 
Q 2828 2175 2409 1742 
Q 1991 1309 1228 531 
z
" transform="scale(0.015625)"/>
       </defs>
       <use xlink:href="#DejaVuSans-32"/>
       <use xlink:href="#DejaVuSans-30" x="63.623047"/>
       <use xlink:href="#DejaVuSans-30" x="127.246094"/>
      </g>
     </g>
    </g>
    <g id="xtick_3">
     <g id="line2d_5">
      <path d="M 548.854105 506.16 
L 548.854105 7.2 
" clip-path="url(#pd197ae185f)" style="fill: none; stroke: #b0b0b0; stroke-width: 0.8; stroke-linecap: square"/>
     </g>
     <g id="line2d_6">
      <g>
       <use xlink:href="#mc344e2e32d" x="548.854105" y="506.16" style="stroke: #000000; stroke-width: 0.8"/>
      </g>
     </g>
     <g id="text_3">
      <!-- 400 -->
      <g transform="translate(531.675355 526.837188) scale(0.18 -0.18)">
       <defs>
        <path id="DejaVuSans-34" d="M 2419 4116 
L 825 1625 
L 2419 1625 
L 2419 4116 
z
M 2253 4666 
L 3047 4666 
L 3047 1625 
L 3713 1625 
L 3713 1100 
L 3047 1100 
L 3047 0 
L 2419 0 
L 2419 1100 
L 313 1100 
L 313 1709 
L 2253 4666 
z
" transform="scale(0.015625)"/>
       </defs>
       <use xlink:href="#DejaVuSans-34"/>
       <use xlink:href="#DejaVuSans-30" x="63.623047"/>
       <use xlink:href="#DejaVuSans-30" x="127.246094"/>
      </g>
     </g>
    </g>
    <g id="xtick_4">
     <g id="line2d_7">
      <path d="M 754.997209 506.16 
L 754.997209 7.2 
" clip-path="url(#pd197ae185f)" style="fill: none; stroke: #b0b0b0; stroke-width: 0.8; stroke-linecap: square"/>
     </g>
     <g id="line2d_8">
      <g>
       <use xlink:href="#mc344e2e32d" x="754.997209" y="506.16" style="stroke: #000000; stroke-width: 0.8"/>
      </g>
     </g>
     <g id="text_4">
      <!-- 600 -->
      <g transform="translate(737.818459 526.837188) scale(0.18 -0.18)">
       <defs>
        <path id="DejaVuSans-36" d="M 2113 2584 
Q 1688 2584 1439 2293 
Q 1191 2003 1191 1497 
Q 1191 994 1439 701 
Q 1688 409 2113 409 
Q 2538 409 2786 701 
Q 3034 994 3034 1497 
Q 3034 2003 2786 2293 
Q 2538 2584 2113 2584 
z
M 3366 4563 
L 3366 3988 
Q 3128 4100 2886 4159 
Q 2644 4219 2406 4219 
Q 1781 4219 1451 3797 
Q 1122 3375 1075 2522 
Q 1259 2794 1537 2939 
Q 1816 3084 2150 3084 
Q 2853 3084 3261 2657 
Q 3669 2231 3669 1497 
Q 3669 778 3244 343 
Q 2819 -91 2113 -91 
Q 1303 -91 875 529 
Q 447 1150 447 2328 
Q 447 3434 972 4092 
Q 1497 4750 2381 4750 
Q 2619 4750 2861 4703 
Q 3103 4656 3366 4563 
z
" transform="scale(0.015625)"/>
       </defs>
       <use xlink:href="#DejaVuSans-36"/>
       <use xlink:href="#DejaVuSans-30" x="63.623047"/>
       <use xlink:href="#DejaVuSans-30" x="127.246094"/>
      </g>
     </g>
    </g>
    <g id="xtick_5">
     <g id="line2d_9">
      <path d="M 961.140313 506.16 
L 961.140313 7.2 
" clip-path="url(#pd197ae185f)" style="fill: none; stroke: #b0b0b0; stroke-width: 0.8; stroke-linecap: square"/>
     </g>
     <g id="line2d_10">
      <g>
       <use xlink:href="#mc344e2e32d" x="961.140313" y="506.16" style="stroke: #000000; stroke-width: 0.8"/>
      </g>
     </g>
     <g id="text_5">
      <!-- 800 -->
      <g transform="translate(943.961563 526.837188) scale(0.18 -0.18)">
       <defs>
        <path id="DejaVuSans-38" d="M 2034 2216 
Q 1584 2216 1326 1975 
Q 1069 1734 1069 1313 
Q 1069 891 1326 650 
Q 1584 409 2034 409 
Q 2484 409 2743 651 
Q 3003 894 3003 1313 
Q 3003 1734 2745 1975 
Q 2488 2216 2034 2216 
z
M 1403 2484 
Q 997 2584 770 2862 
Q 544 3141 544 3541 
Q 544 4100 942 4425 
Q 1341 4750 2034 4750 
Q 2731 4750 3128 4425 
Q 3525 4100 3525 3541 
Q 3525 3141 3298 2862 
Q 3072 2584 2669 2484 
Q 3125 2378 3379 2068 
Q 3634 1759 3634 1313 
Q 3634 634 3220 271 
Q 2806 -91 2034 -91 
Q 1263 -91 848 271 
Q 434 634 434 1313 
Q 434 1759 690 2068 
Q 947 2378 1403 2484 
z
M 1172 3481 
Q 1172 3119 1398 2916 
Q 1625 2713 2034 2713 
Q 2441 2713 2670 2916 
Q 2900 3119 2900 3481 
Q 2900 3844 2670 4047 
Q 2441 4250 2034 4250 
Q 1625 4250 1398 4047 
Q 1172 3844 1172 3481 
z
" transform="scale(0.015625)"/>
       </defs>
       <use xlink:href="#DejaVuSans-38"/>
       <use xlink:href="#DejaVuSans-30" x="63.623047"/>
       <use xlink:href="#DejaVuSans-30" x="127.246094"/>
      </g>
     </g>
    </g>
    <g id="xtick_6">
     <g id="line2d_11">
      <path d="M 1167.283416 506.16 
L 1167.283416 7.2 
" clip-path="url(#pd197ae185f)" style="fill: none; stroke: #b0b0b0; stroke-width: 0.8; stroke-linecap: square"/>
     </g>
     <g id="line2d_12">
      <g>
       <use xlink:href="#mc344e2e32d" x="1167.283416" y="506.16" style="stroke: #000000; stroke-width: 0.8"/>
      </g>
     </g>
     <g id="text_6">
      <!-- 1000 -->
      <g transform="translate(1144.378416 526.837188) scale(0.18 -0.18)">
       <defs>
        <path id="DejaVuSans-31" d="M 794 531 
L 1825 531 
L 1825 4091 
L 703 3866 
L 703 4441 
L 1819 4666 
L 2450 4666 
L 2450 531 
L 3481 531 
L 3481 0 
L 794 0 
L 794 531 
z
" transform="scale(0.015625)"/>
       </defs>
       <use xlink:href="#DejaVuSans-31"/>
       <use xlink:href="#DejaVuSans-30" x="63.623047"/>
       <use xlink:href="#DejaVuSans-30" x="127.246094"/>
       <use xlink:href="#DejaVuSans-30" x="190.869141"/>
      </g>
     </g>
    </g>
    <g id="text_7">
     <!-- $t$ [μs] -->
     <g transform="translate(619.990625 548.260625) scale(0.18 -0.18)">
      <defs>
       <path id="DejaVuSans-Oblique-74" d="M 2706 3500 
L 2619 3053 
L 1472 3053 
L 1100 1153 
Q 1081 1047 1072 975 
Q 1063 903 1063 863 
Q 1063 663 1183 572 
Q 1303 481 1569 481 
L 2150 481 
L 2053 0 
L 1503 0 
Q 991 0 739 200 
Q 488 400 488 806 
Q 488 878 497 964 
Q 506 1050 525 1153 
L 897 3053 
L 409 3053 
L 500 3500 
L 978 3500 
L 1172 4494 
L 1747 4494 
L 1556 3500 
L 2706 3500 
z
" transform="scale(0.015625)"/>
       <path id="DejaVuSans-20" transform="scale(0.015625)"/>
       <path id="DejaVuSans-5b" d="M 550 4863 
L 1875 4863 
L 1875 4416 
L 1125 4416 
L 1125 -397 
L 1875 -397 
L 1875 -844 
L 550 -844 
L 550 4863 
z
" transform="scale(0.015625)"/>
       <path id="DejaVuSans-3bc" d="M 544 -1331 
L 544 3500 
L 1119 3500 
L 1119 1325 
Q 1119 872 1334 640 
Q 1550 409 1972 409 
Q 2434 409 2667 671 
Q 2900 934 2900 1459 
L 2900 3500 
L 3475 3500 
L 3475 806 
Q 3475 619 3529 530 
Q 3584 441 3700 441 
Q 3728 441 3778 458 
Q 3828 475 3916 513 
L 3916 50 
Q 3788 -22 3673 -56 
Q 3559 -91 3450 -91 
Q 3234 -91 3106 31 
Q 2978 153 2931 403 
Q 2775 156 2548 32 
Q 2322 -91 2016 -91 
Q 1697 -91 1473 31 
Q 1250 153 1119 397 
L 1119 -1331 
L 544 -1331 
z
" transform="scale(0.015625)"/>
       <path id="DejaVuSans-73" d="M 2834 3397 
L 2834 2853 
Q 2591 2978 2328 3040 
Q 2066 3103 1784 3103 
Q 1356 3103 1142 2972 
Q 928 2841 928 2578 
Q 928 2378 1081 2264 
Q 1234 2150 1697 2047 
L 1894 2003 
Q 2506 1872 2764 1633 
Q 3022 1394 3022 966 
Q 3022 478 2636 193 
Q 2250 -91 1575 -91 
Q 1294 -91 989 -36 
Q 684 19 347 128 
L 347 722 
Q 666 556 975 473 
Q 1284 391 1588 391 
Q 1994 391 2212 530 
Q 2431 669 2431 922 
Q 2431 1156 2273 1281 
Q 2116 1406 1581 1522 
L 1381 1569 
Q 847 1681 609 1914 
Q 372 2147 372 2553 
Q 372 3047 722 3315 
Q 1072 3584 1716 3584 
Q 2034 3584 2315 3537 
Q 2597 3491 2834 3397 
z
" transform="scale(0.015625)"/>
       <path id="DejaVuSans-5d" d="M 1947 4863 
L 1947 -844 
L 622 -844 
L 622 -397 
L 1369 -397 
L 1369 4416 
L 622 4416 
L 622 4863 
L 1947 4863 
z
" transform="scale(0.015625)"/>
      </defs>
      <use xlink:href="#DejaVuSans-Oblique-74" transform="translate(0 0.015625)"/>
      <use xlink:href="#DejaVuSans-20" transform="translate(39.208984 0.015625)"/>
      <use xlink:href="#DejaVuSans-5b" transform="translate(70.996094 0.015625)"/>
      <use xlink:href="#DejaVuSans-3bc" transform="translate(110.009766 0.015625)"/>
      <use xlink:href="#DejaVuSans-73" transform="translate(173.632812 0.015625)"/>
      <use xlink:href="#DejaVuSans-5d" transform="translate(225.732422 0.015625)"/>
     </g>
    </g>
   </g>
   <g id="matplotlib.axis_2">
    <g id="ytick_1">
     <g id="line2d_13">
      <path d="M 85.840625 506.16 
L 1201.840625 506.16 
" clip-path="url(#pd197ae185f)" style="fill: none; stroke: #b0b0b0; stroke-width: 0.8; stroke-linecap: square"/>
     </g>
     <g id="line2d_14">
      <defs>
       <path id="mfcf8eb769c" d="M 0 0 
L -3.5 0 
" style="stroke: #000000; stroke-width: 0.8"/>
      </defs>
      <g>
       <use xlink:href="#mfcf8eb769c" x="85.840625" y="506.16" style="stroke: #000000; stroke-width: 0.8"/>
      </g>
     </g>
     <g id="text_8">
      <!-- $\mathdefault{10^{-24}}$ -->
      <g transform="translate(28.620625 512.998594) scale(0.18 -0.18)">
       <defs>
        <path id="DejaVuSans-2212" d="M 678 2272 
L 4684 2272 
L 4684 1741 
L 678 1741 
L 678 2272 
z
" transform="scale(0.015625)"/>
       </defs>
       <use xlink:href="#DejaVuSans-31" transform="translate(0 0.765625)"/>
       <use xlink:href="#DejaVuSans-30" transform="translate(63.623047 0.765625)"/>
       <use xlink:href="#DejaVuSans-2212" transform="translate(128.203125 39.046875) scale(0.7)"/>
       <use xlink:href="#DejaVuSans-32" transform="translate(186.855469 39.046875) scale(0.7)"/>
       <use xlink:href="#DejaVuSans-34" transform="translate(231.391602 39.046875) scale(0.7)"/>
      </g>
     </g>
    </g>
    <g id="ytick_2">
     <g id="line2d_15">
      <path d="M 85.840625 434.206901 
L 1201.840625 434.206901 
" clip-path="url(#pd197ae185f)" style="fill: none; stroke: #b0b0b0; stroke-width: 0.8; stroke-linecap: square"/>
     </g>
     <g id="line2d_16">
      <g>
       <use xlink:href="#mfcf8eb769c" x="85.840625" y="434.206901" style="stroke: #000000; stroke-width: 0.8"/>
      </g>
     </g>
     <g id="text_9">
      <!-- $\mathdefault{10^{-22}}$ -->
      <g transform="translate(28.620625 441.045494) scale(0.18 -0.18)">
       <use xlink:href="#DejaVuSans-31" transform="translate(0 0.765625)"/>
       <use xlink:href="#DejaVuSans-30" transform="translate(63.623047 0.765625)"/>
       <use xlink:href="#DejaVuSans-2212" transform="translate(128.203125 39.046875) scale(0.7)"/>
       <use xlink:href="#DejaVuSans-32" transform="translate(186.855469 39.046875) scale(0.7)"/>
       <use xlink:href="#DejaVuSans-32" transform="translate(231.391602 39.046875) scale(0.7)"/>
      </g>
     </g>
    </g>
    <g id="ytick_3">
     <g id="line2d_17">
      <path d="M 85.840625 362.253801 
L 1201.840625 362.253801 
" clip-path="url(#pd197ae185f)" style="fill: none; stroke: #b0b0b0; stroke-width: 0.8; stroke-linecap: square"/>
     </g>
     <g id="line2d_18">
      <g>
       <use xlink:href="#mfcf8eb769c" x="85.840625" y="362.253801" style="stroke: #000000; stroke-width: 0.8"/>
      </g>
     </g>
     <g id="text_10">
      <!-- $\mathdefault{10^{-20}}$ -->
      <g transform="translate(28.620625 369.092395) scale(0.18 -0.18)">
       <use xlink:href="#DejaVuSans-31" transform="translate(0 0.765625)"/>
       <use xlink:href="#DejaVuSans-30" transform="translate(63.623047 0.765625)"/>
       <use xlink:href="#DejaVuSans-2212" transform="translate(128.203125 39.046875) scale(0.7)"/>
       <use xlink:href="#DejaVuSans-32" transform="translate(186.855469 39.046875) scale(0.7)"/>
       <use xlink:href="#DejaVuSans-30" transform="translate(231.391602 39.046875) scale(0.7)"/>
      </g>
     </g>
    </g>
    <g id="ytick_4">
     <g id="line2d_19">
      <path d="M 85.840625 290.300702 
L 1201.840625 290.300702 
" clip-path="url(#pd197ae185f)" style="fill: none; stroke: #b0b0b0; stroke-width: 0.8; stroke-linecap: square"/>
     </g>
     <g id="line2d_20">
      <g>
       <use xlink:href="#mfcf8eb769c" x="85.840625" y="290.300702" style="stroke: #000000; stroke-width: 0.8"/>
      </g>
     </g>
     <g id="text_11">
      <!-- $\mathdefault{10^{-18}}$ -->
      <g transform="translate(28.620625 297.139295) scale(0.18 -0.18)">
       <use xlink:href="#DejaVuSans-31" transform="translate(0 0.765625)"/>
       <use xlink:href="#DejaVuSans-30" transform="translate(63.623047 0.765625)"/>
       <use xlink:href="#DejaVuSans-2212" transform="translate(128.203125 39.046875) scale(0.7)"/>
       <use xlink:href="#DejaVuSans-31" transform="translate(186.855469 39.046875) scale(0.7)"/>
       <use xlink:href="#DejaVuSans-38" transform="translate(231.391602 39.046875) scale(0.7)"/>
      </g>
     </g>
    </g>
    <g id="ytick_5">
     <g id="line2d_21">
      <path d="M 85.840625 218.347602 
L 1201.840625 218.347602 
" clip-path="url(#pd197ae185f)" style="fill: none; stroke: #b0b0b0; stroke-width: 0.8; stroke-linecap: square"/>
     </g>
     <g id="line2d_22">
      <g>
       <use xlink:href="#mfcf8eb769c" x="85.840625" y="218.347602" style="stroke: #000000; stroke-width: 0.8"/>
      </g>
     </g>
     <g id="text_12">
      <!-- $\mathdefault{10^{-16}}$ -->
      <g transform="translate(28.620625 225.186196) scale(0.18 -0.18)">
       <use xlink:href="#DejaVuSans-31" transform="translate(0 0.765625)"/>
       <use xlink:href="#DejaVuSans-30" transform="translate(63.623047 0.765625)"/>
       <use xlink:href="#DejaVuSans-2212" transform="translate(128.203125 39.046875) scale(0.7)"/>
       <use xlink:href="#DejaVuSans-31" transform="translate(186.855469 39.046875) scale(0.7)"/>
       <use xlink:href="#DejaVuSans-36" transform="translate(231.391602 39.046875) scale(0.7)"/>
      </g>
     </g>
    </g>
    <g id="ytick_6">
     <g id="line2d_23">
      <path d="M 85.840625 146.394503 
L 1201.840625 146.394503 
" clip-path="url(#pd197ae185f)" style="fill: none; stroke: #b0b0b0; stroke-width: 0.8; stroke-linecap: square"/>
     </g>
     <g id="line2d_24">
      <g>
       <use xlink:href="#mfcf8eb769c" x="85.840625" y="146.394503" style="stroke: #000000; stroke-width: 0.8"/>
      </g>
     </g>
     <g id="text_13">
      <!-- $\mathdefault{10^{-14}}$ -->
      <g transform="translate(28.620625 153.233097) scale(0.18 -0.18)">
       <use xlink:href="#DejaVuSans-31" transform="translate(0 0.684375)"/>
       <use xlink:href="#DejaVuSans-30" transform="translate(63.623047 0.684375)"/>
       <use xlink:href="#DejaVuSans-2212" transform="translate(128.203125 38.965625) scale(0.7)"/>
       <use xlink:href="#DejaVuSans-31" transform="translate(186.855469 38.965625) scale(0.7)"/>
       <use xlink:href="#DejaVuSans-34" transform="translate(231.391602 38.965625) scale(0.7)"/>
      </g>
     </g>
    </g>
    <g id="ytick_7">
     <g id="line2d_25">
      <path d="M 85.840625 74.441403 
L 1201.840625 74.441403 
" clip-path="url(#pd197ae185f)" style="fill: none; stroke: #b0b0b0; stroke-width: 0.8; stroke-linecap: square"/>
     </g>
     <g id="line2d_26">
      <g>
       <use xlink:href="#mfcf8eb769c" x="85.840625" y="74.441403" style="stroke: #000000; stroke-width: 0.8"/>
      </g>
     </g>
     <g id="text_14">
      <!-- $\mathdefault{10^{-12}}$ -->
      <g transform="translate(28.620625 81.279997) scale(0.18 -0.18)">
       <use xlink:href="#DejaVuSans-31" transform="translate(0 0.765625)"/>
       <use xlink:href="#DejaVuSans-30" transform="translate(63.623047 0.765625)"/>
       <use xlink:href="#DejaVuSans-2212" transform="translate(128.203125 39.046875) scale(0.7)"/>
       <use xlink:href="#DejaVuSans-31" transform="translate(186.855469 39.046875) scale(0.7)"/>
       <use xlink:href="#DejaVuSans-32" transform="translate(231.391602 39.046875) scale(0.7)"/>
      </g>
     </g>
    </g>
    <g id="text_15">
     <!-- $n_k$ [mol] -->
     <g transform="translate(20.877188 292.95) rotate(-90) scale(0.18 -0.18)">
      <defs>
       <path id="DejaVuSans-Oblique-6e" d="M 3566 2113 
L 3156 0 
L 2578 0 
L 2988 2091 
Q 3016 2238 3031 2350 
Q 3047 2463 3047 2528 
Q 3047 2791 2881 2937 
Q 2716 3084 2419 3084 
Q 1956 3084 1622 2776 
Q 1288 2469 1184 1941 
L 800 0 
L 225 0 
L 903 3500 
L 1478 3500 
L 1363 2950 
Q 1603 3253 1940 3418 
Q 2278 3584 2650 3584 
Q 3113 3584 3367 3334 
Q 3622 3084 3622 2631 
Q 3622 2519 3608 2391 
Q 3594 2263 3566 2113 
z
" transform="scale(0.015625)"/>
       <path id="DejaVuSans-Oblique-6b" d="M 1172 4863 
L 1747 4863 
L 1197 2028 
L 3169 3500 
L 3916 3500 
L 1716 1825 
L 3322 0 
L 2625 0 
L 1131 1709 
L 800 0 
L 225 0 
L 1172 4863 
z
" transform="scale(0.015625)"/>
       <path id="DejaVuSans-6d" d="M 3328 2828 
Q 3544 3216 3844 3400 
Q 4144 3584 4550 3584 
Q 5097 3584 5394 3201 
Q 5691 2819 5691 2113 
L 5691 0 
L 5113 0 
L 5113 2094 
Q 5113 2597 4934 2840 
Q 4756 3084 4391 3084 
Q 3944 3084 3684 2787 
Q 3425 2491 3425 1978 
L 3425 0 
L 2847 0 
L 2847 2094 
Q 2847 2600 2669 2842 
Q 2491 3084 2119 3084 
Q 1678 3084 1418 2786 
Q 1159 2488 1159 1978 
L 1159 0 
L 581 0 
L 581 3500 
L 1159 3500 
L 1159 2956 
Q 1356 3278 1631 3431 
Q 1906 3584 2284 3584 
Q 2666 3584 2933 3390 
Q 3200 3197 3328 2828 
z
" transform="scale(0.015625)"/>
       <path id="DejaVuSans-6f" d="M 1959 3097 
Q 1497 3097 1228 2736 
Q 959 2375 959 1747 
Q 959 1119 1226 758 
Q 1494 397 1959 397 
Q 2419 397 2687 759 
Q 2956 1122 2956 1747 
Q 2956 2369 2687 2733 
Q 2419 3097 1959 3097 
z
M 1959 3584 
Q 2709 3584 3137 3096 
Q 3566 2609 3566 1747 
Q 3566 888 3137 398 
Q 2709 -91 1959 -91 
Q 1206 -91 779 398 
Q 353 888 353 1747 
Q 353 2609 779 3096 
Q 1206 3584 1959 3584 
z
" transform="scale(0.015625)"/>
       <path id="DejaVuSans-6c" d="M 603 4863 
L 1178 4863 
L 1178 0 
L 603 0 
L 603 4863 
z
" transform="scale(0.015625)"/>
      </defs>
      <use xlink:href="#DejaVuSans-Oblique-6e" transform="translate(0 0.015625)"/>
      <use xlink:href="#DejaVuSans-Oblique-6b" transform="translate(63.378906 -16.390625) scale(0.7)"/>
      <use xlink:href="#DejaVuSans-20" transform="translate(106.650391 0.015625)"/>
      <use xlink:href="#DejaVuSans-5b" transform="translate(138.4375 0.015625)"/>
      <use xlink:href="#DejaVuSans-6d" transform="translate(177.451172 0.015625)"/>
      <use xlink:href="#DejaVuSans-6f" transform="translate(274.863281 0.015625)"/>
      <use xlink:href="#DejaVuSans-6c" transform="translate(336.044922 0.015625)"/>
      <use xlink:href="#DejaVuSans-5d" transform="translate(363.828125 0.015625)"/>
     </g>
    </g>
   </g>
   <g id="line2d_27">
    <path d="M 339.956253 560.240625 
L 340.091327 31.547357 
L 340.958168 31.540929 
L 589.934591 31.54072 
L 1151.113352 31.540713 
L 1151.113352 31.540713 
" clip-path="url(#pd197ae185f)" style="fill: none; stroke: #e41a1c; stroke-linecap: square"/>
   </g>
   <g id="line2d_28">
    <path d="M 136.567898 15.181357 
L 339.973632 15.290951 
L 339.983996 27.641256 
L 340.184297 26.950221 
L 358.933397 26.950704 
L 1151.113352 26.950703 
L 1151.113352 26.950703 
" clip-path="url(#pd197ae185f)" style="fill: none; stroke: #377eb8; stroke-linecap: square"/>
   </g>
   <g id="line2d_29">
    <path d="M 138.130962 560.240625 
L 138.225246 418.724095 
L 138.226636 560.240625 
M 138.230776 560.240625 
L 138.230782 406.563862 
L 138.230788 560.240625 
M 138.238955 560.240625 
L 138.239676 500.6107 
L 138.239678 560.240625 
M 138.244119 560.240625 
L 138.246414 436.361634 
L 138.248708 560.240625 
M 138.255558 560.240625 
L 138.259827 437.662915 
L 138.264104 560.240625 
M 138.27687 560.240625 
L 138.285452 454.301303 
L 138.294048 560.240625 
M 138.355991 560.240625 
L 138.356013 525.359537 
L 138.378437 560.240625 
M 339.897638 560.240625 
L 339.976469 106.186245 
L 340.109852 178.610337 
L 340.307239 196.971681 
L 341.174985 227.773757 
L 341.452108 254.631271 
L 341.707928 305.341739 
L 342.06751 372.266434 
L 342.873627 456.816513 
L 342.898889 441.901101 
L 342.934713 467.534539 
L 342.947609 456.828085 
L 342.947647 560.240625 
M 342.986262 560.240625 
L 342.986297 463.632296 
L 343.089126 476.53899 
L 343.199058 484.60509 
L 343.220454 476.881501 
L 343.220505 560.240625 
M 343.263207 560.240625 
L 343.350756 477.758072 
L 343.368257 498.513458 
L 343.383311 498.867108 
L 343.383337 560.240625 
M 343.410586 560.240625 
L 343.435089 476.853927 
L 343.435118 560.240625 
M 343.459552 560.240625 
L 343.484055 491.451545 
L 343.484079 560.240625 
M 343.508514 560.240625 
L 343.508538 491.352865 
L 343.533041 560.240625 
M 343.561487 560.240625 
L 343.561513 496.063527 
L 343.590022 560.240625 
M 343.620146 560.240625 
L 343.620173 500.705711 
L 343.652036 560.240625 
M 343.699776 560.240625 
L 343.715713 509.148002 
L 343.715736 560.240625 
M 343.752063 560.240625 
L 343.79298 506.009499 
L 343.793012 560.240625 
M 343.833852 560.240625 
L 343.833876 518.803966 
L 343.926478 532.167894 
L 343.988995 535.222454 
L 344.020253 536.037911 
L 344.08277 524.13619 
L 344.082803 560.240625 
M 344.145272 560.240625 
L 344.171092 525.474933 
L 344.248506 546.962366 
L 344.27431 526.688471 
L 344.321823 560.240625 
M 344.361007 560.240625 
L 344.395998 527.197702 
L 344.396014 560.240625 
M 344.43098 560.240625 
L 344.430984 550.97492 
L 344.439672 560.240625 
M 344.455077 560.240625 
L 344.465971 544.73614 
L 344.472101 560.240625 
M 344.50532 560.240625 
L 344.55719 547.958075 
L 344.557198 560.240625 
M 344.64558 560.240625 
L 344.680066 552.744735 
L 344.705797 560.240625 
M 347.278551 560.240625 
L 347.318418 549.8825 
L 347.31843 560.240625 
M 348.071842 560.240625 
L 348.088328 548.455917 
L 348.08834 560.240625 
M 348.200359 560.240625 
L 348.228817 533.145648 
L 348.228839 560.240625 
M 349.179913 560.240625 
L 349.239816 552.04571 
L 349.239828 560.240625 
M 349.404416 560.240625 
L 349.404467 527.376819 
L 349.411466 560.240625 
M 349.432671 560.240625 
L 349.432998 559.787278 
L 349.433044 560.240625 
M 350.416687 560.240625 
L 350.500574 547.869855 
L 350.500599 560.240625 
M 350.713684 560.240625 
L 350.769761 512.422821 
L 350.769837 560.240625 
M 350.893932 560.240625 
L 350.897033 549.828296 
L 350.897035 560.240625 
M 350.910855 560.240625 
L 350.91777 529.559427 
L 350.930965 560.240625 
M 351.739529 560.240625 
L 351.847685 559.831576 
L 351.888359 560.240625 
M 351.955303 560.240625 
L 352.131008 558.914088 
L 352.234042 558.640092 
L 352.337076 556.837751 
L 352.44011 557.048383 
L 352.536002 560.240625 
M 352.55027 560.240625 
L 352.769835 551.184241 
L 352.866054 560.240625 
M 353.078834 560.240625 
L 353.223217 534.833453 
L 353.223299 560.240625 
M 353.510439 560.240625 
L 353.597522 495.470831 
L 353.611257 550.396564 
L 353.638729 535.953162 
L 353.638738 560.240625 
M 353.666197 560.240625 
L 353.6662 552.381213 
L 353.758044 553.203179 
L 353.781005 552.7191 
L 353.857409 553.35582 
L 353.89561 552.650769 
L 353.972014 552.841313 
L 354.280951 551.721278 
L 354.776578 550.354521 
L 355.115344 549.614147 
L 356.430605 546.639473 
L 356.597458 546.613083 
L 356.764311 546.371966 
L 356.931164 545.483139 
L 357.098017 545.526599 
L 357.264869 546.47506 
L 357.598575 542.113607 
L 357.765428 546.885312 
L 357.932281 555.894918 
L 358.099133 537.697195 
L 358.265986 543.643488 
L 358.432839 543.849607 
L 358.599692 533.938305 
L 358.766593 560.240625 
M 359.100091 560.240625 
L 359.10025 526.853004 
L 359.267103 540.303712 
L 359.267198 560.240625 
M 359.567727 560.240625 
L 359.567814 537.394512 
L 359.701673 498.481565 
L 359.861059 543.38926 
L 359.894993 541.420804 
L 359.928927 541.588328 
L 359.962862 542.324564 
L 360.03073 541.593539 
L 360.193951 541.479442 
L 360.469436 541.197798 
L 362.797939 539.355902 
L 364.233795 538.560042 
L 365.908959 537.892351 
L 367.635602 537.444391 
L 369.755991 537.139209 
L 370.021039 537.181586 
L 370.286088 537.04681 
L 370.583009 537.677381 
L 370.879931 535.431227 
L 371.176852 540.58344 
L 371.473773 534.121779 
L 371.770695 539.996128 
L 372.067616 535.760975 
L 372.364538 534.118457 
L 372.661459 541.747759 
L 372.958381 536.352369 
L 373.255302 533.037286 
L 373.552224 545.444748 
L 374.146067 528.585182 
L 374.442988 552.476161 
L 374.739909 538.527655 
L 375.036831 518.892027 
L 375.333752 539.053125 
L 375.630674 543.0764 
L 375.927595 536.179893 
L 376.224517 538.605706 
L 376.521438 526.092417 
L 376.88176 553.718107 
L 377.242081 528.534 
L 377.348345 538.107548 
L 377.401477 536.812105 
L 377.454609 538.429613 
L 377.50774 537.514748 
L 377.651675 537.507622 
L 377.742478 538.130746 
L 377.924084 537.755422 
L 378.014887 537.823424 
L 379.119536 537.998696 
L 380.308353 538.145983 
L 380.605557 538.586228 
L 380.902761 537.687888 
L 381.263491 538.457388 
L 381.624221 538.551067 
L 381.98495 538.438714 
L 382.34568 538.890664 
L 383.067139 538.739881 
L 383.533482 536.463791 
L 383.999826 538.48119 
L 384.466169 532.810775 
L 384.466533 560.240625 
M 385.398239 560.240625 
L 385.398855 513.858055 
L 385.765353 524.994469 
L 385.820623 539.697586 
L 385.875894 539.63498 
L 385.931164 539.539436 
L 385.986434 539.767276 
L 386.041705 539.616399 
L 386.368126 539.746873 
L 404.154808 544.776971 
L 406.014435 545.387843 
L 406.634311 545.276967 
L 407.254187 546.090273 
L 407.874063 544.850991 
L 408.493938 548.379604 
L 409.113814 541.824807 
L 409.58873 560.240625 
M 409.952234 560.240625 
L 410.353566 549.918091 
L 410.973441 547.057584 
L 411.593317 528.785056 
L 412.309133 546.788105 
L 412.47224 560.240625 
M 413.103525 560.240625 
L 413.430857 514.258108 
L 413.991718 519.003546 
L 413.992377 560.240625 
M 415.673119 560.240625 
L 415.674304 486.066644 
L 415.756219 560.240625 
M 415.919829 560.240625 
L 415.919873 541.329758 
L 416.001729 548.807021 
L 416.083586 548.737183 
L 416.227311 549.783945 
L 416.371036 548.19656 
L 416.514761 548.087577 
L 416.658486 548.134415 
L 417.284054 551.473038 
L 417.492577 546.524041 
L 417.7011 558.801081 
L 418.03301 548.545318 
L 418.36492 548.513758 
L 419.360652 548.809517 
L 424.555821 550.083769 
L 435.127871 552.496856 
L 446.689455 554.898919 
L 458.420396 557.114585 
L 471.469175 559.353529 
L 477.00265 560.240625 
M 486.86129 560.240625 
L 487.468361 558.936166 
L 487.572551 560.240625 
M 489.698039 560.240625 
L 490.437469 543.090591 
L 490.972236 560.240625 
M 496.168255 560.240625 
L 496.375687 559.821082 
L 496.47014 560.240625 
M 504.553736 560.240625 
L 505.469736 553.933355 
L 505.470037 560.240625 
M 509.208965 560.240625 
L 509.671047 536.642124 
L 510.450764 560.240625 
M 765.636024 560.240625 
L 765.636324 557.825464 
L 766.256676 560.240625 
L 766.256676 560.240625 
" clip-path="url(#pd197ae185f)" style="fill: none; stroke: #1f77b4; stroke-linecap: square"/>
   </g>
   <g id="line2d_30">
    <path d="M 339.9563 560.240625 
L 339.983475 87.334989 
L 340.088035 152.818881 
L 340.284229 179.41651 
L 340.567872 189.634377 
L 341.133233 201.073509 
L 341.505442 205.392256 
L 341.748416 206.122034 
L 342.197108 206.557699 
L 343.021631 207.050951 
L 344.222701 207.498855 
L 346.023517 207.922907 
L 348.840581 208.339877 
L 353.109872 208.733599 
L 359.894993 209.116527 
L 370.583009 209.477786 
L 387.930115 209.822466 
L 416.867009 210.153005 
L 465.457956 210.466327 
L 551.408191 210.773365 
L 705.4426 211.074915 
L 992.438691 211.387929 
L 1151.113352 211.510178 
L 1151.113352 211.510178 
" clip-path="url(#pd197ae185f)" style="fill: none; stroke: #4daf4a; stroke-linecap: square"/>
   </g>
   <g id="line2d_31">
    <path d="M 339.959996 560.240625 
L 339.98344 148.095257 
L 340.082987 247.837523 
L 340.254938 277.521413 
L 340.423166 279.884887 
L 340.611834 280.035179 
L 340.967538 280.355302 
L 341.678796 280.952151 
L 342.572201 281.371159 
L 343.957736 281.756568 
L 346.131232 282.113512 
L 349.692346 282.451151 
L 355.633624 282.767764 
L 365.908959 283.067635 
L 383.999826 283.348952 
L 417.284054 283.616427 
L 479.386246 283.867408 
L 600.15511 284.108278 
L 848.321434 284.351053 
L 1151.113352 284.523333 
L 1151.113352 284.523333 
" clip-path="url(#pd197ae185f)" style="fill: none; stroke: #984ea3; stroke-linecap: square"/>
   </g>
   <g id="line2d_32">
    <path d="M 339.960008 560.240625 
L 339.983616 214.041755 
L 340.081011 324.481575 
L 340.214692 343.818696 
L 340.230691 343.747911 
L 340.319725 341.842377 
L 340.654059 335.774657 
L 340.932855 334.226121 
L 341.195862 333.787468 
L 341.490996 333.70094 
L 343.957736 333.77749 
L 354.203717 333.855131 
L 402.915056 333.917141 
L 698.186195 333.96732 
L 1151.113352 333.987714 
L 1151.113352 333.987714 
" clip-path="url(#pd197ae185f)" style="fill: none; stroke: #d48044; stroke-linecap: square"/>
   </g>
   <g id="line2d_33">
    <path d="M 138.228009 560.240625 
L 138.228014 436.010422 
L 138.229403 560.240625 
M 138.23216 560.240625 
L 138.233549 389.041736 
L 138.238237 560.240625 
M 138.240396 560.240625 
L 138.241118 494.511844 
L 138.241506 560.240625 
M 138.250982 560.240625 
L 138.250989 457.620579 
L 138.253282 560.240625 
M 138.268344 560.240625 
L 138.272616 472.586504 
L 138.272626 560.240625 
M 138.302586 560.240625 
L 138.302599 504.548297 
L 138.333618 560.240625 
M 138.445612 560.240625 
L 138.474016 559.524906 
L 138.475158 560.240625 
M 339.920353 560.240625 
L 339.977682 101.814365 
L 340.09023 246.370588 
L 340.307239 316.358423 
L 340.693379 361.558132 
L 341.335444 432.013291 
L 341.361369 425.788599 
L 341.374332 448.407447 
L 341.478033 447.510136 
L 341.54878 463.72441 
L 341.563226 446.700055 
L 341.563273 560.240625 
M 341.592068 560.240625 
L 341.649903 423.110913 
L 341.6644 560.240625 
M 341.693201 560.240625 
L 341.693242 459.855273 
L 341.798303 466.323684 
L 342.296792 473.536135 
L 343.013888 480.708831 
L 343.715713 485.556614 
L 344.508039 489.538647 
L 345.495109 493.358427 
L 346.70894 497.186329 
L 348.125677 500.913773 
L 349.605375 504.18571 
L 351.201384 507.184644 
L 352.88318 509.903126 
L 354.776578 512.559115 
L 356.931164 515.189588 
L 357.598575 516.043901 
L 357.765428 515.73712 
L 357.932281 517.719581 
L 358.099133 512.284114 
L 358.265986 516.451616 
L 358.432839 517.008709 
L 358.599692 516.89772 
L 358.933397 517.347583 
L 362.600397 520.752313 
L 365.43034 523.018828 
L 368.165699 525.015466 
L 368.430748 525.088861 
L 368.695796 525.48817 
L 368.960845 525.194883 
L 369.225893 526.388031 
L 369.490942 524.472642 
L 369.755991 529.472455 
L 370.021039 520.72576 
L 370.280373 560.240625 
M 370.290164 560.240625 
L 370.583009 497.697967 
L 370.583538 560.240625 
M 371.176414 560.240625 
L 371.176852 508.408917 
L 371.17729 560.240625 
M 371.770466 560.240625 
L 371.770695 533.201942 
L 372.067616 524.977205 
L 372.364538 528.748489 
L 372.661459 527.585031 
L 373.255302 528.195817 
L 374.146067 528.668719 
L 378.456747 530.940836 
L 383.067139 533.101588 
L 388.258367 535.269467 
L 393.512744 537.234325 
L 399.550669 539.261859 
L 404.774684 540.865736 
L 405.394559 541.009984 
L 406.014435 541.271219 
L 406.634311 541.254063 
L 407.254187 541.886638 
L 407.874063 541.011254 
L 408.493938 543.753861 
L 409.113814 538.467767 
L 409.73369 556.865201 
L 410.353566 545.745136 
L 410.973441 543.037623 
L 411.593317 525.849786 
L 412.309133 542.721942 
L 412.632243 560.240625 
M 412.987481 560.240625 
L 413.430857 511.593152 
L 413.991718 516.24276 
L 413.992421 560.240625 
M 415.673079 560.240625 
L 415.674304 483.556298 
L 415.756228 560.240625 
M 415.919819 560.240625 
L 415.919873 537.113779 
L 416.001729 544.76335 
L 416.083586 544.605695 
L 416.227311 545.730694 
L 416.371036 544.102958 
L 416.514761 543.98504 
L 416.658486 544.03628 
L 417.284054 547.304501 
L 417.492577 542.709687 
L 417.7011 553.087493 
L 418.03301 544.42955 
L 418.36492 544.390256 
L 419.028741 544.602946 
L 424.555821 545.877911 
L 434.190846 547.900706 
L 444.60388 549.858951 
L 456.074542 551.794183 
L 468.976736 553.745418 
L 483.344782 555.690139 
L 497.860241 557.456799 
L 516.049726 559.440735 
L 524.007607 560.240625 
L 524.007607 560.240625 
" clip-path="url(#pd197ae185f)" style="fill: none; stroke: #ff7f0e; stroke-linecap: square"/>
   </g>
   <g id="line2d_34">
    <path d="M 339.958927 560.240625 
L 339.979237 61.637068 
L 340.084962 119.659617 
L 340.230691 119.893542 
L 340.797848 119.925939 
L 352.027974 119.929807 
L 1151.113352 119.930431 
L 1151.113352 119.930431 
" clip-path="url(#pd197ae185f)" style="fill: none; stroke: #33adff; stroke-linecap: square"/>
   </g>
   <g id="line2d_35">
    <path d="M 339.953901 560.240625 
L 339.978015 89.906128 
L 340.083974 155.142402 
L 340.284229 151.166046 
L 340.44792 151.017835 
L 341.741175 151.058999 
L 350.642689 151.109539 
L 420.379432 151.144037 
L 1151.113352 151.169123 
L 1151.113352 151.169123 
" clip-path="url(#pd197ae185f)" style="fill: none; stroke: #a65628; stroke-linecap: square"/>
   </g>
   <g id="line2d_36">
    <path d="M 339.947322 560.240625 
L 339.978625 123.31933 
L 340.09023 177.076856 
L 340.278476 222.42279 
L 340.680466 308.1673 
L 341.133233 341.317685 
L 341.374332 348.215354 
L 341.41322 348.03524 
L 341.505442 345.822299 
L 341.812383 329.332511 
L 342.140412 319.641055 
L 342.535164 314.074314 
L 343.021631 310.20373 
L 343.590004 307.393638 
L 344.248506 305.211076 
L 345.023371 303.402374 
L 345.915802 301.88785 
L 346.955677 300.578345 
L 348.125677 299.466867 
L 349.509079 298.463435 
L 351.170292 297.540153 
L 353.109872 296.714217 
L 355.633624 295.897458 
L 358.766545 295.132883 
L 362.402854 294.464114 
L 367.370553 293.781965 
L 373.849145 293.133336 
L 382.34568 292.525569 
L 393.512744 291.949822 
L 409.113814 291.381699 
L 430.442748 290.841728 
L 460.766249 290.315684 
L 503.798459 289.811448 
L 566.112296 289.323793 
L 655.179543 288.860215 
L 792.261581 288.387998 
L 1001.828058 287.908482 
L 1151.113352 287.65124 
L 1151.113352 287.65124 
" clip-path="url(#pd197ae185f)" style="fill: none; stroke: #f781bf; stroke-linecap: square"/>
   </g>
   <g id="line2d_37">
    <path d="M 339.951931 560.240625 
L 339.97831 150.573404 
L 340.084962 226.057807 
L 340.165966 220.752411 
L 340.419191 210.430942 
L 340.687528 207.387773 
L 340.995647 206.134029 
L 341.361369 205.502267 
L 341.912685 205.02829 
L 342.772582 204.595493 
L 344.051512 204.215621 
L 346.077375 203.864881 
L 349.413977 203.538138 
L 354.985774 203.238969 
L 364.712413 202.962093 
L 382.34568 202.706401 
L 416.227311 202.46763 
L 483.344782 202.247797 
L 625.884534 202.039147 
L 946.618904 201.832266 
L 1151.113352 201.751983 
L 1151.113352 201.751983 
" clip-path="url(#pd197ae185f)" style="fill: none; stroke: #d444ca; stroke-linecap: square"/>
   </g>
   <g id="line2d_38">
    <path d="M 136.567898 32.346534 
L 339.973044 32.457436 
L 339.98021 44.809214 
L 339.982495 46.360461 
L 340.09023 44.165816 
L 346.770624 44.165393 
L 1151.113352 44.165392 
L 1151.113352 44.165392 
" clip-path="url(#pd197ae185f)" style="fill: none; stroke: #d4ae44; stroke-linecap: square"/>
   </g>
   <g id="patch_3">
    <path d="M 85.840625 506.16 
L 85.840625 7.2 
" style="fill: none; stroke: #000000; stroke-width: 0.8; stroke-linejoin: miter; stroke-linecap: square"/>
   </g>
   <g id="patch_4">
    <path d="M 1201.840625 506.16 
L 1201.840625 7.2 
" style="fill: none; stroke: #000000; stroke-width: 0.8; stroke-linejoin: miter; stroke-linecap: square"/>
   </g>
   <g id="patch_5">
    <path d="M 85.840625 506.16 
L 1201.840625 506.16 
" style="fill: none; stroke: #000000; stroke-width: 0.8; stroke-linejoin: miter; stroke-linecap: square"/>
   </g>
   <g id="patch_6">
    <path d="M 85.840625 7.2 
L 1201.840625 7.2 
" style="fill: none; stroke: #000000; stroke-width: 0.8; stroke-linejoin: miter; stroke-linecap: square"/>
   </g>
   <g id="text_16">
    <g id="patch_7">
     <path d="M 1151.113352 35.661016 
L 1173.253352 35.661016 
L 1173.253352 18.240391 
L 1151.113352 18.240391 
z
" style="fill: #ffffff"/>
    </g>
    <!-- $H_2$ -->
    <g style="fill: #377eb8" transform="translate(1151.113352 31.917578) scale(0.18 -0.18)">
     <defs>
      <path id="DejaVuSans-Oblique-48" d="M 1081 4666 
L 1716 4666 
L 1344 2753 
L 3634 2753 
L 4006 4666 
L 4641 4666 
L 3731 0 
L 3097 0 
L 3531 2222 
L 1241 2222 
L 806 0 
L 172 0 
L 1081 4666 
z
" transform="scale(0.015625)"/>
     </defs>
     <use xlink:href="#DejaVuSans-Oblique-48" transform="translate(0 0.09375)"/>
     <use xlink:href="#DejaVuSans-32" transform="translate(75.195312 -16.3125) scale(0.7)"/>
    </g>
   </g>
   <g id="text_17">
    <g id="patch_8">
     <path d="M 1151.113352 55.234707 
L 1186.753352 55.234707 
L 1186.753352 37.814082 
L 1151.113352 37.814082 
z
" style="fill: #ffffff"/>
    </g>
    <!-- $NH_3$ -->
    <g style="fill: #e41a1c" transform="translate(1151.113352 51.491269) scale(0.18 -0.18)">
     <defs>
      <path id="DejaVuSans-Oblique-4e" d="M 1081 4666 
L 1931 4666 
L 3219 666 
L 4000 4666 
L 4616 4666 
L 3706 0 
L 2853 0 
L 1569 4025 
L 788 0 
L 172 0 
L 1081 4666 
z
" transform="scale(0.015625)"/>
      <path id="DejaVuSans-33" d="M 2597 2516 
Q 3050 2419 3304 2112 
Q 3559 1806 3559 1356 
Q 3559 666 3084 287 
Q 2609 -91 1734 -91 
Q 1441 -91 1130 -33 
Q 819 25 488 141 
L 488 750 
Q 750 597 1062 519 
Q 1375 441 1716 441 
Q 2309 441 2620 675 
Q 2931 909 2931 1356 
Q 2931 1769 2642 2001 
Q 2353 2234 1838 2234 
L 1294 2234 
L 1294 2753 
L 1863 2753 
Q 2328 2753 2575 2939 
Q 2822 3125 2822 3475 
Q 2822 3834 2567 4026 
Q 2313 4219 1838 4219 
Q 1578 4219 1281 4162 
Q 984 4106 628 3988 
L 628 4550 
Q 988 4650 1302 4700 
Q 1616 4750 1894 4750 
Q 2613 4750 3031 4423 
Q 3450 4097 3450 3541 
Q 3450 3153 3228 2886 
Q 3006 2619 2597 2516 
z
" transform="scale(0.015625)"/>
     </defs>
     <use xlink:href="#DejaVuSans-Oblique-4e" transform="translate(0 0.09375)"/>
     <use xlink:href="#DejaVuSans-Oblique-48" transform="translate(74.804688 0.09375)"/>
     <use xlink:href="#DejaVuSans-33" transform="translate(150 -16.3125) scale(0.7)"/>
    </g>
   </g>
   <g id="text_18">
    <g id="patch_9">
     <path d="M 1151.113352 74.808398 
L 1173.253352 74.808398 
L 1173.253352 57.387773 
L 1151.113352 57.387773 
z
" style="fill: #ffffff"/>
    </g>
    <!-- $N_2$ -->
    <g style="fill: #d4ae44" transform="translate(1151.113352 71.06496) scale(0.18 -0.18)">
     <use xlink:href="#DejaVuSans-Oblique-4e" transform="translate(0 0.09375)"/>
     <use xlink:href="#DejaVuSans-32" transform="translate(74.804688 -16.3125) scale(0.7)"/>
    </g>
   </g>
   <g id="text_19">
    <g id="patch_10">
     <path d="M 1151.113352 128.640744 
L 1195.213352 128.640744 
L 1195.213352 111.220119 
L 1151.113352 111.220119 
z
" style="fill: #ffffff"/>
    </g>
    <!-- $N_2H_4$ -->
    <g style="fill: #33adff" transform="translate(1151.113352 124.897306) scale(0.18 -0.18)">
     <use xlink:href="#DejaVuSans-Oblique-4e" transform="translate(0 0.09375)"/>
     <use xlink:href="#DejaVuSans-32" transform="translate(74.804688 -16.3125) scale(0.7)"/>
     <use xlink:href="#DejaVuSans-Oblique-48" transform="translate(122.075195 0.09375)"/>
     <use xlink:href="#DejaVuSans-34" transform="translate(197.270508 -16.3125) scale(0.7)"/>
    </g>
   </g>
   <g id="text_20">
    <g id="patch_11">
     <path d="M 1151.113352 159.879436 
L 1195.213352 159.879436 
L 1195.213352 142.458811 
L 1151.113352 142.458811 
z
" style="fill: #ffffff"/>
    </g>
    <!-- $N_2H_3$ -->
    <g style="fill: #a65628" transform="translate(1151.113352 156.135998) scale(0.18 -0.18)">
     <use xlink:href="#DejaVuSans-Oblique-4e" transform="translate(0 0.09375)"/>
     <use xlink:href="#DejaVuSans-32" transform="translate(74.804688 -16.3125) scale(0.7)"/>
     <use xlink:href="#DejaVuSans-Oblique-48" transform="translate(122.075195 0.09375)"/>
     <use xlink:href="#DejaVuSans-33" transform="translate(197.270508 -16.3125) scale(0.7)"/>
    </g>
   </g>
   <g id="text_21">
    <g id="patch_12">
     <path d="M 1151.113352 210.462295 
L 1200.253352 210.462295 
L 1200.253352 193.04167 
L 1151.113352 193.04167 
z
" style="fill: #ffffff"/>
    </g>
    <!-- $H_2NN$ -->
    <g style="fill: #d444ca" transform="translate(1151.113352 206.718858) scale(0.18 -0.18)">
     <use xlink:href="#DejaVuSans-Oblique-48" transform="translate(0 0.09375)"/>
     <use xlink:href="#DejaVuSans-32" transform="translate(75.195312 -16.3125) scale(0.7)"/>
     <use xlink:href="#DejaVuSans-Oblique-4e" transform="translate(122.46582 0.09375)"/>
     <use xlink:href="#DejaVuSans-Oblique-4e" transform="translate(197.270508 0.09375)"/>
    </g>
   </g>
   <g id="text_22">
    <g id="patch_13">
     <path d="M 1151.113352 230.035986 
L 1186.753352 230.035986 
L 1186.753352 212.615361 
L 1151.113352 212.615361 
z
" style="fill: #ffffff"/>
    </g>
    <!-- $NH_2$ -->
    <g style="fill: #4daf4a" transform="translate(1151.113352 226.292549) scale(0.18 -0.18)">
     <use xlink:href="#DejaVuSans-Oblique-4e" transform="translate(0 0.09375)"/>
     <use xlink:href="#DejaVuSans-Oblique-48" transform="translate(74.804688 0.09375)"/>
     <use xlink:href="#DejaVuSans-32" transform="translate(150 -16.3125) scale(0.7)"/>
    </g>
   </g>
   <g id="text_23">
    <g id="patch_14">
     <path d="M 1151.113352 293.233646 
L 1178.113352 293.233646 
L 1178.113352 275.813021 
L 1151.113352 275.813021 
z
" style="fill: #ffffff"/>
    </g>
    <!-- $NH$ -->
    <g style="fill: #984ea3" transform="translate(1151.113352 289.490208) scale(0.18 -0.18)">
     <use xlink:href="#DejaVuSans-Oblique-4e" transform="translate(0 0.09375)"/>
     <use xlink:href="#DejaVuSans-Oblique-48" transform="translate(74.804688 0.09375)"/>
    </g>
   </g>
   <g id="text_24">
    <g id="patch_15">
     <path d="M 1151.113352 312.807337 
L 1195.213352 312.807337 
L 1195.213352 295.386712 
L 1151.113352 295.386712 
z
" style="fill: #ffffff"/>
    </g>
    <!-- $N_2H_2$ -->
    <g style="fill: #f781bf" transform="translate(1151.113352 309.063899) scale(0.18 -0.18)">
     <use xlink:href="#DejaVuSans-Oblique-4e" transform="translate(0 0.09375)"/>
     <use xlink:href="#DejaVuSans-32" transform="translate(74.804688 -16.3125) scale(0.7)"/>
     <use xlink:href="#DejaVuSans-Oblique-48" transform="translate(122.075195 0.09375)"/>
     <use xlink:href="#DejaVuSans-32" transform="translate(197.270508 -16.3125) scale(0.7)"/>
    </g>
   </g>
   <g id="text_25">
    <g id="patch_16">
     <path d="M 1151.113352 342.698027 
L 1164.613352 342.698027 
L 1164.613352 325.277402 
L 1151.113352 325.277402 
z
" style="fill: #ffffff"/>
    </g>
    <!-- $N$ -->
    <g style="fill: #d48044" transform="translate(1151.113352 338.954589) scale(0.18 -0.18)">
     <use xlink:href="#DejaVuSans-Oblique-4e" transform="translate(0 0.09375)"/>
    </g>
   </g>
   <g id="legend_1">
    <g id="patch_17">
     <path d="M 98.440625 417.90375 
L 205.180625 417.90375 
Q 208.780625 417.90375 208.780625 414.30375 
L 208.780625 99.05625 
Q 208.780625 95.45625 205.180625 95.45625 
L 98.440625 95.45625 
Q 94.840625 95.45625 94.840625 99.05625 
L 94.840625 414.30375 
Q 94.840625 417.90375 98.440625 417.90375 
z
" style="fill: #ffffff; opacity: 0.8; stroke: #cccccc; stroke-linejoin: miter"/>
    </g>
    <g id="line2d_39">
     <path d="M 102.040625 110.033438 
L 120.040625 110.033438 
L 138.040625 110.033438 
" style="fill: none; stroke: #e41a1c; stroke-linecap: square"/>
    </g>
    <g id="text_26">
     <!-- $NH_3$ -->
     <g transform="translate(152.440625 116.333438) scale(0.18 -0.18)">
      <use xlink:href="#DejaVuSans-Oblique-4e" transform="translate(0 0.09375)"/>
      <use xlink:href="#DejaVuSans-Oblique-48" transform="translate(74.804688 0.09375)"/>
      <use xlink:href="#DejaVuSans-33" transform="translate(150 -16.3125) scale(0.7)"/>
     </g>
    </g>
    <g id="line2d_40">
     <path d="M 102.040625 136.454063 
L 120.040625 136.454063 
L 138.040625 136.454063 
" style="fill: none; stroke: #377eb8; stroke-linecap: square"/>
    </g>
    <g id="text_27">
     <!-- $H_2$ -->
     <g transform="translate(152.440625 142.754063) scale(0.18 -0.18)">
      <use xlink:href="#DejaVuSans-Oblique-48" transform="translate(0 0.09375)"/>
      <use xlink:href="#DejaVuSans-32" transform="translate(75.195312 -16.3125) scale(0.7)"/>
     </g>
    </g>
    <g id="line2d_41">
     <path d="M 102.040625 162.874688 
L 120.040625 162.874688 
L 138.040625 162.874688 
" style="fill: none; stroke: #1f77b4; stroke-linecap: square"/>
    </g>
    <g id="text_28">
     <!-- $H$ -->
     <g transform="translate(152.440625 169.174688) scale(0.18 -0.18)">
      <use xlink:href="#DejaVuSans-Oblique-48" transform="translate(0 0.09375)"/>
     </g>
    </g>
    <g id="line2d_42">
     <path d="M 102.040625 189.295313 
L 120.040625 189.295313 
L 138.040625 189.295313 
" style="fill: none; stroke: #4daf4a; stroke-linecap: square"/>
    </g>
    <g id="text_29">
     <!-- $NH_2$ -->
     <g transform="translate(152.440625 195.595313) scale(0.18 -0.18)">
      <use xlink:href="#DejaVuSans-Oblique-4e" transform="translate(0 0.09375)"/>
      <use xlink:href="#DejaVuSans-Oblique-48" transform="translate(74.804688 0.09375)"/>
      <use xlink:href="#DejaVuSans-32" transform="translate(150 -16.3125) scale(0.7)"/>
     </g>
    </g>
    <g id="line2d_43">
     <path d="M 102.040625 215.715938 
L 120.040625 215.715938 
L 138.040625 215.715938 
" style="fill: none; stroke: #984ea3; stroke-linecap: square"/>
    </g>
    <g id="text_30">
     <!-- $NH$ -->
     <g transform="translate(152.440625 222.015938) scale(0.18 -0.18)">
      <use xlink:href="#DejaVuSans-Oblique-4e" transform="translate(0 0.09375)"/>
      <use xlink:href="#DejaVuSans-Oblique-48" transform="translate(74.804688 0.09375)"/>
     </g>
    </g>
    <g id="line2d_44">
     <path d="M 102.040625 242.136563 
L 120.040625 242.136563 
L 138.040625 242.136563 
" style="fill: none; stroke: #d48044; stroke-linecap: square"/>
    </g>
    <g id="text_31">
     <!-- $N$ -->
     <g transform="translate(152.440625 248.436563) scale(0.18 -0.18)">
      <use xlink:href="#DejaVuSans-Oblique-4e" transform="translate(0 0.09375)"/>
     </g>
    </g>
    <g id="line2d_45">
     <path d="M 102.040625 268.557187 
L 120.040625 268.557187 
L 138.040625 268.557187 
" style="fill: none; stroke: #ff7f0e; stroke-linecap: square"/>
    </g>
    <g id="text_32">
     <!-- $NNH$ -->
     <g transform="translate(152.440625 274.857188) scale(0.18 -0.18)">
      <use xlink:href="#DejaVuSans-Oblique-4e" transform="translate(0 0.09375)"/>
      <use xlink:href="#DejaVuSans-Oblique-4e" transform="translate(74.804688 0.09375)"/>
      <use xlink:href="#DejaVuSans-Oblique-48" transform="translate(149.609375 0.09375)"/>
     </g>
    </g>
    <g id="line2d_46">
     <path d="M 102.040625 294.977813 
L 120.040625 294.977813 
L 138.040625 294.977813 
" style="fill: none; stroke: #33adff; stroke-linecap: square"/>
    </g>
    <g id="text_33">
     <!-- $N_2H_4$ -->
     <g transform="translate(152.440625 301.277813) scale(0.18 -0.18)">
      <use xlink:href="#DejaVuSans-Oblique-4e" transform="translate(0 0.09375)"/>
      <use xlink:href="#DejaVuSans-32" transform="translate(74.804688 -16.3125) scale(0.7)"/>
      <use xlink:href="#DejaVuSans-Oblique-48" transform="translate(122.075195 0.09375)"/>
      <use xlink:href="#DejaVuSans-34" transform="translate(197.270508 -16.3125) scale(0.7)"/>
     </g>
    </g>
    <g id="line2d_47">
     <path d="M 102.040625 321.398438 
L 120.040625 321.398438 
L 138.040625 321.398438 
" style="fill: none; stroke: #a65628; stroke-linecap: square"/>
    </g>
    <g id="text_34">
     <!-- $N_2H_3$ -->
     <g transform="translate(152.440625 327.698438) scale(0.18 -0.18)">
      <use xlink:href="#DejaVuSans-Oblique-4e" transform="translate(0 0.09375)"/>
      <use xlink:href="#DejaVuSans-32" transform="translate(74.804688 -16.3125) scale(0.7)"/>
      <use xlink:href="#DejaVuSans-Oblique-48" transform="translate(122.075195 0.09375)"/>
      <use xlink:href="#DejaVuSans-33" transform="translate(197.270508 -16.3125) scale(0.7)"/>
     </g>
    </g>
    <g id="line2d_48">
     <path d="M 102.040625 347.819063 
L 120.040625 347.819063 
L 138.040625 347.819063 
" style="fill: none; stroke: #f781bf; stroke-linecap: square"/>
    </g>
    <g id="text_35">
     <!-- $N_2H_2$ -->
     <g transform="translate(152.440625 354.119063) scale(0.18 -0.18)">
      <use xlink:href="#DejaVuSans-Oblique-4e" transform="translate(0 0.09375)"/>
      <use xlink:href="#DejaVuSans-32" transform="translate(74.804688 -16.3125) scale(0.7)"/>
      <use xlink:href="#DejaVuSans-Oblique-48" transform="translate(122.075195 0.09375)"/>
      <use xlink:href="#DejaVuSans-32" transform="translate(197.270508 -16.3125) scale(0.7)"/>
     </g>
    </g>
    <g id="line2d_49">
     <path d="M 102.040625 374.239688 
L 120.040625 374.239688 
L 138.040625 374.239688 
" style="fill: none; stroke: #d444ca; stroke-linecap: square"/>
    </g>
    <g id="text_36">
     <!-- $H_2NN$ -->
     <g transform="translate(152.440625 380.539688) scale(0.18 -0.18)">
      <use xlink:href="#DejaVuSans-Oblique-48" transform="translate(0 0.09375)"/>
      <use xlink:href="#DejaVuSans-32" transform="translate(75.195312 -16.3125) scale(0.7)"/>
      <use xlink:href="#DejaVuSans-Oblique-4e" transform="translate(122.46582 0.09375)"/>
      <use xlink:href="#DejaVuSans-Oblique-4e" transform="translate(197.270508 0.09375)"/>
     </g>
    </g>
    <g id="line2d_50">
     <path d="M 102.040625 400.660312 
L 120.040625 400.660312 
L 138.040625 400.660312 
" style="fill: none; stroke: #d4ae44; stroke-linecap: square"/>
    </g>
    <g id="text_37">
     <!-- $N_2$ -->
     <g transform="translate(152.440625 406.960312) scale(0.18 -0.18)">
      <use xlink:href="#DejaVuSans-Oblique-4e" transform="translate(0 0.09375)"/>
      <use xlink:href="#DejaVuSans-32" transform="translate(74.804688 -16.3125) scale(0.7)"/>
     </g>
    </g>
   </g>
  </g>
 </g>
 <defs>
  <clipPath id="pd197ae185f">
   <rect x="85.840625" y="7.2" width="1116" height="498.96"/>
  </clipPath>
 </defs>
</svg>
