<?xml version="1.0" encoding="utf-8" standalone="no"?>
<!DOCTYPE svg PUBLIC "-//W3C//DTD SVG 1.1//EN"
  "http://www.w3.org/Graphics/SVG/1.1/DTD/svg11.dtd">
<svg xmlns:xlink="http://www.w3.org/1999/xlink" width="913.245pt" height="394.381675pt" viewBox="0 0 913.245 394.381675" xmlns="http://www.w3.org/2000/svg" version="1.1">
 <metadata>
  <rdf:RDF xmlns:dc="http://purl.org/dc/elements/1.1/" xmlns:cc="http://creativecommons.org/ns#" xmlns:rdf="http://www.w3.org/1999/02/22-rdf-syntax-ns#">
   <cc:Work>
    <dc:type rdf:resource="http://purl.org/dc/dcmitype/StillImage"/>
    <dc:date>2023-12-03T12:34:04.191186</dc:date>
    <dc:format>image/svg+xml</dc:format>
    <dc:creator>
     <cc:Agent>
      <dc:title>Matplotlib v3.7.0, https://matplotlib.org/</dc:title>
     </cc:Agent>
    </dc:creator>
   </cc:Work>
  </rdf:RDF>
 </metadata>
 <defs>
  <style type="text/css">*{stroke-linejoin: round; stroke-linecap: butt}</style>
 </defs>
 <g id="figure_1">
  <g id="patch_1">
   <path d="M 0 394.381675 
L 913.245 394.381675 
L 913.245 0 
L 0 0 
z
" style="fill: #ffffff"/>
  </g>
  <g id="axes_1">
   <g id="patch_2">
    <path d="M 69.045 345.211675 
L 906.045 345.211675 
L 906.045 12.571675 
L 69.045 12.571675 
z
" style="fill: #ffffff"/>
   </g>
   <g id="matplotlib.axis_1">
    <g id="xtick_1">
     <g id="line2d_1">
      <path d="M 107.090455 345.211675 
L 107.090455 12.571675 
" clip-path="url(#pe02b83de34)" style="fill: none; stroke: #b0b0b0; stroke-width: 0.8; stroke-linecap: square"/>
     </g>
     <g id="line2d_2">
      <defs>
       <path id="m244dfcec51" d="M 0 0 
L 0 3.5 
" style="stroke: #000000; stroke-width: 0.8"/>
      </defs>
      <g>
       <use xlink:href="#m244dfcec51" x="107.090455" y="345.211675" style="stroke: #000000; stroke-width: 0.8"/>
      </g>
     </g>
     <g id="text_1">
      <!-- 0 -->
      <g transform="translate(102.000455 364.369175) scale(0.16 -0.16)">
       <defs>
        <path id="DejaVuSans-30" d="M 2034 4250 
Q 1547 4250 1301 3770 
Q 1056 3291 1056 2328 
Q 1056 1369 1301 889 
Q 1547 409 2034 409 
Q 2525 409 2770 889 
Q 3016 1369 3016 2328 
Q 3016 3291 2770 3770 
Q 2525 4250 2034 4250 
z
M 2034 4750 
Q 2819 4750 3233 4129 
Q 3647 3509 3647 2328 
Q 3647 1150 3233 529 
Q 2819 -91 2034 -91 
Q 1250 -91 836 529 
Q 422 1150 422 2328 
Q 422 3509 836 4129 
Q 1250 4750 2034 4750 
z
" transform="scale(0.015625)"/>
       </defs>
       <use xlink:href="#DejaVuSans-30"/>
      </g>
     </g>
    </g>
    <g id="xtick_2">
     <g id="line2d_3">
      <path d="M 276.181364 345.211675 
L 276.181364 12.571675 
" clip-path="url(#pe02b83de34)" style="fill: none; stroke: #b0b0b0; stroke-width: 0.8; stroke-linecap: square"/>
     </g>
     <g id="line2d_4">
      <g>
       <use xlink:href="#m244dfcec51" x="276.181364" y="345.211675" style="stroke: #000000; stroke-width: 0.8"/>
      </g>
     </g>
     <g id="text_2">
      <!-- 2 -->
      <g transform="translate(271.091364 364.369175) scale(0.16 -0.16)">
       <defs>
        <path id="DejaVuSans-32" d="M 1228 531 
L 3431 531 
L 3431 0 
L 469 0 
L 469 531 
Q 828 903 1448 1529 
Q 2069 2156 2228 2338 
Q 2531 2678 2651 2914 
Q 2772 3150 2772 3378 
Q 2772 3750 2511 3984 
Q 2250 4219 1831 4219 
Q 1534 4219 1204 4116 
Q 875 4013 500 3803 
L 500 4441 
Q 881 4594 1212 4672 
Q 1544 4750 1819 4750 
Q 2544 4750 2975 4387 
Q 3406 4025 3406 3419 
Q 3406 3131 3298 2873 
Q 3191 2616 2906 2266 
Q 2828 2175 2409 1742 
Q 1991 1309 1228 531 
z
" transform="scale(0.015625)"/>
       </defs>
       <use xlink:href="#DejaVuSans-32"/>
      </g>
     </g>
    </g>
    <g id="xtick_3">
     <g id="line2d_5">
      <path d="M 445.272273 345.211675 
L 445.272273 12.571675 
" clip-path="url(#pe02b83de34)" style="fill: none; stroke: #b0b0b0; stroke-width: 0.8; stroke-linecap: square"/>
     </g>
     <g id="line2d_6">
      <g>
       <use xlink:href="#m244dfcec51" x="445.272273" y="345.211675" style="stroke: #000000; stroke-width: 0.8"/>
      </g>
     </g>
     <g id="text_3">
      <!-- 4 -->
      <g transform="translate(440.182273 364.369175) scale(0.16 -0.16)">
       <defs>
        <path id="DejaVuSans-34" d="M 2419 4116 
L 825 1625 
L 2419 1625 
L 2419 4116 
z
M 2253 4666 
L 3047 4666 
L 3047 1625 
L 3713 1625 
L 3713 1100 
L 3047 1100 
L 3047 0 
L 2419 0 
L 2419 1100 
L 313 1100 
L 313 1709 
L 2253 4666 
z
" transform="scale(0.015625)"/>
       </defs>
       <use xlink:href="#DejaVuSans-34"/>
      </g>
     </g>
    </g>
    <g id="xtick_4">
     <g id="line2d_7">
      <path d="M 614.363182 345.211675 
L 614.363182 12.571675 
" clip-path="url(#pe02b83de34)" style="fill: none; stroke: #b0b0b0; stroke-width: 0.8; stroke-linecap: square"/>
     </g>
     <g id="line2d_8">
      <g>
       <use xlink:href="#m244dfcec51" x="614.363182" y="345.211675" style="stroke: #000000; stroke-width: 0.8"/>
      </g>
     </g>
     <g id="text_4">
      <!-- 6 -->
      <g transform="translate(609.273182 364.369175) scale(0.16 -0.16)">
       <defs>
        <path id="DejaVuSans-36" d="M 2113 2584 
Q 1688 2584 1439 2293 
Q 1191 2003 1191 1497 
Q 1191 994 1439 701 
Q 1688 409 2113 409 
Q 2538 409 2786 701 
Q 3034 994 3034 1497 
Q 3034 2003 2786 2293 
Q 2538 2584 2113 2584 
z
M 3366 4563 
L 3366 3988 
Q 3128 4100 2886 4159 
Q 2644 4219 2406 4219 
Q 1781 4219 1451 3797 
Q 1122 3375 1075 2522 
Q 1259 2794 1537 2939 
Q 1816 3084 2150 3084 
Q 2853 3084 3261 2657 
Q 3669 2231 3669 1497 
Q 3669 778 3244 343 
Q 2819 -91 2113 -91 
Q 1303 -91 875 529 
Q 447 1150 447 2328 
Q 447 3434 972 4092 
Q 1497 4750 2381 4750 
Q 2619 4750 2861 4703 
Q 3103 4656 3366 4563 
z
" transform="scale(0.015625)"/>
       </defs>
       <use xlink:href="#DejaVuSans-36"/>
      </g>
     </g>
    </g>
    <g id="xtick_5">
     <g id="line2d_9">
      <path d="M 783.454091 345.211675 
L 783.454091 12.571675 
" clip-path="url(#pe02b83de34)" style="fill: none; stroke: #b0b0b0; stroke-width: 0.8; stroke-linecap: square"/>
     </g>
     <g id="line2d_10">
      <g>
       <use xlink:href="#m244dfcec51" x="783.454091" y="345.211675" style="stroke: #000000; stroke-width: 0.8"/>
      </g>
     </g>
     <g id="text_5">
      <!-- 8 -->
      <g transform="translate(778.364091 364.369175) scale(0.16 -0.16)">
       <defs>
        <path id="DejaVuSans-38" d="M 2034 2216 
Q 1584 2216 1326 1975 
Q 1069 1734 1069 1313 
Q 1069 891 1326 650 
Q 1584 409 2034 409 
Q 2484 409 2743 651 
Q 3003 894 3003 1313 
Q 3003 1734 2745 1975 
Q 2488 2216 2034 2216 
z
M 1403 2484 
Q 997 2584 770 2862 
Q 544 3141 544 3541 
Q 544 4100 942 4425 
Q 1341 4750 2034 4750 
Q 2731 4750 3128 4425 
Q 3525 4100 3525 3541 
Q 3525 3141 3298 2862 
Q 3072 2584 2669 2484 
Q 3125 2378 3379 2068 
Q 3634 1759 3634 1313 
Q 3634 634 3220 271 
Q 2806 -91 2034 -91 
Q 1263 -91 848 271 
Q 434 634 434 1313 
Q 434 1759 690 2068 
Q 947 2378 1403 2484 
z
M 1172 3481 
Q 1172 3119 1398 2916 
Q 1625 2713 2034 2713 
Q 2441 2713 2670 2916 
Q 2900 3119 2900 3481 
Q 2900 3844 2670 4047 
Q 2441 4250 2034 4250 
Q 1625 4250 1398 4047 
Q 1172 3844 1172 3481 
z
" transform="scale(0.015625)"/>
       </defs>
       <use xlink:href="#DejaVuSans-38"/>
      </g>
     </g>
    </g>
    <g id="text_6">
     <!-- steps [-] -->
     <g transform="translate(454.40125 383.854175) scale(0.16 -0.16)">
      <defs>
       <path id="DejaVuSans-73" d="M 2834 3397 
L 2834 2853 
Q 2591 2978 2328 3040 
Q 2066 3103 1784 3103 
Q 1356 3103 1142 2972 
Q 928 2841 928 2578 
Q 928 2378 1081 2264 
Q 1234 2150 1697 2047 
L 1894 2003 
Q 2506 1872 2764 1633 
Q 3022 1394 3022 966 
Q 3022 478 2636 193 
Q 2250 -91 1575 -91 
Q 1294 -91 989 -36 
Q 684 19 347 128 
L 347 722 
Q 666 556 975 473 
Q 1284 391 1588 391 
Q 1994 391 2212 530 
Q 2431 669 2431 922 
Q 2431 1156 2273 1281 
Q 2116 1406 1581 1522 
L 1381 1569 
Q 847 1681 609 1914 
Q 372 2147 372 2553 
Q 372 3047 722 3315 
Q 1072 3584 1716 3584 
Q 2034 3584 2315 3537 
Q 2597 3491 2834 3397 
z
" transform="scale(0.015625)"/>
       <path id="DejaVuSans-74" d="M 1172 4494 
L 1172 3500 
L 2356 3500 
L 2356 3053 
L 1172 3053 
L 1172 1153 
Q 1172 725 1289 603 
Q 1406 481 1766 481 
L 2356 481 
L 2356 0 
L 1766 0 
Q 1100 0 847 248 
Q 594 497 594 1153 
L 594 3053 
L 172 3053 
L 172 3500 
L 594 3500 
L 594 4494 
L 1172 4494 
z
" transform="scale(0.015625)"/>
       <path id="DejaVuSans-65" d="M 3597 1894 
L 3597 1613 
L 953 1613 
Q 991 1019 1311 708 
Q 1631 397 2203 397 
Q 2534 397 2845 478 
Q 3156 559 3463 722 
L 3463 178 
Q 3153 47 2828 -22 
Q 2503 -91 2169 -91 
Q 1331 -91 842 396 
Q 353 884 353 1716 
Q 353 2575 817 3079 
Q 1281 3584 2069 3584 
Q 2775 3584 3186 3129 
Q 3597 2675 3597 1894 
z
M 3022 2063 
Q 3016 2534 2758 2815 
Q 2500 3097 2075 3097 
Q 1594 3097 1305 2825 
Q 1016 2553 972 2059 
L 3022 2063 
z
" transform="scale(0.015625)"/>
       <path id="DejaVuSans-70" d="M 1159 525 
L 1159 -1331 
L 581 -1331 
L 581 3500 
L 1159 3500 
L 1159 2969 
Q 1341 3281 1617 3432 
Q 1894 3584 2278 3584 
Q 2916 3584 3314 3078 
Q 3713 2572 3713 1747 
Q 3713 922 3314 415 
Q 2916 -91 2278 -91 
Q 1894 -91 1617 61 
Q 1341 213 1159 525 
z
M 3116 1747 
Q 3116 2381 2855 2742 
Q 2594 3103 2138 3103 
Q 1681 3103 1420 2742 
Q 1159 2381 1159 1747 
Q 1159 1113 1420 752 
Q 1681 391 2138 391 
Q 2594 391 2855 752 
Q 3116 1113 3116 1747 
z
" transform="scale(0.015625)"/>
       <path id="DejaVuSans-20" transform="scale(0.015625)"/>
       <path id="DejaVuSans-5b" d="M 550 4863 
L 1875 4863 
L 1875 4416 
L 1125 4416 
L 1125 -397 
L 1875 -397 
L 1875 -844 
L 550 -844 
L 550 4863 
z
" transform="scale(0.015625)"/>
       <path id="DejaVuSans-2d" d="M 313 2009 
L 1997 2009 
L 1997 1497 
L 313 1497 
L 313 2009 
z
" transform="scale(0.015625)"/>
       <path id="DejaVuSans-5d" d="M 1947 4863 
L 1947 -844 
L 622 -844 
L 622 -397 
L 1369 -397 
L 1369 4416 
L 622 4416 
L 622 4863 
L 1947 4863 
z
" transform="scale(0.015625)"/>
      </defs>
      <use xlink:href="#DejaVuSans-73"/>
      <use xlink:href="#DejaVuSans-74" x="52.099609"/>
      <use xlink:href="#DejaVuSans-65" x="91.308594"/>
      <use xlink:href="#DejaVuSans-70" x="152.832031"/>
      <use xlink:href="#DejaVuSans-73" x="216.308594"/>
      <use xlink:href="#DejaVuSans-20" x="268.408203"/>
      <use xlink:href="#DejaVuSans-5b" x="300.195312"/>
      <use xlink:href="#DejaVuSans-2d" x="339.208984"/>
      <use xlink:href="#DejaVuSans-5d" x="375.292969"/>
     </g>
    </g>
   </g>
   <g id="matplotlib.axis_2">
    <g id="ytick_1">
     <g id="line2d_11">
      <path d="M 69.045 315.950171 
L 906.045 315.950171 
" clip-path="url(#pe02b83de34)" style="fill: none; stroke: #b0b0b0; stroke-width: 0.8; stroke-linecap: square"/>
     </g>
     <g id="line2d_12">
      <defs>
       <path id="mc9d98d55b0" d="M 0 0 
L -3.5 0 
" style="stroke: #000000; stroke-width: 0.8"/>
      </defs>
      <g>
       <use xlink:href="#mc9d98d55b0" x="69.045" y="315.950171" style="stroke: #000000; stroke-width: 0.8"/>
      </g>
     </g>
     <g id="text_7">
      <!-- $\mathdefault{10^{10}}$ -->
      <g transform="translate(26.685 322.028921) scale(0.16 -0.16)">
       <defs>
        <path id="DejaVuSans-31" d="M 794 531 
L 1825 531 
L 1825 4091 
L 703 3866 
L 703 4441 
L 1819 4666 
L 2450 4666 
L 2450 531 
L 3481 531 
L 3481 0 
L 794 0 
L 794 531 
z
" transform="scale(0.015625)"/>
       </defs>
       <use xlink:href="#DejaVuSans-31" transform="translate(0 0.765625)"/>
       <use xlink:href="#DejaVuSans-30" transform="translate(63.623047 0.765625)"/>
       <use xlink:href="#DejaVuSans-31" transform="translate(128.203125 39.046875) scale(0.7)"/>
       <use xlink:href="#DejaVuSans-30" transform="translate(172.739258 39.046875) scale(0.7)"/>
      </g>
     </g>
    </g>
    <g id="ytick_2">
     <g id="line2d_13">
      <path d="M 69.045 272.711397 
L 906.045 272.711397 
" clip-path="url(#pe02b83de34)" style="fill: none; stroke: #b0b0b0; stroke-width: 0.8; stroke-linecap: square"/>
     </g>
     <g id="line2d_14">
      <g>
       <use xlink:href="#mc9d98d55b0" x="69.045" y="272.711397" style="stroke: #000000; stroke-width: 0.8"/>
      </g>
     </g>
     <g id="text_8">
      <!-- $\mathdefault{10^{13}}$ -->
      <g transform="translate(26.685 278.790147) scale(0.16 -0.16)">
       <defs>
        <path id="DejaVuSans-33" d="M 2597 2516 
Q 3050 2419 3304 2112 
Q 3559 1806 3559 1356 
Q 3559 666 3084 287 
Q 2609 -91 1734 -91 
Q 1441 -91 1130 -33 
Q 819 25 488 141 
L 488 750 
Q 750 597 1062 519 
Q 1375 441 1716 441 
Q 2309 441 2620 675 
Q 2931 909 2931 1356 
Q 2931 1769 2642 2001 
Q 2353 2234 1838 2234 
L 1294 2234 
L 1294 2753 
L 1863 2753 
Q 2328 2753 2575 2939 
Q 2822 3125 2822 3475 
Q 2822 3834 2567 4026 
Q 2313 4219 1838 4219 
Q 1578 4219 1281 4162 
Q 984 4106 628 3988 
L 628 4550 
Q 988 4650 1302 4700 
Q 1616 4750 1894 4750 
Q 2613 4750 3031 4423 
Q 3450 4097 3450 3541 
Q 3450 3153 3228 2886 
Q 3006 2619 2597 2516 
z
" transform="scale(0.015625)"/>
       </defs>
       <use xlink:href="#DejaVuSans-31" transform="translate(0 0.765625)"/>
       <use xlink:href="#DejaVuSans-30" transform="translate(63.623047 0.765625)"/>
       <use xlink:href="#DejaVuSans-31" transform="translate(128.203125 39.046875) scale(0.7)"/>
       <use xlink:href="#DejaVuSans-33" transform="translate(172.739258 39.046875) scale(0.7)"/>
      </g>
     </g>
    </g>
    <g id="ytick_3">
     <g id="line2d_15">
      <path d="M 69.045 229.472622 
L 906.045 229.472622 
" clip-path="url(#pe02b83de34)" style="fill: none; stroke: #b0b0b0; stroke-width: 0.8; stroke-linecap: square"/>
     </g>
     <g id="line2d_16">
      <g>
       <use xlink:href="#mc9d98d55b0" x="69.045" y="229.472622" style="stroke: #000000; stroke-width: 0.8"/>
      </g>
     </g>
     <g id="text_9">
      <!-- $\mathdefault{10^{16}}$ -->
      <g transform="translate(26.685 235.551372) scale(0.16 -0.16)">
       <use xlink:href="#DejaVuSans-31" transform="translate(0 0.765625)"/>
       <use xlink:href="#DejaVuSans-30" transform="translate(63.623047 0.765625)"/>
       <use xlink:href="#DejaVuSans-31" transform="translate(128.203125 39.046875) scale(0.7)"/>
       <use xlink:href="#DejaVuSans-36" transform="translate(172.739258 39.046875) scale(0.7)"/>
      </g>
     </g>
    </g>
    <g id="ytick_4">
     <g id="line2d_17">
      <path d="M 69.045 186.233848 
L 906.045 186.233848 
" clip-path="url(#pe02b83de34)" style="fill: none; stroke: #b0b0b0; stroke-width: 0.8; stroke-linecap: square"/>
     </g>
     <g id="line2d_18">
      <g>
       <use xlink:href="#mc9d98d55b0" x="69.045" y="186.233848" style="stroke: #000000; stroke-width: 0.8"/>
      </g>
     </g>
     <g id="text_10">
      <!-- $\mathdefault{10^{19}}$ -->
      <g transform="translate(26.685 192.312598) scale(0.16 -0.16)">
       <defs>
        <path id="DejaVuSans-39" d="M 703 97 
L 703 672 
Q 941 559 1184 500 
Q 1428 441 1663 441 
Q 2288 441 2617 861 
Q 2947 1281 2994 2138 
Q 2813 1869 2534 1725 
Q 2256 1581 1919 1581 
Q 1219 1581 811 2004 
Q 403 2428 403 3163 
Q 403 3881 828 4315 
Q 1253 4750 1959 4750 
Q 2769 4750 3195 4129 
Q 3622 3509 3622 2328 
Q 3622 1225 3098 567 
Q 2575 -91 1691 -91 
Q 1453 -91 1209 -44 
Q 966 3 703 97 
z
M 1959 2075 
Q 2384 2075 2632 2365 
Q 2881 2656 2881 3163 
Q 2881 3666 2632 3958 
Q 2384 4250 1959 4250 
Q 1534 4250 1286 3958 
Q 1038 3666 1038 3163 
Q 1038 2656 1286 2365 
Q 1534 2075 1959 2075 
z
" transform="scale(0.015625)"/>
       </defs>
       <use xlink:href="#DejaVuSans-31" transform="translate(0 0.765625)"/>
       <use xlink:href="#DejaVuSans-30" transform="translate(63.623047 0.765625)"/>
       <use xlink:href="#DejaVuSans-31" transform="translate(128.203125 39.046875) scale(0.7)"/>
       <use xlink:href="#DejaVuSans-39" transform="translate(172.739258 39.046875) scale(0.7)"/>
      </g>
     </g>
    </g>
    <g id="ytick_5">
     <g id="line2d_19">
      <path d="M 69.045 142.995073 
L 906.045 142.995073 
" clip-path="url(#pe02b83de34)" style="fill: none; stroke: #b0b0b0; stroke-width: 0.8; stroke-linecap: square"/>
     </g>
     <g id="line2d_20">
      <g>
       <use xlink:href="#mc9d98d55b0" x="69.045" y="142.995073" style="stroke: #000000; stroke-width: 0.8"/>
      </g>
     </g>
     <g id="text_11">
      <!-- $\mathdefault{10^{22}}$ -->
      <g transform="translate(26.685 149.073823) scale(0.16 -0.16)">
       <use xlink:href="#DejaVuSans-31" transform="translate(0 0.765625)"/>
       <use xlink:href="#DejaVuSans-30" transform="translate(63.623047 0.765625)"/>
       <use xlink:href="#DejaVuSans-32" transform="translate(128.203125 39.046875) scale(0.7)"/>
       <use xlink:href="#DejaVuSans-32" transform="translate(172.739258 39.046875) scale(0.7)"/>
      </g>
     </g>
    </g>
    <g id="ytick_6">
     <g id="line2d_21">
      <path d="M 69.045 99.756299 
L 906.045 99.756299 
" clip-path="url(#pe02b83de34)" style="fill: none; stroke: #b0b0b0; stroke-width: 0.8; stroke-linecap: square"/>
     </g>
     <g id="line2d_22">
      <g>
       <use xlink:href="#mc9d98d55b0" x="69.045" y="99.756299" style="stroke: #000000; stroke-width: 0.8"/>
      </g>
     </g>
     <g id="text_12">
      <!-- $\mathdefault{10^{25}}$ -->
      <g transform="translate(26.685 105.835049) scale(0.16 -0.16)">
       <defs>
        <path id="DejaVuSans-35" d="M 691 4666 
L 3169 4666 
L 3169 4134 
L 1269 4134 
L 1269 2991 
Q 1406 3038 1543 3061 
Q 1681 3084 1819 3084 
Q 2600 3084 3056 2656 
Q 3513 2228 3513 1497 
Q 3513 744 3044 326 
Q 2575 -91 1722 -91 
Q 1428 -91 1123 -41 
Q 819 9 494 109 
L 494 744 
Q 775 591 1075 516 
Q 1375 441 1709 441 
Q 2250 441 2565 725 
Q 2881 1009 2881 1497 
Q 2881 1984 2565 2268 
Q 2250 2553 1709 2553 
Q 1456 2553 1204 2497 
Q 953 2441 691 2322 
L 691 4666 
z
" transform="scale(0.015625)"/>
       </defs>
       <use xlink:href="#DejaVuSans-31" transform="translate(0 0.765625)"/>
       <use xlink:href="#DejaVuSans-30" transform="translate(63.623047 0.765625)"/>
       <use xlink:href="#DejaVuSans-32" transform="translate(128.203125 39.046875) scale(0.7)"/>
       <use xlink:href="#DejaVuSans-35" transform="translate(172.739258 39.046875) scale(0.7)"/>
      </g>
     </g>
    </g>
    <g id="ytick_7">
     <g id="line2d_23">
      <path d="M 69.045 56.517524 
L 906.045 56.517524 
" clip-path="url(#pe02b83de34)" style="fill: none; stroke: #b0b0b0; stroke-width: 0.8; stroke-linecap: square"/>
     </g>
     <g id="line2d_24">
      <g>
       <use xlink:href="#mc9d98d55b0" x="69.045" y="56.517524" style="stroke: #000000; stroke-width: 0.8"/>
      </g>
     </g>
     <g id="text_13">
      <!-- $\mathdefault{10^{28}}$ -->
      <g transform="translate(26.685 62.596274) scale(0.16 -0.16)">
       <use xlink:href="#DejaVuSans-31" transform="translate(0 0.765625)"/>
       <use xlink:href="#DejaVuSans-30" transform="translate(63.623047 0.765625)"/>
       <use xlink:href="#DejaVuSans-32" transform="translate(128.203125 39.046875) scale(0.7)"/>
       <use xlink:href="#DejaVuSans-38" transform="translate(172.739258 39.046875) scale(0.7)"/>
      </g>
     </g>
    </g>
    <g id="ytick_8">
     <g id="line2d_25">
      <path d="M 69.045 13.27875 
L 906.045 13.27875 
" clip-path="url(#pe02b83de34)" style="fill: none; stroke: #b0b0b0; stroke-width: 0.8; stroke-linecap: square"/>
     </g>
     <g id="line2d_26">
      <g>
       <use xlink:href="#mc9d98d55b0" x="69.045" y="13.27875" style="stroke: #000000; stroke-width: 0.8"/>
      </g>
     </g>
     <g id="text_14">
      <!-- $\mathdefault{10^{31}}$ -->
      <g transform="translate(26.685 19.3575) scale(0.16 -0.16)">
       <use xlink:href="#DejaVuSans-31" transform="translate(0 0.765625)"/>
       <use xlink:href="#DejaVuSans-30" transform="translate(63.623047 0.765625)"/>
       <use xlink:href="#DejaVuSans-33" transform="translate(128.203125 39.046875) scale(0.7)"/>
       <use xlink:href="#DejaVuSans-31" transform="translate(172.739258 39.046875) scale(0.7)"/>
      </g>
     </g>
    </g>
    <g id="text_15">
     <!-- Energy demand [MJ/kg] -->
     <g transform="translate(19.3575 272.742925) rotate(-90) scale(0.16 -0.16)">
      <defs>
       <path id="DejaVuSans-45" d="M 628 4666 
L 3578 4666 
L 3578 4134 
L 1259 4134 
L 1259 2753 
L 3481 2753 
L 3481 2222 
L 1259 2222 
L 1259 531 
L 3634 531 
L 3634 0 
L 628 0 
L 628 4666 
z
" transform="scale(0.015625)"/>
       <path id="DejaVuSans-6e" d="M 3513 2113 
L 3513 0 
L 2938 0 
L 2938 2094 
Q 2938 2591 2744 2837 
Q 2550 3084 2163 3084 
Q 1697 3084 1428 2787 
Q 1159 2491 1159 1978 
L 1159 0 
L 581 0 
L 581 3500 
L 1159 3500 
L 1159 2956 
Q 1366 3272 1645 3428 
Q 1925 3584 2291 3584 
Q 2894 3584 3203 3211 
Q 3513 2838 3513 2113 
z
" transform="scale(0.015625)"/>
       <path id="DejaVuSans-72" d="M 2631 2963 
Q 2534 3019 2420 3045 
Q 2306 3072 2169 3072 
Q 1681 3072 1420 2755 
Q 1159 2438 1159 1844 
L 1159 0 
L 581 0 
L 581 3500 
L 1159 3500 
L 1159 2956 
Q 1341 3275 1631 3429 
Q 1922 3584 2338 3584 
Q 2397 3584 2469 3576 
Q 2541 3569 2628 3553 
L 2631 2963 
z
" transform="scale(0.015625)"/>
       <path id="DejaVuSans-67" d="M 2906 1791 
Q 2906 2416 2648 2759 
Q 2391 3103 1925 3103 
Q 1463 3103 1205 2759 
Q 947 2416 947 1791 
Q 947 1169 1205 825 
Q 1463 481 1925 481 
Q 2391 481 2648 825 
Q 2906 1169 2906 1791 
z
M 3481 434 
Q 3481 -459 3084 -895 
Q 2688 -1331 1869 -1331 
Q 1566 -1331 1297 -1286 
Q 1028 -1241 775 -1147 
L 775 -588 
Q 1028 -725 1275 -790 
Q 1522 -856 1778 -856 
Q 2344 -856 2625 -561 
Q 2906 -266 2906 331 
L 2906 616 
Q 2728 306 2450 153 
Q 2172 0 1784 0 
Q 1141 0 747 490 
Q 353 981 353 1791 
Q 353 2603 747 3093 
Q 1141 3584 1784 3584 
Q 2172 3584 2450 3431 
Q 2728 3278 2906 2969 
L 2906 3500 
L 3481 3500 
L 3481 434 
z
" transform="scale(0.015625)"/>
       <path id="DejaVuSans-79" d="M 2059 -325 
Q 1816 -950 1584 -1140 
Q 1353 -1331 966 -1331 
L 506 -1331 
L 506 -850 
L 844 -850 
Q 1081 -850 1212 -737 
Q 1344 -625 1503 -206 
L 1606 56 
L 191 3500 
L 800 3500 
L 1894 763 
L 2988 3500 
L 3597 3500 
L 2059 -325 
z
" transform="scale(0.015625)"/>
       <path id="DejaVuSans-64" d="M 2906 2969 
L 2906 4863 
L 3481 4863 
L 3481 0 
L 2906 0 
L 2906 525 
Q 2725 213 2448 61 
Q 2172 -91 1784 -91 
Q 1150 -91 751 415 
Q 353 922 353 1747 
Q 353 2572 751 3078 
Q 1150 3584 1784 3584 
Q 2172 3584 2448 3432 
Q 2725 3281 2906 2969 
z
M 947 1747 
Q 947 1113 1208 752 
Q 1469 391 1925 391 
Q 2381 391 2643 752 
Q 2906 1113 2906 1747 
Q 2906 2381 2643 2742 
Q 2381 3103 1925 3103 
Q 1469 3103 1208 2742 
Q 947 2381 947 1747 
z
" transform="scale(0.015625)"/>
       <path id="DejaVuSans-6d" d="M 3328 2828 
Q 3544 3216 3844 3400 
Q 4144 3584 4550 3584 
Q 5097 3584 5394 3201 
Q 5691 2819 5691 2113 
L 5691 0 
L 5113 0 
L 5113 2094 
Q 5113 2597 4934 2840 
Q 4756 3084 4391 3084 
Q 3944 3084 3684 2787 
Q 3425 2491 3425 1978 
L 3425 0 
L 2847 0 
L 2847 2094 
Q 2847 2600 2669 2842 
Q 2491 3084 2119 3084 
Q 1678 3084 1418 2786 
Q 1159 2488 1159 1978 
L 1159 0 
L 581 0 
L 581 3500 
L 1159 3500 
L 1159 2956 
Q 1356 3278 1631 3431 
Q 1906 3584 2284 3584 
Q 2666 3584 2933 3390 
Q 3200 3197 3328 2828 
z
" transform="scale(0.015625)"/>
       <path id="DejaVuSans-61" d="M 2194 1759 
Q 1497 1759 1228 1600 
Q 959 1441 959 1056 
Q 959 750 1161 570 
Q 1363 391 1709 391 
Q 2188 391 2477 730 
Q 2766 1069 2766 1631 
L 2766 1759 
L 2194 1759 
z
M 3341 1997 
L 3341 0 
L 2766 0 
L 2766 531 
Q 2569 213 2275 61 
Q 1981 -91 1556 -91 
Q 1019 -91 701 211 
Q 384 513 384 1019 
Q 384 1609 779 1909 
Q 1175 2209 1959 2209 
L 2766 2209 
L 2766 2266 
Q 2766 2663 2505 2880 
Q 2244 3097 1772 3097 
Q 1472 3097 1187 3025 
Q 903 2953 641 2809 
L 641 3341 
Q 956 3463 1253 3523 
Q 1550 3584 1831 3584 
Q 2591 3584 2966 3190 
Q 3341 2797 3341 1997 
z
" transform="scale(0.015625)"/>
       <path id="DejaVuSans-4d" d="M 628 4666 
L 1569 4666 
L 2759 1491 
L 3956 4666 
L 4897 4666 
L 4897 0 
L 4281 0 
L 4281 4097 
L 3078 897 
L 2444 897 
L 1241 4097 
L 1241 0 
L 628 0 
L 628 4666 
z
" transform="scale(0.015625)"/>
       <path id="DejaVuSans-4a" d="M 628 4666 
L 1259 4666 
L 1259 325 
Q 1259 -519 939 -900 
Q 619 -1281 -91 -1281 
L -331 -1281 
L -331 -750 
L -134 -750 
Q 284 -750 456 -515 
Q 628 -281 628 325 
L 628 4666 
z
" transform="scale(0.015625)"/>
       <path id="DejaVuSans-2f" d="M 1625 4666 
L 2156 4666 
L 531 -594 
L 0 -594 
L 1625 4666 
z
" transform="scale(0.015625)"/>
       <path id="DejaVuSans-6b" d="M 581 4863 
L 1159 4863 
L 1159 1991 
L 2875 3500 
L 3609 3500 
L 1753 1863 
L 3688 0 
L 2938 0 
L 1159 1709 
L 1159 0 
L 581 0 
L 581 4863 
z
" transform="scale(0.015625)"/>
      </defs>
      <use xlink:href="#DejaVuSans-45"/>
      <use xlink:href="#DejaVuSans-6e" x="63.183594"/>
      <use xlink:href="#DejaVuSans-65" x="126.5625"/>
      <use xlink:href="#DejaVuSans-72" x="188.085938"/>
      <use xlink:href="#DejaVuSans-67" x="227.449219"/>
      <use xlink:href="#DejaVuSans-79" x="290.925781"/>
      <use xlink:href="#DejaVuSans-20" x="350.105469"/>
      <use xlink:href="#DejaVuSans-64" x="381.892578"/>
      <use xlink:href="#DejaVuSans-65" x="445.369141"/>
      <use xlink:href="#DejaVuSans-6d" x="506.892578"/>
      <use xlink:href="#DejaVuSans-61" x="604.304688"/>
      <use xlink:href="#DejaVuSans-6e" x="665.583984"/>
      <use xlink:href="#DejaVuSans-64" x="728.962891"/>
      <use xlink:href="#DejaVuSans-20" x="792.439453"/>
      <use xlink:href="#DejaVuSans-5b" x="824.226562"/>
      <use xlink:href="#DejaVuSans-4d" x="863.240234"/>
      <use xlink:href="#DejaVuSans-4a" x="949.519531"/>
      <use xlink:href="#DejaVuSans-2f" x="979.011719"/>
      <use xlink:href="#DejaVuSans-6b" x="1012.703125"/>
      <use xlink:href="#DejaVuSans-67" x="1070.613281"/>
      <use xlink:href="#DejaVuSans-5d" x="1134.089844"/>
     </g>
    </g>
   </g>
   <g id="line2d_27">
    <path d="M 107.090455 270.438571 
" clip-path="url(#pe02b83de34)" style="fill: none; stroke: #1f77b4; stroke-linecap: square"/>
    <defs>
     <path id="mb4fd0bc42d" d="M 0 1.5 
C 0.397805 1.5 0.77937 1.341951 1.06066 1.06066 
C 1.341951 0.77937 1.5 0.397805 1.5 0 
C 1.5 -0.397805 1.341951 -0.77937 1.06066 -1.06066 
C 0.77937 -1.341951 0.397805 -1.5 0 -1.5 
C -0.397805 -1.5 -0.77937 -1.341951 -1.06066 -1.06066 
C -1.341951 -0.77937 -1.5 -0.397805 -1.5 0 
C -1.5 0.397805 -1.341951 0.77937 -1.06066 1.06066 
C -0.77937 1.341951 -0.397805 1.5 0 1.5 
z
" style="stroke: #1f77b4"/>
    </defs>
    <g clip-path="url(#pe02b83de34)">
     <use xlink:href="#mb4fd0bc42d" x="107.090455" y="270.438571" style="fill: #1f77b4; stroke: #1f77b4"/>
    </g>
   </g>
   <g id="line2d_28">
    <path d="M 107.090455 277.066394 
L 191.635909 294.529107 
" clip-path="url(#pe02b83de34)" style="fill: none; stroke: #ff7f0e; stroke-linecap: square"/>
    <defs>
     <path id="m682097d630" d="M 0 1.5 
C 0.397805 1.5 0.77937 1.341951 1.06066 1.06066 
C 1.341951 0.77937 1.5 0.397805 1.5 0 
C 1.5 -0.397805 1.341951 -0.77937 1.06066 -1.06066 
C 0.77937 -1.341951 0.397805 -1.5 0 -1.5 
C -0.397805 -1.5 -0.77937 -1.341951 -1.06066 -1.06066 
C -1.341951 -0.77937 -1.5 -0.397805 -1.5 0 
C -1.5 0.397805 -1.341951 0.77937 -1.06066 1.06066 
C -0.77937 1.341951 -0.397805 1.5 0 1.5 
z
" style="stroke: #ff7f0e"/>
    </defs>
    <g clip-path="url(#pe02b83de34)">
     <use xlink:href="#m682097d630" x="107.090455" y="277.066394" style="fill: #ff7f0e; stroke: #ff7f0e"/>
     <use xlink:href="#m682097d630" x="191.635909" y="294.529107" style="fill: #ff7f0e; stroke: #ff7f0e"/>
    </g>
   </g>
   <g id="line2d_29">
    <path d="M 107.090455 310.859661 
" clip-path="url(#pe02b83de34)" style="fill: none; stroke: #2ca02c; stroke-linecap: square"/>
    <defs>
     <path id="me7b4c40783" d="M 0 1.5 
C 0.397805 1.5 0.77937 1.341951 1.06066 1.06066 
C 1.341951 0.77937 1.5 0.397805 1.5 0 
C 1.5 -0.397805 1.341951 -0.77937 1.06066 -1.06066 
C 0.77937 -1.341951 0.397805 -1.5 0 -1.5 
C -0.397805 -1.5 -0.77937 -1.341951 -1.06066 -1.06066 
C -1.341951 -0.77937 -1.5 -0.397805 -1.5 0 
C -1.5 0.397805 -1.341951 0.77937 -1.06066 1.06066 
C -0.77937 1.341951 -0.397805 1.5 0 1.5 
z
" style="stroke: #2ca02c"/>
    </defs>
    <g clip-path="url(#pe02b83de34)">
     <use xlink:href="#me7b4c40783" x="107.090455" y="310.859661" style="fill: #2ca02c; stroke: #2ca02c"/>
    </g>
   </g>
   <g id="line2d_30">
    <path d="M 107.090455 264.934543 
L 191.635909 257.702221 
L 276.181364 249.56551 
" clip-path="url(#pe02b83de34)" style="fill: none; stroke: #d62728; stroke-linecap: square"/>
    <defs>
     <path id="mba1e3bad04" d="M 0 1.5 
C 0.397805 1.5 0.77937 1.341951 1.06066 1.06066 
C 1.341951 0.77937 1.5 0.397805 1.5 0 
C 1.5 -0.397805 1.341951 -0.77937 1.06066 -1.06066 
C 0.77937 -1.341951 0.397805 -1.5 0 -1.5 
C -0.397805 -1.5 -0.77937 -1.341951 -1.06066 -1.06066 
C -1.341951 -0.77937 -1.5 -0.397805 -1.5 0 
C -1.5 0.397805 -1.341951 0.77937 -1.06066 1.06066 
C -0.77937 1.341951 -0.397805 1.5 0 1.5 
z
" style="stroke: #d62728"/>
    </defs>
    <g clip-path="url(#pe02b83de34)">
     <use xlink:href="#mba1e3bad04" x="107.090455" y="264.934543" style="fill: #d62728; stroke: #d62728"/>
     <use xlink:href="#mba1e3bad04" x="191.635909" y="257.702221" style="fill: #d62728; stroke: #d62728"/>
     <use xlink:href="#mba1e3bad04" x="276.181364" y="249.56551" style="fill: #d62728; stroke: #d62728"/>
    </g>
   </g>
   <g id="line2d_31">
    <path d="M 107.090455 261.25748 
" clip-path="url(#pe02b83de34)" style="fill: none; stroke: #9467bd; stroke-linecap: square"/>
    <defs>
     <path id="m14b96db054" d="M 0 1.5 
C 0.397805 1.5 0.77937 1.341951 1.06066 1.06066 
C 1.341951 0.77937 1.5 0.397805 1.5 0 
C 1.5 -0.397805 1.341951 -0.77937 1.06066 -1.06066 
C 0.77937 -1.341951 0.397805 -1.5 0 -1.5 
C -0.397805 -1.5 -0.77937 -1.341951 -1.06066 -1.06066 
C -1.341951 -0.77937 -1.5 -0.397805 -1.5 0 
C -1.5 0.397805 -1.341951 0.77937 -1.06066 1.06066 
C -0.77937 1.341951 -0.397805 1.5 0 1.5 
z
" style="stroke: #9467bd"/>
    </defs>
    <g clip-path="url(#pe02b83de34)">
     <use xlink:href="#m14b96db054" x="107.090455" y="261.25748" style="fill: #9467bd; stroke: #9467bd"/>
    </g>
   </g>
   <g id="line2d_32">
    <path d="M 107.090455 330.091675 
" clip-path="url(#pe02b83de34)" style="fill: none; stroke: #8c564b; stroke-linecap: square"/>
    <defs>
     <path id="m24be62658a" d="M 0 1.5 
C 0.397805 1.5 0.77937 1.341951 1.06066 1.06066 
C 1.341951 0.77937 1.5 0.397805 1.5 0 
C 1.5 -0.397805 1.341951 -0.77937 1.06066 -1.06066 
C 0.77937 -1.341951 0.397805 -1.5 0 -1.5 
C -0.397805 -1.5 -0.77937 -1.341951 -1.06066 -1.06066 
C -1.341951 -0.77937 -1.5 -0.397805 -1.5 0 
C -1.5 0.397805 -1.341951 0.77937 -1.06066 1.06066 
C -0.77937 1.341951 -0.397805 1.5 0 1.5 
z
" style="stroke: #8c564b"/>
    </defs>
    <g clip-path="url(#pe02b83de34)">
     <use xlink:href="#m24be62658a" x="107.090455" y="330.091675" style="fill: #8c564b; stroke: #8c564b"/>
    </g>
   </g>
   <g id="line2d_33">
    <path d="M 107.090455 261.635577 
L 191.635909 110.417372 
L 276.181364 261.635577 
L 360.726818 256.33035 
L 445.272273 261.635577 
L 529.817727 98.610582 
L 614.363182 251.941736 
L 698.908636 254.867181 
L 783.454091 254.871818 
" clip-path="url(#pe02b83de34)" style="fill: none; stroke: #e377c2; stroke-linecap: square"/>
    <defs>
     <path id="mcfe692291a" d="M 0 1.5 
C 0.397805 1.5 0.77937 1.341951 1.06066 1.06066 
C 1.341951 0.77937 1.5 0.397805 1.5 0 
C 1.5 -0.397805 1.341951 -0.77937 1.06066 -1.06066 
C 0.77937 -1.341951 0.397805 -1.5 0 -1.5 
C -0.397805 -1.5 -0.77937 -1.341951 -1.06066 -1.06066 
C -1.341951 -0.77937 -1.5 -0.397805 -1.5 0 
C -1.5 0.397805 -1.341951 0.77937 -1.06066 1.06066 
C -0.77937 1.341951 -0.397805 1.5 0 1.5 
z
" style="stroke: #e377c2"/>
    </defs>
    <g clip-path="url(#pe02b83de34)">
     <use xlink:href="#mcfe692291a" x="107.090455" y="261.635577" style="fill: #e377c2; stroke: #e377c2"/>
     <use xlink:href="#mcfe692291a" x="191.635909" y="110.417372" style="fill: #e377c2; stroke: #e377c2"/>
     <use xlink:href="#mcfe692291a" x="276.181364" y="261.635577" style="fill: #e377c2; stroke: #e377c2"/>
     <use xlink:href="#mcfe692291a" x="360.726818" y="256.33035" style="fill: #e377c2; stroke: #e377c2"/>
     <use xlink:href="#mcfe692291a" x="445.272273" y="261.635577" style="fill: #e377c2; stroke: #e377c2"/>
     <use xlink:href="#mcfe692291a" x="529.817727" y="98.610582" style="fill: #e377c2; stroke: #e377c2"/>
     <use xlink:href="#mcfe692291a" x="614.363182" y="251.941736" style="fill: #e377c2; stroke: #e377c2"/>
     <use xlink:href="#mcfe692291a" x="698.908636" y="254.867181" style="fill: #e377c2; stroke: #e377c2"/>
     <use xlink:href="#mcfe692291a" x="783.454091" y="254.871818" style="fill: #e377c2; stroke: #e377c2"/>
    </g>
   </g>
   <g id="line2d_34">
    <path d="M 107.090455 265.167532 
L 191.635909 36.147138 
L 276.181364 88.306406 
L 360.726818 75.627423 
L 445.272273 55.926395 
L 529.817727 67.688671 
L 614.363182 79.66242 
L 698.908636 27.691675 
L 783.454091 50.496833 
L 867.999545 51.343318 
" clip-path="url(#pe02b83de34)" style="fill: none; stroke: #7f7f7f; stroke-linecap: square"/>
    <defs>
     <path id="m1acbe2eac3" d="M 0 1.5 
C 0.397805 1.5 0.77937 1.341951 1.06066 1.06066 
C 1.341951 0.77937 1.5 0.397805 1.5 0 
C 1.5 -0.397805 1.341951 -0.77937 1.06066 -1.06066 
C 0.77937 -1.341951 0.397805 -1.5 0 -1.5 
C -0.397805 -1.5 -0.77937 -1.341951 -1.06066 -1.06066 
C -1.341951 -0.77937 -1.5 -0.397805 -1.5 0 
C -1.5 0.397805 -1.341951 0.77937 -1.06066 1.06066 
C -0.77937 1.341951 -0.397805 1.5 0 1.5 
z
" style="stroke: #7f7f7f"/>
    </defs>
    <g clip-path="url(#pe02b83de34)">
     <use xlink:href="#m1acbe2eac3" x="107.090455" y="265.167532" style="fill: #7f7f7f; stroke: #7f7f7f"/>
     <use xlink:href="#m1acbe2eac3" x="191.635909" y="36.147138" style="fill: #7f7f7f; stroke: #7f7f7f"/>
     <use xlink:href="#m1acbe2eac3" x="276.181364" y="88.306406" style="fill: #7f7f7f; stroke: #7f7f7f"/>
     <use xlink:href="#m1acbe2eac3" x="360.726818" y="75.627423" style="fill: #7f7f7f; stroke: #7f7f7f"/>
     <use xlink:href="#m1acbe2eac3" x="445.272273" y="55.926395" style="fill: #7f7f7f; stroke: #7f7f7f"/>
     <use xlink:href="#m1acbe2eac3" x="529.817727" y="67.688671" style="fill: #7f7f7f; stroke: #7f7f7f"/>
     <use xlink:href="#m1acbe2eac3" x="614.363182" y="79.66242" style="fill: #7f7f7f; stroke: #7f7f7f"/>
     <use xlink:href="#m1acbe2eac3" x="698.908636" y="27.691675" style="fill: #7f7f7f; stroke: #7f7f7f"/>
     <use xlink:href="#m1acbe2eac3" x="783.454091" y="50.496833" style="fill: #7f7f7f; stroke: #7f7f7f"/>
     <use xlink:href="#m1acbe2eac3" x="867.999545" y="51.343318" style="fill: #7f7f7f; stroke: #7f7f7f"/>
    </g>
   </g>
   <g id="line2d_35">
    <path d="M 107.090455 287.73332 
" clip-path="url(#pe02b83de34)" style="fill: none; stroke: #bcbd22; stroke-linecap: square"/>
    <defs>
     <path id="ma2fa12b0b7" d="M 0 1.5 
C 0.397805 1.5 0.77937 1.341951 1.06066 1.06066 
C 1.341951 0.77937 1.5 0.397805 1.5 0 
C 1.5 -0.397805 1.341951 -0.77937 1.06066 -1.06066 
C 0.77937 -1.341951 0.397805 -1.5 0 -1.5 
C -0.397805 -1.5 -0.77937 -1.341951 -1.06066 -1.06066 
C -1.341951 -0.77937 -1.5 -0.397805 -1.5 0 
C -1.5 0.397805 -1.341951 0.77937 -1.06066 1.06066 
C -0.77937 1.341951 -0.397805 1.5 0 1.5 
z
" style="stroke: #bcbd22"/>
    </defs>
    <g clip-path="url(#pe02b83de34)">
     <use xlink:href="#ma2fa12b0b7" x="107.090455" y="287.73332" style="fill: #bcbd22; stroke: #bcbd22"/>
    </g>
   </g>
   <g id="line2d_36">
    <path d="M 107.090455 262.703595 
L 191.635909 93.68261 
L 276.181364 91.291047 
L 360.726818 86.882762 
L 445.272273 85.766428 
L 529.817727 90.22199 
L 614.363182 95.183396 
" clip-path="url(#pe02b83de34)" style="fill: none; stroke: #17becf; stroke-linecap: square"/>
    <defs>
     <path id="me4b6d3a507" d="M 0 1.5 
C 0.397805 1.5 0.77937 1.341951 1.06066 1.06066 
C 1.341951 0.77937 1.5 0.397805 1.5 0 
C 1.5 -0.397805 1.341951 -0.77937 1.06066 -1.06066 
C 0.77937 -1.341951 0.397805 -1.5 0 -1.5 
C -0.397805 -1.5 -0.77937 -1.341951 -1.06066 -1.06066 
C -1.341951 -0.77937 -1.5 -0.397805 -1.5 0 
C -1.5 0.397805 -1.341951 0.77937 -1.06066 1.06066 
C -0.77937 1.341951 -0.397805 1.5 0 1.5 
z
" style="stroke: #17becf"/>
    </defs>
    <g clip-path="url(#pe02b83de34)">
     <use xlink:href="#me4b6d3a507" x="107.090455" y="262.703595" style="fill: #17becf; stroke: #17becf"/>
     <use xlink:href="#me4b6d3a507" x="191.635909" y="93.68261" style="fill: #17becf; stroke: #17becf"/>
     <use xlink:href="#me4b6d3a507" x="276.181364" y="91.291047" style="fill: #17becf; stroke: #17becf"/>
     <use xlink:href="#me4b6d3a507" x="360.726818" y="86.882762" style="fill: #17becf; stroke: #17becf"/>
     <use xlink:href="#me4b6d3a507" x="445.272273" y="85.766428" style="fill: #17becf; stroke: #17becf"/>
     <use xlink:href="#me4b6d3a507" x="529.817727" y="90.22199" style="fill: #17becf; stroke: #17becf"/>
     <use xlink:href="#me4b6d3a507" x="614.363182" y="95.183396" style="fill: #17becf; stroke: #17becf"/>
    </g>
   </g>
   <g id="line2d_37">
    <path d="M 107.090455 307.205601 
L 191.635909 75.000967 
L 276.181364 97.186579 
L 360.726818 94.680743 
L 445.272273 96.224561 
L 529.817727 97.139418 
L 614.363182 78.95529 
L 698.908636 88.062903 
L 783.454091 90.544747 
" clip-path="url(#pe02b83de34)" style="fill: none; stroke: #1f77b4; stroke-linecap: square"/>
    <g clip-path="url(#pe02b83de34)">
     <use xlink:href="#mb4fd0bc42d" x="107.090455" y="307.205601" style="fill: #1f77b4; stroke: #1f77b4"/>
     <use xlink:href="#mb4fd0bc42d" x="191.635909" y="75.000967" style="fill: #1f77b4; stroke: #1f77b4"/>
     <use xlink:href="#mb4fd0bc42d" x="276.181364" y="97.186579" style="fill: #1f77b4; stroke: #1f77b4"/>
     <use xlink:href="#mb4fd0bc42d" x="360.726818" y="94.680743" style="fill: #1f77b4; stroke: #1f77b4"/>
     <use xlink:href="#mb4fd0bc42d" x="445.272273" y="96.224561" style="fill: #1f77b4; stroke: #1f77b4"/>
     <use xlink:href="#mb4fd0bc42d" x="529.817727" y="97.139418" style="fill: #1f77b4; stroke: #1f77b4"/>
     <use xlink:href="#mb4fd0bc42d" x="614.363182" y="78.95529" style="fill: #1f77b4; stroke: #1f77b4"/>
     <use xlink:href="#mb4fd0bc42d" x="698.908636" y="88.062903" style="fill: #1f77b4; stroke: #1f77b4"/>
     <use xlink:href="#mb4fd0bc42d" x="783.454091" y="90.544747" style="fill: #1f77b4; stroke: #1f77b4"/>
    </g>
   </g>
   <g id="line2d_38">
    <path d="M 107.090455 260.058039 
L 191.635909 162.455431 
L 276.181364 80.308866 
L 360.726818 138.761571 
L 445.272273 103.872379 
L 529.817727 103.872379 
L 614.363182 103.872379 
" clip-path="url(#pe02b83de34)" style="fill: none; stroke: #ff7f0e; stroke-linecap: square"/>
    <g clip-path="url(#pe02b83de34)">
     <use xlink:href="#m682097d630" x="107.090455" y="260.058039" style="fill: #ff7f0e; stroke: #ff7f0e"/>
     <use xlink:href="#m682097d630" x="191.635909" y="162.455431" style="fill: #ff7f0e; stroke: #ff7f0e"/>
     <use xlink:href="#m682097d630" x="276.181364" y="80.308866" style="fill: #ff7f0e; stroke: #ff7f0e"/>
     <use xlink:href="#m682097d630" x="360.726818" y="138.761571" style="fill: #ff7f0e; stroke: #ff7f0e"/>
     <use xlink:href="#m682097d630" x="445.272273" y="103.872379" style="fill: #ff7f0e; stroke: #ff7f0e"/>
     <use xlink:href="#m682097d630" x="529.817727" y="103.872379" style="fill: #ff7f0e; stroke: #ff7f0e"/>
     <use xlink:href="#m682097d630" x="614.363182" y="103.872379" style="fill: #ff7f0e; stroke: #ff7f0e"/>
    </g>
   </g>
   <g id="line2d_39">
    <path d="M 107.090455 259.514161 
L 191.635909 106.988307 
L 276.181364 104.982282 
L 360.726818 103.119557 
L 445.272273 29.816453 
L 529.817727 112.600705 
L 614.363182 67.939325 
" clip-path="url(#pe02b83de34)" style="fill: none; stroke: #2ca02c; stroke-linecap: square"/>
    <g clip-path="url(#pe02b83de34)">
     <use xlink:href="#me7b4c40783" x="107.090455" y="259.514161" style="fill: #2ca02c; stroke: #2ca02c"/>
     <use xlink:href="#me7b4c40783" x="191.635909" y="106.988307" style="fill: #2ca02c; stroke: #2ca02c"/>
     <use xlink:href="#me7b4c40783" x="276.181364" y="104.982282" style="fill: #2ca02c; stroke: #2ca02c"/>
     <use xlink:href="#me7b4c40783" x="360.726818" y="103.119557" style="fill: #2ca02c; stroke: #2ca02c"/>
     <use xlink:href="#me7b4c40783" x="445.272273" y="29.816453" style="fill: #2ca02c; stroke: #2ca02c"/>
     <use xlink:href="#me7b4c40783" x="529.817727" y="112.600705" style="fill: #2ca02c; stroke: #2ca02c"/>
     <use xlink:href="#me7b4c40783" x="614.363182" y="67.939325" style="fill: #2ca02c; stroke: #2ca02c"/>
    </g>
   </g>
   <g id="line2d_40">
    <path d="M 107.090455 258.504861 
" clip-path="url(#pe02b83de34)" style="fill: none; stroke: #d62728; stroke-linecap: square"/>
    <g clip-path="url(#pe02b83de34)">
     <use xlink:href="#mba1e3bad04" x="107.090455" y="258.504861" style="fill: #d62728; stroke: #d62728"/>
    </g>
   </g>
   <g id="line2d_41">
    <path d="M 107.090455 258.297128 
L 191.635909 116.77961 
L 276.181364 123.004526 
L 360.726818 130.856612 
L 445.272273 129.338833 
L 529.817727 118.929109 
L 614.363182 121.467369 
L 698.908636 130.743052 
" clip-path="url(#pe02b83de34)" style="fill: none; stroke: #9467bd; stroke-linecap: square"/>
    <g clip-path="url(#pe02b83de34)">
     <use xlink:href="#m14b96db054" x="107.090455" y="258.297128" style="fill: #9467bd; stroke: #9467bd"/>
     <use xlink:href="#m14b96db054" x="191.635909" y="116.77961" style="fill: #9467bd; stroke: #9467bd"/>
     <use xlink:href="#m14b96db054" x="276.181364" y="123.004526" style="fill: #9467bd; stroke: #9467bd"/>
     <use xlink:href="#m14b96db054" x="360.726818" y="130.856612" style="fill: #9467bd; stroke: #9467bd"/>
     <use xlink:href="#m14b96db054" x="445.272273" y="129.338833" style="fill: #9467bd; stroke: #9467bd"/>
     <use xlink:href="#m14b96db054" x="529.817727" y="118.929109" style="fill: #9467bd; stroke: #9467bd"/>
     <use xlink:href="#m14b96db054" x="614.363182" y="121.467369" style="fill: #9467bd; stroke: #9467bd"/>
     <use xlink:href="#m14b96db054" x="698.908636" y="130.743052" style="fill: #9467bd; stroke: #9467bd"/>
    </g>
   </g>
   <g id="line2d_42">
    <path d="M 107.090455 282.617978 
L 191.635909 151.193751 
L 276.181364 146.313224 
L 360.726818 145.933984 
L 445.272273 150.082445 
L 529.817727 144.587065 
L 614.363182 256.156643 
L 698.908636 150.255604 
" clip-path="url(#pe02b83de34)" style="fill: none; stroke: #8c564b; stroke-linecap: square"/>
    <g clip-path="url(#pe02b83de34)">
     <use xlink:href="#m24be62658a" x="107.090455" y="282.617978" style="fill: #8c564b; stroke: #8c564b"/>
     <use xlink:href="#m24be62658a" x="191.635909" y="151.193751" style="fill: #8c564b; stroke: #8c564b"/>
     <use xlink:href="#m24be62658a" x="276.181364" y="146.313224" style="fill: #8c564b; stroke: #8c564b"/>
     <use xlink:href="#m24be62658a" x="360.726818" y="145.933984" style="fill: #8c564b; stroke: #8c564b"/>
     <use xlink:href="#m24be62658a" x="445.272273" y="150.082445" style="fill: #8c564b; stroke: #8c564b"/>
     <use xlink:href="#m24be62658a" x="529.817727" y="144.587065" style="fill: #8c564b; stroke: #8c564b"/>
     <use xlink:href="#m24be62658a" x="614.363182" y="256.156643" style="fill: #8c564b; stroke: #8c564b"/>
     <use xlink:href="#m24be62658a" x="698.908636" y="150.255604" style="fill: #8c564b; stroke: #8c564b"/>
    </g>
   </g>
   <g id="line2d_43">
    <path d="M 107.090455 263.193657 
L 191.635909 167.477376 
L 276.181364 169.113819 
L 360.726818 161.023916 
L 445.272273 151.178116 
L 529.817727 170.414115 
L 614.363182 155.702568 
" clip-path="url(#pe02b83de34)" style="fill: none; stroke: #e377c2; stroke-linecap: square"/>
    <g clip-path="url(#pe02b83de34)">
     <use xlink:href="#mcfe692291a" x="107.090455" y="263.193657" style="fill: #e377c2; stroke: #e377c2"/>
     <use xlink:href="#mcfe692291a" x="191.635909" y="167.477376" style="fill: #e377c2; stroke: #e377c2"/>
     <use xlink:href="#mcfe692291a" x="276.181364" y="169.113819" style="fill: #e377c2; stroke: #e377c2"/>
     <use xlink:href="#mcfe692291a" x="360.726818" y="161.023916" style="fill: #e377c2; stroke: #e377c2"/>
     <use xlink:href="#mcfe692291a" x="445.272273" y="151.178116" style="fill: #e377c2; stroke: #e377c2"/>
     <use xlink:href="#mcfe692291a" x="529.817727" y="170.414115" style="fill: #e377c2; stroke: #e377c2"/>
     <use xlink:href="#mcfe692291a" x="614.363182" y="155.702568" style="fill: #e377c2; stroke: #e377c2"/>
    </g>
   </g>
   <g id="line2d_44">
    <path d="M 107.090455 260.182254 
L 191.635909 225.672019 
L 276.181364 260.182254 
L 360.726818 254.440587 
L 445.272273 251.778702 
" clip-path="url(#pe02b83de34)" style="fill: none; stroke: #7f7f7f; stroke-linecap: square"/>
    <g clip-path="url(#pe02b83de34)">
     <use xlink:href="#m1acbe2eac3" x="107.090455" y="260.182254" style="fill: #7f7f7f; stroke: #7f7f7f"/>
     <use xlink:href="#m1acbe2eac3" x="191.635909" y="225.672019" style="fill: #7f7f7f; stroke: #7f7f7f"/>
     <use xlink:href="#m1acbe2eac3" x="276.181364" y="260.182254" style="fill: #7f7f7f; stroke: #7f7f7f"/>
     <use xlink:href="#m1acbe2eac3" x="360.726818" y="254.440587" style="fill: #7f7f7f; stroke: #7f7f7f"/>
     <use xlink:href="#m1acbe2eac3" x="445.272273" y="251.778702" style="fill: #7f7f7f; stroke: #7f7f7f"/>
    </g>
   </g>
   <g id="line2d_45">
    <path d="M 107.090455 269.450537 
L 191.635909 138.662975 
L 276.181364 178.90332 
L 360.726818 165.279276 
L 445.272273 157.038544 
L 529.817727 177.956009 
L 614.363182 169.873044 
L 698.908636 157.814331 
" clip-path="url(#pe02b83de34)" style="fill: none; stroke: #bcbd22; stroke-linecap: square"/>
    <g clip-path="url(#pe02b83de34)">
     <use xlink:href="#ma2fa12b0b7" x="107.090455" y="269.450537" style="fill: #bcbd22; stroke: #bcbd22"/>
     <use xlink:href="#ma2fa12b0b7" x="191.635909" y="138.662975" style="fill: #bcbd22; stroke: #bcbd22"/>
     <use xlink:href="#ma2fa12b0b7" x="276.181364" y="178.90332" style="fill: #bcbd22; stroke: #bcbd22"/>
     <use xlink:href="#ma2fa12b0b7" x="360.726818" y="165.279276" style="fill: #bcbd22; stroke: #bcbd22"/>
     <use xlink:href="#ma2fa12b0b7" x="445.272273" y="157.038544" style="fill: #bcbd22; stroke: #bcbd22"/>
     <use xlink:href="#ma2fa12b0b7" x="529.817727" y="177.956009" style="fill: #bcbd22; stroke: #bcbd22"/>
     <use xlink:href="#ma2fa12b0b7" x="614.363182" y="169.873044" style="fill: #bcbd22; stroke: #bcbd22"/>
     <use xlink:href="#ma2fa12b0b7" x="698.908636" y="157.814331" style="fill: #bcbd22; stroke: #bcbd22"/>
    </g>
   </g>
   <g id="line2d_46">
    <path d="M 107.090455 259.528661 
L 191.635909 250.452488 
L 276.181364 171.204208 
L 360.726818 164.282458 
L 445.272273 149.347724 
L 529.817727 167.734953 
L 614.363182 156.81401 
" clip-path="url(#pe02b83de34)" style="fill: none; stroke: #17becf; stroke-linecap: square"/>
    <g clip-path="url(#pe02b83de34)">
     <use xlink:href="#me4b6d3a507" x="107.090455" y="259.528661" style="fill: #17becf; stroke: #17becf"/>
     <use xlink:href="#me4b6d3a507" x="191.635909" y="250.452488" style="fill: #17becf; stroke: #17becf"/>
     <use xlink:href="#me4b6d3a507" x="276.181364" y="171.204208" style="fill: #17becf; stroke: #17becf"/>
     <use xlink:href="#me4b6d3a507" x="360.726818" y="164.282458" style="fill: #17becf; stroke: #17becf"/>
     <use xlink:href="#me4b6d3a507" x="445.272273" y="149.347724" style="fill: #17becf; stroke: #17becf"/>
     <use xlink:href="#me4b6d3a507" x="529.817727" y="167.734953" style="fill: #17becf; stroke: #17becf"/>
     <use xlink:href="#me4b6d3a507" x="614.363182" y="156.81401" style="fill: #17becf; stroke: #17becf"/>
    </g>
   </g>
   <g id="line2d_47">
    <path d="M 107.090455 271.216509 
L 191.635909 157.54454 
L 276.181364 162.641514 
L 360.726818 254.102158 
L 445.272273 166.349993 
L 529.817727 142.40759 
L 614.363182 178.541983 
L 698.908636 163.248954 
" clip-path="url(#pe02b83de34)" style="fill: none; stroke: #1f77b4; stroke-linecap: square"/>
    <g clip-path="url(#pe02b83de34)">
     <use xlink:href="#mb4fd0bc42d" x="107.090455" y="271.216509" style="fill: #1f77b4; stroke: #1f77b4"/>
     <use xlink:href="#mb4fd0bc42d" x="191.635909" y="157.54454" style="fill: #1f77b4; stroke: #1f77b4"/>
     <use xlink:href="#mb4fd0bc42d" x="276.181364" y="162.641514" style="fill: #1f77b4; stroke: #1f77b4"/>
     <use xlink:href="#mb4fd0bc42d" x="360.726818" y="254.102158" style="fill: #1f77b4; stroke: #1f77b4"/>
     <use xlink:href="#mb4fd0bc42d" x="445.272273" y="166.349993" style="fill: #1f77b4; stroke: #1f77b4"/>
     <use xlink:href="#mb4fd0bc42d" x="529.817727" y="142.40759" style="fill: #1f77b4; stroke: #1f77b4"/>
     <use xlink:href="#mb4fd0bc42d" x="614.363182" y="178.541983" style="fill: #1f77b4; stroke: #1f77b4"/>
     <use xlink:href="#mb4fd0bc42d" x="698.908636" y="163.248954" style="fill: #1f77b4; stroke: #1f77b4"/>
    </g>
   </g>
   <g id="line2d_48">
    <path d="M 107.090455 261.342511 
L 191.635909 256.335323 
L 276.181364 179.004762 
L 360.726818 182.366442 
L 445.272273 250.211937 
L 529.817727 245.928518 
L 614.363182 193.817514 
" clip-path="url(#pe02b83de34)" style="fill: none; stroke: #ff7f0e; stroke-linecap: square"/>
    <g clip-path="url(#pe02b83de34)">
     <use xlink:href="#m682097d630" x="107.090455" y="261.342511" style="fill: #ff7f0e; stroke: #ff7f0e"/>
     <use xlink:href="#m682097d630" x="191.635909" y="256.335323" style="fill: #ff7f0e; stroke: #ff7f0e"/>
     <use xlink:href="#m682097d630" x="276.181364" y="179.004762" style="fill: #ff7f0e; stroke: #ff7f0e"/>
     <use xlink:href="#m682097d630" x="360.726818" y="182.366442" style="fill: #ff7f0e; stroke: #ff7f0e"/>
     <use xlink:href="#m682097d630" x="445.272273" y="250.211937" style="fill: #ff7f0e; stroke: #ff7f0e"/>
     <use xlink:href="#m682097d630" x="529.817727" y="245.928518" style="fill: #ff7f0e; stroke: #ff7f0e"/>
     <use xlink:href="#m682097d630" x="614.363182" y="193.817514" style="fill: #ff7f0e; stroke: #ff7f0e"/>
    </g>
   </g>
   <g id="line2d_49">
    <path d="M 107.090455 268.823909 
L 191.635909 148.666254 
L 276.181364 147.578999 
L 360.726818 157.133784 
L 445.272273 197.247395 
L 529.817727 255.437548 
L 614.363182 150.341385 
" clip-path="url(#pe02b83de34)" style="fill: none; stroke: #2ca02c; stroke-linecap: square"/>
    <g clip-path="url(#pe02b83de34)">
     <use xlink:href="#me7b4c40783" x="107.090455" y="268.823909" style="fill: #2ca02c; stroke: #2ca02c"/>
     <use xlink:href="#me7b4c40783" x="191.635909" y="148.666254" style="fill: #2ca02c; stroke: #2ca02c"/>
     <use xlink:href="#me7b4c40783" x="276.181364" y="147.578999" style="fill: #2ca02c; stroke: #2ca02c"/>
     <use xlink:href="#me7b4c40783" x="360.726818" y="157.133784" style="fill: #2ca02c; stroke: #2ca02c"/>
     <use xlink:href="#me7b4c40783" x="445.272273" y="197.247395" style="fill: #2ca02c; stroke: #2ca02c"/>
     <use xlink:href="#me7b4c40783" x="529.817727" y="255.437548" style="fill: #2ca02c; stroke: #2ca02c"/>
     <use xlink:href="#me7b4c40783" x="614.363182" y="150.341385" style="fill: #2ca02c; stroke: #2ca02c"/>
    </g>
   </g>
   <g id="line2d_50">
    <path d="M 107.090455 259.712578 
L 191.635909 249.768069 
L 276.181364 161.052941 
L 360.726818 164.447164 
L 445.272273 170.614787 
L 529.817727 153.040487 
L 614.363182 170.972304 
L 698.908636 162.092712 
" clip-path="url(#pe02b83de34)" style="fill: none; stroke: #d62728; stroke-linecap: square"/>
    <g clip-path="url(#pe02b83de34)">
     <use xlink:href="#mba1e3bad04" x="107.090455" y="259.712578" style="fill: #d62728; stroke: #d62728"/>
     <use xlink:href="#mba1e3bad04" x="191.635909" y="249.768069" style="fill: #d62728; stroke: #d62728"/>
     <use xlink:href="#mba1e3bad04" x="276.181364" y="161.052941" style="fill: #d62728; stroke: #d62728"/>
     <use xlink:href="#mba1e3bad04" x="360.726818" y="164.447164" style="fill: #d62728; stroke: #d62728"/>
     <use xlink:href="#mba1e3bad04" x="445.272273" y="170.614787" style="fill: #d62728; stroke: #d62728"/>
     <use xlink:href="#mba1e3bad04" x="529.817727" y="153.040487" style="fill: #d62728; stroke: #d62728"/>
     <use xlink:href="#mba1e3bad04" x="614.363182" y="170.972304" style="fill: #d62728; stroke: #d62728"/>
     <use xlink:href="#mba1e3bad04" x="698.908636" y="162.092712" style="fill: #d62728; stroke: #d62728"/>
    </g>
   </g>
   <g id="line2d_51">
    <path d="M 107.090455 265.189926 
L 191.635909 136.924319 
L 276.181364 235.406833 
L 360.726818 148.902297 
L 445.272273 244.652309 
L 529.817727 249.278418 
L 614.363182 143.865245 
L 698.908636 121.147477 
L 783.454091 269.251292 
" clip-path="url(#pe02b83de34)" style="fill: none; stroke: #9467bd; stroke-linecap: square"/>
    <g clip-path="url(#pe02b83de34)">
     <use xlink:href="#m14b96db054" x="107.090455" y="265.189926" style="fill: #9467bd; stroke: #9467bd"/>
     <use xlink:href="#m14b96db054" x="191.635909" y="136.924319" style="fill: #9467bd; stroke: #9467bd"/>
     <use xlink:href="#m14b96db054" x="276.181364" y="235.406833" style="fill: #9467bd; stroke: #9467bd"/>
     <use xlink:href="#m14b96db054" x="360.726818" y="148.902297" style="fill: #9467bd; stroke: #9467bd"/>
     <use xlink:href="#m14b96db054" x="445.272273" y="244.652309" style="fill: #9467bd; stroke: #9467bd"/>
     <use xlink:href="#m14b96db054" x="529.817727" y="249.278418" style="fill: #9467bd; stroke: #9467bd"/>
     <use xlink:href="#m14b96db054" x="614.363182" y="143.865245" style="fill: #9467bd; stroke: #9467bd"/>
     <use xlink:href="#m14b96db054" x="698.908636" y="121.147477" style="fill: #9467bd; stroke: #9467bd"/>
     <use xlink:href="#m14b96db054" x="783.454091" y="269.251292" style="fill: #9467bd; stroke: #9467bd"/>
    </g>
   </g>
   <g id="line2d_52">
    <path d="M 107.090455 259.070164 
L 191.635909 256.118939 
L 276.181364 257.896633 
L 360.726818 244.507402 
L 445.272273 170.161734 
L 529.817727 251.81795 
L 614.363182 168.319018 
" clip-path="url(#pe02b83de34)" style="fill: none; stroke: #8c564b; stroke-linecap: square"/>
    <g clip-path="url(#pe02b83de34)">
     <use xlink:href="#m24be62658a" x="107.090455" y="259.070164" style="fill: #8c564b; stroke: #8c564b"/>
     <use xlink:href="#m24be62658a" x="191.635909" y="256.118939" style="fill: #8c564b; stroke: #8c564b"/>
     <use xlink:href="#m24be62658a" x="276.181364" y="257.896633" style="fill: #8c564b; stroke: #8c564b"/>
     <use xlink:href="#m24be62658a" x="360.726818" y="244.507402" style="fill: #8c564b; stroke: #8c564b"/>
     <use xlink:href="#m24be62658a" x="445.272273" y="170.161734" style="fill: #8c564b; stroke: #8c564b"/>
     <use xlink:href="#m24be62658a" x="529.817727" y="251.81795" style="fill: #8c564b; stroke: #8c564b"/>
     <use xlink:href="#m24be62658a" x="614.363182" y="168.319018" style="fill: #8c564b; stroke: #8c564b"/>
    </g>
   </g>
   <g id="line2d_53">
    <path d="M 107.090455 260.780938 
L 191.635909 148.990774 
L 276.181364 154.802796 
L 360.726818 258.630809 
L 445.272273 258.630809 
L 529.817727 228.889809 
L 614.363182 143.813874 
" clip-path="url(#pe02b83de34)" style="fill: none; stroke: #e377c2; stroke-linecap: square"/>
    <g clip-path="url(#pe02b83de34)">
     <use xlink:href="#mcfe692291a" x="107.090455" y="260.780938" style="fill: #e377c2; stroke: #e377c2"/>
     <use xlink:href="#mcfe692291a" x="191.635909" y="148.990774" style="fill: #e377c2; stroke: #e377c2"/>
     <use xlink:href="#mcfe692291a" x="276.181364" y="154.802796" style="fill: #e377c2; stroke: #e377c2"/>
     <use xlink:href="#mcfe692291a" x="360.726818" y="258.630809" style="fill: #e377c2; stroke: #e377c2"/>
     <use xlink:href="#mcfe692291a" x="445.272273" y="258.630809" style="fill: #e377c2; stroke: #e377c2"/>
     <use xlink:href="#mcfe692291a" x="529.817727" y="228.889809" style="fill: #e377c2; stroke: #e377c2"/>
     <use xlink:href="#mcfe692291a" x="614.363182" y="143.813874" style="fill: #e377c2; stroke: #e377c2"/>
    </g>
   </g>
   <g id="line2d_54">
    <path d="M 107.090455 266.953474 
L 191.635909 97.21804 
L 276.181364 164.396423 
L 360.726818 258.668088 
L 445.272273 160.429251 
L 529.817727 252.190412 
L 614.363182 257.640606 
L 698.908636 147.629572 
" clip-path="url(#pe02b83de34)" style="fill: none; stroke: #7f7f7f; stroke-linecap: square"/>
    <g clip-path="url(#pe02b83de34)">
     <use xlink:href="#m1acbe2eac3" x="107.090455" y="266.953474" style="fill: #7f7f7f; stroke: #7f7f7f"/>
     <use xlink:href="#m1acbe2eac3" x="191.635909" y="97.21804" style="fill: #7f7f7f; stroke: #7f7f7f"/>
     <use xlink:href="#m1acbe2eac3" x="276.181364" y="164.396423" style="fill: #7f7f7f; stroke: #7f7f7f"/>
     <use xlink:href="#m1acbe2eac3" x="360.726818" y="258.668088" style="fill: #7f7f7f; stroke: #7f7f7f"/>
     <use xlink:href="#m1acbe2eac3" x="445.272273" y="160.429251" style="fill: #7f7f7f; stroke: #7f7f7f"/>
     <use xlink:href="#m1acbe2eac3" x="529.817727" y="252.190412" style="fill: #7f7f7f; stroke: #7f7f7f"/>
     <use xlink:href="#m1acbe2eac3" x="614.363182" y="257.640606" style="fill: #7f7f7f; stroke: #7f7f7f"/>
     <use xlink:href="#m1acbe2eac3" x="698.908636" y="147.629572" style="fill: #7f7f7f; stroke: #7f7f7f"/>
    </g>
   </g>
   <g id="line2d_55">
    <path d="M 107.090455 264.534336 
L 191.635909 73.580634 
L 276.181364 159.315889 
L 360.726818 146.626745 
L 445.272273 124.075293 
L 529.817727 160.872948 
L 614.363182 247.61222 
L 698.908636 251.76898 
L 783.454091 249.024259 
" clip-path="url(#pe02b83de34)" style="fill: none; stroke: #bcbd22; stroke-linecap: square"/>
    <g clip-path="url(#pe02b83de34)">
     <use xlink:href="#ma2fa12b0b7" x="107.090455" y="264.534336" style="fill: #bcbd22; stroke: #bcbd22"/>
     <use xlink:href="#ma2fa12b0b7" x="191.635909" y="73.580634" style="fill: #bcbd22; stroke: #bcbd22"/>
     <use xlink:href="#ma2fa12b0b7" x="276.181364" y="159.315889" style="fill: #bcbd22; stroke: #bcbd22"/>
     <use xlink:href="#ma2fa12b0b7" x="360.726818" y="146.626745" style="fill: #bcbd22; stroke: #bcbd22"/>
     <use xlink:href="#ma2fa12b0b7" x="445.272273" y="124.075293" style="fill: #bcbd22; stroke: #bcbd22"/>
     <use xlink:href="#ma2fa12b0b7" x="529.817727" y="160.872948" style="fill: #bcbd22; stroke: #bcbd22"/>
     <use xlink:href="#ma2fa12b0b7" x="614.363182" y="247.61222" style="fill: #bcbd22; stroke: #bcbd22"/>
     <use xlink:href="#ma2fa12b0b7" x="698.908636" y="251.76898" style="fill: #bcbd22; stroke: #bcbd22"/>
     <use xlink:href="#ma2fa12b0b7" x="783.454091" y="249.024259" style="fill: #bcbd22; stroke: #bcbd22"/>
    </g>
   </g>
   <g id="line2d_56">
    <path d="M 107.090455 259.423259 
L 191.635909 226.667593 
L 276.181364 161.525544 
L 360.726818 256.410321 
L 445.272273 247.133663 
L 529.817727 247.133663 
L 614.363182 172.335846 
L 698.908636 106.941705 
L 783.454091 181.473444 
" clip-path="url(#pe02b83de34)" style="fill: none; stroke: #17becf; stroke-linecap: square"/>
    <g clip-path="url(#pe02b83de34)">
     <use xlink:href="#me4b6d3a507" x="107.090455" y="259.423259" style="fill: #17becf; stroke: #17becf"/>
     <use xlink:href="#me4b6d3a507" x="191.635909" y="226.667593" style="fill: #17becf; stroke: #17becf"/>
     <use xlink:href="#me4b6d3a507" x="276.181364" y="161.525544" style="fill: #17becf; stroke: #17becf"/>
     <use xlink:href="#me4b6d3a507" x="360.726818" y="256.410321" style="fill: #17becf; stroke: #17becf"/>
     <use xlink:href="#me4b6d3a507" x="445.272273" y="247.133663" style="fill: #17becf; stroke: #17becf"/>
     <use xlink:href="#me4b6d3a507" x="529.817727" y="247.133663" style="fill: #17becf; stroke: #17becf"/>
     <use xlink:href="#me4b6d3a507" x="614.363182" y="172.335846" style="fill: #17becf; stroke: #17becf"/>
     <use xlink:href="#me4b6d3a507" x="698.908636" y="106.941705" style="fill: #17becf; stroke: #17becf"/>
     <use xlink:href="#me4b6d3a507" x="783.454091" y="181.473444" style="fill: #17becf; stroke: #17becf"/>
    </g>
   </g>
   <g id="patch_3">
    <path d="M 69.045 345.211675 
L 69.045 12.571675 
" style="fill: none; stroke: #000000; stroke-width: 0.8; stroke-linejoin: miter; stroke-linecap: square"/>
   </g>
   <g id="patch_4">
    <path d="M 906.045 345.211675 
L 906.045 12.571675 
" style="fill: none; stroke: #000000; stroke-width: 0.8; stroke-linejoin: miter; stroke-linecap: square"/>
   </g>
   <g id="patch_5">
    <path d="M 69.045 345.211675 
L 906.045 345.211675 
" style="fill: none; stroke: #000000; stroke-width: 0.8; stroke-linejoin: miter; stroke-linecap: square"/>
   </g>
   <g id="patch_6">
    <path d="M 69.045 12.571675 
L 906.045 12.571675 
" style="fill: none; stroke: #000000; stroke-width: 0.8; stroke-linejoin: miter; stroke-linecap: square"/>
   </g>
  </g>
 </g>
 <defs>
  <clipPath id="pe02b83de34">
   <rect x="69.045" y="12.571675" width="837" height="332.64"/>
  </clipPath>
 </defs>
</svg>
